<svg width="427" height="423" viewBox="0 0 427 423" fill="none" xmlns="http://www.w3.org/2000/svg">
<g clip-path="url(#clip0_2029_126)">
<path d="M44.0901 228.55V240.55C44.0901 240.642 44.0532 240.731 43.9876 240.797C43.9219 240.863 43.8329 240.9 43.7401 240.9H39.1801C39.0873 240.9 38.9982 240.863 38.9326 240.797C38.867 240.731 38.8301 240.642 38.8301 240.55V228.55C38.8301 227.9 39.0882 227.277 39.5477 226.817C40.0071 226.358 40.6303 226.1 41.2801 226.1H41.6401C42.2899 226.1 42.913 226.358 43.3725 226.817C43.832 227.277 44.0901 227.9 44.0901 228.55Z" fill="#263238"/>
<path d="M35.5988 228.595L38.2186 240.306C38.2389 240.396 38.2223 240.491 38.1726 240.569C38.1229 240.648 38.044 240.703 37.9534 240.724L33.5034 241.719C33.4129 241.739 33.3179 241.723 33.2395 241.673C33.1612 241.623 33.1057 241.544 33.0855 241.454L30.4657 229.743C30.3239 229.109 30.4397 228.445 30.7878 227.896C31.1359 227.347 31.6876 226.959 32.3217 226.818L32.6731 226.739C33.3072 226.597 33.9717 226.713 34.5203 227.061C35.069 227.409 35.457 227.961 35.5988 228.595Z" fill="#263238"/>
<path d="M26.4645 231.53L32.4645 241.922C32.5109 242.003 32.5235 242.098 32.4995 242.188C32.4754 242.278 32.4168 242.354 32.3364 242.4L28.3873 244.68C28.3069 244.727 28.2114 244.739 28.1217 244.715C28.0321 244.691 27.9556 244.633 27.9092 244.552L21.9092 234.16C21.5843 233.597 21.4963 232.929 21.6644 232.301C21.8326 231.673 22.2432 231.138 22.806 230.813L23.1177 230.633C23.6805 230.308 24.3492 230.22 24.9768 230.388C25.6045 230.557 26.1396 230.967 26.4645 231.53Z" fill="#263238"/>
<path d="M395.634 423.403L253.634 423.323C245.432 423.318 237.567 420.056 231.769 414.254C225.971 408.452 222.714 400.585 222.714 392.383L222.784 36.3831C222.803 28.1735 226.077 20.3065 231.889 14.5081C237.7 8.70956 245.575 5.4531 253.784 5.45313L395.784 5.54313C403.986 5.54843 411.851 8.81051 417.649 14.6123C423.447 20.4141 426.704 28.2808 426.704 36.4831L426.634 392.483C426.634 396.55 425.832 400.578 424.273 404.334C422.714 408.091 420.429 411.503 417.55 414.375C414.67 417.247 411.252 419.523 407.491 421.072C403.731 422.622 399.701 423.414 395.634 423.403Z" fill="#455A64"/>
<path d="M395.584 18.0933H368.054C366.239 18.1352 364.515 18.8961 363.26 20.2087C362.006 21.5212 361.324 23.2781 361.364 25.0933V30.0933C361.404 31.9084 360.722 33.6653 359.468 34.9779C358.213 36.2905 356.489 37.0513 354.674 37.0933H301.004C299.191 37.0487 297.469 36.2867 296.217 34.9744C294.964 33.6621 294.284 31.9067 294.324 30.0933V25.0933C294.364 23.2781 293.682 21.5212 292.428 20.2087C291.173 18.8961 289.449 18.1352 287.634 18.0933H253.854C248.12 18.0879 242.617 20.3566 238.553 24.402C234.489 28.4473 232.195 33.9391 232.174 39.6733L232.104 387.193C232.115 392.932 234.401 398.432 238.462 402.487C242.522 406.542 248.025 408.821 253.764 408.823L395.494 408.903C398.34 408.905 401.158 408.345 403.788 407.258C406.417 406.17 408.807 404.575 410.82 402.563C412.833 400.552 414.43 398.164 415.521 395.535C416.611 392.907 417.173 390.089 417.174 387.243L417.234 39.7233C417.226 33.9856 414.942 28.4855 410.883 24.4303C406.824 20.375 401.322 18.0959 395.584 18.0933Z" fill="white"/>
<path d="M417.224 91.1333V39.3633C417.122 33.69 414.798 28.2834 410.751 24.3058C406.704 20.3283 401.258 18.0976 395.584 18.0933H368.054C367.155 18.1127 366.268 18.3094 365.445 18.6718C364.622 19.0343 363.879 19.5556 363.257 20.2058C362.636 20.856 362.149 21.6223 361.824 22.461C361.499 23.2996 361.343 24.1941 361.364 25.0933V30.0933C361.404 31.9084 360.722 33.6653 359.468 34.9779C358.213 36.2905 356.489 37.0513 354.674 37.0933H301.004C299.191 37.0487 297.469 36.2867 296.217 34.9744C294.964 33.6621 294.284 31.9067 294.324 30.0933V25.0933C294.364 23.2781 293.682 21.5212 292.428 20.2087C291.173 18.8961 289.449 18.1352 287.634 18.0933H253.854C248.12 18.0879 242.618 20.3566 238.553 24.402C234.489 28.4473 232.195 33.9391 232.174 39.6733V91.2933H417.224V91.1333Z" fill="#EBEBEB"/>
<path d="M269.914 161.353C282.302 161.353 292.344 151.333 292.344 138.973C292.344 126.613 282.302 116.593 269.914 116.593C257.526 116.593 247.484 126.613 247.484 138.973C247.484 151.333 257.526 161.353 269.914 161.353Z" fill="#E0E0E0"/>
<path d="M259.434 144.573L265.314 144.073L279.654 146.493L281.344 157.283L281.104 158.543C277.874 160.366 274.244 161.365 270.535 161.45C266.827 161.536 263.155 160.706 259.844 159.033L259.434 144.573Z" fill="#455A64"/>
<path d="M276.584 146.323C278.006 146.115 279.458 146.312 280.773 146.89C282.089 147.468 283.215 148.405 284.024 149.593C284.996 150.95 285.887 152.362 286.694 153.823C284.354 156.363 282.454 158.293 279.214 159.423L276.584 146.323Z" fill="#455A64"/>
<path d="M259.434 144.573C259.434 144.573 255.554 145.053 254.054 148.363C252.554 151.673 252.204 152.703 252.204 152.703C254.204 155.123 256.764 157.983 259.894 159.053C259.894 159.053 260.604 150.713 260.694 148.363C260.804 145.823 260.904 144.503 259.434 144.573Z" fill="#455A64"/>
<path d="M262.974 123.373C263.951 122.121 265.197 121.104 266.62 120.398C268.043 119.692 269.606 119.314 271.194 119.293C272.56 119.293 273.914 119.537 275.194 120.013C276.541 120.332 277.732 121.119 278.554 122.233C279.574 123.543 280.241 125.092 280.494 126.733C280.729 128.412 280.809 130.109 280.734 131.803C280.652 133.509 280.102 135.159 279.144 136.573L274.834 137.313C272.458 137.503 270.067 137.375 267.724 136.933C265.356 136.478 263.263 135.105 261.904 133.113C260.174 130.303 260.894 125.933 262.974 123.373Z" fill="#263238"/>
<path d="M258.814 135.823C258.858 135.336 259.012 134.864 259.265 134.445C259.518 134.026 259.863 133.67 260.274 133.403C260.695 133.151 261.184 133.038 261.673 133.081C262.162 133.124 262.624 133.321 262.994 133.643L263.674 134.443C264.199 134.686 264.635 135.086 264.922 135.588C265.208 136.089 265.332 136.668 265.274 137.243C265.199 137.819 264.959 138.361 264.583 138.803C264.207 139.245 263.71 139.568 263.154 139.733C262.598 139.891 262.011 139.903 261.448 139.768C260.886 139.633 260.368 139.356 259.944 138.963C259.528 138.561 259.21 138.069 259.014 137.525C258.818 136.98 258.75 136.398 258.814 135.823Z" fill="#263238"/>
<path d="M259.664 138.763C259.502 138.51 259.422 138.214 259.434 137.913C259.578 137.185 259.925 136.513 260.434 135.973C260.917 135.407 261.504 134.938 262.164 134.593C262.664 134.323 263.014 134.223 263.004 134.193C262.685 134.217 262.374 134.309 262.094 134.463C261.389 134.777 260.766 135.249 260.274 135.843C259.998 136.145 259.763 136.481 259.574 136.843C259.41 137.153 259.315 137.494 259.294 137.843C259.29 138.084 259.356 138.32 259.484 138.523C259.574 138.723 259.664 138.823 259.664 138.763Z" fill="#455A64"/>
<path d="M274.794 145.553V141.553C274.794 141.553 278.304 141.163 279.284 136.663C279.745 133.686 279.926 130.673 279.824 127.663C279.824 124.933 277.474 121.213 274.094 121.203L272.594 121.023L266.844 123.303C266.445 123.325 266.068 123.495 265.787 123.78C265.506 124.064 265.341 124.443 265.324 124.843L265.154 144.053L267.784 147.743C268.266 148.395 268.939 148.879 269.71 149.129C270.481 149.378 271.31 149.38 272.083 149.134C272.855 148.888 273.53 148.407 274.015 147.757C274.499 147.108 274.768 146.323 274.784 145.513L274.794 145.553Z" fill="#FFBE9D"/>
<path d="M272.504 135.623C272.535 135.392 272.653 135.181 272.834 135.033C272.999 134.895 273.203 134.814 273.418 134.802C273.632 134.789 273.845 134.846 274.024 134.963C274.208 135.106 274.351 135.296 274.439 135.511C274.526 135.727 274.556 135.962 274.524 136.193C274.424 136.332 274.296 136.449 274.147 136.535C273.999 136.621 273.835 136.675 273.664 136.693H273.504C273.372 136.697 273.24 136.674 273.116 136.626C272.992 136.577 272.88 136.505 272.784 136.413C272.683 136.31 272.606 136.185 272.557 136.049C272.509 135.913 272.491 135.767 272.504 135.623Z" fill="#EB996E"/>
<path d="M277.734 130.823C277.729 130.975 277.664 131.119 277.554 131.224C277.443 131.329 277.296 131.386 277.144 131.383C277.069 131.385 276.995 131.371 276.925 131.344C276.856 131.316 276.792 131.275 276.738 131.223C276.684 131.171 276.641 131.109 276.611 131.041C276.582 130.972 276.566 130.898 276.564 130.823C276.572 130.67 276.639 130.526 276.751 130.422C276.863 130.317 277.011 130.26 277.164 130.263C277.239 130.262 277.312 130.275 277.382 130.303C277.451 130.331 277.514 130.372 277.567 130.424C277.62 130.476 277.662 130.538 277.691 130.607C277.719 130.675 277.734 130.749 277.734 130.823Z" fill="#263238"/>
<path d="M278.694 129.383C278.614 129.453 278.184 129.103 277.564 129.073C276.944 129.043 276.454 129.333 276.394 129.253C276.334 129.173 276.444 129.083 276.654 128.943C276.938 128.774 277.265 128.694 277.594 128.713C277.92 128.726 278.233 128.846 278.484 129.053C278.664 129.213 278.724 129.353 278.694 129.383Z" fill="#263238"/>
<path d="M274.744 134.123C275.072 134.046 275.407 134.006 275.744 134.003C275.904 134.003 276.064 134.003 276.094 133.863C276.117 133.699 276.089 133.531 276.014 133.383L275.604 132.143C275.222 131.085 274.924 129.998 274.714 128.893C275.182 129.917 275.566 130.977 275.864 132.063C276.004 132.493 276.124 132.913 276.254 133.313C276.338 133.512 276.356 133.733 276.304 133.943C276.243 134.05 276.143 134.129 276.024 134.163C275.934 134.172 275.844 134.172 275.754 134.163C275.417 134.195 275.077 134.182 274.744 134.123Z" fill="#263238"/>
<path d="M274.774 141.563C272.627 141.467 270.55 140.774 268.774 139.563C268.774 139.563 270.224 142.793 274.774 142.623V141.563Z" fill="#EB996E"/>
<path d="M272.874 134.463C272.984 134.463 272.944 135.143 273.504 135.653C274.064 136.163 274.784 136.133 274.784 136.223C274.784 136.313 274.614 136.353 274.314 136.343C273.914 136.325 273.533 136.17 273.234 135.903C272.952 135.644 272.781 135.286 272.754 134.903C272.744 134.613 272.834 134.453 272.874 134.463Z" fill="#263238"/>
<path d="M278.564 127.023C278.454 127.173 277.974 127.023 277.414 127.023C276.854 127.023 276.414 127.163 276.264 127.023C276.114 126.883 276.264 126.803 276.484 126.663C276.76 126.49 277.078 126.396 277.404 126.393C277.732 126.385 278.055 126.471 278.334 126.643C278.544 126.823 278.614 126.953 278.564 127.023Z" fill="#263238"/>
<path d="M270.854 130.823C270.851 130.976 270.908 131.124 271.013 131.236C271.117 131.348 271.261 131.415 271.414 131.423C271.488 131.43 271.563 131.422 271.635 131.399C271.706 131.377 271.772 131.34 271.829 131.292C271.885 131.243 271.932 131.184 271.966 131.117C271.999 131.05 272.019 130.978 272.024 130.903C272.024 130.752 271.966 130.606 271.862 130.496C271.758 130.386 271.615 130.321 271.464 130.313C271.39 130.305 271.315 130.311 271.244 130.333C271.173 130.354 271.107 130.39 271.05 130.438C270.993 130.485 270.946 130.544 270.913 130.61C270.879 130.676 270.859 130.749 270.854 130.823Z" fill="#263238"/>
<path d="M270.094 129.163C270.164 129.243 270.614 128.923 271.244 128.933C271.874 128.943 272.324 129.263 272.394 129.193C272.464 129.123 272.394 129.023 272.154 128.873C271.887 128.677 271.565 128.572 271.234 128.573C270.91 128.563 270.59 128.658 270.324 128.843C270.124 128.993 270.054 129.123 270.094 129.163Z" fill="#263238"/>
<path d="M269.734 127.823C269.854 127.973 270.344 127.823 270.924 127.823C271.504 127.823 271.994 127.943 272.114 127.823C272.234 127.703 272.114 127.603 271.874 127.463C271.583 127.292 271.251 127.203 270.914 127.203C270.577 127.203 270.245 127.292 269.954 127.463C269.744 127.603 269.674 127.743 269.734 127.823Z" fill="#263238"/>
<path d="M266.084 132.513C266.084 132.173 265.764 131.353 265.424 131.283C264.544 131.093 262.934 131.083 262.794 133.343C262.604 136.433 265.794 135.983 265.794 135.893C265.794 135.803 266.024 133.673 266.084 132.513Z" fill="#FFBE9D"/>
<path d="M264.974 134.713C264.974 134.713 264.924 134.713 264.824 134.783C264.761 134.81 264.693 134.824 264.624 134.824C264.555 134.824 264.487 134.81 264.424 134.783C264.23 134.644 264.077 134.456 263.981 134.238C263.884 134.02 263.847 133.78 263.874 133.543C263.886 133.279 263.954 133.02 264.074 132.783C264.11 132.689 264.168 132.605 264.242 132.537C264.317 132.469 264.407 132.42 264.504 132.393C264.568 132.38 264.634 132.389 264.691 132.421C264.748 132.452 264.791 132.502 264.814 132.563C264.821 132.613 264.821 132.664 264.814 132.713C264.814 132.713 264.884 132.713 264.864 132.543C264.852 132.466 264.813 132.395 264.754 132.343C264.716 132.306 264.67 132.278 264.62 132.261C264.57 132.244 264.517 132.238 264.464 132.243C264.336 132.26 264.215 132.309 264.111 132.386C264.008 132.463 263.926 132.565 263.874 132.683C263.726 132.943 263.643 133.235 263.634 133.533C263.6 133.808 263.649 134.087 263.773 134.335C263.898 134.582 264.093 134.787 264.334 134.923C264.416 134.951 264.503 134.961 264.589 134.952C264.676 134.944 264.759 134.917 264.834 134.873C264.974 134.823 264.974 134.723 264.974 134.713Z" fill="#EB996E"/>
<path d="M265.304 131.293L266.084 132.103C269.484 128.863 276.134 120.733 275.764 121.213C274.212 120.64 272.542 120.462 270.904 120.693C268.374 121.123 263.584 122.383 263.654 125.353C263.803 127.423 264.364 129.443 265.304 131.293Z" fill="#263238"/>
<path d="M260.804 130.613C260.804 130.613 260.804 130.543 260.804 130.433C260.863 130.265 260.933 130.101 261.014 129.943C261.335 129.37 261.779 128.875 262.314 128.493C263.106 127.928 263.989 127.502 264.924 127.233C265.924 126.903 267.124 126.643 268.274 126.153C270.242 125.322 272.018 124.097 273.494 122.553C273.939 122.084 274.356 121.59 274.744 121.073L275.054 120.643C275.088 120.591 275.128 120.544 275.174 120.503L275.084 120.663C275.014 120.763 274.924 120.923 274.794 121.113C274.421 121.646 274.014 122.154 273.574 122.633C272.917 123.34 272.194 123.983 271.414 124.553C270.461 125.254 269.427 125.838 268.334 126.293C267.232 126.715 266.107 127.076 264.964 127.373C264.043 127.63 263.171 128.039 262.384 128.583C261.854 128.948 261.407 129.422 261.074 129.973C260.969 130.179 260.878 130.393 260.804 130.613Z" fill="#455A64"/>
<path d="M261.704 131.093C261.696 130.864 261.737 130.636 261.824 130.423C262.055 129.831 262.459 129.322 262.984 128.963C263.772 128.46 264.653 128.12 265.574 127.963C266.678 127.753 267.755 127.417 268.784 126.963C269.807 126.498 270.768 125.907 271.644 125.203C272.371 124.625 273.041 123.979 273.644 123.273C274.041 122.799 274.405 122.298 274.734 121.773C274.844 121.603 274.934 121.453 274.994 121.343C275.025 121.289 275.062 121.239 275.104 121.193C275.083 121.249 275.056 121.303 275.024 121.353L274.784 121.803C274.477 122.347 274.122 122.862 273.724 123.343C273.133 124.082 272.462 124.752 271.724 125.343C270.84 126.062 269.869 126.666 268.834 127.143C267.793 127.601 266.702 127.937 265.584 128.143C264.679 128.313 263.813 128.652 263.034 129.143C262.516 129.481 262.109 129.965 261.864 130.533C261.794 130.715 261.741 130.902 261.704 131.093Z" fill="#455A64"/>
<path d="M259.894 159.033C259.748 157.063 259.748 155.084 259.894 153.113C260.028 155.084 260.028 157.062 259.894 159.033Z" fill="#263238"/>
<path d="M281.114 158.613C281.088 158.28 281.088 157.946 281.114 157.613C281.174 156.779 281.144 155.941 281.024 155.113C280.868 154.287 280.627 153.479 280.304 152.703C280.153 152.382 280.032 152.047 279.944 151.703C280.14 151.995 280.304 152.307 280.434 152.633C280.804 153.404 281.07 154.222 281.224 155.063C281.343 155.909 281.343 156.767 281.224 157.613C281.23 157.95 281.193 158.286 281.114 158.613Z" fill="#263238"/>
<path d="M389.054 167.393H312.604C310.783 167.39 309.037 166.666 307.749 165.378C306.461 164.09 305.737 162.344 305.734 160.523V128.423L297.304 120.943H389.054C389.961 120.936 390.861 121.11 391.701 121.453C392.541 121.795 393.305 122.301 393.948 122.941C394.591 123.581 395.102 124.341 395.449 125.179C395.797 126.017 395.976 126.916 395.974 127.823V160.523C395.973 161.429 395.793 162.326 395.444 163.162C395.095 163.998 394.584 164.757 393.941 165.396C393.298 166.034 392.536 166.539 391.697 166.882C390.858 167.225 389.96 167.398 389.054 167.393Z" fill="#EBEBEB"/>
<path d="M383.814 172.593C381.102 172.851 378.377 172.937 375.654 172.853C372.935 172.937 370.213 172.85 367.504 172.593C370.213 172.336 372.935 172.249 375.654 172.333C378.377 172.249 381.102 172.335 383.814 172.593Z" fill="#E0E0E0"/>
<path d="M387.184 173.233C387.15 173.233 387.117 173.225 387.086 173.212C387.055 173.198 387.027 173.178 387.004 173.153L385.424 171.503C385.378 171.457 385.353 171.394 385.353 171.328C385.353 171.263 385.378 171.2 385.424 171.153C385.446 171.129 385.474 171.11 385.504 171.097C385.534 171.084 385.566 171.077 385.599 171.077C385.632 171.077 385.664 171.084 385.694 171.097C385.724 171.11 385.752 171.129 385.774 171.153L387.174 172.613L390.244 169.493C390.266 169.469 390.294 169.45 390.324 169.437C390.354 169.424 390.386 169.417 390.419 169.417C390.452 169.417 390.484 169.424 390.514 169.437C390.544 169.45 390.572 169.469 390.594 169.493C390.64 169.54 390.665 169.603 390.665 169.668C390.665 169.734 390.64 169.797 390.594 169.843L387.344 173.153C387.3 173.196 387.244 173.224 387.184 173.233Z" fill="#9668FF"/>
<path d="M389.434 173.183H389.144C389.078 173.183 389.014 173.157 388.967 173.11C388.92 173.063 388.894 172.999 388.894 172.933C388.901 172.867 388.931 172.806 388.978 172.761C389.026 172.715 389.088 172.687 389.154 172.683H389.334L392.504 169.453C392.527 169.429 392.555 169.41 392.586 169.396C392.617 169.383 392.65 169.376 392.684 169.376C392.718 169.376 392.751 169.383 392.782 169.396C392.813 169.41 392.841 169.429 392.864 169.453C392.91 169.5 392.935 169.563 392.935 169.628C392.935 169.693 392.91 169.756 392.864 169.803L389.614 173.103C389.592 173.129 389.564 173.149 389.533 173.163C389.502 173.177 389.468 173.184 389.434 173.183Z" fill="#9668FF"/>
<path d="M383.814 298.263C381.102 298.52 378.377 298.607 375.654 298.523C372.935 298.607 370.213 298.52 367.504 298.263C370.213 298.006 372.935 297.919 375.654 298.003C378.377 297.918 381.102 298.005 383.814 298.263Z" fill="#E0E0E0"/>
<path d="M387.184 298.903C387.145 298.907 387.106 298.902 387.07 298.888C387.033 298.874 387 298.852 386.974 298.823L385.394 297.173C385.366 297.151 385.343 297.123 385.327 297.091C385.311 297.059 385.302 297.024 385.301 296.988C385.299 296.952 385.305 296.917 385.319 296.884C385.332 296.85 385.353 296.821 385.379 296.796C385.405 296.771 385.436 296.753 385.469 296.741C385.503 296.73 385.539 296.725 385.575 296.729C385.61 296.732 385.645 296.744 385.676 296.761C385.707 296.779 385.733 296.804 385.754 296.833L387.154 298.293L390.224 295.173C390.247 295.149 390.274 295.13 390.304 295.117C390.334 295.104 390.366 295.097 390.399 295.097C390.432 295.097 390.464 295.104 390.494 295.117C390.525 295.13 390.552 295.149 390.574 295.173C390.62 295.22 390.646 295.282 390.646 295.348C390.646 295.413 390.62 295.476 390.574 295.523L387.364 298.823C387.315 298.87 387.252 298.898 387.184 298.903Z" fill="#9668FF"/>
<path d="M389.434 298.823H389.144C389.077 298.821 389.013 298.792 388.967 298.744C388.92 298.695 388.894 298.63 388.894 298.563C388.894 298.53 388.901 298.497 388.914 298.466C388.927 298.436 388.947 298.408 388.971 298.386C388.996 298.363 389.025 298.346 389.056 298.335C389.087 298.325 389.121 298.32 389.154 298.323H389.334L392.504 295.093C392.527 295.069 392.555 295.05 392.586 295.037C392.617 295.023 392.65 295.017 392.684 295.017C392.718 295.017 392.751 295.023 392.782 295.037C392.813 295.05 392.841 295.069 392.864 295.093C392.91 295.14 392.935 295.203 392.935 295.268C392.935 295.334 392.91 295.396 392.864 295.443L389.614 298.743C389.592 298.769 389.564 298.79 389.533 298.803C389.502 298.817 389.468 298.824 389.434 298.823Z" fill="#9668FF"/>
<path d="M388.074 130.133C388.074 130.273 371.384 130.393 350.794 130.393C330.204 130.393 313.524 130.273 313.524 130.133C313.524 129.993 330.204 129.873 350.794 129.873C371.384 129.873 388.074 129.983 388.074 130.133Z" fill="white"/>
<path d="M388.074 135.603C388.074 135.753 371.384 135.863 350.794 135.863C330.204 135.863 313.524 135.753 313.524 135.603C313.524 135.453 330.204 135.343 350.794 135.343C371.384 135.343 388.074 135.463 388.074 135.603Z" fill="white"/>
<path d="M388.074 141.083C388.074 141.223 371.384 141.343 350.794 141.343C330.204 141.343 313.524 141.223 313.524 141.083C313.524 140.943 330.204 140.823 350.794 140.823C371.384 140.823 388.074 140.943 388.074 141.083Z" fill="white"/>
<path d="M269.914 300.923C282.302 300.923 292.344 290.903 292.344 278.543C292.344 266.183 282.302 256.163 269.914 256.163C257.526 256.163 247.484 266.183 247.484 278.543C247.484 290.903 257.526 300.923 269.914 300.923Z" fill="#E0E0E0"/>
<path d="M259.434 284.143L265.314 283.643L279.654 286.063L281.344 296.823L281.104 298.073C277.875 299.899 274.244 300.899 270.536 300.984C266.827 301.07 263.154 300.238 259.844 298.563L259.434 284.113" fill="#455A64"/>
<path d="M276.584 285.883C278.006 285.678 279.457 285.875 280.772 286.453C282.087 287.031 283.214 287.967 284.024 289.153C284.997 290.512 285.889 291.928 286.694 293.393C284.354 295.933 282.454 297.863 279.214 298.983L276.584 285.883Z" fill="#455A64"/>
<path d="M259.434 284.143C259.434 284.143 255.554 284.613 254.054 287.923C252.554 291.233 252.204 292.273 252.204 292.273C254.204 294.683 256.764 297.543 259.894 298.613C259.894 298.613 260.604 290.283 260.694 287.923C260.804 285.343 260.904 284.063 259.434 284.143Z" fill="#455A64"/>
<path d="M262.974 262.943C263.95 261.689 265.196 260.672 266.619 259.965C268.042 259.259 269.605 258.882 271.194 258.863C272.559 258.855 273.915 259.096 275.194 259.573C276.538 259.899 277.727 260.684 278.554 261.793C279.572 263.104 280.239 264.653 280.494 266.293C280.728 267.975 280.809 269.676 280.734 271.373C280.654 273.076 280.103 274.724 279.144 276.133L274.834 276.883C272.458 277.068 270.067 276.94 267.724 276.503C265.356 276.048 263.263 274.675 261.904 272.683C260.174 269.823 260.894 265.493 262.974 262.943Z" fill="#263238"/>
<path d="M258.814 275.433C258.857 274.945 259.01 274.473 259.263 274.054C259.516 273.634 259.862 273.278 260.274 273.013C260.693 272.758 261.183 272.642 261.672 272.684C262.161 272.725 262.624 272.921 262.994 273.243L263.674 274.053C264.2 274.295 264.637 274.694 264.924 275.196C265.21 275.699 265.333 276.278 265.274 276.853C265.192 277.426 264.95 277.964 264.575 278.405C264.199 278.846 263.707 279.171 263.154 279.343C262.597 279.499 262.009 279.509 261.447 279.372C260.885 279.236 260.368 278.957 259.944 278.563C259.528 278.163 259.21 277.673 259.014 277.13C258.818 276.587 258.75 276.007 258.814 275.433Z" fill="#263238"/>
<path d="M259.664 278.333C259.504 278.075 259.424 277.776 259.434 277.473C259.578 276.748 259.925 276.079 260.434 275.543C260.914 274.973 261.502 274.504 262.164 274.163C262.664 273.893 263.014 273.793 263.004 273.753C262.686 273.782 262.377 273.874 262.094 274.023C261.393 274.343 260.771 274.814 260.274 275.403C259.997 275.725 259.761 276.081 259.574 276.463C259.409 276.772 259.314 277.113 259.294 277.463C259.291 277.703 259.357 277.939 259.484 278.143C259.574 278.293 259.664 278.343 259.664 278.333Z" fill="#455A64"/>
<path d="M274.814 285.483V281.483C274.814 281.483 278.324 281.093 279.304 276.603C279.764 273.627 279.945 270.613 279.844 267.603C279.844 264.873 277.494 261.153 274.114 261.143L272.614 260.973L266.864 263.253C266.464 263.273 266.086 263.442 265.804 263.727C265.523 264.012 265.359 264.393 265.344 264.793L265.174 283.993L267.804 287.683C268.286 288.335 268.959 288.82 269.73 289.069C270.501 289.319 271.33 289.321 272.103 289.075C272.875 288.829 273.55 288.347 274.035 287.698C274.519 287.048 274.788 286.263 274.804 285.453L274.814 285.483Z" fill="#FFBE9D"/>
<path d="M272.504 275.193C272.535 274.962 272.653 274.751 272.834 274.603C272.999 274.465 273.203 274.384 273.418 274.371C273.632 274.359 273.845 274.415 274.024 274.533C274.208 274.676 274.351 274.865 274.439 275.081C274.526 275.297 274.556 275.532 274.524 275.763C274.423 275.901 274.295 276.016 274.147 276.1C273.998 276.184 273.834 276.237 273.664 276.253H273.504C273.237 276.247 272.981 276.144 272.784 275.963C272.682 275.865 272.603 275.744 272.555 275.611C272.506 275.477 272.489 275.334 272.504 275.193Z" fill="#EB996E"/>
<path d="M277.734 270.823C277.716 270.965 277.646 271.096 277.538 271.19C277.431 271.285 277.292 271.337 277.149 271.337C277.006 271.337 276.868 271.285 276.76 271.19C276.652 271.096 276.583 270.965 276.564 270.823C276.572 270.67 276.639 270.526 276.751 270.422C276.863 270.317 277.011 270.26 277.164 270.263C277.239 270.262 277.312 270.275 277.382 270.303C277.451 270.331 277.514 270.372 277.567 270.424C277.62 270.476 277.662 270.538 277.691 270.607C277.719 270.675 277.734 270.749 277.734 270.823Z" fill="#263238"/>
<path d="M278.694 269.333C278.614 269.403 278.184 269.053 277.564 269.023C276.944 268.993 276.454 269.273 276.394 269.193C276.334 269.113 276.444 269.023 276.654 268.893C276.934 268.716 277.264 268.635 277.594 268.663C277.92 268.676 278.233 268.796 278.484 269.003C278.664 269.163 278.724 269.303 278.694 269.333Z" fill="#263238"/>
<path d="M274.744 274.073C275.072 273.995 275.407 273.952 275.744 273.943C275.904 273.943 276.064 273.943 276.094 273.803C276.116 273.639 276.088 273.472 276.014 273.323C275.884 272.933 275.744 272.523 275.604 272.083C275.224 271.028 274.927 269.945 274.714 268.843C275.183 269.864 275.567 270.92 275.864 272.003C276.004 272.443 276.124 272.853 276.254 273.253C276.338 273.452 276.356 273.673 276.304 273.883C276.277 273.939 276.238 273.987 276.189 274.025C276.141 274.063 276.084 274.09 276.024 274.103C275.935 274.117 275.844 274.117 275.754 274.103C275.418 274.139 275.078 274.129 274.744 274.073Z" fill="#263238"/>
<path d="M274.774 281.503C272.633 281.419 270.556 280.745 268.774 279.553C268.774 279.553 270.224 282.783 274.774 282.613V281.503Z" fill="#EB996E"/>
<path d="M272.874 274.403C272.984 274.403 272.944 275.083 273.504 275.603C274.064 276.123 274.784 276.083 274.784 276.173C274.784 276.263 274.614 276.293 274.314 276.293C273.912 276.276 273.53 276.116 273.234 275.843C272.949 275.586 272.776 275.227 272.754 274.843C272.744 274.563 272.834 274.403 272.874 274.403Z" fill="#263238"/>
<path d="M278.564 266.973C278.454 267.123 277.974 266.973 277.414 266.973C276.854 266.973 276.414 267.113 276.264 266.973C276.114 266.833 276.264 266.753 276.484 266.613C276.758 266.435 277.078 266.341 277.404 266.343C277.732 266.33 278.057 266.417 278.334 266.593C278.544 266.753 278.614 266.903 278.564 266.973Z" fill="#263238"/>
<path d="M270.854 270.743C270.851 270.895 270.909 271.042 271.013 271.153C271.118 271.263 271.262 271.328 271.414 271.333C271.488 271.341 271.563 271.335 271.634 271.313C271.705 271.292 271.771 271.256 271.828 271.208C271.885 271.161 271.932 271.102 271.966 271.036C271.999 270.97 272.019 270.897 272.024 270.823C272.027 270.67 271.97 270.522 271.866 270.41C271.761 270.298 271.617 270.231 271.464 270.223C271.39 270.216 271.315 270.224 271.244 270.247C271.172 270.269 271.106 270.306 271.05 270.355C270.993 270.403 270.946 270.462 270.913 270.529C270.879 270.596 270.859 270.669 270.854 270.743Z" fill="#263238"/>
<path d="M270.094 269.103C270.164 269.183 270.614 268.863 271.244 268.883C271.874 268.903 272.324 269.213 272.394 269.133C272.464 269.053 272.394 268.963 272.154 268.813C271.885 268.622 271.564 268.517 271.234 268.513C270.909 268.511 270.591 268.609 270.324 268.793C270.124 268.933 270.054 269.073 270.094 269.103Z" fill="#263238"/>
<path d="M269.734 267.763C269.854 267.903 270.344 267.763 270.924 267.763C271.504 267.763 271.994 267.873 272.114 267.763C272.234 267.653 272.114 267.553 271.874 267.413C271.583 267.243 271.251 267.153 270.914 267.153C270.577 267.153 270.245 267.243 269.954 267.413C269.744 267.543 269.674 267.693 269.734 267.763Z" fill="#263238"/>
<path d="M266.084 272.073C266.084 271.733 265.764 270.923 265.424 270.853C264.544 270.663 262.934 270.643 262.794 272.903C262.604 275.993 265.794 275.553 265.794 275.463C265.794 275.373 266.024 273.243 266.084 272.073Z" fill="#FFBE9D"/>
<path d="M264.974 274.283C264.974 274.283 264.924 274.283 264.824 274.353C264.695 274.402 264.553 274.402 264.424 274.353C264.231 274.216 264.079 274.029 263.982 273.813C263.885 273.597 263.848 273.359 263.874 273.123C263.885 272.858 263.953 272.599 264.074 272.363C264.11 272.269 264.168 272.184 264.242 272.117C264.317 272.049 264.407 272 264.504 271.973C264.566 271.961 264.631 271.97 264.687 271.999C264.743 272.028 264.788 272.075 264.814 272.133C264.823 272.186 264.823 272.24 264.814 272.293C264.814 272.293 264.884 272.243 264.864 272.113C264.85 272.037 264.811 271.967 264.754 271.913C264.714 271.88 264.668 271.854 264.618 271.839C264.568 271.823 264.516 271.818 264.464 271.823C264.336 271.838 264.213 271.886 264.11 271.963C264.006 272.041 263.925 272.144 263.874 272.263C263.725 272.522 263.642 272.814 263.634 273.113C263.601 273.387 263.65 273.664 263.774 273.91C263.899 274.155 264.094 274.358 264.334 274.493C264.412 274.531 264.498 274.551 264.584 274.551C264.671 274.551 264.756 274.531 264.834 274.493C264.974 274.353 264.974 274.283 264.974 274.283Z" fill="#EB996E"/>
<path d="M265.304 270.823L266.084 271.643C269.484 268.393 276.134 260.263 275.764 260.753C274.214 260.173 272.543 259.991 270.904 260.223C268.374 260.653 263.584 261.913 263.654 264.893C263.804 266.96 264.365 268.976 265.304 270.823Z" fill="#263238"/>
<path d="M260.804 270.173C260.804 270.173 260.804 270.113 260.804 269.993C260.865 269.83 260.935 269.669 261.014 269.513C261.337 268.939 261.781 268.441 262.314 268.053C263.124 267.494 264.024 267.078 264.974 266.823C265.974 266.483 267.174 266.223 268.324 265.733C269.407 265.284 270.434 264.71 271.384 264.023C272.16 263.464 272.883 262.834 273.544 262.143C274.104 261.543 274.544 261.023 274.794 260.663C274.914 260.483 275.024 260.343 275.104 260.233C275.184 260.123 275.214 260.083 275.224 260.093L275.134 260.253L274.844 260.693C274.476 261.23 274.069 261.738 273.624 262.213C272.967 262.924 272.244 263.57 271.464 264.143C270.504 264.824 269.467 265.388 268.374 265.823C267.214 266.313 266.034 266.573 265.004 266.903C264.084 267.157 263.212 267.563 262.424 268.103C261.893 268.472 261.447 268.949 261.114 269.503C260.997 269.72 260.894 269.944 260.804 270.173Z" fill="#455A64"/>
<path d="M261.704 270.663C261.696 270.431 261.737 270.199 261.824 269.983C262.053 269.392 262.458 268.886 262.984 268.533C263.772 268.03 264.653 267.69 265.574 267.533C266.677 267.318 267.754 266.983 268.784 266.533C269.807 266.068 270.768 265.477 271.644 264.773C272.848 263.809 273.883 262.649 274.704 261.343C274.814 261.163 274.904 261.023 274.964 260.903C274.996 260.853 275.033 260.806 275.074 260.763C275.053 260.819 275.026 260.873 274.994 260.923L274.754 261.373C274.447 261.917 274.092 262.432 273.694 262.913C273.103 263.652 272.432 264.322 271.694 264.913C270.812 265.632 269.84 266.233 268.804 266.703C267.761 267.156 266.671 267.491 265.554 267.703C264.646 267.864 263.779 268.204 263.004 268.703C262.48 269.034 262.071 269.52 261.834 270.093C261.773 270.279 261.729 270.47 261.704 270.663Z" fill="#455A64"/>
<path d="M259.894 298.593C259.748 296.626 259.748 294.65 259.894 292.683C260.028 294.651 260.028 296.625 259.894 298.593Z" fill="#263238"/>
<path d="M281.114 298.183C281.085 297.834 281.085 297.483 281.114 297.133C281.174 296.296 281.144 295.454 281.024 294.623C280.867 293.801 280.626 292.996 280.304 292.223C280.155 291.901 280.034 291.566 279.944 291.223C280.14 291.515 280.304 291.827 280.434 292.153C280.806 292.924 281.072 293.741 281.224 294.583C281.343 295.429 281.343 296.287 281.224 297.133C281.233 297.486 281.196 297.839 281.114 298.183Z" fill="#263238"/>
<path d="M389.054 291.703H312.604C310.781 291.7 309.034 290.974 307.746 289.684C306.458 288.394 305.734 286.646 305.734 284.823V267.983L297.304 260.503H389.054C390.875 260.506 392.621 261.23 393.909 262.518C395.197 263.806 395.922 265.552 395.924 267.373V284.823C395.924 286.646 395.201 288.394 393.913 289.684C392.625 290.974 390.877 291.7 389.054 291.703Z" fill="#EBEBEB"/>
<path d="M388.074 269.693C388.074 269.843 371.384 269.953 350.794 269.953C330.204 269.953 313.524 269.843 313.524 269.693C313.524 269.543 330.204 269.433 350.794 269.433C371.384 269.433 388.074 269.553 388.074 269.693Z" fill="white"/>
<path d="M388.074 275.173C388.074 275.313 371.384 275.433 350.794 275.433C330.204 275.433 313.524 275.313 313.524 275.173C313.524 275.033 330.204 274.913 350.794 274.913C371.384 274.913 388.074 275.033 388.074 275.173Z" fill="white"/>
<path d="M388.074 280.653C388.074 280.793 371.384 280.913 350.794 280.913C330.204 280.913 313.524 280.793 313.524 280.653C313.524 280.513 330.204 280.393 350.794 280.393C371.384 280.393 388.074 280.503 388.074 280.653Z" fill="white"/>
<path d="M388.074 146.563C388.074 146.703 371.384 146.823 350.794 146.823C330.204 146.823 313.524 146.703 313.524 146.563C313.524 146.423 330.204 146.303 350.794 146.303C371.384 146.303 388.074 146.413 388.074 146.563Z" fill="white"/>
<path d="M388.074 152.033C388.074 152.183 371.384 152.293 350.794 152.293C330.204 152.293 313.524 152.183 313.524 152.033C313.524 151.883 330.204 151.773 350.794 151.773C371.384 151.773 388.074 151.893 388.074 152.033Z" fill="white"/>
<path d="M388.074 158.613C388.074 158.763 371.384 158.873 350.794 158.873C330.204 158.873 313.524 158.763 313.524 158.613C313.524 158.463 330.204 158.353 350.794 158.353C371.384 158.353 388.074 158.473 388.074 158.613Z" fill="white"/>
<path d="M313.974 63.4531C314.028 62.6761 314.307 61.9315 314.777 61.3109C315.248 60.6902 315.889 60.2204 316.623 59.9592C317.357 59.698 318.151 59.6567 318.908 59.8403C319.665 60.024 320.352 60.4247 320.884 60.9931L319.814 61.9931C319.593 61.7252 319.315 61.5099 319 61.3629C318.685 61.2159 318.342 61.1408 317.994 61.1431C317.379 61.1431 316.789 61.3876 316.354 61.8226C315.919 62.2577 315.674 62.8478 315.674 63.4631C315.674 64.0784 315.919 64.6685 316.354 65.1036C316.789 65.5387 317.379 65.7831 317.994 65.7831C318.343 65.7857 318.687 65.7097 319.002 65.5608C319.317 65.4119 319.595 65.194 319.814 64.9231L320.884 65.9231C320.352 66.4912 319.666 66.8918 318.91 67.0759C318.154 67.26 317.361 67.2195 316.627 66.9595C315.894 66.6994 315.252 66.2311 314.781 65.6118C314.31 64.9926 314.029 64.2494 313.974 63.4731V63.4531Z" fill="#263238"/>
<path d="M327.534 63.8833V67.0733H325.974V64.1333C325.974 63.2333 325.554 62.8233 324.844 62.8233C324.134 62.8233 323.514 63.3033 323.514 64.3233V67.0733H321.894V59.4033H323.514V62.0933C323.749 61.868 324.026 61.6924 324.331 61.5773C324.635 61.4622 324.959 61.4098 325.284 61.4233C325.601 61.4105 325.918 61.4671 326.211 61.5892C326.504 61.7113 326.767 61.8959 326.981 62.1302C327.195 62.3645 327.356 62.6428 327.451 62.9456C327.547 63.2484 327.575 63.5685 327.534 63.8833Z" fill="#263238"/>
<path d="M333.914 63.903V67.0729H332.404V66.3829C332.217 66.6528 331.96 66.8669 331.66 67.0024C331.361 67.138 331.031 67.19 330.704 67.1529C329.404 67.1529 328.634 66.4329 328.634 65.4729C328.634 64.5129 329.324 63.803 331.024 63.803H332.304C332.304 63.113 331.884 62.7129 331.024 62.7129C330.447 62.7071 329.883 62.8858 329.414 63.2229L328.834 62.1029C329.548 61.6408 330.384 61.4038 331.234 61.4229C332.974 61.4229 333.914 62.2129 333.914 63.903ZM332.304 65.3129V64.7429H331.194C330.444 64.7429 330.194 65.023 330.194 65.403C330.194 65.783 330.534 66.0729 331.104 66.0729C331.359 66.0921 331.614 66.0285 331.83 65.8916C332.046 65.7547 332.212 65.5518 332.304 65.3129Z" fill="#263238"/>
<path d="M338.974 66.8232C338.58 67.0708 338.119 67.1929 337.654 67.1732C337.379 67.211 337.1 67.1859 336.836 67.0999C336.573 67.0138 336.332 66.869 336.133 66.6764C335.934 66.4837 335.781 66.2484 335.686 65.988C335.59 65.7276 335.556 65.449 335.584 65.1732V62.8832H334.724V61.6432H335.584V60.2832H337.194V61.6432H338.584V62.8832H337.194V65.1532C337.182 65.2485 337.191 65.3453 337.221 65.4366C337.251 65.5279 337.301 65.6115 337.367 65.6813C337.433 65.7511 337.513 65.8054 337.603 65.8403C337.692 65.8752 337.788 65.8899 337.884 65.8832C338.119 65.8917 338.349 65.8173 338.534 65.6732L338.974 66.8232Z" fill="#263238"/>
<path d="M367.504 74.6133C367.504 74.7533 350.504 74.8733 329.434 74.8733C308.364 74.8733 291.374 74.7533 291.374 74.6133C291.374 74.4733 308.374 74.3433 329.434 74.3433C350.494 74.3433 367.504 74.4633 367.504 74.6133Z" fill="#263238"/>
<path d="M401.234 63.4531C402.212 63.4531 403.004 62.6606 403.004 61.6831C403.004 60.7055 402.212 59.9131 401.234 59.9131C400.257 59.9131 399.464 60.7055 399.464 61.6831C399.464 62.6606 400.257 63.4531 401.234 63.4531Z" fill="#263238"/>
<path d="M402.974 66.8232C402.976 67.1761 402.873 67.5217 402.678 67.8159C402.483 68.1102 402.206 68.3399 401.88 68.4758C401.554 68.6118 401.195 68.6479 400.849 68.5795C400.503 68.5111 400.185 68.3414 399.935 68.0919C399.686 67.8423 399.516 67.5243 399.448 67.178C399.379 66.8318 399.415 66.4731 399.551 66.1474C399.687 65.8218 399.917 65.5439 400.211 65.3491C400.506 65.1542 400.851 65.0513 401.204 65.0533C401.673 65.0559 402.121 65.2432 402.453 65.5746C402.784 65.9059 402.971 66.3546 402.974 66.8232Z" fill="#263238"/>
<path d="M402.974 72.0132C402.976 72.3661 402.873 72.7116 402.678 73.0059C402.483 73.3001 402.206 73.5298 401.88 73.6658C401.554 73.8017 401.195 73.8378 400.849 73.7694C400.503 73.7011 400.185 73.5314 399.935 73.2818C399.686 73.0323 399.516 72.7142 399.448 72.368C399.379 72.0218 399.415 71.663 399.551 71.3374C399.687 71.0117 399.917 70.7338 400.211 70.539C400.506 70.3442 400.851 70.2412 401.204 70.2432C401.673 70.2432 402.124 70.4297 402.456 70.7616C402.788 71.0936 402.974 71.5438 402.974 72.0132Z" fill="#263238"/>
<path d="M257.294 67.6829C257.185 67.6852 257.079 67.6499 256.994 67.5829L252.304 64.1429C252.24 64.0953 252.188 64.0336 252.151 63.9624C252.115 63.8913 252.095 63.8128 252.094 63.7329C252.094 63.6543 252.114 63.5769 252.15 63.5073C252.187 63.4377 252.239 63.3779 252.304 63.3329L256.994 59.9529C257.048 59.9146 257.109 59.8872 257.173 59.8725C257.237 59.8577 257.304 59.8559 257.369 59.8671C257.434 59.8782 257.496 59.9021 257.552 59.9375C257.608 59.9728 257.656 60.0189 257.694 60.0729C257.769 60.1795 257.8 60.3114 257.78 60.4403C257.759 60.5693 257.689 60.6851 257.584 60.7629L253.444 63.7629L257.584 66.7629C257.689 66.8426 257.76 66.9601 257.78 67.0907C257.801 67.2213 257.77 67.3547 257.694 67.4629C257.65 67.5293 257.591 67.584 257.521 67.6224C257.451 67.6607 257.374 67.6815 257.294 67.6829Z" fill="#263238"/>
<path d="M379.684 235.823C392.072 235.823 402.114 225.803 402.114 213.443C402.114 201.083 392.072 191.063 379.684 191.063C367.296 191.063 357.254 201.083 357.254 213.443C357.254 225.803 367.296 235.823 379.684 235.823Z" fill="#E0E0E0"/>
<path d="M385.824 226.673H374.024C373.621 226.673 373.234 226.513 372.949 226.228C372.664 225.943 372.504 225.556 372.504 225.153C372.504 224.749 372.664 224.361 372.949 224.075C373.234 223.788 373.62 223.626 374.024 223.623H385.824C386.228 223.626 386.615 223.788 386.9 224.075C387.184 224.361 387.344 224.749 387.344 225.153C387.344 225.556 387.184 225.943 386.899 226.228C386.614 226.513 386.227 226.673 385.824 226.673Z" fill="#263238"/>
<path d="M380.594 198.893H379.554V204.133H380.594V198.893Z" fill="#263238"/>
<path d="M364.784 219.843C366.463 219.843 367.824 218.482 367.824 216.803C367.824 215.124 366.463 213.763 364.784 213.763C363.105 213.763 361.744 215.124 361.744 216.803C361.744 218.482 363.105 219.843 364.784 219.843Z" fill="#9668FF"/>
<path d="M395.524 219.643C397.203 219.643 398.564 218.282 398.564 216.603C398.564 214.924 397.203 213.563 395.524 213.563C393.845 213.563 392.484 214.924 392.484 216.603C392.484 218.282 393.845 219.643 395.524 219.643Z" fill="#9668FF"/>
<path d="M380.524 203.033C380.524 203.033 392.904 202.883 394.864 213.613C396.824 224.343 386.354 224.533 383.344 224.733C381.984 224.823 379.064 224.833 376.484 224.793C370.774 224.693 366.744 223.593 365.374 218.293C365.21 217.671 365.106 217.035 365.064 216.393C364.704 210.593 368.624 202.753 380.524 203.033Z" fill="#9668FF"/>
<path d="M371.544 219.363L389.544 219.643C390.45 219.656 391.323 219.31 391.974 218.68C392.624 218.05 392.998 217.188 393.014 216.283C393.025 215.378 392.676 214.505 392.044 213.856C391.413 213.208 390.55 212.836 389.644 212.823L371.644 212.543C371.196 212.535 370.75 212.616 370.332 212.78C369.915 212.945 369.534 213.191 369.212 213.503C368.889 213.815 368.632 214.188 368.454 214.599C368.276 215.011 368.181 215.454 368.174 215.903C368.168 216.352 368.25 216.797 368.415 217.214C368.581 217.631 368.828 218.011 369.141 218.333C369.454 218.654 369.828 218.91 370.24 219.087C370.652 219.264 371.096 219.358 371.544 219.363Z" fill="#263238"/>
<path d="M385.804 215.913C385.831 216.055 385.885 216.19 385.963 216.31C386.042 216.43 386.144 216.534 386.263 216.615C386.382 216.696 386.516 216.752 386.657 216.781C386.798 216.81 386.943 216.811 387.084 216.783C387.236 216.768 387.384 216.721 387.517 216.645C387.65 216.57 387.766 216.467 387.857 216.345C387.948 216.222 388.013 216.081 388.046 215.932C388.08 215.783 388.083 215.628 388.053 215.478C388.024 215.328 387.964 215.185 387.876 215.06C387.789 214.934 387.676 214.828 387.545 214.749C387.414 214.669 387.269 214.618 387.117 214.598C386.965 214.578 386.811 214.59 386.664 214.633C386.524 214.661 386.39 214.716 386.271 214.795C386.151 214.874 386.049 214.976 385.969 215.095C385.889 215.214 385.833 215.347 385.805 215.488C385.777 215.628 385.777 215.773 385.804 215.913Z" fill="white"/>
<path d="M373.234 215.713C373.249 215.865 373.296 216.013 373.372 216.146C373.448 216.279 373.55 216.394 373.673 216.486C373.796 216.577 373.936 216.641 374.085 216.675C374.235 216.709 374.389 216.711 374.539 216.682C374.69 216.653 374.832 216.592 374.957 216.505C375.083 216.417 375.189 216.305 375.268 216.174C375.348 216.043 375.399 215.897 375.419 215.746C375.439 215.594 375.427 215.44 375.384 215.293C375.307 215.03 375.134 214.805 374.9 214.663C374.666 214.52 374.387 214.47 374.118 214.523C373.848 214.575 373.609 214.727 373.445 214.947C373.282 215.167 373.207 215.44 373.234 215.713Z" fill="white"/>
<path d="M381.784 198.823C381.786 199.162 381.687 199.493 381.501 199.776C381.314 200.058 381.048 200.279 380.735 200.41C380.423 200.541 380.079 200.576 379.747 200.511C379.414 200.447 379.109 200.284 378.868 200.046C378.628 199.807 378.464 199.502 378.398 199.17C378.331 198.838 378.364 198.494 378.493 198.181C378.622 197.868 378.842 197.6 379.123 197.412C379.404 197.224 379.735 197.123 380.074 197.123C380.526 197.123 380.959 197.302 381.28 197.62C381.6 197.939 381.781 198.371 381.784 198.823Z" fill="#9668FF"/>
<path d="M382.654 215.413C382.654 215.413 382.724 215.493 382.764 215.673C382.795 215.929 382.771 216.188 382.694 216.433C382.584 216.813 382.377 217.157 382.094 217.433C381.747 217.779 381.292 217.995 380.804 218.043C380.317 218.084 379.83 217.957 379.424 217.683C379.103 217.466 378.839 217.174 378.654 216.833C378.536 216.603 378.467 216.351 378.454 216.093C378.454 215.913 378.454 215.813 378.514 215.813C378.574 215.813 378.614 216.193 378.944 216.663C379.137 216.924 379.378 217.144 379.654 217.313C379.989 217.512 380.376 217.603 380.764 217.573C381.137 217.525 381.486 217.365 381.764 217.113C382.016 216.904 382.218 216.641 382.354 216.343C382.614 215.823 382.574 215.413 382.654 215.413Z" fill="white"/>
<path d="M394.844 213.263C394.882 213.347 394.912 213.434 394.934 213.523C394.973 213.628 395.007 213.735 395.034 213.843C395.034 213.963 395.104 214.103 395.134 214.273C395.211 214.646 395.264 215.024 395.294 215.403C395.329 215.869 395.329 216.337 395.294 216.803C395.253 217.268 395.176 217.73 395.064 218.183C394.97 218.551 394.85 218.912 394.704 219.263C394.655 219.403 394.598 219.54 394.534 219.673C394.49 219.773 394.44 219.87 394.384 219.963L394.244 220.213C394.266 220.121 394.303 220.033 394.354 219.953L394.484 219.643C394.534 219.523 394.594 219.393 394.644 219.243C394.779 218.891 394.889 218.53 394.974 218.163C395.081 217.712 395.158 217.254 395.204 216.793C395.234 216.33 395.234 215.866 395.204 215.403C395.179 215.027 395.132 214.654 395.064 214.283C395.043 214.128 395.013 213.975 394.974 213.823C394.974 213.693 394.924 213.593 394.904 213.503C394.873 213.426 394.853 213.346 394.844 213.263Z" fill="#263238"/>
<path d="M365.514 213.323C365.471 213.409 365.438 213.5 365.414 213.593C365.414 213.673 365.354 213.783 365.314 213.903C365.274 214.023 365.244 214.173 365.214 214.333C365.137 214.706 365.087 215.084 365.064 215.463C365.029 215.929 365.029 216.397 365.064 216.863C365.104 217.329 365.181 217.79 365.294 218.243C365.387 218.615 365.507 218.979 365.654 219.333C365.704 219.483 365.774 219.613 365.824 219.733C365.874 219.853 365.934 219.953 365.974 220.033L366.114 220.273C366.088 220.183 366.051 220.095 366.004 220.013C366.004 219.933 365.924 219.833 365.874 219.713C365.824 219.593 365.764 219.463 365.714 219.313C365.58 218.958 365.47 218.594 365.384 218.223C365.277 217.772 365.2 217.315 365.154 216.853C365.125 216.394 365.125 215.933 365.154 215.473C365.179 215.094 365.226 214.717 365.294 214.343C365.315 214.201 365.345 214.061 365.384 213.923C365.384 213.793 365.434 213.683 365.454 213.603C365.474 213.523 365.514 213.323 365.514 213.323Z" fill="#263238"/>
<path d="M368.184 232.663C368.184 232.663 371.864 229.073 379.554 229.073C387.244 229.073 391.184 232.663 391.184 232.663C387.714 234.757 383.737 235.864 379.684 235.864C375.631 235.864 371.655 234.757 368.184 232.663Z" fill="#9668FF"/>
<path d="M256.974 236.263H333.414C334.317 236.264 335.21 236.087 336.045 235.743C336.879 235.398 337.637 234.892 338.275 234.254C338.913 233.615 339.419 232.858 339.764 232.023C340.109 231.189 340.285 230.295 340.284 229.393V207.213L348.714 199.733H256.974C256.072 199.733 255.178 199.911 254.345 200.256C253.511 200.601 252.754 201.107 252.116 201.745C251.478 202.383 250.972 203.14 250.627 203.974C250.282 204.807 250.104 205.701 250.104 206.603V229.393C250.103 230.295 250.279 231.189 250.624 232.023C250.969 232.858 251.475 233.615 252.113 234.254C252.751 234.892 253.509 235.398 254.343 235.743C255.178 236.087 256.071 236.264 256.974 236.263Z" fill="#EBEBEB"/>
<path d="M329.974 210.573C329.974 210.723 314.234 210.833 294.814 210.833C275.394 210.833 259.654 210.723 259.654 210.573C259.654 210.423 275.394 210.313 294.814 210.313C314.234 210.313 329.974 210.433 329.974 210.573Z" fill="white"/>
<path d="M329.974 216.513C329.974 216.663 314.234 216.773 294.814 216.773C275.394 216.773 259.654 216.663 259.654 216.513C259.654 216.363 275.394 216.253 294.814 216.253C314.234 216.253 329.974 216.373 329.974 216.513Z" fill="white"/>
<path d="M329.974 222.453C329.974 222.593 314.234 222.713 294.814 222.713C275.394 222.713 259.654 222.593 259.654 222.453C259.654 222.313 275.394 222.193 294.814 222.193C314.234 222.193 329.974 222.313 329.974 222.453Z" fill="white"/>
<path d="M329.974 228.393C329.974 228.533 314.234 228.653 294.814 228.653C275.394 228.653 259.654 228.533 259.654 228.393C259.654 228.253 275.394 228.133 294.814 228.133C314.234 228.133 329.974 228.243 329.974 228.393Z" fill="white"/>
<path d="M379.684 360.103C392.072 360.103 402.114 350.083 402.114 337.723C402.114 325.363 392.072 315.343 379.684 315.343C367.296 315.343 357.254 325.363 357.254 337.723C357.254 350.083 367.296 360.103 379.684 360.103Z" fill="#E0E0E0"/>
<path d="M385.824 350.953H374.024C373.824 350.953 373.625 350.914 373.44 350.837C373.255 350.76 373.087 350.647 372.946 350.505C372.805 350.362 372.693 350.194 372.617 350.008C372.541 349.823 372.503 349.624 372.504 349.423C372.504 349.02 372.664 348.634 372.949 348.349C373.234 348.063 373.621 347.903 374.024 347.903H385.824C386.227 347.903 386.614 348.063 386.899 348.349C387.184 348.634 387.344 349.02 387.344 349.423C387.345 349.624 387.307 349.823 387.231 350.008C387.156 350.194 387.044 350.362 386.903 350.505C386.761 350.647 386.593 350.76 386.408 350.837C386.223 350.914 386.025 350.953 385.824 350.953Z" fill="#263238"/>
<path d="M380.594 323.173H379.554V328.413H380.594V323.173Z" fill="#263238"/>
<path d="M364.784 344.123C366.463 344.123 367.824 342.762 367.824 341.083C367.824 339.404 366.463 338.043 364.784 338.043C363.105 338.043 361.744 339.404 361.744 341.083C361.744 342.762 363.105 344.123 364.784 344.123Z" fill="#9668FF"/>
<path d="M395.524 343.913C397.203 343.913 398.564 342.552 398.564 340.873C398.564 339.194 397.203 337.833 395.524 337.833C393.845 337.833 392.484 339.194 392.484 340.873C392.484 342.552 393.845 343.913 395.524 343.913Z" fill="#9668FF"/>
<path d="M380.524 327.313C380.524 327.313 392.904 327.163 394.864 337.883C396.824 348.603 386.354 348.813 383.344 349.013C381.984 349.103 379.064 349.113 376.484 349.073C370.774 348.973 366.744 347.863 365.374 342.573C365.21 341.951 365.106 341.315 365.064 340.673C364.704 334.873 368.624 327.023 380.524 327.313Z" fill="#9668FF"/>
<path d="M371.544 343.643L389.544 343.923C390.45 343.936 391.323 343.59 391.974 342.96C392.624 342.33 392.998 341.468 393.014 340.563C393.025 339.658 392.676 338.785 392.044 338.136C391.413 337.488 390.55 337.116 389.644 337.103L371.644 336.813C370.739 336.799 369.865 337.146 369.215 337.776C368.564 338.405 368.19 339.268 368.174 340.173C368.168 340.622 368.25 341.068 368.415 341.486C368.581 341.903 368.827 342.284 369.14 342.606C369.453 342.928 369.827 343.186 370.239 343.364C370.652 343.541 371.095 343.636 371.544 343.643Z" fill="#263238"/>
<path d="M385.804 340.193C385.828 340.335 385.881 340.472 385.958 340.594C386.035 340.716 386.135 340.822 386.253 340.906C386.371 340.99 386.504 341.049 386.645 341.081C386.786 341.113 386.932 341.117 387.074 341.093C387.217 341.069 387.353 341.017 387.475 340.94C387.598 340.863 387.704 340.762 387.787 340.644C387.871 340.526 387.93 340.393 387.962 340.252C387.995 340.111 387.999 339.965 387.974 339.823C387.959 339.671 387.912 339.523 387.836 339.39C387.761 339.257 387.658 339.141 387.535 339.05C387.413 338.959 387.272 338.895 387.123 338.861C386.974 338.827 386.819 338.825 386.669 338.854C386.519 338.883 386.376 338.944 386.251 339.031C386.125 339.119 386.019 339.231 385.94 339.362C385.86 339.493 385.809 339.639 385.789 339.79C385.769 339.942 385.781 340.096 385.824 340.243L385.804 340.193Z" fill="white"/>
<path d="M373.234 339.993C373.276 340.207 373.38 340.403 373.533 340.558C373.686 340.712 373.882 340.818 374.095 340.861C374.308 340.904 374.529 340.884 374.73 340.801C374.932 340.719 375.104 340.579 375.226 340.398C375.347 340.218 375.413 340.005 375.414 339.788C375.415 339.57 375.351 339.357 375.231 339.176C375.111 338.995 374.94 338.853 374.739 338.769C374.539 338.685 374.318 338.662 374.104 338.703C373.962 338.731 373.827 338.786 373.707 338.866C373.586 338.946 373.483 339.048 373.402 339.168C373.321 339.288 373.265 339.422 373.236 339.564C373.207 339.706 373.207 339.851 373.234 339.993Z" fill="white"/>
<path d="M381.784 323.063C381.784 323.401 381.684 323.732 381.496 324.013C381.308 324.294 381.041 324.513 380.728 324.643C380.416 324.772 380.072 324.806 379.74 324.74C379.409 324.674 379.104 324.511 378.865 324.272C378.626 324.033 378.463 323.728 378.397 323.397C378.331 323.065 378.365 322.721 378.494 322.409C378.624 322.096 378.843 321.829 379.124 321.641C379.405 321.453 379.736 321.353 380.074 321.353C380.528 321.353 380.962 321.533 381.283 321.854C381.604 322.175 381.784 322.609 381.784 323.063Z" fill="#9668FF"/>
<path d="M382.654 339.683C382.654 339.683 382.724 339.773 382.764 339.953C382.795 340.209 382.771 340.468 382.694 340.713C382.582 341.092 382.375 341.436 382.094 341.713C381.747 342.059 381.292 342.275 380.804 342.323C380.317 342.364 379.83 342.237 379.424 341.963C379.103 341.746 378.839 341.454 378.654 341.113C378.537 340.883 378.469 340.631 378.454 340.373C378.454 340.193 378.454 340.093 378.514 340.093C378.574 340.093 378.614 340.473 378.944 340.933C379.133 341.199 379.375 341.424 379.654 341.593C379.991 341.786 380.377 341.876 380.764 341.853C381.137 341.805 381.486 341.645 381.764 341.393C382.012 341.18 382.213 340.918 382.354 340.623C382.614 340.083 382.574 339.693 382.654 339.683Z" fill="white"/>
<path d="M394.844 337.533C394.844 337.533 394.844 337.633 394.934 337.803C394.975 337.908 395.008 338.014 395.034 338.123C395.034 338.243 395.104 338.383 395.134 338.543C395.209 338.916 395.263 339.294 395.294 339.673C395.329 340.139 395.329 340.607 395.294 341.073C395.254 341.539 395.177 342 395.064 342.453C394.971 342.825 394.851 343.189 394.704 343.543C394.655 343.68 394.598 343.813 394.534 343.943C394.492 344.047 394.442 344.147 394.384 344.243L394.244 344.483C394.27 344.392 394.307 344.305 394.354 344.223C394.354 344.143 394.434 344.043 394.484 343.923C394.534 343.803 394.594 343.673 394.644 343.523C394.78 343.168 394.89 342.804 394.974 342.433C395.082 341.986 395.159 341.531 395.204 341.073C395.234 340.61 395.234 340.146 395.204 339.683C395.18 339.307 395.133 338.933 395.064 338.563C395.043 338.418 395.013 338.275 394.974 338.133C394.974 338.003 394.924 337.903 394.904 337.813C394.87 337.724 394.85 337.629 394.844 337.533Z" fill="#263238"/>
<path d="M365.514 337.603C365.471 337.689 365.438 337.78 365.414 337.873C365.414 337.953 365.354 338.063 365.314 338.183C365.274 338.303 365.244 338.453 365.214 338.613C365.137 338.986 365.087 339.363 365.064 339.743C365.029 340.209 365.029 340.677 365.064 341.143C365.105 341.608 365.182 342.07 365.294 342.523C365.387 342.895 365.507 343.259 365.654 343.613C365.704 343.763 365.774 343.893 365.824 344.013C365.874 344.133 365.934 344.233 365.974 344.313L366.114 344.553C366.09 344.462 366.053 344.374 366.004 344.293C366.004 344.213 365.924 344.113 365.874 343.993C365.824 343.873 365.764 343.743 365.714 343.583C365.58 343.231 365.469 342.87 365.384 342.503C365.277 342.052 365.2 341.594 365.154 341.133C365.125 340.674 365.125 340.213 365.154 339.753C365.179 339.374 365.226 338.997 365.294 338.623C365.315 338.481 365.345 338.341 365.384 338.203C365.384 338.073 365.434 337.963 365.454 337.883C365.474 337.803 365.514 337.603 365.514 337.603Z" fill="#263238"/>
<path d="M368.184 356.943C368.184 356.943 371.864 353.353 379.554 353.353C387.244 353.353 391.184 356.943 391.184 356.943C387.714 359.037 383.737 360.144 379.684 360.144C375.631 360.144 371.655 359.037 368.184 356.943Z" fill="#9668FF"/>
<path d="M256.974 360.543H333.414C334.317 360.544 335.21 360.368 336.045 360.023C336.879 359.678 337.637 359.172 338.275 358.534C338.913 357.896 339.419 357.138 339.764 356.304C340.109 355.47 340.285 354.576 340.284 353.673V331.493L348.714 324.013H256.974C256.072 324.013 255.178 324.191 254.345 324.536C253.511 324.881 252.754 325.387 252.116 326.025C251.478 326.663 250.972 327.421 250.627 328.254C250.282 329.088 250.104 329.981 250.104 330.883V353.673C250.103 354.576 250.279 355.47 250.624 356.304C250.969 357.138 251.475 357.896 252.113 358.534C252.751 359.172 253.509 359.678 254.343 360.023C255.178 360.368 256.071 360.544 256.974 360.543Z" fill="#EBEBEB"/>
<path d="M256.974 395.233H333.414C334.317 395.233 335.211 395.055 336.045 394.709C336.88 394.363 337.637 393.856 338.275 393.217C338.913 392.578 339.419 391.82 339.764 390.985C340.109 390.15 340.285 389.256 340.284 388.353V381.003L348.714 373.523H256.974C256.072 373.523 255.178 373.701 254.345 374.046C253.511 374.391 252.754 374.897 252.116 375.535C251.478 376.173 250.972 376.93 250.627 377.764C250.282 378.597 250.104 379.491 250.104 380.393V388.393C250.112 390.21 250.839 391.949 252.127 393.231C253.414 394.513 255.157 395.233 256.974 395.233Z" fill="#EBEBEB"/>
<path d="M329.974 334.823C329.974 334.973 314.234 335.083 294.814 335.083C275.394 335.083 259.654 334.973 259.654 334.823C259.654 334.673 275.394 334.563 294.814 334.563C314.234 334.563 329.974 334.713 329.974 334.823Z" fill="white"/>
<path d="M329.974 340.823C329.974 340.963 314.234 341.083 294.814 341.083C275.394 341.083 259.654 340.963 259.654 340.823C259.654 340.683 275.394 340.563 294.814 340.563C314.234 340.563 329.974 340.653 329.974 340.823Z" fill="white"/>
<path d="M329.974 346.733C329.974 346.873 314.234 346.993 294.814 346.993C275.394 346.993 259.654 346.873 259.654 346.733C259.654 346.593 275.394 346.473 294.814 346.473C314.234 346.473 329.974 346.583 329.974 346.733Z" fill="white"/>
<path d="M329.974 352.673C329.974 352.813 314.234 352.933 294.814 352.933C275.394 352.933 259.654 352.813 259.654 352.673C259.654 352.533 275.394 352.413 294.814 352.413C314.234 352.413 329.974 352.523 329.974 352.673Z" fill="white"/>
<path d="M330.214 384.693C330.214 384.833 314.634 384.953 295.424 384.953C276.214 384.953 260.624 384.833 260.624 384.693C260.624 384.553 276.204 384.433 295.424 384.433C314.644 384.433 330.214 384.543 330.214 384.693Z" fill="white"/>
<path d="M99.0741 110.523L95.3741 98.9734C100.637 90.4336 102.515 80.2341 100.639 70.3799C98.7628 60.5257 93.2687 51.7296 85.2365 45.7207C77.2043 39.7118 67.2149 36.9246 57.232 37.9072C47.2491 38.8897 37.9947 43.5708 31.2881 51.0304C24.5815 58.4899 20.9077 68.1883 20.9889 78.2192C21.0701 88.25 24.9004 97.8876 31.7269 105.238C38.5534 112.588 47.8823 117.118 57.8798 117.939C67.8773 118.76 77.8202 115.812 85.7541 109.673L99.0741 110.523Z" fill="#FAFAFA"/>
<path d="M99.0742 110.523H98.2342L95.6942 110.393L85.6942 109.843C85.6788 109.844 85.6637 109.84 85.6496 109.834C85.6356 109.828 85.623 109.819 85.6126 109.808C85.6023 109.796 85.5944 109.783 85.5895 109.769C85.5846 109.754 85.5828 109.739 85.5842 109.723C85.5798 109.704 85.5798 109.683 85.5842 109.663L85.7442 109.823C78.7956 115.251 70.2509 118.235 61.4342 118.313C59.2074 118.302 56.9847 118.124 54.7842 117.783C44.5596 116.183 35.3504 110.69 29.0842 102.453C25.5943 97.8169 23.136 92.4878 21.8742 86.8235C20.5029 80.8008 20.5577 74.5412 22.0342 68.5435C22.2242 67.7835 22.4242 67.0135 22.6242 66.2535C22.8242 65.4935 23.1542 64.7535 23.4142 64.0035C23.6676 63.245 23.9613 62.5006 24.2942 61.7735C24.6342 61.0535 24.9842 60.3335 25.2942 59.6035C25.6383 58.8737 26.0326 58.1687 26.4742 57.4935L27.7442 55.4135L29.2042 53.4135L29.9442 52.4135C30.1942 52.0935 30.4842 51.8035 30.7542 51.4935C35.0786 46.5214 40.5645 42.6947 46.7242 40.3535C52.5881 38.1191 58.8849 37.2538 65.1342 37.8235C71.0063 38.4073 76.6775 40.2784 81.7442 43.3035C90.7483 48.6511 97.3158 57.2954 100.054 67.4035C100.633 69.5692 101.047 71.7754 101.294 74.0035C101.454 76.0861 101.491 78.1765 101.404 80.2635C101.021 86.9146 98.9789 93.3639 95.4642 99.0235V98.9335C96.6442 102.693 97.5442 105.593 98.1642 107.573C98.4642 108.573 98.6842 109.263 98.8442 109.773L99.0642 110.513C99.0642 110.513 98.9642 110.243 98.7942 109.743L98.0642 107.533C97.4242 105.533 96.4742 102.713 95.2542 99.0035C95.2434 98.9744 95.2434 98.9425 95.2542 98.9135C98.7027 93.2666 100.692 86.8507 101.044 80.2435C101.121 78.1758 101.074 76.1055 100.904 74.0435C100.654 71.8348 100.237 69.6485 99.6542 67.5035C97.5093 59.7221 93.0605 52.7716 86.8923 47.5655C80.7241 42.3593 73.1253 39.141 65.0942 38.3335C58.9236 37.7687 52.7056 38.6204 46.9142 40.8235C40.8481 43.1447 35.4461 46.9223 31.1842 51.8235C30.9242 52.1335 30.6342 52.4135 30.3842 52.7335L29.6542 53.7335L28.2142 55.6635L26.9742 57.7235C26.5342 58.3962 26.14 59.0978 25.7942 59.8235C25.4542 60.5335 25.1142 61.2535 24.7942 61.9635C24.4679 62.6807 24.1808 63.4151 23.9342 64.1635C23.6742 64.9035 23.3642 65.6335 23.1442 66.3835C22.9242 67.1335 22.7542 67.8935 22.5642 68.6435C21.1142 74.549 21.0526 80.7101 22.3842 86.6435C24.1169 94.435 28.1502 101.526 33.9611 106.999C39.772 112.471 47.0927 116.071 54.9742 117.333C57.1546 117.676 59.3571 117.86 61.5642 117.883C63.6244 117.875 65.6807 117.704 67.7142 117.373C74.2662 116.306 80.4511 113.629 85.7142 109.583C85.7244 109.573 85.7368 109.564 85.7506 109.558C85.7644 109.552 85.7792 109.549 85.7942 109.549C85.8091 109.549 85.824 109.552 85.8377 109.558C85.8515 109.564 85.8639 109.573 85.8742 109.583C85.8888 109.604 85.8967 109.628 85.8967 109.653C85.8967 109.679 85.8888 109.703 85.8742 109.723L85.7942 109.543L95.6742 110.223L98.2342 110.403L99.0742 110.523Z" fill="#263238"/>
<path d="M49.9142 77.9636C49.9142 78.7685 49.6755 79.5554 49.2283 80.2247C48.781 80.894 48.1454 81.4157 47.4017 81.7237C46.658 82.0318 45.8397 82.1124 45.0502 81.9554C44.2607 81.7983 43.5354 81.4107 42.9662 80.8415C42.397 80.2723 42.0094 79.5471 41.8524 78.7576C41.6953 77.9681 41.7759 77.1497 42.084 76.406C42.392 75.6623 42.9137 75.0267 43.583 74.5795C44.2523 74.1323 45.0392 73.8936 45.8442 73.8936C46.9228 73.8962 47.9565 74.3258 48.7192 75.0885C49.4819 75.8512 49.9115 76.8849 49.9142 77.9636Z" fill="#263238"/>
<path d="M66.2142 77.9636C66.2142 78.7685 65.9755 79.5554 65.5283 80.2247C65.0811 80.894 64.4454 81.4157 63.7017 81.7237C62.958 82.0318 62.1397 82.1124 61.3502 81.9554C60.5607 81.7983 59.8355 81.4107 59.2663 80.8415C58.6971 80.2723 58.3095 79.5471 58.1524 78.7576C57.9954 77.9681 58.076 77.1497 58.384 76.406C58.6921 75.6623 59.2137 75.0267 59.883 74.5795C60.5524 74.1323 61.3392 73.8936 62.1442 73.8936C63.2228 73.8962 64.2565 74.3258 65.0192 75.0885C65.7819 75.8512 66.2116 76.8849 66.2142 77.9636Z" fill="#263238"/>
<path d="M82.4741 75.9332C82.8754 76.6304 83.0611 77.4308 83.0078 78.2334C82.9544 79.036 82.6645 79.8048 82.1745 80.4427C81.6846 81.0806 81.0166 81.559 80.2549 81.8176C79.4932 82.0761 78.672 82.1032 77.895 81.8953C77.1179 81.6875 76.4199 81.254 75.889 80.6497C75.3581 80.0454 75.0182 79.2973 74.9122 78.5C74.8062 77.7026 74.9388 76.8917 75.2934 76.1697C75.6479 75.4477 76.2084 74.8469 76.9041 74.4432C77.3675 74.1744 77.8793 73.9997 78.4103 73.9291C78.9413 73.8585 79.481 73.8934 79.9985 74.0318C80.516 74.1702 81.001 74.4094 81.4258 74.7357C81.8507 75.062 82.2069 75.469 82.4741 75.9332Z" fill="#263238"/>
<path d="M84.0942 257.823L41.9742 253.463L24.1342 212.973L10.2742 216.583C10.2742 216.583 20.5142 259.373 31.9742 266.003C43.4342 272.633 82.5842 273.823 82.5842 273.823L84.0942 257.823Z" fill="#9668FF"/>
<path d="M106.486 278.417C113.339 270.706 112.644 258.899 104.933 252.045C97.2217 245.192 85.4146 245.887 78.5611 253.598C71.7075 261.309 72.4028 273.116 80.114 279.97C87.8252 286.824 99.6322 286.128 106.486 278.417Z" fill="#263238"/>
<path d="M92.5242 284.703C88.1955 284.703 84.0008 283.202 80.6547 280.456C77.3086 277.71 75.0182 273.889 74.1737 269.643C73.3293 265.398 73.983 260.991 76.0235 257.173C78.064 253.356 81.3651 250.364 85.3643 248.707C89.3634 247.051 93.8132 246.832 97.9555 248.089C102.098 249.345 105.676 251.999 108.081 255.599C110.486 259.198 111.568 263.519 111.144 267.827C110.72 272.135 108.815 276.162 105.754 279.223C104.021 280.966 101.959 282.348 99.688 283.288C97.4171 284.229 94.9822 284.71 92.5242 284.703ZM92.5242 247.343C88.2072 247.339 84.0221 248.831 80.6822 251.567C77.3422 254.302 75.054 258.11 74.2073 262.344C73.3607 266.577 74.008 270.973 76.039 274.782C78.07 278.591 81.359 281.579 85.3457 283.235C89.3323 284.891 93.7699 285.114 97.9024 283.866C102.035 282.617 105.607 279.974 108.009 276.387C110.411 272.8 111.496 268.491 111.077 264.195C110.659 259.898 108.763 255.879 105.714 252.823C103.987 251.083 101.932 249.703 99.6681 248.762C97.404 247.821 94.9759 247.339 92.5242 247.343Z" fill="#263238"/>
<path d="M38.1985 269.202C45.7222 267.396 50.3571 259.832 48.5508 252.308C46.7445 244.785 39.181 240.15 31.6573 241.956C24.1336 243.762 19.4987 251.326 21.305 258.849C23.1113 266.373 30.6747 271.008 38.1985 269.202Z" fill="#263238"/>
<path d="M24.2891 216.247C28.7606 211.775 28.7606 204.526 24.2891 200.054C19.8176 195.583 12.5679 195.583 8.09637 200.054C3.62487 204.526 3.62487 211.775 8.09637 216.247C12.5679 220.718 19.8176 220.718 24.2891 216.247Z" fill="#263238"/>
<path d="M34.0393 201.954L24.6112 209.915L21.2111 205.889L30.6391 197.927C31.1356 197.508 31.7782 197.303 32.4257 197.358C33.0732 197.412 33.6724 197.722 34.0917 198.219L34.3239 198.494C34.5331 198.739 34.6916 199.024 34.7906 199.331C34.8895 199.638 34.9268 199.961 34.9003 200.283C34.8739 200.604 34.7842 200.917 34.6364 201.204C34.4887 201.491 34.2857 201.746 34.0393 201.954Z" fill="#263238"/>
<path d="M267.153 362.713L279.76 357.352L243.382 271.816L230.774 277.178L267.153 362.713Z" fill="#9668FF"/>
<path d="M245.189 279.989C251.857 272.118 250.882 260.33 243.01 253.662C235.139 246.993 223.351 247.969 216.683 255.84C210.014 263.712 210.989 275.499 218.861 282.168C226.733 288.836 238.52 287.861 245.189 279.989Z" fill="#263238"/>
<path d="M230.974 286.663C228.044 286.665 225.153 285.978 222.537 284.659C219.92 283.339 217.649 281.424 215.908 279.066C214.167 276.709 213.003 273.976 212.511 271.087C212.019 268.198 212.212 265.234 213.074 262.433C214.097 259.13 216.016 256.174 218.617 253.896C221.219 251.617 224.401 250.105 227.81 249.527C231.22 248.948 234.723 249.327 237.93 250.62C241.138 251.913 243.924 254.07 245.979 256.852C248.033 259.633 249.277 262.93 249.57 266.376C249.864 269.822 249.196 273.281 247.641 276.37C246.087 279.459 243.706 282.057 240.763 283.874C237.821 285.691 234.432 286.656 230.974 286.663ZM230.974 249.283C227.522 249.287 224.138 250.248 221.199 252.06C218.261 253.872 215.882 256.464 214.329 259.547C212.775 262.63 212.108 266.083 212.4 269.523C212.693 272.963 213.933 276.255 215.985 279.031C218.037 281.808 220.818 283.961 224.02 285.251C227.223 286.541 230.72 286.918 234.124 286.339C237.527 285.76 240.703 284.247 243.298 281.971C245.894 279.694 247.807 276.742 248.824 273.443C250.277 268.716 249.794 263.605 247.483 259.233C245.171 254.861 241.219 251.584 236.494 250.123C234.687 249.564 232.806 249.28 230.914 249.283H230.974Z" fill="#263238"/>
<path d="M268.758 323.767C270.829 316.312 266.465 308.589 259.01 306.517C251.555 304.446 243.833 308.81 241.761 316.265C239.689 323.72 244.053 331.443 251.508 333.514C258.963 335.586 266.686 331.222 268.758 323.767Z" fill="#263238"/>
<path d="M276.384 375.073C282.708 375.073 287.834 369.946 287.834 363.623C287.834 357.299 282.708 352.173 276.384 352.173C270.06 352.173 264.934 357.299 264.934 363.623C264.934 369.946 270.06 375.073 276.384 375.073Z" fill="#263238"/>
<path d="M261.408 375.154L267.82 364.634L272.32 367.376L265.908 377.897C265.57 378.451 265.026 378.849 264.394 379.002C263.763 379.156 263.096 379.052 262.541 378.714L262.234 378.526C261.958 378.36 261.717 378.14 261.526 377.88C261.335 377.62 261.197 377.325 261.121 377.012C261.044 376.698 261.03 376.373 261.079 376.054C261.129 375.735 261.24 375.429 261.408 375.154Z" fill="#263238"/>
<path d="M277.372 385.188L273.572 373.805C273.543 373.717 273.55 373.621 273.591 373.538C273.633 373.455 273.706 373.392 273.794 373.362L278.119 371.919C278.207 371.889 278.303 371.896 278.386 371.937C278.469 371.979 278.532 372.052 278.562 372.14L282.361 383.522C282.46 383.829 282.496 384.151 282.47 384.472C282.443 384.793 282.354 385.105 282.206 385.391C282.059 385.677 281.857 385.931 281.611 386.139C281.366 386.347 281.082 386.505 280.775 386.603L280.434 386.717C279.825 386.912 279.164 386.861 278.592 386.576C278.02 386.29 277.582 385.792 277.372 385.188Z" fill="#263238"/>
<path d="M285.421 382.46L279.228 372.181C279.204 372.142 279.188 372.098 279.181 372.053C279.174 372.007 279.177 371.961 279.188 371.916C279.199 371.872 279.219 371.83 279.246 371.793C279.273 371.756 279.307 371.724 279.347 371.701L283.253 369.347C283.292 369.324 283.336 369.308 283.381 369.301C283.427 369.294 283.473 369.296 283.517 369.307C283.562 369.319 283.604 369.338 283.641 369.366C283.678 369.393 283.709 369.427 283.733 369.467L289.926 379.745C290.261 380.302 290.362 380.969 290.205 381.599C290.049 382.23 289.648 382.773 289.092 383.108L288.784 383.294C288.227 383.629 287.56 383.73 286.929 383.573C286.299 383.417 285.756 383.016 285.421 382.46Z" fill="#263238"/>
<path d="M293.151 376.793L284.169 368.835C284.1 368.774 284.057 368.687 284.052 368.594C284.046 368.502 284.078 368.41 284.139 368.341L287.157 364.935C287.218 364.866 287.305 364.824 287.397 364.818C287.49 364.812 287.581 364.844 287.651 364.905L296.633 372.863C297.119 373.294 297.414 373.901 297.453 374.549C297.493 375.198 297.273 375.835 296.842 376.322L296.603 376.591C296.171 377.074 295.566 377.367 294.919 377.405C294.272 377.443 293.636 377.223 293.151 376.793Z" fill="#263238"/>
<path d="M86.9741 246.563C86.9741 246.563 88.3241 377.703 161.914 380.263C235.504 382.823 238.594 247.503 238.594 246.563C238.594 246.563 229.904 227.013 162.784 227.773C95.6641 228.533 86.9741 246.563 86.9741 246.563Z" fill="#9668FF"/>
<path d="M128.294 223.483H190.494C194.554 223.483 197.844 220.192 197.844 216.133V215.063C197.844 211.004 194.554 207.713 190.494 207.713H128.294C124.235 207.713 120.944 211.004 120.944 215.063V216.133C120.944 220.192 124.235 223.483 128.294 223.483Z" fill="#263238"/>
<path d="M156.714 106.873H162.084V79.7231H156.714V106.873Z" fill="#263238"/>
<path d="M241.508 187.7C249.987 185.685 255.227 177.178 253.212 168.699C251.196 160.22 242.689 154.98 234.21 156.996C225.732 159.011 220.492 167.518 222.507 175.997C224.522 184.476 233.03 189.715 241.508 187.7Z" fill="#9668FF"/>
<path d="M82.0606 186.675C90.5597 184.747 95.8868 176.295 93.959 167.795C92.0312 159.296 83.5784 153.969 75.0793 155.897C66.5801 157.825 61.253 166.278 63.1809 174.777C65.1087 183.276 73.5614 188.603 82.0606 186.675Z" fill="#9668FF"/>
<path d="M156.274 100.983C156.274 100.983 92.114 100.213 81.974 155.823C71.834 211.433 126.074 212.433 141.684 213.483C148.754 213.963 163.894 214.013 177.254 213.773C206.834 213.263 227.734 207.543 234.844 180.103C235.691 176.886 236.223 173.594 236.434 170.273C238.304 140.153 217.974 99.5031 156.274 100.983Z" fill="#9668FF"/>
<path d="M202.814 185.623L109.604 187.073C107.278 187.114 104.968 186.696 102.804 185.843C100.64 184.99 98.6653 183.718 96.9934 182.101C95.3215 180.484 93.9849 178.553 93.0601 176.419C92.1354 174.284 91.6406 171.989 91.6041 169.663C91.5644 167.337 91.9837 165.026 92.8379 162.862C93.6922 160.698 94.9646 158.723 96.5825 157.052C98.2005 155.38 100.132 154.043 102.267 153.119C104.402 152.194 106.698 151.699 109.024 151.663L202.234 150.213C204.56 150.171 206.872 150.588 209.036 151.44C211.201 152.293 213.176 153.564 214.848 155.182C216.52 156.799 217.857 158.731 218.781 160.866C219.705 163 220.199 165.297 220.234 167.623C220.275 169.949 219.857 172.261 219.003 174.426C218.149 176.59 216.877 178.565 215.259 180.237C213.641 181.909 211.708 183.246 209.573 184.17C207.438 185.094 205.141 185.588 202.814 185.623Z" fill="#263238"/>
<path d="M128.974 167.733C128.757 168.835 128.219 169.849 127.426 170.645C126.634 171.441 125.623 171.984 124.522 172.205C123.421 172.427 122.278 172.317 121.24 171.89C120.201 171.462 119.312 170.736 118.686 169.804C118.06 168.872 117.724 167.774 117.721 166.651C117.718 165.528 118.049 164.429 118.67 163.493C119.292 162.558 120.177 161.828 121.214 161.395C122.25 160.963 123.392 160.847 124.494 161.063C125.226 161.207 125.923 161.493 126.545 161.906C127.166 162.319 127.7 162.851 128.116 163.47C128.532 164.089 128.822 164.785 128.969 165.516C129.117 166.248 129.118 167.001 128.974 167.733Z" fill="white"/>
<path d="M194.064 166.693C193.849 167.796 193.312 168.811 192.52 169.608C191.728 170.406 190.718 170.951 189.617 171.174C188.515 171.397 187.372 171.288 186.333 170.862C185.293 170.435 184.403 169.709 183.776 168.777C183.149 167.845 182.812 166.747 182.809 165.623C182.806 164.5 183.136 163.4 183.758 162.464C184.38 161.528 185.265 160.797 186.302 160.365C187.339 159.932 188.482 159.817 189.584 160.033C191.061 160.323 192.362 161.188 193.202 162.436C194.042 163.685 194.352 165.216 194.064 166.693Z" fill="white"/>
<path d="M184.694 298.643C184.329 303.647 182.488 308.431 179.404 312.389C176.32 316.347 172.132 319.302 167.369 320.879C162.606 322.457 157.482 322.587 152.645 321.253C147.808 319.919 143.476 317.18 140.195 313.384C136.915 309.587 134.834 304.903 134.215 299.924C133.596 294.944 134.468 289.894 136.72 285.41C138.972 280.926 142.503 277.211 146.867 274.734C151.23 272.256 156.23 271.129 161.234 271.493C167.945 271.985 174.185 275.121 178.585 280.212C182.984 285.303 185.181 291.932 184.694 298.643Z" fill="#263238"/>
<path d="M177.824 298.143C177.557 301.79 176.215 305.277 173.967 308.161C171.718 311.045 168.665 313.198 165.194 314.347C161.722 315.496 157.987 315.59 154.462 314.617C150.937 313.643 147.78 311.646 145.389 308.879C142.999 306.111 141.483 302.696 141.034 299.067C140.584 295.438 141.221 291.757 142.863 288.489C144.506 285.222 147.08 282.515 150.261 280.711C153.442 278.906 157.087 278.086 160.734 278.353C163.156 278.529 165.52 279.181 167.69 280.271C169.86 281.361 171.794 282.868 173.381 284.706C174.968 286.544 176.177 288.677 176.94 290.982C177.702 293.288 178.003 295.721 177.824 298.143Z" fill="white"/>
<path d="M168.914 301.503C168.773 300.493 168.716 299.473 168.744 298.453C168.694 296.543 168.654 293.813 168.654 290.453L168.854 290.823L159.344 285.273H159.874L150.274 290.663C150.014 291.103 150.624 290.073 150.564 290.183V291.603V293.033C150.564 293.973 150.564 294.913 150.514 295.833C150.514 297.673 150.444 299.453 150.414 301.173L150.154 300.713L159.554 306.453H159.134C162.064 304.873 164.484 303.613 166.134 302.753C167.022 302.247 167.948 301.813 168.904 301.453C168.158 302.061 167.355 302.593 166.504 303.043C164.884 304.043 162.504 305.453 159.504 307.183L159.294 307.303L159.084 307.183L149.564 301.633L149.304 301.483V301.163C149.304 299.443 149.324 297.663 149.364 295.823C149.364 294.903 149.364 293.973 149.364 293.023V291.603V290.223C149.304 290.333 149.914 289.313 149.654 289.743L159.284 284.403L159.564 284.253L159.824 284.413L169.214 290.153L169.424 290.283V290.523C169.314 293.983 169.204 296.763 169.104 298.653C169.13 299.607 169.066 300.561 168.914 301.503Z" fill="#9668FF"/>
<path d="M165.663 85.4308C169.119 81.9746 169.119 76.3711 165.663 72.915C162.207 69.4588 156.603 69.4588 153.147 72.915C149.691 76.3711 149.691 81.9746 153.147 85.4307C156.603 88.8869 162.207 88.8869 165.663 85.4308Z" fill="#9668FF"/>
<path d="M145.264 165.113C145.684 165.163 145.474 167.113 146.714 169.783C147.417 171.316 148.44 172.68 149.714 173.783C151.208 175.098 153.068 175.924 155.044 176.153C157.031 176.281 159.011 175.807 160.724 174.793C162.174 173.95 163.429 172.808 164.404 171.443C166.104 169.073 166.254 167.083 166.674 167.113C166.844 167.113 167.014 167.613 167.014 168.553C166.976 169.892 166.634 171.206 166.014 172.393C165.083 174.188 163.705 175.714 162.014 176.823C159.924 178.296 157.377 178.977 154.831 178.745C152.284 178.512 149.903 177.381 148.114 175.553C146.654 174.157 145.579 172.407 144.994 170.473C144.577 169.183 144.468 167.813 144.674 166.473C144.844 165.543 145.104 165.083 145.264 165.113Z" fill="white"/>
<path d="M230.694 191.023C230.594 191.023 231.744 189.223 232.854 186.073C234.235 181.948 235.108 177.669 235.454 173.333C235.855 169.012 235.955 164.668 235.754 160.333C235.684 158.663 235.604 157.333 235.524 156.333C235.457 155.849 235.44 155.36 235.474 154.873C235.602 155.344 235.686 155.826 235.724 156.313C235.864 157.243 236.004 158.593 236.124 160.313C236.438 164.683 236.388 169.071 235.974 173.433C235.622 177.81 234.691 182.121 233.204 186.253C232.733 187.499 232.165 188.706 231.504 189.863C231.268 190.272 230.997 190.66 230.694 191.023Z" fill="#263238"/>
<path d="M82.094 153.963C82.0374 154.449 81.9336 154.927 81.784 155.393C81.654 155.843 81.514 156.393 81.384 157.053C81.254 157.713 81.054 158.433 80.934 159.263C80.5834 161.19 80.3497 163.137 80.234 165.093C80.0995 167.486 80.1329 169.885 80.334 172.273C80.5575 174.657 80.945 177.022 81.494 179.353C81.9531 181.259 82.5275 183.136 83.214 184.973C83.484 185.763 83.794 186.453 84.044 187.073C84.294 187.693 84.534 188.213 84.734 188.633C84.962 189.065 85.1495 189.517 85.294 189.983C85.0094 189.586 84.7617 189.165 84.554 188.723C84.2713 188.223 84.0143 187.709 83.784 187.183C83.504 186.583 83.164 185.893 82.874 185.103C82.1316 183.271 81.5168 181.39 81.034 179.473C80.4488 177.12 80.041 174.727 79.814 172.313C79.6102 169.901 79.5902 167.478 79.754 165.063C79.8935 163.09 80.1675 161.129 80.574 159.193C80.724 158.363 80.934 157.633 81.104 156.983C81.274 156.333 81.434 155.783 81.584 155.333C81.7166 154.863 81.8872 154.405 82.094 153.963Z" fill="#263238"/>
<path d="M86.634 246.453L87.014 246.563L88.134 246.943L92.394 248.443L95.474 249.543C96.604 249.923 97.854 250.283 99.184 250.693C101.854 251.483 104.864 252.513 108.284 253.313L113.614 254.683C115.474 255.153 117.434 255.503 119.454 255.943C123.454 256.863 127.844 257.493 132.454 258.233C142.424 259.601 152.471 260.319 162.534 260.383C172.597 260.324 182.645 259.606 192.614 258.233C197.194 257.493 201.554 256.873 205.614 255.943C207.614 255.513 209.614 255.163 211.454 254.693L216.794 253.323C220.204 252.523 223.214 251.493 225.884 250.703C227.214 250.293 228.464 249.933 229.594 249.553L232.674 248.453L236.934 246.953L238.054 246.573C238.18 246.523 238.311 246.487 238.444 246.463L238.074 246.623L236.974 247.053L232.744 248.643L229.594 249.823C228.474 250.213 227.224 250.583 225.894 251.013C223.224 251.833 220.224 252.883 216.804 253.713L211.464 255.113C209.614 255.593 207.644 255.953 205.624 256.403C201.624 257.343 197.224 257.983 192.624 258.743C182.634 260.145 172.562 260.876 162.474 260.933C152.39 260.869 142.321 260.134 132.334 258.733C127.744 257.983 123.334 257.333 119.334 256.393C117.334 255.943 115.334 255.583 113.494 255.103L108.154 253.703C104.734 252.873 101.734 251.823 99.064 251.003C97.734 250.573 96.494 250.203 95.364 249.813L92.294 248.663L88.064 247.073L86.964 246.643C86.8482 246.59 86.7377 246.527 86.634 246.453Z" fill="#263238"/>
<g opacity="0.3">
<path d="M86.9741 246.563C86.9741 246.563 95.6641 228.563 162.784 227.773C229.904 226.983 238.594 246.563 238.594 246.563C238.594 246.563 170.854 279.953 86.9741 246.563Z" fill="black"/>
</g>
<path d="M148.144 105.143C148.068 105.15 147.991 105.15 147.914 105.143L147.244 105.213C146.644 105.273 145.764 105.293 144.634 105.423C141.446 105.732 138.282 106.257 135.164 106.993C119.039 110.686 104.816 120.137 95.1641 133.573C90.5012 140.03 86.9708 147.232 84.7241 154.873C84.3741 155.953 84.1841 156.813 84.0141 157.383L83.8241 158.043C83.8061 158.119 83.7793 158.193 83.7441 158.263C83.7308 158.187 83.7308 158.109 83.7441 158.033C83.7441 157.853 83.8241 157.633 83.8841 157.363C84.0241 156.783 84.1741 155.913 84.4941 154.813C85.3287 151.706 86.3985 148.668 87.6941 145.723C91.9685 135.938 98.4756 127.29 106.694 120.473C114.948 113.707 124.67 108.967 135.084 106.633C138.22 105.92 141.406 105.449 144.614 105.223C145.754 105.123 146.614 105.133 147.234 105.103H147.914C148.074 105.123 148.144 105.133 148.144 105.143Z" fill="white"/>
<path d="M85.374 182.123C84.9733 181.504 84.6634 180.83 84.454 180.123C83.2678 176.781 82.7151 173.247 82.824 169.703C82.7955 168.967 82.8832 168.231 83.084 167.523C83.244 167.523 83.024 170.863 83.664 174.903C84.304 178.943 85.524 182.063 85.374 182.123Z" fill="white"/>
<path d="M68.5442 176.953C68.5442 176.953 68.3142 176.793 68.0042 176.413C67.5623 175.874 67.1831 175.287 66.8742 174.663C65.8063 172.596 65.3977 170.251 65.7034 167.944C66.0092 165.638 67.0146 163.48 68.5842 161.763C69.0439 161.237 69.5642 160.767 70.1342 160.363C70.3299 160.198 70.5534 160.069 70.7942 159.983C70.8542 160.063 69.9542 160.673 68.8642 161.983C67.4336 163.696 66.5183 165.78 66.2245 167.993C65.9306 170.205 66.2704 172.456 67.2042 174.483C67.9042 176.073 68.6142 176.893 68.5442 176.953Z" fill="white"/>
<path d="M159.974 73.0029C159.194 72.917 158.407 72.9003 157.624 72.9529C156.691 73.0348 155.79 73.3292 154.989 73.8135C154.187 74.2979 153.508 74.9593 153.002 75.7472C152.496 76.535 152.177 77.4282 152.07 78.3583C151.963 79.2885 152.07 80.2307 152.384 81.1129C152.654 81.8446 152.989 82.5507 153.384 83.2229C153.384 83.2229 153.184 83.1029 152.904 82.7829C152.52 82.32 152.216 81.7961 152.004 81.2329C151.623 80.2991 151.472 79.2871 151.564 78.2827C151.656 77.2782 151.989 76.3107 152.535 75.4621C153.08 74.6136 153.822 73.9089 154.697 73.4077C155.573 72.9066 156.556 72.6236 157.564 72.5829C158.163 72.5414 158.764 72.5988 159.344 72.7529C159.794 72.8229 159.974 72.9729 159.974 73.0029Z" fill="white"/>
<path d="M247.134 164.823C247.024 164.943 245.474 163.453 243.134 162.333C240.794 161.213 238.664 160.883 238.684 160.723C240.314 160.682 241.926 161.076 243.354 161.863C244.857 162.492 246.163 163.514 247.134 164.823Z" fill="white"/>
<path d="M109.974 339.893C109.929 339.834 109.888 339.77 109.854 339.703L109.524 339.113C109.224 338.543 108.824 337.783 108.304 336.813C108.044 336.313 107.764 335.753 107.444 335.153L106.504 333.153C105.824 331.703 105.064 330.053 104.314 328.153C103.934 327.223 103.534 326.243 103.114 325.233C102.694 324.223 102.334 323.123 101.924 322.013C101.064 319.803 100.334 317.373 99.4842 314.853C97.9142 309.753 96.3742 304.103 95.0242 298.103C93.6742 292.103 92.6942 286.313 91.8942 281.043C91.0942 275.773 90.5742 271.043 90.2542 266.983C90.0642 264.983 89.9442 263.163 89.8442 261.563C89.7442 259.963 89.6542 258.563 89.6242 257.463C89.5942 256.363 89.5642 255.513 89.5342 254.873V254.203C89.5234 254.127 89.5234 254.049 89.5342 253.973C89.5457 254.049 89.5457 254.127 89.5342 254.203L89.5942 254.873C89.5942 255.503 89.7042 256.373 89.7742 257.453C89.8442 258.533 89.9442 259.953 90.0842 261.543C90.2242 263.133 90.3542 264.953 90.5742 266.953C90.9342 270.953 91.5742 275.713 92.3242 280.953C93.0742 286.193 94.1642 291.953 95.4842 297.953C96.8042 303.953 98.3542 309.593 99.8842 314.683C100.734 317.203 101.444 319.623 102.284 321.833C102.684 322.953 103.064 324.023 103.444 325.053L104.604 327.993C105.324 329.863 106.064 331.523 106.724 332.993L107.624 334.993C107.914 335.603 108.194 336.163 108.444 336.673L109.564 339.013L109.844 339.623C109.905 339.704 109.949 339.796 109.974 339.893Z" fill="white"/>
<path d="M70.8442 258.363C68.4044 258.455 65.9612 258.368 63.5342 258.103C61.0957 258.018 58.6664 257.76 56.2642 257.333C58.7039 257.241 61.1471 257.328 63.5742 257.593C66.0126 257.678 68.4421 257.935 70.8442 258.363Z" fill="white"/>
<path d="M33.2242 237.013C31.8059 234.947 30.5329 232.786 29.4142 230.543C28.1464 228.383 27.0304 226.138 26.0742 223.823C27.4882 225.893 28.7579 228.059 29.8742 230.303C31.1485 232.458 32.268 234.7 33.2242 237.013Z" fill="white"/>
<path d="M145.474 371.423C145.08 371.416 144.688 371.369 144.304 371.283C143.246 371.095 142.201 370.841 141.174 370.523C139.649 370.059 138.159 369.487 136.714 368.813C134.954 367.964 133.263 366.982 131.654 365.873C130.064 364.737 128.566 363.476 127.174 362.103C126.047 360.974 125.004 359.764 124.054 358.483C123.403 357.628 122.812 356.729 122.284 355.793C122.068 355.464 121.89 355.112 121.754 354.743C121.834 354.693 122.674 356.143 124.344 358.263C125.326 359.495 126.385 360.664 127.514 361.763C130.282 364.452 133.458 366.686 136.924 368.383C138.34 369.067 139.796 369.665 141.284 370.173C143.844 371.033 145.494 371.323 145.474 371.423Z" fill="white"/>
<path d="M160.814 325.163C160.583 325.204 160.349 325.227 160.114 325.233C159.449 325.29 158.782 325.31 158.114 325.293C155.628 325.238 153.161 324.838 150.784 324.103C149.142 323.592 147.544 322.95 146.004 322.183C144.239 321.275 142.565 320.2 141.004 318.973C137.39 316.196 134.54 312.546 132.725 308.365C130.909 304.184 130.186 299.61 130.624 295.073C130.787 293.104 131.139 291.155 131.674 289.253C132.153 287.604 132.772 285.998 133.524 284.453C134.609 282.213 136.002 280.136 137.664 278.283C138.11 277.777 138.584 277.296 139.084 276.843C139.25 276.678 139.427 276.524 139.614 276.383C139.614 276.383 138.954 277.093 137.814 278.383C136.214 280.265 134.869 282.35 133.814 284.583C132.242 287.875 131.305 291.434 131.054 295.073C130.649 299.53 131.371 304.017 133.153 308.122C134.935 312.226 137.721 315.817 141.254 318.563C142.769 319.782 144.396 320.854 146.114 321.763C147.62 322.558 149.189 323.227 150.804 323.763C153.145 324.522 155.576 324.97 158.034 325.093C159.844 325.163 160.814 325.103 160.814 325.163Z" fill="white"/>
<path d="M39.7441 246.413C39.7441 246.493 38.9741 246.123 37.7441 245.833C36.0982 245.473 34.3921 245.49 32.7538 245.883C31.1154 246.276 29.5873 247.035 28.2841 248.103C27.2841 248.933 26.8041 249.593 26.7341 249.543C27.0085 248.881 27.433 248.292 27.9741 247.823C29.272 246.632 30.8523 245.792 32.5655 245.383C34.2787 244.973 36.068 245.008 37.7641 245.483C38.4869 245.636 39.1645 245.955 39.7441 246.413Z" fill="white"/>
<path d="M187.414 146.983C187.414 147.123 175.134 147.243 159.994 147.243C144.854 147.243 132.564 147.123 132.564 146.983C132.564 146.843 144.844 146.723 159.994 146.723C175.144 146.723 187.414 146.823 187.414 146.983Z" fill="white"/>
<path d="M140.614 209.513C140.464 209.556 140.31 209.579 140.154 209.583L138.814 209.703C138.234 209.753 137.524 209.793 136.694 209.813C135.864 209.833 134.924 209.873 133.884 209.813C131.794 209.813 129.314 209.663 126.564 209.373C123.588 209.027 120.634 208.516 117.714 207.843C114.802 207.145 111.93 206.283 109.114 205.263C106.82 204.423 104.57 203.465 102.374 202.393C101.374 201.953 100.604 201.493 99.8741 201.103C99.1441 200.713 98.5241 200.363 98.0241 200.103L96.8741 199.403C96.7378 199.328 96.6103 199.237 96.4941 199.133C96.4941 199.133 96.6541 199.133 96.9241 199.313L98.1241 199.923C98.6341 200.203 99.2641 200.533 100.004 200.923C100.744 201.313 101.584 201.713 102.534 202.133C104.414 203.013 106.704 203.953 109.284 204.883C114.892 206.894 120.709 208.262 126.624 208.963C129.344 209.283 131.814 209.463 133.884 209.513C134.884 209.573 135.884 209.513 136.694 209.513C137.504 209.513 138.224 209.513 138.804 209.513H140.144C140.3 209.487 140.459 209.487 140.614 209.513Z" fill="white"/>
<path d="M220.444 254.573C220.37 254.622 220.289 254.659 220.204 254.683L219.484 254.953L216.704 255.953C215.494 256.393 214.014 256.903 212.264 257.413C210.514 257.923 208.544 258.583 206.314 259.143L202.834 260.063C201.624 260.373 200.344 260.633 199.034 260.943C196.414 261.573 193.574 262.073 190.594 262.643C177.614 264.904 164.423 265.712 151.264 265.053C148.264 264.863 145.354 264.713 142.674 264.403C141.334 264.263 140.034 264.163 138.794 263.993L135.224 263.503C132.944 263.233 130.904 262.823 129.114 262.503C127.324 262.183 125.774 261.883 124.524 261.593L121.644 260.953L120.894 260.773C120.807 260.759 120.723 260.732 120.644 260.693C120.734 260.686 120.824 260.686 120.914 260.693L121.664 260.823L124.564 261.373C125.824 261.623 127.364 261.913 129.164 262.183C130.964 262.453 132.994 262.843 135.274 263.093L138.834 263.543C140.074 263.703 141.374 263.793 142.714 263.923C145.384 264.213 148.264 264.343 151.284 264.523C157.334 264.773 163.984 264.783 170.964 264.373C177.944 263.963 184.534 263.093 190.504 262.113C193.504 261.563 196.324 261.113 198.944 260.473C200.254 260.173 201.534 259.923 202.744 259.623L206.224 258.733C208.454 258.203 210.424 257.583 212.174 257.083C213.924 256.583 215.424 256.083 216.634 255.713L219.444 254.813L220.184 254.593L220.444 254.573Z" fill="white"/>
</g>
<defs>
<clipPath id="clip0_2029_126">
<rect width="427" height="423" fill="white"/>
</clipPath>
</defs>
</svg>
