<svg width="451" height="368" viewBox="0 0 451 368" fill="none" xmlns="http://www.w3.org/2000/svg">
<path d="M362.95 22.6666V231.127C362.951 232.602 362.662 234.063 362.098 235.426C361.534 236.789 360.707 238.027 359.664 239.07C358.621 240.113 357.382 240.941 356.019 241.504C354.656 242.068 353.195 242.358 351.72 242.357H73.72C72.2428 242.362 70.7792 242.075 69.4132 241.513C68.0472 240.951 66.8058 240.124 65.7604 239.08C64.7149 238.037 63.886 236.797 63.3213 235.432C62.7567 234.067 62.4673 232.604 62.47 231.127V22.6666C62.4687 21.1923 62.7579 19.7322 63.3212 18.3698C63.8845 17.0074 64.7107 15.7693 65.7527 14.7264C66.7947 13.6835 68.032 12.8561 69.394 12.2916C70.7559 11.7271 72.2157 11.4366 73.69 11.4366H351.69C353.168 11.4313 354.632 11.718 355.998 12.2801C357.365 12.8422 358.607 13.6687 359.653 14.7122C360.699 15.7557 361.529 16.9955 362.095 18.3606C362.661 19.7256 362.951 21.1889 362.95 22.6666Z" fill="white"/>
<path d="M362.95 29.1064V231.106C362.954 232.583 362.666 234.046 362.104 235.412C361.541 236.777 360.714 238.018 359.671 239.063C358.628 240.108 357.388 240.937 356.024 241.502C354.659 242.068 353.197 242.358 351.72 242.356H73.7201C72.6645 242.359 71.6139 242.211 70.6001 241.916L362.95 29.1064Z" fill="#263238"/>
<path opacity="0.9" d="M362.95 29.1064V231.106C362.954 232.583 362.666 234.046 362.104 235.412C361.541 236.777 360.714 238.018 359.671 239.063C358.628 240.108 357.388 240.937 356.024 241.502C354.659 242.068 353.197 242.358 351.72 242.356H73.7201C72.6645 242.359 71.6139 242.211 70.6001 241.916L362.95 29.1064Z" fill="white"/>
<path d="M285.88 141.957L301.07 135.117L297.83 117.007L281.07 115.667C278.97 110.074 276.15 104.779 272.68 99.9166L277.92 91.0466L281.27 85.3566L268.27 72.4566L253.72 81.1966C245.364 75.4299 235.872 71.5158 225.88 69.7166L221.69 53.0366H203.33L199.07 69.8366C193.395 70.9789 187.867 72.7568 182.59 75.1366L169.4 63.7766L154.35 74.0266L160.61 90.2766C156.63 94.4002 153.186 99.01 150.36 103.997L133.04 102.247L126.81 119.537L141.07 129.267C140.377 133.326 140.042 137.439 140.07 141.557C139.95 143.251 139.95 144.952 140.07 146.647L124.93 155.147L129.73 172.857H146.83C148.47 176.381 150.389 179.769 152.57 182.987C153.69 184.633 154.874 186.237 156.12 187.797L148.74 203.047L162.87 214.897L176.5 204.687C181.682 207.681 187.219 210.016 192.98 211.637L195.71 228.117L214.07 229.747L219.57 214.207C225.566 213.61 231.473 212.318 237.17 210.357L248.82 221.997L264.77 212.797L260.38 196.917C265.015 193.031 269.141 188.576 272.66 183.657L288.82 186.557L296.6 169.897L283.9 159.657C285.277 153.859 285.942 147.915 285.88 141.957ZM243.93 141.957C243.93 149.173 241.428 156.166 236.852 161.746C232.276 167.326 225.907 171.147 218.831 172.56C211.754 173.973 204.407 172.89 198.039 169.495C191.671 166.101 186.676 160.604 183.904 153.941C181.132 147.278 180.755 139.861 182.837 132.951C184.918 126.042 189.33 120.067 195.321 116.044C201.312 112.021 208.512 110.198 215.695 110.886C222.878 111.574 229.602 114.73 234.72 119.817C235.28 120.377 235.83 120.957 236.33 121.567C241.199 127.17 243.896 134.334 243.93 141.757V141.957Z" fill="#9668FF" stroke="#263238" stroke-width="1.02934" stroke-miterlimit="10"/>
<path opacity="0.2" d="M283.9 159.607L296.6 169.847L288.82 186.507L272.66 183.607C269.141 188.526 265.015 192.981 260.38 196.867L264.77 212.747L248.82 221.947L237.17 210.357C231.468 212.337 225.555 213.646 219.55 214.257L214.07 229.747L195.72 228.117L192.99 211.637C187.228 210.016 181.692 207.681 176.51 204.687L162.88 214.897L148.75 203.047L156.07 187.797C154.823 186.237 153.64 184.633 152.52 182.987L186.14 158.357C189.713 164.133 195.072 168.587 201.404 171.044C207.736 173.501 214.697 173.826 221.231 171.971C227.765 170.116 233.516 166.181 237.612 160.763C241.708 155.345 243.926 148.739 243.93 141.947V141.747C243.896 134.324 241.199 127.16 236.33 121.557L277.96 91.0366L272.72 99.9066C276.177 104.775 278.984 110.073 281.07 115.667L297.75 117.007L301.07 135.117L285.92 141.957C285.965 147.9 285.287 153.827 283.9 159.607Z" fill="black"/>
<path d="M348.99 93.8168L349.75 93.4668C350.176 93.2805 350.526 92.9559 350.744 92.5457C350.961 92.1354 351.034 91.6636 350.95 91.2068L350.79 90.2768C350.715 89.8192 350.487 89.4004 350.144 89.0883C349.801 88.7761 349.363 88.5888 348.9 88.5568L347.98 88.4868C347.622 88.4631 347.275 88.3464 346.976 88.1483C346.676 87.9501 346.433 87.6773 346.27 87.3568C346.02 86.8268 345.76 86.3568 345.47 85.8268C345.288 85.5139 345.193 85.1586 345.193 84.7968C345.193 84.4349 345.288 84.0796 345.47 83.7668L345.94 82.9668C346.173 82.5663 346.267 82.1 346.207 81.6406C346.148 81.1812 345.938 80.7544 345.61 80.4268L344.95 79.7668C344.629 79.4239 344.198 79.2049 343.732 79.1483C343.265 79.0916 342.794 79.2008 342.4 79.4568L341.59 79.9368C341.277 80.1185 340.922 80.2143 340.56 80.2143C340.198 80.2143 339.843 80.1185 339.53 79.9368C338.218 79.1817 336.808 78.6098 335.34 78.2368C334.98 78.1423 334.652 77.952 334.392 77.6861C334.131 77.4202 333.947 77.0887 333.86 76.7267L333.62 75.7268C333.514 75.2642 333.25 74.8529 332.875 74.563C332.499 74.273 332.034 74.1224 331.56 74.1368H330.64C330.167 74.1219 329.704 74.2711 329.328 74.5591C328.953 74.8471 328.688 75.2561 328.58 75.7168L328.32 76.7168C328.23 77.0705 328.049 77.3944 327.795 77.6559C327.54 77.9175 327.221 78.1074 326.87 78.2068C326.35 78.3468 325.87 78.5068 325.36 78.6868C325.014 78.8134 324.641 78.845 324.278 78.7781C323.916 78.7113 323.578 78.5485 323.3 78.3068L322.47 77.5968C322.124 77.2949 321.688 77.1171 321.229 77.0918C320.771 77.0664 320.317 77.1949 319.94 77.4568L319.21 77.9468C318.818 78.2102 318.528 78.5999 318.388 79.051C318.248 79.5021 318.266 79.9876 318.44 80.4268L318.81 81.4268C318.943 81.7679 318.983 82.138 318.927 82.4997C318.871 82.8614 318.72 83.2019 318.49 83.4868C318.16 83.8768 317.85 84.2868 317.56 84.7068C317.356 85.0182 317.069 85.2665 316.732 85.4237C316.394 85.5809 316.02 85.6409 315.65 85.5968L314.65 85.4968C314.187 85.4459 313.72 85.5537 313.326 85.8026C312.932 86.0514 312.634 86.4266 312.48 86.8667L312.15 87.7768C311.99 88.2048 311.977 88.6738 312.113 89.1101C312.249 89.5463 312.526 89.9251 312.9 90.1868L313.85 90.8568C314.146 91.0665 314.382 91.3509 314.533 91.6811C314.684 92.0112 314.745 92.3754 314.71 92.7368C314.654 93.2749 314.627 93.8157 314.63 94.3568C314.619 94.708 314.522 95.0511 314.348 95.3562C314.174 95.6613 313.927 95.919 313.63 96.1068L312.63 96.6368C312.217 96.8601 311.893 97.2179 311.711 97.6507C311.529 98.0835 311.501 98.5655 311.63 99.0168L311.87 99.9168C311.988 100.369 312.256 100.768 312.63 101.048C313.005 101.328 313.463 101.472 313.93 101.457H314.93C315.292 101.451 315.648 101.54 315.964 101.716C316.28 101.891 316.544 102.147 316.73 102.457C317.01 102.947 317.31 103.457 317.62 103.887C317.826 104.186 317.949 104.534 317.977 104.895C318.005 105.257 317.937 105.62 317.78 105.947L317.36 106.817C317.153 107.234 317.093 107.71 317.191 108.166C317.289 108.622 317.539 109.031 317.9 109.327L318.61 109.927C318.965 110.231 319.412 110.406 319.879 110.422C320.346 110.438 320.805 110.295 321.18 110.017L321.91 109.507C322.205 109.295 322.551 109.164 322.913 109.129C323.275 109.094 323.64 109.155 323.97 109.307C324.49 109.557 325.02 109.787 325.57 109.987C325.909 110.113 326.209 110.326 326.439 110.605C326.669 110.885 326.822 111.22 326.88 111.577L327.03 112.467C327.104 112.927 327.333 113.348 327.678 113.66C328.024 113.973 328.465 114.159 328.93 114.187L329.87 114.277C330.331 114.317 330.792 114.203 331.18 113.951C331.568 113.699 331.86 113.324 332.01 112.887L332.3 112.077C332.424 111.73 332.637 111.423 332.918 111.186C333.199 110.949 333.538 110.79 333.9 110.727C334.484 110.638 335.061 110.514 335.63 110.357C335.982 110.257 336.354 110.255 336.707 110.352C337.06 110.449 337.379 110.641 337.63 110.907L338.24 111.527C338.562 111.857 338.985 112.07 339.441 112.132C339.898 112.194 340.363 112.1 340.76 111.867L341.58 111.397C341.991 111.174 342.314 110.818 342.496 110.387C342.677 109.956 342.707 109.477 342.58 109.027L342.35 108.217C342.243 107.858 342.234 107.478 342.326 107.115C342.417 106.752 342.605 106.421 342.87 106.157C343.3 105.739 343.707 105.298 344.09 104.837C344.325 104.544 344.636 104.324 344.99 104.2C345.343 104.076 345.725 104.054 346.09 104.137L346.91 104.287C347.366 104.387 347.842 104.325 348.256 104.111C348.671 103.898 348.998 103.546 349.18 103.117L349.57 102.267C349.775 101.845 349.829 101.366 349.724 100.909C349.618 100.453 349.359 100.046 348.99 99.7567L348.37 99.2567C348.086 99.0319 347.866 98.736 347.732 98.3989C347.599 98.0617 347.557 97.6954 347.61 97.3368C347.709 96.7242 347.772 96.1065 347.8 95.4868C347.835 95.1287 347.964 94.7862 348.173 94.4932C348.381 94.2002 348.663 93.967 348.99 93.8168ZM341.6 94.3568C341.6 96.4216 340.988 98.4401 339.841 100.157C338.694 101.874 337.063 103.212 335.155 104.002C333.248 104.792 331.149 104.999 329.123 104.596C327.098 104.193 325.238 103.199 323.778 101.739C322.318 100.279 321.324 98.4187 320.921 96.3935C320.518 94.3683 320.725 92.2692 321.515 90.3615C322.305 88.4539 323.643 86.8234 325.36 85.6762C327.077 84.5291 329.095 83.9168 331.16 83.9168C333.916 83.9141 336.56 85.0042 338.514 86.9481C340.467 88.892 341.57 91.531 341.58 94.2867L341.6 94.3568Z" fill="#9668FF" stroke="#263238" stroke-width="1.02934" stroke-miterlimit="10"/>
<path d="M362.95 22.6666V23.2366H62.47V22.6666C62.4687 21.1923 62.7579 19.7322 63.3212 18.3698C63.8844 17.0074 64.7107 15.7693 65.7527 14.7264C66.7947 13.6835 68.032 12.8561 69.394 12.2916C70.7559 11.7271 72.2157 11.4366 73.69 11.4366H351.69C353.168 11.4313 354.632 11.718 355.998 12.2801C357.365 12.8422 358.607 13.6687 359.653 14.7122C360.699 15.7557 361.529 16.9955 362.095 18.3606C362.661 19.7256 362.951 21.1889 362.95 22.6666Z" fill="#263238"/>
<path d="M362.95 22.6666V231.127C362.951 232.602 362.662 234.063 362.098 235.426C361.534 236.789 360.707 238.027 359.664 239.07C358.621 240.113 357.382 240.941 356.019 241.504C354.656 242.068 353.195 242.358 351.72 242.357H73.72C72.2432 242.361 70.7801 242.073 69.4147 241.51C68.0493 240.947 66.8085 240.121 65.7633 239.077C64.7181 238.034 63.8892 236.795 63.324 235.43C62.7589 234.066 62.4687 232.603 62.47 231.127V22.6666C62.4687 21.1923 62.7579 19.7322 63.3212 18.3698C63.8844 17.0074 64.7107 15.7693 65.7527 14.7264C66.7947 13.6835 68.032 12.8561 69.394 12.2916C70.7559 11.7271 72.2157 11.4366 73.69 11.4366H351.69C353.168 11.4313 354.632 11.718 355.998 12.2801C357.365 12.8422 358.607 13.6687 359.653 14.7122C360.699 15.7557 361.529 16.9955 362.095 18.3606C362.661 19.7256 362.951 21.1889 362.95 22.6666Z" stroke="#263238" stroke-width="1.02934" stroke-linecap="round" stroke-linejoin="round"/>
<path d="M62.47 22.6665H362.95" stroke="#263238" stroke-width="1.02934" stroke-linecap="round" stroke-linejoin="round"/>
<path d="M87.52 17.3567C87.52 17.8076 87.3862 18.2484 87.1357 18.6234C86.8852 18.9983 86.5291 19.2905 86.1125 19.4631C85.6959 19.6357 85.2374 19.6808 84.7952 19.5928C84.3529 19.5049 83.9466 19.2877 83.6278 18.9689C83.3089 18.65 83.0917 18.2437 83.0038 17.8015C82.9158 17.3592 82.9609 16.9008 83.1335 16.4841C83.3061 16.0675 83.5983 15.7114 83.9733 15.4609C84.3482 15.2104 84.789 15.0767 85.24 15.0767C85.8447 15.0767 86.4246 15.3169 86.8522 15.7445C87.2798 16.172 87.52 16.752 87.52 17.3567Z" fill="#9668FF"/>
<path d="M98.3099 17.3565C98.3059 17.8083 98.1677 18.2486 97.913 18.6217C97.6583 18.9949 97.2984 19.2839 96.8791 19.4521C96.4599 19.6204 96.0001 19.6603 95.5581 19.5668C95.1161 19.4733 94.7118 19.2506 94.3966 18.9269C94.0814 18.6033 93.8695 18.1933 93.7877 17.749C93.7059 17.3047 93.7579 16.8461 93.9372 16.4314C94.1165 16.0167 94.4149 15.6646 94.7946 15.4198C95.1743 15.1751 95.6182 15.0486 96.0699 15.0565C96.6711 15.067 97.2438 15.3146 97.6634 15.7454C98.0829 16.1762 98.3153 16.7552 98.3099 17.3565Z" fill="#9668FF"/>
<path d="M109.07 17.3567C109.07 17.8076 108.936 18.2484 108.686 18.6234C108.435 18.9983 108.079 19.2905 107.663 19.4631C107.246 19.6357 106.787 19.6808 106.345 19.5928C105.903 19.5049 105.497 19.2877 105.178 18.9689C104.859 18.65 104.642 18.2437 104.554 17.8015C104.466 17.3592 104.511 16.9008 104.684 16.4841C104.856 16.0675 105.148 15.7114 105.523 15.4609C105.898 15.2104 106.339 15.0767 106.79 15.0767C107.089 15.0767 107.386 15.1356 107.663 15.2502C107.939 15.3648 108.19 15.5327 108.402 15.7445C108.614 15.9562 108.782 16.2075 108.896 16.4841C109.011 16.7608 109.07 17.0572 109.07 17.3567Z" fill="#9668FF"/>
<path d="M260.7 141.957C260.7 151.397 257.9 160.625 252.656 168.474C247.411 176.323 239.957 182.441 231.235 186.053C222.514 189.666 212.917 190.611 203.658 188.769C194.399 186.928 185.895 182.382 179.22 175.707C172.544 169.032 167.999 160.527 166.157 151.268C164.315 142.01 165.26 132.413 168.873 123.691C172.486 114.97 178.603 107.515 186.452 102.271C194.302 97.0259 203.53 94.2266 212.97 94.2266C225.577 94.2263 237.672 99.2138 246.614 108.1C255.557 116.986 260.621 129.05 260.7 141.657V141.957Z" stroke="#263238" stroke-width="4.11736" stroke-miterlimit="10"/>
<path d="M437.87 34.3564H267.99C261.793 34.3564 256.77 39.3798 256.77 45.5764V83.2864C256.77 89.4831 261.793 94.5064 267.99 94.5064H437.87C444.067 94.5064 449.09 89.4831 449.09 83.2864V45.5764C449.09 39.3798 444.067 34.3564 437.87 34.3564Z" fill="white" stroke="#263238" stroke-width="1.02934" stroke-miterlimit="10"/>
<path d="M290.43 64.1665H421.5" stroke="#263238" stroke-width="1.02934" stroke-miterlimit="10"/>
<path d="M286.34 64.1667L307.04 49.5767H359.76L381.27 64.1667" stroke="#263238" stroke-width="1.02934" stroke-miterlimit="10"/>
<path d="M385.35 64.1667C385.35 64.976 385.11 65.7672 384.66 66.44C384.21 67.1128 383.571 67.637 382.823 67.9463C382.075 68.2556 381.252 68.336 380.458 68.1773C379.665 68.0187 378.936 67.6282 378.364 67.0552C377.793 66.4822 377.404 65.7525 377.247 64.9584C377.091 64.1644 377.173 63.3417 377.484 62.5946C377.795 61.8474 378.321 61.2093 378.995 60.7611C379.669 60.3129 380.461 60.0747 381.27 60.0767C382.353 60.0793 383.391 60.5114 384.156 61.2781C384.92 62.0449 385.35 63.0837 385.35 64.1667Z" fill="#9668FF" stroke="#263238" stroke-width="1.02934" stroke-miterlimit="10"/>
<path d="M307.04 53.6663C309.299 53.6663 311.13 51.8352 311.13 49.5763C311.13 47.3175 309.299 45.4863 307.04 45.4863C304.781 45.4863 302.95 47.3175 302.95 49.5763C302.95 51.8352 304.781 53.6663 307.04 53.6663Z" fill="#9668FF" stroke="#263238" stroke-width="1.02934" stroke-miterlimit="10"/>
<path d="M363.84 49.5766C363.842 50.3864 363.604 51.1785 363.155 51.8526C362.706 52.5268 362.068 53.0525 361.32 53.3633C360.572 53.6741 359.749 53.756 358.955 53.5985C358.16 53.441 357.431 53.0512 356.858 52.4787C356.285 51.9061 355.896 51.1764 355.738 50.3821C355.581 49.5877 355.663 48.7646 355.973 48.0168C356.284 47.269 356.81 46.6304 357.484 46.1817C358.158 45.7331 358.95 45.4946 359.76 45.4966C360.841 45.4992 361.878 45.9299 362.642 46.6945C363.407 47.4591 363.837 48.4953 363.84 49.5766Z" fill="#9668FF" stroke="#263238" stroke-width="1.02934" stroke-miterlimit="10"/>
<path d="M286.34 64.1665L307.04 78.7565H404.2L421.5 64.1665" stroke="#263238" stroke-width="1.02934" stroke-miterlimit="10"/>
<path d="M342.78 78.7565C342.78 79.5654 342.54 80.3562 342.091 81.0288C341.641 81.7014 341.003 82.2256 340.255 82.5352C339.508 82.8447 338.686 82.9257 337.892 82.7679C337.099 82.6101 336.37 82.2206 335.798 81.6486C335.226 81.0766 334.836 80.3478 334.679 79.5544C334.521 78.761 334.602 77.9387 334.911 77.1913C335.221 76.444 335.745 75.8052 336.418 75.3558C337.09 74.9064 337.881 74.6665 338.69 74.6665C339.775 74.6665 340.815 75.0974 341.582 75.8644C342.349 76.6315 342.78 77.6718 342.78 78.7565Z" fill="#9668FF" stroke="#263238" stroke-width="1.02934" stroke-miterlimit="10"/>
<path d="M311.13 78.7565C311.13 79.5654 310.89 80.3562 310.441 81.0288C309.991 81.7014 309.353 82.2256 308.605 82.5352C307.858 82.8447 307.036 82.9257 306.242 82.7679C305.449 82.6101 304.72 82.2206 304.148 81.6486C303.576 81.0766 303.187 80.3478 303.029 79.5544C302.871 78.761 302.952 77.9387 303.262 77.1913C303.571 76.444 304.095 75.8052 304.768 75.3558C305.441 74.9064 306.231 74.6665 307.04 74.6665C308.125 74.6665 309.165 75.0974 309.932 75.8644C310.699 76.6315 311.13 77.6718 311.13 78.7565Z" fill="#9668FF" stroke="#263238" stroke-width="1.02934" stroke-miterlimit="10"/>
<path d="M408.29 78.7565C408.29 79.5654 408.05 80.3562 407.601 81.0288C407.151 81.7014 406.512 82.2256 405.765 82.5352C405.018 82.8447 404.195 82.9257 403.402 82.7679C402.609 82.6101 401.88 82.2206 401.308 81.6486C400.736 81.0766 400.346 80.3478 400.188 79.5544C400.031 78.761 400.112 77.9387 400.421 77.1913C400.731 76.444 401.255 75.8052 401.928 75.3558C402.6 74.9064 403.391 74.6665 404.2 74.6665C405.285 74.6665 406.325 75.0974 407.092 75.8644C407.859 76.6315 408.29 77.6718 408.29 78.7565Z" fill="#9668FF" stroke="#263238" stroke-width="1.02934" stroke-miterlimit="10"/>
<path d="M421.5 68.2567C423.759 68.2567 425.59 66.4255 425.59 64.1667C425.59 61.9078 423.759 60.0767 421.5 60.0767C419.241 60.0767 417.41 61.9078 417.41 64.1667C417.41 66.4255 419.241 68.2567 421.5 68.2567Z" fill="#9668FF" stroke="#263238" stroke-width="1.02934" stroke-miterlimit="10"/>
<path d="M290.43 64.1667C290.43 64.976 290.19 65.7672 289.74 66.44C289.29 67.1128 288.651 67.637 287.903 67.9463C287.155 68.2556 286.332 68.336 285.538 68.1773C284.745 68.0187 284.016 67.6282 283.444 67.0552C282.873 66.4822 282.484 65.7525 282.327 64.9584C282.171 64.1644 282.253 63.3417 282.564 62.5946C282.875 61.8474 283.401 61.2093 284.075 60.7611C284.749 60.3129 285.541 60.0747 286.35 60.0767C287.433 60.0793 288.471 60.5114 289.236 61.2781C290 62.0449 290.43 63.0837 290.43 64.1667Z" fill="#9668FF" stroke="#263238" stroke-width="1.02934" stroke-miterlimit="10"/>
<path d="M167.14 161.057H69.27C63.0734 161.057 58.05 166.08 58.05 172.277V270.147C58.05 276.343 63.0734 281.367 69.27 281.367H167.14C173.337 281.367 178.36 276.343 178.36 270.147V172.277C178.36 166.08 173.337 161.057 167.14 161.057Z" fill="white" stroke="#263238" stroke-width="1.02934" stroke-miterlimit="10"/>
<path d="M103.16 229.747L87.5801 260.037H158.2" stroke="#263238" stroke-width="1.02934" stroke-linecap="round" stroke-linejoin="round"/>
<path d="M158.2 183.986L125.24 205.896L158.2 215.816" stroke="#263238" stroke-width="1.02934" stroke-linecap="round" stroke-linejoin="round"/>
<path d="M165.99 176.196H150.41V191.776H165.99V176.196Z" fill="#9668FF" stroke="#263238" stroke-width="1.02934" stroke-miterlimit="10"/>
<path d="M165.99 208.026H150.41V223.606H165.99V208.026Z" fill="#9668FF" stroke="#263238" stroke-width="1.02934" stroke-miterlimit="10"/>
<path d="M133.03 198.106H117.45V213.686H133.03V198.106Z" fill="#9668FF" stroke="#263238" stroke-width="1.02934" stroke-miterlimit="10"/>
<path d="M110.95 221.957H95.3701V237.537H110.95V221.957Z" fill="#9668FF" stroke="#263238" stroke-width="1.02934" stroke-miterlimit="10"/>
<path d="M95.37 252.236H79.79V267.816H95.37V252.236Z" fill="#9668FF" stroke="#263238" stroke-width="1.02934" stroke-miterlimit="10"/>
<path d="M165.99 252.236H150.41V267.816H165.99V252.236Z" fill="#9668FF" stroke="#263238" stroke-width="1.02934" stroke-miterlimit="10"/>
<path d="M110.09 113.906H12.22C6.02337 113.906 1 118.93 1 125.126V222.996C1 229.193 6.02337 234.216 12.22 234.216H110.09C116.287 234.216 121.31 229.193 121.31 222.996V125.126C121.31 118.93 116.287 113.906 110.09 113.906Z" fill="white" stroke="#263238" stroke-width="1.02934" stroke-miterlimit="10"/>
<path d="M93.76 125.546H13.73V131.746H93.76V125.546Z" fill="#9668FF"/>
<path d="M59.97 135.756H13.73V141.956H59.97V135.756Z" fill="#9668FF"/>
<path d="M40.66 145.966H13.73V152.166H40.66V145.966Z" fill="#9668FF"/>
<path d="M58.05 156.167H13.73V162.367H58.05V156.167Z" fill="#9668FF"/>
<path d="M82.82 166.376H13.73V172.576H82.82V166.376Z" fill="#9668FF"/>
<path d="M59.97 176.577H13.73V182.777H59.97V176.577Z" fill="#9668FF"/>
<path d="M45.99 186.787H13.73V192.987H45.99V186.787Z" fill="#9668FF"/>
<path d="M65.96 196.997H13.73V203.197H65.96V196.997Z" fill="#9668FF"/>
<path d="M77.05 207.196H13.73V213.396H77.05V207.196Z" fill="#9668FF"/>
<path d="M93.76 217.406H13.73V223.606H93.76V217.406Z" fill="#9668FF"/>
<path opacity="0.3" d="M93.76 125.546H13.73V131.746H93.76V125.546Z" fill="black"/>
<path opacity="0.3" d="M59.97 135.756H13.73V141.956H59.97V135.756Z" fill="black"/>
<path opacity="0.3" d="M40.66 145.966H13.73V152.166H40.66V145.966Z" fill="black"/>
<path opacity="0.3" d="M58.05 156.167H13.73V162.367H58.05V156.167Z" fill="black"/>
<path opacity="0.3" d="M82.82 166.376H13.73V172.576H82.82V166.376Z" fill="black"/>
<path opacity="0.3" d="M59.97 176.577H13.73V182.777H59.97V176.577Z" fill="black"/>
<path opacity="0.3" d="M45.99 186.787H13.73V192.987H45.99V186.787Z" fill="black"/>
<path opacity="0.3" d="M65.96 196.997H13.73V203.197H65.96V196.997Z" fill="black"/>
<path opacity="0.3" d="M77.05 207.196H13.73V213.396H77.05V207.196Z" fill="black"/>
<path opacity="0.3" d="M93.76 217.406H13.73V223.606H93.76V217.406Z" fill="black"/>
<path d="M65.26 103.356H94.38C95.7856 103.356 97.1337 103.915 98.1276 104.909C99.1216 105.903 99.68 107.251 99.68 108.656V113.926H59.96V108.656C59.96 107.251 60.5184 105.903 61.5123 104.909C62.5062 103.915 63.8543 103.356 65.26 103.356Z" fill="white" stroke="#263238" stroke-width="1.02934" stroke-miterlimit="10"/>
<path d="M45.5701 103.356H74.3501C75.8035 103.356 77.1973 103.934 78.225 104.962C79.2527 105.989 79.8301 107.383 79.8301 108.836V113.936H40.0701V108.836C40.0701 108.115 40.2125 107.401 40.4891 106.735C40.7658 106.069 41.1712 105.464 41.6822 104.954C42.1932 104.445 42.7996 104.042 43.4668 103.768C44.134 103.494 44.8487 103.354 45.5701 103.356Z" fill="#9668FF" stroke="#263238" stroke-width="1.02934" stroke-miterlimit="10"/>
<path d="M23.4401 103.356H52.9201C54.2789 103.351 55.5843 103.885 56.5499 104.841C57.5154 105.797 58.0621 107.098 58.0701 108.456V113.906H18.3201V108.456C18.328 107.103 18.8706 105.807 19.8296 104.852C20.7887 103.897 22.0864 103.359 23.4401 103.356Z" fill="white" stroke="#263238" stroke-width="1.02934" stroke-miterlimit="10"/>
<path d="M398.25 323.896H420.12" stroke="#263238" stroke-width="1.02934" stroke-linecap="round" stroke-linejoin="round"/>
<path d="M53.74 323.896H386.74" stroke="#263238" stroke-width="1.02934" stroke-linecap="round" stroke-linejoin="round"/>
<path d="M392.25 311.086C392.25 311.086 396.12 307.916 397.97 311.376C399.56 314.376 395.75 317.726 391.4 317.726V320.256C391.4 320.256 400.72 320.506 401.4 312.656C402.08 304.806 392.21 306.976 392.21 306.976L392.25 311.086Z" fill="#9668FF" stroke="#263238" stroke-width="1.02934" stroke-linecap="round" stroke-linejoin="round"/>
<path d="M391.93 323.846H373.27L370.47 300.417H394.73L391.93 323.846Z" fill="#9668FF" stroke="#263238" stroke-width="1.02934" stroke-linecap="round" stroke-linejoin="round"/>
<path d="M394.69 299.296H370.51C369.803 299.296 369.23 299.869 369.23 300.576V300.696C369.23 301.403 369.803 301.976 370.51 301.976H394.69C395.397 301.976 395.97 301.403 395.97 300.696V300.576C395.97 299.869 395.397 299.296 394.69 299.296Z" fill="white" stroke="#263238" stroke-width="1.02934" stroke-linecap="round" stroke-linejoin="round"/>
<path d="M379.43 296.747C379.43 296.747 388.01 291.597 385.21 285.687C382.41 279.777 372.94 275.887 372.94 266.687C372.94 258.767 381.36 255.837 386.86 252.687" stroke="#263238" stroke-width="1.02934" stroke-linecap="round" stroke-linejoin="round"/>
<path d="M382.25 258.276C381.13 259.035 380.171 260.007 379.428 261.137C378.685 262.267 378.172 263.533 377.919 264.861C377.666 266.19 377.679 267.556 377.955 268.879C378.232 270.203 378.767 271.46 379.53 272.576" stroke="#263238" stroke-width="1.02934" stroke-linecap="round" stroke-linejoin="round"/>
<path d="M386.92 281.626C388.639 284.927 389.115 288.735 388.26 292.356" stroke="#263238" stroke-width="1.02934" stroke-linecap="round" stroke-linejoin="round"/>
<path d="M157.07 321.957C157.07 321.957 156.68 315.237 150.75 312.867C144.82 310.497 141.65 311.477 128.42 315.037C120.077 317.219 111.532 318.543 102.92 318.987V321.987L157.07 321.957Z" fill="white" stroke="#263238" stroke-width="1.02934" stroke-linecap="round" stroke-linejoin="round"/>
<path d="M156.88 321.957C156.88 321.957 157.27 315.237 163.2 312.867C169.13 310.497 172.29 311.477 185.53 315.037C193.886 317.223 202.444 318.547 211.07 318.987V321.987L156.88 321.957Z" fill="white" stroke="#263238" stroke-width="1.02934" stroke-linecap="round" stroke-linejoin="round"/>
<path d="M213.22 320.767H101.56V322.937H213.22V320.767Z" fill="#263238" stroke="#263238" stroke-width="1.02934" stroke-linecap="round" stroke-linejoin="round"/>
<path d="M159.76 321.836C160.291 320.251 161.151 318.796 162.283 317.566C163.415 316.335 164.794 315.358 166.33 314.696" stroke="#263238" stroke-width="1.02934" stroke-linecap="round" stroke-linejoin="round"/>
<path d="M163.14 321.357C163.929 319.997 165.001 318.822 166.283 317.911C167.564 317 169.026 316.374 170.57 316.077C174.26 315.397 178.02 316.667 181.5 318.077C184.98 319.487 191.07 321.357 194.79 321.357" stroke="#263238" stroke-width="1.02934" stroke-linecap="round" stroke-linejoin="round"/>
<path d="M124.47 320.747C128.168 320.347 131.792 319.439 135.24 318.047C137.318 317.071 139.463 316.249 141.66 315.587C143.883 314.931 146.273 315.172 148.32 316.257C149.201 316.829 149.976 317.55 150.61 318.387C151.493 319.501 152.222 320.729 152.78 322.036" stroke="#263238" stroke-width="1.02934" stroke-linecap="round" stroke-linejoin="round"/>
<path d="M144.89 317.727C146.107 317.885 147.231 318.461 148.07 319.357C148.882 320.254 149.59 321.24 150.18 322.297" stroke="#263238" stroke-width="1.02934" stroke-linecap="round" stroke-linejoin="round"/>
<path d="M241.67 320.876C237.586 322.749 233.162 323.769 228.67 323.876C221.75 323.876 207.67 309.576 207.67 309.576C207.67 309.576 207.16 308.036 208.26 302.276C209.36 296.516 219.7 243.666 219.7 243.666C219.7 243.666 220.92 231.366 227.91 223.816C234.9 216.266 248.62 213.576 248.62 213.576C248.62 213.576 278.96 200.366 295.98 204.446C312.98 211.196 331.55 218.056 337.75 223.376C343.95 228.696 359.19 271.376 364.47 293.296C364.47 293.296 352.84 318.006 341.99 324.946C331.14 331.886 304.99 329.626 304.99 329.626L241.67 320.876Z" fill="#9668FF"/>
<path opacity="0.3" d="M237.82 277.926L233.43 219.676C230.557 220.84 228.01 222.685 226.008 225.053C224.006 227.42 222.61 230.239 221.94 233.266C219.67 243.686 205.94 307.816 207.64 309.596C209.34 311.376 218.29 319.046 218.29 319.046C218.29 319.046 227.94 327.296 237.82 322.366C247.7 317.436 237.82 277.926 237.82 277.926Z" fill="black"/>
<path opacity="0.3" d="M281.38 225.076C280.87 226.816 278.68 227.376 276.86 227.396C271.63 227.453 266.558 225.605 262.59 222.196C261.87 221.566 249 229.516 247.52 230.306C245.18 231.566 242.89 232.946 240.52 234.116C238.3 235.206 236.2 235.746 234.75 237.946C233.789 239.568 233.065 241.319 232.6 243.146C229.48 253.366 226.19 263.556 223.35 273.846C220.89 282.756 217.58 292.616 217.72 301.966C217.722 302.635 217.769 303.304 217.86 303.966C219.86 315.916 241.68 320.876 241.68 320.876C241.68 320.876 233.96 325.606 228.68 323.876C223.4 322.146 211.06 315.086 207.17 308.486L217.88 252.486C217.88 252.486 217.75 225.486 237.21 217.486C256.67 209.486 264.31 208.256 264.31 208.256L281.38 225.076Z" fill="black"/>
<path opacity="0.3" d="M353.191 313.167C353.191 313.167 361.691 303.777 364.441 293.317C364.441 293.317 351.441 250.377 348.061 242.317C344.681 234.257 339.211 225.107 335.381 221.187L329.161 309.567L327.851 328.167C327.851 328.167 334.851 328.457 339.701 326.167C344.551 323.877 353.191 313.167 353.191 313.167Z" fill="black"/>
<path d="M327.85 328.196L335.38 221.196C335.38 221.196 298.92 204.196 289.38 202.576C279.84 200.956 233.51 219.216 233.51 219.216L240.25 321.836" stroke="#263238" stroke-width="1.02934" stroke-linecap="round" stroke-linejoin="round"/>
<path d="M262.13 150.357L258.39 168.307C258.39 168.307 253.59 164.917 252.57 168.747C251.55 172.577 254.67 177.847 260.7 178.137C260.7 178.137 262.34 186.267 267.7 191.787C270.223 194.479 272.894 197.03 275.7 199.427C275.7 199.427 277.81 213.057 284.7 213.577C291.59 214.097 292.93 207.897 294.32 199.277C294.32 199.277 300.27 188.957 302.01 183.377C302.01 183.377 309.31 178.287 304.44 170.857C304.44 170.857 306.85 153.087 302.66 150.087C298.47 147.087 269.44 148.617 262.13 150.357Z" fill="white"/>
<path d="M284.36 214.996C284.36 214.996 282.05 226.636 280.61 226.926C279.17 227.216 273.47 221.776 268.49 214.996C263.51 208.216 264.28 208.206 264.28 208.206C264.28 208.206 266.59 199.306 268.49 198.006C270.39 196.706 277.24 196.866 277.24 196.866L292.24 196.296C292.24 196.296 297.24 195.586 300.33 197.576C303.42 199.566 304.92 208.206 304.92 208.206C304.92 208.206 295.92 224.796 288.58 226.926C286.944 223.035 285.535 219.051 284.36 214.996Z" fill="white"/>
<path d="M235.19 302.397L237.18 274.477" stroke="#263238" stroke-width="1.02934" stroke-miterlimit="10"/>
<path d="M304.92 155.496C304.92 155.496 296.4 158.796 288.87 158.166C288.87 158.166 280.92 166.166 270.74 161.416C270.74 161.416 261.56 186.276 282.61 202.536C277.286 200.494 272.523 197.216 268.714 192.972C264.905 188.728 262.158 183.64 260.7 178.126C260.7 178.126 254.7 179.056 252.57 170.126C252.57 170.126 250.84 166.676 258.73 166.656L258.39 149.356L278.66 153.426L293.21 151.296L304.92 155.496Z" fill="#9668FF"/>
<path opacity="0.4" d="M304.92 155.496C304.92 155.496 296.4 158.796 288.87 158.166C288.87 158.166 280.92 166.166 270.74 161.416C270.74 161.416 263.32 188.036 281.74 202.086C281.74 202.086 265.03 196.296 260.69 178.086C260.69 178.086 254.75 177.456 252.56 170.086C252.56 170.086 250.83 166.636 258.72 166.616L258.38 149.316L278.65 153.386L293.2 151.256L304.92 155.496Z" fill="white"/>
<path d="M281.75 189.956C282.411 190.49 283.102 190.984 283.82 191.436C284.29 191.736 285.001 191.976 285.331 191.536C285.443 191.357 285.502 191.148 285.5 190.936C285.8 186.026 284.65 181.066 285.35 176.196" stroke="#263238" stroke-width="1.02934" stroke-linecap="round" stroke-linejoin="round"/>
<path d="M288.581 173.407C288.581 173.407 291.021 168.027 297.311 172.857" stroke="#263238" stroke-width="2.05868" stroke-linecap="round" stroke-linejoin="round"/>
<path d="M280.671 174.356C280.671 174.356 276.071 168.636 270.371 174.536" stroke="#263238" stroke-width="2.05868" stroke-linecap="round" stroke-linejoin="round"/>
<path d="M274.46 198.567C274.46 198.567 276.91 213.237 285.55 213.687C292.55 214.047 293.93 201.917 294.2 197.577" stroke="#263238" stroke-width="1.02934" stroke-linecap="round" stroke-linejoin="round"/>
<path d="M259.57 169.936C259.57 169.936 255.76 165.386 253.18 167.606C250.6 169.826 254.47 179.606 260.7 178.126" stroke="#263238" stroke-width="1.02934" stroke-linecap="round" stroke-linejoin="round"/>
<path d="M276.07 191.776C277.95 194.043 280.522 195.631 283.39 196.296" stroke="#263238" stroke-width="1.02934" stroke-linecap="round" stroke-linejoin="round"/>
<path d="M275.651 183.266C276.197 183.266 276.641 182.326 276.641 181.166C276.641 180.007 276.197 179.066 275.651 179.066C275.104 179.066 274.661 180.007 274.661 181.166C274.661 182.326 275.104 183.266 275.651 183.266Z" fill="#263238"/>
<path d="M292.69 181.167C292.69 182.327 292.24 183.267 291.69 183.267C291.14 183.267 290.69 182.327 290.69 181.167C290.69 180.007 291.13 179.057 291.69 179.057C292.25 179.057 292.69 180.007 292.69 181.167Z" fill="#263238"/>
<path d="M284.641 213.567C284.641 213.567 282.241 226.637 280.641 226.927C279.041 227.217 266.731 216.057 264.311 208.207C264.311 208.207 266.911 197.947 269.311 197.577C270.441 197.397 271.741 197.227 272.771 197.097" stroke="#263238" stroke-width="1.02934" stroke-linecap="round" stroke-linejoin="round"/>
<path d="M284.641 213.566C284.641 213.566 286.961 226.637 288.581 226.927C290.201 227.217 302.501 216.057 304.921 208.207C304.921 208.207 301.981 198.016 299.751 197.156C298.327 196.623 296.862 196.208 295.371 195.917" stroke="#263238" stroke-width="1.02934" stroke-linecap="round" stroke-linejoin="round"/>
<path d="M261.88 181.416C263.46 184.156 265.42 174.506 264.59 171.416C264.03 169.416 262.94 167.476 262.84 165.416C262.74 163.076 263.84 160.886 264.7 158.696C265.56 156.506 266.01 153.896 264.7 151.936C269.242 155.148 274.573 157.06 280.12 157.466C281.535 157.665 282.976 157.549 284.34 157.126C285.017 156.904 285.624 156.511 286.104 155.986C286.584 155.46 286.92 154.82 287.08 154.126C292.28 154.786 297.43 155.466 302.61 154.756C306.96 154.166 313.72 153.066 315.95 148.626C319.22 142.146 310.8 135.416 305.83 133.146C293.83 127.656 277.61 126.726 266.77 135.346C265.658 136.311 264.493 137.212 263.28 138.046C260.89 139.546 255.45 140.706 253.54 142.796C250.98 145.606 254.19 167.306 254.19 167.306C254.19 167.306 258.37 165.366 260.09 171.836C261.29 176.196 260.28 178.656 261.88 181.416Z" fill="#263238"/>
<path d="M301.2 153.357C301.13 153.625 301.083 153.9 301.06 154.177C300.949 156.638 301.242 159.101 301.93 161.467C302.2 162.527 302.59 163.557 302.76 164.637C303.16 167.207 303.16 169.687 305.06 171.777C305.06 171.777 308.7 159.047 307.23 149.947C307.06 148.947 306.73 146.247 305.12 146.737C303.94 147.097 303.12 149.117 302.6 150.097C302.02 151.131 301.551 152.224 301.2 153.357Z" fill="#263238"/>
<path d="M250.96 141.356C252.57 140.239 254.422 139.52 256.365 139.259C258.307 138.998 260.283 139.203 262.13 139.856C265.036 134.681 269.082 130.236 273.96 126.856" stroke="#263238" stroke-width="1.02934" stroke-linecap="round" stroke-linejoin="round"/>
<path opacity="0.47" d="M266.601 138.296C266.601 138.296 286.201 152.236 298.071 148.786C309.941 145.336 306.621 135.126 306.621 135.126" stroke="white" stroke-width="1.02934" stroke-linecap="round" stroke-linejoin="round"/>
<path opacity="0.47" d="M268.49 135.956C268.49 135.956 293.1 147.266 297.24 131.256" stroke="white" stroke-width="1.02934" stroke-linecap="round" stroke-linejoin="round"/>
<path d="M274.46 198.567C274.46 198.567 279.14 207.657 282.81 207.507C286.48 207.357 293.21 197.577 293.21 197.577C293.21 197.577 289.58 202.257 284.07 202.737C280.44 203.057 274.46 198.567 274.46 198.567Z" fill="#263238"/>
<path d="M302.78 264.936L303.54 264.586C303.966 264.398 304.315 264.071 304.531 263.659C304.748 263.247 304.818 262.774 304.73 262.316L304.58 261.396C304.507 260.938 304.28 260.518 303.936 260.206C303.593 259.893 303.154 259.707 302.69 259.676L301.771 259.596C301.407 259.571 301.057 259.449 300.757 259.243C300.456 259.038 300.216 258.756 300.06 258.426C299.81 257.906 299.55 257.426 299.26 256.906C299.079 256.594 298.983 256.238 298.983 255.876C298.983 255.515 299.079 255.159 299.26 254.846L299.73 254.046C299.961 253.644 300.053 253.176 299.994 252.716C299.934 252.256 299.726 251.828 299.4 251.496L298.741 250.846C298.42 250.504 297.988 250.285 297.522 250.228C297.056 250.171 296.584 250.28 296.19 250.536L295.38 251.016C295.068 251.198 294.712 251.294 294.35 251.294C293.989 251.294 293.633 251.198 293.32 251.016C292.008 250.258 290.599 249.683 289.13 249.306C288.772 249.213 288.445 249.024 288.184 248.76C287.924 248.496 287.739 248.167 287.65 247.806L287.41 246.806C287.311 246.341 287.049 245.926 286.672 245.637C286.294 245.347 285.826 245.202 285.35 245.226H284.43C283.957 245.201 283.489 245.345 283.112 245.633C282.735 245.921 282.472 246.333 282.37 246.796L282.11 247.796C282.027 248.152 281.848 248.478 281.592 248.739C281.336 249 281.014 249.186 280.66 249.276C280.14 249.426 279.66 249.576 279.14 249.766C278.796 249.89 278.424 249.92 278.064 249.853C277.704 249.787 277.368 249.626 277.09 249.386L276.26 248.676C275.921 248.363 275.483 248.177 275.022 248.15C274.561 248.122 274.105 248.255 273.73 248.526L273 249.026C272.598 249.281 272.299 249.67 272.158 250.124C272.017 250.579 272.043 251.069 272.23 251.506L272.6 252.506C272.734 252.847 272.775 253.218 272.719 253.58C272.663 253.942 272.511 254.282 272.28 254.566C271.948 254.959 271.638 255.37 271.35 255.796C271.141 256.102 270.853 256.345 270.517 256.5C270.181 256.655 269.809 256.716 269.44 256.676L268.44 256.586C267.976 256.524 267.503 256.627 267.107 256.878C266.71 257.128 266.414 257.51 266.271 257.956L265.94 258.856C265.781 259.284 265.767 259.753 265.903 260.19C266.039 260.626 266.316 261.005 266.69 261.266L267.69 261.936C267.986 262.149 268.221 262.436 268.372 262.767C268.523 263.099 268.584 263.464 268.55 263.826C268.489 264.361 268.462 264.899 268.47 265.436C268.461 265.788 268.365 266.132 268.191 266.437C268.016 266.743 267.769 267 267.47 267.186L266.47 267.726C266.06 267.949 265.737 268.306 265.555 268.736C265.373 269.167 265.344 269.647 265.47 270.096L265.711 270.996C265.827 271.45 266.094 271.85 266.469 272.13C266.844 272.41 267.303 272.553 267.771 272.536H268.771C269.132 272.533 269.487 272.623 269.803 272.798C270.119 272.973 270.383 273.228 270.57 273.536C270.85 274.036 271.141 274.536 271.461 274.966C271.666 275.265 271.789 275.613 271.817 275.975C271.846 276.337 271.778 276.699 271.62 277.026L271.2 277.906C270.993 278.324 270.934 278.8 271.032 279.256C271.13 279.712 271.38 280.121 271.741 280.416L272.45 281.016C272.804 281.318 273.25 281.491 273.715 281.508C274.18 281.524 274.636 281.383 275.01 281.106L275.75 280.586C276.037 280.381 276.374 280.255 276.725 280.222C277.076 280.189 277.43 280.249 277.75 280.396C278.28 280.646 278.81 280.866 279.36 281.076C279.698 281.201 279.997 281.413 280.227 281.691C280.457 281.968 280.61 282.301 280.67 282.656L280.82 283.556C280.898 284.015 281.128 284.434 281.472 284.746C281.817 285.058 282.257 285.245 282.72 285.276L283.66 285.356C284.122 285.401 284.584 285.287 284.973 285.035C285.362 284.783 285.653 284.406 285.8 283.966L286.09 283.166C286.213 282.82 286.426 282.512 286.707 282.274C286.988 282.037 287.328 281.879 287.69 281.816C288.273 281.723 288.851 281.599 289.42 281.446C289.772 281.353 290.142 281.353 290.493 281.448C290.844 281.543 291.164 281.729 291.42 281.986L292.03 282.606C292.352 282.937 292.775 283.15 293.232 283.212C293.689 283.273 294.153 283.18 294.55 282.946L295.37 282.486C295.783 282.263 296.108 281.905 296.29 281.473C296.471 281.04 296.5 280.558 296.37 280.106L296.14 279.306C296.033 278.948 296.024 278.567 296.116 278.205C296.208 277.842 296.396 277.511 296.66 277.246C297.09 276.825 297.498 276.381 297.88 275.916C298.119 275.63 298.431 275.413 298.784 275.29C299.136 275.166 299.515 275.141 299.88 275.216L300.711 275.376C301.166 275.464 301.639 275.396 302.051 275.182C302.463 274.967 302.791 274.62 302.98 274.196L303.37 273.356C303.575 272.935 303.63 272.456 303.524 271.999C303.418 271.542 303.16 271.135 302.79 270.846L302.17 270.336C301.883 270.117 301.66 269.823 301.526 269.487C301.392 269.15 301.352 268.784 301.41 268.426C301.508 267.814 301.572 267.196 301.6 266.576C301.64 266.225 301.769 265.889 301.976 265.602C302.182 265.315 302.459 265.085 302.78 264.936ZM290.39 265.466C290.392 266.543 290.075 267.596 289.479 268.491C288.882 269.387 288.033 270.086 287.039 270.499C286.045 270.913 284.951 271.022 283.895 270.813C282.839 270.604 281.869 270.087 281.107 269.327C280.346 268.566 279.826 267.597 279.616 266.541C279.405 265.486 279.512 264.392 279.924 263.397C280.335 262.402 281.032 261.552 281.927 260.954C282.822 260.356 283.874 260.036 284.95 260.036C286.386 260.034 287.764 260.601 288.782 261.613C289.8 262.626 290.375 264.001 290.38 265.436L290.39 265.466Z" fill="#263238"/>
<path d="M235.4 298.636C234.584 299.536 233.691 300.362 232.73 301.106C230.127 303.628 228.175 306.744 227.04 310.186C226.48 311.778 226.48 313.514 227.04 315.106C228.25 318.106 232.09 321.106 235.16 319.186" stroke="#263238" stroke-width="1.02934" stroke-linecap="round" stroke-linejoin="round"/>
<path d="M235.161 293.356C232.231 292.896 229.351 294.596 227.351 296.766C225.351 298.936 223.961 301.616 222.141 303.946" stroke="#263238" stroke-width="1.02934" stroke-linecap="round" stroke-linejoin="round"/>
<path d="M234.93 323.427C231.03 324.185 226.992 323.753 223.34 322.187C221.027 320.943 218.872 319.425 216.92 317.667L209.32 311.387C208.1 310.387 206.75 308.937 207.25 307.437C207.25 307.437 219.95 240.507 221.94 233.267C224.25 224.917 233.55 219.267 233.55 219.267" stroke="#263238" stroke-width="1.02934" stroke-linecap="round" stroke-linejoin="round"/>
<path d="M330.22 299.356C333.491 301.815 335.992 305.156 337.43 308.986C338.568 312.54 339.329 316.204 339.7 319.916C337.7 321.016 333.7 323.916 330.22 323.916" stroke="#263238" stroke-width="1.02934" stroke-linecap="round" stroke-linejoin="round"/>
<path d="M330.65 293.786C333.73 292.966 336.78 295.067 339.11 297.247C341.44 299.427 343.83 301.956 347 302.296" stroke="#263238" stroke-width="1.02934" stroke-linecap="round" stroke-linejoin="round"/>
<path d="M331.24 328.567C337.24 327.937 342.64 324.667 346.96 320.497C351.28 316.327 354.6 311.267 357.89 306.257C360.56 302.197 363.27 298.027 364.44 293.317C364.44 293.317 353.91 258.507 348.06 242.317C341.96 225.487 335.38 221.187 335.38 221.187" stroke="#263238" stroke-width="1.02934" stroke-linecap="round" stroke-linejoin="round"/>
<path d="M330.65 293.787C336.08 289.227 344.41 292.917 350.25 295.977" stroke="#263238" stroke-width="1.02934" stroke-linecap="round" stroke-linejoin="round"/>
<path d="M330.21 275.156H235.4V329.646H330.21V275.156Z" fill="white"/>
<path d="M330.65 329.646H234.93V332.496H330.65V329.646Z" fill="#263238"/>
<path d="M234.93 329.646L330.22 275.156L330.65 329.646H234.93Z" fill="#263238"/>
<path opacity="0.9" d="M234.93 329.646L330.22 275.156L330.65 329.646H234.93Z" fill="white"/>
<path d="M289.798 307.224C292.953 304.068 292.953 298.952 289.798 295.797C286.643 292.641 281.527 292.641 278.371 295.797C275.216 298.952 275.216 304.068 278.371 307.224C281.527 310.379 286.643 310.379 289.798 307.224Z" fill="#263238"/>
<path d="M330.21 275.156H235.4V329.646H330.21V275.156Z" stroke="#263238" stroke-width="1.02934" stroke-linecap="round" stroke-linejoin="round"/>
<path d="M259.13 164.417C259.13 164.417 261.21 183.416 263.85 186.846C266.49 190.276 274.97 202.687 284.21 202.497C293.45 202.307 299.48 190.427 300.99 185.337C302.87 178.89 304.007 172.251 304.38 165.547" stroke="#263238" stroke-width="1.02934" stroke-linecap="round" stroke-linejoin="round"/>
<path d="M301.95 183.356C301.95 183.356 308.8 179.816 304.38 170.836" stroke="#263238" stroke-width="1.02934" stroke-linecap="round" stroke-linejoin="round"/>
</svg>
