<svg width="360" height="373" viewBox="0 0 360 373" fill="none" xmlns="http://www.w3.org/2000/svg">
<g clip-path="url(#clip0_2029_308)">
<mask id="mask0_2029_308" style="mask-type:luminance" maskUnits="userSpaceOnUse" x="0" y="0" width="360" height="373">
<path d="M360 0H0V373H360V0Z" fill="white"/>
</mask>
<g mask="url(#mask0_2029_308)">
<path d="M187.786 44.4237C182.046 42.8237 176.296 41.2437 170.496 39.8637C152.156 35.4937 133.146 34.4737 114.296 35.4537C74.4361 37.5337 57.0461 58.3538 70.8161 77.7738C84.5861 97.1938 101.976 117.324 83.1361 136.064C64.2961 154.804 -6.72394 171.444 0.51606 204.744C7.75606 238.044 71.5161 242.904 66.5161 264.414C61.5161 285.924 28.8761 292.174 44.7761 321.314C60.6761 350.454 119.416 324.784 138.256 340.044C157.096 355.304 167.256 367.794 198.406 372.654C229.556 377.514 252.036 339.354 285.406 324.784C318.776 310.214 352.806 305.354 359.326 271.354C365.846 237.354 303.526 215.154 306.426 180.464C307.876 163.124 319.736 149.594 328.986 135.734C344.606 112.304 357.486 70.0937 322.986 56.2837C307.986 50.2837 290.766 51.9037 274.986 52.2837C258.566 52.6337 241.536 54.4737 225.166 52.6737C212.366 51.2337 200.076 47.8237 187.786 44.4237Z" fill="#9668FF"/>
<path opacity="0.7" d="M187.786 44.4237C182.046 42.8237 176.296 41.2437 170.496 39.8637C152.156 35.4937 133.146 34.4737 114.296 35.4537C74.4361 37.5337 57.0461 58.3538 70.8161 77.7738C84.5861 97.1938 101.976 117.324 83.1361 136.064C64.2961 154.804 -6.72394 171.444 0.51606 204.744C7.75606 238.044 71.5161 242.904 66.5161 264.414C61.5161 285.924 28.8761 292.174 44.7761 321.314C60.6761 350.454 119.416 324.784 138.256 340.044C157.096 355.304 167.256 367.794 198.406 372.654C229.556 377.514 252.036 339.354 285.406 324.784C318.776 310.214 352.806 305.354 359.326 271.354C365.846 237.354 303.526 215.154 306.426 180.464C307.876 163.124 319.736 149.594 328.986 135.734C344.606 112.304 357.486 70.0937 322.986 56.2837C307.986 50.2837 290.766 51.9037 274.986 52.2837C258.566 52.6337 241.536 54.4737 225.166 52.6737C212.366 51.2337 200.076 47.8237 187.786 44.4237Z" fill="white"/>
<path d="M172.035 158.674C171.595 158.673 171.168 158.528 170.819 158.261C170.47 157.993 170.219 157.618 170.105 157.194C169.875 156.334 146.865 70.9137 142.805 43.8637C140.155 26.1837 145.415 15.7237 150.295 10.0637C153.069 6.84649 156.515 4.27787 160.391 2.53951C164.267 0.801149 168.478 -0.0645115 172.725 0.00374439C190.495 0.00374439 199.585 16.1237 201.905 24.6437C203.905 32.0637 207.325 44.9737 207.365 45.1037C207.475 45.6091 207.385 46.1376 207.114 46.5782C206.843 47.0187 206.412 47.3372 205.911 47.4666C205.41 47.596 204.879 47.5263 204.428 47.2722C203.978 47.0181 203.643 46.5993 203.495 46.1037C203.495 45.9737 200.065 33.1037 198.045 25.6737C196.025 18.2437 188.075 4.00374 172.725 4.00374C169.054 3.94413 165.415 4.68949 162.063 6.18737C158.712 7.68525 155.729 9.89928 153.325 12.6737C148.995 17.6737 144.325 27.0937 146.765 43.2737C150.765 70.1037 173.765 155.274 173.975 156.154C174.112 156.666 174.041 157.211 173.777 157.671C173.512 158.13 173.077 158.466 172.565 158.604C172.392 158.652 172.214 158.676 172.035 158.674Z" fill="#263238"/>
<path d="M59.3254 254.554C50.9654 254.554 44.1654 251.664 40.7354 243.284C33.8454 226.494 55.2854 215.494 80.1054 202.744C88.1054 198.644 96.3654 194.394 104.245 189.744C134.135 171.934 131.975 160.064 131.945 159.944C131.835 159.439 131.925 158.91 132.196 158.47C132.467 158.029 132.898 157.711 133.399 157.581C133.9 157.452 134.431 157.521 134.882 157.776C135.332 158.03 135.667 158.448 135.815 158.944C136.205 160.424 138.675 173.944 106.295 193.194C98.2954 197.954 89.9754 202.194 81.9354 206.364C58.8654 218.204 38.9354 228.434 44.4354 241.824C50.5554 256.754 71.4854 249.664 91.7354 242.824C104.275 238.584 116.115 234.574 123.505 236.584C130.085 238.384 131.435 242.944 132.155 245.394C132.255 245.784 132.386 246.165 132.545 246.534C132.89 246.927 133.067 247.44 133.038 247.962C133.009 248.484 132.777 248.974 132.391 249.327C132.006 249.68 131.497 249.868 130.974 249.851C130.452 249.834 129.957 249.612 129.595 249.234C128.959 248.446 128.524 247.517 128.325 246.524C127.685 244.354 126.885 241.654 122.455 240.444C116.245 238.744 104.965 242.574 93.0154 246.614C81.5954 250.404 69.3354 254.554 59.3254 254.554Z" fill="#263238"/>
<path d="M269.477 215.223C269.128 215.229 268.783 215.143 268.477 214.973C268.247 214.846 268.045 214.675 267.881 214.469C267.717 214.264 267.596 214.028 267.523 213.775C267.451 213.522 267.429 213.258 267.459 212.997C267.489 212.736 267.57 212.483 267.697 212.253C278.137 193.473 296.957 187.923 313.577 183.033C319.375 181.443 325.08 179.534 330.667 177.313C337.037 174.623 340.667 168.023 338.937 162.313C335.987 152.553 318.427 144.853 277.997 152.513C259.877 155.943 245.997 154.513 236.727 148.123C228.727 142.653 227.337 135.543 227.277 135.243C227.191 134.728 227.311 134.199 227.611 133.77C227.91 133.342 228.366 133.047 228.88 132.951C229.394 132.854 229.925 132.962 230.36 133.252C230.795 133.543 231.099 133.992 231.207 134.503C231.397 135.443 236.067 156.383 277.207 148.583C331.367 138.323 341.057 155.583 342.727 161.153C345.077 168.933 340.547 177.473 332.187 181.003C326.464 183.294 320.615 185.254 314.667 186.873C298.007 191.783 280.797 196.873 271.157 214.203C270.988 214.504 270.745 214.755 270.451 214.934C270.157 215.113 269.821 215.212 269.477 215.223Z" fill="#263238"/>
<path d="M207.464 57.7837C206.589 57.7822 205.739 57.4938 205.044 56.9628C204.348 56.4317 203.846 55.6874 203.614 54.8437L199.524 39.8437C199.386 39.3368 199.349 38.8076 199.414 38.2862C199.48 37.7649 199.648 37.2617 199.909 36.8053C200.169 36.3489 200.517 35.9482 200.933 35.6262C201.348 35.3043 201.822 35.0672 202.329 34.9287C202.836 34.7901 203.366 34.7528 203.887 34.8188C204.408 34.8848 204.911 35.0528 205.368 35.3133C205.824 35.5737 206.225 35.9215 206.547 36.3368C206.869 36.7521 207.106 37.2268 207.244 37.7337L211.334 52.7337C211.472 53.2406 211.509 53.7697 211.442 54.2908C211.376 54.8119 211.207 55.3148 210.946 55.7707C210.685 56.2267 210.337 56.6267 209.922 56.9481C209.506 57.2695 209.031 57.5058 208.524 57.6437C208.179 57.7399 207.823 57.7871 207.464 57.7837Z" fill="#263238"/>
<path d="M264.085 212.543C264.085 212.543 268.855 204.363 273.625 207.773C278.395 211.183 268.175 217.993 272.265 219.353C276.355 220.713 284.525 217.353 287.265 226.173C290.005 234.993 281.805 239.113 273.635 237.073C265.465 235.033 258.635 226.853 264.085 212.543Z" fill="white"/>
<path d="M277.717 238.084C276.297 238.083 274.883 237.905 273.507 237.554C271.371 237.069 269.365 236.13 267.624 234.802C265.883 233.473 264.448 231.786 263.417 229.854C260.967 225.174 261.047 219.124 263.617 212.364V212.294C263.737 212.084 266.547 207.294 270.157 206.544C270.799 206.406 271.464 206.407 272.106 206.549C272.748 206.69 273.352 206.968 273.877 207.364C276.877 209.494 274.747 212.774 273.217 215.174C272.397 216.464 271.547 217.794 271.767 218.424C271.767 218.494 271.867 218.714 272.377 218.884C273.686 219.196 275.033 219.321 276.377 219.254C280.477 219.254 285.577 219.254 287.647 226.024C289.047 230.574 287.577 233.394 286.087 234.964C284.97 236.015 283.654 236.832 282.216 237.368C280.779 237.904 279.249 238.147 277.717 238.084ZM264.537 212.764C262.077 219.234 261.997 224.984 264.297 229.394C265.267 231.198 266.613 232.773 268.243 234.013C269.873 235.253 271.749 236.13 273.747 236.584C278.417 237.754 283.007 236.844 285.447 234.274C287.307 232.274 287.767 229.554 286.777 226.274C284.917 220.274 280.427 220.274 276.457 220.214C274.994 220.285 273.529 220.143 272.107 219.794C271.83 219.724 271.573 219.59 271.358 219.402C271.142 219.214 270.974 218.979 270.867 218.714C270.477 217.624 271.377 216.224 272.417 214.594C274.237 211.734 275.417 209.594 273.337 208.144C272.927 207.826 272.452 207.602 271.945 207.488C271.439 207.374 270.914 207.372 270.407 207.484C267.407 208.174 264.787 212.344 264.537 212.764Z" fill="#263238"/>
<path d="M283.786 236.613C283.688 236.613 283.591 236.585 283.506 236.533C283.397 236.46 283.321 236.346 283.294 236.217C283.268 236.088 283.294 235.954 283.366 235.843C289.096 227.103 279.846 220.593 279.446 220.323C279.338 220.247 279.263 220.131 279.239 220C279.215 219.869 279.243 219.734 279.316 219.623C279.353 219.569 279.399 219.522 279.454 219.486C279.508 219.45 279.57 219.425 279.634 219.413C279.698 219.401 279.764 219.402 279.828 219.415C279.892 219.429 279.953 219.456 280.006 219.493C280.106 219.563 290.466 226.833 284.186 236.383C284.144 236.452 284.085 236.508 284.015 236.548C283.945 236.589 283.867 236.611 283.786 236.613Z" fill="#263238"/>
<path d="M267.676 322.574L168.046 338.124C161.406 339.124 154.636 333.604 152.936 325.704L101.196 85.6438C98.1959 74.3238 108.386 68.2938 115.026 67.2538L209.766 53.9138C216.406 52.9138 223.166 58.4338 224.876 66.3338L283.266 306.004C284.966 313.914 280.876 320.604 267.676 322.574Z" fill="white"/>
<path d="M166.445 338.753C160.135 338.753 154.065 333.293 152.445 325.813L100.705 85.7433C100.141 83.8692 99.9915 81.8945 100.268 79.9568C100.544 78.0191 101.239 76.1649 102.305 74.5233C105.425 69.7633 111.065 67.3633 114.955 66.7633L209.695 53.4133C216.575 52.3433 223.605 58.0933 225.355 66.2333L283.745 305.893C284.195 307.58 284.283 309.343 284.004 311.066C283.725 312.79 283.084 314.435 282.125 315.893C279.565 319.593 274.735 321.993 267.745 323.043L168.125 338.593C167.57 338.692 167.009 338.745 166.445 338.753ZM211.365 54.2833C210.853 54.2835 210.341 54.3236 209.835 54.4033L115.095 67.7533C111.425 68.3233 106.095 70.5833 103.145 75.0733C102.154 76.6011 101.509 78.3271 101.255 80.1306C101.001 81.934 101.144 83.7712 101.675 85.5133L153.425 325.593C155.075 333.233 161.595 338.593 167.965 337.593L267.595 322.003C274.305 321.003 278.915 318.733 281.295 315.273C282.18 313.925 282.77 312.404 283.025 310.812C283.28 309.219 283.195 307.591 282.775 306.033L224.385 66.4533C222.875 59.4233 217.225 54.2833 211.365 54.2833Z" fill="#263238"/>
<path d="M274.484 319.853L174.874 335.403C168.234 336.403 161.474 330.873 159.774 322.973L108.004 82.9132C106.304 75.0132 110.304 67.7732 116.944 66.7332L216.574 51.1832C223.214 50.1832 229.984 55.7132 231.684 63.6132L283.424 303.673C285.134 311.573 281.124 318.813 274.484 319.853Z" fill="#263238"/>
<path d="M173.266 336.004C166.946 336.004 160.876 330.544 159.266 323.064L107.516 83.0037C107.031 80.9685 106.963 78.8564 107.315 76.7943C107.668 74.7321 108.433 72.7624 109.566 71.0036C110.394 69.7588 111.469 68.6981 112.725 67.8877C113.981 67.0772 115.391 66.5346 116.866 66.2936L216.496 50.7436C223.386 49.6636 230.416 55.4137 232.176 63.5537L283.876 303.554C284.377 305.596 284.458 307.719 284.114 309.794C283.77 311.868 283.009 313.852 281.876 315.624C281.046 316.868 279.968 317.928 278.711 318.738C277.453 319.549 276.042 320.092 274.566 320.334L174.936 335.884C174.384 335.969 173.825 336.009 173.266 336.004ZM218.186 51.5436C217.674 51.5438 217.162 51.584 216.656 51.6637L117.026 67.2137C115.684 67.4331 114.401 67.9274 113.258 68.6656C112.116 69.4038 111.138 70.37 110.386 71.5036C109.326 73.1607 108.612 75.0151 108.287 76.9554C107.962 78.8957 108.033 80.8816 108.496 82.7936L160.236 322.854C161.886 330.484 168.406 335.854 174.786 334.854L274.416 319.294C275.757 319.074 277.038 318.58 278.179 317.841C279.32 317.103 280.296 316.137 281.046 315.004C282.111 313.349 282.828 311.494 283.155 309.554C283.482 307.613 283.41 305.626 282.946 303.714L231.196 63.7137C229.686 56.7137 224.036 51.5636 218.196 51.5636L218.186 51.5436Z" fill="#263238"/>
<path d="M274.974 291.334L162.504 308.884L115.414 90.394L227.874 72.834L274.974 291.334Z" fill="#9668FF"/>
<path d="M162.505 309.383C162.392 309.383 162.283 309.344 162.195 309.273C162.108 309.202 162.048 309.103 162.025 308.993L114.925 90.4932C114.898 90.359 114.923 90.2196 114.995 90.1032C115.034 90.0471 115.085 89.9996 115.143 89.9635C115.202 89.9274 115.267 89.9035 115.335 89.8932L227.795 72.3432C227.921 72.3248 228.05 72.3547 228.156 72.427C228.261 72.4992 228.336 72.6085 228.365 72.7332L275.465 291.223C275.479 291.29 275.48 291.359 275.466 291.427C275.452 291.494 275.425 291.557 275.385 291.613C275.306 291.723 275.188 291.799 275.055 291.823L162.585 309.383H162.505ZM116.015 90.8032L162.875 308.323L274.355 290.923L227.485 73.4032L116.015 90.8032Z" fill="#263238"/>
<path d="M179.344 140.564C180.494 146.074 179.784 150.844 177.784 151.214C175.784 151.584 173.234 147.414 172.094 141.904C170.954 136.394 171.654 131.624 173.654 131.254C175.654 130.884 178.204 135.004 179.344 140.564Z" fill="#263238"/>
<path d="M204.045 135.944C205.185 141.454 204.485 146.224 202.475 146.604C200.465 146.984 197.925 142.804 196.785 137.294C195.645 131.784 196.345 127.014 198.345 126.644C200.345 126.274 202.875 130.434 204.045 135.944Z" fill="#263238"/>
<path d="M191.417 184.813C179.597 184.813 167.947 177.563 160.697 165.293C160.493 164.842 160.464 164.331 160.615 163.86C160.766 163.388 161.086 162.989 161.514 162.74C161.942 162.491 162.447 162.41 162.932 162.512C163.416 162.614 163.846 162.893 164.137 163.293C171.597 175.913 184.047 182.643 195.897 180.443C207.427 178.313 216.227 167.943 218.297 154.043C218.336 153.78 218.426 153.528 218.562 153.3C218.698 153.072 218.878 152.874 219.091 152.715C219.305 152.557 219.547 152.442 219.804 152.377C220.062 152.313 220.329 152.299 220.592 152.338C220.855 152.377 221.107 152.467 221.335 152.603C221.563 152.739 221.762 152.919 221.92 153.132C222.078 153.346 222.193 153.588 222.258 153.845C222.322 154.103 222.336 154.37 222.297 154.633C219.967 170.253 209.907 181.923 196.667 184.383C194.934 184.686 193.176 184.83 191.417 184.813Z" fill="#263238"/>
<path d="M143.021 171.266L137.898 181.74L138.797 182.18L143.919 171.705L143.021 171.266Z" fill="white"/>
<path d="M185.976 83.4878L147.633 161.895L148.531 162.334L186.874 83.9271L185.976 83.4878Z" fill="white"/>
<path d="M174 84.1987L157.953 114.932L158.84 115.394L174.886 84.6615L174 84.1987Z" fill="white"/>
<path d="M249.288 258.2L231.488 293.406L232.381 293.857L250.18 258.651L249.288 258.2Z" fill="white"/>
<path d="M257.539 241.93L252.008 252.871L252.9 253.322L258.432 242.381L257.539 241.93Z" fill="white"/>
<path d="M185.024 69.194L153.954 74.004C153.293 74.0405 152.642 73.8274 152.131 73.407C151.62 72.9866 151.285 72.3895 151.194 71.734C151.094 71.4471 151.052 71.1434 151.071 70.8403C151.089 70.5372 151.166 70.2406 151.299 69.9675C151.432 69.6945 151.617 69.4503 151.845 69.2489C152.072 69.0475 152.337 68.893 152.624 68.794L152.824 68.734L183.874 64.004C184.535 63.9675 185.185 64.1806 185.696 64.601C186.207 65.0215 186.542 65.6186 186.634 66.274C186.815 66.8588 186.757 67.4917 186.472 68.0336C186.187 68.5755 185.698 68.9821 185.114 69.164L185.024 69.194Z" fill="white"/>
<path d="M153.666 74.5631C153.093 74.4979 152.546 74.2889 152.076 73.9555C151.605 73.6222 151.227 73.1753 150.975 72.6565C150.724 72.1376 150.608 71.5636 150.637 70.9878C150.667 70.412 150.842 69.8531 151.146 69.3631C151.329 69.0944 151.565 68.8668 151.841 68.6946C152.116 68.5225 152.425 68.4096 152.746 68.3631L183.876 63.4731C184.661 63.4236 185.437 63.6688 186.051 64.1607C186.665 64.6526 187.073 65.356 187.196 66.1331C187.298 66.5604 187.313 67.004 187.239 67.4371C187.165 67.8702 187.004 68.2839 186.766 68.6531C186.581 68.922 186.343 69.1497 186.066 69.3218C185.789 69.4939 185.479 69.6067 185.156 69.6531L154.076 74.5031C153.941 74.5335 153.804 74.5536 153.666 74.5631ZM184.206 64.4531H183.986L152.876 69.3131C152.494 69.3843 152.157 69.6036 151.936 69.9231C151.773 70.1804 151.664 70.4683 151.616 70.7692C151.567 71.0701 151.581 71.3777 151.656 71.6731C151.727 72.2004 151.989 72.6833 152.393 73.0299C152.797 73.3766 153.314 73.5627 153.846 73.5531L184.926 68.7031C185.115 68.6691 185.296 68.5966 185.456 68.4899C185.616 68.3832 185.752 68.2447 185.856 68.0831C186.186 67.5327 186.284 66.8738 186.129 66.2512C185.973 65.6286 185.576 65.0933 185.026 64.7631C184.763 64.6099 184.476 64.5049 184.176 64.4531H184.206Z" fill="#263238"/>
<path d="M224.876 309.294C224.306 306.664 222.056 304.804 219.876 305.154C217.696 305.504 216.336 307.914 216.876 310.544C217.416 313.174 219.696 315.034 221.876 314.684C224.056 314.334 225.436 311.924 224.876 309.294Z" fill="white"/>
<path d="M221.356 315.223C219.096 315.223 216.926 313.293 216.356 310.653C216.184 309.927 216.161 309.173 216.288 308.437C216.415 307.702 216.69 307 217.096 306.373C217.396 305.919 217.788 305.532 218.246 305.237C218.704 304.943 219.218 304.747 219.756 304.663C222.226 304.273 224.756 306.303 225.356 309.193C225.531 309.917 225.556 310.669 225.43 311.403C225.305 312.137 225.031 312.838 224.626 313.463C224.322 313.917 223.929 314.304 223.469 314.6C223.01 314.895 222.495 315.094 221.956 315.183C221.758 315.212 221.557 315.225 221.356 315.223ZM220.356 305.613H219.876C219.473 305.68 219.087 305.83 218.743 306.051C218.399 306.273 218.104 306.563 217.876 306.903C217.549 307.42 217.33 307.996 217.23 308.599C217.13 309.202 217.153 309.819 217.296 310.413C217.806 312.783 219.816 314.473 221.766 314.163C222.171 314.099 222.558 313.952 222.903 313.73C223.247 313.507 223.541 313.216 223.766 312.873C224.098 312.361 224.32 311.786 224.42 311.184C224.52 310.581 224.495 309.965 224.346 309.373C224.188 308.393 223.71 307.493 222.986 306.813C222.263 306.133 221.335 305.711 220.346 305.613H220.356Z" fill="#263238"/>
<path d="M211.495 229.733L165.575 237.643C162.575 238.163 160.575 240.643 161.055 243.163L166.975 271.673L167.135 272.413L170.225 287.313L178.875 275.133L219.495 268.133C222.495 267.613 224.495 265.133 224.005 262.623L217.875 233.363C217.385 230.843 214.515 229.213 211.495 229.733Z" fill="white"/>
<path d="M169.964 288.543L160.564 243.263C160.44 242.651 160.442 242.021 160.571 241.41C160.7 240.8 160.953 240.222 161.314 239.713C161.803 239.03 162.424 238.452 163.141 238.012C163.857 237.572 164.653 237.28 165.484 237.153L211.414 229.243C214.684 228.683 217.824 230.483 218.414 233.243L224.484 262.503C224.607 263.112 224.604 263.74 224.477 264.349C224.35 264.957 224.1 265.534 223.744 266.043C223.252 266.727 222.63 267.307 221.912 267.748C221.194 268.189 220.396 268.483 219.564 268.613L179.154 275.563L169.964 288.543ZM212.624 230.143C212.288 230.143 211.954 230.173 211.624 230.233L165.694 238.143C164.994 238.247 164.322 238.49 163.718 238.858C163.113 239.225 162.588 239.71 162.174 240.283C161.892 240.68 161.695 241.131 161.593 241.607C161.492 242.083 161.489 242.575 161.584 243.053L170.524 286.053L178.604 274.643L219.424 267.643C220.811 267.414 222.052 266.644 222.874 265.503C223.156 265.104 223.355 264.652 223.458 264.174C223.561 263.696 223.567 263.203 223.474 262.723L217.394 233.473C217.014 231.503 214.964 230.143 212.624 230.143Z" fill="#263238"/>
<path d="M208.204 246.863C208.235 246.468 208.204 246.07 208.114 245.683V245.463C207.334 241.683 203.034 239.263 198.524 240.033C194.974 240.643 192.354 243.033 191.774 245.903C190.782 244.609 189.445 243.621 187.917 243.051C186.389 242.482 184.732 242.354 183.134 242.683C178.624 243.463 175.604 247.153 176.384 250.923C176.384 250.923 176.264 254.153 183.924 258.843C190.214 262.703 195.524 265.843 195.624 265.713C195.754 265.783 199.574 261.113 204.064 255.383C205.816 253.331 207.145 250.952 207.974 248.383C208.082 248.038 208.156 247.683 208.194 247.323C208.187 247.17 208.191 247.016 208.204 246.863Z" fill="#9668FF"/>
<path d="M195.547 266.205C195.48 266.2 195.414 266.18 195.357 266.145C194.427 265.835 191.847 264.345 183.617 259.295C176.337 254.825 175.867 251.545 175.837 251.005C175.67 250.13 175.68 249.23 175.867 248.359C176.055 247.488 176.415 246.664 176.927 245.935C177.645 244.945 178.552 244.106 179.595 243.468C180.639 242.829 181.798 242.403 183.007 242.215C184.533 241.924 186.107 242.012 187.591 242.473C189.075 242.933 190.423 243.751 191.517 244.855C192.106 243.454 193.049 242.23 194.253 241.303C195.458 240.375 196.882 239.776 198.387 239.565C203.157 238.745 207.717 241.355 208.557 245.385V245.545C208.658 245.994 208.695 246.455 208.667 246.915C208.674 247.073 208.657 247.231 208.617 247.385C208.575 247.774 208.498 248.159 208.387 248.535C207.531 251.159 206.173 253.591 204.387 255.695C198.557 263.155 196.657 265.425 195.907 266.025C195.874 266.072 195.828 266.11 195.776 266.135C195.723 266.16 195.665 266.17 195.607 266.165L195.547 266.205ZM184.787 243.005C184.254 243.001 183.721 243.048 183.197 243.145C182.118 243.303 181.083 243.677 180.152 244.244C179.221 244.811 178.413 245.559 177.777 246.445C177.338 247.068 177.029 247.774 176.87 248.52C176.71 249.266 176.702 250.036 176.847 250.785V250.905C176.847 250.905 176.937 253.955 184.147 258.385C189.927 261.925 194.407 264.555 195.487 265.105C196.307 264.225 199.537 260.265 203.627 255.035C205.335 253.028 206.635 250.708 207.457 248.205C207.553 247.878 207.62 247.543 207.657 247.205V246.795C207.683 246.46 207.66 246.123 207.587 245.795C207.577 245.742 207.577 245.688 207.587 245.635C206.847 242.045 202.807 239.785 198.587 240.525C195.347 241.075 192.797 243.275 192.247 245.995C192.234 246.059 192.208 246.12 192.171 246.174C192.134 246.228 192.087 246.274 192.032 246.309C191.977 246.345 191.915 246.369 191.851 246.38C191.787 246.391 191.721 246.389 191.657 246.375C191.594 246.364 191.535 246.341 191.481 246.306C191.428 246.272 191.382 246.227 191.347 246.175C190.587 245.16 189.595 244.342 188.453 243.791C187.311 243.239 186.054 242.969 184.787 243.005Z" fill="#263238"/>
<path d="M137.366 248.724C137.366 248.724 134.486 239.724 129.096 241.994C123.706 244.264 132.186 253.154 127.906 253.594C123.626 254.034 116.376 248.934 111.786 256.984C107.196 265.034 114.296 270.804 122.716 270.594C131.136 270.384 139.576 263.874 137.366 248.724Z" fill="white"/>
<path d="M122.266 271.093C117.266 271.093 112.876 269.093 110.936 265.803C109.826 263.953 108.996 260.873 111.356 256.743C114.836 250.623 119.826 251.743 123.826 252.583C125.128 252.941 126.475 253.116 127.826 253.103C128.356 253.043 128.476 252.843 128.516 252.783C128.876 252.213 128.336 250.783 127.816 249.293C126.816 246.623 125.506 242.963 128.866 241.533C129.464 241.262 130.113 241.121 130.771 241.121C131.428 241.121 132.077 241.262 132.676 241.533C136.026 243.073 137.736 248.343 137.816 248.533V248.613C138.866 255.773 137.616 261.693 134.216 265.733C132.787 267.394 131.018 268.728 129.029 269.646C127.039 270.564 124.876 271.043 122.686 271.053L122.266 271.093ZM119.106 252.903C116.606 252.903 114.166 253.823 112.226 257.233C110.546 260.173 110.396 262.963 111.786 265.293C113.606 268.293 117.886 270.213 122.706 270.093C124.756 270.082 126.78 269.63 128.64 268.767C130.5 267.904 132.153 266.651 133.486 265.093C136.696 261.293 137.866 255.663 136.876 248.813C136.716 248.343 135.106 243.713 132.286 242.423C131.815 242.205 131.304 242.093 130.786 242.093C130.268 242.093 129.756 242.205 129.286 242.423C126.976 243.423 127.626 245.733 128.786 248.923C129.446 250.733 130.016 252.303 129.396 253.283C129.233 253.516 129.018 253.708 128.768 253.843C128.518 253.979 128.24 254.054 127.956 254.063C126.491 254.102 125.028 253.924 123.616 253.533C122.139 253.164 120.627 252.953 119.106 252.903Z" fill="#263238"/>
<path d="M118.497 257.253C118.207 258.333 117.497 259.073 116.857 258.903C116.217 258.733 115.967 257.733 116.267 256.653C116.567 255.573 117.267 254.823 117.907 254.993C118.547 255.163 118.787 256.173 118.497 257.253Z" fill="#263238"/>
<path d="M114.485 259.003C114.195 260.083 113.485 260.823 112.845 260.663C112.205 260.503 111.955 259.483 112.245 258.403C112.535 257.323 113.245 256.583 113.895 256.753C114.545 256.923 114.775 257.893 114.485 259.003Z" fill="#263238"/>
<path d="M116.996 263.393C116.706 264.473 115.996 265.223 115.356 265.053C114.716 264.883 114.476 263.873 114.766 262.793C115.056 261.713 115.766 260.973 116.406 261.143C117.046 261.313 117.286 262.313 116.996 263.393Z" fill="#263238"/>
<path d="M117.415 269.553C117.316 269.554 117.219 269.525 117.137 269.469C117.055 269.414 116.992 269.335 116.955 269.243C116.929 269.184 116.915 269.121 116.914 269.056C116.913 268.992 116.925 268.928 116.949 268.868C116.974 268.808 117.01 268.754 117.055 268.708C117.101 268.663 117.155 268.627 117.215 268.603C118.05 268.254 118.818 267.764 119.485 267.153C119.585 267.073 119.711 267.034 119.838 267.045C119.965 267.055 120.083 267.113 120.169 267.207C120.255 267.302 120.301 267.426 120.298 267.553C120.296 267.68 120.245 267.802 120.155 267.893C119.404 268.585 118.538 269.14 117.595 269.533C117.537 269.548 117.476 269.555 117.415 269.553Z" fill="#263238"/>
<path d="M121.066 266.653C120.958 266.655 120.852 266.62 120.766 266.553C120.714 266.513 120.67 266.464 120.636 266.408C120.603 266.351 120.581 266.289 120.571 266.224C120.562 266.159 120.566 266.092 120.582 266.029C120.598 265.965 120.627 265.905 120.666 265.853C121.431 264.836 122.01 263.692 122.376 262.473C122.806 261.225 122.974 259.901 122.871 258.585C122.768 257.269 122.395 255.989 121.776 254.823C121.71 254.707 121.692 254.57 121.726 254.441C121.759 254.312 121.842 254.202 121.956 254.133C122.073 254.072 122.209 254.056 122.336 254.089C122.464 254.123 122.574 254.202 122.646 254.313C123.329 255.601 123.743 257.014 123.861 258.467C123.98 259.92 123.801 261.381 123.336 262.763C122.937 264.094 122.304 265.344 121.466 266.453C121.419 266.514 121.358 266.563 121.289 266.598C121.22 266.633 121.144 266.651 121.066 266.653Z" fill="#263238"/>
</g>
</g>
<defs>
<clipPath id="clip0_2029_308">
<rect width="360" height="373" fill="white"/>
</clipPath>
</defs>
</svg>
