<svg width="431" height="434" viewBox="0 0 431 434" fill="none" xmlns="http://www.w3.org/2000/svg">
<g clip-path="url(#clip0_2029_351)">
<path d="M419.407 420.103C419.407 423.493 325.887 426.233 210.537 426.233C95.1867 426.233 1.66675 423.483 1.66675 420.103C1.66675 416.723 95.1867 413.973 210.537 413.973C325.887 413.973 419.407 416.723 419.407 420.103Z" fill="#F5F5F5"/>
<path d="M143.477 0.892317C163.247 -3.52768 182.857 8.90231 187.277 28.6723C191.697 48.4423 179.267 68.0523 159.497 72.4723C139.727 76.8923 120.117 64.4623 115.697 44.6923L115.667 44.5623C111.327 24.8323 123.757 5.30232 143.477 0.892317Z" fill="#9668FF"/>
<path opacity="0.5" d="M143.477 0.892317C163.247 -3.52768 182.857 8.90231 187.277 28.6723C191.697 48.4423 179.267 68.0523 159.497 72.4723C139.727 76.8923 120.117 64.4623 115.697 44.6923L115.667 44.5623C111.327 24.8323 123.757 5.30232 143.477 0.892317Z" fill="white"/>
<path opacity="0.1" d="M184.347 20.5425C183.677 21.6125 183.097 20.1425 180.737 21.3425C178.427 22.3725 175.947 22.9625 173.427 23.0825L172.897 24.1025C172.407 25.1725 167.907 23.4325 167.907 21.6925C167.907 19.9525 167.907 21.6925 171.387 20.6725C174.867 19.6525 171.387 20.6725 171.697 18.1725C172.007 15.6725 170.717 16.7925 169.287 15.0525C168.517 14.0325 167.057 13.8325 166.037 14.6025C164.967 15.2325 165.097 16.4325 164.077 16.7025C163.047 16.9725 163.497 17.5925 163.047 17.9025C162.597 18.2125 161.887 17.9025 161.307 17.9025C160.727 17.9025 159.967 17.4125 159.617 17.9025C159.257 18.3925 159.347 18.5225 159.257 18.7925C158.877 18.8325 158.487 18.8325 158.097 18.7925C157.827 18.7925 157.517 18.4325 157.517 18.2125C157.487 18.0625 157.487 17.9125 157.517 17.7625C157.707 17.3225 157.957 16.9125 158.277 16.5625C158.587 16.1825 159.107 16.0425 159.567 16.2025C159.667 15.7825 159.527 15.3425 159.207 15.0425H160.637C160.997 15.0425 162.017 12.1025 162.107 11.6525C162.117 11.2725 161.937 10.9225 161.617 10.7125C161.217 10.4925 160.727 10.7125 160.237 10.7125C159.747 10.7125 158.717 9.33248 157.787 9.46248C157.547 9.53248 157.327 9.63248 157.117 9.77248L156.007 10.5725C155.817 10.6525 155.647 10.7725 155.517 10.9325C155.497 11.1725 155.497 11.4125 155.517 11.6425C155.477 11.8525 155.327 12.0225 155.117 12.0925C155.967 12.0925 154.807 12.9425 154.627 12.9825C153.737 13.2925 151.997 12.6725 150.977 12.5825C150.807 12.6525 150.617 12.6525 150.447 12.5825C150.427 12.4525 150.427 12.3125 150.447 12.1825C150.177 11.5625 149.957 10.8925 149.737 10.2625C149.517 9.64248 149.027 7.36248 150.137 6.74248C151.247 6.12248 152.497 6.74248 152.857 5.58248C152.897 5.44248 152.977 5.32248 153.077 5.22248C153.387 4.95248 153.747 5.58248 153.697 6.02248C153.567 6.73248 153.567 7.45248 153.697 8.16248C153.967 8.87248 154.897 9.32248 155.437 8.87248C155.077 8.34248 155.797 7.71248 156.417 7.71248C157.037 7.71248 157.757 8.02248 158.337 7.71248C158.847 7.39248 159.097 6.78248 158.957 6.19248C158.827 5.61248 158.567 5.06248 158.197 4.59248C157.437 4.89248 156.577 4.78248 155.927 4.28248C155.397 3.88248 154.857 3.17248 154.237 3.43248C154.507 3.14248 154.737 2.83248 154.947 2.49248C154.547 2.29248 154.127 2.11248 153.697 1.96248C153.297 1.74248 152.897 1.29248 153.117 0.852482C153.187 0.722482 153.297 0.61248 153.427 0.54248C155.777 0.61248 158.107 0.962483 160.377 1.57248C159.667 2.91248 159.487 5.36248 162.827 6.56248C167.687 8.30248 162.827 6.56248 167.287 4.15248C170.797 5.82248 174.017 8.05248 176.827 10.7525L174.867 12.1825C172.817 13.5625 175.537 14.2725 175.537 14.2725H178.347C179.867 14.2725 179.727 14.2725 179.817 13.9625C181.577 15.9625 183.107 18.1625 184.367 20.5125L184.347 20.5425Z" fill="black"/>
<path opacity="0.2" d="M129.437 22.9023C129.457 23.0823 129.457 23.2623 129.437 23.4323C129.167 24.3723 127.787 24.0523 126.857 24.3223C124.897 24.9423 125.387 28.3823 123.467 29.2723C122.527 29.6723 121.417 29.2723 120.477 29.6723C119.847 30.1223 119.277 30.6423 118.787 31.2323C117.777 32.1323 116.417 32.5223 115.087 32.3023C115.857 25.3923 118.627 18.8523 123.067 13.4923C123.417 13.4323 123.787 13.4323 124.137 13.4923C124.837 13.7423 125.337 14.3623 125.427 15.0923C125.557 15.8323 125.557 16.5823 125.427 17.3223L126.857 16.2523C127.497 16.6723 127.667 17.5323 127.247 18.1623C127.237 18.1823 127.227 18.1923 127.217 18.2123C126.767 18.8323 125.877 18.9223 125.077 19.0623C124.277 19.1923 123.387 19.6423 123.337 20.4023C123.297 21.1623 123.787 21.6023 124.187 22.0923C124.587 22.5823 124.987 23.3423 124.637 23.8723L127.757 22.0423C127.937 21.9323 128.137 21.8623 128.337 21.8223C128.917 21.8623 129.387 22.3123 129.447 22.8923L129.437 22.9023Z" fill="black"/>
<path opacity="0.2" d="M131.707 18.0523L131.437 18.9023C132.227 19.1923 133.097 19.1923 133.887 18.9023C134.147 18.7923 134.377 18.6223 134.557 18.4123C134.867 18.0023 135.057 17.5023 135.087 16.9823C135.177 16.3123 135.177 15.6423 135.087 14.9723C135.007 14.3023 134.607 13.7023 134.017 13.3723C133.397 13.0323 132.627 13.2523 132.277 13.8623C132.007 14.4423 132.277 15.1523 131.967 15.7323C131.657 16.3123 131.077 16.4423 130.897 16.9323C130.777 17.4123 131.057 17.8923 131.537 18.0223C131.587 18.0323 131.647 18.0423 131.697 18.0523H131.707Z" fill="black"/>
<path opacity="0.2" d="M147.267 2.9824C146.157 3.9224 144.367 2.6724 143.037 3.2924C141.697 3.9124 141.967 4.5824 141.207 4.7224C140.787 4.7424 140.377 4.7424 139.957 4.7224C139.507 4.7224 139.067 5.0324 139.107 5.4324C139.157 5.6224 139.267 5.7924 139.417 5.9224L140.527 6.9424C140.657 7.0824 140.777 7.2324 140.887 7.3924C141.057 7.8824 140.797 8.4124 140.307 8.5824C140.297 8.5824 140.277 8.5824 140.267 8.5924C139.787 8.7424 139.277 8.7424 138.797 8.5924C138.487 8.5624 138.187 8.4924 137.907 8.3724C137.637 8.3724 137.457 7.7924 137.637 7.5224L137.947 7.2124C138.237 6.9324 138.367 6.5324 138.307 6.1424C138.257 5.7124 137.897 5.3824 137.457 5.3824L136.877 5.6524L134.957 6.8124C134.067 7.3024 132.947 7.8424 132.057 7.3924C131.887 7.3824 131.737 7.2824 131.657 7.1224V6.5424C131.727 6.3124 131.727 6.0624 131.657 5.8324C135.257 3.4724 139.257 1.8024 143.467 0.882401C144.837 0.572401 146.217 0.342402 147.607 0.212402C147.877 1.2424 147.967 2.3924 147.247 2.9724L147.267 2.9824Z" fill="black"/>
<path opacity="0.2" d="M139.737 12.3024C139.347 12.1524 138.907 12.3524 138.757 12.7424C138.727 12.8124 138.717 12.8924 138.707 12.9724L139.157 13.6824V13.2824C139.157 13.6824 139.647 14.0824 140.007 13.7724C140.327 13.4124 140.327 12.8824 140.007 12.5224L139.737 12.3024Z" fill="black"/>
<path opacity="0.2" d="M155.907 22.8126C155.327 22.1926 154.307 22.4126 153.407 22.5026C152.517 22.5926 151.397 22.1426 151.447 21.3026C151.487 20.4526 152.387 20.2326 153.137 20.1926C153.207 18.9626 152.277 17.9126 151.047 17.8326C150.967 17.8326 150.897 17.8326 150.817 17.8326C151.127 18.5426 151.127 19.3526 150.817 20.0626C150.537 20.7426 149.757 21.0726 149.077 20.7926C149.037 20.7726 148.987 20.7526 148.947 20.7326C147.837 19.8826 149.217 17.6626 148.147 16.7626C147.567 16.4926 146.897 16.4926 146.317 16.7626C144.177 17.2526 141.857 18.0126 141.017 20.0626C141.017 20.2826 139.237 20.0626 138.697 20.0626C138.157 20.0626 137.847 21.7126 137.757 22.2926C137.627 22.6026 137.627 22.9626 137.757 23.2726C137.757 23.6326 138.337 23.9826 138.157 24.3426C137.977 24.7026 137.707 24.6126 137.537 24.8326C137.357 25.0526 138.697 27.0626 139.137 27.2826C139.587 27.5026 140.827 27.2826 141.677 27.6826C142.307 28.1426 142.607 28.9326 142.437 29.6926H141.637C142.067 30.7926 141.697 32.0326 140.747 32.7226C141.897 32.4926 143.087 32.8626 143.907 33.7026C143.907 33.7026 144.307 34.1526 144.577 34.1526C144.757 34.1226 144.927 34.0526 145.067 33.9326C145.967 33.4026 146.607 32.5326 146.847 31.5226H147.737C147.737 31.0326 147.737 30.2326 147.207 30.4126C146.677 30.5926 147.207 30.4126 146.897 30.6826C146.587 30.9526 145.737 30.6826 145.697 29.9226C145.727 29.3326 145.947 28.7726 146.317 28.3226C146.537 28.0526 146.717 27.7426 146.937 27.4326C147.347 26.7026 148.017 26.1426 148.807 25.8726C150.187 25.5626 151.307 27.0326 151.967 28.2826C152.237 28.8126 152.367 29.6626 151.967 29.7526C151.567 29.8426 151.347 29.5326 151.117 29.7526C150.897 29.9726 151.117 30.4626 150.667 30.6926C150.217 30.9226 150.177 30.6926 149.957 30.6926C149.737 30.6926 149.467 31.7126 149.957 32.2526C150.447 32.7826 150.627 31.9426 150.977 31.7226C151.337 31.5026 152.667 32.0826 153.477 31.7226C154.277 31.3626 154.147 31.0526 154.457 30.7426C154.767 30.4326 156.867 29.7226 156.997 28.5626C157.127 27.4026 156.547 27.3126 156.417 26.6426C156.287 25.9726 156.727 23.7026 155.887 22.8526L155.907 22.8126Z" fill="black"/>
<path opacity="0.1" d="M129.617 31.5024C129.987 31.5924 130.367 31.5924 130.727 31.5024C131.257 31.5024 132.997 31.9924 132.287 32.9724C131.577 33.9524 130.457 31.8624 129.527 32.3924C130.057 32.3924 130.017 33.4224 129.747 33.9524C129.477 34.4824 129.167 35.1524 129.527 35.6424C130.237 35.3324 130.957 36.0024 131.757 36.1724C132.557 36.3524 133.767 35.5924 134.787 35.7724V34.6124C134.787 34.2124 135.547 34.3024 135.897 34.0324C136.257 33.7624 136.697 33.4524 137.057 33.7224C137.417 33.9924 137.057 32.8324 137.057 32.4324C136.707 32.1224 136.397 31.7824 136.117 31.4124C135.897 31.0124 136.117 30.3824 136.387 30.2524C136.657 30.1224 137.237 30.2524 137.587 30.2524C137.877 30.0724 138.047 29.7524 138.037 29.4024C138.017 29.0624 138.017 28.7224 138.037 28.3724H137.187C137.277 28.7424 137.057 29.1124 136.697 29.2224C136.347 29.3124 135.977 29.3124 135.627 29.2224C135.767 28.1824 135.627 27.1224 135.227 26.1524H134.117C134.117 26.6024 133.627 26.8624 133.177 26.8624C132.757 26.7724 132.377 26.5724 132.067 26.2824C131.847 26.0624 131.577 25.8324 131.267 25.9224C130.957 26.0124 130.687 26.5024 130.737 26.9424C130.737 28.5424 130.067 28.1424 129.397 29.0324C128.807 29.7824 128.907 30.8524 129.617 31.4824V31.5024Z" fill="black"/>
<path opacity="0.1" d="M130.377 46.9223C129.487 47.0723 128.567 46.9523 127.747 46.5623C127.387 46.3423 126.947 46.0723 126.547 46.2923C126.187 46.5223 126.017 46.9523 126.097 47.3623C126.097 47.7223 126.497 48.0723 126.627 48.4723C127.137 49.5123 127.137 50.7323 126.627 51.7723C124.877 52.1123 123.057 51.6923 121.637 50.6123C121.487 50.4623 121.357 50.2923 121.237 50.1223C120.927 49.4123 121.907 48.6023 121.727 47.8923C121.547 47.1823 120.167 46.6423 120.617 45.9723C121.067 45.3023 121.467 45.7023 121.867 45.5223C122.327 45.2923 122.517 44.7323 122.287 44.2723L122.267 44.2323C121.197 43.7323 119.927 44.0923 119.277 45.0823C118.517 45.0823 118.297 43.9723 118.257 43.2523C118.217 42.5423 117.727 41.4723 116.967 41.7323C116.697 41.8523 116.517 42.1123 116.477 42.4023C115.897 44.0923 117.277 45.7023 118.527 46.8623C118.857 47.1123 119.087 47.4823 119.147 47.8823C119.147 48.3323 118.877 48.8223 118.437 48.7323L119.997 50.4723C120.127 50.6423 120.197 50.8423 120.217 51.0523C120.247 51.1823 120.247 51.3223 120.217 51.4523C119.787 52.0223 119.387 52.6223 119.017 53.2323C117.537 50.4223 116.457 47.4223 115.807 44.3223C115.197 41.4923 114.917 38.6123 114.957 35.7223C115.207 35.3423 115.537 35.0423 115.937 34.8323C116.427 34.8323 117.007 34.8323 117.457 34.5623C118.567 34.2523 119.057 32.8223 120.177 32.3823C121.077 32.0723 122.067 32.3623 122.677 33.0923C123.247 33.8723 123.447 34.8723 123.207 35.8123C122.927 36.5223 122.837 37.2823 122.937 38.0423C123.387 39.3323 124.987 39.4723 126.327 39.4223C126.187 40.2423 126.597 41.0623 127.347 41.4323C128.047 41.6623 128.807 41.2723 129.027 40.5723C129.057 40.4923 129.067 40.4023 129.087 40.3223C129.937 40.3223 131.007 40.8523 131.007 41.7523C130.847 42.3023 130.497 42.7723 130.027 43.0923C129.667 43.5423 129.357 44.2023 129.717 44.6523C130.077 45.1023 131.277 44.6523 131.587 45.4123C131.897 46.1723 130.967 46.8423 130.387 46.9323L130.377 46.9223Z" fill="black"/>
<path opacity="0.2" d="M159.427 72.5022H158.267C158.027 71.7922 158.107 71.0122 158.487 70.3622C158.977 69.6522 159.867 69.1622 160.267 68.3522C160.447 67.8122 160.687 67.2822 160.977 66.7922C161.737 65.5922 163.517 65.6822 164.947 65.9022C164.587 65.2322 164.847 64.3922 165.517 64.0322C166.227 63.7522 166.987 63.6322 167.747 63.6722C168.487 63.7522 169.227 63.5222 169.797 63.0522C169.797 62.8322 170.157 62.5222 170.417 62.4322H171.037L175.047 62.9222C175.047 61.9422 173.977 61.4022 173.037 61.3222C172.097 61.2322 170.987 61.3222 170.537 60.3422C169.477 62.0622 167.387 62.8422 165.457 62.2622C165.347 62.3122 165.217 62.3122 165.097 62.2622C164.697 61.7322 166.077 61.0622 165.627 60.6122L163.707 59.8522C163.437 59.8522 163.127 59.6322 162.997 59.3622C162.867 59.0922 162.997 58.3822 163.397 57.8922C163.797 57.4022 163.177 55.9322 162.907 54.9522C162.637 53.9722 162.907 52.5422 164.017 52.5422H164.687C164.867 52.5422 165.137 51.8322 165.217 51.4322C165.487 50.2322 166.687 49.5122 167.717 48.8022C168.017 48.5622 168.307 48.2922 168.567 48.0022C169.527 47.0922 170.097 45.8522 170.167 44.5222C169.297 45.0522 168.547 45.7722 167.987 46.6122C167.277 47.4122 166.207 48.0822 165.267 47.5922C165.437 48.8822 164.677 50.1222 163.437 50.5322C162.167 50.8222 160.877 50.1422 160.407 48.9322C160.167 48.5822 160.167 48.1222 160.407 47.7722C160.767 47.6622 161.157 47.6622 161.517 47.7722C162.707 47.8522 163.837 47.2722 164.457 46.2522C163.077 46.2722 161.767 45.6022 160.977 44.4722C160.277 43.2422 160.647 41.6822 161.827 40.9022H160.937C161.207 39.7722 162.117 38.9222 163.257 38.7222H164.907C165.457 38.6222 165.877 38.1722 165.937 37.6122C165.307 37.2122 164.957 36.4822 165.047 35.7422C165.197 35.1222 165.627 34.6122 166.207 34.3622C165.877 34.3522 165.597 34.1122 165.537 33.7822C165.537 33.3222 165.847 32.9222 166.297 32.8022C166.767 32.6922 167.257 32.6922 167.727 32.8022C168.937 32.8822 170.067 33.4322 170.887 34.3222C171.297 35.1022 171.467 35.9822 171.377 36.8622V40.3422C171.227 41.4822 171.607 42.6322 172.407 43.4622C172.947 43.8022 173.597 43.9622 174.237 43.9122C176.107 43.9222 177.957 43.5422 179.677 42.8022C180.587 42.4822 181.367 41.8522 181.857 41.0222C182.257 40.1722 182.407 39.2322 182.307 38.3022C182.307 36.4322 182.667 33.4422 180.747 32.2822C180.187 31.9222 179.477 31.9222 178.917 32.2822C178.557 32.5522 178.297 32.9522 177.897 33.0822C177.497 33.2122 176.607 32.8622 176.067 33.0822C175.537 33.3022 175.577 33.6622 175.307 34.0222C175.127 34.4122 174.687 34.6022 174.277 34.4722C173.877 34.2522 174.277 33.5822 174.277 33.0922C174.277 32.6022 173.517 31.1722 173.697 30.1922C173.877 29.2122 174.807 28.6722 175.437 27.9622C176.027 27.3022 176.527 26.5722 176.907 25.7822C177.487 25.5122 178.157 25.7822 178.687 26.3122C179.187 26.7422 179.887 26.8822 180.517 26.6722C181.007 27.2922 180.247 28.4522 180.967 28.9422H181.277C181.367 29.1822 181.367 29.4522 181.277 29.7022C181.277 30.5922 181.727 31.6622 182.617 31.9322H182.977C182.977 31.9322 182.977 31.9322 182.977 31.6622C183.177 30.4922 182.907 29.2922 182.217 28.3222C182.097 28.1122 181.987 27.8822 181.907 27.6522C181.847 27.4322 181.847 27.2022 181.907 26.9822C181.967 26.7222 182.057 26.4622 182.177 26.2222C182.147 26.0722 182.147 25.9222 182.177 25.7722C182.487 25.5022 182.937 25.7722 183.287 25.7722C183.637 25.7022 183.967 25.5722 184.267 25.3722C184.717 25.1722 185.237 25.1722 185.697 25.3722C186.007 26.4422 186.317 27.5522 186.587 28.6722C191.077 48.2722 178.947 67.8322 159.407 72.5222L159.427 72.5022Z" fill="black"/>
<path opacity="0.2" d="M153.997 60.9622C153.837 61.6922 153.837 62.4522 153.997 63.1922C153.147 63.7122 152.117 63.8722 151.147 63.6422C150.437 65.5522 151.277 67.6922 153.107 68.5922C152.507 69.0822 151.707 69.2322 150.967 68.9922C150.277 68.6922 149.647 68.2622 149.097 67.7422L144.637 64.3122C143.927 64.5822 144.367 65.6922 145.087 66.0522C145.797 66.4122 146.647 66.4522 147.007 67.1222C147.367 67.7922 147.007 69.1322 147.407 69.8422C147.767 70.1022 148.157 70.3222 148.567 70.5122C149.237 71.0222 149.537 71.8822 149.327 72.6922V73.2722C143.717 73.0022 138.247 71.4022 133.377 68.5922C133.397 68.3122 133.397 68.0322 133.377 67.7422C133.377 66.4022 134.627 65.5122 135.647 64.7122C136.797 64.0322 137.527 62.8322 137.607 61.5022C135.867 61.9522 135.197 64.1322 133.727 65.0722C133.337 65.3222 132.917 65.5122 132.477 65.6522C131.737 66.0322 131.037 66.4722 130.387 66.9922C126.777 64.5422 123.647 61.4422 121.157 57.8522C121.877 56.8922 122.227 55.7022 122.137 54.5122C122.537 54.0222 123.157 54.9122 123.737 54.9622C124.317 55.0122 124.757 54.1122 125.427 54.0722C126.097 54.0322 126.367 55.9922 127.387 56.3422C128.407 56.7022 128.727 55.7622 129.437 55.6722C130.147 55.5822 130.997 56.2522 131.847 55.9822C134.297 55.2222 132.467 52.5522 132.827 51.0322C133.047 50.3222 133.937 50.1822 134.517 49.8322C135.377 49.2522 135.887 48.2822 135.897 47.2522C135.867 46.2522 135.707 45.2622 135.407 44.3122C135.027 43.3922 135.107 42.3522 135.627 41.5022C136.567 40.4822 138.387 41.1422 139.687 40.4822C140.977 39.8122 140.977 38.5622 141.917 37.8522C142.767 37.2622 143.777 36.9622 144.817 37.0022C145.087 36.9622 145.357 36.9622 145.617 37.0022C146.107 37.2722 146.017 38.0222 145.927 38.5222C145.607 40.0522 145.147 41.5422 144.547 42.9822C145.707 43.5122 147.307 44.0022 148.157 42.9822C148.307 42.7022 148.507 42.4422 148.737 42.2222C149.217 41.9722 149.777 41.9722 150.257 42.2222C150.657 43.1122 151.107 43.9622 151.547 44.7622C149.257 44.6222 147.137 45.9922 146.337 48.1522C146.287 48.4722 146.167 48.7722 145.977 49.0422C145.667 49.4022 145.207 49.6022 144.727 49.5722C143.257 49.3722 141.837 48.9122 140.537 48.1922C139.107 47.7422 137.107 48.1922 136.747 49.4422C137.907 49.0422 138.887 50.2422 139.997 50.6922C140.647 50.9022 141.317 51.0222 142.007 51.0522C143.667 51.2022 145.297 51.6222 146.817 52.3022C147.957 51.8422 148.737 50.7722 148.827 49.5422C149.917 51.0722 151.667 52.0022 153.547 52.0422C153.107 53.4922 153.107 55.0422 153.547 56.5022C154.077 57.5722 155.147 58.5522 155.107 59.7522C154.537 59.9422 154.117 60.4122 153.997 61.0022V60.9622Z" fill="black"/>
<path d="M163.497 404.342C160.287 400.312 154.797 398.222 149.707 399.102C149.817 393.262 147.317 387.422 143.027 383.462C138.737 379.502 132.717 377.482 126.907 378.052C126.707 368.692 117.537 360.602 108.247 361.372V276.042H58.3569V361.372C49.0669 360.602 39.8969 368.692 39.6969 378.052C33.8869 377.482 27.8669 379.502 23.5769 383.462C19.2869 387.422 16.7969 393.262 16.8969 399.102C11.8169 398.222 6.32685 400.302 3.10685 404.342C-0.103146 408.372 -0.913147 414.192 1.08685 418.952H165.527C167.527 414.192 166.717 408.382 163.507 404.342H163.497Z" fill="#9668FF"/>
<path opacity="0.8" d="M163.497 404.342C160.287 400.312 154.797 398.222 149.707 399.102C149.817 393.262 147.317 387.422 143.027 383.462C138.737 379.502 132.717 377.482 126.907 378.052C126.707 368.692 117.537 360.602 108.247 361.372V276.042H58.3569V361.372C49.0669 360.602 39.8969 368.692 39.6969 378.052C33.8869 377.482 27.8669 379.502 23.5769 383.462C19.2869 387.422 16.7969 393.262 16.8969 399.102C11.8169 398.222 6.32685 400.302 3.10685 404.342C-0.103146 408.372 -0.913147 414.192 1.08685 418.952H165.527C167.527 414.192 166.717 408.382 163.507 404.342H163.497Z" fill="white"/>
<path d="M38.0268 141.643C38.0268 141.643 13.7668 153.873 6.46679 184.503C1.14679 206.843 2.75679 249.003 12.3468 252.393C21.9368 255.783 23.0068 229.673 23.0868 220.393C23.1668 211.113 31.8668 199.783 39.6168 199.103C39.6168 199.103 41.1368 150.113 38.0268 141.643Z" fill="#9668FF"/>
<path opacity="0.2" d="M41.6568 147.722C35.9168 149.912 31.2068 154.102 27.3868 158.802C23.3168 163.962 19.9668 169.662 17.4368 175.722C14.6268 182.202 12.5768 188.992 11.3368 195.942C10.1768 203.272 9.60677 210.672 9.63677 218.092C9.50677 227.162 9.28677 236.612 12.8268 245.162C12.9668 245.502 13.5268 245.352 13.3868 245.012C10.3268 237.562 10.1368 229.422 10.1968 221.482C10.2568 213.992 10.3768 206.462 11.4368 199.032C13.3368 185.832 18.1468 172.482 25.9768 161.622C30.0368 155.992 35.2468 150.792 41.8368 148.282C42.1868 148.142 42.0368 147.592 41.6868 147.722H41.6668H41.6568Z" fill="black"/>
<path d="M121.127 141.643C121.127 141.643 145.387 153.873 152.687 184.503C158.007 206.843 156.397 249.003 146.807 252.393C137.217 255.773 136.147 229.673 136.067 220.393C135.987 211.113 127.287 199.783 119.547 199.103C119.547 199.103 118.027 150.113 121.137 141.643H121.127Z" fill="#9668FF"/>
<path opacity="0.2" d="M117.347 148.272C123.117 150.472 127.827 154.752 131.627 159.532C135.597 164.662 138.857 170.292 141.327 176.292C144.097 182.742 146.107 189.492 147.317 196.402C148.587 203.682 148.837 211.072 148.917 218.452C149.037 227.362 149.227 236.612 145.777 245.012C145.637 245.352 146.197 245.502 146.337 245.162C149.437 237.612 149.597 229.352 149.527 221.302C149.467 213.712 149.327 206.092 148.227 198.572C147.167 191.412 145.247 184.402 142.517 177.692C140.147 171.632 137.007 165.902 133.177 160.642C129.127 155.162 123.967 150.202 117.507 147.732C117.157 147.592 117.007 148.152 117.357 148.292L117.347 148.272Z" fill="black"/>
<path d="M112.787 234.742H45.7668C45.7668 234.742 33.4968 187.582 38.3068 134.702C39.6068 120.692 43.1568 106.982 48.8368 94.1021C48.9168 93.9021 49.0068 93.7021 49.0968 93.5121C50.4968 90.3221 51.9768 87.3121 53.4968 84.4521C59.4468 73.1821 66.8768 62.7521 75.5768 53.4321C77.5068 51.2321 80.8568 51.0121 83.0668 52.9421C83.2368 53.0921 83.4068 53.2621 83.5568 53.4321C92.5368 63.0421 100.157 73.8421 106.207 85.5221C107.727 88.4521 109.197 91.5421 110.597 94.7821L110.847 95.3521C116.197 107.872 119.577 121.142 120.837 134.702C125.637 187.612 112.807 234.742 112.807 234.742H112.787Z" fill="#9668FF"/>
<g opacity="0.5">
<path d="M112.787 234.742H45.7668C45.7668 234.742 33.4968 187.582 38.3068 134.702C39.6068 120.692 43.1568 106.982 48.8368 94.1021C48.9168 93.9021 49.0068 93.7021 49.0968 93.5121C50.4968 90.3221 51.9768 87.3121 53.4968 84.4521C59.4468 73.1821 66.8768 62.7521 75.5768 53.4321C77.5068 51.2321 80.8568 51.0121 83.0668 52.9421C83.2368 53.0921 83.4068 53.2621 83.5568 53.4321C92.5368 63.0421 100.157 73.8421 106.207 85.5221C107.727 88.4521 109.197 91.5421 110.597 94.7821L110.847 95.3521C116.197 107.872 119.577 121.142 120.837 134.702C125.637 187.612 112.807 234.742 112.807 234.742H112.787Z" fill="white"/>
</g>
<path d="M105.377 228.022H55.1167V228.792H105.377V228.022Z" fill="#9668FF"/>
<path d="M114.317 252.692H46.5569C41.7269 245.742 46.8369 234.742 46.8369 234.742H112.937C112.937 234.742 118.017 243.722 114.307 252.692H114.317Z" fill="#2E353A"/>
<path d="M97.1969 258.992H63.3169C60.9269 255.512 63.4569 250.012 63.4569 250.012H96.5069C96.5069 250.012 99.0469 254.492 97.1969 258.992Z" fill="#2E353A"/>
<path d="M97.2167 258.992H63.4367C56.5967 262.622 39.5867 271.292 41.9667 285.972H119.567C121.947 271.292 104.067 262.612 97.2267 258.992H97.2167Z" fill="#9668FF"/>
<path d="M121.897 282.873H39.0469V289.263H121.897V282.873Z" fill="#2E353A"/>
<path d="M106.187 85.5324C100.077 89.9024 90.7268 94.8024 79.5568 94.8024C69.8668 94.7424 60.5568 91.0424 53.4768 84.4324C54.1168 83.2224 54.7568 82.0524 55.4068 80.9024L55.7168 80.3724C61.2468 70.6424 67.9068 61.5924 75.5568 53.4224C77.4868 51.2224 80.8368 51.0024 83.0468 52.9324C83.2168 53.0824 83.3868 53.2524 83.5368 53.4224C91.2068 61.6124 97.8768 70.6924 103.417 80.4524L103.727 81.0024C104.567 82.4724 105.377 83.9924 106.187 85.5424V85.5324Z" fill="#9668FF"/>
<path opacity="0.2" d="M103.737 81.0126C101.777 82.4226 99.6967 83.6526 97.5167 84.7026C89.8567 88.4026 81.2367 89.6426 72.8367 88.2426C66.5467 87.1626 60.5767 84.6526 55.4067 80.9226L55.7167 80.3926C57.8167 81.9226 60.0667 83.2426 62.4167 84.3426C70.0667 87.9526 78.6567 89.0626 86.9767 87.5326C92.9067 86.4126 98.5267 84.0026 103.427 80.4726L103.737 81.0126Z" fill="black"/>
<path d="M111.677 143.142C108.607 112.122 106.207 99.7022 105.927 98.3422C107.087 97.7122 108.167 97.0722 109.117 96.4522C109.697 96.0922 110.257 95.7222 110.797 95.3622L110.547 94.7922C109.977 95.1722 109.397 95.5922 108.787 95.9422C102.407 99.9722 92.1468 104.782 79.7968 104.782C70.0668 104.782 60.5568 101.802 52.5768 96.2322C51.2568 95.3222 50.0868 94.4022 49.0468 93.5322C48.9568 93.7222 48.8668 93.9222 48.7868 94.1222C49.7968 94.9722 50.9368 95.8422 52.2068 96.7322C53.0068 97.2922 53.9068 97.8722 54.8568 98.4522C54.5168 100.172 52.1468 112.692 49.1268 143.132C46.7368 166.912 48.9168 190.572 51.1368 206.232C52.4568 215.842 54.2668 225.382 56.5768 234.802C56.6068 234.932 56.7268 235.022 56.8568 235.022H56.9268C57.0768 234.982 57.1668 234.822 57.1368 234.672C54.8368 225.262 53.0268 215.752 51.7068 206.152C49.4868 190.532 47.3468 166.922 49.6968 143.202C52.6168 113.722 54.9268 101.082 55.3768 98.7422C62.7768 103.132 71.2168 105.452 79.8268 105.442C88.7668 105.332 97.5368 103.012 105.357 98.6922C105.757 100.722 108.097 113.292 111.067 143.252C113.417 166.972 111.277 190.572 109.057 206.202C107.747 215.792 105.937 225.312 103.627 234.722C103.587 234.872 103.687 235.032 103.837 235.072H103.907C104.037 235.072 104.157 234.982 104.187 234.852C106.497 225.432 108.307 215.892 109.627 206.282C111.877 190.592 114.027 166.932 111.667 143.162L111.677 143.142Z" fill="#9668FF"/>
<path d="M79.8367 176.073C67.5767 176.073 57.6267 166.143 57.6267 153.873C57.6267 141.613 67.5567 131.663 79.8267 131.663C92.0867 131.663 102.037 141.593 102.037 153.863V153.883C102.027 166.133 92.0967 176.073 79.8367 176.083V176.073ZM79.8367 132.253C67.8967 132.253 58.2167 141.933 58.2167 153.873C58.2167 165.813 67.8967 175.493 79.8367 175.493C91.7767 175.493 101.457 165.813 101.457 153.873C101.447 141.933 91.7667 132.263 79.8367 132.253Z" fill="#9668FF"/>
<path d="M96.6469 153.873C96.6469 163.163 89.1169 170.683 79.8369 170.683H79.4469C76.5969 170.623 73.8169 169.843 71.3669 168.403C69.4669 167.293 67.8069 165.823 66.4669 164.083C64.2269 161.153 63.0169 157.573 63.0269 153.883C63.0269 153.233 63.0669 152.573 63.1369 151.933C64.0569 144.203 70.1469 138.113 77.8769 137.193C78.5269 137.123 79.1869 137.083 79.8369 137.083C88.9669 137.093 96.4169 144.373 96.6369 153.493C96.6369 153.623 96.6369 153.753 96.6369 153.873H96.6469Z" fill="#9668FF"/>
<path opacity="0.1" d="M90.0269 140.532L66.4669 164.092C64.2269 161.162 63.0169 157.582 63.0269 153.892C63.0269 153.242 63.0669 152.582 63.1369 151.942L77.8769 137.202C78.5269 137.132 79.1869 137.092 79.8369 137.092C83.5169 137.092 87.0969 138.292 90.0269 140.532Z" fill="white"/>
<path opacity="0.1" d="M96.6367 153.482L79.4367 170.682C76.5867 170.622 73.8067 169.842 71.3567 168.402L94.3467 145.422C95.7867 147.872 96.5767 150.652 96.6367 153.492V153.482Z" fill="white"/>
<path d="M131.087 326.513H34.4968V419.153H131.087V326.513Z" fill="#9668FF"/>
<path opacity="0.4" d="M131.087 326.513H34.4968V419.153H131.087V326.513Z" fill="white"/>
<path opacity="0.4" d="M131.067 326.513H65.2368V419.153H131.067V326.513Z" fill="white"/>
<path d="M127.777 331.253H68.5269V342.723H127.777V331.253Z" fill="#9668FF"/>
<path d="M127.777 345.593H68.5269V357.063H127.777V345.593Z" fill="#9668FF"/>
<path d="M127.777 359.933H68.5269V371.403H127.777V359.933Z" fill="#9668FF"/>
<path d="M127.777 374.272H68.5269V385.742H127.777V374.272Z" fill="#9668FF"/>
<path d="M127.777 388.613H68.5269V400.083H127.777V388.613Z" fill="#9668FF"/>
<path d="M127.777 402.963H68.5269V414.433H127.777V402.963Z" fill="#9668FF"/>
<path d="M61.7968 331.253H37.9468V342.723H61.7968V331.253Z" fill="#9668FF"/>
<path d="M61.7968 345.593H37.9468V357.063H61.7968V345.593Z" fill="#9668FF"/>
<path d="M61.7968 359.933H37.9468V371.403H61.7968V359.933Z" fill="#9668FF"/>
<path d="M61.7968 374.272H37.9468V385.742H61.7968V374.272Z" fill="#9668FF"/>
<path d="M61.7968 388.613H37.9468V400.083H61.7968V388.613Z" fill="#9668FF"/>
<path d="M61.7968 402.963H37.9468V414.433H61.7968V402.963Z" fill="#9668FF"/>
<path opacity="0.3" d="M124.877 332.743H123.497V341.233H124.877V332.743Z" fill="white"/>
<path opacity="0.3" d="M122.217 332.743H120.837V341.233H122.217V332.743Z" fill="white"/>
<path opacity="0.3" d="M119.557 332.743H118.177V341.233H119.557V332.743Z" fill="white"/>
<path opacity="0.3" d="M116.897 332.743H115.517V341.233H116.897V332.743Z" fill="white"/>
<path opacity="0.3" d="M114.227 332.743H112.847V341.233H114.227V332.743Z" fill="white"/>
<path opacity="0.3" d="M124.877 347.083H123.497V355.563H124.877V347.083Z" fill="white"/>
<path opacity="0.3" d="M122.217 347.083H120.837V355.563H122.217V347.083Z" fill="white"/>
<path opacity="0.3" d="M119.557 347.083H118.177V355.563H119.557V347.083Z" fill="white"/>
<path opacity="0.3" d="M116.897 347.083H115.517V355.563H116.897V347.083Z" fill="white"/>
<path opacity="0.3" d="M114.227 347.083H112.847V355.563H114.227V347.083Z" fill="white"/>
<path opacity="0.3" d="M124.877 361.433H123.497V369.913H124.877V361.433Z" fill="white"/>
<path opacity="0.3" d="M122.217 361.433H120.837V369.913H122.217V361.433Z" fill="white"/>
<path opacity="0.3" d="M119.557 361.433H118.177V369.913H119.557V361.433Z" fill="white"/>
<path opacity="0.3" d="M116.897 361.433H115.517V369.913H116.897V361.433Z" fill="white"/>
<path opacity="0.3" d="M114.227 361.433H112.847V369.913H114.227V361.433Z" fill="white"/>
<path opacity="0.3" d="M124.877 375.772H123.497V384.262H124.877V375.772Z" fill="white"/>
<path opacity="0.3" d="M122.217 375.772H120.837V384.262H122.217V375.772Z" fill="white"/>
<path opacity="0.3" d="M119.557 375.772H118.177V384.262H119.557V375.772Z" fill="white"/>
<path opacity="0.3" d="M116.897 375.772H115.517V384.262H116.897V375.772Z" fill="white"/>
<path opacity="0.3" d="M114.227 375.772H112.847V384.262H114.227V375.772Z" fill="white"/>
<path opacity="0.3" d="M124.877 390.113H123.497V398.593H124.877V390.113Z" fill="white"/>
<path opacity="0.3" d="M122.217 390.113H120.837V398.593H122.217V390.113Z" fill="white"/>
<path opacity="0.3" d="M119.557 390.113H118.177V398.593H119.557V390.113Z" fill="white"/>
<path opacity="0.3" d="M116.897 390.113H115.517V398.593H116.897V390.113Z" fill="white"/>
<path opacity="0.3" d="M114.227 390.113H112.847V398.593H114.227V390.113Z" fill="white"/>
<path opacity="0.3" d="M124.877 404.453H123.497V412.943H124.877V404.453Z" fill="white"/>
<path opacity="0.3" d="M122.217 404.453H120.837V412.943H122.217V404.453Z" fill="white"/>
<path opacity="0.3" d="M119.557 404.453H118.177V412.943H119.557V404.453Z" fill="white"/>
<path opacity="0.3" d="M116.897 404.453H115.517V412.943H116.897V404.453Z" fill="white"/>
<path opacity="0.3" d="M114.227 404.453H112.847V412.943H114.227V404.453Z" fill="white"/>
<path opacity="0.2" d="M75.4169 336.983C75.4169 337.763 74.7869 338.393 74.0069 338.393C73.2269 338.393 72.5969 337.763 72.5969 336.983C72.5969 336.203 73.2269 335.573 74.0069 335.573C74.7869 335.573 75.4169 336.203 75.4169 336.983Z" fill="white"/>
<path opacity="0.2" d="M84.2868 336.983C84.2868 337.763 83.6568 338.393 82.8768 338.393C82.0968 338.393 81.4668 337.763 81.4668 336.983C81.4668 336.203 82.0968 335.573 82.8768 335.573C83.6568 335.573 84.2868 336.203 84.2868 336.983Z" fill="white"/>
<path opacity="0.4" d="M93.1569 336.983C93.1569 337.763 92.5269 338.393 91.7469 338.393C90.9669 338.393 90.3369 337.763 90.3369 336.983C90.3369 336.203 90.9669 335.573 91.7469 335.573C92.5269 335.573 93.1569 336.203 93.1569 336.983Z" fill="white"/>
<path opacity="0.4" d="M75.4169 351.323C75.4169 352.103 74.7869 352.733 74.0069 352.733C73.2269 352.733 72.5969 352.103 72.5969 351.323C72.5969 350.543 73.2269 349.913 74.0069 349.913C74.7869 349.913 75.4169 350.543 75.4169 351.323Z" fill="white"/>
<path opacity="0.2" d="M84.2868 351.323C84.2868 352.103 83.6568 352.733 82.8768 352.733C82.0968 352.733 81.4668 352.103 81.4668 351.323C81.4668 350.543 82.0968 349.913 82.8768 349.913C83.6568 349.913 84.2868 350.543 84.2868 351.323Z" fill="white"/>
<path opacity="0.4" d="M93.1569 351.323C93.1569 352.103 92.5269 352.733 91.7469 352.733C90.9669 352.733 90.3369 352.103 90.3369 351.323C90.3369 350.543 90.9669 349.913 91.7469 349.913C92.5269 349.913 93.1569 350.543 93.1569 351.323Z" fill="white"/>
<path opacity="0.2" d="M75.4169 365.673C75.4169 366.453 74.7869 367.083 74.0069 367.083C73.2269 367.083 72.5969 366.453 72.5969 365.673C72.5969 364.893 73.2269 364.263 74.0069 364.263C74.7869 364.263 75.4169 364.893 75.4169 365.673Z" fill="white"/>
<path opacity="0.4" d="M84.2868 365.673C84.2868 366.453 83.6568 367.083 82.8768 367.083C82.0968 367.083 81.4668 366.453 81.4668 365.673C81.4668 364.893 82.0968 364.263 82.8768 364.263C83.6568 364.263 84.2868 364.893 84.2868 365.673Z" fill="white"/>
<path opacity="0.2" d="M93.1569 365.673C93.1569 366.453 92.5269 367.083 91.7469 367.083C90.9669 367.083 90.3369 366.453 90.3369 365.673C90.3369 364.893 90.9669 364.263 91.7469 364.263C92.5269 364.263 93.1569 364.893 93.1569 365.673Z" fill="white"/>
<path opacity="0.4" d="M75.4169 380.013C75.4169 380.793 74.7869 381.423 74.0069 381.423C73.2269 381.423 72.5969 380.793 72.5969 380.013C72.5969 379.233 73.2269 378.603 74.0069 378.603C74.7869 378.603 75.4169 379.233 75.4169 380.013Z" fill="white"/>
<path opacity="0.2" d="M84.2868 380.013C84.2868 380.793 83.6568 381.423 82.8768 381.423C82.0968 381.423 81.4668 380.793 81.4668 380.013C81.4668 379.233 82.0968 378.603 82.8768 378.603C83.6568 378.603 84.2868 379.233 84.2868 380.013Z" fill="white"/>
<path opacity="0.2" d="M93.1569 380.013C93.1569 380.793 92.5269 381.423 91.7469 381.423C90.9669 381.423 90.3369 380.793 90.3369 380.013C90.3369 379.233 90.9669 378.603 91.7469 378.603C92.5269 378.603 93.1569 379.233 93.1569 380.013Z" fill="white"/>
<path opacity="0.2" d="M75.4169 394.353C75.4169 395.133 74.7869 395.763 74.0069 395.763C73.2269 395.763 72.5969 395.133 72.5969 394.353C72.5969 393.573 73.2269 392.943 74.0069 392.943C74.7869 392.943 75.4169 393.573 75.4169 394.353Z" fill="white"/>
<path opacity="0.4" d="M84.2868 394.353C84.2868 395.133 83.6568 395.763 82.8768 395.763C82.0968 395.763 81.4668 395.133 81.4668 394.353C81.4668 393.573 82.0968 392.943 82.8768 392.943C83.6568 392.943 84.2868 393.573 84.2868 394.353Z" fill="white"/>
<path opacity="0.4" d="M93.1569 394.353C93.1569 395.133 92.5269 395.763 91.7469 395.763C90.9669 395.763 90.3369 395.133 90.3369 394.353C90.3369 393.573 90.9669 392.943 91.7469 392.943C92.5269 392.943 93.1569 393.573 93.1569 394.353Z" fill="white"/>
<path opacity="0.4" d="M75.4169 408.702C75.4169 409.482 74.7869 410.112 74.0069 410.112C73.2269 410.112 72.5969 409.482 72.5969 408.702C72.5969 407.922 73.2269 407.292 74.0069 407.292C74.7869 407.292 75.4169 407.922 75.4169 408.702Z" fill="white"/>
<path opacity="0.2" d="M84.2868 408.702C84.2868 409.482 83.6568 410.112 82.8768 410.112C82.0968 410.112 81.4668 409.482 81.4668 408.702C81.4668 407.922 82.0968 407.292 82.8768 407.292C83.6568 407.292 84.2868 407.922 84.2868 408.702Z" fill="white"/>
<path opacity="0.4" d="M93.1569 408.702C93.1569 409.482 92.5269 410.112 91.7469 410.112C90.9669 410.112 90.3369 409.482 90.3369 408.702C90.3369 407.922 90.9669 407.292 91.7469 407.292C92.5269 407.292 93.1569 407.922 93.1569 408.702Z" fill="white"/>
<path opacity="0.3" d="M65.2368 326.513H34.4968V419.153H65.2368V326.513Z" fill="black"/>
<path d="M364.477 349.502H315.837V419.022H364.477V349.502Z" fill="#9668FF"/>
<path opacity="0.2" d="M364.467 349.502H348.637V419.152H364.467V349.502Z" fill="black"/>
<path d="M295.247 369.612H251.637V419.152H295.247V369.612Z" fill="#9668FF"/>
<path opacity="0.2" d="M295.257 369.612H281.057V419.152H295.257V369.612Z" fill="black"/>
<path d="M430.537 309.172H382.997V419.152H430.537V309.172Z" fill="#9668FF"/>
<path opacity="0.2" d="M430.537 309.172H415.057V419.152H430.537V309.172Z" fill="black"/>
<path d="M393.067 184.292H356.467C353.157 184.292 350.477 186.972 350.477 190.282V210.042C350.477 213.352 353.157 216.032 356.467 216.032H365.217L365.287 222.012L371.877 216.032H393.057C396.367 216.032 399.047 213.352 399.047 210.042V190.282C399.047 186.972 396.367 184.292 393.057 184.292H393.067Z" fill="#9668FF"/>
<path d="M370.267 197.033L364.497 199.733L370.267 202.423V204.593L362.557 200.853V198.593L370.267 194.853V197.023V197.033Z" fill="white"/>
<path d="M387.827 198.603V200.863L380.117 204.603V202.433L385.887 199.743L380.117 197.043V194.873L387.827 198.613V198.603Z" fill="white"/>
<path d="M376.537 193.353L372.777 206.343H374.657L378.417 193.353H376.537Z" fill="white"/>
<path d="M384.627 182.942H365.827C365.687 182.942 365.577 182.832 365.577 182.692C365.577 182.552 365.687 182.442 365.827 182.442H384.627C384.767 182.442 384.877 182.552 384.877 182.692C384.877 182.832 384.767 182.942 384.627 182.942Z" fill="#9668FF"/>
<path d="M389.807 182.952H386.837C386.697 182.952 386.587 182.842 386.587 182.702C386.587 182.562 386.697 182.452 386.837 182.452H389.807C389.947 182.452 390.057 182.562 390.057 182.702C390.057 182.842 389.947 182.952 389.807 182.952Z" fill="#9668FF"/>
<path d="M394.937 47.2925H293.737C291.009 47.2925 288.797 49.5042 288.797 52.2325V135.752C288.797 138.481 291.009 140.692 293.737 140.692H394.937C397.665 140.692 399.877 138.481 399.877 135.752V52.2325C399.877 49.5042 397.665 47.2925 394.937 47.2925Z" fill="#9668FF"/>
<path opacity="0.5" d="M394.937 47.2925H293.737C291.009 47.2925 288.797 49.5042 288.797 52.2325V135.752C288.797 138.481 291.009 140.692 293.737 140.692H394.937C397.665 140.692 399.877 138.481 399.877 135.752V52.2325C399.877 49.5042 397.665 47.2925 394.937 47.2925Z" fill="white"/>
<path d="M293.427 47.2925H395.337C397.847 47.2925 399.887 49.3325 399.887 51.8425V63.5825H288.807V51.9225C288.807 49.3725 290.877 47.2925 293.437 47.2925H293.427Z" fill="#9668FF"/>
<path opacity="0.5" d="M393.607 56.6225C393.607 58.5825 392.017 60.1825 390.047 60.1825C388.077 60.1825 386.487 58.5925 386.487 56.6225C386.487 54.6525 388.077 53.0625 390.047 53.0625C392.017 53.0625 393.607 54.6525 393.607 56.6225Z" fill="white"/>
<path opacity="0.5" d="M383.497 56.6225C383.497 58.5825 381.907 60.1825 379.937 60.1825C377.967 60.1825 376.377 58.5925 376.377 56.6225C376.377 54.6525 377.967 53.0625 379.937 53.0625C381.907 53.0625 383.497 54.6525 383.497 56.6225Z" fill="white"/>
<path opacity="0.5" d="M373.397 56.6225C373.397 58.5825 371.807 60.1825 369.837 60.1825C367.867 60.1825 366.277 58.5925 366.277 56.6225C366.277 54.6525 367.867 53.0625 369.837 53.0625C371.807 53.0625 373.397 54.6525 373.397 56.6225Z" fill="white"/>
<path opacity="0.6" d="M370.767 77.1924H313.797V80.5124H370.767V77.1924Z" fill="white"/>
<path opacity="0.6" d="M355.457 84.3726H314.687V87.6926H355.457V84.3726Z" fill="#263238"/>
<path d="M386.167 77.1924H374.957V80.5124H386.167V77.1924Z" fill="#9668FF"/>
<path d="M309.847 77.1924H298.637V80.5124H309.847V77.1924Z" fill="#9668FF"/>
<path d="M370.767 92.3325H313.797V95.6525H370.767V92.3325Z" fill="#9668FF"/>
<path opacity="0.6" d="M386.167 92.3325H374.957V95.6525H386.167V92.3325Z" fill="white"/>
<path d="M309.847 92.3325H298.637V95.6525H309.847V92.3325Z" fill="#9668FF"/>
<path d="M370.767 123.902H313.797V127.222H370.767V123.902Z" fill="#9668FF"/>
<path opacity="0.6" d="M386.167 123.902H374.957V127.222H386.167V123.902Z" fill="white"/>
<path d="M370.767 100.322H313.797V103.642H370.767V100.322Z" fill="#9668FF"/>
<path opacity="0.6" d="M386.167 100.322H374.957V103.642H386.167V100.322Z" fill="#263238"/>
<path opacity="0.6" d="M309.847 100.322H298.637V103.642H309.847V100.322Z" fill="#263238"/>
<path d="M386.997 84.5024H359.917V87.8224H386.997V84.5024Z" fill="#9668FF"/>
<path opacity="0.6" d="M354.567 107.283H313.797V110.603H354.567V107.283Z" fill="white"/>
<path d="M386.107 107.413H359.027V110.733H386.107V107.413Z" fill="#9668FF"/>
<path opacity="0.6" d="M334.177 114.493H313.797V117.813H334.177V114.493Z" fill="#263238"/>
<path d="M131.127 112.332V259.482C131.127 262.022 133.187 264.072 135.717 264.072H337.737V112.342C337.737 110.982 336.637 109.882 335.277 109.882H133.577C132.217 109.882 131.127 110.982 131.127 112.332Z" fill="#9668FF"/>
<path opacity="0.9" d="M333.267 109.882H135.597C133.128 109.882 131.127 111.884 131.127 114.352V259.612C131.127 262.081 133.128 264.082 135.597 264.082H333.267C335.735 264.082 337.737 262.081 337.737 259.612V114.352C337.737 111.884 335.735 109.882 333.267 109.882Z" fill="white"/>
<path d="M133.677 109.882H335.657C336.807 109.882 337.737 110.812 337.737 111.962V122.262H131.127V112.442C131.127 111.032 132.267 109.892 133.677 109.892V109.882Z" fill="#9668FF"/>
<path opacity="0.5" d="M334.597 115.552C334.947 117.402 333.357 119.002 331.507 118.652C330.477 118.462 329.637 117.612 329.447 116.592C329.097 114.742 330.687 113.142 332.537 113.492C333.567 113.692 334.407 114.532 334.597 115.552Z" fill="white"/>
<path opacity="0.5" d="M327.137 115.552C327.487 117.402 325.897 119.002 324.047 118.652C323.017 118.462 322.177 117.612 321.987 116.592C321.637 114.742 323.227 113.142 325.077 113.492C326.107 113.692 326.947 114.532 327.137 115.552Z" fill="white"/>
<path opacity="0.5" d="M319.667 115.552C320.017 117.402 318.427 119.002 316.577 118.652C315.547 118.462 314.707 117.612 314.517 116.592C314.167 114.742 315.757 113.142 317.607 113.492C318.637 113.692 319.477 114.532 319.667 115.562V115.552Z" fill="white"/>
<path d="M322.547 198.342C320.087 191.872 317.037 185.592 313.437 179.592C311.457 176.282 308.977 172.812 305.047 171.672C300.197 170.262 294.957 173.012 291.717 176.612C288.467 180.202 286.487 184.622 283.367 188.312C280.247 192.002 275.297 195.032 270.327 194.052C265.297 193.062 261.237 188.202 256.187 189.122C251.207 190.032 248.727 196.202 243.667 196.602C239.957 196.892 236.997 193.902 234.957 191.052C231.317 185.982 228.407 180.402 223.897 175.952C219.387 171.502 212.667 168.262 206.217 169.672C201.807 170.632 198.247 173.582 195.307 176.752C190.537 181.892 186.857 187.872 184.527 194.272C183.547 196.982 182.357 200.182 179.357 200.962C176.597 201.672 173.807 199.832 172.117 197.712C170.427 195.592 169.277 193.062 167.097 191.362C162.557 187.822 155.167 189.412 150.987 193.312C146.807 197.212 145.037 202.702 143.407 207.952V230.882H322.627L322.567 198.352L322.547 198.342Z" fill="#9668FF"/>
<g opacity="0.3">
<path d="M322.547 198.342C320.087 191.872 317.037 185.592 313.437 179.592C311.457 176.282 308.977 172.812 305.047 171.672C300.197 170.262 294.957 173.012 291.717 176.612C288.467 180.202 286.487 184.622 283.367 188.312C280.247 192.002 275.297 195.032 270.327 194.052C265.297 193.062 261.237 188.202 256.187 189.122C251.207 190.032 248.727 196.202 243.667 196.602C239.957 196.892 236.997 193.902 234.957 191.052C231.317 185.982 228.407 180.402 223.897 175.952C219.387 171.502 212.667 168.262 206.217 169.672C201.807 170.632 198.247 173.582 195.307 176.752C190.537 181.892 186.857 187.872 184.527 194.272C183.547 196.982 182.357 200.182 179.357 200.962C176.597 201.672 173.807 199.832 172.117 197.712C170.427 195.592 169.277 193.062 167.097 191.362C162.557 187.822 155.167 189.412 150.987 193.312C146.807 197.212 145.037 202.702 143.407 207.952V230.882H322.627L322.567 198.352L322.547 198.342Z" fill="white"/>
</g>
<path d="M322.907 198.242C321.187 193.742 319.207 189.342 316.957 185.082C314.997 181.372 312.977 177.292 309.977 174.292C307.317 171.632 303.777 170.402 300.057 171.162C296.107 171.962 292.777 174.582 290.317 177.682C287.507 181.232 285.557 185.432 282.457 188.762C279.357 192.092 274.847 194.642 270.247 193.652C266.467 192.842 263.527 190.022 259.837 188.982C256.537 188.052 253.727 189.282 251.227 191.412C248.567 193.682 245.837 196.952 241.917 196.112C237.537 195.182 234.897 190.422 232.647 186.982C227.997 179.892 223.087 172.442 214.557 169.782C210.717 168.582 206.637 168.692 202.957 170.372C199.097 172.132 195.987 175.242 193.297 178.442C190.447 181.822 188.007 185.562 186.097 189.552C185.207 191.412 184.497 193.322 183.757 195.232C183.077 197.012 182.207 199.012 180.517 200.052C178.287 201.412 175.687 200.502 173.837 198.942C172.177 197.542 171.137 195.612 169.887 193.872C167.787 190.942 164.977 189.142 161.317 189.022C157.927 188.912 154.447 190.112 151.757 192.162C148.587 194.592 146.547 198.182 145.087 201.832C144.297 203.802 143.667 205.822 143.037 207.842C142.897 208.302 143.617 208.502 143.757 208.042C146.157 200.312 149.537 191.662 158.477 189.992C162.747 189.192 166.547 190.582 169.127 194.092C171.267 197.002 173.107 200.612 177.007 201.382C180.457 202.052 182.747 199.492 184.007 196.612C184.767 194.862 185.347 193.042 186.117 191.292C187.017 189.262 188.047 187.302 189.207 185.402C191.537 181.572 194.367 177.942 197.667 174.902C200.967 171.862 204.987 169.642 209.577 169.712C219.007 169.852 225.477 177.462 230.247 184.692C233.527 189.672 238.617 199.822 246.187 196.292C249.137 194.922 251.027 192.062 253.797 190.432C257.507 188.252 261.117 190.102 264.497 191.982C267.877 193.862 270.937 195.162 274.687 194.342C278.437 193.522 281.787 190.912 284.177 187.902C286.977 184.372 288.937 180.232 291.977 176.882C294.767 173.812 298.887 171.362 303.167 171.712C307.447 172.062 310.557 175.642 312.737 179.172C315.187 183.132 317.347 187.282 319.287 191.512C320.327 193.792 321.297 196.112 322.187 198.452C322.357 198.902 323.087 198.702 322.907 198.252V198.242Z" fill="#9668FF"/>
<path opacity="0.3" d="M142.967 147.892V230.872C142.967 231.072 143.137 231.252 143.347 231.252H315.347C317.647 231.252 320.027 231.442 322.317 231.252C322.417 231.252 322.517 231.252 322.617 231.252C323.097 231.252 323.097 230.502 322.617 230.502H146.027C145.297 230.502 144.357 230.342 143.637 230.502C143.547 230.522 143.437 230.502 143.337 230.502L143.717 230.882V147.902C143.717 147.422 142.967 147.422 142.967 147.902V147.892Z" fill="black"/>
<path opacity="0.3" d="M176.387 146.162V230.872C176.387 231.352 177.137 231.352 177.137 230.872V146.162C177.137 145.682 176.387 145.682 176.387 146.162Z" fill="black"/>
<path opacity="0.3" d="M205.527 146.162V230.872C205.527 231.352 206.277 231.352 206.277 230.872V146.162C206.277 145.682 205.527 145.682 205.527 146.162Z" fill="black"/>
<path opacity="0.3" d="M234.667 146.162V230.872C234.667 231.352 235.417 231.352 235.417 230.872V146.162C235.417 145.682 234.667 145.682 234.667 146.162Z" fill="black"/>
<path opacity="0.3" d="M263.807 146.162V230.872C263.807 231.352 264.557 231.352 264.557 230.872V146.162C264.557 145.682 263.807 145.682 263.807 146.162Z" fill="black"/>
<path opacity="0.3" d="M292.937 146.162V230.872C292.937 231.352 293.687 231.352 293.687 230.872V146.162C293.687 145.682 292.937 145.682 292.937 146.162Z" fill="black"/>
<path opacity="0.3" d="M322.237 146.162V230.872C322.237 231.352 322.987 231.352 322.987 230.872V146.162C322.987 145.682 322.237 145.682 322.237 146.162Z" fill="black"/>
<path opacity="0.3" d="M142.917 212.622H322.617C323.097 212.622 323.097 211.872 322.617 211.872H142.917C142.437 211.872 142.437 212.622 142.917 212.622Z" fill="black"/>
<path opacity="0.3" d="M142.917 191.632H322.617C323.097 191.632 323.097 190.882 322.617 190.882H142.917C142.437 190.882 142.437 191.632 142.917 191.632Z" fill="black"/>
<path opacity="0.3" d="M142.917 170.642H322.617C323.097 170.642 323.097 169.892 322.617 169.892H142.917C142.437 169.892 142.437 170.642 142.917 170.642Z" fill="black"/>
<path opacity="0.3" d="M142.917 149.642H322.617C323.097 149.642 323.097 148.892 322.617 148.892H142.917C142.437 148.892 142.437 149.642 142.917 149.642Z" fill="black"/>
<path d="M154.297 246.422C155.86 246.422 157.127 245.155 157.127 243.592C157.127 242.029 155.86 240.762 154.297 240.762C152.734 240.762 151.467 242.029 151.467 243.592C151.467 245.155 152.734 246.422 154.297 246.422Z" fill="#9668FF"/>
<path d="M160.837 242.502H212.427C212.907 242.502 212.907 241.752 212.427 241.752H160.837C160.357 241.752 160.357 242.502 160.837 242.502Z" fill="#263238"/>
<path d="M160.837 245.942H189.247C189.727 245.942 189.727 245.192 189.247 245.192H160.837C160.357 245.192 160.357 245.942 160.837 245.942Z" fill="#263238"/>
<path d="M235.177 246.422C236.74 246.422 238.007 245.155 238.007 243.592C238.007 242.029 236.74 240.762 235.177 240.762C233.614 240.762 232.347 242.029 232.347 243.592C232.347 245.155 233.614 246.422 235.177 246.422Z" fill="#9668FF"/>
<path d="M241.717 242.502H293.307C293.787 242.502 293.787 241.752 293.307 241.752H241.717C241.237 241.752 241.237 242.502 241.717 242.502Z" fill="#263238"/>
<path d="M241.717 245.942H270.127C270.607 245.942 270.607 245.192 270.127 245.192H241.717C241.237 245.192 241.237 245.942 241.717 245.942Z" fill="#263238"/>
<path d="M331.817 395.683L335.047 414.323L327.387 417.413L321.017 397.853L331.817 395.683Z" fill="#E9B376"/>
<path d="M332.667 412.793C332.147 414.193 330.907 414.873 329.577 414.613L328.687 413.353C327.917 412.273 326.847 411.883 325.677 412.673C325.097 413.063 324.607 414.173 324.667 415.543C324.767 418.013 323.787 419.593 323.787 419.593C323.787 419.593 319.597 425.223 317.897 426.863C316.887 427.843 315.557 429.213 315.357 430.933C315.297 431.423 315.297 431.973 315.357 432.583C315.417 433.083 315.897 434.033 315.907 434.053L330.107 426.833C330.107 426.833 331.127 425.253 331.757 424.963C332.877 424.443 333.847 425.153 333.847 425.153L339.027 422.563C339.027 422.563 338.717 421.713 338.277 420.483C338.077 419.923 337.847 419.293 337.607 418.623C336.567 415.753 335.367 412.083 335.067 411.273C334.537 409.853 332.667 412.773 332.667 412.773V412.793Z" fill="#263238"/>
<path d="M321.456 422.513C321.486 422.423 321.586 422.363 321.686 422.373C322.136 422.413 322.566 422.573 322.946 422.843C323.146 422.993 322.936 423.333 322.726 423.183C322.386 422.933 322.006 422.803 321.616 422.763C321.486 422.753 321.406 422.633 321.456 422.513Z" fill="#9668FF"/>
<path d="M322.257 421.363C322.287 421.273 322.387 421.213 322.487 421.223C322.937 421.263 323.367 421.423 323.747 421.693C323.947 421.843 323.737 422.183 323.527 422.033C323.187 421.783 322.807 421.653 322.417 421.613C322.287 421.603 322.207 421.483 322.257 421.363Z" fill="#9668FF"/>
<path d="M323.106 420.243C323.136 420.153 323.236 420.093 323.336 420.103C323.786 420.143 324.216 420.303 324.596 420.573C324.796 420.723 324.586 421.063 324.376 420.913C324.036 420.663 323.656 420.533 323.266 420.493C323.136 420.483 323.056 420.363 323.106 420.243Z" fill="#9668FF"/>
<path opacity="0.2" d="M315.336 431.833C315.336 432.083 315.356 432.353 315.386 432.633C315.446 433.133 315.926 434.083 315.936 434.103L330.136 426.883C330.136 426.883 331.156 425.303 331.786 425.013C332.906 424.493 333.876 425.203 333.876 425.203L339.056 422.613C339.056 422.613 338.746 421.763 338.306 420.533L338.196 420.223L315.336 431.833Z" fill="white"/>
<path d="M323.526 420.502L323.296 420.452C322.916 420.372 321.626 420.072 321.166 419.722C320.686 419.362 320.376 418.862 320.316 418.342C320.276 418.052 320.346 417.672 320.646 417.502C320.936 417.332 321.266 417.442 321.506 417.572C321.966 417.812 322.386 418.222 322.726 418.772C323.026 419.252 323.236 419.782 323.446 420.292L323.536 420.512L323.526 420.502ZM320.966 417.662C320.896 417.662 320.826 417.672 320.766 417.712C320.576 417.822 320.536 418.102 320.566 418.312C320.616 418.762 320.896 419.202 321.316 419.522C321.616 419.752 322.406 419.992 323.126 420.152C322.956 419.722 322.766 419.282 322.516 418.892C322.196 418.382 321.816 418.002 321.396 417.782C321.296 417.732 321.136 417.662 320.976 417.662H320.966Z" fill="#9668FF"/>
<path d="M323.277 420.553L323.257 420.313C323.217 419.763 323.177 419.193 323.247 418.633C323.317 417.993 323.507 417.443 323.827 417.023C324.047 416.723 324.297 416.573 324.577 416.593C324.917 416.623 325.137 416.933 325.237 417.213C325.407 417.703 325.347 418.293 325.077 418.823C324.807 419.343 323.787 420.163 323.477 420.413L323.287 420.563L323.277 420.553ZM324.527 416.843C324.307 416.843 324.127 417.053 324.027 417.173C323.737 417.563 323.567 418.063 323.497 418.663C323.447 419.123 323.467 419.603 323.497 420.063C324.067 419.603 324.677 419.043 324.847 418.703C325.087 418.233 325.147 417.713 324.997 417.283C324.927 417.083 324.767 416.853 324.557 416.833H324.527V416.843Z" fill="#9668FF"/>
<path d="M307.197 391.693L310.427 410.333L302.767 413.423L296.407 393.873L307.197 391.693Z" fill="#E9B376"/>
<path d="M308.057 408.803C307.537 410.203 306.297 410.883 304.967 410.623L304.077 409.363C303.307 408.283 302.237 407.893 301.067 408.683C300.487 409.073 299.997 410.183 300.047 411.553C300.147 414.023 299.167 415.603 299.167 415.603C299.167 415.603 294.977 421.233 293.277 422.873C292.267 423.853 290.937 425.223 290.737 426.943C290.677 427.433 290.677 427.983 290.737 428.593C290.797 429.093 291.277 430.043 291.287 430.063L305.487 422.843C305.487 422.843 306.507 421.263 307.137 420.973C308.257 420.453 309.227 421.163 309.227 421.163L314.407 418.573C314.407 418.573 314.097 417.723 313.657 416.493C313.457 415.933 313.227 415.303 312.987 414.633C311.947 411.763 310.747 408.093 310.447 407.283C309.917 405.863 308.047 408.783 308.047 408.783L308.057 408.803Z" fill="#263238"/>
<path d="M296.847 418.523C296.877 418.433 296.977 418.373 297.077 418.383C297.527 418.423 297.957 418.583 298.337 418.853C298.537 419.003 298.327 419.343 298.117 419.193C297.777 418.943 297.397 418.813 297.007 418.773C296.877 418.763 296.797 418.643 296.847 418.523Z" fill="#9668FF"/>
<path d="M297.637 417.373C297.667 417.283 297.767 417.223 297.867 417.233C298.317 417.273 298.747 417.433 299.127 417.703C299.327 417.853 299.117 418.193 298.907 418.043C298.567 417.793 298.187 417.663 297.797 417.623C297.667 417.613 297.587 417.493 297.637 417.373Z" fill="#9668FF"/>
<path d="M298.487 416.253C298.517 416.163 298.617 416.103 298.717 416.113C299.167 416.153 299.597 416.313 299.977 416.583C300.177 416.733 299.967 417.073 299.757 416.923C299.417 416.673 299.037 416.543 298.647 416.503C298.517 416.493 298.437 416.373 298.487 416.253Z" fill="#9668FF"/>
<path opacity="0.2" d="M290.717 427.853C290.717 428.103 290.737 428.373 290.767 428.653C290.827 429.153 291.307 430.103 291.317 430.123L305.517 422.903C305.517 422.903 306.537 421.323 307.167 421.033C308.287 420.513 309.257 421.223 309.257 421.223L314.437 418.633C314.437 418.633 314.127 417.783 313.687 416.553L313.577 416.243L290.717 427.853Z" fill="white"/>
<path d="M298.907 416.523L298.677 416.473C298.297 416.393 297.007 416.093 296.547 415.743C296.067 415.383 295.757 414.883 295.697 414.363C295.657 414.073 295.727 413.693 296.027 413.523C296.317 413.353 296.647 413.463 296.887 413.593C297.347 413.833 297.767 414.243 298.107 414.793C298.407 415.273 298.617 415.803 298.827 416.313L298.917 416.533L298.907 416.523ZM296.347 413.683C296.277 413.683 296.207 413.693 296.147 413.733C295.957 413.843 295.917 414.123 295.947 414.333C295.997 414.783 296.277 415.223 296.697 415.543C296.997 415.773 297.787 416.013 298.507 416.173C298.337 415.743 298.147 415.303 297.897 414.913C297.577 414.403 297.197 414.023 296.777 413.803C296.677 413.753 296.517 413.683 296.357 413.683H296.347Z" fill="#9668FF"/>
<path d="M298.657 416.563L298.637 416.323C298.597 415.773 298.557 415.203 298.627 414.643C298.697 413.993 298.887 413.453 299.207 413.033C299.427 412.733 299.707 412.583 299.947 412.603C300.287 412.633 300.507 412.943 300.607 413.223C300.777 413.713 300.717 414.303 300.447 414.833C300.177 415.353 299.157 416.173 298.847 416.423L298.657 416.573V416.563ZM299.907 412.853C299.687 412.853 299.507 413.063 299.407 413.183C299.117 413.573 298.947 414.073 298.877 414.673C298.827 415.133 298.847 415.613 298.877 416.073C299.447 415.613 300.057 415.053 300.227 414.713C300.467 414.243 300.527 413.723 300.377 413.293C300.307 413.093 300.157 412.863 299.937 412.843H299.907V412.853Z" fill="#9668FF"/>
<path d="M368.967 311.743C368.967 311.743 350.497 329.803 340.897 338.773C331.297 347.743 301.087 346.413 301.087 346.413L312.487 404.593L296.827 406.483C296.827 406.483 282.057 363.313 276.327 340.223C275.497 336.873 277.047 331.823 278.557 329.693C284.887 320.783 331.867 319.273 331.867 319.273L332.897 313.003L368.957 311.733L368.967 311.743Z" fill="#263238"/>
<path opacity="0.2" d="M303.377 358.133C303.377 358.133 295.107 343.563 293.337 337.733C291.577 331.903 292.117 329.723 296.457 327.963C300.797 326.203 331.537 322.513 331.537 322.513L332.027 319.973L338.367 326.893C338.367 326.893 302.017 329.323 302.427 335.293C302.837 341.263 303.377 358.133 303.377 358.133Z" fill="black"/>
<path d="M368.967 311.743C368.967 311.743 372.767 334.183 365.017 339.923C357.617 345.413 326.347 348.683 326.347 348.683L335.947 407.183L320.617 409.873C320.617 409.873 305.707 365.273 299.967 342.193C299.137 338.843 299.847 334.533 301.367 332.403C307.697 323.493 354.257 320.783 354.257 320.783L368.967 311.743Z" fill="#263238"/>
<path opacity="0.2" d="M326.347 348.693C326.347 348.693 323.897 345.133 322.047 343.673C322.047 343.673 327.347 345.433 328.357 348.573L326.347 348.693Z" fill="black"/>
<path d="M295.347 312.263L298.707 317.263C298.707 317.263 319.837 310.123 322.327 307.723C324.817 305.333 327.917 283.803 327.917 283.803V268.543L328.167 257.493C328.167 257.493 319.407 259.623 318.707 266.663C318.497 268.743 314.747 299.733 314.747 299.733L295.337 312.273L295.347 312.263Z" fill="#E9B376"/>
<path d="M302.257 324.773H333.047C333.047 325.963 331.727 326.903 330.117 326.903H279.967C278.367 326.893 277.087 325.943 277.087 324.773H302.257Z" fill="#263238"/>
<path d="M279.507 326.783H307.637C308.127 326.783 308.517 326.463 308.507 326.073C308.507 326.003 308.487 325.923 308.467 325.853L295.957 297.163C295.637 296.343 294.697 295.783 293.627 295.783H265.487C265.007 295.783 264.627 296.093 264.627 296.473C264.627 296.553 264.647 296.633 264.677 296.703L277.187 325.393C277.507 326.213 278.447 326.763 279.517 326.773L279.507 326.783Z" fill="#263238"/>
<path d="M265.477 295.783H293.617C294.687 295.783 295.627 296.343 295.947 297.163L307.987 324.763H333.047C333.047 325.953 331.727 326.893 330.117 326.893H279.967C279.457 326.893 278.987 326.783 278.577 326.613C277.927 326.393 277.397 325.953 277.177 325.393L264.667 296.703C264.637 296.623 264.617 296.553 264.617 296.463C264.617 296.083 265.007 295.773 265.477 295.773V295.783Z" fill="#9668FF"/>
<path d="M282.377 311.053C282.987 312.433 284.217 313.373 285.137 313.183C286.057 312.993 286.297 311.733 285.707 310.353C285.117 308.973 283.867 308.053 282.957 308.243C282.037 308.433 281.767 309.643 282.377 311.053Z" fill="white"/>
<g opacity="0.3">
<path d="M295.947 297.163L307.987 324.763H306.687L293.627 295.773C294.697 295.773 295.637 296.333 295.957 297.153L295.947 297.163Z" fill="black"/>
</g>
<path opacity="0.5" d="M265.477 295.783H293.617C294.687 295.783 295.627 296.343 295.947 297.163L307.987 324.763H333.047C333.047 325.953 331.727 326.893 330.117 326.893H279.967C279.457 326.893 278.987 326.783 278.577 326.613C277.927 326.393 277.397 325.953 277.177 325.393L264.667 296.703C264.637 296.623 264.617 296.553 264.617 296.463C264.617 296.083 265.007 295.773 265.477 295.773V295.783Z" fill="white"/>
<path d="M329.567 319.373C329.567 319.373 324.677 313.493 326.247 312.353L326.817 257.903L328.177 257.493L339.237 254.963L350.667 252.503L356.667 253.753L367.227 265.403C367.227 265.403 368.717 293.813 368.797 295.103C368.897 296.683 369.657 317.273 369.657 317.273C351.567 321.243 329.277 320.793 329.567 319.393V319.373Z" fill="#9668FF"/>
<path d="M335.477 255.903L340.087 262.803L348.557 252.363C348.557 252.363 346.297 250.613 344.397 248.983C342.887 247.693 338.797 242.523 338.797 242.523L337.677 243.503L330.557 249.643C330.557 249.643 335.637 252.543 335.517 253.623C335.717 254.563 335.937 255.523 335.407 255.893" fill="#E9B376"/>
<path opacity="0.2" d="M335.517 253.643C335.717 254.693 335.827 254.913 335.477 255.913C340.807 254.793 338.257 243.553 338.257 243.553H337.677L330.557 249.693C330.557 249.693 335.677 252.613 335.517 253.643Z" fill="black"/>
<path d="M316.807 232.553C316.077 235.593 317.017 241.663 321.027 239.383C325.037 237.113 318.057 227.333 316.807 232.553Z" fill="#263238"/>
<path d="M338.437 235.093C339.427 242.703 340.137 246.973 337.067 251.523C332.457 258.373 322.727 256.773 319.477 249.593C316.557 243.133 315.427 231.773 322.237 227.433C328.947 223.153 337.447 227.483 338.437 235.093Z" fill="#E9B376"/>
<path d="M337.987 224.863C336.157 220.923 330.357 219.663 327.867 222.343C327.497 222.743 330.987 223.233 330.587 223.173L331.997 229.233C332.427 229.053 333.397 229.403 334.117 230.703C334.117 230.703 334.547 238.873 338.457 241.583C345.867 236.263 343.907 225.533 337.987 224.863Z" fill="#263238"/>
<path d="M342.617 240.793C342.387 242.843 341.227 244.593 339.877 245.623C337.847 247.173 335.867 245.583 335.627 243.173C335.407 241.003 336.197 237.583 338.627 236.983C341.017 236.393 342.877 238.453 342.617 240.793Z" fill="#E9B376"/>
<path d="M328.097 239.333C328.247 240.103 327.957 240.803 327.447 240.893C326.947 240.983 326.417 240.433 326.267 239.663C326.117 238.893 326.407 238.193 326.907 238.103C327.407 238.013 327.937 238.563 328.087 239.333H328.097Z" fill="#263238"/>
<path d="M320.577 240.943C320.727 241.713 320.437 242.413 319.937 242.503C319.437 242.593 318.907 242.043 318.757 241.273C318.607 240.503 318.897 239.803 319.397 239.713C319.897 239.623 320.427 240.173 320.577 240.943Z" fill="#263238"/>
<path d="M322.947 240.042C322.947 240.042 321.247 244.332 320.767 246.042C322.027 246.802 323.787 246.003 323.787 246.003L322.947 240.042Z" fill="#D58745"/>
<path d="M328.977 234.893C328.877 234.963 328.727 234.983 328.607 234.923C327.117 234.233 325.957 234.923 325.947 234.923C325.777 235.033 325.547 234.973 325.437 234.803C325.327 234.633 325.387 234.403 325.557 234.303C325.617 234.263 327.067 233.403 328.917 234.263C329.097 234.353 329.177 234.563 329.097 234.753C329.067 234.813 329.027 234.863 328.977 234.893Z" fill="#263238"/>
<path d="M317.157 239.253C317.087 239.253 317.017 239.213 316.957 239.173C316.797 239.043 316.777 238.813 316.907 238.653C318.197 237.093 319.867 237.283 319.947 237.283C320.147 237.303 320.297 237.493 320.267 237.693C320.247 237.893 320.067 238.033 319.867 238.013C319.797 238.003 318.507 237.873 317.477 239.123C317.397 239.223 317.277 239.263 317.157 239.253Z" fill="#263238"/>
<path d="M337.707 225.373C337.647 225.373 337.597 225.353 337.547 225.313C337.437 225.223 337.427 225.063 337.517 224.963C338.467 223.823 339.677 222.943 340.767 222.603C340.897 222.563 341.037 222.633 341.077 222.773C341.117 222.903 341.047 223.043 340.907 223.083C339.927 223.383 338.777 224.223 337.897 225.283C337.847 225.343 337.777 225.373 337.707 225.373Z" fill="#263238"/>
<path d="M337.817 225.253C337.817 225.253 337.767 225.253 337.737 225.243C337.607 225.203 337.537 225.063 337.577 224.933C338.017 223.573 337.937 222.043 337.347 220.733C337.287 220.603 337.347 220.463 337.477 220.403C337.607 220.343 337.747 220.403 337.807 220.533C338.447 221.953 338.537 223.613 338.057 225.093C338.027 225.203 337.927 225.263 337.817 225.263V225.253Z" fill="#263238"/>
<path opacity="0.2" d="M337.497 242.203C337.367 242.203 337.257 242.103 337.247 241.973C337.197 241.263 337.327 240.553 337.627 239.913C337.837 239.483 338.217 238.893 338.847 238.603C339.477 238.313 340.227 238.423 340.667 238.863C340.767 238.963 340.767 239.123 340.667 239.213C340.567 239.313 340.407 239.313 340.317 239.213C340.027 238.923 339.497 238.853 339.057 239.053C338.557 239.283 338.247 239.763 338.077 240.123C337.807 240.683 337.697 241.303 337.747 241.923C337.757 242.063 337.657 242.183 337.517 242.193H337.497V242.203Z" fill="black"/>
<path d="M325.677 247.803C327.427 247.353 328.857 246.093 329.507 244.403C329.547 244.303 329.487 244.193 329.387 244.163H329.377C329.287 244.123 329.177 244.173 329.147 244.273C328.527 245.843 327.207 247.003 325.587 247.433C325.497 247.473 325.447 247.573 325.487 247.663C325.527 247.763 325.627 247.803 325.717 247.773L325.667 247.813L325.677 247.803Z" fill="#263238"/>
<path d="M333.507 256.273C333.657 256.053 335.687 254.603 335.687 254.603L339.747 257.803L345.577 249.723L350.667 252.493L339.897 266.033L333.507 256.263V256.273Z" fill="#9668FF"/>
<path opacity="0.1" d="M339.927 320.223C339.827 320.223 339.727 320.153 339.687 320.053C337.317 313.143 337.627 305.363 337.927 297.843C338.037 295.133 338.147 292.343 338.117 289.673C338.037 280.923 338.457 271.213 339.447 259.123C339.457 258.983 339.577 258.873 339.717 258.893C339.857 258.903 339.957 259.023 339.947 259.163C338.957 271.233 338.537 280.933 338.617 289.663C338.637 292.333 338.527 295.143 338.427 297.853C338.127 305.333 337.827 313.063 340.157 319.883C340.197 320.013 340.137 320.153 339.997 320.203C339.967 320.203 339.947 320.213 339.917 320.213L339.927 320.223Z" fill="black"/>
<path opacity="0.2" d="M356.227 291.403L351.107 291.893L352.857 270.103L354.127 288.723L368.487 289.323L356.227 291.403Z" fill="black"/>
<path opacity="0.2" d="M333.507 256.273C333.617 256.443 335.977 261.123 336.977 263.103C337.147 263.433 337.627 263.403 337.747 263.063L339.557 258.173L337.327 261.973L333.507 256.283V256.273Z" fill="black"/>
<path opacity="0.2" d="M339.927 257.883C340.077 258.033 344.077 262.323 344.077 262.323L349.947 252.493L344.927 263.693C344.697 264.213 343.977 264.263 343.677 263.783L339.927 257.873V257.883Z" fill="black"/>
<path d="M356.267 279.763C356.267 279.763 356.237 295.483 356.197 295.643C356.167 295.813 328.797 307.243 328.797 307.243C328.797 307.653 332.867 312.403 332.867 312.403C332.867 312.403 362.717 308.483 366.087 303.393C368.967 299.053 369.417 279.553 369.417 279.553L356.267 279.753V279.763Z" fill="#E9B376"/>
<path d="M356.667 253.743C367.567 254.663 370.247 262.783 370.047 275.143C369.857 287.043 370.147 289.683 370.147 289.683L353.797 289.323C353.797 289.323 353.527 268.083 353.527 266.033C353.527 263.983 356.667 253.733 356.667 253.733V253.743Z" fill="#9668FF"/>
<path d="M328.467 294.433L313.487 290.663C313.487 290.663 317.597 269.343 318.297 265.773C319.097 261.723 323.997 258.653 328.177 257.493L331.697 271.193L328.467 294.433Z" fill="#9668FF"/>
<path opacity="0.2" d="M326.247 293.873C326.087 293.833 323.827 272.123 323.827 272.123L322.587 292.963L326.247 293.883V293.873Z" fill="black"/>
<path d="M314.437 322.353C314.577 320.953 317.207 314.813 318.557 312.773C319.907 310.733 328.797 307.243 328.797 307.243L334.017 311.013C334.017 311.013 334.017 313.193 332.167 314.773C331.107 315.683 327.517 316.603 327.517 316.603C327.517 316.603 327.817 317.713 327.817 318.953C327.817 320.333 327.547 322.023 326.407 321.973C325.277 321.923 324.857 318.273 324.807 317.743C324.857 318.273 325.177 322.013 323.657 322.143C322.197 322.273 321.957 318.373 321.957 318.373C321.957 318.373 321.877 320.183 321.837 321.113C321.787 322.043 320.857 322.843 319.997 321.813C318.997 320.613 318.917 318.553 318.917 318.553C318.917 318.553 318.127 319.763 316.947 322.393C316.097 324.283 314.317 323.523 314.437 322.343V322.353Z" fill="#E9B376"/>
<path opacity="0.1" d="M324.857 318.553C324.727 318.553 324.617 318.453 324.607 318.313C324.577 317.613 324.537 316.883 324.637 316.163C324.757 315.333 325.037 314.643 325.477 314.113C325.567 314.003 325.727 313.993 325.827 314.083C325.937 314.173 325.947 314.333 325.857 314.433C325.477 314.883 325.227 315.503 325.127 316.233C325.037 316.903 325.067 317.613 325.097 318.293C325.097 318.433 324.997 318.543 324.857 318.553Z" fill="black"/>
<path opacity="0.1" d="M321.887 319.053C321.757 319.053 321.647 318.953 321.637 318.813C321.607 318.113 321.567 317.383 321.667 316.663C321.787 315.823 322.067 315.133 322.507 314.613C322.597 314.513 322.757 314.493 322.857 314.583C322.967 314.673 322.977 314.833 322.887 314.933C322.507 315.383 322.267 315.993 322.157 316.733C322.067 317.403 322.097 318.113 322.127 318.783C322.127 318.923 322.027 319.033 321.887 319.043H321.877L321.887 319.053Z" fill="black"/>
<path opacity="0.1" d="M318.937 318.792C318.807 318.792 318.697 318.692 318.687 318.552C318.657 317.852 318.617 317.122 318.717 316.402C318.837 315.572 319.117 314.882 319.557 314.352C319.647 314.242 319.807 314.232 319.907 314.322C320.017 314.412 320.027 314.572 319.937 314.672C319.557 315.122 319.307 315.742 319.207 316.472C319.117 317.142 319.147 317.852 319.177 318.532C319.177 318.672 319.077 318.782 318.937 318.792Z" fill="black"/>
<path d="M336.347 222.163C335.657 221.293 334.557 220.843 333.457 220.663C331.977 220.413 330.437 220.523 329.007 220.963C327.357 221.473 325.847 222.433 324.147 222.693C323.937 222.723 323.697 222.733 323.547 222.593C323.437 222.493 323.407 222.343 323.357 222.203C323.057 221.283 322.127 220.593 321.157 220.593C320.187 220.593 319.247 221.263 318.947 222.193C318.017 220.733 315.787 220.563 314.317 221.473C312.837 222.383 311.987 223.403 311.497 225.063C311.327 225.643 311.257 226.913 311.467 227.863C311.897 229.763 312.937 230.923 314.597 231.933C316.837 233.293 319.487 234.233 322.067 233.763C325.507 233.133 328.117 230.173 331.517 229.343C332.797 229.033 334.327 229.113 335.217 230.083L337.987 224.863C337.987 223.983 337.137 223.153 336.337 222.153L336.347 222.163Z" fill="#263238"/>
<path d="M167.127 413.033L174.197 412.713L176.817 394.323L166.047 394.693L167.127 413.033Z" fill="#B97964"/>
<path d="M175.057 409.493H172.547C171.977 409.493 171.447 409.783 171.117 410.243C169.667 412.223 168.577 411.473 166.997 409.613C165.997 409.493 165.727 410.643 165.647 410.953L163.767 417.793C163.607 418.363 163.937 418.963 164.507 419.123C164.607 419.153 164.717 419.163 164.817 419.163H184.737C187.907 419.163 188.567 415.973 187.257 415.673C181.387 414.373 177.227 412.653 175.417 410.943C175.077 410.643 175.417 410.423 175.057 409.493Z" fill="#263238"/>
<path d="M179.977 411.773C180.237 411.583 180.397 411.283 180.407 410.953C180.427 410.783 180.347 410.603 180.197 410.513C179.407 409.953 176.267 411.423 175.917 411.593C175.877 411.603 175.847 411.643 175.837 411.673C175.807 411.743 175.847 411.823 175.917 411.853C176.687 412.033 177.477 412.133 178.277 412.153C178.877 412.213 179.467 412.073 179.987 411.763L179.977 411.773ZM179.997 410.743C180.057 410.783 180.097 410.853 180.077 410.933C180.067 411.173 179.947 411.383 179.767 411.533C179.057 412.063 177.327 411.833 176.397 411.663C177.707 411.093 179.557 410.443 179.997 410.743Z" fill="#9668FF"/>
<path d="M176.017 411.893C176.957 411.503 178.937 409.943 178.837 409.123C178.817 408.953 178.697 408.743 178.267 408.683C176.547 408.483 175.807 411.583 175.807 411.713C175.787 411.763 175.807 411.823 175.847 411.863C175.877 411.863 175.917 411.863 175.947 411.863L176.017 411.883V411.893ZM178.207 408.943C178.527 408.973 178.527 409.093 178.527 409.133C178.617 409.633 177.177 410.923 176.157 411.463C176.367 410.743 177.007 408.933 178.097 408.933H178.207V408.943Z" fill="#9668FF"/>
<path d="M174.127 413.393C174.127 413.393 174.037 413.383 173.997 413.353C173.877 413.283 173.847 413.123 173.917 413.013C174.427 412.213 175.287 411.653 176.227 411.523C176.357 411.513 176.487 411.603 176.507 411.733C176.527 411.863 176.427 411.993 176.297 412.013C175.497 412.123 174.767 412.593 174.337 413.273C174.287 413.353 174.207 413.393 174.127 413.393Z" fill="#9668FF"/>
<path d="M175.697 414.572C175.697 414.572 175.607 414.562 175.567 414.532C175.447 414.462 175.417 414.302 175.487 414.192C175.997 413.392 176.857 412.832 177.797 412.702C177.927 412.692 178.057 412.782 178.077 412.912C178.097 413.042 177.997 413.172 177.867 413.192C177.067 413.302 176.337 413.772 175.907 414.452C175.857 414.532 175.777 414.572 175.697 414.572Z" fill="#9668FF"/>
<path d="M177.637 415.563C177.637 415.563 177.547 415.553 177.507 415.523C177.387 415.453 177.357 415.293 177.427 415.183C177.937 414.383 178.797 413.822 179.737 413.692C179.867 413.672 179.997 413.773 180.017 413.903C180.037 414.043 179.937 414.163 179.807 414.183C179.007 414.293 178.277 414.762 177.847 415.442C177.797 415.522 177.717 415.563 177.637 415.563Z" fill="#9668FF"/>
<path opacity="0.3" d="M175.387 404.353L175.047 406.713L166.747 406.573L166.617 404.353H175.387Z" fill="black"/>
<path d="M196.587 411.213L204.257 410.243L205.947 392.903L195.417 392.613L196.587 411.213Z" fill="#B97964"/>
<path d="M204.647 408.793H202.137C201.567 408.793 201.037 409.083 200.707 409.543C199.257 411.523 198.167 410.773 196.587 408.913C195.587 408.793 195.317 409.943 195.237 410.253L193.357 417.093C193.197 417.663 193.527 418.263 194.097 418.423C194.197 418.453 194.307 418.463 194.407 418.463H214.327C217.497 418.463 218.157 415.273 216.847 414.973C210.977 413.673 206.817 411.953 205.007 410.243C204.667 409.943 205.007 409.723 204.647 408.793Z" fill="#263238"/>
<path d="M210.097 410.733C210.357 410.543 210.517 410.233 210.527 409.913C210.547 409.743 210.467 409.563 210.317 409.473C209.527 408.913 206.387 410.383 206.037 410.553C205.997 410.563 205.967 410.603 205.957 410.633C205.927 410.703 205.967 410.783 206.037 410.813C206.807 410.993 207.597 411.093 208.397 411.113C208.997 411.173 209.587 411.033 210.107 410.723L210.097 410.733ZM210.117 409.703C210.177 409.743 210.217 409.813 210.197 409.893C210.187 410.133 210.067 410.343 209.887 410.493C209.177 411.023 207.447 410.793 206.517 410.623C207.827 410.053 209.677 409.403 210.117 409.703Z" fill="#9668FF"/>
<path d="M206.147 410.853C207.087 410.463 209.067 408.903 208.967 408.083C208.947 407.913 208.827 407.703 208.397 407.653C206.677 407.453 205.937 410.553 205.937 410.683C205.917 410.733 205.937 410.793 205.977 410.833C206.007 410.833 206.047 410.833 206.077 410.833L206.147 410.853ZM208.337 407.903C208.657 407.933 208.657 408.053 208.657 408.093C208.747 408.593 207.307 409.883 206.287 410.423C206.497 409.703 207.137 407.893 208.227 407.893H208.337V407.903Z" fill="#9668FF"/>
<path d="M204.257 412.363C204.257 412.363 204.167 412.353 204.127 412.323C204.007 412.253 203.977 412.093 204.047 411.983C204.557 411.183 205.417 410.623 206.357 410.493C206.487 410.483 206.617 410.573 206.637 410.703C206.657 410.833 206.557 410.963 206.427 410.983C205.627 411.093 204.897 411.563 204.467 412.243C204.417 412.323 204.337 412.363 204.257 412.363Z" fill="#9668FF"/>
<path d="M205.817 413.533C205.817 413.533 205.727 413.523 205.687 413.493C205.567 413.423 205.537 413.263 205.607 413.153C206.117 412.353 206.977 411.793 207.917 411.663C208.047 411.653 208.177 411.743 208.197 411.873C208.217 412.013 208.117 412.133 207.987 412.153C207.187 412.263 206.457 412.733 206.027 413.413C205.977 413.493 205.897 413.533 205.817 413.533Z" fill="#9668FF"/>
<path d="M207.767 414.523C207.767 414.523 207.677 414.513 207.637 414.483C207.517 414.413 207.487 414.253 207.557 414.143C208.067 413.333 208.927 412.783 209.867 412.653C209.997 412.643 210.127 412.733 210.147 412.863C210.167 412.993 210.067 413.123 209.937 413.143C209.137 413.253 208.407 413.723 207.977 414.403C207.927 414.483 207.847 414.523 207.767 414.523Z" fill="#9668FF"/>
<path opacity="0.3" d="M204.927 403.313L204.697 405.683L196.237 405.633L196.087 403.313H204.927Z" fill="black"/>
<path d="M162.717 212.733C160.697 202.223 167.247 204.163 165.017 190.783C162.557 176.043 173.067 173.913 173.067 173.913C173.067 173.913 174.307 166.573 181.167 166.953C188.027 167.333 205.207 170.973 201.757 189.193C199.747 199.813 203.277 200.593 205.077 205.383C207.627 212.153 199.497 218.233 204.807 222.863C204.807 222.863 191.197 226.853 171.337 225.523C171.337 225.523 163.947 219.143 162.717 212.733Z" fill="#263238"/>
<path d="M199.707 216.683C199.707 216.683 209.047 240.053 210.527 240.193C212.007 240.333 230.957 232.953 230.957 232.953L233.907 236.283C233.907 236.283 223.987 249.553 208.277 253.763C205.457 254.523 201.897 251.323 198.497 246.953C197.827 246.103 197.177 245.203 196.537 244.283C193.047 239.103 189.907 233.683 187.157 228.073L199.717 216.683H199.707Z" fill="#9668FF"/>
<path opacity="0.6" d="M199.707 216.683C199.707 216.683 209.047 240.053 210.527 240.193C212.007 240.333 230.957 232.953 230.957 232.953L233.907 236.283C233.907 236.283 223.987 249.553 208.277 253.763C205.457 254.523 201.897 251.323 198.497 246.953C197.827 246.103 197.177 245.203 196.537 244.283C193.047 239.103 189.907 233.683 187.157 228.073L199.717 216.683H199.707Z" fill="white"/>
<path opacity="0.2" d="M199.707 219.773C200.437 223.013 202.157 227.863 203.507 231.313C203.947 232.433 204.137 233.633 203.937 234.823C203.357 238.223 200.417 239.313 199.437 242.023C198.887 243.613 198.577 245.273 198.497 246.953C197.827 246.103 197.177 245.203 196.537 244.283L195.087 238.553L199.717 219.773H199.707Z" fill="black"/>
<path d="M207.377 242.793C206.497 242.543 205.977 241.623 206.227 240.733L212.557 214.093C212.937 212.833 214.067 211.943 215.387 211.893L235.687 211.473C235.907 211.443 236.127 211.463 236.347 211.523C237.227 211.773 237.747 212.693 237.497 213.583L231.167 240.223C230.787 241.483 229.657 242.373 228.337 242.433L208.037 242.853C207.817 242.883 207.597 242.863 207.377 242.803V242.793Z" fill="#263238"/>
<path opacity="0.2" d="M207.377 242.793C206.497 242.543 205.977 241.623 206.227 240.733L212.557 214.093C212.937 212.833 214.067 211.943 215.387 211.893L235.687 211.473C235.907 211.443 236.127 211.463 236.347 211.523C237.227 211.773 237.747 212.693 237.497 213.583L231.167 240.223C230.787 241.483 229.657 242.373 228.337 242.433L208.037 242.853C207.817 242.883 207.597 242.863 207.377 242.803V242.793Z" fill="white"/>
<path d="M209.467 242.743C208.587 242.493 208.067 241.573 208.317 240.693L214.647 214.053C215.027 212.793 216.157 211.913 217.467 211.843L237.777 211.423C237.997 211.393 238.217 211.413 238.437 211.473C239.317 211.723 239.837 212.643 239.587 213.533L233.247 240.173C232.867 241.433 231.737 242.313 230.427 242.383L210.117 242.803C209.897 242.833 209.677 242.803 209.467 242.753V242.743Z" fill="#263238"/>
<path opacity="0.3" d="M209.467 242.743C208.587 242.493 208.067 241.573 208.317 240.693L214.647 214.053C215.027 212.793 216.157 211.913 217.467 211.843L237.777 211.423C237.997 211.393 238.217 211.413 238.437 211.473C239.317 211.723 239.837 212.643 239.587 213.533L233.247 240.173C232.867 241.433 231.737 242.313 230.427 242.383L210.117 242.803C209.897 242.833 209.677 242.803 209.467 242.753V242.743Z" fill="white"/>
<path opacity="0.2" d="M227.787 227.043C227.677 225.873 226.637 225.023 225.477 225.133C223.827 225.223 222.417 226.363 221.977 227.953C221.897 228.213 221.877 228.493 221.897 228.763C222.017 229.923 223.047 230.763 224.207 230.643C225.857 230.553 227.277 229.423 227.717 227.833C227.787 227.573 227.817 227.303 227.787 227.043Z" fill="white"/>
<path d="M234.647 228.313C234.247 228.283 232.547 229.123 231.747 228.563C230.947 228.003 231.697 227.543 231.697 227.543C233.157 227.183 234.767 225.353 235.657 225.883C236.547 226.403 238.017 227.063 237.807 227.893C237.567 228.663 237.267 229.413 236.927 230.153C237.157 230.523 237.187 230.983 237.007 231.383C236.827 231.843 236.417 232.183 235.937 232.273C236.217 232.553 236.357 232.943 236.337 233.343C236.267 233.973 234.607 234.803 234.607 234.803C234.607 234.803 234.927 235.793 234.547 236.173C233.897 236.703 233.037 236.903 232.217 236.703C231.247 236.473 230.577 236.133 230.647 235.153C230.717 234.173 232.467 234.173 232.467 234.173C232.467 234.173 229.167 233.173 229.867 232.553C230.567 231.933 233.197 232.003 233.197 232.003C233.197 232.003 228.737 231.123 229.447 230.203C230.157 229.283 234.597 229.533 234.597 229.533C234.597 229.533 235.047 228.333 234.647 228.303V228.313Z" fill="#B97964"/>
<path d="M180.307 265.973L200.017 266.053C200.017 266.053 206.907 300.723 206.497 339.593C207.297 362.413 206.657 404.373 206.657 404.373H193.837C193.837 404.373 185.667 370.293 188.937 343.293C187.747 338.633 186.157 330.573 185.227 326.463C182.607 315.373 180.637 304.133 179.327 292.813C177.077 271.593 180.297 265.973 180.297 265.973H180.307Z" fill="#263238"/>
<path opacity="0.2" d="M182.057 279.583C182.057 279.583 189.167 311.503 185.237 326.453C182.617 315.363 180.647 304.123 179.337 292.803L182.057 279.573V279.583Z" fill="black"/>
<path d="M163.737 256.893C162.017 264.593 155.277 274.003 153.907 283.853C151.577 300.683 161.697 321.613 164.337 341.353C160.337 370.553 166.467 405.963 165.657 405.193H178.527C178.917 402.593 181.557 363.033 182.867 339.593C183.977 319.073 185.747 267.483 185.747 267.483L163.727 256.893H163.737Z" fill="#263238"/>
<path d="M163.257 252.233C163.237 250.853 160.567 240.943 160.497 239.483C160.167 232.413 159.377 225.383 158.137 218.413C158.087 218.113 158.047 217.803 158.027 217.503C157.687 212.713 161.307 208.553 166.097 208.223C167.477 208.123 168.927 208.073 170.427 208.033C171.927 207.993 173.357 207.993 174.737 207.993C178.517 207.923 182.297 208.103 186.047 208.523L186.877 208.633C188.287 208.813 189.717 209.053 191.097 209.283C197.087 210.293 201.317 215.713 200.857 221.773C200.187 229.703 206.167 234.543 198.517 239.893C197.527 246.693 198.997 261.223 201.847 271.243C202.857 274.803 174.027 274.333 157.847 268.983L163.247 252.243" fill="#9668FF"/>
<path opacity="0.6" d="M163.257 252.233C163.237 250.853 160.567 240.943 160.497 239.483C160.167 232.413 159.377 225.383 158.137 218.413C158.087 218.113 158.047 217.803 158.027 217.503C157.687 212.713 161.307 208.553 166.097 208.223C167.477 208.123 168.927 208.073 170.427 208.033C171.927 207.993 173.357 207.993 174.737 207.993C178.517 207.923 182.297 208.103 186.047 208.523L186.877 208.633C188.287 208.813 189.717 209.053 191.097 209.283C197.087 210.293 201.317 215.713 200.857 221.773C200.187 229.703 206.167 234.543 198.517 239.893C197.527 246.693 198.997 261.223 201.847 271.243C202.857 274.803 174.027 274.333 157.847 268.983L163.247 252.243" fill="white"/>
<path d="M173.317 207.993C173.317 207.993 176.327 210.313 180.207 213.653C181.017 214.353 181.907 214.953 182.847 215.453C185.387 216.803 187.707 217.573 188.327 216.353C188.467 216.083 188.577 215.793 188.657 215.483C189.187 213.433 188.967 210.553 187.317 209.233C185.447 207.743 184.547 206.473 184.887 204.463C185.067 203.323 185.477 202.143 185.957 200.993L183.797 199.693L176.107 191.933C176.987 196.693 177.377 205.193 173.327 208.003L173.317 207.993Z" fill="#B97964"/>
<path opacity="0.2" d="M184.807 204.893C182.687 203.633 180.367 201.463 180.647 198.973C180.767 197.923 180.997 196.933 181.247 196.293L185.547 201.983C185.197 202.903 185.067 203.503 184.807 204.893Z" fill="black"/>
<path d="M174.597 183.173C175.317 191.073 175.457 194.433 179.537 198.573C185.677 204.803 195.117 202.713 196.737 194.873C198.197 187.823 196.767 176.083 189.007 172.753C181.357 169.483 173.867 175.263 174.587 183.163L174.597 183.173Z" fill="#B97964"/>
<path d="M184.837 185.743C184.877 186.583 185.327 187.263 185.847 187.273C186.367 187.283 186.757 186.613 186.717 185.783C186.677 184.943 186.227 184.263 185.707 184.253C185.187 184.243 184.797 184.913 184.837 185.743Z" fill="#263238"/>
<path d="M192.637 185.723C192.677 186.533 193.127 187.203 193.647 187.213C194.167 187.223 194.557 186.573 194.517 185.763C194.477 184.953 194.027 184.283 193.507 184.273C192.987 184.263 192.597 184.913 192.637 185.723Z" fill="#263238"/>
<path d="M183.187 182.833C183.287 182.843 183.387 182.813 183.467 182.743C184.687 181.613 186.057 182.013 186.067 182.013C186.267 182.073 186.477 181.953 186.527 181.753C186.577 181.543 186.447 181.333 186.237 181.263C186.167 181.243 184.447 180.743 182.937 182.143C182.787 182.283 182.787 182.533 182.937 182.693C183.007 182.773 183.097 182.823 183.197 182.833H183.187Z" fill="#263238"/>
<path d="M195.257 181.753C195.337 181.723 195.407 181.663 195.437 181.583C195.507 181.403 195.417 181.173 195.237 181.073C193.427 180.053 192.087 180.833 192.037 180.863C191.877 180.953 191.837 181.183 191.947 181.363C192.057 181.543 192.277 181.613 192.437 181.523C192.487 181.493 193.537 180.913 194.977 181.723C195.067 181.773 195.167 181.783 195.257 181.753Z" fill="#263238"/>
<path d="M190.517 185.333C190.517 185.333 191.757 188.293 193.147 190.133C193.387 190.453 193.237 190.923 192.857 191.063C191.877 191.423 190.737 191.093 190.737 191.093L190.507 185.323L190.517 185.333Z" fill="#A24E3F"/>
<path d="M185.417 184.283L187.227 183.853C187.227 183.853 186.237 185.203 185.417 184.283Z" fill="#263238"/>
<path d="M193.317 184.293L195.127 183.863C195.127 183.863 194.137 185.213 193.317 184.293Z" fill="#263238"/>
<path d="M177.347 185.903C177.347 185.903 181.427 179.763 181.217 174.793C181.217 174.793 189.017 172.763 195.247 181.073C196.237 182.393 196.827 184.603 197.717 186.513C197.717 186.513 199.207 171.473 185.857 170.243C172.527 169.013 169.917 187.743 176.417 194.053C176.417 194.053 174.827 189.753 177.347 185.913V185.903Z" fill="#263238"/>
<path d="M172.207 189.613C173.137 191.233 174.657 192.253 176.047 192.603C178.137 193.123 179.217 189.763 178.507 187.663C177.867 185.773 175.807 184.523 173.767 184.943C171.757 185.353 171.137 187.763 172.197 189.613H172.207Z" fill="#B97964"/>
<path opacity="0.2" d="M176.637 189.443C176.507 189.443 176.397 189.343 176.387 189.213C176.337 188.523 176.017 187.873 175.497 187.413C174.977 186.963 174.287 186.723 173.597 186.763C173.467 186.783 173.337 186.663 173.327 186.533C173.327 186.393 173.427 186.273 173.557 186.263C174.377 186.213 175.197 186.493 175.817 187.033C176.437 187.573 176.817 188.353 176.877 189.173C176.877 189.313 176.777 189.433 176.647 189.443H176.627H176.637Z" fill="black"/>
<path d="M188.217 193.743C186.257 193.743 185.557 191.923 185.557 191.903C185.507 191.773 185.577 191.633 185.707 191.583C185.837 191.533 185.977 191.603 186.027 191.733C186.057 191.813 186.757 193.613 188.857 193.173C188.987 193.143 189.127 193.233 189.147 193.363C189.177 193.493 189.087 193.633 188.957 193.653C188.697 193.703 188.457 193.733 188.227 193.733L188.217 193.743Z" fill="#263238"/>
<path opacity="0.2" d="M161.467 257.793L159.717 263.233C159.717 263.233 179.337 259.783 189.177 250.993C196.177 244.733 195.087 242.093 195.087 242.093L187.157 242.863L161.477 257.803L161.467 257.793Z" fill="black"/>
<path opacity="0.2" d="M169.327 229.803L168.257 247.543C165.297 249.423 163.337 246.813 162.887 244.113V239.003L169.327 229.793V229.803Z" fill="black"/>
<path d="M170.387 227.113C170.387 227.113 162.957 245.513 164.297 246.363C165.637 247.213 187.027 241.363 187.027 241.363L190.397 246.203C189.677 249.383 152.767 269.413 149.757 252.663C147.927 242.483 158.997 212.893 158.997 212.893C168.097 209.333 170.387 227.123 170.387 227.123V227.113Z" fill="#9668FF"/>
<path opacity="0.6" d="M170.387 227.113C170.387 227.113 162.957 245.513 164.297 246.363C165.637 247.213 187.027 241.363 187.027 241.363L190.397 246.203C189.677 249.383 152.767 269.413 149.757 252.663C147.927 242.483 158.997 212.893 158.997 212.893C168.097 209.333 170.387 227.123 170.387 227.123V227.113Z" fill="white"/>
<path d="M190.717 246.673C193.247 246.873 193.337 243.063 194.647 242.913C195.417 242.843 196.157 242.653 196.867 242.343C196.867 242.343 196.037 244.633 196.867 244.453C197.697 244.273 200.367 244.133 201.027 241.953C201.687 239.773 199.307 235.113 198.767 234.463C198.227 233.813 195.377 234.013 195.377 234.013C195.377 234.013 198.437 233.223 200.117 232.993C201.797 232.763 202.117 230.843 199.767 231.263C198.807 231.433 191.197 231.493 190.377 232.273C189.557 233.053 186.497 240.743 186.497 240.743C185.367 241.393 188.237 247.843 190.707 246.663L190.717 246.673Z" fill="#B97964"/>
<g opacity="0.3">
<path d="M195.357 233.773C194.577 233.723 193.797 233.773 193.027 233.923C192.907 233.953 192.847 234.073 192.877 234.193C192.907 234.293 192.997 234.363 193.107 234.353C193.837 234.203 194.577 234.153 195.317 234.203C195.587 234.203 195.637 233.793 195.367 233.783L195.357 233.773Z" fill="black"/>
<path d="M199.277 236.083C199.517 236.203 199.767 235.863 199.527 235.733C198.107 234.973 196.607 235.403 195.167 235.883C194.907 235.963 195.097 236.353 195.347 236.273C196.617 235.853 198.007 235.443 199.277 236.083Z" fill="black"/>
<path d="M200.397 237.963C199.167 237.233 197.657 237.163 196.367 237.793C196.267 237.853 196.237 237.993 196.297 238.093C196.347 238.173 196.447 238.213 196.537 238.183C197.687 237.623 199.047 237.673 200.147 238.313C200.377 238.453 200.627 238.103 200.387 237.963H200.397Z" fill="black"/>
<path d="M198.347 241.153C198.457 240.933 198.547 240.693 198.607 240.453C198.667 240.183 198.267 240.033 198.197 240.303C198.017 241.123 197.507 241.833 196.787 242.263C196.547 242.393 196.727 242.783 196.957 242.653H196.937C197.387 242.403 197.767 242.043 198.057 241.623C198.087 241.623 198.107 241.633 198.147 241.623C198.597 241.463 199.097 241.593 199.407 241.953C199.587 242.163 199.917 241.883 199.727 241.683C199.377 241.283 198.857 241.093 198.347 241.153Z" fill="black"/>
</g>
</g>
<defs>
<clipPath id="clip0_2029_351">
<rect width="431" height="434" fill="white"/>
</clipPath>
</defs>
</svg>
