<svg width="457" height="449" viewBox="0 0 457 449" fill="none" xmlns="http://www.w3.org/2000/svg">
<g clip-path="url(#clip0_2029_678)">
<path d="M356.565 338.779C359.051 338.779 361.065 336.764 361.065 334.279C361.065 331.794 359.051 329.779 356.565 329.779C354.08 329.779 352.065 331.794 352.065 334.279C352.065 336.764 354.08 338.779 356.565 338.779Z" stroke="#263238" stroke-linejoin="round"/>
<path d="M415.065 383.779C417.551 383.779 419.565 381.764 419.565 379.279C419.565 376.794 417.551 374.779 415.065 374.779C412.58 374.779 410.565 376.794 410.565 379.279C410.565 381.764 412.58 383.779 415.065 383.779Z" stroke="#263238" stroke-linejoin="round"/>
<path d="M335.065 380.779C337.551 380.779 339.565 378.764 339.565 376.279C339.565 373.794 337.551 371.779 335.065 371.779C332.58 371.779 330.565 373.794 330.565 376.279C330.565 378.764 332.58 380.779 335.065 380.779Z" stroke="#263238" stroke-miterlimit="10"/>
<path d="M361.565 377.779C365.708 377.779 369.065 374.421 369.065 370.279C369.065 366.137 365.708 362.779 361.565 362.779C357.423 362.779 354.065 366.137 354.065 370.279C354.065 374.421 357.423 377.779 361.565 377.779Z" stroke="#263238" stroke-linejoin="round"/>
<path d="M352.565 408.279C355.051 408.279 357.065 406.264 357.065 403.779C357.065 401.294 355.051 399.279 352.565 399.279C350.08 399.279 348.065 401.294 348.065 403.779C348.065 406.264 350.08 408.279 352.565 408.279Z" stroke="#263238" stroke-linejoin="round"/>
<path d="M447.565 416.279C450.051 416.279 452.065 414.264 452.065 411.779C452.065 409.294 450.051 407.279 447.565 407.279C445.08 407.279 443.065 409.294 443.065 411.779C443.065 414.264 445.08 416.279 447.565 416.279Z" stroke="#263238" stroke-linejoin="round"/>
<path d="M452.065 339.779C454.551 339.779 456.565 337.764 456.565 335.279C456.565 332.794 454.551 330.779 452.065 330.779C449.58 330.779 447.565 332.794 447.565 335.279C447.565 337.764 449.58 339.779 452.065 339.779Z" stroke="#263238" stroke-linejoin="round"/>
<path d="M415.565 328.279C418.051 328.279 420.065 326.264 420.065 323.779C420.065 321.294 418.051 319.279 415.565 319.279C413.08 319.279 411.065 321.294 411.065 323.779C411.065 326.264 413.08 328.279 415.565 328.279Z" stroke="#263238" stroke-linejoin="round"/>
<path d="M430.565 352.279C434.708 352.279 438.065 348.921 438.065 344.779C438.065 340.637 434.708 337.279 430.565 337.279C426.423 337.279 423.065 340.637 423.065 344.779C423.065 348.921 426.423 352.279 430.565 352.279Z" stroke="#263238" stroke-linejoin="round"/>
<path d="M360.065 336.279L411.565 376.279" stroke="#263238" stroke-linejoin="round"/>
<path d="M417.065 375.779L428.065 352.279" stroke="#263238" stroke-linejoin="round"/>
<path d="M433.065 352.279L447.565 407.279L452.065 339.779" stroke="#263238" stroke-linejoin="round"/>
<path d="M410.565 381.779L357.065 403.779" stroke="#263238" stroke-linejoin="round"/>
<path d="M369.065 370.279L423.565 347.279" stroke="#263238" stroke-linejoin="round"/>
<path d="M359.565 362.779L356.565 338.779" stroke="#263238" stroke-linejoin="round"/>
<path d="M438.065 342.279L448.065 337.779" stroke="#263238" stroke-linejoin="round"/>
<path d="M337.565 380.279L349.565 399.779" stroke="#263238" stroke-linejoin="round"/>
<path d="M335.065 371.779L353.565 337.779" stroke="#263238" stroke-linejoin="round"/>
<path d="M367.065 375.779L443.065 411.779" stroke="#263238" stroke-linejoin="round"/>
<path d="M415.065 383.779L445.065 408.779" stroke="#263238" stroke-linejoin="round"/>
<path d="M361.065 334.279L423.065 344.779" stroke="#263238" stroke-linejoin="round"/>
<path d="M447.565 335.279L360.065 332.279" stroke="#263238" stroke-linejoin="round"/>
<path d="M448.065 333.279L420.065 326.279" stroke="#263238" stroke-linejoin="round"/>
<path d="M411.065 325.779L355.565 400.279" stroke="#263238" stroke-linejoin="round"/>
<path d="M354.065 372.779L339.565 376.279" stroke="#263238" stroke-linejoin="round"/>
<path d="M385.886 338.059C385.886 337.641 385.762 337.233 385.529 336.885C385.297 336.538 384.967 336.268 384.581 336.108C384.195 335.949 383.77 335.908 383.36 335.99C382.951 336.072 382.575 336.274 382.28 336.57C381.985 336.866 381.785 337.243 381.705 337.653C381.625 338.063 381.668 338.488 381.829 338.873C381.99 339.259 382.262 339.587 382.611 339.818C382.959 340.049 383.368 340.171 383.786 340.169C384.062 340.169 384.336 340.114 384.591 340.008C384.847 339.902 385.079 339.746 385.274 339.55C385.469 339.354 385.624 339.121 385.729 338.865C385.833 338.609 385.887 338.335 385.886 338.059Z" fill="#263238"/>
<path d="M364.875 390.379C364.877 389.961 364.755 389.552 364.525 389.204C364.294 388.856 363.965 388.584 363.58 388.422C363.194 388.261 362.77 388.218 362.36 388.298C361.95 388.378 361.573 388.579 361.277 388.873C360.981 389.168 360.779 389.544 360.697 389.953C360.614 390.363 360.656 390.788 360.815 391.174C360.974 391.56 361.245 391.89 361.592 392.122C361.939 392.355 362.348 392.479 362.765 392.479C363.042 392.48 363.316 392.427 363.572 392.322C363.828 392.217 364.061 392.062 364.257 391.867C364.453 391.672 364.608 391.44 364.714 391.185C364.821 390.929 364.875 390.655 364.875 390.379Z" fill="#263238"/>
<path d="M423.835 365.719C423.837 365.3 423.715 364.891 423.484 364.543C423.253 364.194 422.923 363.922 422.537 363.761C422.151 363.6 421.726 363.558 421.316 363.639C420.906 363.72 420.529 363.921 420.233 364.217C419.938 364.512 419.736 364.889 419.655 365.299C419.574 365.71 419.617 366.135 419.778 366.521C419.939 366.907 420.211 367.236 420.559 367.467C420.908 367.698 421.317 367.821 421.735 367.819C422.292 367.819 422.826 367.597 423.22 367.204C423.614 366.81 423.835 366.276 423.835 365.719Z" fill="#263238"/>
<path d="M423.285 401.239C423.287 400.821 423.165 400.412 422.935 400.064C422.704 399.715 422.375 399.443 421.99 399.282C421.604 399.121 421.18 399.078 420.77 399.158C420.36 399.238 419.983 399.438 419.687 399.733C419.391 400.028 419.189 400.404 419.107 400.813C419.024 401.223 419.066 401.648 419.225 402.034C419.384 402.42 419.655 402.75 420.002 402.982C420.349 403.215 420.758 403.339 421.175 403.339C421.732 403.336 422.266 403.114 422.661 402.721C423.056 402.328 423.28 401.796 423.285 401.239Z" fill="#263238"/>
<path d="M348.065 352.349C348.065 351.931 347.941 351.523 347.709 351.175C347.477 350.828 347.146 350.558 346.76 350.398C346.374 350.239 345.949 350.198 345.54 350.28C345.13 350.362 344.754 350.564 344.46 350.86C344.165 351.156 343.965 351.533 343.885 351.943C343.804 352.353 343.847 352.778 344.009 353.163C344.17 353.549 344.442 353.877 344.79 354.108C345.139 354.339 345.547 354.461 345.965 354.459C346.242 354.459 346.516 354.404 346.771 354.298C347.027 354.192 347.259 354.036 347.454 353.84C347.649 353.644 347.803 353.411 347.908 353.155C348.013 352.9 348.067 352.625 348.065 352.349Z" fill="#263238"/>
<path d="M450.996 351.069C452.155 351.069 453.096 350.128 453.096 348.969C453.096 347.809 452.155 346.869 450.996 346.869C449.836 346.869 448.896 347.809 448.896 348.969C448.896 350.128 449.836 351.069 450.996 351.069Z" fill="#263238"/>
<path d="M374.866 266.499V215.229C374.864 214.89 374.93 214.554 375.059 214.24C375.189 213.926 375.379 213.642 375.618 213.402C375.858 213.162 376.143 212.972 376.457 212.843C376.77 212.713 377.107 212.648 377.446 212.649H431.276C431.615 212.648 431.952 212.713 432.266 212.842C432.58 212.972 432.866 213.161 433.107 213.401C433.347 213.641 433.538 213.926 433.668 214.239C433.799 214.553 433.866 214.889 433.866 215.229V217.229" stroke="#263238" stroke-miterlimit="10"/>
<path d="M379.426 272.649H377.426C377.086 272.649 376.75 272.582 376.436 272.452C376.122 272.321 375.838 272.131 375.598 271.89C375.358 271.649 375.168 271.364 375.039 271.049C374.91 270.735 374.844 270.399 374.846 270.059" stroke="#263238" stroke-miterlimit="10"/>
<path d="M433.865 220.689V270.059C433.865 270.746 433.593 271.405 433.107 271.89C432.621 272.376 431.962 272.649 431.275 272.649H383.125" stroke="#263238" stroke-miterlimit="10"/>
<path d="M391.576 235.309V229.649H417.146V255.649H409.246" stroke="#263238" stroke-miterlimit="10"/>
<path d="M391.576 242.719V238.819" stroke="#263238" stroke-miterlimit="10"/>
<path d="M406.126 255.649H391.576V246.229" stroke="#263238" stroke-miterlimit="10"/>
<path d="M386.976 213.109V196.879" stroke="#263238" stroke-miterlimit="10"/>
<path d="M398.565 213.109V196.879" stroke="#263238" stroke-miterlimit="10"/>
<path d="M410.156 213.109V196.879" stroke="#263238" stroke-miterlimit="10"/>
<path d="M421.746 213.109V196.879" stroke="#263238" stroke-miterlimit="10"/>
<path d="M386.976 289.029V272.809" stroke="#263238" stroke-miterlimit="10"/>
<path d="M398.565 289.029V272.809" stroke="#263238" stroke-miterlimit="10"/>
<path d="M410.156 289.029V272.809" stroke="#263238" stroke-miterlimit="10"/>
<path d="M421.746 289.029V272.809" stroke="#263238" stroke-miterlimit="10"/>
<path d="M434.206 225.569H450.436" stroke="#263238" stroke-miterlimit="10"/>
<path d="M434.206 237.159H450.436" stroke="#263238" stroke-miterlimit="10"/>
<path d="M434.206 248.749H450.436" stroke="#263238" stroke-miterlimit="10"/>
<path d="M434.206 260.339H450.436" stroke="#263238" stroke-miterlimit="10"/>
<path d="M358.286 225.569H374.516" stroke="#263238" stroke-miterlimit="10"/>
<path d="M358.286 237.159H374.516" stroke="#263238" stroke-miterlimit="10"/>
<path d="M358.286 248.749H374.516" stroke="#263238" stroke-miterlimit="10"/>
<path d="M358.286 260.339H374.516" stroke="#263238" stroke-miterlimit="10"/>
<path d="M452.546 248.779C452.546 248.362 452.422 247.954 452.19 247.607C451.958 247.26 451.629 246.989 451.243 246.83C450.858 246.67 450.433 246.628 450.024 246.709C449.615 246.791 449.239 246.992 448.944 247.287C448.649 247.582 448.448 247.958 448.366 248.367C448.285 248.777 448.327 249.201 448.486 249.586C448.646 249.972 448.916 250.301 449.263 250.533C449.61 250.765 450.018 250.889 450.436 250.889C450.995 250.889 451.532 250.667 451.928 250.271C452.323 249.875 452.546 249.339 452.546 248.779Z" fill="#263238"/>
<path d="M382.535 213.109C382.535 212.693 382.412 212.287 382.182 211.942C381.951 211.597 381.623 211.328 381.239 211.169C380.855 211.01 380.433 210.968 380.026 211.049C379.618 211.13 379.244 211.33 378.951 211.624C378.657 211.918 378.457 212.292 378.376 212.699C378.295 213.106 378.336 213.529 378.495 213.912C378.654 214.296 378.923 214.624 379.269 214.855C379.614 215.086 380.02 215.209 380.435 215.209C380.992 215.209 381.527 214.988 381.92 214.594C382.314 214.2 382.535 213.666 382.535 213.109Z" fill="#263238"/>
<path d="M368.006 259.869C368.006 259.454 367.882 259.048 367.652 258.702C367.421 258.357 367.093 258.088 366.709 257.929C366.326 257.77 365.903 257.728 365.496 257.809C365.089 257.89 364.714 258.09 364.421 258.384C364.127 258.678 363.927 259.052 363.846 259.459C363.765 259.867 363.807 260.289 363.965 260.673C364.124 261.056 364.394 261.384 364.739 261.615C365.084 261.846 365.49 261.969 365.906 261.969C366.181 261.969 366.455 261.915 366.709 261.809C366.964 261.704 367.196 261.549 367.391 261.354C367.586 261.159 367.74 260.927 367.846 260.673C367.951 260.418 368.006 260.145 368.006 259.869Z" fill="#263238"/>
<path d="M410.156 204.219C411.315 204.219 412.256 203.279 412.256 202.119C412.256 200.959 411.315 200.019 410.156 200.019C408.996 200.019 408.056 200.959 408.056 202.119C408.056 203.279 408.996 204.219 410.156 204.219Z" fill="#263238"/>
<path d="M406.066 272.779C406.066 272.363 405.943 271.957 405.712 271.612C405.481 271.267 405.153 270.998 404.769 270.839C404.386 270.68 403.963 270.638 403.556 270.719C403.149 270.8 402.774 271 402.481 271.294C402.187 271.587 401.987 271.962 401.906 272.369C401.825 272.776 401.867 273.199 402.026 273.582C402.185 273.966 402.454 274.294 402.799 274.525C403.144 274.756 403.55 274.879 403.966 274.879C404.522 274.876 405.054 274.654 405.448 274.261C405.841 273.867 406.063 273.335 406.066 272.779Z" fill="#263238"/>
<path d="M423.876 284.039C423.878 283.621 423.755 283.211 423.524 282.863C423.293 282.514 422.964 282.242 422.578 282.081C422.192 281.921 421.767 281.878 421.357 281.959C420.946 282.04 420.569 282.241 420.274 282.537C419.978 282.833 419.777 283.21 419.696 283.62C419.615 284.03 419.657 284.455 419.818 284.841C419.979 285.227 420.251 285.556 420.6 285.787C420.948 286.019 421.358 286.141 421.776 286.139C422.333 286.139 422.867 285.918 423.261 285.524C423.654 285.13 423.876 284.596 423.876 284.039Z" fill="#263238"/>
<path d="M331.925 51.4985C331.925 51.4985 327.725 52.4985 326.425 55.7085C325.125 58.9185 316.065 80.6385 316.065 83.2285C316.156 84.9234 316.843 86.5316 318.005 87.7685L339.375 96.5085C339.375 96.5085 343.905 95.2085 347.465 95.8585C351.025 96.5085 353.295 102.659 356.855 103.309C360.415 103.959 375.315 102.979 382.435 99.7385C389.555 96.4985 391.825 86.4685 391.825 79.6685C391.825 72.8685 389.555 66.0685 387.615 64.7785L384.705 62.8385" stroke="#263238" stroke-miterlimit="10"/>
<path d="M379.846 59.5987C379.846 59.5987 377.576 57.6587 383.406 58.5987C389.236 59.5387 403.806 78.6687 408.666 84.8187C413.526 90.9687 418.376 91.2987 422.256 87.4087C426.136 83.5187 423.256 78.6687 421.936 76.0787C420.616 73.4887 415.136 67.0087 413.196 62.4787C411.256 57.9487 405.746 46.2887 401.196 43.3787C396.646 40.4687 389.866 39.8187 379.506 44.0287C369.146 48.2387 364.286 51.7987 364.286 51.7987" stroke="#263238" stroke-miterlimit="10"/>
<path d="M335.815 51.1787L356.215 49.8887" stroke="#263238" stroke-miterlimit="10"/>
<path d="M346.496 90.0288C350.386 88.7388 350.056 86.7888 353.946 81.6088C357.836 76.4288 362.366 58.9488 362.686 56.6788C362.862 55.3051 362.504 53.9161 361.686 52.7988L381.116 62.5688" stroke="#263238" stroke-miterlimit="10"/>
<path d="M322.865 87.7784H340.675C343.842 85.4717 346.306 82.332 347.795 78.7084C350.055 72.8784 354.595 59.6084 355.885 56.7084C356.282 55.9616 356.489 55.129 356.489 54.2834C356.489 53.4378 356.282 52.6052 355.885 51.8584" stroke="#263238" stroke-miterlimit="10"/>
<path d="M342.615 95.5387C342.615 95.5387 333.545 90.6787 337.755 91.3287C341.965 91.9787 351.355 97.7987 358.155 97.7987C364.955 97.7987 367.545 93.9187 370.785 88.7387C374.025 83.5587 381.785 69.6287 381.785 65.4287" stroke="#263238" stroke-miterlimit="10"/>
<path d="M410.605 97.1486C410.605 97.1486 416.105 90.0286 421.285 96.5086C426.465 102.989 419.345 113.019 416.435 115.929C413.525 118.839 405.435 118.849 404.125 118.199C403.299 117.768 402.539 117.222 401.865 116.579" stroke="#263238" stroke-miterlimit="10"/>
<path d="M416.065 90.0287L432.905 109.459C432.905 109.459 433.225 104.279 436.145 102.009C437.459 100.919 438.864 99.9458 440.345 99.0987L424.805 82.9087" stroke="#263238" stroke-miterlimit="10"/>
<path d="M442.336 99.7788H444.596C444.596 99.7788 450.426 106.909 450.426 108.849C450.426 110.789 441.366 123.739 438.426 123.739C435.486 123.739 431.306 121.479 431.306 121.479C431.306 121.479 432.926 119.209 434.216 116.939C435.506 114.669 434.216 111.439 434.216 111.439C434.216 111.439 440.046 115.649 439.076 121.149" stroke="#263238" stroke-miterlimit="10"/>
<path d="M346.875 139.599C352.755 140.899 363.465 141.089 365.605 142.159C368.195 143.449 374.016 159.639 374.016 159.639" stroke="#263238" stroke-miterlimit="10"/>
<path d="M341.965 97.4785C341.965 97.4785 339.055 99.4185 340.675 102.009C342.295 104.599 345.855 106.219 345.855 106.219C345.855 106.219 340.995 111.399 341.965 113.669C342.527 115.126 342.527 116.741 341.965 118.199C341.965 118.199 340.965 121.109 341.315 122.729C341.665 124.349 341.965 126.939 341.965 126.939C341.965 126.939 340.025 136.329 343.905 138.599" stroke="#263238" stroke-miterlimit="10"/>
<path d="M431.325 121.438C431.325 121.438 425.175 126.938 424.845 133.738C424.515 140.538 423.845 142.478 423.845 142.478" stroke="#263238" stroke-miterlimit="10"/>
<path d="M447.925 90.5088C447.51 93.2125 446.84 95.871 445.925 98.4488" stroke="#263238" stroke-miterlimit="10"/>
<path d="M448.525 80.7788C448.585 82.1788 448.575 83.5388 448.525 84.8488" stroke="#263238" stroke-miterlimit="10"/>
<path d="M399.916 40.4986C399.916 40.4986 419.666 36.9286 436.826 54.0886C443.071 60.2211 447.073 68.2765 448.186 76.9586" stroke="#263238" stroke-miterlimit="10"/>
<path d="M322.545 66.9886C323.832 66.9886 324.875 65.9454 324.875 64.6586C324.875 63.3718 323.832 62.3286 322.545 62.3286C321.259 62.3286 320.215 63.3718 320.215 64.6586C320.215 65.9454 321.259 66.9886 322.545 66.9886Z" fill="#263238"/>
<path d="M370.295 104.549C371.582 104.549 372.625 103.505 372.625 102.219C372.625 100.932 371.582 99.8887 370.295 99.8887C369.009 99.8887 367.965 100.932 367.965 102.219C367.965 103.505 369.009 104.549 370.295 104.549Z" fill="#263238"/>
<path d="M366.516 144.149C367.802 144.149 368.846 143.106 368.846 141.819C368.846 140.532 367.802 139.489 366.516 139.489C365.229 139.489 364.186 140.532 364.186 141.819C364.186 143.106 365.229 144.149 366.516 144.149Z" fill="#263238"/>
<path d="M410.985 84.8485C410.985 84.3873 410.848 83.9364 410.592 83.553C410.335 83.1696 409.971 82.871 409.545 82.695C409.118 82.5189 408.649 82.4733 408.197 82.5641C407.745 82.6548 407.33 82.8777 407.004 83.2045C406.679 83.5314 406.458 83.9475 406.369 84.4001C406.28 84.8528 406.328 85.3216 406.505 85.7471C406.683 86.1727 406.984 86.5359 407.368 86.7907C407.752 87.0455 408.204 87.1805 408.665 87.1785C408.971 87.1785 409.273 87.1182 409.555 87.001C409.837 86.8838 410.094 86.712 410.309 86.4955C410.525 86.279 410.695 86.0221 410.811 85.7394C410.927 85.4568 410.987 85.154 410.985 84.8485Z" fill="#263238"/>
<path d="M405.536 50.6786C406.822 50.6786 407.866 49.6354 407.866 48.3486C407.866 47.0617 406.822 46.0186 405.536 46.0186C404.249 46.0186 403.206 47.0617 403.206 48.3486C403.206 49.6354 404.249 50.6786 405.536 50.6786Z" fill="#263238"/>
<path d="M365.465 53.5785C366.752 53.5785 367.795 52.5353 367.795 51.2485C367.795 49.9616 366.752 48.9185 365.465 48.9185C364.178 48.9185 363.135 49.9616 363.135 51.2485C363.135 52.5353 364.178 53.5785 365.465 53.5785Z" fill="#263238"/>
<path d="M443.386 102.219C444.673 102.219 445.716 101.175 445.716 99.8886C445.716 98.6018 444.673 97.5586 443.386 97.5586C442.099 97.5586 441.056 98.6018 441.056 99.8886C441.056 101.175 442.099 102.219 443.386 102.219Z" fill="#263238"/>
<path d="M57.1757 45.4092H53.0757" stroke="#263238" stroke-miterlimit="10"/>
<path d="M38.8057 92.479H57.1757C57.9851 92.4839 58.7815 92.2746 59.4839 91.8725C60.1864 91.4703 60.7701 90.8895 61.1757 90.189L72.0657 71.239C72.4685 70.5412 72.6806 69.7497 72.6806 68.944C72.6806 68.1383 72.4685 67.3468 72.0657 66.649L61.1557 47.709" stroke="#263238" stroke-miterlimit="10"/>
<path d="M49.2555 45.4092H35.2555C34.4452 45.4063 33.6486 45.6175 32.9462 46.0214C32.2438 46.4253 31.6606 47.0075 31.2555 47.7092L20.3855 66.6492C19.9826 67.347 19.7705 68.1385 19.7705 68.9442C19.7705 69.7499 19.9826 70.5414 20.3855 71.2392L31.3255 90.2392C31.731 90.9397 32.3147 91.5205 33.0172 91.9227C33.7197 92.3249 34.516 92.5341 35.3255 92.5292" stroke="#263238" stroke-miterlimit="10"/>
<path d="M71.9253 109.949L75.0653 115.369C75.4701 116.07 76.0536 116.652 76.7562 117.054C77.4589 117.456 78.2556 117.665 79.0653 117.659H100.945C101.755 117.665 102.552 117.456 103.254 117.054C103.957 116.652 104.54 116.07 104.945 115.369L115.885 96.3691C116.288 95.6732 116.5 94.8833 116.5 94.0791C116.5 93.275 116.288 92.485 115.885 91.7891L109.425 80.5991" stroke="#263238" stroke-miterlimit="10"/>
<path d="M69.1152 105.069L70.7252 107.859" stroke="#263238" stroke-miterlimit="10"/>
<path d="M107.355 77.1689L104.885 72.8889C104.481 72.1865 103.898 71.6037 103.195 71.1998C102.493 70.7958 101.696 70.585 100.885 70.5889H79.0654C78.255 70.585 77.458 70.7958 76.7554 71.1998C76.0528 71.6037 75.4697 72.1865 75.0654 72.8889L64.1254 91.8889C63.7224 92.5848 63.5103 93.3748 63.5103 94.1789C63.5103 94.9831 63.7224 95.773 64.1254 96.4689L67.3554 102.079" stroke="#263238" stroke-miterlimit="10"/>
<path d="M71.3057 28.3691L64.1257 40.7791C63.7228 41.4769 63.5107 42.2684 63.5107 43.0741C63.5107 43.8799 63.7228 44.6714 64.1257 45.3691L75.0657 64.3491C75.4705 65.0503 76.054 65.6317 76.7566 66.034C77.4593 66.4363 78.256 66.6451 79.0657 66.6391H100.946C101.755 66.6451 102.552 66.4363 103.255 66.034C103.957 65.6317 104.541 65.0503 104.946 64.3491L115.886 45.3991C116.289 44.7014 116.501 43.9099 116.501 43.1041C116.501 42.2984 116.289 41.5069 115.886 40.8091L115.066 39.5391" stroke="#263238" stroke-miterlimit="10"/>
<path d="M75.0652 21.8589L73.3452 24.8389" stroke="#263238" stroke-miterlimit="10"/>
<path d="M113.896 37.459L104.896 21.859C104.491 21.1578 103.907 20.5764 103.205 20.1741C102.502 19.7719 101.705 19.563 100.896 19.569H79.0656C78.7049 19.5671 78.3454 19.6108 77.9956 19.699" stroke="#263238" stroke-miterlimit="10"/>
<path d="M144.646 44.7789H122.766C121.956 44.773 121.159 44.9818 120.457 45.3841C119.754 45.7864 119.17 46.3677 118.766 47.0689L107.856 65.9889C107.453 66.6867 107.241 67.4782 107.241 68.2839C107.241 69.0896 107.453 69.8812 107.856 70.5789L118.796 89.5789C119.2 90.2801 119.784 90.8615 120.487 91.2638C121.189 91.666 121.986 91.8749 122.796 91.8689H144.676C145.485 91.8738 146.281 91.6646 146.984 91.2624C147.686 90.8602 148.27 90.2794 148.676 89.5789L159.606 70.5789C160.009 69.8812 160.221 69.0896 160.221 68.2839C160.221 67.4782 160.009 66.6867 159.606 65.9889L148.626 47.0389C148.218 46.347 147.636 45.774 146.937 45.3775C146.239 44.9809 145.449 44.7745 144.646 44.7789Z" stroke="#263238" stroke-miterlimit="10"/>
<path d="M100.645 122.779H78.7654C77.9557 122.773 77.159 122.982 76.4563 123.384C75.7537 123.786 75.1702 124.368 74.7654 125.069L63.8254 144.069C63.4225 144.767 63.2104 145.558 63.2104 146.364C63.2104 147.17 63.4225 147.961 63.8254 148.659L74.7654 167.609C75.1702 168.31 75.7537 168.892 76.4563 169.294C77.159 169.696 77.9557 169.905 78.7654 169.899H100.645C101.455 169.904 102.251 169.695 102.954 169.292C103.656 168.89 104.24 168.309 104.645 167.609L115.575 148.659C115.978 147.961 116.19 147.17 116.19 146.364C116.19 145.558 115.978 144.767 115.575 144.069L104.645 125.069C104.24 124.368 103.656 123.788 102.954 123.385C102.251 122.983 101.455 122.774 100.645 122.779Z" stroke="#263238" stroke-miterlimit="10"/>
<path d="M152.195 136.389L160.545 121.919C160.948 121.223 161.161 120.433 161.161 119.629C161.161 118.825 160.948 118.035 160.545 117.339L149.605 98.3391C149.201 97.6367 148.618 97.0539 147.915 96.65C147.213 96.246 146.416 96.0352 145.605 96.0391H123.755C122.945 96.0352 122.148 96.246 121.445 96.65C120.743 97.0539 120.16 97.6367 119.755 98.3391L108.815 117.339C108.412 118.035 108.2 118.825 108.2 119.629C108.2 120.433 108.412 121.223 108.815 121.919L119.755 140.919C120.16 141.621 120.743 142.204 121.445 142.608C122.148 143.012 122.945 143.223 123.755 143.219H141.275" stroke="#263238" stroke-miterlimit="10"/>
<path d="M145.635 143.169C146.446 143.173 147.243 142.962 147.945 142.558C148.648 142.154 149.231 141.571 149.635 140.869L150.295 139.729" stroke="#263238" stroke-miterlimit="10"/>
<path d="M100.875 101.199L103.545 101.799L104.165 99.0988L101.605 98.5188C101.605 98.4388 101.605 98.3588 101.605 98.2888C101.609 97.4668 101.442 96.653 101.115 95.8988L103.195 94.2388L101.465 92.0688L99.4655 93.6588C98.774 93.054 97.9529 92.6161 97.0655 92.3788V89.7788H94.2855V92.2588C93.375 92.4436 92.5174 92.8297 91.7755 93.3888L89.7755 91.7888L88.0655 93.9688L90.0655 95.5388C89.6496 96.3575 89.4273 97.2607 89.4155 98.1788L86.8555 98.7688L87.4755 101.469L89.9955 100.889C90.3742 101.702 90.9273 102.423 91.6155 102.999L90.4455 105.429L92.9455 106.639L94.0955 104.239C94.5667 104.355 95.0501 104.416 95.5355 104.419C95.925 104.415 96.3134 104.375 96.6955 104.299L97.8955 106.779L100.395 105.579L99.2255 103.169C99.9098 102.637 100.472 101.966 100.875 101.199ZM92.7655 98.2888C92.7655 97.7508 92.925 97.225 93.2239 96.7777C93.5227 96.3304 93.9476 95.9817 94.4446 95.7759C94.9416 95.57 95.4885 95.5161 96.0161 95.6211C96.5437 95.726 97.0284 95.9851 97.4088 96.3655C97.7892 96.7459 98.0483 97.2305 98.1532 97.7582C98.2582 98.2858 98.2043 98.8327 97.9984 99.3297C97.7926 99.8267 97.4439 100.252 96.9966 100.55C96.5493 100.849 96.0234 101.009 95.4855 101.009C94.7641 101.009 94.0722 100.722 93.5621 100.212C93.052 99.702 92.7655 99.0102 92.7655 98.2888Z" stroke="#263238" stroke-miterlimit="10"/>
<path d="M87.8755 90.2589L90.5355 90.8689L91.1555 88.1689L88.5955 87.5789C88.5955 87.4989 88.5955 87.4289 88.5955 87.3489C88.5968 86.5281 88.4336 85.7155 88.1155 84.9589L90.1855 83.3089L88.4555 81.1389L86.4555 82.7189C85.7577 82.1177 84.9343 81.6803 84.0455 81.4389V78.8589H81.2955V81.3389C80.3836 81.5194 79.5251 81.9059 78.7855 82.4689L76.7855 80.8689L75.0655 83.0389L77.0655 84.5989C76.6502 85.4213 76.4279 86.3276 76.4155 87.2489L73.8555 87.8289L74.4755 90.5289L76.9955 89.9589C77.3771 90.7679 77.9299 91.4844 78.6155 92.0589L77.4455 94.4989L79.9455 95.6989L81.0955 93.2989C81.5658 93.4202 82.0497 93.4807 82.5355 93.4789C82.9247 93.4784 83.3131 93.4416 83.6955 93.3689L84.8955 95.8489L87.3955 94.6489L86.2355 92.2289C86.9155 91.6958 87.4745 91.0243 87.8755 90.2589ZM79.7555 87.3489C79.7555 86.8109 79.915 86.285 80.2139 85.8377C80.5127 85.3904 80.9376 85.0418 81.4346 84.8359C81.9316 84.6301 82.4785 84.5762 83.0061 84.6812C83.5337 84.7861 84.0184 85.0452 84.3988 85.4256C84.7792 85.806 85.0383 86.2906 85.1432 86.8182C85.2482 87.3459 85.1943 87.8928 84.9884 88.3898C84.7825 88.8868 84.4339 89.3116 83.9866 89.6105C83.5393 89.9094 83.0134 90.0689 82.4755 90.0689C81.7541 90.0689 81.0622 89.7823 80.5521 89.2722C80.042 88.7621 79.7555 88.0703 79.7555 87.3489Z" stroke="#263238" stroke-miterlimit="10"/>
<path d="M139.137 69.8361C141.038 65.2737 138.882 60.0333 134.319 58.1314C129.757 56.2294 124.517 58.3862 122.615 62.9485C120.713 67.5109 122.869 72.7513 127.432 74.6532C131.994 76.5552 137.235 74.3985 139.137 69.8361Z" stroke="#263238" stroke-miterlimit="10"/>
<path d="M130.875 73.9988C135.073 73.9988 138.475 70.5962 138.475 66.3988C138.475 62.2015 135.073 58.7988 130.875 58.7988C126.678 58.7988 123.275 62.2015 123.275 66.3988C123.275 70.5962 126.678 73.9988 130.875 73.9988Z" stroke="#263238" stroke-miterlimit="10"/>
<path d="M140.945 75.8589L146.875 80.7789" stroke="#263238" stroke-width="3" stroke-miterlimit="10"/>
<path d="M137.385 72.9092L140.945 75.8592" stroke="#263238" stroke-width="2" stroke-miterlimit="10"/>
<path d="M32.6353 62.959H59.2353" stroke="#263238" stroke-miterlimit="10"/>
<path d="M38.3257 61.4888H35.5757V64.2388H38.3257V61.4888Z" fill="#263238"/>
<path d="M32.6353 69.189H59.2353" stroke="#263238" stroke-miterlimit="10"/>
<path d="M52.5356 67.729H49.7856V70.479H52.5356V67.729Z" fill="#263238"/>
<path d="M32.6353 75.4292H59.2353" stroke="#263238" stroke-miterlimit="10"/>
<path d="M46.2056 73.959H43.4556V76.709H46.2056V73.959Z" fill="#263238"/>
<path d="M134.065 145.109C135.225 145.109 136.165 144.169 136.165 143.009C136.165 141.849 135.225 140.909 134.065 140.909C132.906 140.909 131.965 141.849 131.965 143.009C131.965 144.169 132.906 145.109 134.065 145.109Z" fill="#263238"/>
<path d="M150.446 101.949C151.606 101.949 152.546 101.009 152.546 99.849C152.546 98.6892 151.606 97.749 150.446 97.749C149.286 97.749 148.346 98.6892 148.346 99.849C148.346 101.009 149.286 101.949 150.446 101.949Z" fill="#263238"/>
<path d="M88.8255 71.0492C88.8274 70.631 88.7051 70.2217 88.474 69.8732C88.2429 69.5247 87.9135 69.2527 87.5275 69.0917C87.1416 68.9308 86.7165 68.8882 86.3063 68.9693C85.896 69.0504 85.5192 69.2515 85.2235 69.5472C84.9278 69.8429 84.7266 70.2198 84.6455 70.63C84.5644 71.0402 84.6071 71.4653 84.768 71.8513C84.9289 72.2372 85.2009 72.5667 85.5494 72.7977C85.898 73.0288 86.3073 73.1512 86.7255 73.1492C87.2824 73.1492 87.8166 72.9279 88.2104 72.5341C88.6042 72.1403 88.8255 71.6061 88.8255 71.0492Z" fill="#263238"/>
<path d="M111.256 29.4989C111.256 29.0836 111.132 28.6776 110.902 28.3322C110.671 27.9869 110.343 27.7177 109.959 27.5588C109.576 27.3998 109.153 27.3582 108.746 27.4393C108.339 27.5203 107.964 27.7203 107.671 28.014C107.377 28.3077 107.177 28.6819 107.096 29.0892C107.015 29.4966 107.057 29.9188 107.216 30.3026C107.374 30.6863 107.644 31.0143 107.989 31.245C108.334 31.4758 108.74 31.5989 109.156 31.5989C109.712 31.5963 110.244 31.3742 110.638 30.9809C111.031 30.5877 111.253 30.0551 111.256 29.4989Z" fill="#263238"/>
<path d="M30.4553 85.3192C30.4573 84.901 30.335 84.4917 30.1039 84.1432C29.8728 83.7947 29.5434 83.5227 29.1574 83.3617C28.7715 83.2008 28.3464 83.1582 27.9362 83.2393C27.5259 83.3204 27.149 83.5215 26.8534 83.8172C26.5577 84.1129 26.3565 84.4898 26.2754 84.9C26.1943 85.3103 26.2369 85.7353 26.3979 86.1213C26.5588 86.5072 26.8308 86.8367 27.1793 87.0678C27.5278 87.2988 27.9372 87.4212 28.3553 87.4192C28.9123 87.4192 29.4464 87.1979 29.8403 86.8041C30.2341 86.4103 30.4553 85.8762 30.4553 85.3192Z" fill="#263238"/>
<path d="M95.7054 117.439C95.7054 117.024 95.5822 116.618 95.3515 116.272C95.1207 115.927 94.7927 115.658 94.409 115.499C94.0253 115.34 93.603 115.298 93.1957 115.379C92.7883 115.46 92.4141 115.66 92.1204 115.954C91.8268 116.248 91.6268 116.622 91.5457 117.029C91.4647 117.437 91.5063 117.859 91.6652 118.243C91.8242 118.626 92.0933 118.954 92.4387 119.185C92.784 119.416 93.19 119.539 93.6054 119.539C94.1615 119.536 94.6941 119.314 95.0874 118.921C95.4806 118.528 95.7027 117.995 95.7054 117.439Z" fill="#263238"/>
<path d="M68.3655 152.389C68.3655 151.974 68.2424 151.568 68.0116 151.222C67.7809 150.877 67.4529 150.608 67.0692 150.449C66.6854 150.29 66.2632 150.248 65.8558 150.329C65.4485 150.41 65.0743 150.61 64.7806 150.904C64.4869 151.198 64.2869 151.572 64.2059 151.979C64.1249 152.387 64.1664 152.809 64.3254 153.193C64.4843 153.576 64.7535 153.904 65.0988 154.135C65.4442 154.366 65.8502 154.489 66.2655 154.489C66.8225 154.489 67.3566 154.268 67.7505 153.874C68.1443 153.48 68.3655 152.946 68.3655 152.389Z" fill="#263238"/>
<path d="M110.915 138.129C112.075 138.129 113.015 137.189 113.015 136.029C113.015 134.869 112.075 133.929 110.915 133.929C109.756 133.929 108.815 134.869 108.815 136.029C108.815 137.189 109.756 138.129 110.915 138.129Z" fill="#263238"/>
<path d="M153.505 58.1092C154.665 58.1092 155.605 57.169 155.605 56.0092C155.605 54.8494 154.665 53.9092 153.505 53.9092C152.345 53.9092 151.405 54.8494 151.405 56.0092C151.405 57.169 152.345 58.1092 153.505 58.1092Z" fill="#263238"/>
<path d="M127.575 91.6891C127.579 91.2709 127.459 90.861 127.23 90.5114C127 90.1618 126.672 89.8883 126.287 89.7255C125.902 89.5627 125.477 89.5181 125.066 89.5972C124.656 89.6764 124.278 89.8757 123.981 90.17C123.684 90.4643 123.481 90.8402 123.397 91.25C123.314 91.6599 123.355 92.0851 123.514 92.4719C123.673 92.8586 123.944 93.1893 124.291 93.4221C124.638 93.6548 125.047 93.7791 125.465 93.7791C125.741 93.7804 126.014 93.7274 126.27 93.6231C126.525 93.5187 126.757 93.3652 126.953 93.1711C127.149 92.977 127.305 92.7462 127.412 92.492C127.518 92.2377 127.574 91.9649 127.575 91.6891Z" fill="#263238"/>
<path d="M69.9656 52.1788C69.9656 51.7611 69.8416 51.3527 69.6093 51.0055C69.377 50.6583 69.0469 50.3879 68.6607 50.2285C68.2746 50.0691 67.8498 50.0279 67.4403 50.1101C67.0307 50.1924 66.6548 50.3943 66.3601 50.6904C66.0654 50.9865 65.8652 51.3634 65.7849 51.7733C65.7047 52.1833 65.7479 52.6079 65.9091 52.9932C66.0703 53.3786 66.3423 53.7075 66.6906 53.9381C67.0389 54.1687 67.4479 54.2908 67.8656 54.2888C68.1422 54.2888 68.4161 54.2342 68.6716 54.128C68.927 54.0219 69.1589 53.8663 69.3541 53.6702C69.5492 53.4742 69.7037 53.2415 69.8086 52.9855C69.9136 52.7296 69.9669 52.4554 69.9656 52.1788Z" fill="#263238"/>
<path d="M14.1953 385.129V330.029C14.194 329.415 14.3138 328.806 14.5479 328.238C14.782 327.671 15.1258 327.155 15.5596 326.72C15.9934 326.285 16.5086 325.94 17.0759 325.705C17.6431 325.47 18.2512 325.349 18.8653 325.349H103.655C104.897 325.349 106.087 325.842 106.965 326.719C107.842 327.597 108.335 328.787 108.335 330.029V385.369" stroke="#263238" stroke-miterlimit="10"/>
<path d="M49.4454 391.438H45.0254" stroke="#263238" stroke-miterlimit="10"/>
<path d="M39.4454 391.439H10.3654C9.80169 391.441 9.24299 391.333 8.7214 391.119C8.19982 390.905 7.72563 390.59 7.32607 390.192C6.92652 389.795 6.60947 389.322 6.39313 388.801C6.17679 388.281 6.06542 387.722 6.06543 387.159V385.159H116.435V387.159C116.435 388.292 115.986 389.379 115.185 390.182C114.385 390.984 113.299 391.436 112.165 391.439H53.6354" stroke="#263238" stroke-miterlimit="10"/>
<path d="M54.5654 328.819H59.2154" stroke="#263238" stroke-miterlimit="10"/>
<path d="M62.7054 328.819H105.295V384.439H17.3354V328.819H48.2854" stroke="#263238" stroke-miterlimit="10"/>
<path d="M32.5955 325.029C32.5974 324.611 32.4751 324.201 32.244 323.853C32.0129 323.504 31.6835 323.232 31.2976 323.071C30.9116 322.91 30.4865 322.868 30.0763 322.949C29.6661 323.03 29.2892 323.231 28.9935 323.527C28.6978 323.822 28.4966 324.199 28.4155 324.61C28.3345 325.02 28.3771 325.445 28.538 325.831C28.699 326.217 28.9709 326.546 29.3195 326.777C29.668 327.008 30.0773 327.131 30.4955 327.129C31.0516 327.126 31.5842 326.904 31.9775 326.511C32.3707 326.117 32.5928 325.585 32.5955 325.029Z" fill="#263238"/>
<path d="M115.665 385.289C115.665 384.871 115.541 384.463 115.309 384.115C115.077 383.768 114.747 383.498 114.36 383.338C113.974 383.179 113.55 383.138 113.14 383.22C112.73 383.302 112.354 383.504 112.06 383.8C111.765 384.096 111.565 384.473 111.485 384.883C111.404 385.293 111.448 385.718 111.609 386.103C111.77 386.488 112.042 386.817 112.39 387.048C112.739 387.279 113.148 387.401 113.565 387.399C113.842 387.399 114.116 387.344 114.371 387.238C114.627 387.132 114.859 386.976 115.054 386.78C115.249 386.584 115.403 386.351 115.508 386.095C115.613 385.839 115.667 385.565 115.665 385.289Z" fill="#263238"/>
<path d="M100.185 329.058C100.187 328.641 100.065 328.232 99.8346 327.884C99.6039 327.535 99.2751 327.263 98.8897 327.102C98.5044 326.941 98.0798 326.898 97.6698 326.978C97.2599 327.058 96.883 327.258 96.5869 327.553C96.2908 327.848 96.0888 328.224 96.0066 328.633C95.9244 329.043 95.9656 329.467 96.125 329.854C96.2844 330.24 96.5548 330.57 96.902 330.802C97.2492 331.034 97.6576 331.158 98.0753 331.158C98.6332 331.158 99.1684 330.938 99.5638 330.544C99.9592 330.15 100.183 329.616 100.185 329.058Z" fill="#263238"/>
<path d="M24.0652 391.179C24.0652 390.762 23.9415 390.354 23.7096 390.007C23.4778 389.66 23.1482 389.389 22.7627 389.229C22.3771 389.07 21.9529 389.028 21.5436 389.109C21.1343 389.191 20.7583 389.392 20.4632 389.687C20.1681 389.982 19.9672 390.358 19.8858 390.767C19.8043 391.177 19.8461 391.601 20.0058 391.986C20.1655 392.372 20.436 392.701 20.783 392.933C21.13 393.165 21.5379 393.289 21.9552 393.289C22.2327 393.29 22.5077 393.237 22.7642 393.131C23.0208 393.025 23.254 392.87 23.4502 392.674C23.6464 392.478 23.8017 392.244 23.9073 391.988C24.0129 391.731 24.0665 391.456 24.0652 391.179Z" fill="#263238"/>
<path d="M86.5254 290.549C86.5254 291.27 86.2388 291.962 85.7287 292.472C85.2186 292.982 84.5268 293.269 83.8054 293.269H37.9754C37.254 293.269 36.5621 292.982 36.052 292.472C35.5419 291.962 35.2554 291.27 35.2554 290.549V205.099C35.2554 204.378 35.5419 203.686 36.052 203.176C36.5621 202.665 37.254 202.379 37.9754 202.379H83.8054C84.5268 202.379 85.2186 202.665 85.7287 203.176C86.2388 203.686 86.5254 204.378 86.5254 205.099V282.189" stroke="#263238" stroke-miterlimit="10"/>
<path d="M73.2852 210.629H83.4652V285.019H38.3052V273.799" stroke="#263238" stroke-miterlimit="10"/>
<path d="M63.8452 210.629H69.0852" stroke="#263238" stroke-miterlimit="10"/>
<path d="M38.3052 268.559V210.629H59.6452" stroke="#263238" stroke-miterlimit="10"/>
<path d="M62.4855 288.379C62.4855 288.046 62.387 287.722 62.2024 287.445C62.0178 287.169 61.7554 286.954 61.4484 286.827C61.1414 286.699 60.8036 286.666 60.4777 286.731C60.1519 286.796 59.8525 286.956 59.6176 287.191C59.3826 287.426 59.2226 287.725 59.1578 288.051C59.0929 288.377 59.1262 288.715 59.2534 289.022C59.3805 289.329 59.5959 289.591 59.8721 289.776C60.1484 289.96 60.4732 290.059 60.8055 290.059C61.2511 290.059 61.6784 289.882 61.9934 289.567C62.3085 289.252 62.4855 288.824 62.4855 288.379Z" stroke="#263238" stroke-miterlimit="10"/>
<path d="M61.5955 202.779C61.5974 202.361 61.4751 201.951 61.244 201.603C61.013 201.254 60.6835 200.982 60.2976 200.821C59.9116 200.66 59.4865 200.618 59.0763 200.699C58.6661 200.78 58.2892 200.981 57.9935 201.277C57.6978 201.572 57.4966 201.949 57.4155 202.359C57.3345 202.77 57.3771 203.195 57.538 203.581C57.699 203.967 57.9709 204.296 58.3195 204.527C58.668 204.758 59.0773 204.881 59.4955 204.879C60.0524 204.879 60.5866 204.657 60.9804 204.264C61.3742 203.87 61.5955 203.336 61.5955 202.779Z" fill="#263238"/>
<path d="M76.4353 284.639C76.4373 284.221 76.3152 283.812 76.0846 283.464C75.8539 283.115 75.5251 282.843 75.1397 282.682C74.7544 282.521 74.3298 282.478 73.9198 282.558C73.5099 282.638 73.133 282.838 72.8369 283.133C72.5408 283.428 72.3388 283.804 72.2566 284.213C72.1744 284.623 72.2156 285.048 72.375 285.434C72.5344 285.82 72.8048 286.15 73.152 286.382C73.4992 286.615 73.9076 286.739 74.3253 286.739C74.8832 286.739 75.4184 286.518 75.8138 286.124C76.2092 285.731 76.4327 285.196 76.4353 284.639Z" fill="#263238"/>
<path d="M86.5556 246.899C87.7154 246.899 88.6556 245.959 88.6556 244.799C88.6556 243.639 87.7154 242.699 86.5556 242.699C85.3958 242.699 84.4556 243.639 84.4556 244.799C84.4556 245.959 85.3958 246.899 86.5556 246.899Z" fill="#263238"/>
<path d="M47.4256 292.669C47.4256 292.251 47.3016 291.842 47.0693 291.495C46.837 291.148 46.5068 290.878 46.1207 290.718C45.7346 290.559 45.3098 290.518 44.9002 290.6C44.4907 290.682 44.1147 290.884 43.82 291.18C43.5253 291.476 43.3252 291.853 43.2449 292.263C43.1646 292.673 43.2078 293.098 43.3691 293.483C43.5303 293.868 43.8023 294.197 44.1506 294.428C44.4989 294.658 44.9078 294.781 45.3256 294.779C45.6022 294.779 45.8761 294.724 46.1315 294.618C46.387 294.512 46.6189 294.356 46.814 294.16C47.0092 293.964 47.1636 293.731 47.2686 293.475C47.3735 293.219 47.4269 292.945 47.4256 292.669Z" fill="#263238"/>
<path d="M46.3753 210.199C46.3772 209.78 46.2549 209.371 46.0238 209.023C45.7927 208.674 45.4633 208.402 45.0773 208.241C44.6914 208.08 44.2663 208.038 43.8561 208.119C43.4459 208.2 43.069 208.401 42.7733 208.697C42.4776 208.992 42.2764 209.369 42.1953 209.779C42.1142 210.19 42.1569 210.615 42.3178 211.001C42.4787 211.387 42.7507 211.716 43.0993 211.947C43.4478 212.178 43.8571 212.301 44.2753 212.299C44.8322 212.299 45.3663 212.077 45.7602 211.684C46.154 211.29 46.3753 210.756 46.3753 210.199Z" fill="#263238"/>
<path d="M300.235 13.8589H241.175C240.75 13.8589 240.329 13.9428 239.937 14.1057C239.544 14.2687 239.188 14.5075 238.888 14.8085C238.588 15.1095 238.35 15.4667 238.188 15.8597C238.027 16.2528 237.944 16.6739 237.945 17.0989V47.3189C237.944 47.7434 238.027 48.164 238.189 48.5565C238.35 48.949 238.588 49.3056 238.888 49.6058C239.189 49.906 239.545 50.1438 239.938 50.3057C240.33 50.4676 240.751 50.5502 241.175 50.5489H273.475L268.475 65.4089L281.105 50.5489H300.195C301.052 50.5489 301.874 50.2086 302.479 49.6028C303.085 48.9971 303.425 48.1755 303.425 47.3189V17.0989C303.425 16.2482 303.091 15.4316 302.494 14.8254C301.897 14.2192 301.086 13.872 300.235 13.8589Z" stroke="#263238" stroke-miterlimit="10"/>
<path d="M284.225 24.2988H295.835" stroke="#263238" stroke-miterlimit="10"/>
<path d="M276.345 24.2988H281.115" stroke="#263238" stroke-miterlimit="10"/>
<path d="M257.075 24.2988H271.785" stroke="#263238" stroke-miterlimit="10"/>
<path d="M247.585 24.2988H253.345" stroke="#263238" stroke-miterlimit="10"/>
<path d="M292.305 31.9189H295.835" stroke="#263238" stroke-miterlimit="10"/>
<path d="M261.425 31.9189H289.815" stroke="#263238" stroke-miterlimit="10"/>
<path d="M247.585 31.9189H258.525" stroke="#263238" stroke-miterlimit="10"/>
<path d="M291.475 39.5391H295.835" stroke="#263238" stroke-miterlimit="10"/>
<path d="M282.355 39.5391H286.915" stroke="#263238" stroke-miterlimit="10"/>
<path d="M256.865 39.5391H278.415" stroke="#263238" stroke-miterlimit="10"/>
<path d="M247.585 39.5391H254.385" stroke="#263238" stroke-miterlimit="10"/>
<path d="M288.675 315.499H175.405V365.739H288.675V315.499Z" fill="#263238" stroke="#263238" stroke-miterlimit="10"/>
<path d="M240.726 317.189H223.596V323.739H240.726V317.189Z" fill="white" stroke="#263238" stroke-miterlimit="10"/>
<path d="M309.136 183.859C309.136 182.669 306.436 180.859 302.246 178.469C298.056 176.079 258.516 158.099 258.516 158.099L235.146 156.889V156.599L232.446 156.749L229.756 156.599V156.889L206.386 158.099C206.386 158.099 166.846 176.099 162.656 178.469C158.466 180.839 155.766 182.669 155.766 183.859C155.766 185.049 173.316 297.779 173.636 300.939C173.956 304.099 173.636 313.209 173.636 315.409C173.636 317.609 178.356 318.869 178.356 318.869H286.546C286.546 318.869 291.266 317.609 291.266 315.409C291.266 313.209 290.956 304.089 291.266 300.939C291.576 297.789 309.136 185.059 309.136 183.859Z" fill="#9668FF" stroke="#263238" stroke-miterlimit="10"/>
<path d="M302.246 178.469C298.056 176.079 258.516 158.099 258.516 158.099L235.146 156.889V156.599L232.446 156.749L229.756 156.599V156.889L206.386 158.099C206.386 158.099 166.846 176.099 162.656 178.469C158.466 180.839 155.766 182.669 155.766 183.859C155.766 184.269 157.766 197.249 160.386 214.439L161.636 215.439C161.636 215.439 168.696 191.439 189.876 181.559C211.056 171.679 219.516 168.849 239.986 168.849C259.186 168.849 293.886 196.769 304.546 214.219C307.166 197.129 309.136 184.219 309.136 183.829C309.136 182.669 306.436 180.869 302.246 178.469Z" fill="#263238" stroke="#263238" stroke-miterlimit="10"/>
<path d="M220.166 179.969L231.556 191.049L216.576 293.799L231.776 317.119L249.286 293.519L237.846 190.749L248.626 179.369L234.846 164.689L220.166 179.969Z" fill="#263238" stroke="#263238" stroke-miterlimit="10"/>
<path d="M255.386 71.3989C252.116 70.6989 244.836 69.2189 239.006 68.0489V66.3589L234.806 67.1989L230.616 66.3589V68.0489C224.786 69.2189 217.496 70.6989 214.236 71.3989C208.356 72.6589 204.786 72.6589 204.786 78.5389C204.786 78.5389 206.466 120.739 207.306 124.729C208.146 128.719 208.776 133.959 211.506 136.269C214.236 138.579 214.446 139.419 214.446 139.419V152.019C214.446 152.019 224.526 173.639 226.446 175.119C228.793 177.104 231.767 178.193 234.841 178.193C237.914 178.193 240.889 177.104 243.236 175.119C245.126 173.649 255.236 152.019 255.236 152.019V139.419C255.236 139.419 255.446 138.579 258.176 136.269C260.906 133.959 261.536 128.719 262.376 124.729C263.216 120.739 264.896 78.5389 264.896 78.5389C264.836 72.6589 261.266 72.6589 255.386 71.3989Z" fill="white" stroke="#263238" stroke-miterlimit="10"/>
<path d="M216.756 78.119C216.756 78.119 237.536 86.719 243.416 86.719C249.296 86.719 242.786 83.999 242.786 83.999C242.786 83.999 250.976 86.719 254.126 86.719H257.276C257.276 86.719 257.696 92.599 258.116 93.229C258.536 93.859 258.326 94.699 258.956 95.119C259.477 95.5006 259.969 95.9219 260.425 96.379C260.425 96.379 261.896 119.269 262.736 121.579C263.576 123.889 265.066 87.779 265.066 87.779C266.085 86.6575 266.841 85.3218 267.277 83.8699C267.713 82.418 267.819 80.8869 267.586 79.389C266.956 73.929 255.196 64.899 242.806 60.699C238.421 59.1273 233.695 58.7621 229.121 59.6417C224.548 60.5212 220.294 62.6132 216.806 65.699C212.606 69.479 211.976 71.159 211.976 71.159C211.976 71.159 205.466 70.739 204.416 73.259C203.366 75.779 207.776 120.499 207.776 120.499L208.826 96.349C208.826 96.349 212.186 92.779 212.396 90.889C212.606 88.999 214.706 80.609 214.706 80.609C214.706 80.609 217.856 82.499 218.706 81.869C219.556 81.239 216.756 78.119 216.756 78.119Z" fill="#263238" stroke="#263238" stroke-miterlimit="10"/>
<path d="M206.465 107.509C206.465 107.509 205.205 105.619 203.735 106.879C202.265 108.139 201.005 116.539 201.845 118.639C202.685 120.739 203.945 123.889 204.995 124.099C205.776 124.269 206.547 124.479 207.305 124.729L206.465 107.509Z" fill="#263238" stroke="#263238" stroke-miterlimit="10"/>
<path d="M263.305 107.509C263.305 107.509 264.565 105.619 266.035 106.879C267.505 108.139 268.765 116.539 267.925 118.639C267.085 120.739 265.825 123.889 264.775 124.099C263.995 124.269 263.224 124.479 262.465 124.729L263.305 107.509Z" fill="#263238" stroke="#263238" stroke-miterlimit="10"/>
<path d="M212.346 94.9093C212.346 94.9093 214.446 90.9093 218.016 90.4993C221.586 90.0893 230.016 92.1793 229.356 94.9093C228.696 97.6393 212.346 94.9093 212.346 94.9093Z" fill="#263238" stroke="#263238" stroke-miterlimit="10"/>
<path d="M257.305 94.9093C257.305 94.9093 255.205 90.9093 251.635 90.4993C248.065 90.0893 239.635 92.1793 240.305 94.9093C240.975 97.6393 257.305 94.9093 257.305 94.9093Z" fill="#263238" stroke="#263238" stroke-miterlimit="10"/>
<path d="M229.655 107.509H212.065C211.481 107.509 210.92 107.277 210.506 106.865C210.092 106.453 209.858 105.893 209.855 105.309L209.005 96.4888C209.005 95.9044 209.237 95.3438 209.649 94.9296C210.061 94.5155 210.621 94.2815 211.205 94.2788H230.525C230.815 94.2788 231.102 94.336 231.37 94.4472C231.637 94.5584 231.88 94.7214 232.085 94.9267C232.289 95.1321 232.451 95.3758 232.561 95.6438C232.671 95.9119 232.727 96.1991 232.725 96.4888L231.875 105.309C231.875 105.599 231.818 105.887 231.706 106.155C231.594 106.424 231.43 106.667 231.224 106.872C231.018 107.076 230.773 107.238 230.503 107.347C230.234 107.456 229.946 107.511 229.655 107.509Z" fill="white" stroke="#263238" stroke-miterlimit="10"/>
<path d="M256.945 107.509H239.335C238.752 107.509 238.192 107.277 237.78 106.864C237.367 106.452 237.135 105.892 237.135 105.309L236.275 96.4888C236.275 95.9027 236.508 95.3406 236.923 94.9261C237.337 94.5116 237.899 94.2788 238.485 94.2788H257.795C258.382 94.2788 258.944 94.5116 259.358 94.9261C259.773 95.3406 260.005 95.9027 260.005 96.4888L259.155 105.309C259.153 105.893 258.919 106.453 258.505 106.865C258.09 107.277 257.53 107.509 256.945 107.509Z" fill="white" stroke="#263238" stroke-miterlimit="10"/>
<path d="M238.485 94.2788H230.505" stroke="#263238" stroke-miterlimit="10"/>
<path d="M232.706 96.4893H236.276" stroke="#263238" stroke-miterlimit="10"/>
<path d="M232.495 98.2692C232.495 98.2692 229.565 108.769 229.565 110.029C229.558 110.381 229.654 110.727 229.84 111.026C230.027 111.324 230.296 111.562 230.615 111.709C230.615 111.709 231.615 108.139 232.705 107.709C233.795 107.279 237.115 107.499 237.115 107.499L239.215 111.699C239.478 111.452 239.689 111.155 239.835 110.825C239.981 110.495 240.059 110.14 240.065 109.779C240.275 108.309 236.495 98.0192 236.495 98.0192C236.495 98.0192 233.545 97.2192 232.495 98.2692Z" fill="#263238" stroke="#263238" stroke-miterlimit="10"/>
<path d="M224.385 144.019C224.913 144.196 225.451 144.343 225.995 144.459" stroke="#263238" stroke-miterlimit="10"/>
<path d="M214.445 139.419C217.044 140.842 219.714 142.13 222.445 143.279" stroke="#263238" stroke-miterlimit="10"/>
<path d="M255.176 138.779C255.176 138.779 250.346 142.979 245.936 143.609" stroke="#263238" stroke-miterlimit="10"/>
<path d="M224.735 124.939C228.4 124.172 232.117 123.68 235.855 123.469C238.875 123.639 241.851 124.276 244.675 125.359C244.675 125.359 240.265 119.269 238.585 118.639C236.905 118.009 232.285 118.639 230.825 118.639C229.365 118.639 224.735 124.939 224.735 124.939Z" fill="#263238" stroke="#263238" stroke-linejoin="round"/>
<path d="M240.895 129.099C240.895 129.099 233.125 128.889 230.405 129.099C227.685 129.309 227.255 132.669 227.255 132.669C229.862 131.896 232.544 131.403 235.255 131.199C237.87 131.337 240.468 131.688 243.025 132.249C243.025 132.249 243.415 130.569 240.895 129.099Z" fill="#263238" stroke="#263238" stroke-linejoin="round"/>
<path d="M155.765 183.859L124.605 266.239L152.465 279.119L167.745 249.769L155.765 183.859Z" fill="#9668FF" stroke="#263238" stroke-miterlimit="10"/>
<path d="M162.826 259.229C161.756 257.349 160.166 254.719 157.826 251.229C154.638 246.431 150.918 242.01 146.736 238.049C148.966 238.874 151.08 239.983 153.026 241.349C157.226 244.039 159.616 245.539 158.716 241.949C157.816 238.359 149.136 226.669 148.536 224.569C147.936 222.469 151.536 222.179 152.426 218.569C153.146 215.699 155.786 197.109 156.806 189.789L155.726 183.789L124.576 266.169L132.346 269.769H142.246L160.116 264.289L162.826 259.229Z" fill="#263238" stroke="#263238" stroke-miterlimit="10"/>
<path d="M158.455 256.659C158.455 256.659 145.875 255.779 141.065 255.779C136.255 255.779 129.065 256.379 126.385 260.869C123.705 265.359 122.795 279.439 126.385 287.229C129.975 295.019 140.165 297.119 145.855 296.819C151.545 296.519 162.335 288.129 163.855 283.939C165.375 279.749 163.555 270.159 162.055 265.059C161.219 262.117 160.009 259.294 158.455 256.659Z" fill="#9668FF" stroke="#263238" stroke-miterlimit="10"/>
<path d="M158.456 256.659C158.456 256.659 147.976 258.749 147.976 265.339C147.976 271.929 151.276 278.519 155.166 279.719C159.056 280.919 164.456 277.329 164.456 277.329C164.456 277.329 168.046 274.929 166.546 267.739C165.046 260.549 161.156 256.959 158.456 256.659Z" fill="#9668FF" stroke="#263238" stroke-miterlimit="10"/>
<path d="M165.646 244.369C165.646 244.369 168.946 239.279 169.846 238.079C170.746 236.879 174.036 233.589 175.846 230.589C177.656 227.589 179.736 224.589 180.336 228.799C180.936 233.009 176.746 237.479 175.846 238.679L171.356 244.679C171.356 244.679 165.346 247.969 165.646 244.369Z" fill="white" stroke="#263238" stroke-miterlimit="10"/>
<path d="M157.266 262.049C157.266 262.049 159.356 250.049 161.156 247.669C162.956 245.289 175.836 236.889 178.536 235.389C181.236 233.889 198.306 234.189 198.306 234.189C198.306 234.189 202.796 235.389 200.096 237.189C197.396 238.989 190.816 238.379 190.816 238.379L180.626 243.479L190.816 241.379L200.996 242.879C200.996 242.879 203.096 244.669 202.196 246.169C201.296 247.669 195.006 247.669 195.006 247.669H190.216L179.126 252.779L191.416 250.979C191.416 250.979 199.196 249.489 199.496 251.579C199.796 253.669 197.406 255.479 195.906 255.479C194.076 255.712 192.272 256.114 190.516 256.679L183.066 259.349L194.446 257.549C194.446 257.549 195.046 259.349 194.146 260.249C193.246 261.149 182.146 265.339 182.146 265.339C182.146 265.339 171.666 269.539 170.146 270.739C168.626 271.939 165.946 275.229 160.856 274.629C155.766 274.029 156.066 263.849 157.266 262.049Z" fill="white" stroke="#263238" stroke-miterlimit="10"/>
<path d="M183.025 259.349L179.125 260.849" stroke="#263238" stroke-miterlimit="10"/>
<path d="M180.626 243.479L176.436 244.969" stroke="#263238" stroke-miterlimit="10"/>
<path d="M309.085 183.859L340.235 266.239L312.375 279.119L297.105 249.769L309.085 183.859Z" fill="#9668FF" stroke="#263238" stroke-miterlimit="10"/>
<path d="M302.065 259.229C303.135 257.349 304.725 254.719 307.065 251.229C310.227 246.446 313.917 242.035 318.065 238.079C315.835 238.903 313.721 240.013 311.775 241.379C307.575 244.069 305.185 245.569 306.075 241.979C306.965 238.389 315.665 226.699 316.265 224.599C316.865 222.499 313.265 222.209 312.375 218.599C311.655 215.729 309.015 197.139 307.995 189.819L309.075 183.819L340.225 266.199L332.455 269.799H322.555L304.685 264.319L302.065 259.229Z" fill="#263238" stroke="#263238" stroke-miterlimit="10"/>
<path d="M213.876 146.719L228.556 172.179L216.276 190.159L204.896 157.799L213.876 146.719Z" fill="#9668FF" stroke="#263238" stroke-miterlimit="10"/>
<path d="M255.515 146.719L240.835 172.179L253.115 190.159L264.505 157.799L255.515 146.719Z" fill="#9668FF" stroke="#263238" stroke-miterlimit="10"/>
<path d="M306.386 256.659C306.386 256.659 318.976 255.759 323.766 255.759C328.556 255.759 335.766 256.359 338.446 260.849C341.126 265.339 342.036 279.419 338.446 287.209C334.856 294.999 324.666 297.099 318.976 296.799C313.286 296.499 302.496 288.109 300.976 283.919C299.456 279.729 301.276 270.139 302.776 265.039C303.62 262.105 304.833 259.289 306.386 256.659Z" fill="#9668FF" stroke="#263238" stroke-miterlimit="10"/>
<path d="M306.385 256.659C306.385 256.659 316.875 258.749 316.875 265.339C316.875 271.929 313.575 278.519 309.685 279.719C305.795 280.919 300.395 277.329 300.395 277.329C300.395 277.329 296.805 274.929 298.305 267.739C299.805 260.549 303.695 256.959 306.385 256.659Z" fill="#9668FF" stroke="#263238" stroke-miterlimit="10"/>
<path d="M299.206 244.369C299.206 244.369 295.906 239.279 295.006 238.079C294.106 236.879 290.816 233.589 289.006 230.589C287.196 227.589 285.116 224.589 284.516 228.799C283.916 233.009 288.106 237.479 289.006 238.679L293.496 244.679C293.496 244.679 299.496 247.969 299.206 244.369Z" fill="white" stroke="#263238" stroke-miterlimit="10"/>
<path d="M307.586 262.049C307.586 262.049 305.496 250.049 303.696 247.669C301.896 245.289 289.066 236.889 286.316 235.389C283.566 233.889 266.546 234.189 266.546 234.189C266.546 234.189 262.056 235.389 264.756 237.189C267.456 238.989 274.066 238.379 274.066 238.379L284.256 243.479L274.066 241.379L263.886 242.879C263.886 242.879 261.786 244.669 262.686 246.169C263.586 247.669 269.876 247.669 269.876 247.669H274.666L285.726 252.779L273.436 250.979C273.436 250.979 265.656 249.489 265.356 251.579C265.056 253.669 267.446 255.479 268.946 255.479C270.775 255.712 272.58 256.114 274.336 256.679L281.826 259.369L270.446 257.569C270.446 257.569 269.846 259.369 270.746 260.269C271.646 261.169 282.746 265.359 282.746 265.359C282.746 265.359 293.226 269.559 294.746 270.759C296.266 271.959 298.946 275.249 304.036 274.649C309.126 274.049 308.786 263.849 307.586 262.049Z" fill="white" stroke="#263238" stroke-miterlimit="10"/>
<path d="M281.826 259.349L285.726 260.849" stroke="#263238" stroke-miterlimit="10"/>
<path d="M284.226 243.479L288.416 244.969" stroke="#263238" stroke-miterlimit="10"/>
<path d="M184.806 363.549V369.089H244.756V373.119H209.486V376.139H258.356V371.099H250.296V368.079H283.546V360.519" fill="#263238"/>
<path d="M184.806 363.549V369.089H244.756V373.119H209.486V376.139H258.356V371.099H250.296V368.079H283.546V360.519" stroke="#263238" stroke-miterlimit="10"/>
<path d="M203.445 374.129H191.855V376.649H203.445V374.129Z" fill="#263238" stroke="#263238" stroke-miterlimit="10"/>
<path d="M198.896 386.899H190.976V392.699H198.896V386.899Z" stroke="#263238" stroke-miterlimit="10"/>
<path d="M221.586 393.229H216.306V396.399H221.586V393.229Z" stroke="#263238" stroke-miterlimit="10"/>
<path d="M244.795 391.649H236.355V394.289H244.795V391.649Z" stroke="#263238" stroke-miterlimit="10"/>
<path d="M231.086 406.429H225.806V409.599H231.086V406.429Z" stroke="#263238" stroke-miterlimit="10"/>
<path d="M251.655 397.979H247.965V400.089H251.655V397.979Z" stroke="#263238" stroke-miterlimit="10"/>
<path d="M272.236 385.849H254.826V391.129H272.236V385.849Z" stroke="#263238" stroke-miterlimit="10"/>
<path d="M213.135 405.369H204.695V409.589H213.135V405.369Z" stroke="#263238" stroke-miterlimit="10"/>
<path d="M233.716 420.139H229.496V422.249H233.716V420.139Z" stroke="#263238" stroke-miterlimit="10"/>
<path d="M228.635 380.679H211.505V383.699H228.635V380.679Z" fill="#263238" stroke="#263238" stroke-miterlimit="10"/>
<path d="M254.326 378.659H243.746V380.169H254.326V378.659Z" fill="#263238" stroke="#263238" stroke-miterlimit="10"/>
<path d="M272.465 370.599H261.885V372.619H272.465V370.599Z" fill="#263238" stroke="#263238" stroke-miterlimit="10"/>
<path d="M183.295 370.599H178.255V375.639H183.295V370.599Z" fill="#263238" stroke="#263238" stroke-miterlimit="10"/>
<path d="M283.045 374.129H278.005V379.169H283.045V374.129Z" fill="#263238" stroke="#263238" stroke-miterlimit="10"/>
<path d="M171.846 417.679L182.066 448.779" stroke="#263238" stroke-miterlimit="10"/>
<path d="M169.036 409.119L170.566 413.779" stroke="#263238" stroke-miterlimit="10"/>
<path d="M137.065 311.779L167.455 404.309" stroke="#263238" stroke-miterlimit="10"/>
<path d="M199.065 414.779L204.065 440.779" stroke="#263238" stroke-miterlimit="10"/>
<path d="M320.045 339.229L284.065 448.779" stroke="#263238" stroke-miterlimit="10"/>
<path d="M323.445 328.899L321.275 335.499" stroke="#263238" stroke-miterlimit="10"/>
<path d="M329.065 311.779L325.905 321.399" stroke="#263238" stroke-miterlimit="10"/>
<path d="M267.065 414.779L262.065 440.779" stroke="#263238" stroke-miterlimit="10"/>
</g>
<defs>
<clipPath id="clip0_2029_678">
<rect width="457" height="449" fill="white"/>
</clipPath>
</defs>
</svg>
