<svg xmlns="http://www.w3.org/2000/svg" viewBox="0 0 442.4 270.9">
  <defs>
    <linearGradient id="a" x1="180.7" y1="80.7" x2="142.6" y2="158.4" gradientUnits="userSpaceOnUse">
      <stop offset="0" stop-color="#3f873f"/>
      <stop offset=".3" stop-color="#3f8b3d"/>
      <stop offset=".6" stop-color="#3e9637"/>
      <stop offset=".9" stop-color="#3da92e"/>
      <stop offset="1" stop-color="#3dae2b"/>
    </linearGradient>
    <linearGradient id="b" x1="157.2" y1="121.3" x2="264" y2="42.4" gradientUnits="userSpaceOnUse">
      <stop offset=".1" stop-color="#3f873f"/>
      <stop offset=".4" stop-color="#52a044"/>
      <stop offset=".7" stop-color="#64b749"/>
      <stop offset=".9" stop-color="#6abf4b"/>
    </linearGradient>
    <linearGradient id="c" x1="114.3" y1="53.8" x2="212" y2="53.8" gradientUnits="userSpaceOnUse">
      <stop offset=".1" stop-color="#3f873f"/>
      <stop offset=".4" stop-color="#52a044"/>
      <stop offset=".7" stop-color="#64b749"/>
      <stop offset=".9" stop-color="#6abf4b"/>
    </linearGradient>
  </defs>
  <path d="M218.7 271a16.7 16.7 0 01-8.3-2.3l-26.4-15.6c-4-2.2-2-3-1-3.4a39 39 0 0011.3-5.1c.6-.3 1.3-.2 1.8.1l20.3 12c.7.4 1.6.4 2.2 0l79.2-45.7c.7-.4 1.1-1.2 1.1-2V91.2c0-.8-.4-1.6-1.1-2l-79-45.7a2.2 2.2 0 00-2.2 0l-79 45.7c-.7.4-1.1 1.2-1.1 2V209c0 .8.4 1.5 1 1.9l21.7 12.5c11.1 5.5 17.9-1 17.9-7.5v-116c0-1.2 1-2.2 2.2-2.2h10c1.2 0 2.2 1 2.2 2.2v116c0 14.8-8 23.2-22.1 23.2-4.3 0-7.7 0-17.2-4.7l-20.7-11.9a16.8 16.8 0 01-8.3-14.5V91.2c0-6 3.2-11.6 8.3-14.5l79.1-45.7a17.3 17.3 0 0116.6 0l79.1 45.7a16.8 16.8 0 018.3 14.5V209c0 6-3.2 11.5-8.3 14.5l-79.1 45.7a16.7 16.7 0 01-8.3 2.3z" fill="#689f63"/>
  <path d="M258.9 185.5c-34.6 0-41.9-16-41.9-29.2 0-1.2 1-2.2 2.2-2.2h10.2c1.1 0 2 .8 2.2 1.9 1.5 10 5.8 15 27.3 15 16.8 0 24-3.8 24-12.7 0-5.1-2-9-28.2-11.6-21.8-2.2-35.4-7-35.4-24.4 0-16 13.5-25.6 36.2-25.6 25.4 0 38 8.8 39.6 27.8a2.2 2.2 0 01-2.2 2.4h-10.3c-1 0-1.9-.7-2.1-1.7-2.4-10.6-8.1-14-25-14-18.4 0-20.6 6.4-20.6 11.2 0 5.8 2.5 7.5 27.3 10.8 24.5 3.2 36.3 7.8 36.3 25 0 17.4-14.5 27.1-39.6 27.1z" fill="#689f63"/>
  <path d="M331 108.8a6 6 0 00-6 6c0 3.3 2.7 6 6 6a6 6 0 006-6 6 6 0 00-6-6zm0 10.7a4.7 4.7 0 01-4.7-4.7 4.7 4.7 0 014.7-4.7 4.7 4.7 0 010 9.4zm2.6-3.1c-.3-.5-.6-.7-1.1-.7-.6 0-1 .4-1 1 0 .8.6 1 1.2 1h.8v.7h-.8c-.8 0-1.2.3-1.2 1 0 .5.4 1 1.2 1 .5 0 1-.2 1.2-.7l.7.4a2 2 0 01-1.8 1c-1.1 0-2-.6-2-1.7 0-.8.5-1.3 1-1.4-.6-.2-1-.7-1-1.3 0-1 .8-1.6 1.8-1.6.7 0 1.3.3 1.6.8l-.6.4zm-4.4-1.9h-1.4v-1h3.6v1h-1.4v3.8h-.8v-3.8z" fill="#689f63"/>
  <path d="M173.1 95.6l-13.3 7.7v-15.4z" fill="url(#a)"/>
  <path d="M159.8 87.9v15.4l-41-23.7z" fill="url(#b)"/>
  <path d="M173.1 95.6l-13.3-7.7-41 23.7 54.3-16z" fill="url(#c)"/>
</svg>
