<svg width="600" height="600" viewBox="0 0 600 600" fill="none" xmlns="http://www.w3.org/2000/svg">
  <path d="M300 50C300 50 300 50 300 50C411.046 50 500 138.954 500 250C500 361.046 411.046 450 300 450C188.954 450 100 361.046 100 250C100 138.954 188.954 50 300 50Z" stroke="#2DD4BF" stroke-width="2" stroke-dasharray="4 4"/>
  <path d="M300 100C300 100 300 100 300 100C383.513 100 450 166.487 450 250C450 333.513 383.513 400 300 400C216.487 400 150 333.513 150 250C150 166.487 216.487 100 300 100Z" stroke="#2DD4BF" stroke-width="2" stroke-dasharray="4 4"/>
  <path d="M300 150C300 150 300 150 300 150C355.979 150 400 194.021 400 250C400 305.979 355.979 350 300 350C244.021 350 200 305.979 200 250C200 194.021 244.021 150 300 150Z" stroke="#2DD4BF" stroke-width="2" stroke-dasharray="4 4"/>
  <path d="M300 200C300 200 300 200 300 200C328.446 200 350 221.554 350 250C350 278.446 328.446 300 300 300C271.554 300 250 278.446 250 250C250 221.554 271.554 200 300 200Z" stroke="#2DD4BF" stroke-width="2" stroke-dasharray="4 4"/>
  
  <!-- Connection points on the circles -->
  <circle cx="300" cy="50" r="6" fill="#2DD4BF"/>
  <circle cx="500" cy="250" r="6" fill="#2DD4BF"/>
  <circle cx="300" cy="450" r="6" fill="#2DD4BF"/>
  <circle cx="100" cy="250" r="6" fill="#2DD4BF"/>
  
  <circle cx="375" cy="125" r="6" fill="#2DD4BF"/>
  <circle cx="425" cy="325" r="6" fill="#2DD4BF"/>
  <circle cx="225" cy="375" r="6" fill="#2DD4BF"/>
  <circle cx="175" cy="175" r="6" fill="#2DD4BF"/>
  
  <circle cx="300" cy="150" r="6" fill="#2DD4BF"/>
  <circle cx="400" cy="250" r="6" fill="#2DD4BF"/>
  <circle cx="300" cy="350" r="6" fill="#2DD4BF"/>
  <circle cx="200" cy="250" r="6" fill="#2DD4BF"/>
  
  <circle cx="325" cy="200" r="6" fill="#2DD4BF"/>
  <circle cx="350" cy="275" r="6" fill="#2DD4BF"/>
  <circle cx="275" cy="300" r="6" fill="#2DD4BF"/>
  <circle cx="250" cy="225" r="6" fill="#2DD4BF"/>
  
  <!-- Vertical and horizontal lines -->
  <line x1="300" y1="50" x2="300" y2="150" stroke="#2DD4BF" stroke-width="2"/>
  <line x1="500" y1="250" x2="400" y2="250" stroke="#2DD4BF" stroke-width="2"/>
  <line x1="300" y1="450" x2="300" y2="350" stroke="#2DD4BF" stroke-width="2"/>
  <line x1="100" y1="250" x2="200" y2="250" stroke="#2DD4BF" stroke-width="2"/>
  
  <!-- Random dots -->
  <circle cx="150" cy="100" r="3" fill="#2DD4BF" opacity="0.5"/>
  <circle cx="450" cy="150" r="3" fill="#2DD4BF" opacity="0.5"/>
  <circle cx="400" cy="400" r="3" fill="#2DD4BF" opacity="0.5"/>
  <circle cx="120" cy="350" r="3" fill="#2DD4BF" opacity="0.5"/>
  <circle cx="250" cy="80" r="3" fill="#2DD4BF" opacity="0.5"/>
  <circle cx="480" cy="320" r="3" fill="#2DD4BF" opacity="0.5"/>
  <circle cx="350" cy="420" r="3" fill="#2DD4BF" opacity="0.5"/>
  <circle cx="180" cy="280" r="3" fill="#2DD4BF" opacity="0.5"/>
</svg>
