<svg width="171" height="16" viewBox="0 0 171 16" fill="none" xmlns="http://www.w3.org/2000/svg">
<path d="M0.666667 8C0.666667 10.9455 3.05448 13.3333 6 13.3333C8.94552 13.3333 11.3333 10.9455 11.3333 8C11.3333 5.05448 8.94552 2.66667 6 2.66667C3.05448 2.66667 0.666667 5.05448 0.666667 8ZM170.707 8.70711C171.098 8.31658 171.098 7.68342 170.707 7.29289L164.343 0.928932C163.953 0.538408 163.319 0.538408 162.929 0.928932C162.538 1.31946 162.538 1.95262 162.929 2.34315L168.586 8L162.929 13.6569C162.538 14.0474 162.538 14.6805 162.929 15.0711C163.319 15.4616 163.953 15.4616 164.343 15.0711L170.707 8.70711ZM6 8V9H8.92857V8V7H6V8ZM14.7857 8V9H20.6429V8V7H14.7857V8ZM26.5 8V9H32.3571V8V7H26.5V8ZM38.2143 8V9H44.0714V8V7H38.2143V8ZM49.9286 8V9H55.7857V8V7H49.9286V8ZM61.6429 8V9H67.5V8V7H61.6429V8ZM73.3571 8V9H79.2143V8V7H73.3571V8ZM85.0714 8V9H90.9286V8V7H85.0714V8ZM96.7857 8V9H102.643V8V7H96.7857V8ZM108.5 8V9H114.357V8V7H108.5V8ZM120.214 8V9H126.071V8V7H120.214V8ZM131.929 8V9H137.786V8V7H131.929V8ZM143.643 8V9H149.5V8V7H143.643V8ZM155.357 8V9H161.214V8V7H155.357V8ZM167.071 8V9H170V8V7H167.071V8Z" fill="black" fill-opacity="0.31"/>
</svg>
