<svg width="259" height="319" viewBox="0 0 259 319" fill="none" xmlns="http://www.w3.org/2000/svg">
<g clip-path="url(#clip0_298_1472)">
<path d="M230.159 188.115L238.657 287.137C239.353 295.197 234.42 302.256 227.704 302.83L39.8313 318.951C33.1154 319.525 27.0467 313.406 26.3629 305.346L17.8643 206.324C17.6934 204.394 17.8643 202.514 18.2917 200.779C19.6471 195.247 23.7132 191.07 28.8173 190.63L216.69 174.51C221.794 174.07 226.52 177.502 228.791 182.704C229.511 184.353 229.988 186.173 230.159 188.115Z" fill="url(#paint0_linear_298_1472)" fill-opacity="0.37"/>
<path opacity="0.1" d="M230.159 188.115L238.657 287.137C239.353 295.197 234.42 302.256 227.704 302.83L39.8313 318.951C33.1154 319.525 27.0467 313.406 26.3629 305.346L17.8643 206.324C17.6934 204.394 17.8643 202.514 18.2917 200.779C19.6471 195.247 23.7132 191.07 28.8173 190.63L216.69 174.51C221.794 174.07 226.52 177.502 228.791 182.704C229.511 184.353 229.988 186.173 230.159 188.115Z" fill="white"/>
<path d="M238.572 170.406L250.856 271.968C251.857 280.236 247.034 287.674 240.147 288.504L47.4755 311.819C40.5887 312.649 34.1293 306.567 33.128 298.311L20.8441 196.749C20.5999 194.771 20.6976 192.829 21.0883 191.034C22.2849 185.306 26.3145 180.848 31.5528 180.213L224.225 156.899C229.451 156.264 234.445 159.622 236.973 164.898C237.778 166.571 238.328 168.415 238.572 170.406Z" fill="url(#paint1_linear_298_1472)"/>
<path opacity="0.1" d="M236.972 164.898L149.581 223.752C140.703 229.724 130.019 231.018 119.982 227.33L21.0879 191.021C22.2845 185.294 26.314 180.836 31.5524 180.201L224.224 156.886C229.45 156.251 234.445 159.61 236.972 164.886V164.898Z" fill="black"/>
<path d="M204.369 186.845L179.252 203.747L171.046 209.28L149.568 223.74C140.935 229.565 130.544 230.945 120.739 227.574C120.482 227.513 120.226 227.416 119.982 227.318L107.93 222.897L80.822 212.943L68.1473 208.29L53.7876 203.027L52.7619 177.636L50.4785 121.213L160.777 116.73L202.819 148.594L203.258 159.427L204.369 186.845Z" fill="url(#paint2_linear_298_1472)"/>
<path opacity="0.7" d="M204.369 186.845L179.252 203.747L171.046 209.28L149.568 223.74C140.935 229.565 130.544 230.945 120.739 227.574C120.482 227.513 120.226 227.416 119.982 227.318L107.93 222.897L80.822 212.943L68.1473 208.29L53.7876 203.027L52.7619 177.636L50.4785 121.213L160.777 116.73L202.819 148.594L203.258 159.427L204.369 186.845Z" fill="#FAFAFA"/>
<g opacity="0.9">
<path d="M188.825 159.817L66.7185 164.776C65.2899 164.837 64.0688 163.713 64.02 162.284C63.9589 160.855 65.0823 159.634 66.5109 159.585L188.617 154.627C190.046 154.566 191.267 155.689 191.316 157.118C191.377 158.547 190.254 159.769 188.825 159.817Z" fill="white"/>
<path d="M189.484 176.048L67.3777 181.007C65.949 181.068 64.728 179.944 64.6791 178.515C64.6181 177.086 65.7415 175.865 67.1701 175.816L189.277 170.858C190.705 170.797 191.926 171.92 191.975 173.349C192.036 174.778 190.913 175.999 189.484 176.048Z" fill="white"/>
<path d="M190.143 192.267L68.0369 197.225C66.6082 197.287 65.3872 196.163 65.3383 194.734C65.2773 193.305 66.4006 192.084 67.8293 192.035L189.936 187.077C191.364 187.016 192.585 188.139 192.634 189.568C192.695 190.997 191.572 192.218 190.143 192.267Z" fill="white"/>
<path d="M179.264 203.747L171.059 209.279L80.8465 212.943L68.1719 208.29C68.2818 208.266 68.3917 208.254 68.4893 208.254L179.277 203.747H179.264Z" fill="white"/>
<path d="M145.844 223.959V224.057C145.844 225.449 144.757 226.609 143.353 226.683L120.739 227.586C120.482 227.525 120.226 227.428 119.982 227.33L107.93 222.909L143.133 221.48C144.562 221.431 145.783 222.555 145.832 223.971L145.844 223.959Z" fill="white"/>
</g>
<path opacity="0.1" d="M202.83 148.594L173.61 147.336L160.789 116.73L202.83 148.594Z" fill="#263238"/>
<path d="M202.83 148.594L174.477 143.733L160.789 116.73L202.83 148.594Z" fill="url(#paint3_linear_298_1472)"/>
<path d="M259 30.1536C259 54.9823 231.782 79.3958 227.704 79.3958C223.626 79.3958 196.408 54.9823 196.408 30.1536C196.408 13.4952 210.426 0 227.704 0C244.982 0 259 13.5074 259 30.1536Z" fill="url(#paint4_linear_298_1472)"/>
<path opacity="0.1" d="M221.892 23.9615C216.226 30.1778 208.533 32.4006 204.711 28.9077C200.889 25.427 202.379 17.5497 208.032 11.3334C213.698 5.11703 221.391 2.89429 225.213 6.38717C229.035 9.86783 227.545 17.7451 221.892 23.9615Z" fill="white"/>
<path opacity="0.1" d="M205.2 48.9859C204.455 47.1296 204.651 45.3099 205.64 44.9068C206.629 44.5038 208.033 45.6885 208.778 47.5448C209.523 49.4012 209.327 51.2209 208.338 51.6239C207.349 52.0269 205.945 50.8423 205.2 48.9859Z" fill="white"/>
<path d="M226.373 157.558C226.092 157.558 225.872 157.338 225.872 157.058C225.872 154.749 226.593 153.577 227.289 152.453C227.936 151.403 228.546 150.402 228.546 148.374C228.546 146.347 227.936 145.345 227.289 144.295C226.593 143.172 225.872 141.999 225.872 139.691C225.872 137.383 226.593 136.21 227.289 135.087C227.936 134.036 228.546 133.035 228.546 131.007C228.546 128.98 227.936 127.991 227.289 126.941C226.593 125.817 225.872 124.657 225.872 122.349C225.872 120.04 226.593 118.88 227.289 117.744C227.936 116.694 228.546 115.693 228.546 113.665C228.546 111.638 227.936 110.649 227.289 109.598C226.593 108.475 225.872 107.315 225.872 104.994C225.872 102.674 226.593 101.526 227.289 100.39C227.936 99.3395 228.546 98.3381 228.546 96.323C228.546 94.3079 227.936 93.3064 227.289 92.2561C226.593 91.1325 225.872 89.9723 225.872 87.6518C225.872 85.3314 226.593 84.1834 227.289 83.0598C227.936 82.0095 228.546 81.0203 228.546 78.9929C228.546 78.712 228.766 78.4922 229.047 78.4922C229.328 78.4922 229.547 78.712 229.547 78.9929C229.547 81.3012 228.827 82.4614 228.131 83.585C227.484 84.6353 226.873 85.6367 226.873 87.6518C226.873 89.667 227.484 90.6684 228.131 91.7187C228.827 92.8423 229.547 94.0025 229.547 96.323C229.547 98.6434 228.827 99.7914 228.131 100.927C227.484 101.978 226.873 102.979 226.873 104.994C226.873 107.009 227.484 108.011 228.131 109.061C228.827 110.185 229.547 111.345 229.547 113.665C229.547 115.986 228.827 117.134 228.131 118.269C227.484 119.32 226.873 120.321 226.873 122.349C226.873 124.376 227.484 125.365 228.131 126.415C228.827 127.539 229.547 128.699 229.547 131.007C229.547 133.316 228.827 134.488 228.131 135.612C227.484 136.662 226.873 137.664 226.873 139.691C226.873 141.718 227.484 142.72 228.131 143.77C228.827 144.894 229.547 146.066 229.547 148.374C229.547 150.682 228.827 151.855 228.131 152.978C227.484 154.029 226.873 155.03 226.873 157.058C226.873 157.338 226.654 157.558 226.373 157.558Z" fill="#263238"/>
<path d="M227.704 78.2354C226.74 78.2354 220.354 83.9754 220.354 89.8131H235.067C235.067 83.9754 228.669 78.2354 227.717 78.2354H227.704Z" fill="url(#paint5_linear_298_1472)"/>
<path d="M229.145 78.4312H226.263C226.027 78.4312 225.836 78.6225 225.836 78.8586V79.1639C225.836 79.4 226.027 79.5914 226.263 79.5914H229.145C229.381 79.5914 229.572 79.4 229.572 79.1639V78.8586C229.572 78.6225 229.381 78.4312 229.145 78.4312Z" fill="#263238"/>
<path d="M62.5918 53.3704C62.5918 78.1991 35.3742 102.613 31.2959 102.613C27.2175 102.613 0 78.1991 0 53.3704C0 36.712 14.0178 23.2168 31.2959 23.2168C48.5739 23.2168 62.5918 36.7242 62.5918 53.3704Z" fill="url(#paint6_linear_298_1472)"/>
<path opacity="0.1" d="M26.2773 48.1797C20.6115 54.3961 12.9188 56.6188 9.0969 53.126C5.27496 49.6453 6.76466 41.768 12.4182 35.5516C18.0717 29.3353 25.7766 27.1126 29.5986 30.6054C33.4205 34.0861 31.9308 41.9634 26.2773 48.1797Z" fill="white"/>
<path opacity="0.1" d="M9.57321 73.2042C8.82836 71.3478 9.02373 69.5281 10.0128 69.1251C11.0019 68.7221 12.4061 69.9067 13.1509 71.7631C13.8958 73.6194 13.7004 75.4392 12.7113 75.8422C11.7223 76.2452 10.3181 75.0606 9.57321 73.2042Z" fill="white"/>
<path d="M29.9645 180.775C29.6837 180.775 29.4639 180.555 29.4639 180.274C29.4639 177.966 30.1843 176.794 30.8803 175.67C31.5275 174.62 32.138 173.618 32.138 171.591C32.138 169.564 31.5275 168.562 30.8803 167.512C30.1843 166.388 29.4639 165.216 29.4639 162.908C29.4639 160.599 30.1843 159.427 30.8803 158.303C31.5275 157.253 32.138 156.252 32.138 154.224C32.138 152.197 31.5275 151.208 30.8803 150.157C30.1843 149.034 29.4639 147.874 29.4639 145.565C29.4639 143.257 30.1843 142.097 30.8803 140.961C31.5275 139.911 32.138 138.909 32.138 136.882C32.138 134.855 31.5275 133.865 30.8803 132.815C30.1843 131.692 29.4639 130.531 29.4639 128.211C29.4639 125.89 30.1843 124.742 30.8803 123.607C31.5275 122.556 32.138 121.555 32.138 119.54C32.138 117.525 31.5275 116.523 30.8803 115.473C30.1843 114.349 29.4639 113.189 29.4639 110.869C29.4639 108.548 30.1843 107.4 30.8803 106.277C31.5275 105.226 32.138 104.225 32.138 102.21C32.138 101.929 32.3578 101.709 32.6386 101.709C32.9195 101.709 33.1393 101.929 33.1393 102.21C33.1393 104.518 32.4188 105.678 31.7228 106.802C31.0757 107.852 30.4651 108.854 30.4651 110.869C30.4651 112.884 31.0757 113.885 31.7228 114.936C32.4188 116.059 33.1393 117.219 33.1393 119.54C33.1393 121.86 32.4188 123.008 31.7228 124.144C31.0757 125.194 30.4651 126.196 30.4651 128.211C30.4651 130.226 31.0757 131.227 31.7228 132.278C32.4188 133.401 33.1393 134.562 33.1393 136.882C33.1393 139.202 32.4188 140.35 31.7228 141.486C31.0757 142.537 30.4651 143.538 30.4651 145.565C30.4651 147.593 31.0757 148.582 31.7228 149.632C32.4188 150.756 33.1393 151.916 33.1393 154.224C33.1393 156.533 32.4188 157.705 31.7228 158.829C31.0757 159.879 30.4651 160.88 30.4651 162.908C30.4651 164.935 31.0757 165.936 31.7228 166.987C32.4188 168.11 33.1393 169.283 33.1393 171.591C33.1393 173.899 32.4188 175.072 31.7228 176.195C31.0757 177.246 30.4651 178.247 30.4651 180.274C30.4651 180.555 30.2454 180.775 29.9645 180.775Z" fill="url(#paint7_linear_298_1472)"/>
<path d="M31.2956 101.44C30.331 101.44 23.9326 107.18 23.9326 113.018H38.6464C38.6464 107.18 32.2481 101.44 31.2956 101.44Z" fill="url(#paint8_linear_298_1472)"/>
<path d="M32.7368 101.636H29.8551C29.6191 101.636 29.4277 101.827 29.4277 102.063V102.369C29.4277 102.605 29.6191 102.796 29.8551 102.796H32.7368C32.9728 102.796 33.1642 102.605 33.1642 102.369V102.063C33.1642 101.827 32.9728 101.636 32.7368 101.636Z" fill="url(#paint9_linear_298_1472)"/>
</g>
<defs>
<linearGradient id="paint0_linear_298_1472" x1="163.366" y1="289.538" x2="96.5003" y2="138.524" gradientUnits="userSpaceOnUse">
<stop stop-color="#5A45FF"/>
<stop offset="0.265384" stop-color="#7D71FF"/>
<stop offset="0.478947" stop-color="#7C81FF"/>
<stop offset="1" stop-color="#000099"/>
</linearGradient>
<linearGradient id="paint1_linear_298_1472" x1="172.44" y1="280.293" x2="99.2937" y2="119.821" gradientUnits="userSpaceOnUse">
<stop stop-color="#5A45FF"/>
<stop offset="0.265384" stop-color="#7D71FF"/>
<stop offset="0.478947" stop-color="#7C81FF"/>
<stop offset="1" stop-color="#000099"/>
</linearGradient>
<linearGradient id="paint2_linear_298_1472" x1="151.877" y1="206.425" x2="95.8663" y2="93.3831" gradientUnits="userSpaceOnUse">
<stop stop-color="#5A45FF"/>
<stop offset="0.265384" stop-color="#7D71FF"/>
<stop offset="0.478947" stop-color="#7C81FF"/>
<stop offset="1" stop-color="#000099"/>
</linearGradient>
<linearGradient id="paint3_linear_298_1472" x1="188.49" y1="142.101" x2="172.317" y2="110.574" gradientUnits="userSpaceOnUse">
<stop stop-color="#5A45FF"/>
<stop offset="0.265384" stop-color="#7D71FF"/>
<stop offset="0.478947" stop-color="#7C81FF"/>
<stop offset="1" stop-color="#000099"/>
</linearGradient>
<linearGradient id="paint4_linear_298_1472" x1="237.65" y1="63.2162" x2="188.606" y2="6.09445" gradientUnits="userSpaceOnUse">
<stop stop-color="#5A45FF"/>
<stop offset="0.265384" stop-color="#7D71FF"/>
<stop offset="0.478947" stop-color="#7C81FF"/>
<stop offset="1" stop-color="#000099"/>
</linearGradient>
<linearGradient id="paint5_linear_298_1472" x1="230.048" y1="87.4538" x2="224.045" y2="76.1812" gradientUnits="userSpaceOnUse">
<stop stop-color="#5A45FF"/>
<stop offset="0.265384" stop-color="#7D71FF"/>
<stop offset="0.478947" stop-color="#7C81FF"/>
<stop offset="1" stop-color="#000099"/>
</linearGradient>
<linearGradient id="paint6_linear_298_1472" x1="41.2418" y1="86.433" x2="-7.80267" y2="29.3112" gradientUnits="userSpaceOnUse">
<stop stop-color="#B4B4E1"/>
<stop offset="0.478947" stop-color="#D5D5FC"/>
<stop offset="1" stop-color="#CAC4FC"/>
</linearGradient>
<linearGradient id="paint7_linear_298_1472" x1="31.8856" y1="164.663" x2="25.1309" y2="164.199" gradientUnits="userSpaceOnUse">
<stop stop-color="#B4B4E1"/>
<stop offset="0.478947" stop-color="#D5D5FC"/>
<stop offset="1" stop-color="#CAC4FC"/>
</linearGradient>
<linearGradient id="paint8_linear_298_1472" x1="33.6276" y1="110.658" x2="27.6237" y2="99.3858" gradientUnits="userSpaceOnUse">
<stop stop-color="#B4B4E1"/>
<stop offset="0.478947" stop-color="#D5D5FC"/>
<stop offset="1" stop-color="#CAC4FC"/>
</linearGradient>
<linearGradient id="paint9_linear_298_1472" x1="31.8897" y1="102.56" x2="31.5978" y2="101.171" gradientUnits="userSpaceOnUse">
<stop stop-color="#B4B4E1"/>
<stop offset="0.478947" stop-color="#D5D5FC"/>
<stop offset="1" stop-color="#CAC4FC"/>
</linearGradient>
<clipPath id="clip0_298_1472">
<rect width="259" height="319" fill="white"/>
</clipPath>
</defs>
</svg>
