<svg width="361" height="206" viewBox="0 0 361 206" fill="none" xmlns="http://www.w3.org/2000/svg">
<ellipse cx="180" cy="103" rx="63" ry="43" fill="#F4EBFF"/>
<g opacity="0.5">
<path d="M215.923 98.4163C214.14 104.907 210.584 110.771 205.653 115.353C200.722 119.934 194.612 123.051 188.009 124.354C185.768 128.2 183.758 132.176 181.99 136.261L155.936 130.693C155.998 126.24 155.794 121.788 155.325 117.36C149.835 113.473 145.536 108.133 142.912 101.938C140.287 95.7443 139.44 88.9413 140.467 82.2928C142.647 65.733 159.367 44.1428 186.686 49.9729H186.962C214.266 55.8611 220.707 82.4091 215.923 98.4163Z" fill="url(#paint0_linear_558_502)"/>
</g>
<g opacity="0.7">
<path d="M212.683 97.8484C211.051 103.784 207.796 109.146 203.283 113.332C198.77 117.519 193.179 120.363 187.139 121.547C185.132 124.527 180.887 136.086 180.887 136.086L157.058 130.982C157.058 130.982 157.872 118.77 157.261 115.237C152.238 111.68 148.304 106.794 145.903 101.126C143.502 95.4578 142.728 89.233 143.668 83.1496C145.659 68.0002 160.969 48.2564 185.932 53.5922H186.194C211.099 58.9279 217.045 83.2078 212.683 97.8484Z" fill="url(#paint1_linear_558_502)"/>
</g>
<path d="M161.824 91.6051L160.699 134.276L163.606 134.353L164.731 91.6817L161.824 91.6051Z" fill="white"/>
<path d="M187.086 97.9739L170.865 137.245L173.54 138.35L189.761 99.0789L187.086 97.9739Z" fill="white"/>
<path d="M175.2 108.594C174.902 108.589 174.605 108.555 174.313 108.492C171.9 107.983 170.257 105.41 169.327 102.415C168.988 102.672 168.601 102.858 168.189 102.963C167.777 103.068 167.348 103.089 166.928 103.026C162.886 102.168 163.046 93.7062 163.046 93.3427H164.136C164.136 95.5381 164.529 101.368 167.146 101.935C167.488 101.962 167.832 101.916 168.155 101.801C168.478 101.685 168.773 101.503 169.021 101.266C168.376 98.769 168.257 96.1647 168.672 93.6189C169.399 90.275 171.231 90.275 171.987 90.4495C172.458 90.534 172.896 90.7472 173.252 91.0654C173.609 91.3837 173.871 91.7945 174.008 92.2523C174.779 94.6657 172.976 98.6785 170.868 100.976C170.664 101.194 170.461 101.412 170.257 101.601C171.086 104.509 172.554 106.922 174.546 107.416C176.32 107.794 178.297 106.471 179.969 104.509C179.735 104.076 179.541 103.624 179.387 103.156C178.37 99.9724 178.937 95.698 180.638 93.8225C180.936 93.4449 181.333 93.1579 181.785 92.9935C182.237 92.8292 182.726 92.794 183.197 92.892C183.924 93.0374 185.523 93.7934 184.738 97.4281C184.091 100.025 182.924 102.464 181.307 104.596C181.819 105.33 182.586 105.848 183.458 106.05C185.465 106.471 188.489 102.211 189.957 99.4199L190.917 99.9288C190.495 100.743 186.642 107.852 183.226 107.111C182.171 106.889 181.229 106.302 180.565 105.454C179.937 106.32 179.136 107.047 178.213 107.588C177.289 108.128 176.263 108.471 175.2 108.594ZM182.659 93.9097C182.422 93.9207 182.191 93.9822 181.98 94.09C181.77 94.1978 181.585 94.3495 181.437 94.5349C179.984 96.1342 179.518 100.001 180.434 102.807C180.509 103.061 180.602 103.308 180.71 103.549C182.086 101.642 183.074 99.4833 183.618 97.1955C183.807 96.2941 184.127 94.2005 182.92 93.9388C182.834 93.9199 182.747 93.9102 182.659 93.9097ZM171.478 91.5108C170.475 91.5108 170.024 92.7757 169.748 93.8806C169.373 96.0619 169.437 98.2961 169.937 100.452L170.053 100.336C172.176 97.9806 173.543 94.375 172.961 92.6158C172.889 92.3371 172.736 92.0862 172.521 91.8946C172.306 91.7031 172.04 91.5796 171.755 91.5399L171.478 91.5108Z" fill="white"/>
<path d="M185.271 137.017L152.629 130.031L148.783 148.001L181.425 154.987L185.271 137.017Z" fill="#363636"/>
<path d="M177.746 154.159C175.086 157.154 170.753 159.407 163.745 157.91C156.738 156.412 153.684 152.574 152.492 148.765L177.746 154.159Z" fill="#6E6E6E"/>
<path d="M177.745 154.158C176.955 155.055 176.039 155.834 175.027 156.469L152.942 149.941C152.777 149.544 152.632 149.151 152.506 148.764L177.745 154.158Z" fill="#FF9C6B"/>
<path d="M185.51 140.623L150.268 136.421L150.602 134.851L185.844 139.052L185.51 140.623Z" fill="#FF9C6B"/>
<path d="M184.49 145.362L149.248 141.16L149.582 139.59L184.825 143.792L184.49 145.362Z" fill="#FF9C6B"/>
<path d="M183.473 150.102L148.23 145.9L148.579 144.345L183.807 148.532L183.473 150.102Z" fill="#FF9C6B"/>
<g opacity="0.5">
<path d="M149.857 78.5585C151.006 79.0092 153.885 73.1645 162.055 67.4362C165.69 64.8919 177.728 63.3217 177.699 59.4835C177.67 55.6452 166.897 57.2736 160.616 62.0132C150.541 69.6607 148.796 78.1368 149.857 78.5585Z" fill="white"/>
<path d="M208.479 92.4422C208.932 92.5386 209.405 92.4511 209.793 92.1988C210.182 91.9466 210.454 91.5504 210.551 91.0973C210.647 90.6443 210.559 90.1715 210.307 89.7829C210.055 89.3944 209.659 89.1219 209.206 89.0256C208.753 88.9292 208.28 89.0167 207.891 89.2689C207.503 89.5211 207.23 89.9173 207.134 90.3704C207.038 90.8235 207.125 91.2963 207.377 91.6848C207.63 92.0734 208.026 92.3458 208.479 92.4422Z" fill="white"/>
<path d="M192.193 115.864C193.211 117.042 200.204 112.956 204.202 107.039C207.531 102.169 209.363 95.4953 207.968 94.7829C206.572 94.0705 203.606 103.143 201.149 106.167C198.008 110.005 191.117 114.614 192.193 115.864Z" fill="white"/>
</g>
<defs>
<linearGradient id="paint0_linear_558_502" x1="190.994" y1="118.479" x2="138.384" y2="49.6025" gradientUnits="userSpaceOnUse">
<stop stop-color="#5A45FF"/>
<stop offset="0.265384" stop-color="#7D71FF"/>
<stop offset="0.478947" stop-color="#7C81FF"/>
<stop offset="1" stop-color="#000099"/>
</linearGradient>
<linearGradient id="paint1_linear_558_502" x1="189.874" y1="119.093" x2="139.063" y2="55.4311" gradientUnits="userSpaceOnUse">
<stop stop-color="#5A45FF"/>
<stop offset="0.265384" stop-color="#7D71FF"/>
<stop offset="0.478947" stop-color="#7C81FF"/>
<stop offset="1" stop-color="#000099"/>
</linearGradient>
</defs>
</svg>
