<svg width="126" height="110" viewBox="0 0 126 110" fill="none" xmlns="http://www.w3.org/2000/svg">
<ellipse cx="63" cy="54" rx="63" ry="43" fill="#F4EBFF"/>
<g opacity="0.5">
<path d="M98.9232 49.4163C97.1401 55.9066 93.5836 61.7715 88.6529 66.353C83.7221 70.9345 77.6121 74.0513 71.0086 75.3536C68.7682 79.2 66.7583 83.1762 64.9896 87.261L38.9359 81.6926C38.9977 77.2403 38.7938 72.7884 38.3253 68.3605C32.8349 64.473 28.5363 59.1327 25.9117 52.9385C23.2871 46.7443 22.4405 39.9413 23.4666 33.2928C25.6475 16.733 42.3671 -4.85717 69.6856 0.972902H69.9618C97.2658 6.86114 103.707 33.4091 98.9232 49.4163Z" fill="url(#paint0_linear_549_1405)"/>
</g>
<g opacity="0.7">
<path d="M95.6835 48.8484C94.0512 54.7836 90.7957 60.1458 86.2831 64.3322C81.7704 68.5187 76.1795 71.3635 70.1387 72.5467C68.1324 75.5272 63.887 87.0856 63.887 87.0856L40.0579 81.9824C40.0579 81.9824 40.872 69.7698 40.2614 66.2369C35.2376 62.6801 31.3043 57.7935 28.9031 52.1257C26.5019 46.4578 25.7278 40.233 26.6676 34.1496C28.6594 19.0002 43.9688 -0.743592 68.932 4.59216H69.1937C94.0988 9.92792 100.045 34.2078 95.6835 48.8484Z" fill="url(#paint1_linear_549_1405)"/>
</g>
<path d="M44.8241 42.6051L43.6992 85.2764L46.606 85.353L47.7308 42.6817L44.8241 42.6051Z" fill="white"/>
<path d="M70.0859 48.9739L53.8652 88.2451L56.5404 89.3501L72.7611 50.0789L70.0859 48.9739Z" fill="white"/>
<path d="M58.2002 59.594C57.902 59.5888 57.605 59.5547 57.3134 59.4922C54.8999 58.9833 53.257 56.41 52.3265 53.4149C51.9877 53.6717 51.6009 53.8581 51.1889 53.9629C50.7769 54.0678 50.348 54.0891 49.9276 54.0256C45.8858 53.1678 46.0458 44.7062 46.0458 44.3427H47.1362C47.1362 46.5381 47.5287 52.3681 50.1457 52.9352C50.4878 52.9617 50.8316 52.9158 51.1547 52.8006C51.4778 52.6853 51.7731 52.5033 52.0212 52.2664C51.3762 49.769 51.2574 47.1647 51.6723 44.6189C52.3993 41.275 54.2311 41.275 54.9872 41.4495C55.4577 41.534 55.8955 41.7472 56.2523 42.0654C56.609 42.3837 56.8706 42.7945 57.008 43.2523C57.7786 45.6657 55.9758 49.6785 53.8676 51.9756C53.6641 52.1937 53.4606 52.4118 53.257 52.6008C54.0858 55.5085 55.5541 57.922 57.546 58.4163C59.3197 58.7943 61.297 57.4713 62.969 55.5085C62.7351 55.0761 62.5405 54.6236 62.3874 54.1564C61.3697 50.9724 61.9367 46.698 63.6377 44.8225C63.9357 44.4449 64.3329 44.1579 64.7849 43.9935C65.2369 43.8292 65.7257 43.794 66.1966 43.892C66.9235 44.0374 68.5228 44.7934 67.7377 48.4281C67.0912 51.0251 65.9239 53.4636 64.3066 55.5958C64.8193 56.3298 65.5859 56.8478 66.4583 57.0497C68.4646 57.4713 71.4887 53.2114 72.9572 50.4199L73.9167 50.9288C73.4951 51.743 69.6423 58.8525 66.2257 58.111C65.1714 57.8887 64.2294 57.3018 63.5651 56.4536C62.9373 57.3203 62.1363 58.047 61.2127 58.5876C60.2892 59.1282 59.2633 59.4709 58.2002 59.594ZM65.6587 44.9097C65.4223 44.9207 65.191 44.9822 64.9803 45.09C64.7697 45.1978 64.5845 45.3495 64.4374 45.5349C62.9835 47.1342 62.5183 51.0015 63.4342 53.8075C63.5094 54.0606 63.6017 54.3084 63.7105 54.549C65.0864 52.642 66.0744 50.4833 66.6182 48.1955C66.8072 47.2941 67.1271 45.2005 65.9204 44.9388C65.8344 44.9199 65.7467 44.9102 65.6587 44.9097ZM54.4783 42.5108C53.4751 42.5108 53.0244 43.7757 52.7482 44.8806C52.3729 47.0619 52.4372 49.2961 52.9372 51.4522L53.0535 51.3359C55.1761 48.9806 56.5428 45.375 55.9612 43.6158C55.8892 43.3371 55.7361 43.0862 55.5212 42.8946C55.3064 42.7031 55.0396 42.5796 54.7545 42.5399L54.4783 42.5108Z" fill="white"/>
<path d="M68.2709 88.0172L35.6289 81.0312L31.783 99.0014L64.425 105.987L68.2709 88.0172Z" fill="#363636"/>
<path d="M60.7462 105.159C58.0855 108.154 53.753 110.407 46.7452 108.91C39.7375 107.412 36.6844 103.574 35.4922 99.7646L60.7462 105.159Z" fill="#6E6E6E"/>
<path d="M60.7453 105.158C59.9551 106.055 59.0394 106.834 58.0265 107.469L35.942 100.941C35.7772 100.544 35.6319 100.151 35.5059 99.7637L60.7453 105.158Z" fill="#FF9C6B"/>
<path d="M68.5097 91.6225L33.2676 87.4208L33.602 85.8506L68.8441 90.0523L68.5097 91.6225Z" fill="#FF9C6B"/>
<path d="M67.4902 96.3618L32.248 92.16L32.5825 90.5898L67.8246 94.7916L67.4902 96.3618Z" fill="#FF9C6B"/>
<path d="M66.4726 101.102L31.2305 96.9004L31.5794 95.3447L66.807 99.5319L66.4726 101.102Z" fill="#FF9C6B"/>
<g opacity="0.5">
<path d="M32.8573 29.5585C34.0059 30.0092 36.8846 24.1645 45.0554 18.4362C48.6901 15.8919 60.7283 14.3217 60.6992 10.4835C60.6702 6.64523 49.8969 8.27358 43.6161 13.0132C33.5407 20.6607 31.796 29.1368 32.8573 29.5585Z" fill="white"/>
<path d="M91.4788 43.4422C91.9319 43.5386 92.4047 43.4511 92.7932 43.1988C93.1817 42.9466 93.4542 42.5504 93.5506 42.0973C93.647 41.6443 93.5595 41.1715 93.3073 40.7829C93.0551 40.3944 92.6588 40.1219 92.2058 40.0256C91.7527 39.9292 91.2799 40.0167 90.8913 40.2689C90.5028 40.5211 90.2303 40.9173 90.1339 41.3704C90.0375 41.8235 90.1251 42.2963 90.3773 42.6848C90.6295 43.0734 91.0257 43.3458 91.4788 43.4422Z" fill="white"/>
<path d="M75.1929 66.8642C76.2107 68.0418 83.2039 63.9564 87.202 58.0391C90.5314 53.1686 92.3633 46.4953 90.9676 45.7829C89.5719 45.0705 86.6059 54.1427 84.1489 57.1668C81.0085 61.005 74.1171 65.6139 75.1929 66.8642Z" fill="white"/>
</g>
<defs>
<linearGradient id="paint0_linear_549_1405" x1="73.9936" y1="69.4786" x2="21.3838" y2="0.602493" gradientUnits="userSpaceOnUse">
<stop stop-color="#5A45FF"/>
<stop offset="0.265384" stop-color="#7D71FF"/>
<stop offset="0.478947" stop-color="#7C81FF"/>
<stop offset="1" stop-color="#000099"/>
</linearGradient>
<linearGradient id="paint1_linear_549_1405" x1="72.874" y1="70.0932" x2="22.063" y2="6.43107" gradientUnits="userSpaceOnUse">
<stop stop-color="#5A45FF"/>
<stop offset="0.265384" stop-color="#7D71FF"/>
<stop offset="0.478947" stop-color="#7C81FF"/>
<stop offset="1" stop-color="#000099"/>
</linearGradient>
</defs>
</svg>
