<svg width="338" height="281" viewBox="0 0 338 281" fill="none" xmlns="http://www.w3.org/2000/svg">
<path d="M47.9541 211.106C32.017 204.394 13.3443 213.903 6 219.496V266H315V26.5C305 39.5 282 78 262 80.5C251 81.875 263 109.734 248 114.5C237.202 117.931 240.069 107.135 229.236 92.3461C220.57 80.5153 204.911 81.1602 199.5 102.5C191.973 132.182 183.337 177.2 173.931 162.486C160.5 141.476 142.838 139.554 129.498 162.486C116.159 185.418 102.927 166.617 86.3108 178.846C69.6944 191.075 67.8754 219.496 47.9541 211.106Z" fill="url(#paint0_linear_248_770)" fill-opacity="0.5"/>
<path d="M0.666667 218C0.666667 220.946 3.05448 223.333 6 223.333C8.94552 223.333 11.3333 220.946 11.3333 218C11.3333 215.054 8.94552 212.667 6 212.667C3.05448 212.667 0.666667 215.054 0.666667 218ZM47.9541 209.781L48.3355 208.857L47.9541 209.781ZM173.931 162.151L174.768 161.604L174.768 161.604L173.931 162.151ZM199.589 99.9985L200.543 100.297L199.589 99.9985ZM228.236 91.6776L227.435 92.2765L227.435 92.2765L228.236 91.6776ZM245.5 114.5L245.797 115.455L245.797 115.455L245.5 114.5ZM256.144 88L257.136 88.1252L256.144 88ZM315.5 24L305.484 29.7454L315.468 35.547L315.5 24ZM6 218L6.59798 218.802C10.1838 216.126 16.581 212.486 24.0326 210.331C31.4869 208.175 39.8885 207.535 47.5727 210.706L47.9541 209.781L48.3355 208.857C40.0826 205.452 31.1793 206.182 23.4769 208.41C15.7718 210.638 9.1605 214.394 5.40202 217.198L6 218ZM47.9541 209.781L47.5727 210.706C52.7655 212.848 56.9258 212.686 60.4678 210.887C63.9393 209.123 66.6723 205.854 69.2003 202.114C70.4709 200.234 71.7131 198.198 72.978 196.131C74.2472 194.057 75.5425 191.948 76.9372 189.886C79.728 185.76 82.8796 181.884 86.8956 178.989L86.3108 178.178L85.7259 177.366C81.4338 180.461 78.1268 184.558 75.2806 188.765C73.8568 190.87 72.5391 193.017 71.2721 195.087C70.0007 197.164 68.7836 199.159 67.5432 200.994C65.0492 204.684 62.5537 207.584 59.562 209.104C56.6408 210.587 53.1032 210.824 48.3355 208.857L47.9541 209.781ZM86.3108 178.178L86.8956 178.989C94.8558 173.25 101.88 174.79 109.091 175.095C112.671 175.247 116.293 175.076 119.892 173.349C123.497 171.62 126.956 168.391 130.358 162.661L129.498 162.151L128.638 161.64C125.371 167.143 122.174 170.036 119.027 171.546C115.873 173.059 112.648 173.244 109.176 173.097C102.282 172.805 94.3821 171.126 85.7259 177.366L86.3108 178.178ZM129.498 162.151L130.358 162.661C136.942 151.572 144.413 146.788 151.65 147.007C158.931 147.228 166.451 152.518 173.093 162.697L173.931 162.151L174.768 161.604C167.979 151.2 159.954 145.258 151.71 145.008C143.424 144.757 135.393 150.264 128.638 161.64L129.498 162.151ZM173.931 162.151L173.093 162.697C174.35 164.623 175.903 165.721 177.727 165.314C178.564 165.127 179.323 164.64 180.006 163.999C180.692 163.356 181.348 162.512 181.979 161.525C184.482 157.612 186.914 150.91 189.188 143.343C191.473 135.742 193.632 127.147 195.56 119.374C197.492 111.58 199.184 104.643 200.543 100.297L199.589 99.9985L198.634 99.7C197.252 104.12 195.541 111.137 193.618 118.893C191.69 126.67 189.542 135.22 187.273 142.767C184.994 150.348 182.628 156.798 180.294 160.447C179.716 161.351 179.162 162.049 178.637 162.541C178.109 163.036 177.659 163.28 177.291 163.362C176.704 163.493 175.863 163.282 174.768 161.604L173.931 162.151ZM199.589 99.9985L200.543 100.297C203.704 90.1906 208.511 85.656 213.247 84.7885C217.995 83.9188 223.216 86.634 227.435 92.2765L228.236 91.6776L229.037 91.0788C224.59 85.1312 218.693 81.7577 212.887 82.8212C207.068 83.887 201.885 89.3079 198.634 99.7L199.589 99.9985ZM228.236 91.6776L227.435 92.2765C232.741 99.3725 234.298 105.725 235.944 110.132C236.745 112.275 237.639 114.173 239.217 115.222C240.869 116.321 242.99 116.329 245.797 115.455L245.5 114.5L245.203 113.545C242.611 114.352 241.228 114.158 240.324 113.557C239.344 112.905 238.629 111.604 237.818 109.432C236.24 105.21 234.564 98.4703 229.037 91.0788L228.236 91.6776ZM245.5 114.5L245.797 115.455C248.585 114.587 250.633 113.444 252.129 111.897C253.63 110.345 254.5 108.462 255.061 106.249C255.617 104.057 255.882 101.481 256.135 98.5138C256.39 95.5252 256.634 92.1042 257.136 88.1252L256.144 88L255.152 87.8748C254.644 91.9058 254.395 95.3844 254.142 98.344C253.888 101.325 253.633 103.746 253.123 105.758C252.618 107.75 251.877 109.28 250.691 110.507C249.5 111.739 247.786 112.741 245.203 113.545L245.5 114.5ZM256.144 88L257.136 88.1252C257.427 85.8243 257.888 84.3137 258.491 83.2606C259.076 82.2376 259.827 81.5901 260.823 81.0706C261.862 80.5287 263.133 80.1409 264.79 79.6316C266.42 79.1306 268.348 78.5318 270.565 77.5735C279.483 73.7177 292.733 64.1914 311.839 32.2898L310.981 31.776L310.123 31.2622C291.123 62.9862 278.148 72.116 269.771 75.7377C267.664 76.6489 265.826 77.2208 264.203 77.7199C262.606 78.2106 261.135 78.6523 259.898 79.2972C258.619 79.9644 257.56 80.8609 256.755 82.2673C255.967 83.6436 255.458 85.4477 255.152 87.8748L256.144 88Z" fill="url(#paint1_linear_248_770)"/>
<path d="M7.65 257H6.85V250H7.73L10.33 255.9L12.92 250H13.79V257H12.99V251.58L10.61 257H10.04L7.65 251.58V257Z" fill="white" fill-opacity="0.34"/>
<path d="M43.43 250H48.68V250.7H46.46V257H45.66V250.7H43.43V250Z" fill="white" fill-opacity="0.34"/>
<path d="M80.13 257H79.25L77.28 250H78.13L79.69 256.03L81.41 250H82.3L84.01 256.02L85.58 250H86.42L84.45 257H83.57L81.85 251.2L80.13 257Z" fill="white" fill-opacity="0.34"/>
<path d="M115.43 250H120.68V250.7H118.46V257H117.66V250.7H115.43V250ZM121.874 249.8H122.624V252.68C122.784 252.44 123 252.257 123.274 252.13C123.547 251.997 123.854 251.93 124.194 251.93C124.56 251.93 124.887 252.013 125.174 252.18C125.46 252.347 125.684 252.593 125.844 252.92C126.01 253.247 126.094 253.653 126.094 254.14V257H125.294V254.23C125.294 253.71 125.184 253.313 124.964 253.04C124.744 252.76 124.424 252.62 124.004 252.62C123.57 252.62 123.23 252.767 122.984 253.06C122.744 253.353 122.624 253.78 122.624 254.34V257H121.874V249.8Z" fill="white" fill-opacity="0.34"/>
<path d="M155.85 250H160.44V250.7H156.65V253.09H159.5V253.79H156.65V257H155.85V250Z" fill="white" fill-opacity="0.34"/>
<path d="M190.24 255.22C190.28 255.4 190.363 255.58 190.49 255.76C190.623 255.933 190.803 256.08 191.03 256.2C191.263 256.313 191.56 256.37 191.92 256.37C192.433 256.37 192.813 256.25 193.06 256.01C193.307 255.77 193.43 255.487 193.43 255.16C193.43 254.9 193.36 254.687 193.22 254.52C193.08 254.353 192.89 254.217 192.65 254.11C192.41 253.997 192.14 253.897 191.84 253.81C191.573 253.737 191.307 253.657 191.04 253.57C190.78 253.477 190.543 253.363 190.33 253.23C190.117 253.09 189.947 252.91 189.82 252.69C189.693 252.47 189.63 252.197 189.63 251.87C189.63 251.477 189.723 251.137 189.91 250.85C190.097 250.557 190.36 250.33 190.7 250.17C191.04 250.01 191.437 249.93 191.89 249.93C192.283 249.93 192.627 249.987 192.92 250.1C193.213 250.213 193.457 250.373 193.65 250.58C193.85 250.78 193.997 251.013 194.09 251.28L193.38 251.55C193.333 251.397 193.243 251.25 193.11 251.11C192.977 250.963 192.803 250.843 192.59 250.75C192.377 250.657 192.133 250.61 191.86 250.61C191.593 250.61 191.35 250.657 191.13 250.75C190.917 250.843 190.747 250.977 190.62 251.15C190.493 251.323 190.43 251.533 190.43 251.78C190.43 252.047 190.503 252.26 190.65 252.42C190.803 252.573 191.003 252.7 191.25 252.8C191.503 252.893 191.78 252.983 192.08 253.07C192.353 253.157 192.617 253.25 192.87 253.35C193.13 253.45 193.36 253.573 193.56 253.72C193.767 253.867 193.93 254.05 194.05 254.27C194.17 254.49 194.23 254.76 194.23 255.08C194.23 255.433 194.147 255.763 193.98 256.07C193.813 256.37 193.56 256.613 193.22 256.8C192.887 256.98 192.457 257.07 191.93 257.07C191.49 257.07 191.103 257.003 190.77 256.87C190.437 256.73 190.163 256.543 189.95 256.31C189.737 256.077 189.59 255.81 189.51 255.51L190.24 255.22ZM198.642 257L198.582 256.1C198.442 256.407 198.236 256.647 197.962 256.82C197.689 256.987 197.342 257.07 196.922 257.07C196.562 257.07 196.256 257.013 196.002 256.9C195.749 256.787 195.552 256.627 195.412 256.42C195.279 256.207 195.212 255.957 195.212 255.67C195.212 255.25 195.369 254.907 195.682 254.64C195.996 254.367 196.449 254.2 197.042 254.14L198.582 253.97V253.57C198.582 253.29 198.479 253.067 198.272 252.9C198.066 252.727 197.786 252.64 197.432 252.64C197.086 252.64 196.796 252.72 196.562 252.88C196.336 253.04 196.179 253.27 196.092 253.57L195.412 253.33C195.546 252.89 195.789 252.547 196.142 252.3C196.502 252.053 196.939 251.93 197.452 251.93C198.046 251.93 198.506 252.083 198.832 252.39C199.166 252.69 199.332 253.1 199.332 253.62V257H198.642ZM198.582 254.61L197.032 254.79C196.699 254.83 196.446 254.923 196.272 255.07C196.099 255.21 196.012 255.397 196.012 255.63C196.012 255.863 196.096 256.05 196.262 256.19C196.436 256.33 196.682 256.4 197.002 256.4C197.369 256.4 197.669 256.327 197.902 256.18C198.136 256.033 198.306 255.837 198.412 255.59C198.526 255.337 198.582 255.063 198.582 254.77V254.61Z" fill="white" fill-opacity="0.34"/>
<path d="M231.24 255.22C231.28 255.4 231.363 255.58 231.49 255.76C231.623 255.933 231.803 256.08 232.03 256.2C232.263 256.313 232.56 256.37 232.92 256.37C233.433 256.37 233.813 256.25 234.06 256.01C234.307 255.77 234.43 255.487 234.43 255.16C234.43 254.9 234.36 254.687 234.22 254.52C234.08 254.353 233.89 254.217 233.65 254.11C233.41 253.997 233.14 253.897 232.84 253.81C232.573 253.737 232.307 253.657 232.04 253.57C231.78 253.477 231.543 253.363 231.33 253.23C231.117 253.09 230.947 252.91 230.82 252.69C230.693 252.47 230.63 252.197 230.63 251.87C230.63 251.477 230.723 251.137 230.91 250.85C231.097 250.557 231.36 250.33 231.7 250.17C232.04 250.01 232.437 249.93 232.89 249.93C233.283 249.93 233.627 249.987 233.92 250.1C234.213 250.213 234.457 250.373 234.65 250.58C234.85 250.78 234.997 251.013 235.09 251.28L234.38 251.55C234.333 251.397 234.243 251.25 234.11 251.11C233.977 250.963 233.803 250.843 233.59 250.75C233.377 250.657 233.133 250.61 232.86 250.61C232.593 250.61 232.35 250.657 232.13 250.75C231.917 250.843 231.747 250.977 231.62 251.15C231.493 251.323 231.43 251.533 231.43 251.78C231.43 252.047 231.503 252.26 231.65 252.42C231.803 252.573 232.003 252.7 232.25 252.8C232.503 252.893 232.78 252.983 233.08 253.07C233.353 253.157 233.617 253.25 233.87 253.35C234.13 253.45 234.36 253.573 234.56 253.72C234.767 253.867 234.93 254.05 235.05 254.27C235.17 254.49 235.23 254.76 235.23 255.08C235.23 255.433 235.147 255.763 234.98 256.07C234.813 256.37 234.56 256.613 234.22 256.8C233.887 256.98 233.457 257.07 232.93 257.07C232.49 257.07 232.103 257.003 231.77 256.87C231.437 256.73 231.163 256.543 230.95 256.31C230.737 256.077 230.59 255.81 230.51 255.51L231.24 255.22ZM240.602 257H239.922L239.872 256.28C239.719 256.533 239.512 256.73 239.252 256.87C238.992 257.003 238.689 257.07 238.342 257.07C237.956 257.07 237.619 256.99 237.332 256.83C237.046 256.67 236.822 256.43 236.662 256.11C236.509 255.79 236.432 255.387 236.432 254.9V252H237.172V254.82C237.172 255.333 237.282 255.723 237.502 255.99C237.729 256.25 238.052 256.38 238.472 256.38C238.899 256.38 239.236 256.243 239.482 255.97C239.736 255.69 239.862 255.27 239.862 254.71V252H240.602V257Z" fill="white" fill-opacity="0.34"/>
<line x1="6.5" y1="230.5" x2="314.5" y2="230.5" stroke="white" stroke-opacity="0.19" stroke-linecap="round" stroke-linejoin="round" stroke-dasharray="5 5"/>
<line x1="6.5" y1="193.5" x2="314.5" y2="193.5" stroke="white" stroke-opacity="0.19" stroke-linecap="round" stroke-linejoin="round" stroke-dasharray="5 5"/>
<line x1="6.5" y1="155.5" x2="314.5" y2="155.5" stroke="white" stroke-opacity="0.19" stroke-linecap="round" stroke-linejoin="round" stroke-dasharray="5 5"/>
<line x1="6.5" y1="117.5" x2="314.5" y2="117.5" stroke="white" stroke-opacity="0.19" stroke-linecap="round" stroke-linejoin="round" stroke-dasharray="5 5"/>
<line x1="6.5" y1="80.5" x2="314.5" y2="80.5001" stroke="white" stroke-opacity="0.19" stroke-linecap="round" stroke-linejoin="round" stroke-dasharray="5 5"/>
<line x1="6.5" y1="42.5" x2="314.5" y2="42.5001" stroke="white" stroke-opacity="0.19" stroke-linecap="round" stroke-linejoin="round" stroke-dasharray="5 5"/>
<path d="M307.5 281C175.78 281 69 174.668 69 43.5C69 -87.6676 175.78 -194 307.5 -194C439.22 -194 546 -87.6676 546 43.5C546 174.668 439.22 281 307.5 281Z" fill="url(#paint2_radial_248_770)" fill-opacity="0.58"/>
<defs>
<linearGradient id="paint0_linear_248_770" x1="160.5" y1="102.18" x2="160.5" y2="266" gradientUnits="userSpaceOnUse">
<stop stop-color="#8576FA" stop-opacity="0.48"/>
<stop offset="0.90183" stop-color="#9976FA" stop-opacity="0"/>
</linearGradient>
<linearGradient id="paint1_linear_248_770" x1="209.93" y1="178.466" x2="122.75" y2="-27.0124" gradientUnits="userSpaceOnUse">
<stop stop-color="#5A45FF"/>
<stop offset="0.265384" stop-color="#7D71FF"/>
<stop offset="0.478947" stop-color="#7C81FF"/>
<stop offset="1" stop-color="#000099"/>
</linearGradient>
<radialGradient id="paint2_radial_248_770" cx="0" cy="0" r="1" gradientUnits="userSpaceOnUse" gradientTransform="translate(307.5 43.5) rotate(89.7613) scale(120.001 120.506)">
<stop stop-color="#694BFF" stop-opacity="0.57"/>
<stop offset="1" stop-color="#4D00FF" stop-opacity="0"/>
</radialGradient>
</defs>
</svg>
