<svg width="362" height="390" viewBox="0 0 362 390" fill="none" xmlns="http://www.w3.org/2000/svg">
<circle cx="182" cy="173" r="153" fill="url(#paint0_radial_248_769)" fill-opacity="0.08"/>
<circle cx="182" cy="173" r="152.5" stroke="white" stroke-opacity="0.04"/>
<circle cx="182" cy="173" r="118" fill="url(#paint1_radial_248_769)" fill-opacity="0.05"/>
<circle cx="182" cy="173" r="117.5" stroke="white" stroke-opacity="0.04"/>
<circle cx="181.5" cy="172.5" r="77.5" fill="url(#paint2_radial_248_769)" fill-opacity="0.06"/>
<circle cx="181.5" cy="172.5" r="77" stroke="white" stroke-opacity="0.04"/>
<rect x="269" y="122" width="51" height="51" rx="25.5" fill="#1A1A23"/>
<rect x="269.5" y="122.5" width="50" height="50" rx="25" stroke="white" stroke-opacity="0.12"/>
<path opacity="0.6" d="M294.045 147.545H290.637V145.636H294.047V147.546L294.045 147.545ZM297.455 135V141H303.455L297.455 135ZM298.818 145.636H295.408V147.546H298.818V145.636ZM298.818 148.909H295.408V150.819H298.818V148.909ZM303.454 141.5V157.364C303.454 158.268 302.722 159 301.818 159H287.636C287.421 159 287.208 158.958 287.01 158.875C286.811 158.793 286.631 158.673 286.479 158.521C286.172 158.214 286 157.798 286 157.364V136.636C286 135.732 286.732 135 287.636 135H296.954V141.5H303.454ZM300.181 144.273H289.272V152.182H300.182V144.272L300.181 144.273ZM294.045 148.909H290.637V150.819H294.047V148.909H294.045Z" fill="#20A868"/>
<rect x="164" y="77" width="51" height="51" rx="25.5" fill="#1A1A23"/>
<rect x="164.5" y="77.5" width="50" height="50" rx="25" stroke="white" stroke-opacity="0.12"/>
<g opacity="0.6" clip-path="url(#clip0_248_769)">
<path d="M182.426 110.912V101.687L179.565 99.0696L177 97.6172V109.284C177 110.184 177.73 110.912 178.628 110.912H182.426Z" fill="#4285F4"/>
<path d="M195.449 110.912H199.248C200.148 110.912 200.876 110.182 200.876 109.284V97.6172L197.97 99.2807L195.449 101.687V110.912Z" fill="#34A853"/>
<path d="M182.426 101.686L182.037 98.0821L182.426 94.6323L188.938 99.516L195.449 94.6323L195.885 97.8958L195.449 101.686L188.938 106.57L182.426 101.686Z" fill="#EA4335"/>
<path d="M195.449 94.6325V101.687L200.876 97.6169V95.4464C200.876 93.4333 198.577 92.2857 196.969 93.493L195.449 94.6325Z" fill="#FBBC04"/>
<path d="M177 97.617L179.496 99.4888L182.426 101.687V94.6325L180.907 93.493C179.295 92.2856 177 93.4333 177 95.4463V97.617Z" fill="#C5221F"/>
</g>
<rect x="108" y="206" width="51" height="51" rx="25.5" fill="#1A1A23"/>
<rect x="108.5" y="206.5" width="50" height="50" rx="25" stroke="white" stroke-opacity="0.12"/>
<g opacity="0.6" clip-path="url(#clip1_248_769)">
<path d="M127.472 234.243C127.472 235.446 126.491 236.428 125.288 236.428C124.085 236.428 123.104 235.446 123.104 234.243C123.104 233.04 124.086 232.058 125.288 232.058H127.472L127.472 234.243ZM128.572 234.243C128.572 233.04 129.555 232.058 130.757 232.058C131.96 232.058 132.942 233.04 132.942 234.243V239.712C132.942 240.915 131.96 241.897 130.757 241.897C129.555 241.897 128.572 240.915 128.572 239.712V234.243Z" fill="#DE1C59"/>
<path d="M130.757 225.472C129.555 225.472 128.572 224.491 128.572 223.288C128.572 222.085 129.555 221.104 130.757 221.104C131.96 221.104 132.942 222.086 132.942 223.288V225.472L130.757 225.472ZM130.757 226.572C131.96 226.572 132.942 227.555 132.942 228.757C132.942 229.96 131.96 230.942 130.757 230.942H125.288C124.086 230.942 123.104 229.96 123.104 228.757C123.104 227.555 124.086 226.572 125.288 226.572H130.757Z" fill="#35C5F0"/>
<path d="M139.529 228.757C139.529 227.555 140.51 226.572 141.712 226.572C142.915 226.572 143.897 227.555 143.897 228.757C143.897 229.96 142.915 230.942 141.712 230.942H139.529V228.757ZM138.428 228.757C138.428 229.96 137.446 230.942 136.243 230.942C135.041 230.942 134.059 229.96 134.059 228.757V223.288C134.059 222.086 135.041 221.104 136.243 221.104C137.446 221.104 138.428 222.086 138.428 223.288V228.757Z" fill="#2EB57D"/>
<path d="M136.243 237.528C137.446 237.528 138.428 238.509 138.428 239.712C138.428 240.915 137.446 241.897 136.243 241.897C135.041 241.897 134.059 240.915 134.059 239.712V237.528H136.243ZM136.243 236.428C135.041 236.428 134.059 235.446 134.059 234.243C134.059 233.04 135.041 232.058 136.243 232.058H141.712C142.915 232.058 143.897 233.04 143.897 234.243C143.897 235.446 142.915 236.428 141.712 236.428H136.243Z" fill="#EBB02E"/>
</g>
<path d="M181.5 410C49.7801 410 -57 303.668 -57 172.5C-57 41.3324 49.7801 -65 181.5 -65C313.22 -65 420 41.3324 420 172.5C420 303.668 313.22 410 181.5 410Z" fill="url(#paint3_radial_248_769)" fill-opacity="0.58"/>
<g filter="url(#filter0_d_248_769)">
<path d="M182.377 164.15C199.275 167.342 196.209 191.273 183.907 196.313C189.288 195.853 200.852 192.201 202.268 178.544C201.398 173.473 195.843 162.95 182.377 164.15Z" fill="url(#paint4_linear_248_769)"/>
<path d="M186.755 163.157C173.614 162.568 170.494 172.305 170.494 172.305C171.124 157.309 185.844 154.944 186.145 155.001C200.423 157.715 201.756 169.67 202.057 175.429C199.836 167.748 192.104 163.397 186.755 163.157Z" fill="url(#paint5_linear_248_769)"/>
<path d="M181.953 155.597C167.731 159.078 166.021 180.32 176.402 185.81C163.537 183.05 161.093 171.778 161.683 166.937C166.123 156.472 177.182 155.317 181.953 155.597Z" fill="url(#paint6_linear_248_769)"/>
<path d="M186.726 185.301C177.635 189.772 162.363 184.551 161.163 170.45C159.782 175.06 157.787 185.949 167.533 192.574C170.633 193.374 180.149 193.03 186.726 185.301Z" fill="url(#paint7_linear_248_769)"/>
<path d="M192.845 175.403C187.757 191.245 175.983 194.185 170.732 193.675C175.143 196.286 178.669 197.247 180.049 196.947C190.131 194.757 194.646 181.854 192.845 175.403Z" fill="url(#paint8_linear_248_769)"/>
</g>
<defs>
<filter id="filter0_d_248_769" x="119.7" y="114.7" width="122.869" height="122.6" filterUnits="userSpaceOnUse" color-interpolation-filters="sRGB">
<feFlood flood-opacity="0" result="BackgroundImageFix"/>
<feColorMatrix in="SourceAlpha" type="matrix" values="0 0 0 0 0 0 0 0 0 0 0 0 0 0 0 0 0 0 127 0" result="hardAlpha"/>
<feOffset/>
<feGaussianBlur stdDeviation="20.15"/>
<feComposite in2="hardAlpha" operator="out"/>
<feColorMatrix type="matrix" values="0 0 0 0 0.274231 0 0 0 0 0.146154 0 0 0 0 1 0 0 0 1 0"/>
<feBlend mode="normal" in2="BackgroundImageFix" result="effect1_dropShadow_248_769"/>
<feBlend mode="normal" in="SourceGraphic" in2="effect1_dropShadow_248_769" result="shape"/>
</filter>
<radialGradient id="paint0_radial_248_769" cx="0" cy="0" r="1" gradientUnits="userSpaceOnUse" gradientTransform="translate(182 173) rotate(90) scale(153)">
<stop stop-color="#4A4D99" stop-opacity="0"/>
<stop offset="1" stop-color="#7C80FF"/>
</radialGradient>
<radialGradient id="paint1_radial_248_769" cx="0" cy="0" r="1" gradientUnits="userSpaceOnUse" gradientTransform="translate(182 173) rotate(90) scale(118)">
<stop stop-color="#4B4499" stop-opacity="0"/>
<stop offset="1" stop-color="#7D71FF"/>
</radialGradient>
<radialGradient id="paint2_radial_248_769" cx="0" cy="0" r="1" gradientUnits="userSpaceOnUse" gradientTransform="translate(181.5 172.5) rotate(90) scale(77.5)">
<stop stop-color="#4A4D99" stop-opacity="0"/>
<stop offset="1" stop-color="#7C80FF"/>
</radialGradient>
<radialGradient id="paint3_radial_248_769" cx="0" cy="0" r="1" gradientUnits="userSpaceOnUse" gradientTransform="translate(181.5 172.5) rotate(89.7613) scale(120.001 120.506)">
<stop stop-color="#694BFF" stop-opacity="0.57"/>
<stop offset="1" stop-color="#4D00FF" stop-opacity="0"/>
</radialGradient>
<linearGradient id="paint4_linear_248_769" x1="195.483" y1="189.74" x2="175.412" y2="171.455" gradientUnits="userSpaceOnUse">
<stop stop-color="#5A45FF"/>
<stop offset="0.265384" stop-color="#7D71FF"/>
<stop offset="0.478947" stop-color="#7C81FF"/>
<stop offset="1" stop-color="#000099"/>
</linearGradient>
<linearGradient id="paint5_linear_248_769" x1="191.291" y1="171.266" x2="181.906" y2="149.845" gradientUnits="userSpaceOnUse">
<stop stop-color="#5A45FF"/>
<stop offset="0.265384" stop-color="#7D71FF"/>
<stop offset="0.478947" stop-color="#7C81FF"/>
<stop offset="1" stop-color="#000099"/>
</linearGradient>
<linearGradient id="paint6_linear_248_769" x1="175.012" y1="179.646" x2="156.109" y2="160.858" gradientUnits="userSpaceOnUse">
<stop stop-color="#5A45FF"/>
<stop offset="0.265384" stop-color="#7D71FF"/>
<stop offset="0.478947" stop-color="#7C81FF"/>
<stop offset="1" stop-color="#000099"/>
</linearGradient>
<linearGradient id="paint7_linear_248_769" x1="177.61" y1="188.301" x2="165.578" y2="167.112" gradientUnits="userSpaceOnUse">
<stop stop-color="#5A45FF"/>
<stop offset="0.265384" stop-color="#7D71FF"/>
<stop offset="0.478947" stop-color="#7C81FF"/>
<stop offset="1" stop-color="#000099"/>
</linearGradient>
<linearGradient id="paint8_linear_248_769" x1="185.558" y1="192.599" x2="173.226" y2="173.619" gradientUnits="userSpaceOnUse">
<stop stop-color="#5A45FF"/>
<stop offset="0.265384" stop-color="#7D71FF"/>
<stop offset="0.478947" stop-color="#7C81FF"/>
<stop offset="1" stop-color="#000099"/>
</linearGradient>
<clipPath id="clip0_248_769">
<rect width="23.8756" height="18" fill="white" transform="translate(177 93)"/>
</clipPath>
<clipPath id="clip1_248_769">
<rect width="21" height="21" fill="white" transform="translate(123 221)"/>
</clipPath>
</defs>
</svg>
