<svg width="361" height="291" viewBox="0 0 361 291" fill="none" xmlns="http://www.w3.org/2000/svg">
<g clip-path="url(#clip0_248_772)">
<path d="M70.9541 211.106C55.017 204.394 36.3443 213.903 29 219.496V266H338V26.5C328 39.5 305 78 285 80.5C274 81.875 286 109.734 271 114.5C260.202 117.931 263.069 107.135 252.236 92.3461C243.57 80.5153 227.911 81.1602 222.5 102.5C214.973 132.182 206.337 177.2 196.931 162.486C183.5 141.476 165.838 139.554 152.498 162.486C139.159 185.418 125.927 166.617 109.311 178.846C92.6944 191.075 90.8754 219.496 70.9541 211.106Z" fill="url(#paint0_linear_248_772)" fill-opacity="0.5"/>
<path d="M23.6667 218C23.6667 220.946 26.0545 223.333 29 223.333C31.9455 223.333 34.3333 220.946 34.3333 218C34.3333 215.054 31.9455 212.667 29 212.667C26.0545 212.667 23.6667 215.054 23.6667 218ZM70.9541 209.781L71.3355 208.857L70.9541 209.781ZM196.931 162.151L197.768 161.604L197.768 161.604L196.931 162.151ZM222.589 99.9985L223.543 100.297L222.589 99.9985ZM251.236 91.6776L250.435 92.2765L250.435 92.2765L251.236 91.6776ZM268.5 114.5L268.797 115.455L268.797 115.455L268.5 114.5ZM279.144 88L280.136 88.1252L279.144 88ZM338.5 24L328.484 29.7454L338.468 35.547L338.5 24ZM29 218L29.598 218.802C33.1838 216.126 39.581 212.486 47.0326 210.331C54.4869 208.175 62.8885 207.535 70.5727 210.706L70.9541 209.781L71.3355 208.857C63.0826 205.452 54.1793 206.182 46.4769 208.41C38.7718 210.638 32.1605 214.394 28.402 217.198L29 218ZM70.9541 209.781L70.5727 210.706C75.7655 212.848 79.9258 212.686 83.4678 210.887C86.9393 209.123 89.6723 205.854 92.2003 202.114C93.4709 200.234 94.7131 198.198 95.978 196.131C97.2472 194.057 98.5425 191.948 99.9372 189.886C102.728 185.76 105.88 181.884 109.896 178.989L109.311 178.178L108.726 177.366C104.434 180.461 101.127 184.558 98.2806 188.765C96.8568 190.87 95.5391 193.017 94.2721 195.087C93.0007 197.164 91.7836 199.159 90.5432 200.994C88.0492 204.684 85.5537 207.584 82.562 209.104C79.6408 210.587 76.1032 210.824 71.3355 208.857L70.9541 209.781ZM109.311 178.178L109.896 178.989C117.856 173.25 124.88 174.79 132.091 175.095C135.671 175.247 139.293 175.076 142.892 173.349C146.497 171.62 149.956 168.391 153.358 162.661L152.498 162.151L151.638 161.64C148.371 167.143 145.174 170.036 142.027 171.546C138.873 173.059 135.648 173.244 132.176 173.097C125.282 172.805 117.382 171.126 108.726 177.366L109.311 178.178ZM152.498 162.151L153.358 162.661C159.942 151.572 167.413 146.788 174.65 147.007C181.931 147.228 189.451 152.518 196.093 162.697L196.931 162.151L197.768 161.604C190.979 151.2 182.954 145.258 174.71 145.008C166.424 144.757 158.393 150.264 151.638 161.64L152.498 162.151ZM196.931 162.151L196.093 162.697C197.35 164.623 198.903 165.721 200.727 165.314C201.564 165.127 202.323 164.64 203.006 163.999C203.692 163.356 204.348 162.512 204.979 161.525C207.482 157.612 209.914 150.91 212.188 143.343C214.473 135.742 216.632 127.147 218.56 119.374C220.492 111.58 222.184 104.643 223.543 100.297L222.589 99.9985L221.634 99.7C220.252 104.12 218.541 111.137 216.618 118.893C214.69 126.67 212.542 135.22 210.273 142.767C207.994 150.348 205.628 156.798 203.294 160.447C202.716 161.351 202.162 162.049 201.637 162.541C201.109 163.036 200.659 163.28 200.291 163.362C199.704 163.493 198.863 163.282 197.768 161.604L196.931 162.151ZM222.589 99.9985L223.543 100.297C226.704 90.1906 231.511 85.656 236.247 84.7885C240.995 83.9188 246.216 86.634 250.435 92.2765L251.236 91.6776L252.037 91.0788C247.59 85.1312 241.693 81.7577 235.887 82.8212C230.068 83.887 224.885 89.3079 221.634 99.7L222.589 99.9985ZM251.236 91.6776L250.435 92.2765C255.741 99.3725 257.298 105.725 258.944 110.132C259.745 112.275 260.639 114.173 262.217 115.222C263.869 116.321 265.99 116.329 268.797 115.455L268.5 114.5L268.203 113.545C265.611 114.352 264.228 114.158 263.324 113.557C262.344 112.905 261.629 111.604 260.818 109.432C259.24 105.21 257.564 98.4703 252.037 91.0788L251.236 91.6776ZM268.5 114.5L268.797 115.455C271.585 114.587 273.633 113.444 275.129 111.897C276.63 110.345 277.5 108.462 278.061 106.249C278.617 104.057 278.882 101.481 279.135 98.5138C279.39 95.5252 279.634 92.1042 280.136 88.1252L279.144 88L278.152 87.8748C277.644 91.9058 277.395 95.3844 277.142 98.344C276.888 101.325 276.633 103.746 276.123 105.758C275.618 107.75 274.877 109.28 273.691 110.507C272.5 111.739 270.786 112.741 268.203 113.545L268.5 114.5ZM279.144 88L280.136 88.1252C280.427 85.8243 280.888 84.3137 281.491 83.2606C282.076 82.2376 282.827 81.5901 283.823 81.0706C284.862 80.5287 286.133 80.1409 287.79 79.6316C289.42 79.1306 291.348 78.5318 293.565 77.5735C302.483 73.7177 315.733 64.1914 334.839 32.2898L333.981 31.776L333.123 31.2622C314.123 62.9862 301.148 72.116 292.771 75.7377C290.664 76.6489 288.826 77.2208 287.203 77.7199C285.606 78.2106 284.135 78.6523 282.898 79.2972C281.619 79.9644 280.56 80.8609 279.755 82.2673C278.967 83.6436 278.458 85.4477 278.152 87.8748L279.144 88Z" fill="url(#paint1_linear_248_772)"/>
<path d="M30.65 257H29.85V250H30.73L33.33 255.9L35.92 250H36.79V257H35.99V251.58L33.61 257H33.04L30.65 251.58V257Z" fill="white" fill-opacity="0.34"/>
<path d="M66.43 250H71.68V250.7H69.46V257H68.66V250.7H66.43V250Z" fill="white" fill-opacity="0.34"/>
<path d="M103.13 257H102.25L100.28 250H101.13L102.69 256.03L104.41 250H105.3L107.01 256.02L108.58 250H109.42L107.45 257H106.57L104.85 251.2L103.13 257Z" fill="white" fill-opacity="0.34"/>
<path d="M138.43 250H143.68V250.7H141.46V257H140.66V250.7H138.43V250ZM144.874 249.8H145.624V252.68C145.784 252.44 146 252.257 146.274 252.13C146.547 251.997 146.854 251.93 147.194 251.93C147.56 251.93 147.887 252.013 148.174 252.18C148.46 252.347 148.684 252.593 148.844 252.92C149.01 253.247 149.094 253.653 149.094 254.14V257H148.294V254.23C148.294 253.71 148.184 253.313 147.964 253.04C147.744 252.76 147.424 252.62 147.004 252.62C146.57 252.62 146.23 252.767 145.984 253.06C145.744 253.353 145.624 253.78 145.624 254.34V257H144.874V249.8Z" fill="white" fill-opacity="0.34"/>
<path d="M178.85 250H183.44V250.7H179.65V253.09H182.5V253.79H179.65V257H178.85V250Z" fill="white" fill-opacity="0.34"/>
<path d="M213.24 255.22C213.28 255.4 213.363 255.58 213.49 255.76C213.623 255.933 213.803 256.08 214.03 256.2C214.263 256.313 214.56 256.37 214.92 256.37C215.433 256.37 215.813 256.25 216.06 256.01C216.307 255.77 216.43 255.487 216.43 255.16C216.43 254.9 216.36 254.687 216.22 254.52C216.08 254.353 215.89 254.217 215.65 254.11C215.41 253.997 215.14 253.897 214.84 253.81C214.573 253.737 214.307 253.657 214.04 253.57C213.78 253.477 213.543 253.363 213.33 253.23C213.117 253.09 212.947 252.91 212.82 252.69C212.693 252.47 212.63 252.197 212.63 251.87C212.63 251.477 212.723 251.137 212.91 250.85C213.097 250.557 213.36 250.33 213.7 250.17C214.04 250.01 214.437 249.93 214.89 249.93C215.283 249.93 215.627 249.987 215.92 250.1C216.213 250.213 216.457 250.373 216.65 250.58C216.85 250.78 216.997 251.013 217.09 251.28L216.38 251.55C216.333 251.397 216.243 251.25 216.11 251.11C215.977 250.963 215.803 250.843 215.59 250.75C215.377 250.657 215.133 250.61 214.86 250.61C214.593 250.61 214.35 250.657 214.13 250.75C213.917 250.843 213.747 250.977 213.62 251.15C213.493 251.323 213.43 251.533 213.43 251.78C213.43 252.047 213.503 252.26 213.65 252.42C213.803 252.573 214.003 252.7 214.25 252.8C214.503 252.893 214.78 252.983 215.08 253.07C215.353 253.157 215.617 253.25 215.87 253.35C216.13 253.45 216.36 253.573 216.56 253.72C216.767 253.867 216.93 254.05 217.05 254.27C217.17 254.49 217.23 254.76 217.23 255.08C217.23 255.433 217.147 255.763 216.98 256.07C216.813 256.37 216.56 256.613 216.22 256.8C215.887 256.98 215.457 257.07 214.93 257.07C214.49 257.07 214.103 257.003 213.77 256.87C213.437 256.73 213.163 256.543 212.95 256.31C212.737 256.077 212.59 255.81 212.51 255.51L213.24 255.22ZM221.642 257L221.582 256.1C221.442 256.407 221.236 256.647 220.962 256.82C220.689 256.987 220.342 257.07 219.922 257.07C219.562 257.07 219.256 257.013 219.002 256.9C218.749 256.787 218.552 256.627 218.412 256.42C218.279 256.207 218.212 255.957 218.212 255.67C218.212 255.25 218.369 254.907 218.682 254.64C218.996 254.367 219.449 254.2 220.042 254.14L221.582 253.97V253.57C221.582 253.29 221.479 253.067 221.272 252.9C221.066 252.727 220.786 252.64 220.432 252.64C220.086 252.64 219.796 252.72 219.562 252.88C219.336 253.04 219.179 253.27 219.092 253.57L218.412 253.33C218.546 252.89 218.789 252.547 219.142 252.3C219.502 252.053 219.939 251.93 220.452 251.93C221.046 251.93 221.506 252.083 221.832 252.39C222.166 252.69 222.332 253.1 222.332 253.62V257H221.642ZM221.582 254.61L220.032 254.79C219.699 254.83 219.446 254.923 219.272 255.07C219.099 255.21 219.012 255.397 219.012 255.63C219.012 255.863 219.096 256.05 219.262 256.19C219.436 256.33 219.682 256.4 220.002 256.4C220.369 256.4 220.669 256.327 220.902 256.18C221.136 256.033 221.306 255.837 221.412 255.59C221.526 255.337 221.582 255.063 221.582 254.77V254.61Z" fill="white" fill-opacity="0.34"/>
<path d="M254.24 255.22C254.28 255.4 254.363 255.58 254.49 255.76C254.623 255.933 254.803 256.08 255.03 256.2C255.263 256.313 255.56 256.37 255.92 256.37C256.433 256.37 256.813 256.25 257.06 256.01C257.307 255.77 257.43 255.487 257.43 255.16C257.43 254.9 257.36 254.687 257.22 254.52C257.08 254.353 256.89 254.217 256.65 254.11C256.41 253.997 256.14 253.897 255.84 253.81C255.573 253.737 255.307 253.657 255.04 253.57C254.78 253.477 254.543 253.363 254.33 253.23C254.117 253.09 253.947 252.91 253.82 252.69C253.693 252.47 253.63 252.197 253.63 251.87C253.63 251.477 253.723 251.137 253.91 250.85C254.097 250.557 254.36 250.33 254.7 250.17C255.04 250.01 255.437 249.93 255.89 249.93C256.283 249.93 256.627 249.987 256.92 250.1C257.213 250.213 257.457 250.373 257.65 250.58C257.85 250.78 257.997 251.013 258.09 251.28L257.38 251.55C257.333 251.397 257.243 251.25 257.11 251.11C256.977 250.963 256.803 250.843 256.59 250.75C256.377 250.657 256.133 250.61 255.86 250.61C255.593 250.61 255.35 250.657 255.13 250.75C254.917 250.843 254.747 250.977 254.62 251.15C254.493 251.323 254.43 251.533 254.43 251.78C254.43 252.047 254.503 252.26 254.65 252.42C254.803 252.573 255.003 252.7 255.25 252.8C255.503 252.893 255.78 252.983 256.08 253.07C256.353 253.157 256.617 253.25 256.87 253.35C257.13 253.45 257.36 253.573 257.56 253.72C257.767 253.867 257.93 254.05 258.05 254.27C258.17 254.49 258.23 254.76 258.23 255.08C258.23 255.433 258.147 255.763 257.98 256.07C257.813 256.37 257.56 256.613 257.22 256.8C256.887 256.98 256.457 257.07 255.93 257.07C255.49 257.07 255.103 257.003 254.77 256.87C254.437 256.73 254.163 256.543 253.95 256.31C253.737 256.077 253.59 255.81 253.51 255.51L254.24 255.22ZM263.602 257H262.922L262.872 256.28C262.719 256.533 262.512 256.73 262.252 256.87C261.992 257.003 261.689 257.07 261.342 257.07C260.956 257.07 260.619 256.99 260.332 256.83C260.046 256.67 259.822 256.43 259.662 256.11C259.509 255.79 259.432 255.387 259.432 254.9V252H260.172V254.82C260.172 255.333 260.282 255.723 260.502 255.99C260.729 256.25 261.052 256.38 261.472 256.38C261.899 256.38 262.236 256.243 262.482 255.97C262.736 255.69 262.862 255.27 262.862 254.71V252H263.602V257Z" fill="white" fill-opacity="0.34"/>
<line x1="29.5" y1="230.5" x2="337.5" y2="230.5" stroke="white" stroke-opacity="0.19" stroke-linecap="round" stroke-linejoin="round" stroke-dasharray="5 5"/>
<line x1="29.5" y1="193.5" x2="337.5" y2="193.5" stroke="white" stroke-opacity="0.19" stroke-linecap="round" stroke-linejoin="round" stroke-dasharray="5 5"/>
<line x1="29.5" y1="155.5" x2="337.5" y2="155.5" stroke="white" stroke-opacity="0.19" stroke-linecap="round" stroke-linejoin="round" stroke-dasharray="5 5"/>
<line x1="29.5" y1="117.5" x2="337.5" y2="117.5" stroke="white" stroke-opacity="0.19" stroke-linecap="round" stroke-linejoin="round" stroke-dasharray="5 5"/>
<line x1="29.5" y1="80.5" x2="337.5" y2="80.5001" stroke="white" stroke-opacity="0.19" stroke-linecap="round" stroke-linejoin="round" stroke-dasharray="5 5"/>
<line x1="29.5" y1="42.5" x2="337.5" y2="42.5001" stroke="white" stroke-opacity="0.19" stroke-linecap="round" stroke-linejoin="round" stroke-dasharray="5 5"/>
<path d="M330.5 281C198.78 281 92 174.668 92 43.5C92 -87.6676 198.78 -194 330.5 -194C462.22 -194 569 -87.6676 569 43.5C569 174.668 462.22 281 330.5 281Z" fill="url(#paint2_radial_248_772)" fill-opacity="0.58"/>
</g>
<defs>
<linearGradient id="paint0_linear_248_772" x1="183.5" y1="102.18" x2="183.5" y2="266" gradientUnits="userSpaceOnUse">
<stop stop-color="#8576FA" stop-opacity="0.48"/>
<stop offset="0.90183" stop-color="#9976FA" stop-opacity="0"/>
</linearGradient>
<linearGradient id="paint1_linear_248_772" x1="232.93" y1="178.466" x2="145.75" y2="-27.0124" gradientUnits="userSpaceOnUse">
<stop stop-color="#5A45FF"/>
<stop offset="0.265384" stop-color="#7D71FF"/>
<stop offset="0.478947" stop-color="#7C81FF"/>
<stop offset="1" stop-color="#000099"/>
</linearGradient>
<radialGradient id="paint2_radial_248_772" cx="0" cy="0" r="1" gradientUnits="userSpaceOnUse" gradientTransform="translate(330.5 43.5) rotate(89.7613) scale(120.001 120.506)">
<stop stop-color="#694BFF" stop-opacity="0.57"/>
<stop offset="1" stop-color="#4D00FF" stop-opacity="0"/>
</radialGradient>
<clipPath id="clip0_248_772">
<rect width="361" height="291" fill="white"/>
</clipPath>
</defs>
</svg>
