<svg width="361" height="291" viewBox="0 0 361 291" fill="none" xmlns="http://www.w3.org/2000/svg">
<g clip-path="url(#clip0_283_1437)">
<g filter="url(#filter0_d_283_1437)">
<rect x="136" y="110" width="88" height="88" rx="44" fill="black" fill-opacity="0.46" shape-rendering="crispEdges"/>
<rect x="136.5" y="110.5" width="87" height="87" rx="43.5" stroke="url(#paint0_linear_283_1437)" shape-rendering="crispEdges"/>
<path d="M195.798 153.492H195.794C195.747 152.535 194.711 151.641 192.922 151.113C189.093 149.984 184.845 149.324 180 149.285C175.159 149.324 170.912 149.984 167.079 151.113C165.29 151.641 164.262 152.535 164.21 153.492H164.202V173.055C164.158 174.148 165.406 175.32 168.29 176.121C171.271 176.949 175.303 177.484 179.996 177.484C184.69 177.484 188.722 176.949 191.702 176.121C194.727 175.281 195.95 174.035 195.774 172.898H195.79V153.492H195.798ZM164.202 153.777H195.798Z" fill="url(#paint1_linear_283_1437)"/>
<path d="M183.148 171.281L181.359 167.148C181.876 166.904 182.312 166.521 182.617 166.044C182.922 165.567 183.084 165.016 183.084 164.453C183.084 162.797 181.713 161.457 180.028 161.457C178.343 161.457 176.972 162.801 176.972 164.453C176.972 165.566 177.594 166.539 178.514 167.055L176.849 171.309C176.637 171.848 177.044 172.422 177.63 172.422H182.379C182.977 172.422 183.379 171.82 183.148 171.281Z" fill="#010918"/>
<path d="M182.977 170.898H177.004L176.845 171.309C176.633 171.848 177.04 172.422 177.626 172.422H182.375C182.977 172.422 183.379 171.82 183.144 171.281L182.977 170.898ZM178.785 166.266C178.857 166.063 178.781 165.844 178.606 165.719C178.367 165.547 178.044 165.242 177.841 164.758C177.1 163.008 177.98 162.23 177.98 162.23C177.661 162.51 177.406 162.853 177.232 163.236C177.057 163.619 176.968 164.034 176.968 164.453C176.968 165.566 177.59 166.539 178.51 167.055L178.785 166.266ZM182.176 162.32C182.176 162.32 183.052 164.047 182.048 165.152C181.706 165.527 181.415 165.727 181.2 165.824C180.988 165.922 180.893 166.168 180.992 166.375L181.363 167.141C181.88 166.896 182.316 166.513 182.621 166.036C182.926 165.56 183.088 165.008 183.088 164.445C183.08 163.176 182.176 162.32 182.176 162.32Z" fill="white" fill-opacity="0.35"/>
<path d="M192.248 150.855C188.619 149.82 184.59 149.219 180 149.18C175.41 149.215 171.382 149.82 167.752 150.852C164.115 151.887 163.752 154.469 168.904 155.852C171.729 156.609 175.554 157.098 180 157.098C184.447 157.098 188.272 156.609 191.097 155.852C196.249 154.473 195.886 151.887 192.248 150.855Z" fill="url(#paint2_linear_283_1437)"/>
<path d="M191.216 153.301C191.216 153.301 191.069 153.973 189.136 153.973C187.204 153.973 186.794 153.301 186.794 153.301V144.688C186.794 140.773 183.746 137.594 179.996 137.594C176.247 137.594 173.199 140.777 173.199 144.688V153.305C173.199 153.305 172.358 153.977 170.828 153.977C169.298 153.977 168.78 153.305 168.78 153.305V144.688C168.78 138.383 173.813 133.258 179.996 133.258C186.18 133.258 191.212 138.387 191.212 144.688V153.301H191.216Z" fill="#979797" stroke="white" stroke-opacity="0.25" stroke-width="0.24475" stroke-miterlimit="10"/>
<path d="M174.944 137.422C172.896 138.617 172.581 139.426 172.012 139.797C171.589 140.07 171.027 139.851 171.394 138.902C171.709 138.09 172.466 136.551 174.354 135.367C177.606 133.328 180.411 133.422 180.259 134.98C180.132 136.359 177.128 136.148 174.944 137.422Z" fill="white"/>
</g>
<g opacity="0.72">
<path style="mix-blend-mode:color-dodge" d="M152.152 116.308C151.008 116.088 150.033 115.442 149.442 114.511C148.851 113.58 148.691 112.44 148.998 111.342C149.306 110.243 150.057 109.276 151.085 108.653C152.113 108.03 153.334 107.803 154.48 108.02C155.047 108.128 155.579 108.343 156.044 108.652C156.51 108.96 156.9 109.357 157.193 109.818C157.486 110.28 157.675 110.798 157.751 111.342C157.826 111.887 157.786 112.447 157.632 112.991C157.324 114.09 156.573 115.056 155.546 115.678C154.518 116.3 153.297 116.527 152.152 116.308Z" fill="url(#paint3_radial_283_1437)"/>
<path style="mix-blend-mode:color-dodge" d="M53.4115 109.489C53.4084 111.826 55.4162 113.597 57.8961 113.444C60.3759 113.291 62.3888 111.273 62.3919 108.936C62.395 106.599 60.3871 104.828 57.9073 104.981C55.4274 105.134 53.4146 107.152 53.4115 109.489Z" fill="url(#paint4_radial_283_1437)"/>
<path style="mix-blend-mode:color-dodge" d="M136.792 88.6923C136.15 90.9795 137.562 93.2029 139.947 93.6583C142.331 94.1137 144.785 92.6288 145.427 90.3416C146.069 88.0544 144.657 85.831 142.273 85.3755C139.888 84.9201 137.434 86.405 136.792 88.6923Z" fill="url(#paint5_radial_283_1437)"/>
<path style="mix-blend-mode:color-dodge" d="M90.2164 182.29C89.935 182.237 89.6953 182.078 89.55 181.849C89.4046 181.62 89.3656 181.34 89.4413 181.07C89.5171 180.8 89.7016 180.563 89.9541 180.41C90.2066 180.257 90.5065 180.202 90.7879 180.255C91.0692 180.309 91.3089 180.468 91.4542 180.697C91.5996 180.926 91.6387 181.206 91.5629 181.476C91.4871 181.745 91.3027 181.983 91.0501 182.136C90.7976 182.289 90.4977 182.344 90.2164 182.29Z" fill="url(#paint6_radial_283_1437)"/>
<path style="mix-blend-mode:color-dodge" d="M166.634 129.414C166.212 129.333 165.852 129.095 165.634 128.752C165.416 128.409 165.357 127.988 165.471 127.583C165.585 127.179 165.861 126.822 166.24 126.593C166.619 126.364 167.069 126.281 167.491 126.361C167.913 126.442 168.272 126.68 168.49 127.023C168.708 127.366 168.767 127.787 168.653 128.191C168.54 128.596 168.263 128.952 167.884 129.182C167.506 129.411 167.056 129.494 166.634 129.414Z" fill="url(#paint7_radial_283_1437)"/>
<path style="mix-blend-mode:color-dodge" d="M72.4129 147.996C71.9909 147.915 71.6314 147.677 71.4134 147.334C71.1953 146.991 71.1367 146.57 71.2504 146.166C71.3641 145.761 71.6407 145.405 72.0195 145.175C72.3983 144.946 72.8482 144.863 73.2702 144.943C73.6922 145.024 74.0517 145.262 74.2698 145.605C74.4878 145.948 74.5464 146.369 74.4327 146.773C74.319 147.178 74.0424 147.534 73.6636 147.764C73.2848 147.993 72.8349 148.076 72.4129 147.996Z" fill="url(#paint8_radial_283_1437)"/>
<path style="mix-blend-mode:color-dodge" d="M149.018 180.075C148.375 182.362 149.788 184.586 152.172 185.041C154.557 185.497 157.01 184.012 157.652 181.724C158.295 179.437 156.882 177.214 154.498 176.758C152.114 176.303 149.66 177.788 149.018 180.075Z" fill="url(#paint9_radial_283_1437)"/>
<path style="mix-blend-mode:color-dodge" d="M34.0062 142.083C34.0031 144.42 36.0109 146.191 38.4908 146.038C40.9707 145.885 42.9835 143.866 42.9866 141.529C42.9897 139.192 40.9819 137.422 38.502 137.575C36.0221 137.728 34.0093 139.746 34.0062 142.083Z" fill="url(#paint10_radial_283_1437)"/>
<path style="mix-blend-mode:color-dodge" d="M117.391 121.282C116.749 123.569 118.161 125.793 120.545 126.248C122.93 126.704 125.383 125.219 126.025 122.931C126.668 120.644 125.256 118.421 122.871 117.965C120.487 117.51 118.033 118.995 117.391 121.282Z" fill="url(#paint11_radial_283_1437)"/>
<path style="mix-blend-mode:color-dodge" d="M67.9036 128.781C68.2277 131.067 70.4751 132.548 72.9231 132.089C75.3711 131.63 77.0928 129.404 76.7686 127.118C76.4444 124.831 74.1971 123.35 71.7491 123.809C69.3011 124.268 67.5794 126.494 67.9036 128.781Z" fill="url(#paint12_radial_283_1437)"/>
<path style="mix-blend-mode:color-dodge" d="M70.815 214.88C70.5337 214.827 70.294 214.668 70.1486 214.439C70.0033 214.21 69.9642 213.93 70.04 213.66C70.1158 213.39 70.3002 213.153 70.5527 213C70.8052 212.847 71.1052 212.791 71.3865 212.845C71.6678 212.899 71.9075 213.058 72.0529 213.287C72.1982 213.515 72.2373 213.796 72.1615 214.065C72.0857 214.335 71.9013 214.573 71.6488 214.726C71.3963 214.878 71.0963 214.934 70.815 214.88Z" fill="url(#paint13_radial_283_1437)"/>
<path style="mix-blend-mode:color-dodge" d="M147.232 162.004C146.81 161.923 146.451 161.685 146.233 161.342C146.015 160.998 145.956 160.578 146.07 160.173C146.183 159.769 146.46 159.412 146.839 159.183C147.218 158.954 147.668 158.87 148.09 158.951C148.512 159.032 148.871 159.27 149.089 159.613C149.307 159.956 149.366 160.376 149.252 160.781C149.138 161.186 148.862 161.542 148.483 161.771C148.104 162.001 147.654 162.084 147.232 162.004Z" fill="url(#paint14_radial_283_1437)"/>
<path style="mix-blend-mode:color-dodge" d="M53.0106 180.582C52.5886 180.501 52.229 180.263 52.011 179.92C51.793 179.576 51.7344 179.156 51.8481 178.751C51.9617 178.347 52.2384 177.99 52.6172 177.761C52.996 177.532 53.4458 177.448 53.8678 177.529C54.2898 177.61 54.6494 177.848 54.8674 178.191C55.0854 178.534 55.144 178.955 55.0304 179.359C54.9167 179.764 54.64 180.12 54.2612 180.35C53.8825 180.579 53.4326 180.662 53.0106 180.582Z" fill="url(#paint15_radial_283_1437)"/>
<path style="mix-blend-mode:color-dodge" d="M231.376 200.036C230.734 202.323 232.146 204.547 234.531 205.002C236.915 205.457 239.369 203.973 240.011 201.685C240.653 199.398 239.241 197.175 236.856 196.719C234.472 196.264 232.018 197.749 231.376 200.036Z" fill="url(#paint16_radial_283_1437)"/>
<path style="mix-blend-mode:color-dodge" d="M116.367 162.044C116.363 164.381 118.371 166.152 120.851 165.999C123.331 165.846 125.344 163.827 125.347 161.49C125.35 159.153 123.342 157.383 120.862 157.536C118.382 157.689 116.37 159.707 116.367 162.044Z" fill="url(#paint17_radial_283_1437)"/>
<path style="mix-blend-mode:color-dodge" d="M184.123 221.147C182.978 220.928 182.003 220.282 181.411 219.35C180.82 218.419 180.66 217.279 180.969 216.181C181.121 215.636 181.384 215.119 181.741 214.657C182.099 214.196 182.546 213.8 183.055 213.492C183.564 213.184 184.126 212.97 184.708 212.862C185.291 212.754 185.882 212.755 186.449 212.864C187.017 212.971 187.548 213.185 188.014 213.493C188.48 213.801 188.87 214.197 189.163 214.659C189.456 215.12 189.646 215.638 189.722 216.182C189.797 216.726 189.757 217.286 189.604 217.83C189.295 218.928 188.544 219.895 187.517 220.517C186.489 221.139 185.268 221.365 184.123 221.147Z" fill="url(#paint18_radial_283_1437)"/>
<path style="mix-blend-mode:color-dodge" d="M150.264 148.742C150.588 151.028 152.835 152.509 155.283 152.05C157.731 151.591 159.453 149.365 159.129 147.078C158.805 144.792 156.557 143.311 154.109 143.77C151.661 144.229 149.94 146.455 150.264 148.742Z" fill="url(#paint19_radial_283_1437)"/>
<path style="mix-blend-mode:color-dodge" d="M201.996 231.759C201.714 231.705 201.475 231.547 201.329 231.318C201.184 231.089 201.145 230.809 201.221 230.539C201.296 230.269 201.481 230.032 201.733 229.879C201.986 229.726 202.286 229.67 202.567 229.724C202.848 229.778 203.088 229.937 203.234 230.165C203.379 230.394 203.418 230.674 203.342 230.944C203.266 231.214 203.082 231.452 202.829 231.604C202.577 231.757 202.277 231.813 201.996 231.759Z" fill="url(#paint20_radial_283_1437)"/>
<path style="mix-blend-mode:color-dodge" d="M229.593 181.965C229.171 181.884 228.811 181.646 228.593 181.303C228.375 180.959 228.316 180.539 228.43 180.134C228.544 179.729 228.82 179.373 229.199 179.144C229.578 178.915 230.028 178.831 230.45 178.912C230.872 178.992 231.231 179.231 231.449 179.574C231.667 179.917 231.726 180.337 231.612 180.742C231.499 181.147 231.222 181.503 230.843 181.732C230.464 181.962 230.015 182.045 229.593 181.965Z" fill="url(#paint21_radial_283_1437)"/>
<path style="mix-blend-mode:color-dodge" d="M135.368 200.543C134.946 200.462 134.586 200.224 134.368 199.881C134.15 199.537 134.092 199.117 134.205 198.712C134.319 198.308 134.596 197.951 134.975 197.722C135.353 197.493 135.803 197.409 136.225 197.49C136.647 197.571 137.007 197.809 137.225 198.152C137.443 198.495 137.501 198.915 137.388 199.32C137.274 199.725 136.997 200.081 136.619 200.31C136.24 200.54 135.79 200.623 135.368 200.543Z" fill="url(#paint22_radial_283_1437)"/>
<path style="mix-blend-mode:color-dodge" d="M232.167 131.192C231.525 133.479 232.937 135.703 235.322 136.158C237.706 136.614 240.16 135.129 240.802 132.842C241.444 130.554 240.032 128.331 237.648 127.876C235.263 127.42 232.809 128.905 232.167 131.192Z" fill="url(#paint23_radial_283_1437)"/>
<path style="mix-blend-mode:color-dodge" d="M117.159 93.1964C117.155 95.5334 119.163 97.304 121.643 97.1511C124.123 96.9982 126.136 94.9797 126.139 92.6427C126.142 90.3057 124.134 88.5351 121.654 88.688C119.174 88.8409 117.162 90.8593 117.159 93.1964Z" fill="url(#paint24_radial_283_1437)"/>
<path style="mix-blend-mode:color-dodge" d="M200.537 72.3954C199.895 74.6826 201.307 76.906 203.692 77.3614C206.076 77.8169 208.53 76.3319 209.172 74.0447C209.814 71.7575 208.402 69.5341 206.018 69.0787C203.633 68.6232 201.18 70.1082 200.537 72.3954Z" fill="url(#paint25_radial_283_1437)"/>
<path style="mix-blend-mode:color-dodge" d="M184.915 152.295C183.77 152.076 182.795 151.43 182.203 150.499C181.612 149.568 181.452 148.427 181.761 147.329C181.913 146.785 182.176 146.267 182.533 145.806C182.891 145.344 183.338 144.948 183.847 144.64C184.356 144.332 184.918 144.118 185.5 144.01C186.083 143.903 186.674 143.903 187.241 144.012C187.809 144.12 188.34 144.334 188.806 144.642C189.272 144.95 189.662 145.346 189.955 145.807C190.248 146.268 190.438 146.786 190.514 147.33C190.589 147.874 190.549 148.434 190.396 148.978C190.087 150.077 189.336 151.043 188.309 151.665C187.281 152.287 186.06 152.514 184.915 152.295Z" fill="url(#paint26_radial_283_1437)"/>
<path style="mix-blend-mode:color-dodge" d="M153.969 165.997C153.688 165.944 153.448 165.785 153.303 165.556C153.158 165.327 153.118 165.047 153.194 164.777C153.27 164.507 153.454 164.27 153.707 164.117C153.96 163.964 154.259 163.909 154.541 163.962C154.822 164.016 155.062 164.175 155.207 164.404C155.353 164.633 155.392 164.913 155.316 165.183C155.24 165.452 155.056 165.69 154.803 165.843C154.551 165.996 154.251 166.051 153.969 165.997Z" fill="url(#paint27_radial_283_1437)"/>
<path style="mix-blend-mode:color-dodge" d="M230.382 113.117C229.96 113.036 229.6 112.798 229.382 112.455C229.164 112.112 229.105 111.691 229.219 111.287C229.333 110.882 229.609 110.526 229.988 110.296C230.367 110.067 230.817 109.984 231.239 110.064C231.661 110.145 232.02 110.383 232.238 110.726C232.457 111.069 232.515 111.49 232.401 111.894C232.288 112.299 232.011 112.655 231.632 112.885C231.254 113.114 230.804 113.197 230.382 113.117Z" fill="url(#paint28_radial_283_1437)"/>
<path style="mix-blend-mode:color-dodge" d="M136.16 131.691C135.738 131.61 135.378 131.372 135.16 131.029C134.942 130.686 134.884 130.266 134.997 129.861C135.111 129.456 135.388 129.1 135.767 128.871C136.145 128.641 136.595 128.558 137.017 128.638C137.439 128.719 137.799 128.957 138.017 129.3C138.235 129.644 138.293 130.064 138.18 130.469C138.066 130.873 137.789 131.23 137.411 131.459C137.032 131.688 136.582 131.772 136.16 131.691Z" fill="url(#paint29_radial_283_1437)"/>
<path style="mix-blend-mode:color-dodge" d="M187.424 103.481C186.782 105.769 188.194 107.992 190.578 108.447C192.963 108.903 195.416 107.418 196.059 105.131C196.701 102.843 195.289 100.62 192.904 100.165C190.52 99.7092 188.066 101.194 187.424 103.481Z" fill="url(#paint30_radial_283_1437)"/>
<path style="mix-blend-mode:color-dodge" d="M72.4124 65.4932C72.4094 67.8303 74.4172 69.6008 76.897 69.4479C79.3769 69.295 81.3898 67.2766 81.3928 64.9395C81.3959 62.6025 79.3881 60.832 76.9082 60.9849C74.4284 61.1377 72.4155 63.1562 72.4124 65.4932Z" fill="url(#paint31_radial_283_1437)"/>
<path style="mix-blend-mode:color-dodge" d="M140.166 124.592C139.021 124.373 138.046 123.727 137.454 122.796C136.863 121.864 136.703 120.724 137.012 119.626C137.164 119.082 137.426 118.564 137.784 118.103C138.142 117.641 138.589 117.245 139.098 116.937C139.607 116.629 140.169 116.415 140.751 116.307C141.334 116.2 141.925 116.2 142.492 116.309C143.06 116.417 143.591 116.631 144.057 116.939C144.523 117.247 144.913 117.643 145.206 118.104C145.499 118.565 145.689 119.083 145.765 119.627C145.84 120.171 145.8 120.731 145.647 121.275C145.338 122.374 144.587 123.34 143.56 123.962C142.532 124.584 141.311 124.811 140.166 124.592Z" fill="url(#paint32_radial_283_1437)"/>
<path style="mix-blend-mode:color-dodge" d="M109.223 138.294C108.942 138.241 108.702 138.082 108.557 137.853C108.411 137.624 108.372 137.344 108.448 137.074C108.524 136.804 108.708 136.567 108.961 136.414C109.213 136.261 109.513 136.206 109.795 136.259C110.076 136.313 110.316 136.472 110.461 136.701C110.606 136.929 110.646 137.21 110.57 137.479C110.494 137.749 110.309 137.987 110.057 138.14C109.804 138.292 109.505 138.348 109.223 138.294Z" fill="url(#paint33_radial_283_1437)"/>
<path style="mix-blend-mode:color-dodge" d="M158.042 135.216C157.76 135.163 157.521 135.004 157.375 134.775C157.23 134.546 157.191 134.266 157.267 133.996C157.342 133.726 157.527 133.489 157.779 133.336C158.032 133.183 158.332 133.127 158.613 133.181C158.894 133.235 159.134 133.394 159.279 133.622C159.425 133.851 159.464 134.131 159.388 134.401C159.312 134.671 159.128 134.909 158.875 135.061C158.623 135.214 158.323 135.27 158.042 135.216Z" fill="url(#paint34_radial_283_1437)"/>
<path style="mix-blend-mode:color-dodge" d="M185.643 85.4176C185.221 85.337 184.862 85.0989 184.644 84.7557C184.426 84.4125 184.367 83.9922 184.481 83.5874C184.595 83.1826 184.871 82.8264 185.25 82.5972C185.629 82.3679 186.079 82.2844 186.501 82.365C186.923 82.4456 187.282 82.6837 187.5 83.027C187.718 83.3702 187.777 83.7905 187.663 84.1953C187.549 84.6001 187.273 84.9563 186.894 85.1855C186.515 85.4147 186.065 85.4982 185.643 85.4176Z" fill="url(#paint35_radial_283_1437)"/>
<path style="mix-blend-mode:color-dodge" d="M161.26 196.148C160.115 195.928 159.141 195.281 158.549 194.35C157.958 193.42 157.798 192.28 158.105 191.182C158.414 190.083 159.164 189.116 160.192 188.493C161.22 187.87 162.441 187.642 163.587 187.86C164.154 187.968 164.686 188.183 165.152 188.491C165.617 188.8 166.008 189.196 166.301 189.658C166.593 190.12 166.783 190.638 166.858 191.182C166.934 191.727 166.893 192.287 166.74 192.831C166.431 193.929 165.681 194.896 164.653 195.518C163.625 196.14 162.405 196.366 161.26 196.148Z" fill="url(#paint36_radial_283_1437)"/>
<path style="mix-blend-mode:color-dodge" d="M62.5189 189.337C62.5158 191.674 64.5236 193.445 67.0035 193.292C69.4834 193.139 71.4962 191.12 71.4993 188.783C71.5024 186.446 69.4945 184.676 67.0147 184.829C64.5348 184.981 62.522 187 62.5189 189.337Z" fill="url(#paint37_radial_283_1437)"/>
<path style="mix-blend-mode:color-dodge" d="M145.898 168.536C145.255 170.823 146.668 173.047 149.052 173.502C151.436 173.957 153.89 172.473 154.532 170.185C155.175 167.898 153.762 165.675 151.378 165.219C148.994 164.764 146.54 166.249 145.898 168.536Z" fill="url(#paint38_radial_283_1437)"/>
<path style="mix-blend-mode:color-dodge" d="M130.272 248.455C129.127 248.236 128.151 247.59 127.56 246.659C126.968 245.728 126.809 244.587 127.117 243.489C127.269 242.945 127.532 242.427 127.89 241.966C128.248 241.505 128.694 241.109 129.203 240.8C129.712 240.492 130.274 240.278 130.857 240.171C131.439 240.063 132.031 240.063 132.598 240.172C133.165 240.28 133.697 240.494 134.163 240.802C134.628 241.11 135.019 241.506 135.312 241.967C135.605 242.429 135.795 242.946 135.87 243.49C135.946 244.034 135.906 244.595 135.752 245.138C135.444 246.237 134.693 247.203 133.665 247.825C132.637 248.447 131.417 248.674 130.272 248.455Z" fill="url(#paint39_radial_283_1437)"/>
<path style="mix-blend-mode:color-dodge" d="M99.3297 262.154C99.0483 262.1 98.8086 261.941 98.6633 261.712C98.5179 261.484 98.4788 261.203 98.5546 260.934C98.6304 260.664 98.8149 260.426 99.0674 260.273C99.3199 260.121 99.6198 260.065 99.9011 260.119C100.182 260.172 100.422 260.331 100.568 260.56C100.713 260.789 100.752 261.069 100.676 261.339C100.6 261.609 100.416 261.846 100.163 261.999C99.9109 262.152 99.611 262.207 99.3297 262.154Z" fill="url(#paint40_radial_283_1437)"/>
<path style="mix-blend-mode:color-dodge" d="M148.147 259.072C147.866 259.018 147.626 258.859 147.481 258.63C147.335 258.402 147.296 258.121 147.372 257.852C147.448 257.582 147.632 257.344 147.885 257.191C148.137 257.039 148.437 256.983 148.719 257.037C149 257.09 149.24 257.249 149.385 257.478C149.53 257.707 149.569 257.987 149.494 258.257C149.418 258.527 149.233 258.764 148.981 258.917C148.728 259.07 148.428 259.125 148.147 259.072Z" fill="url(#paint41_radial_283_1437)"/>
<path style="mix-blend-mode:color-dodge" d="M81.5204 227.836C81.0984 227.755 80.7388 227.517 80.5208 227.174C80.3028 226.83 80.2441 226.41 80.3578 226.005C80.4715 225.601 80.7482 225.244 81.1269 225.015C81.5057 224.786 81.9556 224.702 82.3776 224.783C82.7996 224.864 83.1592 225.102 83.3772 225.445C83.5952 225.788 83.6538 226.208 83.5401 226.613C83.4265 227.018 83.1498 227.374 82.771 227.603C82.3922 227.833 81.9424 227.916 81.5204 227.836Z" fill="url(#paint42_radial_283_1437)"/>
<path style="mix-blend-mode:color-dodge" d="M278.465 199.824C277.32 199.604 276.346 198.957 275.754 198.026C275.163 197.095 275.003 195.956 275.31 194.858C275.619 193.759 276.37 192.792 277.397 192.169C278.425 191.546 279.646 191.318 280.792 191.536C281.359 191.644 281.891 191.859 282.357 192.167C282.822 192.476 283.213 192.872 283.506 193.334C283.798 193.796 283.988 194.314 284.063 194.858C284.139 195.402 284.098 195.963 283.945 196.507C283.637 197.605 282.886 198.572 281.858 199.194C280.83 199.816 279.61 200.042 278.465 199.824Z" fill="url(#paint43_radial_283_1437)"/>
<path style="mix-blend-mode:color-dodge" d="M294.728 230.997C294.085 233.284 295.498 235.508 297.882 235.963C300.266 236.418 302.72 234.933 303.362 232.646C304.005 230.359 302.592 228.136 300.208 227.68C297.824 227.225 295.37 228.71 294.728 230.997Z" fill="url(#paint44_radial_283_1437)"/>
<path style="mix-blend-mode:color-dodge" d="M263.099 172.208C262.457 174.495 263.869 176.718 266.253 177.174C268.638 177.629 271.091 176.144 271.733 173.857C272.376 171.57 270.964 169.347 268.579 168.891C266.195 168.436 263.741 169.921 263.099 172.208Z" fill="url(#paint45_radial_283_1437)"/>
<path style="mix-blend-mode:color-dodge" d="M213.617 179.703C213.942 181.989 216.189 183.47 218.637 183.011C221.085 182.552 222.807 180.326 222.482 178.039C222.158 175.753 219.911 174.272 217.463 174.731C215.015 175.19 213.293 177.416 213.617 179.703Z" fill="url(#paint46_radial_283_1437)"/>
<path style="mix-blend-mode:color-dodge" d="M216.534 265.818C216.252 265.764 216.013 265.605 215.867 265.377C215.722 265.148 215.683 264.868 215.759 264.598C215.835 264.328 216.019 264.09 216.271 263.937C216.524 263.785 216.824 263.729 217.105 263.783C217.387 263.836 217.626 263.995 217.772 264.224C217.917 264.453 217.956 264.733 217.88 265.003C217.804 265.273 217.62 265.51 217.368 265.663C217.115 265.816 216.815 265.872 216.534 265.818Z" fill="url(#paint47_radial_283_1437)"/>
<path style="mix-blend-mode:color-dodge" d="M292.941 212.925C292.519 212.845 292.16 212.607 291.942 212.263C291.724 211.92 291.665 211.5 291.779 211.095C291.892 210.69 292.169 210.334 292.548 210.105C292.927 209.876 293.376 209.792 293.798 209.873C294.22 209.953 294.58 210.192 294.798 210.535C295.016 210.878 295.075 211.298 294.961 211.703C294.847 212.108 294.571 212.464 294.192 212.693C293.813 212.923 293.363 213.006 292.941 212.925Z" fill="url(#paint48_radial_283_1437)"/>
<path style="mix-blend-mode:color-dodge" d="M198.724 231.504C198.302 231.423 197.943 231.185 197.725 230.842C197.507 230.498 197.448 230.078 197.562 229.673C197.676 229.269 197.952 228.912 198.331 228.683C198.71 228.454 199.16 228.37 199.582 228.451C200.004 228.532 200.363 228.77 200.581 229.113C200.799 229.456 200.858 229.876 200.744 230.281C200.631 230.686 200.354 231.042 199.975 231.271C199.596 231.501 199.146 231.584 198.724 231.504Z" fill="url(#paint49_radial_283_1437)"/>
<path style="mix-blend-mode:color-dodge" d="M308.987 151.966C308.344 154.253 309.756 156.476 312.141 156.932C314.525 157.387 316.979 155.902 317.621 153.615C318.263 151.328 316.851 149.104 314.467 148.649C312.082 148.194 309.629 149.678 308.987 151.966Z" fill="url(#paint50_radial_283_1437)"/>
<path style="mix-blend-mode:color-dodge" d="M277.359 93.1727C276.716 95.46 278.129 97.6833 280.513 98.1388C282.897 98.5942 285.351 97.1093 285.993 94.822C286.636 92.5348 285.223 90.3115 282.839 89.856C280.455 89.4006 278.001 90.8855 277.359 93.1727Z" fill="url(#paint51_radial_283_1437)"/>
<path style="mix-blend-mode:color-dodge" d="M227.87 100.671C228.195 102.958 230.442 104.439 232.89 103.98C235.338 103.52 237.06 101.295 236.735 99.0081C236.411 96.7217 234.164 95.2405 231.716 95.6998C229.268 96.1591 227.546 98.3849 227.87 100.671Z" fill="url(#paint52_radial_283_1437)"/>
<path style="mix-blend-mode:color-dodge" d="M230.782 186.771C230.5 186.717 230.261 186.558 230.115 186.33C229.97 186.101 229.931 185.821 230.007 185.551C230.083 185.281 230.267 185.043 230.52 184.891C230.772 184.738 231.072 184.682 231.353 184.736C231.635 184.79 231.874 184.948 232.02 185.177C232.165 185.406 232.204 185.686 232.128 185.956C232.053 186.226 231.868 186.463 231.616 186.616C231.363 186.769 231.063 186.825 230.782 186.771Z" fill="url(#paint53_radial_283_1437)"/>
<path style="mix-blend-mode:color-dodge" d="M307.2 133.898C306.778 133.817 306.418 133.579 306.2 133.236C305.982 132.893 305.924 132.473 306.038 132.068C306.151 131.663 306.428 131.307 306.807 131.078C307.185 130.848 307.635 130.765 308.057 130.845C308.479 130.926 308.839 131.164 309.057 131.507C309.275 131.851 309.333 132.271 309.22 132.676C309.106 133.081 308.829 133.437 308.451 133.666C308.072 133.895 307.622 133.979 307.2 133.898Z" fill="url(#paint54_radial_283_1437)"/>
<path style="mix-blend-mode:color-dodge" d="M261.044 63.7571C259.9 63.5372 258.925 62.8908 258.334 61.9598C257.742 61.0289 257.582 59.8893 257.889 58.7911C258.198 57.6923 258.949 56.7252 259.976 56.1024C261.004 55.4795 262.225 55.2518 263.371 55.4693C263.939 55.5777 264.47 55.7923 264.936 56.1008C265.401 56.4094 265.792 56.8058 266.085 57.2675C266.378 57.7292 266.567 58.2471 266.642 58.7915C266.718 59.336 266.678 59.8963 266.524 60.4404C266.216 61.5388 265.465 62.5053 264.437 63.1273C263.409 63.7493 262.189 63.9759 261.044 63.7571Z" fill="url(#paint55_radial_283_1437)"/>
<path style="mix-blend-mode:color-dodge" d="M285.803 100.099C285.161 102.386 286.573 104.609 288.957 105.065C291.342 105.52 293.795 104.035 294.438 101.748C295.08 99.4606 293.668 97.2372 291.283 96.7818C288.899 96.3263 286.445 97.8113 285.803 100.099Z" fill="url(#paint56_radial_283_1437)"/>
<path style="mix-blend-mode:color-dodge" d="M245.681 36.1415C245.039 38.4287 246.451 40.6521 248.835 41.1075C251.22 41.563 253.673 40.078 254.316 37.7908C254.958 35.5036 253.546 33.2802 251.161 32.8248C248.777 32.3693 246.323 33.8543 245.681 36.1415Z" fill="url(#paint57_radial_283_1437)"/>
<path style="mix-blend-mode:color-dodge" d="M196.194 43.6362C196.518 45.9227 198.765 47.4039 201.213 46.9446C203.661 46.4853 205.383 44.2594 205.059 41.973C204.734 39.6865 202.487 38.2053 200.039 38.6646C197.591 39.1239 195.869 41.3498 196.194 43.6362Z" fill="url(#paint58_radial_283_1437)"/>
<path style="mix-blend-mode:color-dodge" d="M199.108 129.74C198.827 129.686 198.587 129.527 198.442 129.298C198.296 129.07 198.257 128.789 198.333 128.52C198.409 128.25 198.593 128.012 198.846 127.859C199.098 127.707 199.398 127.651 199.679 127.705C199.961 127.758 200.201 127.917 200.346 128.146C200.491 128.375 200.53 128.655 200.454 128.925C200.379 129.195 200.194 129.432 199.942 129.585C199.689 129.738 199.389 129.793 199.108 129.74Z" fill="url(#paint59_radial_283_1437)"/>
<path style="mix-blend-mode:color-dodge" d="M275.522 76.8629C275.1 76.7823 274.741 76.5442 274.523 76.201C274.305 75.8578 274.246 75.4375 274.36 75.0327C274.473 74.6279 274.75 74.2717 275.129 74.0425C275.508 73.8132 275.958 73.7297 276.38 73.8103C276.802 73.8909 277.161 74.1291 277.379 74.4723C277.597 74.8155 277.656 75.2358 277.542 75.6406C277.428 76.0454 277.152 76.4016 276.773 76.6308C276.394 76.8601 275.944 76.9436 275.522 76.8629Z" fill="url(#paint60_radial_283_1437)"/>
</g>
<g opacity="0.37">
<path d="M282.296 246.174C282.296 246.174 282.622 245.714 283.274 244.856L283.818 244.131C284.012 243.853 284.181 243.527 284.374 243.176C284.856 242.391 285.261 241.562 285.583 240.699C285.776 240.203 286.006 239.696 286.199 239.14C286.393 238.584 286.526 237.931 286.695 237.351C286.892 236.7 287.03 236.033 287.106 235.357C287.25 234.63 287.355 233.895 287.42 233.157C287.706 229.618 287.543 226.056 286.937 222.558C285.728 214.617 282.344 205.287 277.195 195.134C271.222 183.688 264.224 172.806 256.286 162.623C246.73 150.221 236.31 138.509 225.104 127.573C212.304 114.976 198.629 103.3 184.181 92.6326C176.531 87.0247 168.469 81.5739 160.009 76.4373C151.361 71.1669 142.383 66.4597 133.13 62.345C123.592 57.9878 113.547 54.8411 103.229 52.9783C97.9614 52.042 92.5828 51.9075 87.2752 52.5795C84.6207 52.9779 82.0314 53.7299 79.5764 54.8154C77.1048 55.915 74.8935 57.5246 73.0877 59.5388C71.2818 61.5529 69.9221 63.9261 69.0978 66.5026C68.2961 69.0648 67.8448 71.7236 67.7562 74.4069C67.6812 79.7567 68.4188 85.0869 69.9438 90.2154C72.9675 100.258 77.239 109.881 82.6583 118.859C87.7988 127.591 93.4992 135.98 99.7238 143.974C105.767 151.83 112.124 159.215 118.566 166.164C130.809 179.312 143.968 191.578 157.942 202.869C170.078 212.751 182.893 221.769 196.291 229.858C207.31 236.582 218.916 242.293 230.966 246.923C241.638 250.887 251.295 253.16 259.32 253.474C262.866 253.689 266.424 253.446 269.907 252.749C270.629 252.604 271.343 252.423 272.047 252.205C272.71 252.039 273.36 251.824 273.992 251.564L275.709 250.863C276.24 250.609 276.724 250.319 277.183 250.078C278.004 249.64 278.785 249.131 279.516 248.555C279.83 248.313 280.144 248.12 280.398 247.902L281.051 247.274L282.259 246.15L281.111 247.358L280.458 248.011C280.205 248.228 279.903 248.434 279.576 248.688C278.85 249.271 278.073 249.789 277.256 250.235C276.796 250.488 276.313 250.779 275.781 251.044L274.053 251.758C273.424 252.029 272.773 252.247 272.107 252.41C271.4 252.641 270.682 252.834 269.956 252.99C266.458 253.704 262.884 253.968 259.32 253.776C251.259 253.498 241.566 251.238 230.857 247.31C218.77 242.701 207.127 237.001 196.074 230.281C182.633 222.219 169.786 213.208 157.628 203.317C143.619 192.031 130.428 179.765 118.155 166.611C111.689 159.65 105.344 152.253 99.2645 144.385C93.0212 136.374 87.3007 127.969 82.1386 119.222C76.6935 110.196 72.3978 100.525 69.3516 90.433C67.8152 85.2325 67.0776 79.8288 67.164 74.4069C67.25 71.6612 67.7136 68.9405 68.5419 66.3213C69.3812 63.6604 70.7748 61.2074 72.6309 59.1242C74.4871 57.041 76.7636 55.3748 79.3105 54.2353C81.8168 53.1187 84.464 52.3502 87.1785 51.951C92.5497 51.261 97.9949 51.3955 103.325 52.3498C113.697 54.2189 123.791 57.3862 133.371 61.7769C142.623 65.9105 151.594 70.6463 160.227 75.9539C168.687 81.1025 176.809 86.5654 184.399 92.1854C198.86 102.89 212.547 114.602 225.358 127.235C236.558 138.195 246.969 149.931 256.516 162.357C264.448 172.58 271.434 183.502 277.389 194.989C282.513 205.178 285.849 214.557 287.057 222.521C287.653 226.042 287.795 229.624 287.48 233.181C287.416 233.924 287.311 234.662 287.166 235.393C287.071 236.072 286.925 236.742 286.731 237.399C286.55 238.028 286.381 238.608 286.223 239.2C286.066 239.792 285.776 240.264 285.583 240.759C285.241 241.626 284.811 242.456 284.302 243.237C284.096 243.587 283.927 243.914 283.734 244.192L283.166 244.905C282.598 245.751 282.296 246.174 282.296 246.174Z" fill="#C1B9FF" stroke="white" stroke-opacity="0.23"/>
<path d="M320.971 152.796C320.971 152.796 320.91 152.24 320.826 151.164C320.826 150.89 320.801 150.588 320.753 150.258C320.753 149.92 320.608 149.569 320.535 149.17C320.377 148.255 320.135 147.357 319.81 146.487C319.629 145.992 319.46 145.46 319.242 144.916C319.025 144.372 318.698 143.84 318.408 143.248C318.104 142.62 317.748 142.017 317.345 141.447C316.946 140.867 316.607 140.239 316.136 139.61C313.995 136.775 311.502 134.224 308.715 132.02C302.515 126.92 293.789 122.182 283.202 118.037C271.122 113.473 258.655 110.01 245.952 107.691C230.572 104.805 215.007 103.008 199.373 102.313C181.431 101.45 163.451 101.854 145.566 103.521C136.127 104.416 126.482 105.721 116.729 107.546C106.766 109.365 96.9314 111.828 87.287 114.918C77.2585 118.013 67.6562 122.349 58.7035 127.826C54.1805 130.642 50.1063 134.121 46.6174 138.148C44.8976 140.208 43.4664 142.493 42.3632 144.94C41.254 147.411 40.6805 150.088 40.6805 152.796C40.6805 155.504 41.254 158.181 42.3632 160.652C43.4708 163.096 44.9017 165.381 46.6174 167.444C50.1073 171.453 54.1818 174.912 58.7035 177.705C67.6507 183.188 77.2491 187.528 87.2749 190.625C96.9185 193.719 106.753 196.181 116.716 197.998C126.47 199.835 136.115 201.128 145.554 202.022C163.438 203.696 181.419 204.1 199.361 203.231C214.995 202.536 230.56 200.739 245.94 197.853C258.644 195.537 271.111 192.074 283.19 187.507C293.789 183.362 302.527 178.624 308.703 173.524C311.492 171.323 313.987 168.772 316.124 165.934C316.56 165.343 316.963 164.73 317.333 164.097C317.72 163.538 318.06 162.948 318.348 162.332L319.182 160.664C319.399 160.12 319.569 159.588 319.75 159.093C320.074 158.223 320.317 157.325 320.475 156.41C320.548 156.023 320.644 155.66 320.693 155.334C320.741 155.008 320.693 154.694 320.765 154.428C320.85 153.34 320.91 152.796 320.91 152.796C320.91 152.796 320.91 153.352 320.826 154.428C320.826 154.706 320.826 155.008 320.826 155.346C320.826 155.685 320.693 156.035 320.62 156.434C320.47 157.352 320.235 158.254 319.919 159.129C319.738 159.637 319.581 160.169 319.351 160.725L318.541 162.404C318.252 163.023 317.912 163.617 317.526 164.181C317.127 164.773 316.789 165.45 316.317 166.054C314.18 168.918 311.682 171.494 308.885 173.717C302.684 178.866 293.946 183.652 283.347 187.833C271.25 192.426 258.763 195.913 246.037 198.252C230.639 201.172 215.053 203.002 199.397 203.727C181.429 204.625 163.42 204.249 145.505 202.603C136.054 201.708 126.397 200.415 116.608 198.59C106.621 196.771 96.7626 194.308 87.0936 191.218C77.017 188.107 67.3698 183.746 58.3772 178.237C53.7749 175.389 49.6273 171.865 46.0736 167.783C44.3133 165.671 42.8495 163.329 41.7226 160.821C40.587 158.279 40 155.526 40 152.742C40 149.957 40.587 147.204 41.7226 144.662C42.8541 142.161 44.3176 139.823 46.0736 137.713C49.6259 133.628 53.7785 130.107 58.3892 127.27C67.3757 121.761 77.0196 117.404 87.0936 114.302C96.7607 111.202 106.62 108.735 116.608 106.917C126.385 105.092 136.042 103.799 145.493 102.905C163.408 101.262 181.417 100.891 199.385 101.793C215.046 102.519 230.636 104.357 246.037 107.292C258.756 109.641 271.236 113.141 283.323 117.747C293.934 121.94 302.66 126.714 308.872 131.863C311.659 134.095 314.149 136.674 316.281 139.538C316.717 140.136 317.121 140.757 317.49 141.399C317.871 141.966 318.21 142.56 318.505 143.176L319.315 144.868C319.544 145.411 319.702 145.955 319.883 146.451C320.2 147.329 320.435 148.236 320.584 149.158C320.656 149.545 320.741 149.907 320.789 150.246C320.838 150.584 320.789 150.886 320.789 151.152C320.971 152.24 320.971 152.796 320.971 152.796Z" fill="#C1B9FF" stroke="white" stroke-opacity="0.23"/>
<path d="M269.675 36.5377C269.675 36.5377 269.192 36.2477 268.298 35.6555L267.536 35.1599C267.246 34.9907 266.896 34.8457 266.545 34.6644C265.725 34.2331 264.867 33.8772 263.983 33.6008C263.475 33.4437 262.956 33.2382 262.387 33.0811L260.538 32.6702C259.874 32.5245 259.199 32.4316 258.52 32.3922C257.807 32.3922 257.082 32.2109 256.308 32.2351C252.754 32.1931 249.209 32.5992 245.757 33.4437C237.937 35.2083 228.837 39.2088 219.083 45.0463C208.072 51.791 197.696 59.5215 188.083 68.1428C176.378 78.5288 165.421 89.7282 155.293 101.657C143.609 115.3 132.902 129.751 123.253 144.901C118.177 152.914 113.294 161.326 108.75 170.161C104.088 179.155 100.011 188.441 96.5429 197.959C92.8625 207.777 90.4264 218.017 89.2913 228.44C88.7187 233.759 88.9592 239.135 90.0044 244.381C90.5758 247.005 91.5029 249.538 92.76 251.911C94.0292 254.294 95.7879 256.383 97.9208 258.038C100.054 259.694 102.513 260.881 105.136 261.519C107.746 262.147 110.43 262.415 113.113 262.317C118.454 262.022 123.719 260.917 128.728 259.042C138.541 255.331 147.852 250.406 156.441 244.381C164.796 238.652 172.769 232.387 180.311 225.624C187.732 219.037 194.669 212.208 201.16 205.295C213.412 192.176 224.721 178.206 235.001 163.49C244.043 150.719 252.173 137.327 259.33 123.412C265.276 111.952 270.174 99.9788 273.966 87.6375C277.181 76.7601 278.8 66.9342 278.547 58.909C278.517 55.3563 278.029 51.8222 277.096 48.3941C276.901 47.681 276.667 46.979 276.395 46.2912C276.192 45.6435 275.937 45.013 275.634 44.4058C275.344 43.8256 275.078 43.1972 274.824 42.7379C274.57 42.2786 274.208 41.7589 273.93 41.3238C273.44 40.5319 272.878 39.7874 272.25 39.1C271.996 38.7978 271.766 38.5078 271.537 38.266L270.86 37.6496C270.062 36.9245 269.651 36.5377 269.651 36.5377L270.86 37.6013L271.537 38.2056C271.778 38.4473 272.008 38.7374 272.274 39.0396C272.917 39.716 273.488 40.4572 273.978 41.2513C274.268 41.6985 274.594 42.1578 274.897 42.6654L275.718 44.3332C276.037 44.9422 276.304 45.577 276.516 46.2308C276.734 46.9076 277.06 47.5844 277.229 48.3458C278.183 51.7839 278.695 55.3295 278.752 58.8969C279.03 66.9583 277.447 76.7843 274.256 87.7342C270.494 100.112 265.616 112.123 259.68 123.618C252.551 137.576 244.446 151.012 235.424 163.828C225.146 178.576 213.837 192.579 201.583 205.73C195.08 212.668 188.143 219.508 180.71 226.119C173.149 232.9 165.156 239.182 156.78 244.925C148.168 250.983 138.829 255.933 128.982 259.658C123.886 261.576 118.526 262.697 113.089 262.982C110.345 263.076 107.601 262.8 104.931 262.16C102.223 261.501 99.6861 260.277 97.4846 258.569C95.2831 256.861 93.4671 254.708 92.1557 252.249C90.8699 249.824 89.9225 247.233 89.3396 244.551C88.2854 239.244 88.0409 233.808 88.6145 228.428C89.7704 217.949 92.2351 207.656 95.9507 197.79C99.4331 188.27 103.527 178.984 108.206 169.992C112.75 161.145 117.645 152.721 122.709 144.696C132.383 129.533 143.118 115.075 154.834 101.428C164.997 89.4958 175.991 78.2964 187.732 67.9131C197.402 59.2588 207.844 51.5075 218.926 44.7563C228.74 38.9308 237.865 34.9545 245.733 33.2141C249.199 32.3536 252.762 31.9473 256.332 32.0055C257.076 32.023 257.818 32.0795 258.556 32.1747C259.24 32.2179 259.919 32.3148 260.587 32.4647L262.424 32.8515C262.992 33.0207 263.512 33.2141 264.019 33.3833C264.907 33.6661 265.765 34.0344 266.581 34.4831C266.944 34.6644 267.282 34.8215 267.572 34.9907L268.322 35.4983C269.228 36.2114 269.675 36.5377 269.675 36.5377Z" fill="#C1B9FF" stroke="white" stroke-opacity="0.23"/>
</g>
<path d="M187.5 397C55.7801 397 -51 290.668 -51 159.5C-51 28.3324 55.7801 -78 187.5 -78C319.22 -78 426 28.3324 426 159.5C426 290.668 319.22 397 187.5 397Z" fill="url(#paint61_radial_283_1437)" fill-opacity="0.58"/>
</g>
<defs>
<filter id="filter0_d_283_1437" x="20.9" y="-5.1" width="318.2" height="318.2" filterUnits="userSpaceOnUse" color-interpolation-filters="sRGB">
<feFlood flood-opacity="0" result="BackgroundImageFix"/>
<feColorMatrix in="SourceAlpha" type="matrix" values="0 0 0 0 0 0 0 0 0 0 0 0 0 0 0 0 0 0 127 0" result="hardAlpha"/>
<feOffset/>
<feGaussianBlur stdDeviation="57.55"/>
<feComposite in2="hardAlpha" operator="out"/>
<feColorMatrix type="matrix" values="0 0 0 0 0 0 0 0 0 0 0 0 0 0 0 0 0 0 1 0"/>
<feBlend mode="normal" in2="BackgroundImageFix" result="effect1_dropShadow_283_1437"/>
<feBlend mode="normal" in="SourceGraphic" in2="effect1_dropShadow_283_1437" result="shape"/>
</filter>
<linearGradient id="paint0_linear_283_1437" x1="193.983" y1="180.067" x2="142.929" y2="104.64" gradientUnits="userSpaceOnUse">
<stop stop-color="#5A45FF"/>
<stop offset="0.265384" stop-color="#7D71FF"/>
<stop offset="0.478947" stop-color="#7C81FF"/>
<stop offset="1" stop-color="#000099"/>
</linearGradient>
<linearGradient id="paint1_linear_283_1437" x1="185.021" y1="171.738" x2="169.422" y2="145.916" gradientUnits="userSpaceOnUse">
<stop stop-color="#5A45FF"/>
<stop offset="0.265384" stop-color="#7D71FF"/>
<stop offset="0.478947" stop-color="#7C81FF"/>
<stop offset="1" stop-color="#000099"/>
</linearGradient>
<linearGradient id="paint2_linear_283_1437" x1="184.759" y1="155.484" x2="183.043" y2="145.895" gradientUnits="userSpaceOnUse">
<stop stop-color="#5A45FF"/>
<stop offset="0.265384" stop-color="#7D71FF"/>
<stop offset="0.478947" stop-color="#7C81FF"/>
<stop offset="1" stop-color="#000099"/>
</linearGradient>
<radialGradient id="paint3_radial_283_1437" cx="0" cy="0" r="1" gradientUnits="userSpaceOnUse" gradientTransform="translate(153.336 112.165) rotate(120.46) scale(4.40165 4.28257)">
<stop offset="0.165" stop-color="white"/>
<stop offset="0.28" stop-color="#8E90FA" stop-opacity="0.2"/>
<stop offset="0.49" stop-color="#6057C2" stop-opacity="0.07"/>
<stop offset="0.73" stop-color="#6057C2" stop-opacity="0.07"/>
<stop offset="0.91" stop-color="#0E0E0F" stop-opacity="0.07"/>
<stop offset="1" stop-color="#000001" stop-opacity="0"/>
</radialGradient>
<radialGradient id="paint4_radial_283_1437" cx="0" cy="0" r="1" gradientUnits="userSpaceOnUse" gradientTransform="translate(57.9215 109.209) rotate(105.528) scale(4.31881 4.39912)">
<stop offset="0.165" stop-color="white"/>
<stop offset="0.28" stop-color="#8E90FA" stop-opacity="0.2"/>
<stop offset="0.49" stop-color="#6057C2" stop-opacity="0.07"/>
<stop offset="0.73" stop-color="#6057C2" stop-opacity="0.07"/>
<stop offset="0.91" stop-color="#0E0E0F" stop-opacity="0.07"/>
<stop offset="1" stop-color="#000001" stop-opacity="0"/>
</radialGradient>
<radialGradient id="paint5_radial_283_1437" cx="0" cy="0" r="1" gradientUnits="userSpaceOnUse" gradientTransform="translate(141.129 89.5182) rotate(120.468) scale(4.39918 4.28235)">
<stop offset="0.165" stop-color="white"/>
<stop offset="0.28" stop-color="#8E90FA" stop-opacity="0.2"/>
<stop offset="0.49" stop-color="#6057C2" stop-opacity="0.07"/>
<stop offset="0.73" stop-color="#6057C2" stop-opacity="0.07"/>
<stop offset="0.91" stop-color="#0E0E0F" stop-opacity="0.07"/>
<stop offset="1" stop-color="#000001" stop-opacity="0"/>
</radialGradient>
<radialGradient id="paint6_radial_283_1437" cx="0" cy="0" r="1" gradientUnits="userSpaceOnUse" gradientTransform="translate(90.507 181.273) rotate(120.468) scale(1.08088 1.05217)">
<stop offset="0.165" stop-color="white"/>
<stop offset="0.28" stop-color="#8E90FA" stop-opacity="0.2"/>
<stop offset="0.49" stop-color="#6057C2" stop-opacity="0.07"/>
<stop offset="0.73" stop-color="#6057C2" stop-opacity="0.07"/>
<stop offset="0.91" stop-color="#0E0E0F" stop-opacity="0.07"/>
<stop offset="1" stop-color="#000001" stop-opacity="0"/>
</radialGradient>
<radialGradient id="paint7_radial_283_1437" cx="0" cy="0" r="1" gradientUnits="userSpaceOnUse" gradientTransform="translate(167.07 127.888) rotate(120.468) scale(1.62132 1.57826)">
<stop offset="0.165" stop-color="white"/>
<stop offset="0.28" stop-color="#8E90FA" stop-opacity="0.2"/>
<stop offset="0.49" stop-color="#6057C2" stop-opacity="0.07"/>
<stop offset="0.73" stop-color="#6057C2" stop-opacity="0.07"/>
<stop offset="0.91" stop-color="#0E0E0F" stop-opacity="0.07"/>
<stop offset="1" stop-color="#000001" stop-opacity="0"/>
</radialGradient>
<radialGradient id="paint8_radial_283_1437" cx="0" cy="0" r="1" gradientUnits="userSpaceOnUse" gradientTransform="translate(72.8488 146.47) rotate(120.468) scale(1.62132 1.57826)">
<stop offset="0.165" stop-color="white"/>
<stop offset="0.28" stop-color="#8E90FA" stop-opacity="0.2"/>
<stop offset="0.49" stop-color="#6057C2" stop-opacity="0.07"/>
<stop offset="0.73" stop-color="#6057C2" stop-opacity="0.07"/>
<stop offset="0.91" stop-color="#0E0E0F" stop-opacity="0.07"/>
<stop offset="1" stop-color="#000001" stop-opacity="0"/>
</radialGradient>
<radialGradient id="paint9_radial_283_1437" cx="0" cy="0" r="1" gradientUnits="userSpaceOnUse" gradientTransform="translate(153.355 180.901) rotate(120.468) scale(4.39918 4.28235)">
<stop offset="0.165" stop-color="white"/>
<stop offset="0.28" stop-color="#8E90FA" stop-opacity="0.2"/>
<stop offset="0.49" stop-color="#6057C2" stop-opacity="0.07"/>
<stop offset="0.73" stop-color="#6057C2" stop-opacity="0.07"/>
<stop offset="0.91" stop-color="#0E0E0F" stop-opacity="0.07"/>
<stop offset="1" stop-color="#000001" stop-opacity="0"/>
</radialGradient>
<radialGradient id="paint10_radial_283_1437" cx="0" cy="0" r="1" gradientUnits="userSpaceOnUse" gradientTransform="translate(38.5162 141.803) rotate(105.528) scale(4.31881 4.39912)">
<stop offset="0.165" stop-color="white"/>
<stop offset="0.28" stop-color="#8E90FA" stop-opacity="0.2"/>
<stop offset="0.49" stop-color="#6057C2" stop-opacity="0.07"/>
<stop offset="0.73" stop-color="#6057C2" stop-opacity="0.07"/>
<stop offset="0.91" stop-color="#0E0E0F" stop-opacity="0.07"/>
<stop offset="1" stop-color="#000001" stop-opacity="0"/>
</radialGradient>
<radialGradient id="paint11_radial_283_1437" cx="0" cy="0" r="1" gradientUnits="userSpaceOnUse" gradientTransform="translate(121.728 122.108) rotate(120.468) scale(4.39918 4.28235)">
<stop offset="0.165" stop-color="white"/>
<stop offset="0.28" stop-color="#8E90FA" stop-opacity="0.2"/>
<stop offset="0.49" stop-color="#6057C2" stop-opacity="0.07"/>
<stop offset="0.73" stop-color="#6057C2" stop-opacity="0.07"/>
<stop offset="0.91" stop-color="#0E0E0F" stop-opacity="0.07"/>
<stop offset="1" stop-color="#000001" stop-opacity="0"/>
</radialGradient>
<radialGradient id="paint12_radial_283_1437" cx="0" cy="0" r="1" gradientUnits="userSpaceOnUse" gradientTransform="translate(72.3553 127.943) rotate(97.6834) scale(4.25303 4.4295)">
<stop offset="0.165" stop-color="white"/>
<stop offset="0.28" stop-color="#8E90FA" stop-opacity="0.2"/>
<stop offset="0.49" stop-color="#6057C2" stop-opacity="0.07"/>
<stop offset="0.73" stop-color="#6057C2" stop-opacity="0.07"/>
<stop offset="0.91" stop-color="#0E0E0F" stop-opacity="0.07"/>
<stop offset="1" stop-color="#000001" stop-opacity="0"/>
</radialGradient>
<radialGradient id="paint13_radial_283_1437" cx="0" cy="0" r="1" gradientUnits="userSpaceOnUse" gradientTransform="translate(71.1056 213.863) rotate(120.468) scale(1.08088 1.05217)">
<stop offset="0.165" stop-color="white"/>
<stop offset="0.28" stop-color="#8E90FA" stop-opacity="0.2"/>
<stop offset="0.49" stop-color="#6057C2" stop-opacity="0.07"/>
<stop offset="0.73" stop-color="#6057C2" stop-opacity="0.07"/>
<stop offset="0.91" stop-color="#0E0E0F" stop-opacity="0.07"/>
<stop offset="1" stop-color="#000001" stop-opacity="0"/>
</radialGradient>
<radialGradient id="paint14_radial_283_1437" cx="0" cy="0" r="1" gradientUnits="userSpaceOnUse" gradientTransform="translate(147.668 160.478) rotate(120.468) scale(1.62132 1.57826)">
<stop offset="0.165" stop-color="white"/>
<stop offset="0.28" stop-color="#8E90FA" stop-opacity="0.2"/>
<stop offset="0.49" stop-color="#6057C2" stop-opacity="0.07"/>
<stop offset="0.73" stop-color="#6057C2" stop-opacity="0.07"/>
<stop offset="0.91" stop-color="#0E0E0F" stop-opacity="0.07"/>
<stop offset="1" stop-color="#000001" stop-opacity="0"/>
</radialGradient>
<radialGradient id="paint15_radial_283_1437" cx="0" cy="0" r="1" gradientUnits="userSpaceOnUse" gradientTransform="translate(53.4465 179.056) rotate(120.468) scale(1.62132 1.57826)">
<stop offset="0.165" stop-color="white"/>
<stop offset="0.28" stop-color="#8E90FA" stop-opacity="0.2"/>
<stop offset="0.49" stop-color="#6057C2" stop-opacity="0.07"/>
<stop offset="0.73" stop-color="#6057C2" stop-opacity="0.07"/>
<stop offset="0.91" stop-color="#0E0E0F" stop-opacity="0.07"/>
<stop offset="1" stop-color="#000001" stop-opacity="0"/>
</radialGradient>
<radialGradient id="paint16_radial_283_1437" cx="0" cy="0" r="1" gradientUnits="userSpaceOnUse" gradientTransform="translate(235.713 200.862) rotate(120.468) scale(4.39918 4.28235)">
<stop offset="0.165" stop-color="white"/>
<stop offset="0.28" stop-color="#8E90FA" stop-opacity="0.2"/>
<stop offset="0.49" stop-color="#6057C2" stop-opacity="0.07"/>
<stop offset="0.73" stop-color="#6057C2" stop-opacity="0.07"/>
<stop offset="0.91" stop-color="#0E0E0F" stop-opacity="0.07"/>
<stop offset="1" stop-color="#000001" stop-opacity="0"/>
</radialGradient>
<radialGradient id="paint17_radial_283_1437" cx="0" cy="0" r="1" gradientUnits="userSpaceOnUse" gradientTransform="translate(120.877 161.764) rotate(105.528) scale(4.31881 4.39912)">
<stop offset="0.165" stop-color="white"/>
<stop offset="0.28" stop-color="#8E90FA" stop-opacity="0.2"/>
<stop offset="0.49" stop-color="#6057C2" stop-opacity="0.07"/>
<stop offset="0.73" stop-color="#6057C2" stop-opacity="0.07"/>
<stop offset="0.91" stop-color="#0E0E0F" stop-opacity="0.07"/>
<stop offset="1" stop-color="#000001" stop-opacity="0"/>
</radialGradient>
<radialGradient id="paint18_radial_283_1437" cx="0" cy="0" r="1" gradientUnits="userSpaceOnUse" gradientTransform="translate(185.306 217.006) rotate(120.468) scale(4.39918 4.28235)">
<stop offset="0.165" stop-color="white"/>
<stop offset="0.28" stop-color="#8E90FA" stop-opacity="0.2"/>
<stop offset="0.49" stop-color="#6057C2" stop-opacity="0.07"/>
<stop offset="0.73" stop-color="#6057C2" stop-opacity="0.07"/>
<stop offset="0.91" stop-color="#0E0E0F" stop-opacity="0.07"/>
<stop offset="1" stop-color="#000001" stop-opacity="0"/>
</radialGradient>
<radialGradient id="paint19_radial_283_1437" cx="0" cy="0" r="1" gradientUnits="userSpaceOnUse" gradientTransform="translate(154.716 147.904) rotate(97.6834) scale(4.25303 4.4295)">
<stop offset="0.165" stop-color="white"/>
<stop offset="0.28" stop-color="#8E90FA" stop-opacity="0.2"/>
<stop offset="0.49" stop-color="#6057C2" stop-opacity="0.07"/>
<stop offset="0.73" stop-color="#6057C2" stop-opacity="0.07"/>
<stop offset="0.91" stop-color="#0E0E0F" stop-opacity="0.07"/>
<stop offset="1" stop-color="#000001" stop-opacity="0"/>
</radialGradient>
<radialGradient id="paint20_radial_283_1437" cx="0" cy="0" r="1" gradientUnits="userSpaceOnUse" gradientTransform="translate(202.286 230.742) rotate(120.468) scale(1.08088 1.05217)">
<stop offset="0.165" stop-color="white"/>
<stop offset="0.28" stop-color="#8E90FA" stop-opacity="0.2"/>
<stop offset="0.49" stop-color="#6057C2" stop-opacity="0.07"/>
<stop offset="0.73" stop-color="#6057C2" stop-opacity="0.07"/>
<stop offset="0.91" stop-color="#0E0E0F" stop-opacity="0.07"/>
<stop offset="1" stop-color="#000001" stop-opacity="0"/>
</radialGradient>
<radialGradient id="paint21_radial_283_1437" cx="0" cy="0" r="1" gradientUnits="userSpaceOnUse" gradientTransform="translate(230.029 180.439) rotate(120.468) scale(1.62132 1.57826)">
<stop offset="0.165" stop-color="white"/>
<stop offset="0.28" stop-color="#8E90FA" stop-opacity="0.2"/>
<stop offset="0.49" stop-color="#6057C2" stop-opacity="0.07"/>
<stop offset="0.73" stop-color="#6057C2" stop-opacity="0.07"/>
<stop offset="0.91" stop-color="#0E0E0F" stop-opacity="0.07"/>
<stop offset="1" stop-color="#000001" stop-opacity="0"/>
</radialGradient>
<radialGradient id="paint22_radial_283_1437" cx="0" cy="0" r="1" gradientUnits="userSpaceOnUse" gradientTransform="translate(135.804 199.017) rotate(120.468) scale(1.62132 1.57826)">
<stop offset="0.165" stop-color="white"/>
<stop offset="0.28" stop-color="#8E90FA" stop-opacity="0.2"/>
<stop offset="0.49" stop-color="#6057C2" stop-opacity="0.07"/>
<stop offset="0.73" stop-color="#6057C2" stop-opacity="0.07"/>
<stop offset="0.91" stop-color="#0E0E0F" stop-opacity="0.07"/>
<stop offset="1" stop-color="#000001" stop-opacity="0"/>
</radialGradient>
<radialGradient id="paint23_radial_283_1437" cx="0" cy="0" r="1" gradientUnits="userSpaceOnUse" gradientTransform="translate(236.504 132.018) rotate(120.468) scale(4.39918 4.28235)">
<stop offset="0.165" stop-color="white"/>
<stop offset="0.28" stop-color="#8E90FA" stop-opacity="0.2"/>
<stop offset="0.49" stop-color="#6057C2" stop-opacity="0.07"/>
<stop offset="0.73" stop-color="#6057C2" stop-opacity="0.07"/>
<stop offset="0.91" stop-color="#0E0E0F" stop-opacity="0.07"/>
<stop offset="1" stop-color="#000001" stop-opacity="0"/>
</radialGradient>
<radialGradient id="paint24_radial_283_1437" cx="0" cy="0" r="1" gradientUnits="userSpaceOnUse" gradientTransform="translate(121.669 92.9158) rotate(105.528) scale(4.31881 4.39912)">
<stop offset="0.165" stop-color="white"/>
<stop offset="0.28" stop-color="#8E90FA" stop-opacity="0.2"/>
<stop offset="0.49" stop-color="#6057C2" stop-opacity="0.07"/>
<stop offset="0.73" stop-color="#6057C2" stop-opacity="0.07"/>
<stop offset="0.91" stop-color="#0E0E0F" stop-opacity="0.07"/>
<stop offset="1" stop-color="#000001" stop-opacity="0"/>
</radialGradient>
<radialGradient id="paint25_radial_283_1437" cx="0" cy="0" r="1" gradientUnits="userSpaceOnUse" gradientTransform="translate(204.874 73.2213) rotate(120.468) scale(4.39918 4.28235)">
<stop offset="0.165" stop-color="white"/>
<stop offset="0.28" stop-color="#8E90FA" stop-opacity="0.2"/>
<stop offset="0.49" stop-color="#6057C2" stop-opacity="0.07"/>
<stop offset="0.73" stop-color="#6057C2" stop-opacity="0.07"/>
<stop offset="0.91" stop-color="#0E0E0F" stop-opacity="0.07"/>
<stop offset="1" stop-color="#000001" stop-opacity="0"/>
</radialGradient>
<radialGradient id="paint26_radial_283_1437" cx="0" cy="0" r="1" gradientUnits="userSpaceOnUse" gradientTransform="translate(186.098 148.155) rotate(120.468) scale(4.39918 4.28235)">
<stop offset="0.165" stop-color="white"/>
<stop offset="0.28" stop-color="#8E90FA" stop-opacity="0.2"/>
<stop offset="0.49" stop-color="#6057C2" stop-opacity="0.07"/>
<stop offset="0.73" stop-color="#6057C2" stop-opacity="0.07"/>
<stop offset="0.91" stop-color="#0E0E0F" stop-opacity="0.07"/>
<stop offset="1" stop-color="#000001" stop-opacity="0"/>
</radialGradient>
<radialGradient id="paint27_radial_283_1437" cx="0" cy="0" r="1" gradientUnits="userSpaceOnUse" gradientTransform="translate(154.26 164.98) rotate(120.468) scale(1.08088 1.05217)">
<stop offset="0.165" stop-color="white"/>
<stop offset="0.28" stop-color="#8E90FA" stop-opacity="0.2"/>
<stop offset="0.49" stop-color="#6057C2" stop-opacity="0.07"/>
<stop offset="0.73" stop-color="#6057C2" stop-opacity="0.07"/>
<stop offset="0.91" stop-color="#0E0E0F" stop-opacity="0.07"/>
<stop offset="1" stop-color="#000001" stop-opacity="0"/>
</radialGradient>
<radialGradient id="paint28_radial_283_1437" cx="0" cy="0" r="1" gradientUnits="userSpaceOnUse" gradientTransform="translate(230.818 111.591) rotate(120.468) scale(1.62132 1.57826)">
<stop offset="0.165" stop-color="white"/>
<stop offset="0.28" stop-color="#8E90FA" stop-opacity="0.2"/>
<stop offset="0.49" stop-color="#6057C2" stop-opacity="0.07"/>
<stop offset="0.73" stop-color="#6057C2" stop-opacity="0.07"/>
<stop offset="0.91" stop-color="#0E0E0F" stop-opacity="0.07"/>
<stop offset="1" stop-color="#000001" stop-opacity="0"/>
</radialGradient>
<radialGradient id="paint29_radial_283_1437" cx="0" cy="0" r="1" gradientUnits="userSpaceOnUse" gradientTransform="translate(136.596 130.165) rotate(120.468) scale(1.62132 1.57826)">
<stop offset="0.165" stop-color="white"/>
<stop offset="0.28" stop-color="#8E90FA" stop-opacity="0.2"/>
<stop offset="0.49" stop-color="#6057C2" stop-opacity="0.07"/>
<stop offset="0.73" stop-color="#6057C2" stop-opacity="0.07"/>
<stop offset="0.91" stop-color="#0E0E0F" stop-opacity="0.07"/>
<stop offset="1" stop-color="#000001" stop-opacity="0"/>
</radialGradient>
<radialGradient id="paint30_radial_283_1437" cx="0" cy="0" r="1" gradientUnits="userSpaceOnUse" gradientTransform="translate(191.761 104.307) rotate(120.468) scale(4.39918 4.28235)">
<stop offset="0.165" stop-color="white"/>
<stop offset="0.28" stop-color="#8E90FA" stop-opacity="0.2"/>
<stop offset="0.49" stop-color="#6057C2" stop-opacity="0.07"/>
<stop offset="0.73" stop-color="#6057C2" stop-opacity="0.07"/>
<stop offset="0.91" stop-color="#0E0E0F" stop-opacity="0.07"/>
<stop offset="1" stop-color="#000001" stop-opacity="0"/>
</radialGradient>
<radialGradient id="paint31_radial_283_1437" cx="0" cy="0" r="1" gradientUnits="userSpaceOnUse" gradientTransform="translate(76.9225 65.2127) rotate(105.528) scale(4.31881 4.39912)">
<stop offset="0.165" stop-color="white"/>
<stop offset="0.28" stop-color="#8E90FA" stop-opacity="0.2"/>
<stop offset="0.49" stop-color="#6057C2" stop-opacity="0.07"/>
<stop offset="0.73" stop-color="#6057C2" stop-opacity="0.07"/>
<stop offset="0.91" stop-color="#0E0E0F" stop-opacity="0.07"/>
<stop offset="1" stop-color="#000001" stop-opacity="0"/>
</radialGradient>
<radialGradient id="paint32_radial_283_1437" cx="0" cy="0" r="1" gradientUnits="userSpaceOnUse" gradientTransform="translate(141.349 120.452) rotate(120.468) scale(4.39918 4.28235)">
<stop offset="0.165" stop-color="white"/>
<stop offset="0.28" stop-color="#8E90FA" stop-opacity="0.2"/>
<stop offset="0.49" stop-color="#6057C2" stop-opacity="0.07"/>
<stop offset="0.73" stop-color="#6057C2" stop-opacity="0.07"/>
<stop offset="0.91" stop-color="#0E0E0F" stop-opacity="0.07"/>
<stop offset="1" stop-color="#000001" stop-opacity="0"/>
</radialGradient>
<radialGradient id="paint33_radial_283_1437" cx="0" cy="0" r="1" gradientUnits="userSpaceOnUse" gradientTransform="translate(109.514 137.277) rotate(120.468) scale(1.08088 1.05217)">
<stop offset="0.165" stop-color="white"/>
<stop offset="0.28" stop-color="#8E90FA" stop-opacity="0.2"/>
<stop offset="0.49" stop-color="#6057C2" stop-opacity="0.07"/>
<stop offset="0.73" stop-color="#6057C2" stop-opacity="0.07"/>
<stop offset="0.91" stop-color="#0E0E0F" stop-opacity="0.07"/>
<stop offset="1" stop-color="#000001" stop-opacity="0"/>
</radialGradient>
<radialGradient id="paint34_radial_283_1437" cx="0" cy="0" r="1" gradientUnits="userSpaceOnUse" gradientTransform="translate(158.332 134.199) rotate(120.468) scale(1.08088 1.05217)">
<stop offset="0.165" stop-color="white"/>
<stop offset="0.28" stop-color="#8E90FA" stop-opacity="0.2"/>
<stop offset="0.49" stop-color="#6057C2" stop-opacity="0.07"/>
<stop offset="0.73" stop-color="#6057C2" stop-opacity="0.07"/>
<stop offset="0.91" stop-color="#0E0E0F" stop-opacity="0.07"/>
<stop offset="1" stop-color="#000001" stop-opacity="0"/>
</radialGradient>
<radialGradient id="paint35_radial_283_1437" cx="0" cy="0" r="1" gradientUnits="userSpaceOnUse" gradientTransform="translate(186.079 83.8918) rotate(120.468) scale(1.62132 1.57826)">
<stop offset="0.165" stop-color="white"/>
<stop offset="0.28" stop-color="#8E90FA" stop-opacity="0.2"/>
<stop offset="0.49" stop-color="#6057C2" stop-opacity="0.07"/>
<stop offset="0.73" stop-color="#6057C2" stop-opacity="0.07"/>
<stop offset="0.91" stop-color="#0E0E0F" stop-opacity="0.07"/>
<stop offset="1" stop-color="#000001" stop-opacity="0"/>
</radialGradient>
<radialGradient id="paint36_radial_283_1437" cx="0" cy="0" r="1" gradientUnits="userSpaceOnUse" gradientTransform="translate(162.443 192.005) rotate(120.46) scale(4.40165 4.28257)">
<stop offset="0.165" stop-color="white"/>
<stop offset="0.28" stop-color="#8E90FA" stop-opacity="0.2"/>
<stop offset="0.49" stop-color="#6057C2" stop-opacity="0.07"/>
<stop offset="0.73" stop-color="#6057C2" stop-opacity="0.07"/>
<stop offset="0.91" stop-color="#0E0E0F" stop-opacity="0.07"/>
<stop offset="1" stop-color="#000001" stop-opacity="0"/>
</radialGradient>
<radialGradient id="paint37_radial_283_1437" cx="0" cy="0" r="1" gradientUnits="userSpaceOnUse" gradientTransform="translate(67.0289 189.056) rotate(105.528) scale(4.31881 4.39912)">
<stop offset="0.165" stop-color="white"/>
<stop offset="0.28" stop-color="#8E90FA" stop-opacity="0.2"/>
<stop offset="0.49" stop-color="#6057C2" stop-opacity="0.07"/>
<stop offset="0.73" stop-color="#6057C2" stop-opacity="0.07"/>
<stop offset="0.91" stop-color="#0E0E0F" stop-opacity="0.07"/>
<stop offset="1" stop-color="#000001" stop-opacity="0"/>
</radialGradient>
<radialGradient id="paint38_radial_283_1437" cx="0" cy="0" r="1" gradientUnits="userSpaceOnUse" gradientTransform="translate(150.235 169.362) rotate(120.468) scale(4.39918 4.28235)">
<stop offset="0.165" stop-color="white"/>
<stop offset="0.28" stop-color="#8E90FA" stop-opacity="0.2"/>
<stop offset="0.49" stop-color="#6057C2" stop-opacity="0.07"/>
<stop offset="0.73" stop-color="#6057C2" stop-opacity="0.07"/>
<stop offset="0.91" stop-color="#0E0E0F" stop-opacity="0.07"/>
<stop offset="1" stop-color="#000001" stop-opacity="0"/>
</radialGradient>
<radialGradient id="paint39_radial_283_1437" cx="0" cy="0" r="1" gradientUnits="userSpaceOnUse" gradientTransform="translate(131.454 244.315) rotate(120.468) scale(4.39918 4.28235)">
<stop offset="0.165" stop-color="white"/>
<stop offset="0.28" stop-color="#8E90FA" stop-opacity="0.2"/>
<stop offset="0.49" stop-color="#6057C2" stop-opacity="0.07"/>
<stop offset="0.73" stop-color="#6057C2" stop-opacity="0.07"/>
<stop offset="0.91" stop-color="#0E0E0F" stop-opacity="0.07"/>
<stop offset="1" stop-color="#000001" stop-opacity="0"/>
</radialGradient>
<radialGradient id="paint40_radial_283_1437" cx="0" cy="0" r="1" gradientUnits="userSpaceOnUse" gradientTransform="translate(99.6203 261.137) rotate(120.468) scale(1.08088 1.05217)">
<stop offset="0.165" stop-color="white"/>
<stop offset="0.28" stop-color="#8E90FA" stop-opacity="0.2"/>
<stop offset="0.49" stop-color="#6057C2" stop-opacity="0.07"/>
<stop offset="0.73" stop-color="#6057C2" stop-opacity="0.07"/>
<stop offset="0.91" stop-color="#0E0E0F" stop-opacity="0.07"/>
<stop offset="1" stop-color="#000001" stop-opacity="0"/>
</radialGradient>
<radialGradient id="paint41_radial_283_1437" cx="0" cy="0" r="1" gradientUnits="userSpaceOnUse" gradientTransform="translate(148.438 258.054) rotate(120.468) scale(1.08088 1.05217)">
<stop offset="0.165" stop-color="white"/>
<stop offset="0.28" stop-color="#8E90FA" stop-opacity="0.2"/>
<stop offset="0.49" stop-color="#6057C2" stop-opacity="0.07"/>
<stop offset="0.73" stop-color="#6057C2" stop-opacity="0.07"/>
<stop offset="0.91" stop-color="#0E0E0F" stop-opacity="0.07"/>
<stop offset="1" stop-color="#000001" stop-opacity="0"/>
</radialGradient>
<radialGradient id="paint42_radial_283_1437" cx="0" cy="0" r="1" gradientUnits="userSpaceOnUse" gradientTransform="translate(81.9563 226.31) rotate(120.468) scale(1.62132 1.57826)">
<stop offset="0.165" stop-color="white"/>
<stop offset="0.28" stop-color="#8E90FA" stop-opacity="0.2"/>
<stop offset="0.49" stop-color="#6057C2" stop-opacity="0.07"/>
<stop offset="0.73" stop-color="#6057C2" stop-opacity="0.07"/>
<stop offset="0.91" stop-color="#0E0E0F" stop-opacity="0.07"/>
<stop offset="1" stop-color="#000001" stop-opacity="0"/>
</radialGradient>
<radialGradient id="paint43_radial_283_1437" cx="0" cy="0" r="1" gradientUnits="userSpaceOnUse" gradientTransform="translate(279.648 195.681) rotate(120.46) scale(4.40165 4.28257)">
<stop offset="0.165" stop-color="white"/>
<stop offset="0.28" stop-color="#8E90FA" stop-opacity="0.2"/>
<stop offset="0.49" stop-color="#6057C2" stop-opacity="0.07"/>
<stop offset="0.73" stop-color="#6057C2" stop-opacity="0.07"/>
<stop offset="0.91" stop-color="#0E0E0F" stop-opacity="0.07"/>
<stop offset="1" stop-color="#000001" stop-opacity="0"/>
</radialGradient>
<radialGradient id="paint44_radial_283_1437" cx="0" cy="0" r="1" gradientUnits="userSpaceOnUse" gradientTransform="translate(299.065 231.823) rotate(120.468) scale(4.39918 4.28235)">
<stop offset="0.165" stop-color="white"/>
<stop offset="0.28" stop-color="#8E90FA" stop-opacity="0.2"/>
<stop offset="0.49" stop-color="#6057C2" stop-opacity="0.07"/>
<stop offset="0.73" stop-color="#6057C2" stop-opacity="0.07"/>
<stop offset="0.91" stop-color="#0E0E0F" stop-opacity="0.07"/>
<stop offset="1" stop-color="#000001" stop-opacity="0"/>
</radialGradient>
<radialGradient id="paint45_radial_283_1437" cx="0" cy="0" r="1" gradientUnits="userSpaceOnUse" gradientTransform="translate(267.436 173.034) rotate(120.468) scale(4.39918 4.28235)">
<stop offset="0.165" stop-color="white"/>
<stop offset="0.28" stop-color="#8E90FA" stop-opacity="0.2"/>
<stop offset="0.49" stop-color="#6057C2" stop-opacity="0.07"/>
<stop offset="0.73" stop-color="#6057C2" stop-opacity="0.07"/>
<stop offset="0.91" stop-color="#0E0E0F" stop-opacity="0.07"/>
<stop offset="1" stop-color="#000001" stop-opacity="0"/>
</radialGradient>
<radialGradient id="paint46_radial_283_1437" cx="0" cy="0" r="1" gradientUnits="userSpaceOnUse" gradientTransform="translate(218.069 178.865) rotate(97.6834) scale(4.25303 4.4295)">
<stop offset="0.165" stop-color="white"/>
<stop offset="0.28" stop-color="#8E90FA" stop-opacity="0.2"/>
<stop offset="0.49" stop-color="#6057C2" stop-opacity="0.07"/>
<stop offset="0.73" stop-color="#6057C2" stop-opacity="0.07"/>
<stop offset="0.91" stop-color="#0E0E0F" stop-opacity="0.07"/>
<stop offset="1" stop-color="#000001" stop-opacity="0"/>
</radialGradient>
<radialGradient id="paint47_radial_283_1437" cx="0" cy="0" r="1" gradientUnits="userSpaceOnUse" gradientTransform="translate(216.824 264.801) rotate(120.468) scale(1.08088 1.05217)">
<stop offset="0.165" stop-color="white"/>
<stop offset="0.28" stop-color="#8E90FA" stop-opacity="0.2"/>
<stop offset="0.49" stop-color="#6057C2" stop-opacity="0.07"/>
<stop offset="0.73" stop-color="#6057C2" stop-opacity="0.07"/>
<stop offset="0.91" stop-color="#0E0E0F" stop-opacity="0.07"/>
<stop offset="1" stop-color="#000001" stop-opacity="0"/>
</radialGradient>
<radialGradient id="paint48_radial_283_1437" cx="0" cy="0" r="1" gradientUnits="userSpaceOnUse" gradientTransform="translate(293.377 211.4) rotate(120.468) scale(1.62132 1.57826)">
<stop offset="0.165" stop-color="white"/>
<stop offset="0.28" stop-color="#8E90FA" stop-opacity="0.2"/>
<stop offset="0.49" stop-color="#6057C2" stop-opacity="0.07"/>
<stop offset="0.73" stop-color="#6057C2" stop-opacity="0.07"/>
<stop offset="0.91" stop-color="#0E0E0F" stop-opacity="0.07"/>
<stop offset="1" stop-color="#000001" stop-opacity="0"/>
</radialGradient>
<radialGradient id="paint49_radial_283_1437" cx="0" cy="0" r="1" gradientUnits="userSpaceOnUse" gradientTransform="translate(199.16 229.978) rotate(120.468) scale(1.62132 1.57826)">
<stop offset="0.165" stop-color="white"/>
<stop offset="0.28" stop-color="#8E90FA" stop-opacity="0.2"/>
<stop offset="0.49" stop-color="#6057C2" stop-opacity="0.07"/>
<stop offset="0.73" stop-color="#6057C2" stop-opacity="0.07"/>
<stop offset="0.91" stop-color="#0E0E0F" stop-opacity="0.07"/>
<stop offset="1" stop-color="#000001" stop-opacity="0"/>
</radialGradient>
<radialGradient id="paint50_radial_283_1437" cx="0" cy="0" r="1" gradientUnits="userSpaceOnUse" gradientTransform="translate(313.324 152.792) rotate(120.468) scale(4.39918 4.28235)">
<stop offset="0.165" stop-color="white"/>
<stop offset="0.28" stop-color="#8E90FA" stop-opacity="0.2"/>
<stop offset="0.49" stop-color="#6057C2" stop-opacity="0.07"/>
<stop offset="0.73" stop-color="#6057C2" stop-opacity="0.07"/>
<stop offset="0.91" stop-color="#0E0E0F" stop-opacity="0.07"/>
<stop offset="1" stop-color="#000001" stop-opacity="0"/>
</radialGradient>
<radialGradient id="paint51_radial_283_1437" cx="0" cy="0" r="1" gradientUnits="userSpaceOnUse" gradientTransform="translate(281.696 93.9986) rotate(120.468) scale(4.39918 4.28235)">
<stop offset="0.165" stop-color="white"/>
<stop offset="0.28" stop-color="#8E90FA" stop-opacity="0.2"/>
<stop offset="0.49" stop-color="#6057C2" stop-opacity="0.07"/>
<stop offset="0.73" stop-color="#6057C2" stop-opacity="0.07"/>
<stop offset="0.91" stop-color="#0E0E0F" stop-opacity="0.07"/>
<stop offset="1" stop-color="#000001" stop-opacity="0"/>
</radialGradient>
<radialGradient id="paint52_radial_283_1437" cx="0" cy="0" r="1" gradientUnits="userSpaceOnUse" gradientTransform="translate(232.322 99.8337) rotate(97.6834) scale(4.25303 4.4295)">
<stop offset="0.165" stop-color="white"/>
<stop offset="0.28" stop-color="#8E90FA" stop-opacity="0.2"/>
<stop offset="0.49" stop-color="#6057C2" stop-opacity="0.07"/>
<stop offset="0.73" stop-color="#6057C2" stop-opacity="0.07"/>
<stop offset="0.91" stop-color="#0E0E0F" stop-opacity="0.07"/>
<stop offset="1" stop-color="#000001" stop-opacity="0"/>
</radialGradient>
<radialGradient id="paint53_radial_283_1437" cx="0" cy="0" r="1" gradientUnits="userSpaceOnUse" gradientTransform="translate(231.072 185.754) rotate(120.468) scale(1.08088 1.05217)">
<stop offset="0.165" stop-color="white"/>
<stop offset="0.28" stop-color="#8E90FA" stop-opacity="0.2"/>
<stop offset="0.49" stop-color="#6057C2" stop-opacity="0.07"/>
<stop offset="0.73" stop-color="#6057C2" stop-opacity="0.07"/>
<stop offset="0.91" stop-color="#0E0E0F" stop-opacity="0.07"/>
<stop offset="1" stop-color="#000001" stop-opacity="0"/>
</radialGradient>
<radialGradient id="paint54_radial_283_1437" cx="0" cy="0" r="1" gradientUnits="userSpaceOnUse" gradientTransform="translate(307.636 132.372) rotate(120.468) scale(1.62132 1.57826)">
<stop offset="0.165" stop-color="white"/>
<stop offset="0.28" stop-color="#8E90FA" stop-opacity="0.2"/>
<stop offset="0.49" stop-color="#6057C2" stop-opacity="0.07"/>
<stop offset="0.73" stop-color="#6057C2" stop-opacity="0.07"/>
<stop offset="0.91" stop-color="#0E0E0F" stop-opacity="0.07"/>
<stop offset="1" stop-color="#000001" stop-opacity="0"/>
</radialGradient>
<radialGradient id="paint55_radial_283_1437" cx="0" cy="0" r="1" gradientUnits="userSpaceOnUse" gradientTransform="translate(262.227 59.6145) rotate(120.46) scale(4.40165 4.28257)">
<stop offset="0.165" stop-color="white"/>
<stop offset="0.28" stop-color="#8E90FA" stop-opacity="0.2"/>
<stop offset="0.49" stop-color="#6057C2" stop-opacity="0.07"/>
<stop offset="0.73" stop-color="#6057C2" stop-opacity="0.07"/>
<stop offset="0.91" stop-color="#0E0E0F" stop-opacity="0.07"/>
<stop offset="1" stop-color="#000001" stop-opacity="0"/>
</radialGradient>
<radialGradient id="paint56_radial_283_1437" cx="0" cy="0" r="1" gradientUnits="userSpaceOnUse" gradientTransform="translate(290.14 100.924) rotate(120.468) scale(4.39918 4.28235)">
<stop offset="0.165" stop-color="white"/>
<stop offset="0.28" stop-color="#8E90FA" stop-opacity="0.2"/>
<stop offset="0.49" stop-color="#6057C2" stop-opacity="0.07"/>
<stop offset="0.73" stop-color="#6057C2" stop-opacity="0.07"/>
<stop offset="0.91" stop-color="#0E0E0F" stop-opacity="0.07"/>
<stop offset="1" stop-color="#000001" stop-opacity="0"/>
</radialGradient>
<radialGradient id="paint57_radial_283_1437" cx="0" cy="0" r="1" gradientUnits="userSpaceOnUse" gradientTransform="translate(250.018 36.9674) rotate(120.468) scale(4.39918 4.28235)">
<stop offset="0.165" stop-color="white"/>
<stop offset="0.28" stop-color="#8E90FA" stop-opacity="0.2"/>
<stop offset="0.49" stop-color="#6057C2" stop-opacity="0.07"/>
<stop offset="0.73" stop-color="#6057C2" stop-opacity="0.07"/>
<stop offset="0.91" stop-color="#0E0E0F" stop-opacity="0.07"/>
<stop offset="1" stop-color="#000001" stop-opacity="0"/>
</radialGradient>
<radialGradient id="paint58_radial_283_1437" cx="0" cy="0" r="1" gradientUnits="userSpaceOnUse" gradientTransform="translate(200.645 42.7985) rotate(97.6834) scale(4.25303 4.4295)">
<stop offset="0.165" stop-color="white"/>
<stop offset="0.28" stop-color="#8E90FA" stop-opacity="0.2"/>
<stop offset="0.49" stop-color="#6057C2" stop-opacity="0.07"/>
<stop offset="0.73" stop-color="#6057C2" stop-opacity="0.07"/>
<stop offset="0.91" stop-color="#0E0E0F" stop-opacity="0.07"/>
<stop offset="1" stop-color="#000001" stop-opacity="0"/>
</radialGradient>
<radialGradient id="paint59_radial_283_1437" cx="0" cy="0" r="1" gradientUnits="userSpaceOnUse" gradientTransform="translate(199.399 128.722) rotate(120.468) scale(1.08088 1.05217)">
<stop offset="0.165" stop-color="white"/>
<stop offset="0.28" stop-color="#8E90FA" stop-opacity="0.2"/>
<stop offset="0.49" stop-color="#6057C2" stop-opacity="0.07"/>
<stop offset="0.73" stop-color="#6057C2" stop-opacity="0.07"/>
<stop offset="0.91" stop-color="#0E0E0F" stop-opacity="0.07"/>
<stop offset="1" stop-color="#000001" stop-opacity="0"/>
</radialGradient>
<radialGradient id="paint60_radial_283_1437" cx="0" cy="0" r="1" gradientUnits="userSpaceOnUse" gradientTransform="translate(275.958 75.3371) rotate(120.468) scale(1.62132 1.57826)">
<stop offset="0.165" stop-color="white"/>
<stop offset="0.28" stop-color="#8E90FA" stop-opacity="0.2"/>
<stop offset="0.49" stop-color="#6057C2" stop-opacity="0.07"/>
<stop offset="0.73" stop-color="#6057C2" stop-opacity="0.07"/>
<stop offset="0.91" stop-color="#0E0E0F" stop-opacity="0.07"/>
<stop offset="1" stop-color="#000001" stop-opacity="0"/>
</radialGradient>
<radialGradient id="paint61_radial_283_1437" cx="0" cy="0" r="1" gradientUnits="userSpaceOnUse" gradientTransform="translate(187.5 159.5) rotate(89.7613) scale(120.001 120.506)">
<stop stop-color="#694BFF" stop-opacity="0.57"/>
<stop offset="1" stop-color="#4D00FF" stop-opacity="0"/>
</radialGradient>
<clipPath id="clip0_283_1437">
<rect width="361" height="291" fill="white"/>
</clipPath>
</defs>
</svg>
