<svg width="320" height="314" viewBox="0 0 320 314" fill="none" xmlns="http://www.w3.org/2000/svg">
<g filter="url(#filter0_d_248_771)">
<rect x="116" y="110" width="88" height="88" rx="44" fill="black" fill-opacity="0.46" shape-rendering="crispEdges"/>
<rect x="116.5" y="110.5" width="87" height="87" rx="43.5" stroke="url(#paint0_linear_248_771)" shape-rendering="crispEdges"/>
<path d="M175.798 153.492H175.794C175.747 152.535 174.711 151.641 172.922 151.113C169.093 149.984 164.845 149.324 160 149.285C155.159 149.324 150.912 149.984 147.079 151.113C145.29 151.641 144.262 152.535 144.21 153.492H144.202V173.055C144.158 174.148 145.406 175.32 148.29 176.121C151.271 176.949 155.303 177.484 159.996 177.484C164.69 177.484 168.722 176.949 171.702 176.121C174.727 175.281 175.95 174.035 175.774 172.898H175.79V153.492H175.798ZM144.202 153.777H175.798Z" fill="url(#paint1_linear_248_771)"/>
<path d="M163.148 171.281L161.359 167.148C161.876 166.904 162.312 166.521 162.617 166.044C162.922 165.567 163.084 165.016 163.084 164.453C163.084 162.797 161.713 161.457 160.028 161.457C158.343 161.457 156.972 162.801 156.972 164.453C156.972 165.566 157.594 166.539 158.514 167.055L156.849 171.309C156.637 171.848 157.044 172.422 157.63 172.422H162.379C162.977 172.422 163.379 171.82 163.148 171.281Z" fill="#010918"/>
<path d="M162.977 170.898H157.004L156.845 171.309C156.633 171.848 157.04 172.422 157.626 172.422H162.375C162.977 172.422 163.379 171.82 163.144 171.281L162.977 170.898ZM158.785 166.266C158.857 166.063 158.781 165.844 158.606 165.719C158.367 165.547 158.044 165.242 157.841 164.758C157.1 163.008 157.98 162.23 157.98 162.23C157.661 162.51 157.406 162.853 157.232 163.236C157.057 163.619 156.968 164.034 156.968 164.453C156.968 165.566 157.59 166.539 158.51 167.055L158.785 166.266ZM162.176 162.32C162.176 162.32 163.052 164.047 162.048 165.152C161.706 165.527 161.415 165.727 161.2 165.824C160.988 165.922 160.893 166.168 160.992 166.375L161.363 167.141C161.88 166.896 162.316 166.513 162.621 166.036C162.926 165.56 163.088 165.008 163.088 164.445C163.08 163.176 162.176 162.32 162.176 162.32Z" fill="white" fill-opacity="0.35"/>
<path d="M172.248 150.855C168.619 149.82 164.59 149.219 160 149.18C155.41 149.215 151.382 149.82 147.752 150.852C144.115 151.887 143.752 154.469 148.904 155.852C151.729 156.609 155.554 157.098 160 157.098C164.447 157.098 168.272 156.609 171.097 155.852C176.249 154.473 175.886 151.887 172.248 150.855Z" fill="url(#paint2_linear_248_771)"/>
<path d="M171.216 153.301C171.216 153.301 171.069 153.973 169.136 153.973C167.204 153.973 166.794 153.301 166.794 153.301V144.688C166.794 140.773 163.746 137.594 159.996 137.594C156.247 137.594 153.199 140.777 153.199 144.688V153.305C153.199 153.305 152.358 153.977 150.828 153.977C149.298 153.977 148.78 153.305 148.78 153.305V144.688C148.78 138.383 153.813 133.258 159.996 133.258C166.18 133.258 171.212 138.387 171.212 144.688V153.301H171.216Z" fill="#979797" stroke="white" stroke-opacity="0.25" stroke-width="0.24475" stroke-miterlimit="10"/>
<path d="M154.944 137.422C152.896 138.617 152.581 139.426 152.012 139.797C151.589 140.07 151.027 139.851 151.394 138.902C151.709 138.09 152.466 136.551 154.354 135.367C157.606 133.328 160.411 133.422 160.259 134.98C160.132 136.359 157.128 136.148 154.944 137.422Z" fill="white"/>
</g>
<g opacity="0.72">
<path style="mix-blend-mode:color-dodge" d="M132.152 116.308C131.008 116.088 130.033 115.442 129.442 114.511C128.851 113.58 128.691 112.44 128.998 111.342C129.306 110.243 130.057 109.276 131.085 108.653C132.113 108.03 133.334 107.803 134.48 108.02C135.047 108.128 135.579 108.343 136.044 108.652C136.51 108.96 136.9 109.357 137.193 109.818C137.486 110.28 137.675 110.798 137.751 111.342C137.826 111.887 137.786 112.447 137.632 112.991C137.324 114.09 136.573 115.056 135.546 115.678C134.518 116.3 133.297 116.527 132.152 116.308Z" fill="url(#paint3_radial_248_771)"/>
<path style="mix-blend-mode:color-dodge" d="M33.4115 109.489C33.4084 111.826 35.4162 113.597 37.8961 113.444C40.3759 113.291 42.3888 111.273 42.3919 108.936C42.395 106.599 40.3871 104.828 37.9073 104.981C35.4274 105.134 33.4146 107.152 33.4115 109.489Z" fill="url(#paint4_radial_248_771)"/>
<path style="mix-blend-mode:color-dodge" d="M116.792 88.6923C116.15 90.9795 117.562 93.2029 119.947 93.6583C122.331 94.1137 124.785 92.6288 125.427 90.3416C126.069 88.0544 124.657 85.831 122.273 85.3755C119.888 84.9201 117.434 86.405 116.792 88.6923Z" fill="url(#paint5_radial_248_771)"/>
<path style="mix-blend-mode:color-dodge" d="M70.2164 182.29C69.935 182.237 69.6953 182.078 69.55 181.849C69.4046 181.62 69.3656 181.34 69.4413 181.07C69.5171 180.8 69.7016 180.563 69.9541 180.41C70.2066 180.257 70.5065 180.202 70.7879 180.255C71.0692 180.309 71.3089 180.468 71.4542 180.697C71.5996 180.926 71.6387 181.206 71.5629 181.476C71.4871 181.745 71.3027 181.983 71.0501 182.136C70.7976 182.289 70.4977 182.344 70.2164 182.29Z" fill="url(#paint6_radial_248_771)"/>
<path style="mix-blend-mode:color-dodge" d="M146.634 129.414C146.212 129.333 145.852 129.095 145.634 128.752C145.416 128.409 145.357 127.988 145.471 127.583C145.585 127.179 145.861 126.822 146.24 126.593C146.619 126.364 147.069 126.281 147.491 126.361C147.913 126.442 148.272 126.68 148.49 127.023C148.708 127.366 148.767 127.787 148.653 128.191C148.54 128.596 148.263 128.952 147.884 129.182C147.506 129.411 147.056 129.494 146.634 129.414Z" fill="url(#paint7_radial_248_771)"/>
<path style="mix-blend-mode:color-dodge" d="M52.4129 147.996C51.9909 147.915 51.6314 147.677 51.4134 147.334C51.1953 146.991 51.1367 146.57 51.2504 146.166C51.3641 145.761 51.6407 145.405 52.0195 145.175C52.3983 144.946 52.8482 144.863 53.2702 144.943C53.6922 145.024 54.0517 145.262 54.2698 145.605C54.4878 145.948 54.5464 146.369 54.4327 146.773C54.319 147.178 54.0424 147.534 53.6636 147.764C53.2848 147.993 52.8349 148.076 52.4129 147.996Z" fill="url(#paint8_radial_248_771)"/>
<path style="mix-blend-mode:color-dodge" d="M129.018 180.075C128.375 182.362 129.788 184.586 132.172 185.041C134.557 185.497 137.01 184.012 137.652 181.724C138.295 179.437 136.882 177.214 134.498 176.758C132.114 176.303 129.66 177.788 129.018 180.075Z" fill="url(#paint9_radial_248_771)"/>
<path style="mix-blend-mode:color-dodge" d="M14.0062 142.083C14.0031 144.42 16.0109 146.191 18.4908 146.038C20.9707 145.885 22.9835 143.866 22.9866 141.529C22.9897 139.192 20.9819 137.422 18.502 137.575C16.0221 137.728 14.0093 139.746 14.0062 142.083Z" fill="url(#paint10_radial_248_771)"/>
<path style="mix-blend-mode:color-dodge" d="M97.3908 121.282C96.7485 123.569 98.1608 125.793 100.545 126.248C102.93 126.704 105.383 125.219 106.025 122.931C106.668 120.644 105.256 118.421 102.871 117.965C100.487 117.51 98.0331 118.995 97.3908 121.282Z" fill="url(#paint11_radial_248_771)"/>
<path style="mix-blend-mode:color-dodge" d="M47.9036 128.781C48.2277 131.067 50.4751 132.548 52.9231 132.089C55.3711 131.63 57.0928 129.404 56.7686 127.118C56.4444 124.831 54.1971 123.35 51.7491 123.809C49.3011 124.268 47.5794 126.494 47.9036 128.781Z" fill="url(#paint12_radial_248_771)"/>
<path style="mix-blend-mode:color-dodge" d="M50.815 214.88C50.5337 214.827 50.294 214.668 50.1486 214.439C50.0033 214.21 49.9642 213.93 50.04 213.66C50.1158 213.39 50.3002 213.153 50.5527 213C50.8052 212.847 51.1052 212.791 51.3865 212.845C51.6678 212.899 51.9075 213.058 52.0529 213.287C52.1982 213.515 52.2373 213.796 52.1615 214.065C52.0857 214.335 51.9013 214.573 51.6488 214.726C51.3963 214.878 51.0963 214.934 50.815 214.88Z" fill="url(#paint13_radial_248_771)"/>
<path style="mix-blend-mode:color-dodge" d="M127.232 162.004C126.81 161.923 126.451 161.685 126.233 161.342C126.015 160.998 125.956 160.578 126.07 160.173C126.183 159.769 126.46 159.412 126.839 159.183C127.218 158.954 127.668 158.87 128.09 158.951C128.512 159.032 128.871 159.27 129.089 159.613C129.307 159.956 129.366 160.376 129.252 160.781C129.138 161.186 128.862 161.542 128.483 161.771C128.104 162.001 127.654 162.084 127.232 162.004Z" fill="url(#paint14_radial_248_771)"/>
<path style="mix-blend-mode:color-dodge" d="M33.0106 180.582C32.5886 180.501 32.229 180.263 32.011 179.92C31.793 179.576 31.7344 179.156 31.8481 178.751C31.9617 178.347 32.2384 177.99 32.6172 177.761C32.996 177.532 33.4458 177.448 33.8678 177.529C34.2898 177.61 34.6494 177.848 34.8674 178.191C35.0854 178.534 35.144 178.955 35.0304 179.359C34.9167 179.764 34.64 180.12 34.2612 180.35C33.8825 180.579 33.4326 180.662 33.0106 180.582Z" fill="url(#paint15_radial_248_771)"/>
<path style="mix-blend-mode:color-dodge" d="M211.376 200.036C210.734 202.323 212.146 204.547 214.531 205.002C216.915 205.457 219.369 203.973 220.011 201.685C220.653 199.398 219.241 197.175 216.856 196.719C214.472 196.264 212.018 197.749 211.376 200.036Z" fill="url(#paint16_radial_248_771)"/>
<path style="mix-blend-mode:color-dodge" d="M96.3665 162.044C96.3635 164.381 98.3713 166.152 100.851 165.999C103.331 165.846 105.344 163.827 105.347 161.49C105.35 159.153 103.342 157.383 100.862 157.536C98.3825 157.689 96.3696 159.707 96.3665 162.044Z" fill="url(#paint17_radial_248_771)"/>
<path style="mix-blend-mode:color-dodge" d="M164.123 221.147C162.978 220.928 162.003 220.282 161.411 219.35C160.82 218.419 160.66 217.279 160.969 216.181C161.121 215.636 161.384 215.119 161.741 214.657C162.099 214.196 162.546 213.8 163.055 213.492C163.564 213.184 164.126 212.97 164.708 212.862C165.291 212.754 165.882 212.755 166.449 212.864C167.017 212.971 167.548 213.185 168.014 213.493C168.48 213.801 168.87 214.197 169.163 214.659C169.456 215.12 169.646 215.638 169.722 216.182C169.797 216.726 169.757 217.286 169.604 217.83C169.295 218.928 168.544 219.895 167.517 220.517C166.489 221.139 165.268 221.365 164.123 221.147Z" fill="url(#paint18_radial_248_771)"/>
<path style="mix-blend-mode:color-dodge" d="M130.264 148.742C130.588 151.028 132.835 152.509 135.283 152.05C137.731 151.591 139.453 149.365 139.129 147.078C138.805 144.792 136.557 143.311 134.109 143.77C131.661 144.229 129.94 146.455 130.264 148.742Z" fill="url(#paint19_radial_248_771)"/>
<path style="mix-blend-mode:color-dodge" d="M181.996 231.759C181.714 231.705 181.475 231.547 181.329 231.318C181.184 231.089 181.145 230.809 181.221 230.539C181.296 230.269 181.481 230.032 181.733 229.879C181.986 229.726 182.286 229.67 182.567 229.724C182.848 229.778 183.088 229.937 183.234 230.165C183.379 230.394 183.418 230.674 183.342 230.944C183.266 231.214 183.082 231.452 182.829 231.604C182.577 231.757 182.277 231.813 181.996 231.759Z" fill="url(#paint20_radial_248_771)"/>
<path style="mix-blend-mode:color-dodge" d="M209.593 181.965C209.171 181.884 208.811 181.646 208.593 181.303C208.375 180.959 208.316 180.539 208.43 180.134C208.544 179.729 208.82 179.373 209.199 179.144C209.578 178.915 210.028 178.831 210.45 178.912C210.872 178.992 211.231 179.231 211.449 179.574C211.667 179.917 211.726 180.337 211.612 180.742C211.499 181.147 211.222 181.503 210.843 181.732C210.464 181.962 210.015 182.045 209.593 181.965Z" fill="url(#paint21_radial_248_771)"/>
<path style="mix-blend-mode:color-dodge" d="M115.368 200.543C114.946 200.462 114.586 200.224 114.368 199.881C114.15 199.537 114.092 199.117 114.205 198.712C114.319 198.308 114.596 197.951 114.975 197.722C115.353 197.493 115.803 197.409 116.225 197.49C116.647 197.571 117.007 197.809 117.225 198.152C117.443 198.495 117.501 198.915 117.388 199.32C117.274 199.725 116.997 200.081 116.619 200.31C116.24 200.54 115.79 200.623 115.368 200.543Z" fill="url(#paint22_radial_248_771)"/>
<path style="mix-blend-mode:color-dodge" d="M212.167 131.192C211.525 133.479 212.937 135.703 215.322 136.158C217.706 136.614 220.16 135.129 220.802 132.842C221.444 130.554 220.032 128.331 217.648 127.876C215.263 127.42 212.809 128.905 212.167 131.192Z" fill="url(#paint23_radial_248_771)"/>
<path style="mix-blend-mode:color-dodge" d="M97.1585 93.1964C97.1555 95.5334 99.1633 97.304 101.643 97.1511C104.123 96.9982 106.136 94.9797 106.139 92.6427C106.142 90.3057 104.134 88.5351 101.654 88.688C99.1745 88.8409 97.1616 90.8593 97.1585 93.1964Z" fill="url(#paint24_radial_248_771)"/>
<path style="mix-blend-mode:color-dodge" d="M180.537 72.3954C179.895 74.6826 181.307 76.906 183.692 77.3614C186.076 77.8169 188.53 76.3319 189.172 74.0447C189.814 71.7575 188.402 69.5341 186.018 69.0787C183.633 68.6232 181.18 70.1082 180.537 72.3954Z" fill="url(#paint25_radial_248_771)"/>
<path style="mix-blend-mode:color-dodge" d="M164.915 152.295C163.77 152.076 162.795 151.43 162.203 150.499C161.612 149.568 161.452 148.427 161.761 147.329C161.913 146.785 162.176 146.267 162.533 145.806C162.891 145.344 163.338 144.948 163.847 144.64C164.356 144.332 164.918 144.118 165.5 144.01C166.083 143.903 166.674 143.903 167.241 144.012C167.809 144.12 168.34 144.334 168.806 144.642C169.272 144.95 169.662 145.346 169.955 145.807C170.248 146.268 170.438 146.786 170.514 147.33C170.589 147.874 170.549 148.434 170.396 148.978C170.087 150.077 169.336 151.043 168.309 151.665C167.281 152.287 166.06 152.514 164.915 152.295Z" fill="url(#paint26_radial_248_771)"/>
<path style="mix-blend-mode:color-dodge" d="M133.969 165.997C133.688 165.944 133.448 165.785 133.303 165.556C133.158 165.327 133.118 165.047 133.194 164.777C133.27 164.507 133.454 164.27 133.707 164.117C133.96 163.964 134.259 163.909 134.541 163.962C134.822 164.016 135.062 164.175 135.207 164.404C135.353 164.633 135.392 164.913 135.316 165.183C135.24 165.452 135.056 165.69 134.803 165.843C134.551 165.996 134.251 166.051 133.969 165.997Z" fill="url(#paint27_radial_248_771)"/>
<path style="mix-blend-mode:color-dodge" d="M210.382 113.117C209.96 113.036 209.6 112.798 209.382 112.455C209.164 112.112 209.105 111.691 209.219 111.287C209.333 110.882 209.609 110.526 209.988 110.296C210.367 110.067 210.817 109.984 211.239 110.064C211.661 110.145 212.02 110.383 212.238 110.726C212.457 111.069 212.515 111.49 212.401 111.894C212.288 112.299 212.011 112.655 211.632 112.885C211.254 113.114 210.804 113.197 210.382 113.117Z" fill="url(#paint28_radial_248_771)"/>
<path style="mix-blend-mode:color-dodge" d="M116.16 131.691C115.738 131.61 115.378 131.372 115.16 131.029C114.942 130.686 114.884 130.266 114.997 129.861C115.111 129.456 115.388 129.1 115.767 128.871C116.145 128.641 116.595 128.558 117.017 128.638C117.439 128.719 117.799 128.957 118.017 129.3C118.235 129.644 118.293 130.064 118.18 130.469C118.066 130.873 117.789 131.23 117.411 131.459C117.032 131.688 116.582 131.772 116.16 131.691Z" fill="url(#paint29_radial_248_771)"/>
<path style="mix-blend-mode:color-dodge" d="M167.424 103.481C166.782 105.769 168.194 107.992 170.578 108.447C172.963 108.903 175.416 107.418 176.059 105.131C176.701 102.843 175.289 100.62 172.904 100.165C170.52 99.7092 168.066 101.194 167.424 103.481Z" fill="url(#paint30_radial_248_771)"/>
<path style="mix-blend-mode:color-dodge" d="M52.4124 65.4932C52.4094 67.8303 54.4172 69.6008 56.897 69.4479C59.3769 69.295 61.3898 67.2766 61.3928 64.9395C61.3959 62.6025 59.3881 60.832 56.9082 60.9849C54.4284 61.1377 52.4155 63.1562 52.4124 65.4932Z" fill="url(#paint31_radial_248_771)"/>
<path style="mix-blend-mode:color-dodge" d="M120.166 124.592C119.021 124.373 118.046 123.727 117.454 122.796C116.863 121.864 116.703 120.724 117.012 119.626C117.164 119.082 117.426 118.564 117.784 118.103C118.142 117.641 118.589 117.245 119.098 116.937C119.607 116.629 120.169 116.415 120.751 116.307C121.334 116.2 121.925 116.2 122.492 116.309C123.06 116.417 123.591 116.631 124.057 116.939C124.523 117.247 124.913 117.643 125.206 118.104C125.499 118.565 125.689 119.083 125.765 119.627C125.84 120.171 125.8 120.731 125.647 121.275C125.338 122.374 124.587 123.34 123.56 123.962C122.532 124.584 121.311 124.811 120.166 124.592Z" fill="url(#paint32_radial_248_771)"/>
<path style="mix-blend-mode:color-dodge" d="M89.2232 138.294C88.9419 138.241 88.7022 138.082 88.5568 137.853C88.4115 137.624 88.3724 137.344 88.4482 137.074C88.524 136.804 88.7084 136.567 88.9609 136.414C89.2134 136.261 89.5134 136.206 89.7947 136.259C90.076 136.313 90.3157 136.472 90.4611 136.701C90.6064 136.929 90.6455 137.21 90.5697 137.479C90.4939 137.749 90.3095 137.987 90.057 138.14C89.8045 138.292 89.5045 138.348 89.2232 138.294Z" fill="url(#paint33_radial_248_771)"/>
<path style="mix-blend-mode:color-dodge" d="M138.042 135.216C137.76 135.163 137.521 135.004 137.375 134.775C137.23 134.546 137.191 134.266 137.267 133.996C137.342 133.726 137.527 133.489 137.779 133.336C138.032 133.183 138.332 133.127 138.613 133.181C138.894 133.235 139.134 133.394 139.279 133.622C139.425 133.851 139.464 134.131 139.388 134.401C139.312 134.671 139.128 134.909 138.875 135.061C138.623 135.214 138.323 135.27 138.042 135.216Z" fill="url(#paint34_radial_248_771)"/>
<path style="mix-blend-mode:color-dodge" d="M165.643 85.4176C165.221 85.337 164.862 85.0989 164.644 84.7557C164.426 84.4125 164.367 83.9922 164.481 83.5874C164.595 83.1826 164.871 82.8264 165.25 82.5972C165.629 82.3679 166.079 82.2844 166.501 82.365C166.923 82.4456 167.282 82.6837 167.5 83.027C167.718 83.3702 167.777 83.7905 167.663 84.1953C167.549 84.6001 167.273 84.9563 166.894 85.1855C166.515 85.4147 166.065 85.4982 165.643 85.4176Z" fill="url(#paint35_radial_248_771)"/>
<path style="mix-blend-mode:color-dodge" d="M141.26 196.148C140.115 195.928 139.141 195.281 138.549 194.35C137.958 193.42 137.798 192.28 138.105 191.182C138.414 190.083 139.164 189.116 140.192 188.493C141.22 187.87 142.441 187.642 143.587 187.86C144.154 187.968 144.686 188.183 145.152 188.491C145.617 188.8 146.008 189.196 146.301 189.658C146.593 190.12 146.783 190.638 146.858 191.182C146.934 191.727 146.893 192.287 146.74 192.831C146.431 193.929 145.681 194.896 144.653 195.518C143.625 196.14 142.405 196.366 141.26 196.148Z" fill="url(#paint36_radial_248_771)"/>
<path style="mix-blend-mode:color-dodge" d="M42.5189 189.337C42.5158 191.674 44.5236 193.445 47.0035 193.292C49.4834 193.139 51.4962 191.12 51.4993 188.783C51.5024 186.446 49.4945 184.676 47.0147 184.829C44.5348 184.981 42.522 187 42.5189 189.337Z" fill="url(#paint37_radial_248_771)"/>
<path style="mix-blend-mode:color-dodge" d="M125.898 168.536C125.255 170.823 126.668 173.047 129.052 173.502C131.436 173.957 133.89 172.473 134.532 170.185C135.175 167.898 133.762 165.675 131.378 165.219C128.994 164.764 126.54 166.249 125.898 168.536Z" fill="url(#paint38_radial_248_771)"/>
<path style="mix-blend-mode:color-dodge" d="M110.272 248.455C109.127 248.236 108.151 247.59 107.56 246.659C106.968 245.728 106.809 244.587 107.117 243.489C107.269 242.945 107.532 242.427 107.89 241.966C108.248 241.505 108.694 241.109 109.203 240.8C109.712 240.492 110.274 240.278 110.857 240.171C111.439 240.063 112.031 240.063 112.598 240.172C113.165 240.28 113.697 240.494 114.163 240.802C114.628 241.11 115.019 241.506 115.312 241.967C115.605 242.429 115.795 242.946 115.87 243.49C115.946 244.034 115.906 244.595 115.752 245.138C115.444 246.237 114.693 247.203 113.665 247.825C112.637 248.447 111.417 248.674 110.272 248.455Z" fill="url(#paint39_radial_248_771)"/>
<path style="mix-blend-mode:color-dodge" d="M79.3297 262.154C79.0483 262.1 78.8086 261.941 78.6633 261.712C78.5179 261.484 78.4788 261.203 78.5546 260.934C78.6304 260.664 78.8149 260.426 79.0674 260.273C79.3199 260.121 79.6198 260.065 79.9011 260.119C80.1825 260.172 80.4222 260.331 80.5675 260.56C80.7129 260.789 80.752 261.069 80.6762 261.339C80.6004 261.609 80.4159 261.846 80.1634 261.999C79.9109 262.152 79.611 262.207 79.3297 262.154Z" fill="url(#paint40_radial_248_771)"/>
<path style="mix-blend-mode:color-dodge" d="M128.147 259.072C127.866 259.018 127.626 258.859 127.481 258.63C127.335 258.402 127.296 258.121 127.372 257.852C127.448 257.582 127.632 257.344 127.885 257.191C128.137 257.039 128.437 256.983 128.719 257.037C129 257.09 129.24 257.249 129.385 257.478C129.53 257.707 129.569 257.987 129.494 258.257C129.418 258.527 129.233 258.764 128.981 258.917C128.728 259.07 128.428 259.125 128.147 259.072Z" fill="url(#paint41_radial_248_771)"/>
<path style="mix-blend-mode:color-dodge" d="M61.5204 227.836C61.0984 227.755 60.7388 227.517 60.5208 227.174C60.3028 226.83 60.2441 226.41 60.3578 226.005C60.4715 225.601 60.7482 225.244 61.1269 225.015C61.5057 224.786 61.9556 224.702 62.3776 224.783C62.7996 224.864 63.1592 225.102 63.3772 225.445C63.5952 225.788 63.6538 226.208 63.5401 226.613C63.4265 227.018 63.1498 227.374 62.771 227.603C62.3922 227.833 61.9424 227.916 61.5204 227.836Z" fill="url(#paint42_radial_248_771)"/>
<path style="mix-blend-mode:color-dodge" d="M258.465 199.824C257.32 199.604 256.346 198.957 255.754 198.026C255.163 197.095 255.003 195.956 255.31 194.858C255.619 193.759 256.37 192.792 257.397 192.169C258.425 191.546 259.646 191.318 260.792 191.536C261.359 191.644 261.891 191.859 262.357 192.167C262.822 192.476 263.213 192.872 263.506 193.334C263.798 193.796 263.988 194.314 264.063 194.858C264.139 195.402 264.098 195.963 263.945 196.507C263.637 197.605 262.886 198.572 261.858 199.194C260.83 199.816 259.61 200.042 258.465 199.824Z" fill="url(#paint43_radial_248_771)"/>
<path style="mix-blend-mode:color-dodge" d="M274.728 230.997C274.085 233.284 275.498 235.508 277.882 235.963C280.266 236.418 282.72 234.933 283.362 232.646C284.005 230.359 282.592 228.136 280.208 227.68C277.824 227.225 275.37 228.71 274.728 230.997Z" fill="url(#paint44_radial_248_771)"/>
<path style="mix-blend-mode:color-dodge" d="M243.099 172.208C242.457 174.495 243.869 176.718 246.253 177.174C248.638 177.629 251.091 176.144 251.733 173.857C252.376 171.57 250.964 169.347 248.579 168.891C246.195 168.436 243.741 169.921 243.099 172.208Z" fill="url(#paint45_radial_248_771)"/>
<path style="mix-blend-mode:color-dodge" d="M193.617 179.703C193.942 181.989 196.189 183.47 198.637 183.011C201.085 182.552 202.807 180.326 202.482 178.039C202.158 175.753 199.911 174.272 197.463 174.731C195.015 175.19 193.293 177.416 193.617 179.703Z" fill="url(#paint46_radial_248_771)"/>
<path style="mix-blend-mode:color-dodge" d="M196.534 265.818C196.252 265.764 196.013 265.605 195.867 265.377C195.722 265.148 195.683 264.868 195.759 264.598C195.835 264.328 196.019 264.09 196.271 263.937C196.524 263.785 196.824 263.729 197.105 263.783C197.387 263.836 197.626 263.995 197.772 264.224C197.917 264.453 197.956 264.733 197.88 265.003C197.804 265.273 197.62 265.51 197.368 265.663C197.115 265.816 196.815 265.872 196.534 265.818Z" fill="url(#paint47_radial_248_771)"/>
<path style="mix-blend-mode:color-dodge" d="M272.941 212.925C272.519 212.845 272.16 212.607 271.942 212.263C271.724 211.92 271.665 211.5 271.779 211.095C271.892 210.69 272.169 210.334 272.548 210.105C272.927 209.876 273.376 209.792 273.798 209.873C274.22 209.953 274.58 210.192 274.798 210.535C275.016 210.878 275.075 211.298 274.961 211.703C274.847 212.108 274.571 212.464 274.192 212.693C273.813 212.923 273.363 213.006 272.941 212.925Z" fill="url(#paint48_radial_248_771)"/>
<path style="mix-blend-mode:color-dodge" d="M178.724 231.504C178.302 231.423 177.943 231.185 177.725 230.842C177.507 230.498 177.448 230.078 177.562 229.673C177.676 229.269 177.952 228.912 178.331 228.683C178.71 228.454 179.16 228.37 179.582 228.451C180.004 228.532 180.363 228.77 180.581 229.113C180.799 229.456 180.858 229.876 180.744 230.281C180.631 230.686 180.354 231.042 179.975 231.271C179.596 231.501 179.146 231.584 178.724 231.504Z" fill="url(#paint49_radial_248_771)"/>
<path style="mix-blend-mode:color-dodge" d="M288.987 151.966C288.344 154.253 289.756 156.476 292.141 156.932C294.525 157.387 296.979 155.902 297.621 153.615C298.263 151.328 296.851 149.104 294.467 148.649C292.082 148.194 289.629 149.678 288.987 151.966Z" fill="url(#paint50_radial_248_771)"/>
<path style="mix-blend-mode:color-dodge" d="M257.359 93.1727C256.716 95.46 258.129 97.6833 260.513 98.1388C262.897 98.5942 265.351 97.1093 265.993 94.822C266.636 92.5348 265.223 90.3115 262.839 89.856C260.455 89.4006 258.001 90.8855 257.359 93.1727Z" fill="url(#paint51_radial_248_771)"/>
<path style="mix-blend-mode:color-dodge" d="M207.87 100.671C208.195 102.958 210.442 104.439 212.89 103.98C215.338 103.52 217.06 101.295 216.735 99.0081C216.411 96.7217 214.164 95.2405 211.716 95.6998C209.268 96.1591 207.546 98.3849 207.87 100.671Z" fill="url(#paint52_radial_248_771)"/>
<path style="mix-blend-mode:color-dodge" d="M210.782 186.771C210.5 186.717 210.261 186.558 210.115 186.33C209.97 186.101 209.931 185.821 210.007 185.551C210.083 185.281 210.267 185.043 210.52 184.891C210.772 184.738 211.072 184.682 211.353 184.736C211.635 184.79 211.874 184.948 212.02 185.177C212.165 185.406 212.204 185.686 212.128 185.956C212.053 186.226 211.868 186.463 211.616 186.616C211.363 186.769 211.063 186.825 210.782 186.771Z" fill="url(#paint53_radial_248_771)"/>
<path style="mix-blend-mode:color-dodge" d="M287.2 133.898C286.778 133.817 286.418 133.579 286.2 133.236C285.982 132.893 285.924 132.473 286.038 132.068C286.151 131.663 286.428 131.307 286.807 131.078C287.185 130.848 287.635 130.765 288.057 130.845C288.479 130.926 288.839 131.164 289.057 131.507C289.275 131.851 289.333 132.271 289.22 132.676C289.106 133.081 288.829 133.437 288.451 133.666C288.072 133.895 287.622 133.979 287.2 133.898Z" fill="url(#paint54_radial_248_771)"/>
<path style="mix-blend-mode:color-dodge" d="M241.044 63.7571C239.9 63.5372 238.925 62.8908 238.334 61.9598C237.742 61.0289 237.582 59.8893 237.889 58.7911C238.198 57.6923 238.949 56.7252 239.976 56.1024C241.004 55.4795 242.225 55.2518 243.371 55.4693C243.939 55.5777 244.47 55.7923 244.936 56.1008C245.401 56.4094 245.792 56.8058 246.085 57.2675C246.378 57.7292 246.567 58.2471 246.642 58.7915C246.718 59.336 246.678 59.8963 246.524 60.4404C246.216 61.5388 245.465 62.5053 244.437 63.1273C243.409 63.7493 242.189 63.9759 241.044 63.7571Z" fill="url(#paint55_radial_248_771)"/>
<path style="mix-blend-mode:color-dodge" d="M265.803 100.099C265.161 102.386 266.573 104.609 268.957 105.065C271.342 105.52 273.795 104.035 274.438 101.748C275.08 99.4606 273.668 97.2372 271.283 96.7818C268.899 96.3263 266.445 97.8113 265.803 100.099Z" fill="url(#paint56_radial_248_771)"/>
<path style="mix-blend-mode:color-dodge" d="M225.681 36.1415C225.039 38.4287 226.451 40.6521 228.835 41.1075C231.22 41.563 233.673 40.078 234.316 37.7908C234.958 35.5036 233.546 33.2802 231.161 32.8248C228.777 32.3693 226.323 33.8543 225.681 36.1415Z" fill="url(#paint57_radial_248_771)"/>
<path style="mix-blend-mode:color-dodge" d="M176.194 43.6362C176.518 45.9227 178.765 47.4039 181.213 46.9446C183.661 46.4853 185.383 44.2594 185.059 41.973C184.734 39.6865 182.487 38.2053 180.039 38.6646C177.591 39.1239 175.869 41.3498 176.194 43.6362Z" fill="url(#paint58_radial_248_771)"/>
<path style="mix-blend-mode:color-dodge" d="M179.108 129.74C178.827 129.686 178.587 129.527 178.442 129.298C178.296 129.07 178.257 128.789 178.333 128.52C178.409 128.25 178.593 128.012 178.846 127.859C179.098 127.707 179.398 127.651 179.679 127.705C179.961 127.758 180.201 127.917 180.346 128.146C180.491 128.375 180.53 128.655 180.454 128.925C180.379 129.195 180.194 129.432 179.942 129.585C179.689 129.738 179.389 129.793 179.108 129.74Z" fill="url(#paint59_radial_248_771)"/>
<path style="mix-blend-mode:color-dodge" d="M255.522 76.8629C255.1 76.7823 254.741 76.5442 254.523 76.201C254.305 75.8578 254.246 75.4375 254.36 75.0327C254.473 74.6279 254.75 74.2717 255.129 74.0425C255.508 73.8132 255.958 73.7297 256.38 73.8103C256.802 73.8909 257.161 74.1291 257.379 74.4723C257.597 74.8155 257.656 75.2358 257.542 75.6406C257.428 76.0454 257.152 76.4016 256.773 76.6308C256.394 76.8601 255.944 76.9436 255.522 76.8629Z" fill="url(#paint60_radial_248_771)"/>
</g>
<g opacity="0.37">
<path d="M262.296 246.174C262.296 246.174 262.622 245.714 263.274 244.856L263.818 244.131C264.012 243.853 264.181 243.527 264.374 243.176C264.856 242.391 265.261 241.562 265.583 240.699C265.776 240.203 266.006 239.696 266.199 239.14C266.393 238.584 266.526 237.931 266.695 237.351C266.892 236.7 267.03 236.033 267.106 235.357C267.25 234.63 267.355 233.895 267.42 233.157C267.706 229.618 267.543 226.056 266.937 222.558C265.728 214.617 262.344 205.287 257.195 195.134C251.222 183.688 244.224 172.806 236.286 162.623C226.73 150.221 216.31 138.509 205.104 127.573C192.304 114.976 178.629 103.3 164.181 92.6326C156.531 87.0247 148.469 81.5739 140.009 76.4373C131.361 71.1669 122.383 66.4597 113.13 62.345C103.592 57.9878 93.5474 54.8411 83.2288 52.9783C77.9614 52.042 72.5828 51.9075 67.2752 52.5795C64.6207 52.9779 62.0314 53.7299 59.5764 54.8154C57.1048 55.915 54.8935 57.5246 53.0877 59.5388C51.2818 61.5529 49.9221 63.9261 49.0978 66.5026C48.2961 69.0648 47.8448 71.7236 47.7562 74.4069C47.6812 79.7567 48.4188 85.0869 49.9438 90.2154C52.9675 100.258 57.239 109.881 62.6583 118.859C67.7988 127.591 73.4992 135.98 79.7238 143.974C85.7668 151.83 92.1241 159.215 98.5659 166.164C110.809 179.312 123.968 191.578 137.942 202.869C150.078 212.751 162.893 221.769 176.291 229.858C187.31 236.582 198.916 242.293 210.966 246.923C221.638 250.887 231.295 253.16 239.32 253.474C242.866 253.689 246.424 253.446 249.907 252.749C250.629 252.604 251.343 252.423 252.047 252.205C252.71 252.039 253.36 251.824 253.992 251.564L255.709 250.863C256.24 250.609 256.724 250.319 257.183 250.078C258.004 249.64 258.785 249.131 259.516 248.555C259.83 248.313 260.144 248.12 260.398 247.902L261.051 247.274L262.259 246.15L261.111 247.358L260.458 248.011C260.205 248.228 259.903 248.434 259.576 248.688C258.85 249.271 258.073 249.789 257.256 250.235C256.796 250.488 256.313 250.779 255.781 251.044L254.053 251.758C253.424 252.029 252.773 252.247 252.107 252.41C251.4 252.641 250.682 252.834 249.956 252.99C246.458 253.704 242.884 253.968 239.32 253.776C231.259 253.498 221.566 251.238 210.857 247.31C198.77 242.701 187.127 237.001 176.074 230.281C162.633 222.219 149.786 213.208 137.628 203.317C123.619 192.031 110.428 179.765 98.155 166.611C91.689 159.65 85.3438 152.253 79.2645 144.385C73.0212 136.374 67.3007 127.969 62.1386 119.222C56.6935 110.196 52.3978 100.525 49.3516 90.433C47.8152 85.2325 47.0776 79.8288 47.164 74.4069C47.25 71.6612 47.7136 68.9405 48.5419 66.3213C49.3812 63.6604 50.7748 61.2074 52.6309 59.1242C54.4871 57.041 56.7636 55.3748 59.3105 54.2353C61.8168 53.1187 64.464 52.3502 67.1785 51.951C72.5497 51.261 77.9949 51.3955 83.3255 52.3498C93.6967 54.2189 103.791 57.3862 113.371 61.7769C122.623 65.9105 131.594 70.6463 140.227 75.9539C148.687 81.1025 156.809 86.5654 164.399 92.1854C178.86 102.89 192.547 114.602 205.358 127.235C216.558 138.195 226.969 149.931 236.516 162.357C244.448 172.58 251.434 183.502 257.389 194.989C262.513 205.178 265.849 214.557 267.057 222.521C267.653 226.042 267.795 229.624 267.48 233.181C267.416 233.924 267.311 234.662 267.166 235.393C267.071 236.072 266.925 236.742 266.731 237.399C266.55 238.028 266.381 238.608 266.223 239.2C266.066 239.792 265.776 240.264 265.583 240.759C265.241 241.626 264.811 242.456 264.302 243.237C264.096 243.587 263.927 243.914 263.734 244.192L263.166 244.905C262.598 245.751 262.296 246.174 262.296 246.174Z" fill="#C1B9FF" stroke="white" stroke-opacity="0.23"/>
<path d="M300.971 152.796C300.971 152.796 300.91 152.24 300.826 151.164C300.826 150.89 300.801 150.588 300.753 150.258C300.753 149.92 300.608 149.569 300.535 149.17C300.377 148.255 300.135 147.357 299.81 146.487C299.629 145.992 299.46 145.46 299.242 144.916C299.025 144.372 298.698 143.84 298.408 143.248C298.104 142.62 297.748 142.017 297.345 141.447C296.946 140.867 296.607 140.239 296.136 139.61C293.995 136.775 291.502 134.224 288.715 132.02C282.515 126.92 273.789 122.182 263.202 118.037C251.122 113.473 238.655 110.01 225.952 107.691C210.572 104.805 195.007 103.008 179.373 102.313C161.431 101.45 143.451 101.854 125.566 103.521C116.127 104.416 106.482 105.721 96.7286 107.546C86.7659 109.365 76.9314 111.828 67.287 114.918C57.2585 118.013 47.6562 122.349 38.7035 127.826C34.1805 130.642 30.1063 134.121 26.6174 138.148C24.8976 140.208 23.4664 142.493 22.3632 144.94C21.254 147.411 20.6805 150.088 20.6805 152.796C20.6805 155.504 21.254 158.181 22.3632 160.652C23.4708 163.096 24.9017 165.381 26.6174 167.444C30.1073 171.453 34.1818 174.912 38.7035 177.705C47.6507 183.188 57.2491 187.528 67.2749 190.625C76.9185 193.719 86.7531 196.181 96.7165 197.998C106.47 199.835 116.115 201.128 125.554 202.022C143.438 203.696 161.419 204.1 179.361 203.231C194.995 202.536 210.56 200.739 225.94 197.853C238.644 195.537 251.111 192.074 263.19 187.507C273.789 183.362 282.527 178.624 288.703 173.524C291.492 171.323 293.987 168.772 296.124 165.934C296.56 165.343 296.963 164.73 297.333 164.097C297.72 163.538 298.06 162.948 298.348 162.332L299.182 160.664C299.399 160.12 299.569 159.588 299.75 159.093C300.074 158.223 300.317 157.325 300.475 156.41C300.548 156.023 300.644 155.66 300.693 155.334C300.741 155.008 300.693 154.694 300.765 154.428C300.85 153.34 300.91 152.796 300.91 152.796C300.91 152.796 300.91 153.352 300.826 154.428C300.826 154.706 300.826 155.008 300.826 155.346C300.826 155.685 300.693 156.035 300.62 156.434C300.47 157.352 300.235 158.254 299.919 159.129C299.738 159.637 299.581 160.169 299.351 160.725L298.541 162.404C298.252 163.023 297.912 163.617 297.526 164.181C297.127 164.773 296.789 165.45 296.317 166.054C294.18 168.918 291.682 171.494 288.885 173.717C282.684 178.866 273.946 183.652 263.347 187.833C251.25 192.426 238.763 195.913 226.037 198.252C210.639 201.172 195.053 203.002 179.397 203.727C161.429 204.625 143.42 204.249 125.505 202.603C116.054 201.708 106.397 200.415 96.6077 198.59C86.6212 196.771 76.7626 194.308 67.0936 191.218C57.017 188.107 47.3698 183.746 38.3772 178.237C33.7749 175.389 29.6273 171.865 26.0736 167.783C24.3133 165.671 22.8495 163.329 21.7226 160.821C20.587 158.279 20 155.526 20 152.742C20 149.957 20.587 147.204 21.7226 144.662C22.8541 142.161 24.3176 139.823 26.0736 137.713C29.6259 133.628 33.7785 130.107 38.3892 127.27C47.3757 121.761 57.0196 117.404 67.0936 114.302C76.7607 111.202 86.6197 108.735 96.6077 106.917C106.385 105.092 116.042 103.799 125.493 102.905C143.408 101.262 161.417 100.891 179.385 101.793C195.046 102.519 210.636 104.357 226.037 107.292C238.756 109.641 251.236 113.141 263.323 117.747C273.934 121.94 282.66 126.714 288.872 131.863C291.659 134.095 294.149 136.674 296.281 139.538C296.717 140.136 297.121 140.757 297.49 141.399C297.871 141.966 298.21 142.56 298.505 143.176L299.315 144.868C299.544 145.411 299.702 145.955 299.883 146.451C300.2 147.329 300.435 148.236 300.584 149.158C300.656 149.545 300.741 149.907 300.789 150.246C300.838 150.584 300.789 150.886 300.789 151.152C300.971 152.24 300.971 152.796 300.971 152.796Z" fill="#C1B9FF" stroke="white" stroke-opacity="0.23"/>
<path d="M249.675 36.5377C249.675 36.5377 249.192 36.2477 248.298 35.6555L247.536 35.1599C247.246 34.9907 246.896 34.8457 246.545 34.6644C245.725 34.2331 244.867 33.8772 243.983 33.6008C243.475 33.4437 242.956 33.2382 242.387 33.0811L240.538 32.6702C239.874 32.5245 239.199 32.4316 238.52 32.3922C237.807 32.3922 237.082 32.2109 236.308 32.2351C232.754 32.1931 229.209 32.5992 225.757 33.4437C217.937 35.2083 208.837 39.2088 199.083 45.0463C188.072 51.791 177.696 59.5215 168.083 68.1428C156.378 78.5288 145.421 89.7282 135.293 101.657C123.609 115.3 112.902 129.751 103.253 144.901C98.1769 152.914 93.2942 161.326 88.7498 170.161C84.0882 179.155 80.0108 188.441 76.5429 197.959C72.8625 207.777 70.4264 218.017 69.2913 228.44C68.7187 233.759 68.9592 239.135 70.0044 244.381C70.5758 247.005 71.5029 249.538 72.76 251.911C74.0292 254.294 75.7879 256.383 77.9208 258.038C80.0536 259.694 82.5125 260.881 85.1361 261.519C87.7464 262.147 90.43 262.415 93.1128 262.317C98.4537 262.022 103.719 260.917 108.728 259.042C118.541 255.331 127.852 250.406 136.441 244.381C144.796 238.652 152.769 232.387 160.311 225.624C167.732 219.037 174.669 212.208 181.16 205.295C193.412 192.176 204.721 178.206 215.001 163.49C224.043 150.719 232.173 137.327 239.33 123.412C245.276 111.952 250.174 99.9788 253.966 87.6375C257.181 76.7601 258.8 66.9342 258.547 58.909C258.517 55.3563 258.029 51.8222 257.096 48.3941C256.901 47.681 256.667 46.979 256.395 46.2912C256.192 45.6435 255.937 45.013 255.634 44.4058C255.344 43.8256 255.078 43.1972 254.824 42.7379C254.57 42.2786 254.208 41.7589 253.93 41.3238C253.44 40.5319 252.878 39.7874 252.25 39.1C251.996 38.7978 251.766 38.5078 251.537 38.266L250.86 37.6496C250.062 36.9245 249.651 36.5377 249.651 36.5377L250.86 37.6013L251.537 38.2056C251.778 38.4473 252.008 38.7374 252.274 39.0396C252.917 39.716 253.488 40.4572 253.978 41.2513C254.268 41.6985 254.594 42.1578 254.897 42.6654L255.718 44.3332C256.037 44.9422 256.304 45.577 256.516 46.2308C256.734 46.9076 257.06 47.5844 257.229 48.3458C258.183 51.7839 258.695 55.3295 258.752 58.8969C259.03 66.9583 257.447 76.7843 254.256 87.7342C250.494 100.112 245.616 112.123 239.68 123.618C232.551 137.576 224.446 151.012 215.424 163.828C205.146 178.576 193.837 192.579 181.583 205.73C175.08 212.668 168.143 219.508 160.71 226.119C153.149 232.9 145.156 239.182 136.78 244.925C128.168 250.983 118.829 255.933 108.982 259.658C103.886 261.576 98.5256 262.697 93.0887 262.982C90.3447 263.076 87.6006 262.8 84.9306 262.16C82.2234 261.501 79.6861 260.277 77.4846 258.569C75.2831 256.861 73.4671 254.708 72.1557 252.249C70.8699 249.824 69.9225 247.233 69.3396 244.551C68.2854 239.244 68.0409 233.808 68.6145 228.428C69.7704 217.949 72.2351 207.656 75.9507 197.79C79.4331 188.27 83.5267 178.984 88.2059 169.992C92.7503 161.145 97.6451 152.721 102.709 144.696C112.383 129.533 123.118 115.075 134.834 101.428C144.997 89.4958 155.991 78.2964 167.732 67.9131C177.402 59.2588 187.844 51.5075 198.926 44.7563C208.74 38.9308 217.865 34.9545 225.733 33.2141C229.199 32.3536 232.762 31.9473 236.332 32.0055C237.076 32.023 237.818 32.0795 238.556 32.1747C239.24 32.2179 239.919 32.3148 240.587 32.4647L242.424 32.8515C242.992 33.0207 243.512 33.2141 244.019 33.3833C244.907 33.6661 245.765 34.0344 246.581 34.4831C246.944 34.6644 247.282 34.8215 247.572 34.9907L248.322 35.4983C249.228 36.2114 249.675 36.5377 249.675 36.5377Z" fill="#C1B9FF" stroke="white" stroke-opacity="0.23"/>
</g>
<defs>
<filter id="filter0_d_248_771" x="0.900002" y="-5.1" width="318.2" height="318.2" filterUnits="userSpaceOnUse" color-interpolation-filters="sRGB">
<feFlood flood-opacity="0" result="BackgroundImageFix"/>
<feColorMatrix in="SourceAlpha" type="matrix" values="0 0 0 0 0 0 0 0 0 0 0 0 0 0 0 0 0 0 127 0" result="hardAlpha"/>
<feOffset/>
<feGaussianBlur stdDeviation="57.55"/>
<feComposite in2="hardAlpha" operator="out"/>
<feColorMatrix type="matrix" values="0 0 0 0 0 0 0 0 0 0 0 0 0 0 0 0 0 0 1 0"/>
<feBlend mode="normal" in2="BackgroundImageFix" result="effect1_dropShadow_248_771"/>
<feBlend mode="normal" in="SourceGraphic" in2="effect1_dropShadow_248_771" result="shape"/>
</filter>
<linearGradient id="paint0_linear_248_771" x1="173.983" y1="180.067" x2="122.929" y2="104.64" gradientUnits="userSpaceOnUse">
<stop stop-color="#5A45FF"/>
<stop offset="0.265384" stop-color="#7D71FF"/>
<stop offset="0.478947" stop-color="#7C81FF"/>
<stop offset="1" stop-color="#000099"/>
</linearGradient>
<linearGradient id="paint1_linear_248_771" x1="165.021" y1="171.738" x2="149.422" y2="145.916" gradientUnits="userSpaceOnUse">
<stop stop-color="#5A45FF"/>
<stop offset="0.265384" stop-color="#7D71FF"/>
<stop offset="0.478947" stop-color="#7C81FF"/>
<stop offset="1" stop-color="#000099"/>
</linearGradient>
<linearGradient id="paint2_linear_248_771" x1="164.759" y1="155.484" x2="163.043" y2="145.895" gradientUnits="userSpaceOnUse">
<stop stop-color="#5A45FF"/>
<stop offset="0.265384" stop-color="#7D71FF"/>
<stop offset="0.478947" stop-color="#7C81FF"/>
<stop offset="1" stop-color="#000099"/>
</linearGradient>
<radialGradient id="paint3_radial_248_771" cx="0" cy="0" r="1" gradientUnits="userSpaceOnUse" gradientTransform="translate(133.336 112.165) rotate(120.46) scale(4.40165 4.28257)">
<stop offset="0.165" stop-color="white"/>
<stop offset="0.28" stop-color="#8E90FA" stop-opacity="0.2"/>
<stop offset="0.49" stop-color="#6057C2" stop-opacity="0.07"/>
<stop offset="0.73" stop-color="#6057C2" stop-opacity="0.07"/>
<stop offset="0.91" stop-color="#0E0E0F" stop-opacity="0.07"/>
<stop offset="1" stop-color="#000001" stop-opacity="0"/>
</radialGradient>
<radialGradient id="paint4_radial_248_771" cx="0" cy="0" r="1" gradientUnits="userSpaceOnUse" gradientTransform="translate(37.9215 109.209) rotate(105.528) scale(4.31881 4.39912)">
<stop offset="0.165" stop-color="white"/>
<stop offset="0.28" stop-color="#8E90FA" stop-opacity="0.2"/>
<stop offset="0.49" stop-color="#6057C2" stop-opacity="0.07"/>
<stop offset="0.73" stop-color="#6057C2" stop-opacity="0.07"/>
<stop offset="0.91" stop-color="#0E0E0F" stop-opacity="0.07"/>
<stop offset="1" stop-color="#000001" stop-opacity="0"/>
</radialGradient>
<radialGradient id="paint5_radial_248_771" cx="0" cy="0" r="1" gradientUnits="userSpaceOnUse" gradientTransform="translate(121.129 89.5182) rotate(120.468) scale(4.39918 4.28235)">
<stop offset="0.165" stop-color="white"/>
<stop offset="0.28" stop-color="#8E90FA" stop-opacity="0.2"/>
<stop offset="0.49" stop-color="#6057C2" stop-opacity="0.07"/>
<stop offset="0.73" stop-color="#6057C2" stop-opacity="0.07"/>
<stop offset="0.91" stop-color="#0E0E0F" stop-opacity="0.07"/>
<stop offset="1" stop-color="#000001" stop-opacity="0"/>
</radialGradient>
<radialGradient id="paint6_radial_248_771" cx="0" cy="0" r="1" gradientUnits="userSpaceOnUse" gradientTransform="translate(70.507 181.273) rotate(120.468) scale(1.08088 1.05217)">
<stop offset="0.165" stop-color="white"/>
<stop offset="0.28" stop-color="#8E90FA" stop-opacity="0.2"/>
<stop offset="0.49" stop-color="#6057C2" stop-opacity="0.07"/>
<stop offset="0.73" stop-color="#6057C2" stop-opacity="0.07"/>
<stop offset="0.91" stop-color="#0E0E0F" stop-opacity="0.07"/>
<stop offset="1" stop-color="#000001" stop-opacity="0"/>
</radialGradient>
<radialGradient id="paint7_radial_248_771" cx="0" cy="0" r="1" gradientUnits="userSpaceOnUse" gradientTransform="translate(147.07 127.888) rotate(120.468) scale(1.62132 1.57826)">
<stop offset="0.165" stop-color="white"/>
<stop offset="0.28" stop-color="#8E90FA" stop-opacity="0.2"/>
<stop offset="0.49" stop-color="#6057C2" stop-opacity="0.07"/>
<stop offset="0.73" stop-color="#6057C2" stop-opacity="0.07"/>
<stop offset="0.91" stop-color="#0E0E0F" stop-opacity="0.07"/>
<stop offset="1" stop-color="#000001" stop-opacity="0"/>
</radialGradient>
<radialGradient id="paint8_radial_248_771" cx="0" cy="0" r="1" gradientUnits="userSpaceOnUse" gradientTransform="translate(52.8488 146.47) rotate(120.468) scale(1.62132 1.57826)">
<stop offset="0.165" stop-color="white"/>
<stop offset="0.28" stop-color="#8E90FA" stop-opacity="0.2"/>
<stop offset="0.49" stop-color="#6057C2" stop-opacity="0.07"/>
<stop offset="0.73" stop-color="#6057C2" stop-opacity="0.07"/>
<stop offset="0.91" stop-color="#0E0E0F" stop-opacity="0.07"/>
<stop offset="1" stop-color="#000001" stop-opacity="0"/>
</radialGradient>
<radialGradient id="paint9_radial_248_771" cx="0" cy="0" r="1" gradientUnits="userSpaceOnUse" gradientTransform="translate(133.355 180.901) rotate(120.468) scale(4.39918 4.28235)">
<stop offset="0.165" stop-color="white"/>
<stop offset="0.28" stop-color="#8E90FA" stop-opacity="0.2"/>
<stop offset="0.49" stop-color="#6057C2" stop-opacity="0.07"/>
<stop offset="0.73" stop-color="#6057C2" stop-opacity="0.07"/>
<stop offset="0.91" stop-color="#0E0E0F" stop-opacity="0.07"/>
<stop offset="1" stop-color="#000001" stop-opacity="0"/>
</radialGradient>
<radialGradient id="paint10_radial_248_771" cx="0" cy="0" r="1" gradientUnits="userSpaceOnUse" gradientTransform="translate(18.5162 141.803) rotate(105.528) scale(4.31881 4.39912)">
<stop offset="0.165" stop-color="white"/>
<stop offset="0.28" stop-color="#8E90FA" stop-opacity="0.2"/>
<stop offset="0.49" stop-color="#6057C2" stop-opacity="0.07"/>
<stop offset="0.73" stop-color="#6057C2" stop-opacity="0.07"/>
<stop offset="0.91" stop-color="#0E0E0F" stop-opacity="0.07"/>
<stop offset="1" stop-color="#000001" stop-opacity="0"/>
</radialGradient>
<radialGradient id="paint11_radial_248_771" cx="0" cy="0" r="1" gradientUnits="userSpaceOnUse" gradientTransform="translate(101.728 122.108) rotate(120.468) scale(4.39918 4.28235)">
<stop offset="0.165" stop-color="white"/>
<stop offset="0.28" stop-color="#8E90FA" stop-opacity="0.2"/>
<stop offset="0.49" stop-color="#6057C2" stop-opacity="0.07"/>
<stop offset="0.73" stop-color="#6057C2" stop-opacity="0.07"/>
<stop offset="0.91" stop-color="#0E0E0F" stop-opacity="0.07"/>
<stop offset="1" stop-color="#000001" stop-opacity="0"/>
</radialGradient>
<radialGradient id="paint12_radial_248_771" cx="0" cy="0" r="1" gradientUnits="userSpaceOnUse" gradientTransform="translate(52.3553 127.943) rotate(97.6834) scale(4.25303 4.4295)">
<stop offset="0.165" stop-color="white"/>
<stop offset="0.28" stop-color="#8E90FA" stop-opacity="0.2"/>
<stop offset="0.49" stop-color="#6057C2" stop-opacity="0.07"/>
<stop offset="0.73" stop-color="#6057C2" stop-opacity="0.07"/>
<stop offset="0.91" stop-color="#0E0E0F" stop-opacity="0.07"/>
<stop offset="1" stop-color="#000001" stop-opacity="0"/>
</radialGradient>
<radialGradient id="paint13_radial_248_771" cx="0" cy="0" r="1" gradientUnits="userSpaceOnUse" gradientTransform="translate(51.1056 213.863) rotate(120.468) scale(1.08088 1.05217)">
<stop offset="0.165" stop-color="white"/>
<stop offset="0.28" stop-color="#8E90FA" stop-opacity="0.2"/>
<stop offset="0.49" stop-color="#6057C2" stop-opacity="0.07"/>
<stop offset="0.73" stop-color="#6057C2" stop-opacity="0.07"/>
<stop offset="0.91" stop-color="#0E0E0F" stop-opacity="0.07"/>
<stop offset="1" stop-color="#000001" stop-opacity="0"/>
</radialGradient>
<radialGradient id="paint14_radial_248_771" cx="0" cy="0" r="1" gradientUnits="userSpaceOnUse" gradientTransform="translate(127.668 160.478) rotate(120.468) scale(1.62132 1.57826)">
<stop offset="0.165" stop-color="white"/>
<stop offset="0.28" stop-color="#8E90FA" stop-opacity="0.2"/>
<stop offset="0.49" stop-color="#6057C2" stop-opacity="0.07"/>
<stop offset="0.73" stop-color="#6057C2" stop-opacity="0.07"/>
<stop offset="0.91" stop-color="#0E0E0F" stop-opacity="0.07"/>
<stop offset="1" stop-color="#000001" stop-opacity="0"/>
</radialGradient>
<radialGradient id="paint15_radial_248_771" cx="0" cy="0" r="1" gradientUnits="userSpaceOnUse" gradientTransform="translate(33.4465 179.056) rotate(120.468) scale(1.62132 1.57826)">
<stop offset="0.165" stop-color="white"/>
<stop offset="0.28" stop-color="#8E90FA" stop-opacity="0.2"/>
<stop offset="0.49" stop-color="#6057C2" stop-opacity="0.07"/>
<stop offset="0.73" stop-color="#6057C2" stop-opacity="0.07"/>
<stop offset="0.91" stop-color="#0E0E0F" stop-opacity="0.07"/>
<stop offset="1" stop-color="#000001" stop-opacity="0"/>
</radialGradient>
<radialGradient id="paint16_radial_248_771" cx="0" cy="0" r="1" gradientUnits="userSpaceOnUse" gradientTransform="translate(215.713 200.862) rotate(120.468) scale(4.39918 4.28235)">
<stop offset="0.165" stop-color="white"/>
<stop offset="0.28" stop-color="#8E90FA" stop-opacity="0.2"/>
<stop offset="0.49" stop-color="#6057C2" stop-opacity="0.07"/>
<stop offset="0.73" stop-color="#6057C2" stop-opacity="0.07"/>
<stop offset="0.91" stop-color="#0E0E0F" stop-opacity="0.07"/>
<stop offset="1" stop-color="#000001" stop-opacity="0"/>
</radialGradient>
<radialGradient id="paint17_radial_248_771" cx="0" cy="0" r="1" gradientUnits="userSpaceOnUse" gradientTransform="translate(100.877 161.764) rotate(105.528) scale(4.31881 4.39912)">
<stop offset="0.165" stop-color="white"/>
<stop offset="0.28" stop-color="#8E90FA" stop-opacity="0.2"/>
<stop offset="0.49" stop-color="#6057C2" stop-opacity="0.07"/>
<stop offset="0.73" stop-color="#6057C2" stop-opacity="0.07"/>
<stop offset="0.91" stop-color="#0E0E0F" stop-opacity="0.07"/>
<stop offset="1" stop-color="#000001" stop-opacity="0"/>
</radialGradient>
<radialGradient id="paint18_radial_248_771" cx="0" cy="0" r="1" gradientUnits="userSpaceOnUse" gradientTransform="translate(165.306 217.006) rotate(120.468) scale(4.39918 4.28235)">
<stop offset="0.165" stop-color="white"/>
<stop offset="0.28" stop-color="#8E90FA" stop-opacity="0.2"/>
<stop offset="0.49" stop-color="#6057C2" stop-opacity="0.07"/>
<stop offset="0.73" stop-color="#6057C2" stop-opacity="0.07"/>
<stop offset="0.91" stop-color="#0E0E0F" stop-opacity="0.07"/>
<stop offset="1" stop-color="#000001" stop-opacity="0"/>
</radialGradient>
<radialGradient id="paint19_radial_248_771" cx="0" cy="0" r="1" gradientUnits="userSpaceOnUse" gradientTransform="translate(134.716 147.904) rotate(97.6834) scale(4.25303 4.4295)">
<stop offset="0.165" stop-color="white"/>
<stop offset="0.28" stop-color="#8E90FA" stop-opacity="0.2"/>
<stop offset="0.49" stop-color="#6057C2" stop-opacity="0.07"/>
<stop offset="0.73" stop-color="#6057C2" stop-opacity="0.07"/>
<stop offset="0.91" stop-color="#0E0E0F" stop-opacity="0.07"/>
<stop offset="1" stop-color="#000001" stop-opacity="0"/>
</radialGradient>
<radialGradient id="paint20_radial_248_771" cx="0" cy="0" r="1" gradientUnits="userSpaceOnUse" gradientTransform="translate(182.286 230.742) rotate(120.468) scale(1.08088 1.05217)">
<stop offset="0.165" stop-color="white"/>
<stop offset="0.28" stop-color="#8E90FA" stop-opacity="0.2"/>
<stop offset="0.49" stop-color="#6057C2" stop-opacity="0.07"/>
<stop offset="0.73" stop-color="#6057C2" stop-opacity="0.07"/>
<stop offset="0.91" stop-color="#0E0E0F" stop-opacity="0.07"/>
<stop offset="1" stop-color="#000001" stop-opacity="0"/>
</radialGradient>
<radialGradient id="paint21_radial_248_771" cx="0" cy="0" r="1" gradientUnits="userSpaceOnUse" gradientTransform="translate(210.029 180.439) rotate(120.468) scale(1.62132 1.57826)">
<stop offset="0.165" stop-color="white"/>
<stop offset="0.28" stop-color="#8E90FA" stop-opacity="0.2"/>
<stop offset="0.49" stop-color="#6057C2" stop-opacity="0.07"/>
<stop offset="0.73" stop-color="#6057C2" stop-opacity="0.07"/>
<stop offset="0.91" stop-color="#0E0E0F" stop-opacity="0.07"/>
<stop offset="1" stop-color="#000001" stop-opacity="0"/>
</radialGradient>
<radialGradient id="paint22_radial_248_771" cx="0" cy="0" r="1" gradientUnits="userSpaceOnUse" gradientTransform="translate(115.804 199.017) rotate(120.468) scale(1.62132 1.57826)">
<stop offset="0.165" stop-color="white"/>
<stop offset="0.28" stop-color="#8E90FA" stop-opacity="0.2"/>
<stop offset="0.49" stop-color="#6057C2" stop-opacity="0.07"/>
<stop offset="0.73" stop-color="#6057C2" stop-opacity="0.07"/>
<stop offset="0.91" stop-color="#0E0E0F" stop-opacity="0.07"/>
<stop offset="1" stop-color="#000001" stop-opacity="0"/>
</radialGradient>
<radialGradient id="paint23_radial_248_771" cx="0" cy="0" r="1" gradientUnits="userSpaceOnUse" gradientTransform="translate(216.504 132.018) rotate(120.468) scale(4.39918 4.28235)">
<stop offset="0.165" stop-color="white"/>
<stop offset="0.28" stop-color="#8E90FA" stop-opacity="0.2"/>
<stop offset="0.49" stop-color="#6057C2" stop-opacity="0.07"/>
<stop offset="0.73" stop-color="#6057C2" stop-opacity="0.07"/>
<stop offset="0.91" stop-color="#0E0E0F" stop-opacity="0.07"/>
<stop offset="1" stop-color="#000001" stop-opacity="0"/>
</radialGradient>
<radialGradient id="paint24_radial_248_771" cx="0" cy="0" r="1" gradientUnits="userSpaceOnUse" gradientTransform="translate(101.669 92.9158) rotate(105.528) scale(4.31881 4.39912)">
<stop offset="0.165" stop-color="white"/>
<stop offset="0.28" stop-color="#8E90FA" stop-opacity="0.2"/>
<stop offset="0.49" stop-color="#6057C2" stop-opacity="0.07"/>
<stop offset="0.73" stop-color="#6057C2" stop-opacity="0.07"/>
<stop offset="0.91" stop-color="#0E0E0F" stop-opacity="0.07"/>
<stop offset="1" stop-color="#000001" stop-opacity="0"/>
</radialGradient>
<radialGradient id="paint25_radial_248_771" cx="0" cy="0" r="1" gradientUnits="userSpaceOnUse" gradientTransform="translate(184.874 73.2213) rotate(120.468) scale(4.39918 4.28235)">
<stop offset="0.165" stop-color="white"/>
<stop offset="0.28" stop-color="#8E90FA" stop-opacity="0.2"/>
<stop offset="0.49" stop-color="#6057C2" stop-opacity="0.07"/>
<stop offset="0.73" stop-color="#6057C2" stop-opacity="0.07"/>
<stop offset="0.91" stop-color="#0E0E0F" stop-opacity="0.07"/>
<stop offset="1" stop-color="#000001" stop-opacity="0"/>
</radialGradient>
<radialGradient id="paint26_radial_248_771" cx="0" cy="0" r="1" gradientUnits="userSpaceOnUse" gradientTransform="translate(166.098 148.155) rotate(120.468) scale(4.39918 4.28235)">
<stop offset="0.165" stop-color="white"/>
<stop offset="0.28" stop-color="#8E90FA" stop-opacity="0.2"/>
<stop offset="0.49" stop-color="#6057C2" stop-opacity="0.07"/>
<stop offset="0.73" stop-color="#6057C2" stop-opacity="0.07"/>
<stop offset="0.91" stop-color="#0E0E0F" stop-opacity="0.07"/>
<stop offset="1" stop-color="#000001" stop-opacity="0"/>
</radialGradient>
<radialGradient id="paint27_radial_248_771" cx="0" cy="0" r="1" gradientUnits="userSpaceOnUse" gradientTransform="translate(134.26 164.98) rotate(120.468) scale(1.08088 1.05217)">
<stop offset="0.165" stop-color="white"/>
<stop offset="0.28" stop-color="#8E90FA" stop-opacity="0.2"/>
<stop offset="0.49" stop-color="#6057C2" stop-opacity="0.07"/>
<stop offset="0.73" stop-color="#6057C2" stop-opacity="0.07"/>
<stop offset="0.91" stop-color="#0E0E0F" stop-opacity="0.07"/>
<stop offset="1" stop-color="#000001" stop-opacity="0"/>
</radialGradient>
<radialGradient id="paint28_radial_248_771" cx="0" cy="0" r="1" gradientUnits="userSpaceOnUse" gradientTransform="translate(210.818 111.591) rotate(120.468) scale(1.62132 1.57826)">
<stop offset="0.165" stop-color="white"/>
<stop offset="0.28" stop-color="#8E90FA" stop-opacity="0.2"/>
<stop offset="0.49" stop-color="#6057C2" stop-opacity="0.07"/>
<stop offset="0.73" stop-color="#6057C2" stop-opacity="0.07"/>
<stop offset="0.91" stop-color="#0E0E0F" stop-opacity="0.07"/>
<stop offset="1" stop-color="#000001" stop-opacity="0"/>
</radialGradient>
<radialGradient id="paint29_radial_248_771" cx="0" cy="0" r="1" gradientUnits="userSpaceOnUse" gradientTransform="translate(116.596 130.165) rotate(120.468) scale(1.62132 1.57826)">
<stop offset="0.165" stop-color="white"/>
<stop offset="0.28" stop-color="#8E90FA" stop-opacity="0.2"/>
<stop offset="0.49" stop-color="#6057C2" stop-opacity="0.07"/>
<stop offset="0.73" stop-color="#6057C2" stop-opacity="0.07"/>
<stop offset="0.91" stop-color="#0E0E0F" stop-opacity="0.07"/>
<stop offset="1" stop-color="#000001" stop-opacity="0"/>
</radialGradient>
<radialGradient id="paint30_radial_248_771" cx="0" cy="0" r="1" gradientUnits="userSpaceOnUse" gradientTransform="translate(171.761 104.307) rotate(120.468) scale(4.39918 4.28235)">
<stop offset="0.165" stop-color="white"/>
<stop offset="0.28" stop-color="#8E90FA" stop-opacity="0.2"/>
<stop offset="0.49" stop-color="#6057C2" stop-opacity="0.07"/>
<stop offset="0.73" stop-color="#6057C2" stop-opacity="0.07"/>
<stop offset="0.91" stop-color="#0E0E0F" stop-opacity="0.07"/>
<stop offset="1" stop-color="#000001" stop-opacity="0"/>
</radialGradient>
<radialGradient id="paint31_radial_248_771" cx="0" cy="0" r="1" gradientUnits="userSpaceOnUse" gradientTransform="translate(56.9225 65.2127) rotate(105.528) scale(4.31881 4.39912)">
<stop offset="0.165" stop-color="white"/>
<stop offset="0.28" stop-color="#8E90FA" stop-opacity="0.2"/>
<stop offset="0.49" stop-color="#6057C2" stop-opacity="0.07"/>
<stop offset="0.73" stop-color="#6057C2" stop-opacity="0.07"/>
<stop offset="0.91" stop-color="#0E0E0F" stop-opacity="0.07"/>
<stop offset="1" stop-color="#000001" stop-opacity="0"/>
</radialGradient>
<radialGradient id="paint32_radial_248_771" cx="0" cy="0" r="1" gradientUnits="userSpaceOnUse" gradientTransform="translate(121.349 120.452) rotate(120.468) scale(4.39918 4.28235)">
<stop offset="0.165" stop-color="white"/>
<stop offset="0.28" stop-color="#8E90FA" stop-opacity="0.2"/>
<stop offset="0.49" stop-color="#6057C2" stop-opacity="0.07"/>
<stop offset="0.73" stop-color="#6057C2" stop-opacity="0.07"/>
<stop offset="0.91" stop-color="#0E0E0F" stop-opacity="0.07"/>
<stop offset="1" stop-color="#000001" stop-opacity="0"/>
</radialGradient>
<radialGradient id="paint33_radial_248_771" cx="0" cy="0" r="1" gradientUnits="userSpaceOnUse" gradientTransform="translate(89.5138 137.277) rotate(120.468) scale(1.08088 1.05217)">
<stop offset="0.165" stop-color="white"/>
<stop offset="0.28" stop-color="#8E90FA" stop-opacity="0.2"/>
<stop offset="0.49" stop-color="#6057C2" stop-opacity="0.07"/>
<stop offset="0.73" stop-color="#6057C2" stop-opacity="0.07"/>
<stop offset="0.91" stop-color="#0E0E0F" stop-opacity="0.07"/>
<stop offset="1" stop-color="#000001" stop-opacity="0"/>
</radialGradient>
<radialGradient id="paint34_radial_248_771" cx="0" cy="0" r="1" gradientUnits="userSpaceOnUse" gradientTransform="translate(138.332 134.199) rotate(120.468) scale(1.08088 1.05217)">
<stop offset="0.165" stop-color="white"/>
<stop offset="0.28" stop-color="#8E90FA" stop-opacity="0.2"/>
<stop offset="0.49" stop-color="#6057C2" stop-opacity="0.07"/>
<stop offset="0.73" stop-color="#6057C2" stop-opacity="0.07"/>
<stop offset="0.91" stop-color="#0E0E0F" stop-opacity="0.07"/>
<stop offset="1" stop-color="#000001" stop-opacity="0"/>
</radialGradient>
<radialGradient id="paint35_radial_248_771" cx="0" cy="0" r="1" gradientUnits="userSpaceOnUse" gradientTransform="translate(166.079 83.8918) rotate(120.468) scale(1.62132 1.57826)">
<stop offset="0.165" stop-color="white"/>
<stop offset="0.28" stop-color="#8E90FA" stop-opacity="0.2"/>
<stop offset="0.49" stop-color="#6057C2" stop-opacity="0.07"/>
<stop offset="0.73" stop-color="#6057C2" stop-opacity="0.07"/>
<stop offset="0.91" stop-color="#0E0E0F" stop-opacity="0.07"/>
<stop offset="1" stop-color="#000001" stop-opacity="0"/>
</radialGradient>
<radialGradient id="paint36_radial_248_771" cx="0" cy="0" r="1" gradientUnits="userSpaceOnUse" gradientTransform="translate(142.443 192.005) rotate(120.46) scale(4.40165 4.28257)">
<stop offset="0.165" stop-color="white"/>
<stop offset="0.28" stop-color="#8E90FA" stop-opacity="0.2"/>
<stop offset="0.49" stop-color="#6057C2" stop-opacity="0.07"/>
<stop offset="0.73" stop-color="#6057C2" stop-opacity="0.07"/>
<stop offset="0.91" stop-color="#0E0E0F" stop-opacity="0.07"/>
<stop offset="1" stop-color="#000001" stop-opacity="0"/>
</radialGradient>
<radialGradient id="paint37_radial_248_771" cx="0" cy="0" r="1" gradientUnits="userSpaceOnUse" gradientTransform="translate(47.0289 189.056) rotate(105.528) scale(4.31881 4.39912)">
<stop offset="0.165" stop-color="white"/>
<stop offset="0.28" stop-color="#8E90FA" stop-opacity="0.2"/>
<stop offset="0.49" stop-color="#6057C2" stop-opacity="0.07"/>
<stop offset="0.73" stop-color="#6057C2" stop-opacity="0.07"/>
<stop offset="0.91" stop-color="#0E0E0F" stop-opacity="0.07"/>
<stop offset="1" stop-color="#000001" stop-opacity="0"/>
</radialGradient>
<radialGradient id="paint38_radial_248_771" cx="0" cy="0" r="1" gradientUnits="userSpaceOnUse" gradientTransform="translate(130.235 169.362) rotate(120.468) scale(4.39918 4.28235)">
<stop offset="0.165" stop-color="white"/>
<stop offset="0.28" stop-color="#8E90FA" stop-opacity="0.2"/>
<stop offset="0.49" stop-color="#6057C2" stop-opacity="0.07"/>
<stop offset="0.73" stop-color="#6057C2" stop-opacity="0.07"/>
<stop offset="0.91" stop-color="#0E0E0F" stop-opacity="0.07"/>
<stop offset="1" stop-color="#000001" stop-opacity="0"/>
</radialGradient>
<radialGradient id="paint39_radial_248_771" cx="0" cy="0" r="1" gradientUnits="userSpaceOnUse" gradientTransform="translate(111.454 244.315) rotate(120.468) scale(4.39918 4.28235)">
<stop offset="0.165" stop-color="white"/>
<stop offset="0.28" stop-color="#8E90FA" stop-opacity="0.2"/>
<stop offset="0.49" stop-color="#6057C2" stop-opacity="0.07"/>
<stop offset="0.73" stop-color="#6057C2" stop-opacity="0.07"/>
<stop offset="0.91" stop-color="#0E0E0F" stop-opacity="0.07"/>
<stop offset="1" stop-color="#000001" stop-opacity="0"/>
</radialGradient>
<radialGradient id="paint40_radial_248_771" cx="0" cy="0" r="1" gradientUnits="userSpaceOnUse" gradientTransform="translate(79.6203 261.137) rotate(120.468) scale(1.08088 1.05217)">
<stop offset="0.165" stop-color="white"/>
<stop offset="0.28" stop-color="#8E90FA" stop-opacity="0.2"/>
<stop offset="0.49" stop-color="#6057C2" stop-opacity="0.07"/>
<stop offset="0.73" stop-color="#6057C2" stop-opacity="0.07"/>
<stop offset="0.91" stop-color="#0E0E0F" stop-opacity="0.07"/>
<stop offset="1" stop-color="#000001" stop-opacity="0"/>
</radialGradient>
<radialGradient id="paint41_radial_248_771" cx="0" cy="0" r="1" gradientUnits="userSpaceOnUse" gradientTransform="translate(128.438 258.054) rotate(120.468) scale(1.08088 1.05217)">
<stop offset="0.165" stop-color="white"/>
<stop offset="0.28" stop-color="#8E90FA" stop-opacity="0.2"/>
<stop offset="0.49" stop-color="#6057C2" stop-opacity="0.07"/>
<stop offset="0.73" stop-color="#6057C2" stop-opacity="0.07"/>
<stop offset="0.91" stop-color="#0E0E0F" stop-opacity="0.07"/>
<stop offset="1" stop-color="#000001" stop-opacity="0"/>
</radialGradient>
<radialGradient id="paint42_radial_248_771" cx="0" cy="0" r="1" gradientUnits="userSpaceOnUse" gradientTransform="translate(61.9563 226.31) rotate(120.468) scale(1.62132 1.57826)">
<stop offset="0.165" stop-color="white"/>
<stop offset="0.28" stop-color="#8E90FA" stop-opacity="0.2"/>
<stop offset="0.49" stop-color="#6057C2" stop-opacity="0.07"/>
<stop offset="0.73" stop-color="#6057C2" stop-opacity="0.07"/>
<stop offset="0.91" stop-color="#0E0E0F" stop-opacity="0.07"/>
<stop offset="1" stop-color="#000001" stop-opacity="0"/>
</radialGradient>
<radialGradient id="paint43_radial_248_771" cx="0" cy="0" r="1" gradientUnits="userSpaceOnUse" gradientTransform="translate(259.648 195.681) rotate(120.46) scale(4.40165 4.28257)">
<stop offset="0.165" stop-color="white"/>
<stop offset="0.28" stop-color="#8E90FA" stop-opacity="0.2"/>
<stop offset="0.49" stop-color="#6057C2" stop-opacity="0.07"/>
<stop offset="0.73" stop-color="#6057C2" stop-opacity="0.07"/>
<stop offset="0.91" stop-color="#0E0E0F" stop-opacity="0.07"/>
<stop offset="1" stop-color="#000001" stop-opacity="0"/>
</radialGradient>
<radialGradient id="paint44_radial_248_771" cx="0" cy="0" r="1" gradientUnits="userSpaceOnUse" gradientTransform="translate(279.065 231.823) rotate(120.468) scale(4.39918 4.28235)">
<stop offset="0.165" stop-color="white"/>
<stop offset="0.28" stop-color="#8E90FA" stop-opacity="0.2"/>
<stop offset="0.49" stop-color="#6057C2" stop-opacity="0.07"/>
<stop offset="0.73" stop-color="#6057C2" stop-opacity="0.07"/>
<stop offset="0.91" stop-color="#0E0E0F" stop-opacity="0.07"/>
<stop offset="1" stop-color="#000001" stop-opacity="0"/>
</radialGradient>
<radialGradient id="paint45_radial_248_771" cx="0" cy="0" r="1" gradientUnits="userSpaceOnUse" gradientTransform="translate(247.436 173.034) rotate(120.468) scale(4.39918 4.28235)">
<stop offset="0.165" stop-color="white"/>
<stop offset="0.28" stop-color="#8E90FA" stop-opacity="0.2"/>
<stop offset="0.49" stop-color="#6057C2" stop-opacity="0.07"/>
<stop offset="0.73" stop-color="#6057C2" stop-opacity="0.07"/>
<stop offset="0.91" stop-color="#0E0E0F" stop-opacity="0.07"/>
<stop offset="1" stop-color="#000001" stop-opacity="0"/>
</radialGradient>
<radialGradient id="paint46_radial_248_771" cx="0" cy="0" r="1" gradientUnits="userSpaceOnUse" gradientTransform="translate(198.069 178.865) rotate(97.6834) scale(4.25303 4.4295)">
<stop offset="0.165" stop-color="white"/>
<stop offset="0.28" stop-color="#8E90FA" stop-opacity="0.2"/>
<stop offset="0.49" stop-color="#6057C2" stop-opacity="0.07"/>
<stop offset="0.73" stop-color="#6057C2" stop-opacity="0.07"/>
<stop offset="0.91" stop-color="#0E0E0F" stop-opacity="0.07"/>
<stop offset="1" stop-color="#000001" stop-opacity="0"/>
</radialGradient>
<radialGradient id="paint47_radial_248_771" cx="0" cy="0" r="1" gradientUnits="userSpaceOnUse" gradientTransform="translate(196.824 264.801) rotate(120.468) scale(1.08088 1.05217)">
<stop offset="0.165" stop-color="white"/>
<stop offset="0.28" stop-color="#8E90FA" stop-opacity="0.2"/>
<stop offset="0.49" stop-color="#6057C2" stop-opacity="0.07"/>
<stop offset="0.73" stop-color="#6057C2" stop-opacity="0.07"/>
<stop offset="0.91" stop-color="#0E0E0F" stop-opacity="0.07"/>
<stop offset="1" stop-color="#000001" stop-opacity="0"/>
</radialGradient>
<radialGradient id="paint48_radial_248_771" cx="0" cy="0" r="1" gradientUnits="userSpaceOnUse" gradientTransform="translate(273.377 211.4) rotate(120.468) scale(1.62132 1.57826)">
<stop offset="0.165" stop-color="white"/>
<stop offset="0.28" stop-color="#8E90FA" stop-opacity="0.2"/>
<stop offset="0.49" stop-color="#6057C2" stop-opacity="0.07"/>
<stop offset="0.73" stop-color="#6057C2" stop-opacity="0.07"/>
<stop offset="0.91" stop-color="#0E0E0F" stop-opacity="0.07"/>
<stop offset="1" stop-color="#000001" stop-opacity="0"/>
</radialGradient>
<radialGradient id="paint49_radial_248_771" cx="0" cy="0" r="1" gradientUnits="userSpaceOnUse" gradientTransform="translate(179.16 229.978) rotate(120.468) scale(1.62132 1.57826)">
<stop offset="0.165" stop-color="white"/>
<stop offset="0.28" stop-color="#8E90FA" stop-opacity="0.2"/>
<stop offset="0.49" stop-color="#6057C2" stop-opacity="0.07"/>
<stop offset="0.73" stop-color="#6057C2" stop-opacity="0.07"/>
<stop offset="0.91" stop-color="#0E0E0F" stop-opacity="0.07"/>
<stop offset="1" stop-color="#000001" stop-opacity="0"/>
</radialGradient>
<radialGradient id="paint50_radial_248_771" cx="0" cy="0" r="1" gradientUnits="userSpaceOnUse" gradientTransform="translate(293.324 152.792) rotate(120.468) scale(4.39918 4.28235)">
<stop offset="0.165" stop-color="white"/>
<stop offset="0.28" stop-color="#8E90FA" stop-opacity="0.2"/>
<stop offset="0.49" stop-color="#6057C2" stop-opacity="0.07"/>
<stop offset="0.73" stop-color="#6057C2" stop-opacity="0.07"/>
<stop offset="0.91" stop-color="#0E0E0F" stop-opacity="0.07"/>
<stop offset="1" stop-color="#000001" stop-opacity="0"/>
</radialGradient>
<radialGradient id="paint51_radial_248_771" cx="0" cy="0" r="1" gradientUnits="userSpaceOnUse" gradientTransform="translate(261.696 93.9986) rotate(120.468) scale(4.39918 4.28235)">
<stop offset="0.165" stop-color="white"/>
<stop offset="0.28" stop-color="#8E90FA" stop-opacity="0.2"/>
<stop offset="0.49" stop-color="#6057C2" stop-opacity="0.07"/>
<stop offset="0.73" stop-color="#6057C2" stop-opacity="0.07"/>
<stop offset="0.91" stop-color="#0E0E0F" stop-opacity="0.07"/>
<stop offset="1" stop-color="#000001" stop-opacity="0"/>
</radialGradient>
<radialGradient id="paint52_radial_248_771" cx="0" cy="0" r="1" gradientUnits="userSpaceOnUse" gradientTransform="translate(212.322 99.8337) rotate(97.6834) scale(4.25303 4.4295)">
<stop offset="0.165" stop-color="white"/>
<stop offset="0.28" stop-color="#8E90FA" stop-opacity="0.2"/>
<stop offset="0.49" stop-color="#6057C2" stop-opacity="0.07"/>
<stop offset="0.73" stop-color="#6057C2" stop-opacity="0.07"/>
<stop offset="0.91" stop-color="#0E0E0F" stop-opacity="0.07"/>
<stop offset="1" stop-color="#000001" stop-opacity="0"/>
</radialGradient>
<radialGradient id="paint53_radial_248_771" cx="0" cy="0" r="1" gradientUnits="userSpaceOnUse" gradientTransform="translate(211.072 185.754) rotate(120.468) scale(1.08088 1.05217)">
<stop offset="0.165" stop-color="white"/>
<stop offset="0.28" stop-color="#8E90FA" stop-opacity="0.2"/>
<stop offset="0.49" stop-color="#6057C2" stop-opacity="0.07"/>
<stop offset="0.73" stop-color="#6057C2" stop-opacity="0.07"/>
<stop offset="0.91" stop-color="#0E0E0F" stop-opacity="0.07"/>
<stop offset="1" stop-color="#000001" stop-opacity="0"/>
</radialGradient>
<radialGradient id="paint54_radial_248_771" cx="0" cy="0" r="1" gradientUnits="userSpaceOnUse" gradientTransform="translate(287.636 132.372) rotate(120.468) scale(1.62132 1.57826)">
<stop offset="0.165" stop-color="white"/>
<stop offset="0.28" stop-color="#8E90FA" stop-opacity="0.2"/>
<stop offset="0.49" stop-color="#6057C2" stop-opacity="0.07"/>
<stop offset="0.73" stop-color="#6057C2" stop-opacity="0.07"/>
<stop offset="0.91" stop-color="#0E0E0F" stop-opacity="0.07"/>
<stop offset="1" stop-color="#000001" stop-opacity="0"/>
</radialGradient>
<radialGradient id="paint55_radial_248_771" cx="0" cy="0" r="1" gradientUnits="userSpaceOnUse" gradientTransform="translate(242.227 59.6145) rotate(120.46) scale(4.40165 4.28257)">
<stop offset="0.165" stop-color="white"/>
<stop offset="0.28" stop-color="#8E90FA" stop-opacity="0.2"/>
<stop offset="0.49" stop-color="#6057C2" stop-opacity="0.07"/>
<stop offset="0.73" stop-color="#6057C2" stop-opacity="0.07"/>
<stop offset="0.91" stop-color="#0E0E0F" stop-opacity="0.07"/>
<stop offset="1" stop-color="#000001" stop-opacity="0"/>
</radialGradient>
<radialGradient id="paint56_radial_248_771" cx="0" cy="0" r="1" gradientUnits="userSpaceOnUse" gradientTransform="translate(270.14 100.924) rotate(120.468) scale(4.39918 4.28235)">
<stop offset="0.165" stop-color="white"/>
<stop offset="0.28" stop-color="#8E90FA" stop-opacity="0.2"/>
<stop offset="0.49" stop-color="#6057C2" stop-opacity="0.07"/>
<stop offset="0.73" stop-color="#6057C2" stop-opacity="0.07"/>
<stop offset="0.91" stop-color="#0E0E0F" stop-opacity="0.07"/>
<stop offset="1" stop-color="#000001" stop-opacity="0"/>
</radialGradient>
<radialGradient id="paint57_radial_248_771" cx="0" cy="0" r="1" gradientUnits="userSpaceOnUse" gradientTransform="translate(230.018 36.9674) rotate(120.468) scale(4.39918 4.28235)">
<stop offset="0.165" stop-color="white"/>
<stop offset="0.28" stop-color="#8E90FA" stop-opacity="0.2"/>
<stop offset="0.49" stop-color="#6057C2" stop-opacity="0.07"/>
<stop offset="0.73" stop-color="#6057C2" stop-opacity="0.07"/>
<stop offset="0.91" stop-color="#0E0E0F" stop-opacity="0.07"/>
<stop offset="1" stop-color="#000001" stop-opacity="0"/>
</radialGradient>
<radialGradient id="paint58_radial_248_771" cx="0" cy="0" r="1" gradientUnits="userSpaceOnUse" gradientTransform="translate(180.645 42.7985) rotate(97.6834) scale(4.25303 4.4295)">
<stop offset="0.165" stop-color="white"/>
<stop offset="0.28" stop-color="#8E90FA" stop-opacity="0.2"/>
<stop offset="0.49" stop-color="#6057C2" stop-opacity="0.07"/>
<stop offset="0.73" stop-color="#6057C2" stop-opacity="0.07"/>
<stop offset="0.91" stop-color="#0E0E0F" stop-opacity="0.07"/>
<stop offset="1" stop-color="#000001" stop-opacity="0"/>
</radialGradient>
<radialGradient id="paint59_radial_248_771" cx="0" cy="0" r="1" gradientUnits="userSpaceOnUse" gradientTransform="translate(179.399 128.722) rotate(120.468) scale(1.08088 1.05217)">
<stop offset="0.165" stop-color="white"/>
<stop offset="0.28" stop-color="#8E90FA" stop-opacity="0.2"/>
<stop offset="0.49" stop-color="#6057C2" stop-opacity="0.07"/>
<stop offset="0.73" stop-color="#6057C2" stop-opacity="0.07"/>
<stop offset="0.91" stop-color="#0E0E0F" stop-opacity="0.07"/>
<stop offset="1" stop-color="#000001" stop-opacity="0"/>
</radialGradient>
<radialGradient id="paint60_radial_248_771" cx="0" cy="0" r="1" gradientUnits="userSpaceOnUse" gradientTransform="translate(255.958 75.3371) rotate(120.468) scale(1.62132 1.57826)">
<stop offset="0.165" stop-color="white"/>
<stop offset="0.28" stop-color="#8E90FA" stop-opacity="0.2"/>
<stop offset="0.49" stop-color="#6057C2" stop-opacity="0.07"/>
<stop offset="0.73" stop-color="#6057C2" stop-opacity="0.07"/>
<stop offset="0.91" stop-color="#0E0E0F" stop-opacity="0.07"/>
<stop offset="1" stop-color="#000001" stop-opacity="0"/>
</radialGradient>
</defs>
</svg>
