<svg width="105" height="62" viewBox="0 0 105 62" fill="none" xmlns="http://www.w3.org/2000/svg">
<path d="M30.259 14.9121C29.511 14.784 28.821 14.4271 28.2842 13.8906L24.6593 9.78589C24.4049 9.529 24.0965 9.33192 23.7565 9.20894C23.4165 9.08596 23.0534 9.04017 22.6935 9.07486L18.2898 9.74002C18.1647 9.7522 18.044 9.79242 17.9366 9.85772C17.8292 9.92303 17.7379 10.0117 17.6696 10.1172L14.8289 14.8331C14.7547 14.9619 14.7207 15.1099 14.7313 15.2582C14.7419 15.4065 14.7966 15.5482 14.8884 15.6651L15.9904 17.4137L11.5078 15.6591C11.2815 15.5611 11.0268 15.5512 10.7935 15.6313C10.5603 15.7114 10.3654 15.8757 10.2471 16.0921L7.39982 20.8059C7.35191 20.907 7.31724 21.0138 7.29666 21.1238L6.55883 24.1425C6.49554 24.4726 6.53541 24.8142 6.67301 25.1208C6.81062 25.4274 7.03929 25.6843 7.32796 25.8564L12.7011 28.8151C13.1428 29.0969 13.4975 29.4959 13.7256 29.9675L13.2905 30.0899C13.0716 30.1454 12.8801 30.2784 12.7518 30.4642L9.82964 35.183C9.75187 35.326 9.71993 35.4895 9.73817 35.6513C9.7564 35.813 9.82392 35.9653 9.93158 36.0874L13.4151 40.6954C13.6488 40.9739 13.9398 41.1988 14.2683 41.3547C14.5968 41.5105 14.955 41.5937 15.3186 41.5985L19.6469 41.4141C20.4032 41.427 21.134 41.6898 21.7253 42.1616C22.5991 42.921 23.521 43.6448 24.4713 44.3265C24.7559 44.5467 24.9855 44.8299 25.1421 45.1539C25.2987 45.4778 25.378 45.8337 25.3738 46.1935L25.1615 49.1045C25.1532 49.4519 25.2417 49.7949 25.4172 50.0949C25.5927 50.3949 25.8482 50.6402 26.1551 50.8033L32.2543 53.6681C32.5131 53.7914 32.8082 53.8147 33.0832 53.7336C33.3581 53.6526 33.5934 53.4729 33.7439 53.2289L35.6762 50.0267C35.944 49.9255 36.2357 49.9056 36.5148 49.9693C37.4801 50.2105 38.458 50.3982 39.444 50.5317C40.1908 50.6659 40.8789 51.0246 41.4167 51.5598L45.035 55.6624C45.2891 55.9197 45.5974 56.117 45.9375 56.24C46.2776 56.363 46.6408 56.4086 47.0007 56.3734L51.3978 55.7061C51.5184 55.6955 51.6352 55.6584 51.7398 55.5974C51.8444 55.5364 51.9342 55.453 52.0028 55.3533L54.8675 50.6085C54.9344 50.478 54.9635 50.3313 54.9514 50.185C54.9393 50.0388 54.8866 49.8989 54.7992 49.781L53.6973 48.0324L58.1843 49.7958C58.4026 49.887 58.646 49.8988 58.872 49.829C59.0981 49.7591 59.2924 49.6121 59.4212 49.4136L62.3916 44.6813C62.4617 44.5808 62.513 44.4685 62.5431 44.3497L63.281 41.331C63.3424 41.002 63.3024 40.6622 63.1662 40.3565C63.03 40.0508 62.8041 39.7937 62.5185 39.6193L57.1387 36.6584C56.6956 36.3783 56.3404 35.9789 56.1142 35.506L56.5493 35.3836C56.66 35.3588 56.7648 35.3123 56.8577 35.247C56.9505 35.1816 57.0295 35.0986 57.0902 35.0027L59.9156 30.3111L59.935 30.2515C60.0055 30.1108 60.0318 29.9522 60.0105 29.7963C59.9892 29.6404 59.9213 29.4947 59.8157 29.3781L56.3342 24.7635C56.0988 24.4869 55.807 24.2638 55.4784 24.1092C55.1497 23.9546 54.7918 23.872 54.4287 23.867L50.054 24.0364C49.2971 24.0242 48.566 23.7587 47.9778 23.2822C47.104 22.5228 46.182 21.799 45.2296 21.1239C44.9478 20.9012 44.7201 20.6175 44.5638 20.2941C44.4075 19.9707 44.3265 19.6161 44.3271 19.2569L44.5416 16.3393C44.549 15.9916 44.4591 15.6486 44.2819 15.3492C44.1048 15.0498 43.8475 14.8059 43.5392 14.6449L37.4421 11.7735C37.3009 11.7073 37.148 11.6698 36.9922 11.6632C36.8364 11.6566 36.6808 11.681 36.5345 11.7351C36.3883 11.7891 36.2542 11.8717 36.1401 11.978C36.026 12.0843 35.9341 12.2122 35.8699 12.3543L34.8183 14.6928C34.6723 14.9888 34.4305 15.2267 34.1321 15.3678C33.8338 15.509 33.4964 15.545 33.175 15.4702C32.2141 15.2302 31.2406 15.0439 30.259 14.9121ZM43.1385 39.4156C37.9474 40.2059 30.6809 36.7867 26.9058 31.7912C25.6821 30.309 24.9148 28.5035 24.697 26.5938C25.3098 26.3365 25.9531 26.1589 26.611 26.0653C31.7956 25.2728 39.062 28.692 42.8372 33.6875C44.0586 35.1758 44.8241 36.9852 45.0416 38.8982C44.4325 39.1527 43.7927 39.3267 43.1385 39.4156Z" fill="url(#paint0_linear_442_1091)"/>
<path opacity="0.2" d="M30.259 14.9121C29.511 14.784 28.821 14.4271 28.2842 13.8906L24.6593 9.78589C24.4049 9.529 24.0965 9.33192 23.7565 9.20894C23.4165 9.08596 23.0534 9.04017 22.6935 9.07486L18.2898 9.74002C18.1647 9.7522 18.044 9.79242 17.9366 9.85772C17.8292 9.92303 17.7379 10.0117 17.6696 10.1172L14.8289 14.8331C14.7547 14.9619 14.7207 15.1099 14.7313 15.2582C14.7419 15.4065 14.7966 15.5482 14.8884 15.6651L15.9904 17.4137L11.5078 15.6591C11.2815 15.5611 11.0268 15.5512 10.7935 15.6313C10.5603 15.7114 10.3654 15.8757 10.2471 16.0921L7.39982 20.8059C7.35191 20.907 7.31724 21.0138 7.29666 21.1238L6.55883 24.1425C6.49554 24.4726 6.53541 24.8142 6.67301 25.1208C6.81062 25.4274 7.03929 25.6843 7.32796 25.8564L12.7011 28.8151C13.1428 29.0969 13.4975 29.4959 13.7256 29.9675L13.2905 30.0899C13.0716 30.1454 12.8801 30.2784 12.7518 30.4642L9.82964 35.183C9.75187 35.326 9.71993 35.4895 9.73817 35.6513C9.7564 35.813 9.82392 35.9653 9.93158 36.0874L13.4151 40.6954C13.6488 40.9739 13.9398 41.1988 14.2683 41.3547C14.5968 41.5105 14.955 41.5937 15.3186 41.5985L19.6469 41.4141C20.4032 41.427 21.134 41.6898 21.7253 42.1616C22.5991 42.921 23.521 43.6448 24.4713 44.3265C24.7559 44.5467 24.9855 44.8299 25.1421 45.1539C25.2987 45.4778 25.378 45.8337 25.3738 46.1935L25.1615 49.1045C25.1532 49.4519 25.2417 49.7949 25.4172 50.0949C25.5927 50.3949 25.8482 50.6402 26.1551 50.8033L32.2543 53.6681C32.5131 53.7914 32.8082 53.8147 33.0832 53.7336C33.3581 53.6526 33.5934 53.4729 33.7439 53.2289L35.6762 50.0267C35.944 49.9255 36.2357 49.9056 36.5148 49.9693C37.4801 50.2105 38.458 50.3982 39.444 50.5317C40.1908 50.6659 40.8789 51.0246 41.4167 51.5598L45.035 55.6624C45.2891 55.9197 45.5974 56.117 45.9375 56.24C46.2776 56.363 46.6408 56.4086 47.0007 56.3734L51.3978 55.7061C51.5184 55.6955 51.6352 55.6584 51.7398 55.5974C51.8444 55.5364 51.9342 55.453 52.0028 55.3533L54.8675 50.6085C54.9344 50.478 54.9635 50.3313 54.9514 50.185C54.9393 50.0388 54.8866 49.8989 54.7992 49.781L53.6973 48.0324L58.1843 49.7958C58.4026 49.887 58.646 49.8988 58.872 49.829C59.0981 49.7591 59.2924 49.6121 59.4212 49.4136L62.3916 44.6813C62.4617 44.5808 62.513 44.4685 62.5431 44.3497L63.281 41.331C63.3424 41.002 63.3024 40.6622 63.1662 40.3565C63.03 40.0508 62.8041 39.7937 62.5185 39.6193L57.1387 36.6584C56.6956 36.3783 56.3404 35.9789 56.1142 35.506L56.5493 35.3836C56.66 35.3588 56.7648 35.3123 56.8577 35.247C56.9505 35.1816 57.0295 35.0986 57.0902 35.0027L59.9156 30.3111L59.935 30.2515C60.0055 30.1108 60.0318 29.9522 60.0105 29.7963C59.9892 29.6404 59.9213 29.4947 59.8157 29.3781L56.3342 24.7635C56.0988 24.4869 55.807 24.2638 55.4784 24.1092C55.1497 23.9546 54.7918 23.872 54.4287 23.867L50.054 24.0364C49.2971 24.0242 48.566 23.7587 47.9778 23.2822C47.104 22.5228 46.182 21.799 45.2296 21.1239C44.9478 20.9012 44.7201 20.6175 44.5638 20.2941C44.4075 19.9707 44.3265 19.6161 44.3271 19.2569L44.5416 16.3393C44.549 15.9916 44.4591 15.6486 44.2819 15.3492C44.1048 15.0498 43.8475 14.8059 43.5392 14.6449L37.4421 11.7735C37.3009 11.7073 37.148 11.6698 36.9922 11.6632C36.8364 11.6566 36.6808 11.681 36.5345 11.7351C36.3883 11.7891 36.2542 11.8717 36.1401 11.978C36.026 12.0843 35.9341 12.2122 35.8699 12.3543L34.8183 14.6928C34.6723 14.9888 34.4305 15.2267 34.1321 15.3678C33.8338 15.509 33.4964 15.545 33.175 15.4702C32.2141 15.2302 31.2406 15.0439 30.259 14.9121ZM43.1385 39.4156C37.9474 40.2059 30.6809 36.7867 26.9058 31.7912C25.6821 30.309 24.9148 28.5035 24.697 26.5938C25.3098 26.3365 25.9531 26.1589 26.611 26.0653C31.7956 25.2728 39.062 28.692 42.8372 33.6875C44.0586 35.1758 44.8241 36.9852 45.0416 38.8982C44.4325 39.1527 43.7927 39.3267 43.1385 39.4156Z" fill="white"/>
<path opacity="0.1" d="M52.6996 44.114C52.5664 44.1915 52.4501 44.2949 52.3574 44.4181C52.2647 44.5412 52.1976 44.6817 52.1601 44.8312C52.1225 44.9807 52.1152 45.1361 52.1386 45.2885C52.1619 45.4408 52.2156 45.587 52.2962 45.7183L53.7397 48.039L58.2268 49.8024C58.4451 49.8937 58.6885 49.9054 58.9145 49.8356C59.1406 49.7657 59.3349 49.6188 59.4637 49.4203L62.2848 44.7419C62.1521 44.9277 61.9601 45.0627 61.7403 45.1245C61.5206 45.1863 61.2863 45.1713 61.0762 45.082L55.5707 42.9149C55.2396 42.8178 54.8892 42.8063 54.5524 42.8814C54.2156 42.9565 53.9034 43.1158 53.6449 43.3444C53.3511 43.626 53.035 43.8834 52.6996 44.114ZM59.8938 30.2676C59.773 30.4583 59.5818 30.5936 59.3617 30.644L55.9315 31.6031C55.7869 31.6426 55.6524 31.7127 55.5372 31.8088C55.422 31.9049 55.3289 32.0247 55.2642 32.16C55.1995 32.2953 55.1646 32.4429 55.162 32.5929C55.1594 32.7429 55.1892 32.8916 55.2492 33.0291C55.4927 33.6396 55.6877 34.2684 55.8325 34.9096C55.8842 35.1169 55.962 35.3168 56.0641 35.5045L56.508 35.3777C56.7272 35.3202 56.9175 35.1838 57.0423 34.9946L59.8938 30.2676Z" fill="black"/>
<path opacity="0.1" d="M45.6953 28.9408C48.9519 33.2555 48.5507 37.3353 45.0437 38.8698C44.8277 36.9598 44.0637 35.1532 42.8437 33.6678C39.0707 28.6657 31.8109 25.2486 26.6131 26.0369C25.9586 26.1288 25.3193 26.308 24.7124 26.5696C24.5277 23.8666 26.1916 21.8074 29.4647 21.3098C34.6625 20.5216 41.9223 23.9387 45.6953 28.9408Z" fill="black"/>
<path d="M25.2506 45.3555C25.3626 45.6195 25.4174 45.9043 25.4115 46.1911L25.197 49.1087C25.1832 49.5522 25.3315 49.9856 25.6142 50.3276L28.4658 45.6006C28.1875 45.2561 28.0398 44.8244 28.0486 44.3817L28.2631 41.4641C28.2746 41.1776 28.225 40.8919 28.1176 40.6261L25.2506 45.3555ZM9.82991 35.1831C9.75061 35.3236 9.71815 35.4858 9.73726 35.646C9.75636 35.8063 9.82603 35.9562 9.93615 36.0742L13.4154 40.6955C13.7345 41.068 14.1553 41.3394 14.6263 41.4764L17.4779 36.7494C17.0178 36.6126 16.6086 36.3422 16.3023 35.9725L12.8253 31.3667C12.7168 31.2451 12.6487 31.0928 12.6304 30.9308C12.6121 30.7688 12.6446 30.6051 12.7234 30.4624L9.82991 35.1831ZM41.49 51.6055L45.066 55.6578C45.3755 55.9737 45.7683 56.1951 46.1987 56.2962L49.0394 51.5803C48.612 51.4839 48.2199 51.2705 47.9069 50.9639L44.3747 46.8893L41.49 51.6055ZM7.36895 20.7665C7.31053 20.8657 7.27458 20.9765 7.26364 21.0911L6.52134 24.1011C6.45907 24.4311 6.4994 24.7723 6.63691 25.0787C6.77442 25.3851 7.00251 25.642 7.29047 25.8149L12.6636 28.7736C12.9435 28.9453 13.1864 29.1709 13.3781 29.4374L16.2318 24.7038C16.0392 24.4391 15.7956 24.2156 15.5152 24.0466L10.1336 21.1364C9.84425 20.965 9.61497 20.7083 9.47727 20.4015C9.33956 20.0946 9.30018 19.7527 9.36451 19.4226L10.109 16.406C10.1325 16.2992 10.1663 16.1949 10.21 16.0947L7.36895 20.7665ZM14.7959 14.8004C14.7252 14.9313 14.693 15.0796 14.7032 15.228C14.7133 15.3765 14.7654 15.519 14.8532 15.639L15.964 17.3832L16.9737 17.7913C17.3071 17.8917 17.6607 17.9038 18.0002 17.8266C18.3397 17.7494 18.6533 17.5854 18.9104 17.3508C19.2145 17.0707 19.5418 16.8168 19.8888 16.5919C19.9706 16.5291 20.0488 16.4615 20.1228 16.3897L20.2602 16.2146C20.3403 16.0929 20.3968 15.9572 20.4265 15.8146C20.4682 15.6386 20.4622 15.4547 20.4091 15.2818C20.3915 15.1748 20.3492 15.0733 20.2856 14.9855L17.7202 10.9097C17.6629 10.8153 17.617 10.7143 17.5835 10.6091C17.5506 10.4982 17.5459 10.3809 17.5697 10.2678C17.5831 10.204 17.6033 10.1418 17.6299 10.0823L14.7959 14.8004Z" fill="url(#paint1_linear_442_1091)"/>
<path opacity="0.7" d="M25.2506 45.3555C25.3626 45.6195 25.4174 45.9043 25.4115 46.1911L25.197 49.1087C25.1832 49.5522 25.3315 49.9856 25.6142 50.3276L28.4658 45.6006C28.1875 45.2561 28.0398 44.8244 28.0486 44.3817L28.2631 41.4641C28.2746 41.1776 28.225 40.8919 28.1176 40.6261L25.2506 45.3555ZM9.82991 35.1831C9.75061 35.3236 9.71815 35.4858 9.73726 35.646C9.75636 35.8063 9.82603 35.9562 9.93615 36.0742L13.4154 40.6955C13.7345 41.068 14.1553 41.3394 14.6263 41.4764L17.4779 36.7494C17.0178 36.6126 16.6086 36.3422 16.3023 35.9725L12.8253 31.3667C12.7168 31.2451 12.6487 31.0928 12.6304 30.9308C12.6121 30.7688 12.6446 30.6051 12.7234 30.4624L9.82991 35.1831ZM41.49 51.6055L45.066 55.6578C45.3755 55.9737 45.7683 56.1951 46.1987 56.2962L49.0394 51.5803C48.612 51.4839 48.2199 51.2705 47.9069 50.9639L44.3747 46.8893L41.49 51.6055ZM7.36895 20.7665C7.31053 20.8657 7.27458 20.9765 7.26364 21.0911L6.52134 24.1011C6.45907 24.4311 6.4994 24.7723 6.63691 25.0787C6.77442 25.3851 7.00251 25.642 7.29047 25.8149L12.6636 28.7736C12.9435 28.9453 13.1864 29.1709 13.3781 29.4374L16.2318 24.7038C16.0392 24.4391 15.7956 24.2156 15.5152 24.0466L10.1336 21.1364C9.84425 20.965 9.61497 20.7083 9.47727 20.4015C9.33956 20.0946 9.30018 19.7527 9.36451 19.4226L10.109 16.406C10.1325 16.2992 10.1663 16.1949 10.21 16.0947L7.36895 20.7665ZM14.7959 14.8004C14.7252 14.9313 14.693 15.0796 14.7032 15.228C14.7133 15.3765 14.7654 15.519 14.8532 15.639L15.964 17.3832L16.9737 17.7913C17.3071 17.8917 17.6607 17.9038 18.0002 17.8266C18.3397 17.7494 18.6533 17.5854 18.9104 17.3508C19.2145 17.0707 19.5418 16.8168 19.8888 16.5919C19.9706 16.5291 20.0488 16.4615 20.1228 16.3897L20.2602 16.2146C20.3403 16.0929 20.3968 15.9572 20.4265 15.8146C20.4682 15.6386 20.4622 15.4547 20.4091 15.2818C20.3915 15.1748 20.3492 15.0733 20.2856 14.9855L17.7202 10.9097C17.6629 10.8153 17.617 10.7143 17.5835 10.6091C17.5506 10.4982 17.5459 10.3809 17.5697 10.2678C17.5831 10.204 17.6033 10.1418 17.6299 10.0823L14.7959 14.8004Z" fill="white"/>
<path d="M22.685 9.10134L18.2812 9.76647C18.1382 9.75401 17.9949 9.78604 17.8708 9.85817C17.7467 9.93029 17.6479 10.039 17.588 10.1694C17.528 10.2998 17.5098 10.4456 17.5359 10.5867C17.562 10.7279 17.631 10.8575 17.7336 10.9579L20.2989 15.0337C20.3793 15.165 20.4328 15.3109 20.4563 15.463C20.4799 15.6151 20.473 15.7704 20.4361 15.9198C20.3992 16.0693 20.333 16.2099 20.2413 16.3335C20.1497 16.4572 20.0344 16.5614 19.9021 16.6402C19.5586 16.8698 19.2316 17.1234 18.9238 17.399C18.6685 17.6338 18.3562 17.7976 18.0179 17.8741C17.6797 17.9507 17.3273 17.9372 16.9958 17.8351L11.4947 15.6768C11.3569 15.6173 11.2075 15.589 11.0574 15.594C10.9072 15.599 10.7601 15.6372 10.6265 15.7059C10.4929 15.7745 10.3762 15.8719 10.2848 15.9911C10.1933 16.1103 10.1294 16.2482 10.0976 16.395L9.35977 19.4137C9.2975 19.7437 9.33784 20.0849 9.47535 20.3913C9.61286 20.6977 9.84094 20.9547 10.1289 21.1275L15.5021 24.0863C16.1253 24.4928 16.5753 25.1163 16.7648 25.8358C16.9187 26.4731 17.1112 27.1004 17.3414 27.7142C17.404 27.8507 17.4358 27.9994 17.4346 28.1496C17.4333 28.2998 17.399 28.4478 17.3341 28.5833C17.2692 28.7188 17.1752 28.8383 17.059 28.9334C16.9427 29.0284 16.8069 29.0968 16.6613 29.1335L13.2399 30.0881C13.1035 30.1115 12.9761 30.1718 12.8714 30.2623C12.7668 30.3529 12.6889 30.4704 12.6462 30.602C12.6035 30.7337 12.5976 30.8745 12.6291 31.0092C12.6606 31.144 12.7284 31.2676 12.8251 31.3666L16.3065 35.9812C16.5405 36.2594 16.8315 36.4841 17.1599 36.6399C17.4884 36.7957 17.8465 36.8791 18.2099 36.8843L22.5382 36.6999C23.2946 36.7129 24.0253 36.9757 24.6166 37.4475C25.4981 38.2133 26.4176 38.9344 27.3714 39.6079C27.653 39.8312 27.8799 40.1159 28.0348 40.4402C28.1896 40.7646 28.2684 41.12 28.2651 41.4793L28.0528 44.3903C28.0453 44.7376 28.1342 45.0802 28.3096 45.3801C28.485 45.68 28.7401 45.9254 29.0465 46.0892L35.1523 48.9561C35.2929 49.0232 35.4456 49.0613 35.6013 49.0682C35.757 49.0751 35.9125 49.0506 36.0585 48.9962C36.2045 48.9418 36.3382 48.8587 36.4514 48.7516C36.5647 48.6446 36.6553 48.5159 36.7178 48.3732L37.7761 46.0369C37.9205 45.741 38.161 45.5028 38.4582 45.3612C38.7555 45.2196 39.092 45.183 39.4128 45.2573C40.3779 45.4994 41.3558 45.6871 42.342 45.8197C43.0901 45.9501 43.7793 46.3093 44.3147 46.8478L47.9329 50.9504C48.1871 51.2077 48.4954 51.405 48.8355 51.528C49.1756 51.651 49.5388 51.6966 49.8987 51.6614L54.3024 50.9963C54.4453 51.0077 54.5882 50.9748 54.7117 50.902C54.8352 50.8292 54.9332 50.7201 54.9924 50.5896C55.0516 50.459 55.069 50.3134 55.0424 50.1726C55.0157 50.0317 54.9462 49.9026 54.8435 49.8027L52.276 45.7335C52.1173 45.4661 52.0703 45.147 52.1449 44.8452C52.2195 44.5434 52.4099 44.283 52.6749 44.1204C53.02 43.893 53.3471 43.6393 53.6533 43.3616C53.9084 43.1288 54.2194 42.966 54.5562 42.8892C54.8929 42.8124 55.2438 42.8242 55.5746 42.9233L61.0823 45.0838C61.2199 45.1434 61.369 45.1717 61.5189 45.1666C61.6687 45.1615 61.8156 45.123 61.9487 45.054C62.0819 44.9851 62.198 44.8873 62.2886 44.7679C62.3793 44.6484 62.4422 44.5103 62.4728 44.3635L63.2106 41.3448C63.2721 41.0158 63.232 40.6759 63.0958 40.3702C62.9597 40.0645 62.7338 39.8074 62.4481 39.633L57.0683 36.6722C56.4471 36.266 55.9993 35.6431 55.8122 34.9248C55.6588 34.2859 55.464 33.6578 55.229 33.0443C55.1681 32.9072 55.1378 32.7586 55.1403 32.6086C55.1428 32.4587 55.1779 32.3111 55.2433 32.1762C55.3087 32.0413 55.4028 31.9222 55.5189 31.8274C55.635 31.7325 55.7705 31.6642 55.9158 31.6271L59.3371 30.6725C59.4735 30.6491 59.601 30.5888 59.7056 30.4982C59.8102 30.4077 59.8881 30.2902 59.9308 30.1586C59.9736 30.0269 59.9795 29.8861 59.9479 29.7513C59.9164 29.6166 59.8486 29.493 59.7519 29.394L56.2705 24.7794C56.0351 24.5028 55.7433 24.2797 55.4147 24.1251C55.086 23.9705 54.7281 23.8879 54.365 23.8829L50.054 24.0363C49.2977 24.021 48.5676 23.7559 47.9778 23.2821C47.104 22.5227 46.182 21.7989 45.2296 21.1238C44.9478 20.9012 44.7201 20.6175 44.5638 20.2941C44.4075 19.9707 44.3266 19.6161 44.3271 19.2569L44.5416 16.3393C44.549 15.9915 44.4591 15.6486 44.2819 15.3492C44.1048 15.0498 43.8476 14.8059 43.5392 14.6449L37.4421 11.7735C37.301 11.7073 37.148 11.6698 36.9922 11.6632C36.8364 11.6566 36.6808 11.681 36.5346 11.735C36.3883 11.7891 36.2542 11.8716 36.1401 11.9779C36.026 12.0843 35.9342 12.2122 35.8699 12.3543L34.8183 14.6928C34.6723 14.9888 34.4305 15.2267 34.1321 15.3678C33.8338 15.5089 33.4965 15.545 33.175 15.4701C32.212 15.2292 31.2363 15.0422 30.2524 14.9099C29.5044 14.7818 28.8144 14.4249 28.2776 13.8884L24.6527 9.78371C24.3955 9.53168 24.0856 9.33977 23.7454 9.22178C23.4051 9.1038 23.043 9.06266 22.685 9.10134ZM45.6888 28.9605C49.4618 33.9626 48.3124 38.6561 43.13 39.442C37.9476 40.2279 30.6724 36.8131 26.8972 31.8177C23.122 26.8222 24.2736 22.122 29.4626 21.3382C34.6517 20.5545 41.9222 23.9385 45.6974 28.934L45.6888 28.9605Z" fill="url(#paint2_linear_442_1091)"/>
<path opacity="0.55" d="M22.685 9.10134L18.2812 9.76647C18.1382 9.75401 17.9949 9.78604 17.8708 9.85817C17.7467 9.93029 17.6479 10.039 17.588 10.1694C17.528 10.2998 17.5098 10.4456 17.5359 10.5867C17.562 10.7279 17.631 10.8575 17.7336 10.9579L20.2989 15.0337C20.3793 15.165 20.4328 15.3109 20.4563 15.463C20.4799 15.6151 20.473 15.7704 20.4361 15.9198C20.3992 16.0693 20.333 16.2099 20.2413 16.3335C20.1497 16.4572 20.0344 16.5614 19.9021 16.6402C19.5586 16.8698 19.2316 17.1234 18.9238 17.399C18.6685 17.6338 18.3562 17.7976 18.0179 17.8741C17.6797 17.9507 17.3273 17.9372 16.9958 17.8351L11.4947 15.6768C11.3569 15.6173 11.2075 15.589 11.0574 15.594C10.9072 15.599 10.7601 15.6372 10.6265 15.7059C10.4929 15.7745 10.3762 15.8719 10.2848 15.9911C10.1933 16.1103 10.1294 16.2482 10.0976 16.395L9.35977 19.4137C9.2975 19.7437 9.33784 20.0849 9.47535 20.3913C9.61286 20.6977 9.84094 20.9547 10.1289 21.1275L15.5021 24.0863C16.1253 24.4928 16.5753 25.1163 16.7648 25.8358C16.9187 26.4731 17.1112 27.1004 17.3414 27.7142C17.404 27.8507 17.4358 27.9994 17.4346 28.1496C17.4333 28.2998 17.399 28.4478 17.3341 28.5833C17.2692 28.7188 17.1752 28.8383 17.059 28.9334C16.9427 29.0284 16.8069 29.0968 16.6613 29.1335L13.2399 30.0881C13.1035 30.1115 12.9761 30.1718 12.8714 30.2623C12.7668 30.3529 12.6889 30.4704 12.6462 30.602C12.6035 30.7337 12.5976 30.8745 12.6291 31.0092C12.6606 31.144 12.7284 31.2676 12.8251 31.3666L16.3065 35.9812C16.5405 36.2594 16.8315 36.4841 17.1599 36.6399C17.4884 36.7957 17.8465 36.8791 18.2099 36.8843L22.5382 36.6999C23.2946 36.7129 24.0253 36.9757 24.6166 37.4475C25.4981 38.2133 26.4176 38.9344 27.3714 39.6079C27.653 39.8312 27.8799 40.1159 28.0348 40.4402C28.1896 40.7646 28.2684 41.12 28.2651 41.4793L28.0528 44.3903C28.0453 44.7376 28.1342 45.0802 28.3096 45.3801C28.485 45.68 28.7401 45.9254 29.0465 46.0892L35.1523 48.9561C35.2929 49.0232 35.4456 49.0613 35.6013 49.0682C35.757 49.0751 35.9125 49.0506 36.0585 48.9962C36.2045 48.9418 36.3382 48.8587 36.4514 48.7516C36.5647 48.6446 36.6553 48.5159 36.7178 48.3732L37.7761 46.0369C37.9205 45.741 38.161 45.5028 38.4582 45.3612C38.7555 45.2196 39.092 45.183 39.4128 45.2573C40.3779 45.4994 41.3558 45.6871 42.342 45.8197C43.0901 45.9501 43.7793 46.3093 44.3147 46.8478L47.9329 50.9504C48.1871 51.2077 48.4954 51.405 48.8355 51.528C49.1756 51.651 49.5388 51.6966 49.8987 51.6614L54.3024 50.9963C54.4453 51.0077 54.5882 50.9748 54.7117 50.902C54.8352 50.8292 54.9332 50.7201 54.9924 50.5896C55.0516 50.459 55.069 50.3134 55.0424 50.1726C55.0157 50.0317 54.9462 49.9026 54.8435 49.8027L52.276 45.7335C52.1173 45.4661 52.0703 45.147 52.1449 44.8452C52.2195 44.5434 52.4099 44.283 52.6749 44.1204C53.02 43.893 53.3471 43.6393 53.6533 43.3616C53.9084 43.1288 54.2194 42.966 54.5562 42.8892C54.8929 42.8124 55.2438 42.8242 55.5746 42.9233L61.0823 45.0838C61.2199 45.1434 61.369 45.1717 61.5189 45.1666C61.6687 45.1615 61.8156 45.123 61.9487 45.054C62.0819 44.9851 62.198 44.8873 62.2886 44.7679C62.3793 44.6484 62.4422 44.5103 62.4728 44.3635L63.2106 41.3448C63.2721 41.0158 63.232 40.6759 63.0958 40.3702C62.9597 40.0645 62.7338 39.8074 62.4481 39.633L57.0683 36.6722C56.4471 36.266 55.9993 35.6431 55.8122 34.9248C55.6588 34.2859 55.464 33.6578 55.229 33.0443C55.1681 32.9072 55.1378 32.7586 55.1403 32.6086C55.1428 32.4587 55.1779 32.3111 55.2433 32.1762C55.3087 32.0413 55.4028 31.9222 55.5189 31.8274C55.635 31.7325 55.7705 31.6642 55.9158 31.6271L59.3371 30.6725C59.4735 30.6491 59.601 30.5888 59.7056 30.4982C59.8102 30.4077 59.8881 30.2902 59.9308 30.1586C59.9736 30.0269 59.9795 29.8861 59.9479 29.7513C59.9164 29.6166 59.8486 29.493 59.7519 29.394L56.2705 24.7794C56.0351 24.5028 55.7433 24.2797 55.4147 24.1251C55.086 23.9705 54.7281 23.8879 54.365 23.8829L50.054 24.0363C49.2977 24.021 48.5676 23.7559 47.9778 23.2821C47.104 22.5227 46.182 21.7989 45.2296 21.1238C44.9478 20.9012 44.7201 20.6175 44.5638 20.2941C44.4075 19.9707 44.3266 19.6161 44.3271 19.2569L44.5416 16.3393C44.549 15.9915 44.4591 15.6486 44.2819 15.3492C44.1048 15.0498 43.8476 14.8059 43.5392 14.6449L37.4421 11.7735C37.301 11.7073 37.148 11.6698 36.9922 11.6632C36.8364 11.6566 36.6808 11.681 36.5346 11.735C36.3883 11.7891 36.2542 11.8716 36.1401 11.9779C36.026 12.0843 35.9342 12.2122 35.8699 12.3543L34.8183 14.6928C34.6723 14.9888 34.4305 15.2267 34.1321 15.3678C33.8338 15.5089 33.4965 15.545 33.175 15.4701C32.212 15.2292 31.2363 15.0422 30.2524 14.9099C29.5044 14.7818 28.8144 14.4249 28.2776 13.8884L24.6527 9.78371C24.3955 9.53168 24.0856 9.33977 23.7454 9.22178C23.4051 9.1038 23.043 9.06266 22.685 9.10134ZM45.6888 28.9605C49.4618 33.9626 48.3124 38.6561 43.13 39.442C37.9476 40.2279 30.6724 36.8131 26.8972 31.8177C23.122 26.8222 24.2736 22.122 29.4626 21.3382C34.6517 20.5545 41.9222 23.9385 45.6974 28.934L45.6888 28.9605Z" fill="white"/>
<g opacity="0.55">
<path d="M10.0653 19.7013C10.0733 19.6554 10.0878 19.6108 10.1083 19.5688L10.844 16.5568C10.8533 16.5104 10.8717 16.4663 10.8982 16.4271C10.9248 16.388 10.9589 16.3545 10.9985 16.3287C11.0415 16.3119 11.0874 16.3039 11.1336 16.305C11.1797 16.3062 11.2252 16.3165 11.2673 16.3353L16.775 18.4958C17.2354 18.6442 17.727 18.6676 18.1994 18.5635C18.6719 18.4595 19.1082 18.2319 19.4637 17.9038C19.7395 17.6464 20.0359 17.412 20.35 17.203C20.6154 17.0319 20.8352 16.799 20.9907 16.5243C21.1461 16.2495 21.2326 15.9411 21.2425 15.6256C21.2489 15.2665 21.1496 14.9135 20.9569 14.6104L18.3916 10.5346L18.3558 10.4644L18.4262 10.4506L22.832 9.77886C23.0714 9.76417 23.3111 9.79886 23.5365 9.88079C23.7618 9.96271 23.9678 10.0901 24.1418 10.2551L27.7667 14.3598C28.4179 15.0263 29.2647 15.4677 30.184 15.62C31.144 15.7518 32.0961 15.936 33.036 16.172C33.5209 16.2856 34.03 16.2304 34.4792 16.0153C34.9285 15.8003 35.2908 15.4383 35.5063 14.9893L36.5667 12.6464C36.5901 12.5922 36.6245 12.5434 36.6678 12.5033C36.7111 12.4631 36.7623 12.4324 36.8181 12.4131C36.8738 12.391 36.9334 12.3806 36.9932 12.3823C37.0531 12.3841 37.1119 12.3982 37.1662 12.4236L43.2632 15.295C43.437 15.3963 43.5821 15.5403 43.6848 15.7132C43.7875 15.8862 43.8445 16.0825 43.8503 16.2836L43.6358 19.2012C43.6281 19.2352 43.6173 19.2684 43.6036 19.3005C43.6126 19.7659 43.7263 20.2233 43.9363 20.6387C44.1462 21.0541 44.4471 21.4169 44.8165 21.7002C45.7556 22.3709 46.6599 23.0817 47.5115 23.8192C48.242 24.4136 49.1538 24.7405 50.0956 24.7455L54.4173 24.559C54.9028 24.586 55.3583 24.8022 55.6863 25.161L59.1677 29.7757C59.2099 29.826 59.2212 29.8589 59.2323 29.8699L59.1226 29.9148L55.699 30.876C55.3359 30.9748 55.0151 31.19 54.786 31.4886C54.5569 31.7872 54.432 32.1527 54.4305 32.5291C54.4288 32.7783 54.4726 33.0257 54.5597 33.2592C54.784 33.841 54.9697 34.4369 55.1158 35.0431C55.3446 35.9644 55.9249 36.7597 56.7324 37.2589L62.1056 40.2176C62.2352 40.3048 62.3416 40.4222 62.4156 40.5598C62.4896 40.6973 62.529 40.8508 62.5303 41.007C62.5185 41.052 62.5042 41.0962 62.4873 41.1395L61.7495 44.1582C61.7406 44.2042 61.7218 44.2476 61.6943 44.2855C61.6669 44.3234 61.6314 44.3548 61.5905 44.3775C61.548 44.3969 61.5018 44.4068 61.455 44.4068C61.4083 44.4068 61.3621 44.3968 61.3196 44.3775L55.8119 42.2171C55.3524 42.0687 54.8616 42.0456 54.3902 42.15C53.9188 42.2544 53.4837 42.4827 53.1298 42.8112C52.8517 43.0679 52.553 43.3016 52.2369 43.5099C51.9733 43.6827 51.7552 43.9165 51.601 44.1914C51.4468 44.4664 51.361 44.7744 51.351 45.0894C51.3389 45.4492 51.4387 45.8039 51.6366 46.1046L54.2019 50.1804L54.2377 50.2506L54.1586 50.2688L49.7548 50.934C49.5154 50.9504 49.2751 50.9165 49.0496 50.8344C48.824 50.7524 48.6181 50.6241 48.445 50.4578L44.8268 46.3552C44.1735 45.6875 43.3245 45.2453 42.4029 45.0928C41.445 44.9623 40.4951 44.7787 39.5575 44.543C39.0709 44.4301 38.5604 44.4862 38.1098 44.7019C37.6593 44.9176 37.2955 45.2802 37.0784 45.7301L36.0268 48.0686C36.0025 48.1234 35.9676 48.1728 35.9241 48.214C35.8805 48.2551 35.8293 48.2873 35.7732 48.3085C35.6598 48.346 35.5365 48.3399 35.4273 48.2914L29.3237 45.4178C29.1505 45.3169 29.0062 45.1732 28.9046 45.0005C28.8029 44.8277 28.7474 44.6318 28.7432 44.4314L28.9577 41.5138C28.9714 41.4817 28.9822 41.4485 28.9899 41.4145C28.9819 40.9499 28.8693 40.4931 28.6604 40.078C28.4516 39.663 28.1519 39.3003 27.7836 39.017C26.8445 38.3462 25.9336 37.6333 25.0886 36.8979C24.3562 36.3069 23.4456 35.9805 22.5045 35.9716L18.1762 36.156C17.9293 36.1455 17.687 36.0859 17.4634 35.9807C17.2399 35.8755 17.0395 35.7267 16.8741 35.5432L13.3927 30.9286L13.3347 30.8365C13.3688 30.8161 13.4058 30.8009 13.4445 30.7916L16.8658 29.837C17.2293 29.7362 17.55 29.5197 17.7793 29.2201C18.0086 28.9206 18.134 28.5545 18.1365 28.1773C18.1412 27.9279 18.0974 27.6799 18.0073 27.4472C17.7806 26.8676 17.5969 26.2721 17.4579 25.6655C17.225 24.746 16.6457 23.9521 15.8412 23.4497L10.4815 20.5173C10.3501 20.4319 10.2423 20.3148 10.1681 20.1769C10.0939 20.0389 10.0556 19.8845 10.0567 19.7278M48.6358 34.6831C48.6754 32.7558 47.8568 30.6305 46.2432 28.5181C42.33 23.3388 34.7475 19.7877 29.3254 20.613C26.0061 21.1175 23.9876 23.1642 23.9317 26.0893C23.8921 28.0167 24.7108 30.142 26.3244 32.2543C30.2376 37.4337 37.82 40.9847 43.2355 40.1573C46.5614 39.655 48.58 37.6083 48.6358 34.6831ZM9.32339 19.7315C9.31994 20.0201 9.39193 20.3047 9.53224 20.557C9.67255 20.8092 9.87631 21.0205 10.1234 21.1698L15.4965 24.1285C16.1197 24.5351 16.5697 25.1586 16.7592 25.8781C16.9131 26.5154 17.1057 27.1427 17.3359 27.7565C17.392 27.901 17.4216 28.0544 17.4232 28.2094C17.4189 28.4324 17.3415 28.6478 17.2028 28.8224C17.0642 28.997 16.8719 29.1212 16.6557 29.1758L13.2343 30.1304C13.0644 30.161 12.9095 30.247 12.7937 30.3751C12.678 30.5031 12.608 30.666 12.5947 30.8381C12.5999 31.0453 12.6744 31.2447 12.8063 31.4046L16.2877 36.0192C16.5217 36.2974 16.8127 36.522 17.1411 36.6779C17.4696 36.8337 17.8277 36.9171 18.1911 36.9223L22.5194 36.7379C23.2758 36.7508 24.0065 37.0137 24.5978 37.4855C25.4793 38.2513 26.3988 38.9723 27.3526 39.6459C27.6209 39.8632 27.8388 40.1362 27.9911 40.4461C28.1434 40.7559 28.2265 41.0952 28.2347 41.4403C28.2313 41.4635 28.224 41.4859 28.2132 41.5066L28.0009 44.4176L27.9815 44.4772C27.9868 44.8131 28.0816 45.1415 28.2562 45.4286C28.4307 45.7156 28.6788 45.9508 28.9747 46.11L35.0805 48.9769C35.2211 49.044 35.3738 49.0821 35.5295 49.089C35.6852 49.0958 35.8407 49.0714 35.9867 49.017C36.1327 48.9626 36.2664 48.8794 36.3796 48.7724C36.4929 48.6654 36.5835 48.5367 36.646 48.394L37.7043 46.0576C37.8487 45.7617 38.0892 45.5235 38.3864 45.382C38.6837 45.2404 39.0202 45.2038 39.341 45.2781C40.3061 45.5201 41.284 45.7079 42.2702 45.8405C43.0183 45.9708 43.7075 46.33 44.2429 46.8686L47.8611 50.9712C48.1153 51.2285 48.4236 51.4258 48.7637 51.5488C49.1037 51.6718 49.467 51.7174 49.8269 51.6822L54.2306 51.017C54.4112 51.0107 54.5829 50.9377 54.7129 50.8123C54.8428 50.6868 54.9217 50.5177 54.9344 50.3375C54.9315 50.1539 54.8749 49.9752 54.7717 49.8234L52.2042 45.7543C52.09 45.5679 52.0303 45.3532 52.0318 45.1346C52.0407 44.9354 52.0972 44.7412 52.1966 44.5684C52.296 44.3955 52.4354 44.249 52.6031 44.1412C52.9482 43.9137 53.2753 43.66 53.5815 43.3824C53.8366 43.1495 54.1476 42.9868 54.4844 42.91C54.8211 42.8332 55.172 42.8449 55.5028 42.9441L61.0105 45.1045C61.1481 45.1642 61.2972 45.1925 61.4471 45.1874C61.5969 45.1823 61.7438 45.1438 61.8769 45.0748C62.0101 45.0059 62.1262 44.9081 62.2168 44.7886C62.3075 44.6692 62.3704 44.531 62.401 44.3842L63.1388 41.3656C63.1639 41.2696 63.1786 41.1713 63.1827 41.0723C63.1862 40.7836 63.1142 40.4991 62.9739 40.2468C62.8336 39.9945 62.6298 39.7833 62.3828 39.634L57.003 36.6731C56.3818 36.2669 55.934 35.644 55.7469 34.9257C55.5935 34.2869 55.3986 33.6587 55.1636 33.0452C55.1096 32.901 55.0822 32.7483 55.0829 32.5943C55.0848 32.3708 55.1614 32.1542 55.3004 31.9791C55.4395 31.804 55.6331 31.6804 55.8504 31.628L59.2718 30.6734C59.4418 30.6437 59.5969 30.5574 59.7118 30.4286C59.8267 30.2998 59.8947 30.1359 59.9048 29.9636C59.905 29.7572 59.8324 29.5574 59.6998 29.3992L56.2184 24.7846C55.983 24.508 55.6912 24.2849 55.3626 24.1303C55.0339 23.9757 54.676 23.8931 54.3128 23.8881L50.0547 24.0367C49.2978 24.0246 48.5668 23.7591 47.9785 23.2825C47.1047 22.5231 46.1827 21.7993 45.2303 21.1242C44.962 20.9069 44.7442 20.6339 44.5918 20.3241C44.4395 20.0142 44.3564 19.675 44.3482 19.3298L44.3676 19.2702L44.582 16.3526L44.6014 16.2929C44.5952 15.9567 44.4991 15.6284 44.3228 15.342C44.1466 15.0556 43.8968 14.8217 43.5995 14.6646L37.5025 11.7932C37.3613 11.727 37.2083 11.6895 37.0525 11.6829C36.8967 11.6763 36.7412 11.7007 36.5949 11.7548C36.4486 11.8088 36.3145 11.8914 36.2004 11.9977C36.0863 12.104 35.9945 12.2319 35.9303 12.374L34.8787 14.7125C34.7336 15.0093 34.4919 15.248 34.1933 15.3893C33.8946 15.5305 33.5568 15.566 33.2354 15.4899C32.2723 15.249 31.2966 15.0619 30.3128 14.9296C29.5647 14.8015 28.8747 14.4447 28.3379 13.9082L24.713 9.80344C24.4586 9.54655 24.1502 9.34947 23.8102 9.22649C23.4702 9.10352 23.1071 9.05772 22.7473 9.09241L18.3414 9.76418C18.1598 9.76273 17.9848 9.83229 17.8538 9.95799C17.7227 10.0837 17.6459 10.2556 17.6398 10.4371C17.6403 10.6194 17.6946 10.7974 17.7959 10.949L20.3612 15.0248C20.4821 15.207 20.5452 15.4214 20.5423 15.64C20.5307 15.839 20.4724 16.0325 20.372 16.2048C20.2716 16.377 20.1319 16.5231 19.9644 16.6313C19.6209 16.8609 19.2939 17.1144 18.9861 17.3901C18.7308 17.6249 18.4185 17.7887 18.0802 17.8652C17.742 17.9417 17.3896 17.9283 17.0581 17.8262L11.557 15.6679C11.4192 15.6083 11.2698 15.58 11.1197 15.585C10.9696 15.5901 10.8224 15.6283 10.6888 15.697C10.5552 15.7656 10.4385 15.863 10.3471 15.9822C10.2556 16.1013 10.1917 16.2393 10.1599 16.3861L9.42208 19.4048C9.39949 19.5017 9.387 19.6007 9.38481 19.7002L9.32339 19.7315ZM47.9025 34.6868C47.8363 37.1473 46.2038 38.9972 43.1242 39.4623C37.9331 40.2527 30.6666 36.8334 26.8915 31.8379C25.3555 29.8021 24.6437 27.8213 24.672 26.1318C24.7382 23.6713 26.3774 21.8236 29.4569 21.3585C34.6481 20.5681 41.9079 23.9852 45.6831 28.9807C47.219 31.0166 47.9374 32.9995 47.9025 34.6868Z" fill="white"/>
</g>
<path d="M66.2855 36.5855L69.2273 37.6863C69.2735 37.7008 69.3226 37.7038 69.3702 37.6952C69.4179 37.6865 69.4628 37.6665 69.501 37.6367L71.2027 36.5087C71.2513 36.6554 71.2568 36.8129 71.2186 36.9626L69.8018 41.5815C69.7668 41.6982 69.777 41.8238 69.8304 41.9333C69.8838 42.0428 69.9765 42.1282 70.0901 42.1724L72.6062 43.1227L75.5319 44.2203C75.6466 44.2623 75.773 44.2597 75.8859 44.213C75.9989 44.1663 76.0902 44.079 76.1418 43.9682L78.1322 39.5668C78.199 39.4313 78.3046 39.3187 78.4356 39.2434L78.9663 41.2213C78.9749 41.2695 78.9953 41.3148 79.0257 41.3533C79.0561 41.3917 79.0955 41.422 79.1405 41.4414L82.0891 42.545C82.1388 42.558 82.1909 42.5582 82.2406 42.5455C82.2904 42.5329 82.3361 42.5078 82.3735 42.4727L85.6055 39.8262C85.7068 39.7337 85.7877 39.6212 85.8432 39.4958C85.8986 39.3703 85.9274 39.2347 85.9276 39.0976L85.6366 35.0646C85.6303 34.7778 85.7178 34.4967 85.8857 34.2641C86.4847 33.4922 87.0328 32.6821 87.5266 31.839C87.5965 31.7281 87.6968 31.6396 87.8154 31.584C87.9341 31.5283 88.0662 31.5078 88.1961 31.5249L90.6163 31.9513C90.7414 31.9689 90.8687 31.9445 90.9784 31.8819C91.088 31.8193 91.1738 31.7222 91.2223 31.6056L93.1011 26.6281C93.1425 26.5092 93.143 26.38 93.1024 26.2609C93.0619 26.1417 92.9827 26.0396 92.8774 25.9707L90.7772 24.6894C90.6694 24.6151 90.5847 24.5119 90.533 24.3916C90.4813 24.2713 90.4645 24.1389 90.4847 24.0095C90.6736 23.0516 90.798 22.0821 90.8571 21.1075C90.8864 20.8209 91.0066 20.5513 91.2002 20.338L94.0855 17.5105C94.1788 17.4088 94.2493 17.2883 94.2923 17.157C94.3353 17.0258 94.3498 16.8869 94.3347 16.7497L93.6613 12.6247C93.6569 12.5724 93.6386 12.5222 93.6082 12.4794C93.5778 12.4365 93.5365 12.4027 93.4885 12.3813L90.5467 11.2804C90.4999 11.2667 90.4504 11.2642 90.4024 11.2732C90.3544 11.2822 90.3092 11.3025 90.2705 11.3322L88.5713 12.458C88.5227 12.3114 88.5172 12.1538 88.5554 12.0041L89.9722 7.3853C90.0072 7.2686 89.997 7.14298 89.9436 7.03345C89.8902 6.92393 89.7975 6.83854 89.684 6.79431L86.1527 5.46809L84.2353 4.7437C84.1205 4.70249 83.9944 4.70547 83.8817 4.75207C83.7689 4.79868 83.6776 4.88557 83.6254 4.99583L81.646 9.4095C81.5769 9.54354 81.4708 9.65495 81.3403 9.7305L80.8096 7.75259C80.8006 7.70391 80.7798 7.65817 80.7491 7.61937C80.7184 7.58056 80.6786 7.54987 80.6333 7.52997L77.6827 6.41927C77.6325 6.40367 77.5791 6.40213 77.5281 6.41485C77.4771 6.42756 77.4306 6.45403 77.3937 6.49137L74.1594 9.13534C74.0574 9.22785 73.9759 9.34065 73.92 9.46651C73.8641 9.59236 73.8351 9.7285 73.8349 9.8662L74.1284 13.8969C74.133 14.184 74.0465 14.4651 73.8814 14.7C73.2798 15.47 72.7316 16.2802 72.2405 17.125C72.1695 17.2347 72.0691 17.3224 71.9507 17.3779C71.8324 17.4334 71.7008 17.4546 71.571 17.4391L69.1462 17.0124C69.0217 16.9947 68.8949 17.0188 68.7857 17.081C68.6764 17.1432 68.5909 17.2399 68.5427 17.356L66.6877 22.3255C66.6463 22.4444 66.6458 22.5736 66.6864 22.6927C66.7269 22.8118 66.8061 22.914 66.9114 22.9829L69.0091 24.2663C69.1173 24.3399 69.2024 24.4426 69.2546 24.5626C69.3068 24.6825 69.324 24.8148 69.3041 24.9441C69.1154 25.902 68.991 26.8715 68.9317 27.8461C68.9024 28.1326 68.7822 28.4023 68.5885 28.6156L65.7033 31.4431C65.6103 31.5456 65.5398 31.6664 65.4965 31.7979C65.4531 31.9293 65.4378 32.0684 65.4516 32.2061L66.1275 36.3289C66.1288 36.3818 66.1442 36.4334 66.1719 36.4785C66.1997 36.5235 66.2389 36.5605 66.2855 36.5855ZM83.8838 19.4619C84.5168 23.3137 82.5789 28.4279 79.5626 30.8953C78.3839 31.8619 77.2113 32.2754 76.1861 32.1954C75.5636 31.5712 75.1116 30.5388 74.8822 29.127C74.2492 25.2752 76.185 20.1585 79.2012 17.6912C80.3822 16.727 81.4504 16.3005 82.3504 16.3639C83.1008 16.9978 83.6525 18.0429 83.8838 19.4619Z" fill="url(#paint3_linear_442_1091)"/>
<path opacity="0.2" d="M66.2855 36.5855L69.2273 37.6863C69.2735 37.7008 69.3226 37.7038 69.3702 37.6952C69.4179 37.6865 69.4628 37.6665 69.501 37.6367L71.2027 36.5087C71.2513 36.6554 71.2568 36.8129 71.2186 36.9626L69.8018 41.5815C69.7668 41.6982 69.777 41.8238 69.8304 41.9333C69.8838 42.0428 69.9765 42.1282 70.0901 42.1724L72.6062 43.1227L75.5319 44.2203C75.6466 44.2623 75.773 44.2597 75.8859 44.213C75.9989 44.1663 76.0902 44.079 76.1418 43.9682L78.1322 39.5668C78.199 39.4313 78.3046 39.3187 78.4356 39.2434L78.9663 41.2213C78.9749 41.2695 78.9953 41.3148 79.0257 41.3533C79.0561 41.3917 79.0955 41.422 79.1405 41.4414L82.0891 42.545C82.1388 42.558 82.1909 42.5582 82.2406 42.5455C82.2904 42.5329 82.3361 42.5078 82.3735 42.4727L85.6055 39.8262C85.7068 39.7337 85.7877 39.6212 85.8432 39.4958C85.8986 39.3703 85.9274 39.2347 85.9276 39.0976L85.6366 35.0646C85.6303 34.7778 85.7178 34.4967 85.8857 34.2641C86.4847 33.4922 87.0328 32.6821 87.5266 31.839C87.5965 31.7281 87.6968 31.6396 87.8154 31.584C87.9341 31.5283 88.0662 31.5078 88.1961 31.5249L90.6163 31.9513C90.7414 31.9689 90.8687 31.9445 90.9784 31.8819C91.088 31.8193 91.1738 31.7222 91.2223 31.6056L93.1011 26.6281C93.1425 26.5092 93.143 26.38 93.1024 26.2609C93.0619 26.1417 92.9827 26.0396 92.8774 25.9707L90.7772 24.6894C90.6694 24.6151 90.5847 24.5119 90.533 24.3916C90.4813 24.2713 90.4645 24.1389 90.4847 24.0095C90.6736 23.0516 90.798 22.0821 90.8571 21.1075C90.8864 20.8209 91.0066 20.5513 91.2002 20.338L94.0855 17.5105C94.1788 17.4088 94.2493 17.2883 94.2923 17.157C94.3353 17.0258 94.3498 16.8869 94.3347 16.7497L93.6613 12.6247C93.6569 12.5724 93.6386 12.5222 93.6082 12.4794C93.5778 12.4365 93.5365 12.4027 93.4885 12.3813L90.5467 11.2804C90.4999 11.2667 90.4504 11.2642 90.4024 11.2732C90.3544 11.2822 90.3092 11.3025 90.2705 11.3322L88.5713 12.458C88.5227 12.3114 88.5172 12.1538 88.5554 12.0041L89.9722 7.3853C90.0072 7.2686 89.997 7.14298 89.9436 7.03345C89.8902 6.92393 89.7975 6.83854 89.684 6.79431L86.1527 5.46809L84.2353 4.7437C84.1205 4.70249 83.9944 4.70547 83.8817 4.75207C83.7689 4.79868 83.6776 4.88557 83.6254 4.99583L81.646 9.4095C81.5769 9.54354 81.4708 9.65495 81.3403 9.7305L80.8096 7.75259C80.8006 7.70391 80.7798 7.65817 80.7491 7.61937C80.7184 7.58056 80.6786 7.54987 80.6333 7.52997L77.6827 6.41927C77.6325 6.40367 77.5791 6.40213 77.5281 6.41485C77.4771 6.42756 77.4306 6.45403 77.3937 6.49137L74.1594 9.13534C74.0574 9.22785 73.9759 9.34065 73.92 9.46651C73.8641 9.59236 73.8351 9.7285 73.8349 9.8662L74.1284 13.8969C74.133 14.184 74.0465 14.4651 73.8814 14.7C73.2798 15.47 72.7316 16.2802 72.2405 17.125C72.1695 17.2347 72.0691 17.3224 71.9507 17.3779C71.8324 17.4334 71.7008 17.4546 71.571 17.4391L69.1462 17.0124C69.0217 16.9947 68.8949 17.0188 68.7857 17.081C68.6764 17.1432 68.5909 17.2399 68.5427 17.356L66.6877 22.3255C66.6463 22.4444 66.6458 22.5736 66.6864 22.6927C66.7269 22.8118 66.8061 22.914 66.9114 22.9829L69.0091 24.2663C69.1173 24.3399 69.2024 24.4426 69.2546 24.5626C69.3068 24.6825 69.324 24.8148 69.3041 24.9441C69.1154 25.902 68.991 26.8715 68.9317 27.8461C68.9024 28.1326 68.7822 28.4023 68.5885 28.6156L65.7033 31.4431C65.6103 31.5456 65.5398 31.6664 65.4965 31.7979C65.4531 31.9293 65.4378 32.0684 65.4516 32.2061L66.1275 36.3289C66.1288 36.3818 66.1442 36.4334 66.1719 36.4785C66.1997 36.5235 66.2389 36.5605 66.2855 36.5855ZM83.8838 19.4619C84.5168 23.3137 82.5789 28.4279 79.5626 30.8953C78.3839 31.8619 77.2113 32.2754 76.1861 32.1954C75.5636 31.5712 75.1116 30.5388 74.8822 29.127C74.2492 25.2752 76.185 20.1585 79.2012 17.6912C80.3822 16.727 81.4504 16.3005 82.3504 16.3639C83.1008 16.9978 83.6525 18.0429 83.8838 19.4619Z" fill="white"/>
<path opacity="0.1" d="M86.7514 13.1263C86.7746 13.1787 86.8094 13.2253 86.853 13.2624C86.8966 13.2996 86.9481 13.3265 87.0035 13.3411C87.0589 13.3558 87.1169 13.3577 87.1732 13.3469C87.2295 13.3361 87.2827 13.3127 87.3287 13.2786L88.5668 12.4579C88.5184 12.3095 88.5145 12.1501 88.5558 11.9996L89.9726 7.38074C90.0074 7.26342 89.9969 7.1373 89.9431 7.02738C89.8893 6.91746 89.7962 6.83177 89.6822 6.7873L86.1531 5.46353L86.7472 5.68916C86.8602 5.73353 86.9527 5.81846 87.0064 5.92734C87.0602 6.03622 87.0714 6.16124 87.0379 6.27796L85.6164 10.8965C85.5867 11.0291 85.5872 11.1667 85.618 11.2991C85.6488 11.4314 85.7091 11.5551 85.7943 11.6609C86.1708 12.1093 86.4922 12.6013 86.7514 13.1263ZM77.7004 6.43905C77.7735 6.48823 77.8258 6.56279 77.8471 6.64829L78.7624 10.0586C78.7749 10.114 78.7997 10.1659 78.8349 10.2104C78.8702 10.2549 78.9149 10.2909 78.9659 10.3158C79.0169 10.3407 79.0729 10.3538 79.1297 10.3542C79.1864 10.3546 79.2425 10.3422 79.2939 10.318C79.8443 10.0937 80.4203 9.93779 81.0088 9.85395C81.1253 9.83328 81.2365 9.78968 81.336 9.72566L80.8032 7.7453C80.7946 7.69708 80.7742 7.65175 80.7438 7.61333C80.7134 7.57492 80.674 7.54461 80.629 7.52514L77.7004 6.43905Z" fill="black"/>
<path opacity="0.1" d="M72.9598 28.4022C72.3267 24.5504 74.2625 19.4337 77.2788 16.9663C79.1853 15.4041 81.0701 15.2744 82.3547 16.364C81.4484 16.2885 80.3842 16.7247 79.2008 17.691C76.1821 20.1606 74.2532 25.28 74.8818 29.1268C75.1114 30.534 75.5585 31.5708 76.1833 32.1975C74.5862 32.0752 73.3437 30.7405 72.9598 28.4022Z" fill="black"/>
<path d="M75.545 44.2255C75.6592 44.2669 75.7847 44.2637 75.8966 44.2164C76.0084 44.1692 76.0983 44.0814 76.1481 43.9707L78.1431 39.5696C78.1786 39.4948 78.2285 39.4279 78.2899 39.3725L75.3484 38.267C75.2864 38.3242 75.237 38.3937 75.2035 38.4712L73.2241 42.8849C73.1767 42.985 73.0967 43.066 72.9971 43.1146C72.8976 43.1632 72.7845 43.1765 72.6764 43.1522L75.545 44.2255ZM69.229 37.6886C69.2761 37.7015 69.3256 37.7038 69.3737 37.6952C69.4219 37.6867 69.4675 37.6675 69.5073 37.6392L71.2068 36.5087C71.1735 36.3994 71.12 36.2973 71.049 36.2078C70.6884 35.7835 70.3789 35.3182 70.1271 34.8215C70.1108 34.7999 70.0972 34.7764 70.0867 34.7515C70.0538 34.6949 70.0097 34.6455 69.9573 34.6062C69.9441 34.5915 69.931 34.5767 69.9178 34.5619C69.8818 34.5433 69.8432 34.5301 69.8033 34.5227C69.7358 34.5125 69.6668 34.5207 69.6035 34.5462C69.5737 34.5547 69.5459 34.5689 69.5217 34.5882L66.5535 36.5446C66.5304 36.5612 66.5053 36.5746 66.4788 36.5847C66.4457 36.6029 66.4077 36.6105 66.3701 36.6065C66.3376 36.6103 66.3046 36.6044 66.2754 36.5894L69.229 37.6886ZM82.102 42.5549C82.1514 42.5688 82.2037 42.5692 82.2533 42.5561C82.303 42.5429 82.3482 42.5166 82.3842 42.4801L85.6184 39.8361C85.7617 39.7056 85.8619 39.5347 85.9058 39.3459L82.9711 38.2431C82.9276 38.432 82.8273 38.6031 82.6837 38.7333L79.4492 41.3819C79.4131 41.4142 79.3703 41.4381 79.3239 41.452C79.2775 41.4659 79.2287 41.4694 79.1808 41.4622L82.102 42.5549ZM90.9997 20.6485C91.0512 20.5363 91.1202 20.4331 91.2041 20.3427L94.0918 17.513C94.1697 17.428 94.2316 17.3294 94.2743 17.2223L91.344 16.1244C91.3028 16.2319 91.2391 16.3294 91.1571 16.4102L88.2719 19.2377C88.1857 19.329 88.115 19.4338 88.0626 19.5479L90.9997 20.6485ZM90.8077 31.9434C90.8997 31.9251 90.9857 31.8845 91.0584 31.8251C91.131 31.7658 91.1879 31.6896 91.2243 31.6031L93.1052 26.6281C93.1435 26.5171 93.1447 26.3967 93.1086 26.285L90.1717 25.1798C90.2091 25.2929 90.2078 25.4152 90.168 25.5275L88.2846 30.5047C88.2527 30.5864 88.202 30.6593 88.1365 30.7176C88.0711 30.7759 87.9928 30.818 87.9081 30.8403L90.8077 31.9434Z" fill="url(#paint4_linear_442_1091)"/>
<path opacity="0.7" d="M75.545 44.2255C75.6592 44.2669 75.7847 44.2637 75.8966 44.2164C76.0084 44.1692 76.0983 44.0814 76.1481 43.9707L78.1431 39.5696C78.1786 39.4948 78.2285 39.4279 78.2899 39.3725L75.3484 38.267C75.2864 38.3242 75.237 38.3937 75.2035 38.4712L73.2241 42.8849C73.1767 42.985 73.0967 43.066 72.9971 43.1146C72.8976 43.1632 72.7845 43.1765 72.6764 43.1522L75.545 44.2255ZM69.229 37.6886C69.2761 37.7015 69.3256 37.7038 69.3737 37.6952C69.4219 37.6867 69.4675 37.6675 69.5073 37.6392L71.2068 36.5087C71.1735 36.3994 71.12 36.2973 71.049 36.2078C70.6884 35.7835 70.3789 35.3182 70.1271 34.8215C70.1108 34.7999 70.0972 34.7764 70.0867 34.7515C70.0538 34.6949 70.0097 34.6455 69.9573 34.6062C69.9441 34.5915 69.931 34.5767 69.9178 34.5619C69.8818 34.5433 69.8432 34.5301 69.8033 34.5227C69.7358 34.5125 69.6668 34.5207 69.6035 34.5462C69.5737 34.5547 69.5459 34.5689 69.5217 34.5882L66.5535 36.5446C66.5304 36.5612 66.5053 36.5746 66.4788 36.5847C66.4457 36.6029 66.4077 36.6105 66.3701 36.6065C66.3376 36.6103 66.3046 36.6044 66.2754 36.5894L69.229 37.6886ZM82.102 42.5549C82.1514 42.5688 82.2037 42.5692 82.2533 42.5561C82.303 42.5429 82.3482 42.5166 82.3842 42.4801L85.6184 39.8361C85.7617 39.7056 85.8619 39.5347 85.9058 39.3459L82.9711 38.2431C82.9276 38.432 82.8273 38.6031 82.6837 38.7333L79.4492 41.3819C79.4131 41.4142 79.3703 41.4381 79.3239 41.452C79.2775 41.4659 79.2287 41.4694 79.1808 41.4622L82.102 42.5549ZM90.9997 20.6485C91.0512 20.5363 91.1202 20.4331 91.2041 20.3427L94.0918 17.513C94.1697 17.428 94.2316 17.3294 94.2743 17.2223L91.344 16.1244C91.3028 16.2319 91.2391 16.3294 91.1571 16.4102L88.2719 19.2377C88.1857 19.329 88.115 19.4338 88.0626 19.5479L90.9997 20.6485ZM90.8077 31.9434C90.8997 31.9251 90.9857 31.8845 91.0584 31.8251C91.131 31.7658 91.1879 31.6896 91.2243 31.6031L93.1052 26.6281C93.1435 26.5171 93.1447 26.3967 93.1086 26.285L90.1717 25.1798C90.2091 25.2929 90.2078 25.4152 90.168 25.5275L88.2846 30.5047C88.2527 30.5864 88.202 30.6593 88.1365 30.7176C88.0711 30.7759 87.9928 30.818 87.9081 30.8403L90.8077 31.9434Z" fill="white"/>
<path d="M65.4388 32.2168L66.1146 36.3395C66.1159 36.3909 66.1318 36.4409 66.1605 36.4835C66.1892 36.5262 66.2294 36.5598 66.2765 36.5804C66.3236 36.601 66.3756 36.6077 66.4264 36.5998C66.4772 36.5919 66.5247 36.5697 66.5633 36.5358L69.508 34.5827C69.554 34.5485 69.6072 34.5252 69.6635 34.5143C69.7198 34.5035 69.7778 34.5055 69.8332 34.5201C69.8887 34.5347 69.9401 34.5616 69.9837 34.5988C70.0274 34.636 70.0621 34.6825 70.0853 34.7349C70.3479 35.259 70.6724 35.7496 71.052 36.1962C71.1373 36.301 71.1973 36.424 71.2273 36.5557C71.2574 36.6874 71.2568 36.8243 71.2255 36.9557L69.8087 41.5745C69.7736 41.6912 69.7838 41.8169 69.8372 41.9264C69.8906 42.0359 69.9834 42.1213 70.0969 42.1655L72.6131 43.1158C72.7278 43.1578 72.8542 43.1552 72.9671 43.1085C73.0801 43.0618 73.1714 42.9745 73.223 42.8637L75.2024 38.45C75.2661 38.3304 75.3563 38.2269 75.4661 38.1474C75.5758 38.068 75.7023 38.0146 75.8359 37.9914C76.4154 37.9106 76.9826 37.7581 77.5245 37.5375C77.5759 37.5135 77.632 37.5012 77.6887 37.5015C77.7454 37.5018 77.8014 37.5147 77.8525 37.5394C77.9036 37.564 77.9486 37.5997 77.9842 37.6438C78.0198 37.688 78.0452 37.7395 78.0584 37.7947L78.9737 41.205C78.9795 41.2566 79 41.3054 79.0327 41.3456C79.0654 41.3858 79.109 41.4157 79.1583 41.4319C79.2076 41.448 79.2604 41.4496 79.3106 41.4365C79.3608 41.4234 79.4061 41.3962 79.4412 41.358L82.6733 38.7116C82.7746 38.6191 82.8555 38.5066 82.911 38.3811C82.9664 38.2557 82.9952 38.1201 82.9954 37.9829L82.7043 33.95C82.7007 33.6633 82.7906 33.3832 82.9604 33.1522C83.5594 32.3803 84.1075 31.5702 84.6012 30.7271C84.6712 30.6162 84.7714 30.5277 84.89 30.4721C85.0087 30.4164 85.1408 30.3959 85.2708 30.413L87.6934 30.8372C87.8179 30.855 87.9447 30.8308 88.0539 30.7687C88.1632 30.7065 88.2487 30.6097 88.2969 30.4937L90.1757 25.5162C90.2171 25.3973 90.2176 25.2681 90.177 25.149C90.1365 25.0299 90.0573 24.9277 89.952 24.8588L87.8543 23.5754C87.7461 23.5018 87.661 23.3991 87.6088 23.2791C87.5566 23.1592 87.5394 23.0269 87.5593 22.8976C87.7492 21.9399 87.8737 20.9703 87.9317 19.9956C87.961 19.7091 88.0812 19.4394 88.2749 19.2261L91.1601 16.3986C91.2534 16.2969 91.324 16.1764 91.3669 16.0451C91.4099 15.9139 91.4244 15.775 91.4093 15.6378L90.7359 11.5128C90.7346 11.4611 90.7186 11.4109 90.6896 11.3681C90.6606 11.3253 90.62 11.2917 90.5725 11.2713C90.525 11.2508 90.4727 11.2445 90.4217 11.2529C90.3707 11.2613 90.3232 11.2841 90.2848 11.3187L87.3303 13.2806C87.2842 13.3148 87.2311 13.3381 87.1748 13.3489C87.1185 13.3598 87.0605 13.3578 87.005 13.3432C86.9496 13.3286 86.8981 13.3016 86.8545 13.2645C86.8109 13.2273 86.7762 13.1808 86.7529 13.1284C86.4911 12.6052 86.1673 12.1154 85.7884 11.6696C85.7027 11.5645 85.6422 11.4412 85.6117 11.3091C85.5813 11.1769 85.5816 11.0396 85.6128 10.9076L87.0296 6.28876C87.0646 6.17205 87.0544 6.04643 87.001 5.9369C86.9476 5.82738 86.8549 5.742 86.7413 5.69777L84.2252 4.74748C84.1104 4.70626 83.9843 4.70926 83.8716 4.75586C83.7588 4.80246 83.6675 4.88934 83.6153 4.99961L81.6359 9.41328C81.5711 9.53225 81.4802 9.63505 81.3702 9.71403C81.2601 9.79301 81.1336 9.84612 81.0002 9.8694C80.4207 9.95024 79.8535 10.1027 79.3116 10.3233C79.2602 10.3474 79.2041 10.3597 79.1474 10.3594C79.0906 10.359 79.0347 10.3461 78.9836 10.3215C78.9324 10.2969 78.8875 10.2612 78.8518 10.217C78.8162 10.1728 78.7909 10.1213 78.7776 10.0661L77.8623 6.65579C77.8571 6.60418 77.837 6.55519 77.8044 6.51483C77.7718 6.47447 77.7282 6.44448 77.6788 6.42851C77.6295 6.41255 77.5766 6.4113 77.5265 6.42493C77.4765 6.43856 77.4315 6.46648 77.397 6.50527L74.1628 9.14924C74.0608 9.24175 73.9792 9.35455 73.9233 9.4804C73.8674 9.60625 73.8384 9.74239 73.8382 9.8801L74.1317 13.9108C74.1363 14.1979 74.0499 14.479 73.8847 14.7139C73.2831 15.4839 72.7349 16.2941 72.2438 17.1389C72.1728 17.2486 72.0724 17.3362 71.954 17.3918C71.8357 17.4473 71.7041 17.4685 71.5743 17.453L69.1495 17.0263C69.025 17.0086 68.8982 17.0327 68.789 17.0949C68.6797 17.1571 68.5943 17.2538 68.546 17.3699L66.6872 22.3252C66.6458 22.444 66.6453 22.5733 66.6858 22.6924C66.7264 22.8115 66.8056 22.9136 66.9109 22.9825L69.0086 24.266C69.1168 24.3396 69.2019 24.4423 69.2541 24.5622C69.3063 24.6822 69.3234 24.8145 69.3035 24.9438C69.1148 25.9017 68.9904 26.8712 68.9311 27.8457C68.9019 28.1323 68.7816 28.402 68.588 28.6152L65.7028 31.4427C65.6061 31.5455 65.5326 31.6677 65.487 31.8012C65.4415 31.9347 65.425 32.0764 65.4388 32.2168ZM77.2787 16.9662C80.2974 14.4966 83.2546 15.6147 83.8876 19.4665C84.5207 23.3182 82.5827 28.4325 79.5664 30.8998C76.5501 33.3672 73.5905 32.2513 72.9575 28.3995C72.3244 24.5478 74.2648 19.4314 77.2787 16.9662Z" fill="url(#paint5_linear_442_1091)"/>
<path opacity="0.55" d="M65.4388 32.2168L66.1146 36.3395C66.1159 36.3909 66.1318 36.4409 66.1605 36.4835C66.1892 36.5262 66.2294 36.5598 66.2765 36.5804C66.3236 36.601 66.3756 36.6077 66.4264 36.5998C66.4772 36.5919 66.5247 36.5697 66.5633 36.5358L69.508 34.5827C69.554 34.5485 69.6072 34.5252 69.6635 34.5143C69.7198 34.5035 69.7778 34.5055 69.8332 34.5201C69.8887 34.5347 69.9401 34.5616 69.9837 34.5988C70.0274 34.636 70.0621 34.6825 70.0853 34.7349C70.3479 35.259 70.6724 35.7496 71.052 36.1962C71.1373 36.301 71.1973 36.424 71.2273 36.5557C71.2574 36.6874 71.2568 36.8243 71.2255 36.9557L69.8087 41.5745C69.7736 41.6912 69.7838 41.8169 69.8372 41.9264C69.8906 42.0359 69.9834 42.1213 70.0969 42.1655L72.6131 43.1158C72.7278 43.1578 72.8542 43.1552 72.9671 43.1085C73.0801 43.0618 73.1714 42.9745 73.223 42.8637L75.2024 38.45C75.2661 38.3304 75.3563 38.2269 75.4661 38.1474C75.5758 38.068 75.7023 38.0146 75.8359 37.9914C76.4154 37.9106 76.9826 37.7581 77.5245 37.5375C77.5759 37.5135 77.632 37.5012 77.6887 37.5015C77.7454 37.5018 77.8014 37.5147 77.8525 37.5394C77.9036 37.564 77.9486 37.5997 77.9842 37.6438C78.0198 37.688 78.0452 37.7395 78.0584 37.7947L78.9737 41.205C78.9795 41.2566 79 41.3054 79.0327 41.3456C79.0654 41.3858 79.109 41.4157 79.1583 41.4319C79.2076 41.448 79.2604 41.4496 79.3106 41.4365C79.3608 41.4234 79.4061 41.3962 79.4412 41.358L82.6733 38.7116C82.7746 38.6191 82.8555 38.5066 82.911 38.3811C82.9664 38.2557 82.9952 38.1201 82.9954 37.9829L82.7043 33.95C82.7007 33.6633 82.7906 33.3832 82.9604 33.1522C83.5594 32.3803 84.1075 31.5702 84.6012 30.7271C84.6712 30.6162 84.7714 30.5277 84.89 30.4721C85.0087 30.4164 85.1408 30.3959 85.2708 30.413L87.6934 30.8372C87.8179 30.855 87.9447 30.8308 88.0539 30.7687C88.1632 30.7065 88.2487 30.6097 88.2969 30.4937L90.1757 25.5162C90.2171 25.3973 90.2176 25.2681 90.177 25.149C90.1365 25.0299 90.0573 24.9277 89.952 24.8588L87.8543 23.5754C87.7461 23.5018 87.661 23.3991 87.6088 23.2791C87.5566 23.1592 87.5394 23.0269 87.5593 22.8976C87.7492 21.9399 87.8737 20.9703 87.9317 19.9956C87.961 19.7091 88.0812 19.4394 88.2749 19.2261L91.1601 16.3986C91.2534 16.2969 91.324 16.1764 91.3669 16.0451C91.4099 15.9139 91.4244 15.775 91.4093 15.6378L90.7359 11.5128C90.7346 11.4611 90.7186 11.4109 90.6896 11.3681C90.6606 11.3253 90.62 11.2917 90.5725 11.2713C90.525 11.2508 90.4727 11.2445 90.4217 11.2529C90.3707 11.2613 90.3232 11.2841 90.2848 11.3187L87.3303 13.2806C87.2842 13.3148 87.2311 13.3381 87.1748 13.3489C87.1185 13.3598 87.0605 13.3578 87.005 13.3432C86.9496 13.3286 86.8981 13.3016 86.8545 13.2645C86.8109 13.2273 86.7762 13.1808 86.7529 13.1284C86.4911 12.6052 86.1673 12.1154 85.7884 11.6696C85.7027 11.5645 85.6422 11.4412 85.6117 11.3091C85.5813 11.1769 85.5816 11.0396 85.6128 10.9076L87.0296 6.28876C87.0646 6.17205 87.0544 6.04643 87.001 5.9369C86.9476 5.82738 86.8549 5.742 86.7413 5.69777L84.2252 4.74748C84.1104 4.70626 83.9843 4.70926 83.8716 4.75586C83.7588 4.80246 83.6675 4.88934 83.6153 4.99961L81.6359 9.41328C81.5711 9.53225 81.4802 9.63505 81.3702 9.71403C81.2601 9.79301 81.1336 9.84612 81.0002 9.8694C80.4207 9.95024 79.8535 10.1027 79.3116 10.3233C79.2602 10.3474 79.2041 10.3597 79.1474 10.3594C79.0906 10.359 79.0347 10.3461 78.9836 10.3215C78.9324 10.2969 78.8875 10.2612 78.8518 10.217C78.8162 10.1728 78.7909 10.1213 78.7776 10.0661L77.8623 6.65579C77.8571 6.60418 77.837 6.55519 77.8044 6.51483C77.7718 6.47447 77.7282 6.44448 77.6788 6.42851C77.6295 6.41255 77.5766 6.4113 77.5265 6.42493C77.4765 6.43856 77.4315 6.46648 77.397 6.50527L74.1628 9.14924C74.0608 9.24175 73.9792 9.35455 73.9233 9.4804C73.8674 9.60625 73.8384 9.74239 73.8382 9.8801L74.1317 13.9108C74.1363 14.1979 74.0499 14.479 73.8847 14.7139C73.2831 15.4839 72.7349 16.2941 72.2438 17.1389C72.1728 17.2486 72.0724 17.3362 71.954 17.3918C71.8357 17.4473 71.7041 17.4685 71.5743 17.453L69.1495 17.0263C69.025 17.0086 68.8982 17.0327 68.789 17.0949C68.6797 17.1571 68.5943 17.2538 68.546 17.3699L66.6872 22.3252C66.6458 22.444 66.6453 22.5733 66.6858 22.6924C66.7264 22.8115 66.8056 22.9136 66.9109 22.9825L69.0086 24.266C69.1168 24.3396 69.2019 24.4423 69.2541 24.5622C69.3063 24.6822 69.3234 24.8145 69.3035 24.9438C69.1148 25.9017 68.9904 26.8712 68.9311 27.8457C68.9019 28.1323 68.7816 28.402 68.588 28.6152L65.7028 31.4427C65.6061 31.5455 65.5326 31.6677 65.487 31.8012C65.4415 31.9347 65.425 32.0764 65.4388 32.2168ZM77.2787 16.9662C80.2974 14.4966 83.2546 15.6147 83.8876 19.4665C84.5207 23.3182 82.5827 28.4325 79.5664 30.8998C76.5501 33.3672 73.5905 32.2513 72.9575 28.3995C72.3244 24.5478 74.2648 19.4314 77.2787 16.9662Z" fill="white"/>
<g opacity="0.55">
<path d="M72.7998 42.8444C72.771 42.849 72.7415 42.8465 72.7139 42.8372L70.1977 41.8869C70.1574 41.8692 70.1248 41.8377 70.1056 41.7981C70.0865 41.7584 70.0822 41.7133 70.0934 41.6707L71.5124 37.0543C71.5598 36.8728 71.5632 36.6825 71.5221 36.4994C71.4811 36.3163 71.3968 36.1456 71.2764 36.0017C70.9159 35.5767 70.6079 35.1098 70.3593 34.611C70.2954 34.4761 70.1897 34.3653 70.0579 34.2951C69.9261 34.2248 69.7753 34.1989 69.6276 34.221C69.5268 34.2399 69.4309 34.2789 69.3455 34.3356L66.4227 36.2736L65.7436 32.167C65.7301 31.9879 65.7881 31.8107 65.905 31.6743L68.7927 28.8446C69.0404 28.5781 69.193 28.2371 69.2267 27.8748C69.2842 26.9134 69.4071 25.957 69.5945 25.0123C69.6256 24.8218 69.6003 24.6263 69.5216 24.45C69.443 24.2737 69.3144 24.1243 69.1519 24.0201L67.052 22.7342C67.0079 22.7022 66.9748 22.6573 66.9573 22.6057C66.9398 22.5541 66.9387 22.4983 66.9541 22.4461L68.8351 17.471C68.8527 17.4314 68.8801 17.3969 68.9147 17.3707C68.9493 17.3445 68.9899 17.3275 69.0328 17.3212C69.0543 17.3165 69.0766 17.3162 69.0983 17.3203L71.5209 17.7445C71.6184 17.7613 71.718 17.7608 71.8152 17.7428C71.9574 17.7212 72.0932 17.6689 72.2131 17.5895C72.333 17.5101 72.4341 17.4055 72.5095 17.283C72.9934 16.4511 73.5332 15.6529 74.1249 14.8939C74.3389 14.5999 74.4498 14.2434 74.4401 13.8799L74.1466 9.84922C74.1476 9.75989 74.1662 9.67164 74.2014 9.58952C74.2366 9.5074 74.2876 9.43303 74.3516 9.37066L77.5664 6.73958L78.4759 10.1286C78.5178 10.2963 78.6216 10.4421 78.7664 10.5365C78.9112 10.631 79.0864 10.6673 79.2568 10.6382C79.3123 10.629 79.3665 10.6133 79.4183 10.5914C79.8877 10.4004 80.3764 10.261 80.8759 10.1756L81.0338 10.1496L81.0486 10.1365C81.2285 10.1032 81.3985 10.0292 81.5456 9.92036C81.6926 9.81149 81.8129 9.6705 81.8973 9.50813L83.8767 5.09445C83.8897 5.06802 83.9089 5.04515 83.9327 5.02781C83.9564 5.01046 83.9841 4.99916 84.0132 4.99489C84.0421 4.99146 84.0713 4.99394 84.0992 5.00217L86.6153 5.95246C86.6561 5.96959 86.6892 6.001 86.7084 6.04081C86.7276 6.08061 86.7316 6.12606 86.7197 6.16861L85.3007 10.785C85.2532 10.9665 85.2499 11.1568 85.291 11.3399C85.332 11.523 85.4162 11.6937 85.5367 11.8376C85.8972 12.2626 86.2051 12.7295 86.4537 13.2283C86.5168 13.3639 86.6223 13.4754 86.7544 13.5457C86.8864 13.6161 87.0377 13.6416 87.1855 13.6183C87.2867 13.6009 87.3829 13.5618 87.4676 13.5038L90.437 11.6081L91.1095 15.7073C91.123 15.8865 91.0649 16.0636 90.9481 16.2001L88.0604 19.0298C87.8143 19.2973 87.6619 19.6377 87.6263 19.9995C87.563 20.9555 87.435 21.9061 87.2432 22.8448C87.2121 23.0353 87.2374 23.2308 87.3161 23.4071C87.3947 23.5834 87.5233 23.7328 87.6858 23.837L89.7835 25.1204C89.8276 25.1525 89.8607 25.1974 89.8782 25.249C89.8957 25.3006 89.8968 25.3563 89.8814 25.4086L88.0048 30.3886C87.9872 30.4282 87.9598 30.4627 87.9252 30.4889C87.8906 30.515 87.85 30.5321 87.8071 30.5383C87.7857 30.5444 87.7632 30.5447 87.7416 30.5392L85.319 30.115C85.2215 30.0982 85.1219 30.0988 85.0247 30.1168C84.8825 30.1383 84.7467 30.1906 84.6268 30.27C84.5069 30.3494 84.4058 30.454 84.3304 30.5765C83.8465 31.4084 83.3068 32.2067 82.715 32.9657C82.501 33.2596 82.3901 33.6161 82.3998 33.9796L82.6933 38.0103C82.6923 38.0997 82.6737 38.1879 82.6385 38.27C82.6034 38.3522 82.5523 38.4265 82.4884 38.4889L79.2735 41.12L78.364 37.731C78.3216 37.5631 78.2173 37.4175 78.072 37.3234C77.9267 37.2293 77.7511 37.1936 77.5806 37.2236C77.5262 37.2327 77.4729 37.2477 77.4216 37.2681C76.9518 37.4578 76.4632 37.5972 75.964 37.684L75.8039 37.7075L75.7891 37.7206C75.609 37.7536 75.4389 37.8276 75.2921 37.937C75.1453 38.0464 75.0257 38.1882 74.9426 38.3514L72.9522 42.7528C72.9393 42.7792 72.9201 42.8021 72.8963 42.8194C72.8725 42.8368 72.8449 42.8481 72.8157 42.8524M79.8155 15.4173C78.8122 15.6142 77.8788 16.0728 77.1099 16.7467C74.0225 19.2731 72.0365 24.5316 72.6809 28.4705C72.9094 29.8566 73.4412 30.9636 74.2172 31.6807C74.5968 32.0279 75.0521 32.282 75.547 32.4227C76.0418 32.5634 76.5627 32.587 77.0682 32.4915C78.0705 32.292 79.0028 31.8327 79.7717 31.1596C82.8591 28.6332 84.8451 23.3747 84.2007 19.4359C83.7428 16.6379 82.0168 15.0629 79.8057 15.4261M72.8649 43.1751C72.9437 43.1613 73.018 43.129 73.0817 43.0806C73.1454 43.0323 73.1967 42.9694 73.2311 42.8973L75.2105 38.4836C75.273 38.3669 75.3609 38.2657 75.4676 38.1874C75.5743 38.1091 75.6972 38.0557 75.8273 38.031L75.8396 38.0201L76.0044 37.9969C76.5264 37.9088 77.0373 37.7644 77.5282 37.5661C77.5604 37.5536 77.5938 37.5446 77.6278 37.5392C77.7229 37.5216 77.821 37.5413 77.9019 37.5943C77.9828 37.6472 78.0402 37.7292 78.0622 37.8234L78.9775 41.2337C78.9865 41.3038 79.0227 41.3677 79.0782 41.4114C79.1337 41.4552 79.2042 41.4755 79.2745 41.4679C79.3374 41.4561 79.3962 41.4281 79.445 41.3867L82.677 38.7402C82.7783 38.6478 82.8593 38.5352 82.9147 38.4098C82.9702 38.2843 82.9989 38.1487 82.9992 38.0116L82.7081 33.9787C82.6973 33.6827 82.7864 33.3918 82.9611 33.1526C83.5601 32.3807 84.1082 31.5707 84.6019 30.7276C84.6541 30.6443 84.7236 30.5731 84.8057 30.519C84.8878 30.4649 84.9805 30.4291 85.0776 30.414C85.1418 30.4034 85.2072 30.4033 85.2715 30.4135L87.6941 30.8377C87.7497 30.8482 87.8067 30.8484 87.8622 30.838C87.9581 30.8225 88.0484 30.7828 88.1246 30.7226C88.2008 30.6624 88.2603 30.5838 88.2976 30.4941L90.1764 25.5166C90.2178 25.3978 90.2183 25.2685 90.1777 25.1494C90.1372 25.0303 90.058 24.9282 89.9527 24.8593L87.855 23.5758C87.7468 23.5023 87.6617 23.3995 87.6095 23.2796C87.5573 23.1596 87.5401 23.0274 87.56 22.8981C87.7499 21.9403 87.8744 20.9707 87.9324 19.9961C87.9617 19.7095 88.0819 19.4398 88.2756 19.2266L91.1608 16.3991C91.2541 16.2973 91.3247 16.1768 91.3676 16.0456C91.4106 15.9144 91.4251 15.7755 91.41 15.6382L90.7366 11.5133C90.7356 11.476 90.7268 11.4393 90.7108 11.4057C90.6948 11.372 90.6719 11.342 90.6436 11.3178C90.6153 11.2935 90.5822 11.2754 90.5465 11.2647C90.5108 11.2539 90.4732 11.2508 90.4362 11.2555C90.3818 11.2648 90.3302 11.2866 90.2855 11.3192L87.331 13.2811C87.2819 13.3139 87.2265 13.3362 87.1684 13.3465C87.0844 13.3611 86.9978 13.3474 86.9224 13.3075C86.8469 13.2677 86.7868 13.204 86.7514 13.1263C86.4896 12.6032 86.1658 12.1134 85.7869 11.6675C85.7012 11.5625 85.6407 11.4392 85.6102 11.3071C85.5798 11.1749 85.5801 11.0376 85.6113 10.9056L87.0281 6.28676C87.0631 6.17005 87.0529 6.04442 86.9995 5.93489C86.9461 5.82537 86.8534 5.74 86.7398 5.69577L84.2237 4.74548C84.1465 4.7171 84.0633 4.7091 83.9822 4.72225C83.903 4.7346 83.828 4.76614 83.7638 4.81414C83.6995 4.86213 83.648 4.92513 83.6138 4.99761L81.6344 9.41128C81.5708 9.52802 81.482 9.62915 81.3746 9.70737C81.2671 9.78559 81.1436 9.83894 81.0129 9.86355C80.959 9.86745 80.9023 9.8782 80.8481 9.88676C80.3261 9.97482 79.8152 10.1192 79.3243 10.3175L79.2269 10.3469C79.1313 10.3633 79.0331 10.3429 78.9521 10.2897C78.8711 10.2365 78.8133 10.1545 78.7904 10.0603L77.8751 6.64993C77.8661 6.57979 77.8299 6.51597 77.7743 6.47218C77.7188 6.42839 77.6483 6.40812 77.578 6.41569C77.515 6.42668 77.4565 6.45577 77.4097 6.49941L74.1755 9.14339C74.0735 9.2359 73.9919 9.34869 73.936 9.47454C73.8802 9.6004 73.8512 9.73654 73.8509 9.87424L74.1445 13.905C74.1491 14.192 74.0626 14.4732 73.8975 14.708C73.2959 15.478 72.7476 16.2882 72.2566 17.1331C72.2028 17.2159 72.1322 17.2865 72.0495 17.3405C71.9668 17.3944 71.8737 17.4305 71.7762 17.4463C71.7135 17.4547 71.6499 17.4549 71.5871 17.4471L69.1622 17.0205C69.1067 17.0099 69.0497 17.0098 68.9941 17.0201C68.8983 17.0357 68.808 17.0754 68.7318 17.1356C68.6556 17.1957 68.596 17.2744 68.5587 17.364L66.6879 22.3257C66.6465 22.4445 66.646 22.5737 66.6865 22.6928C66.7271 22.812 66.8063 22.9141 66.9116 22.983L69.0093 24.2665C69.1175 24.34 69.2026 24.4427 69.2548 24.5627C69.307 24.6826 69.3241 24.8149 69.3042 24.9442C69.1155 25.9022 68.9911 26.8716 68.9318 27.8462C68.9026 28.1328 68.7823 28.4024 68.5887 28.6157L65.7035 31.4432C65.6105 31.5457 65.54 31.6666 65.4966 31.798C65.4533 31.9295 65.438 32.0685 65.4518 32.2063L66.1276 36.329C66.1286 36.3663 66.1374 36.4029 66.1534 36.4366C66.1695 36.4703 66.1924 36.5002 66.2207 36.5245C66.249 36.5488 66.282 36.5669 66.3177 36.5776C66.3535 36.5883 66.391 36.5915 66.428 36.5868C66.4815 36.5777 66.5322 36.5567 66.5763 36.5253L69.521 34.5721C69.5701 34.5393 69.6254 34.517 69.6835 34.5068C69.7666 34.4947 69.8513 34.5101 69.9248 34.5506C69.9983 34.5911 70.0567 34.6544 70.0909 34.731C70.3535 35.255 70.678 35.7456 71.0576 36.1923C71.1429 36.2971 71.2029 36.4201 71.233 36.5518C71.263 36.6835 71.2624 36.8204 71.2311 36.9518L69.8143 41.5706C69.7792 41.6873 69.7894 41.8129 69.8428 41.9225C69.8963 42.032 69.989 42.1174 70.1025 42.1616L72.6187 43.1119C72.6967 43.14 72.7803 43.1488 72.8624 43.1376L72.8649 43.1751ZM79.8537 15.7277C81.8338 15.4026 83.4511 16.7565 83.8988 19.4885C84.5318 23.3403 82.5938 28.4545 79.5776 30.9219C78.8505 31.5615 77.9676 31.998 77.018 32.1874C75.0379 32.5124 73.4206 31.1585 72.9752 28.429C72.3421 24.5772 74.2779 19.4606 77.2942 16.9932C78.023 16.3563 78.9052 15.9202 79.8537 15.7277Z" fill="white"/>
</g>
<defs>
<linearGradient id="paint0_linear_442_1091" x1="40.1504" y1="47.356" x2="34.2755" y2="0.816831" gradientUnits="userSpaceOnUse">
<stop stop-color="#5A45FF"/>
<stop offset="0.265384" stop-color="#7D71FF"/>
<stop offset="0.478947" stop-color="#7C81FF"/>
<stop offset="1" stop-color="#000099"/>
</linearGradient>
<linearGradient id="paint1_linear_442_1091" x1="33.4771" y1="45.2054" x2="27.7007" y2="5.47423" gradientUnits="userSpaceOnUse">
<stop stop-color="#5A45FF"/>
<stop offset="0.265384" stop-color="#7D71FF"/>
<stop offset="0.478947" stop-color="#7C81FF"/>
<stop offset="1" stop-color="#000099"/>
</linearGradient>
<linearGradient id="paint2_linear_442_1091" x1="41.8273" y1="43.3997" x2="38.414" y2="1.91748" gradientUnits="userSpaceOnUse">
<stop stop-color="#5A45FF"/>
<stop offset="0.265384" stop-color="#7D71FF"/>
<stop offset="0.478947" stop-color="#7C81FF"/>
<stop offset="1" stop-color="#000099"/>
</linearGradient>
<linearGradient id="paint3_linear_442_1091" x1="90.4402" y1="27.1843" x2="58.877" y2="15.7419" gradientUnits="userSpaceOnUse">
<stop stop-color="#5A45FF"/>
<stop offset="0.265384" stop-color="#7D71FF"/>
<stop offset="0.478947" stop-color="#7C81FF"/>
<stop offset="1" stop-color="#000099"/>
</linearGradient>
<linearGradient id="paint4_linear_442_1091" x1="90.9974" y1="30.8676" x2="75.3746" y2="21.3844" gradientUnits="userSpaceOnUse">
<stop stop-color="#5A45FF"/>
<stop offset="0.265384" stop-color="#7D71FF"/>
<stop offset="0.478947" stop-color="#7C81FF"/>
<stop offset="1" stop-color="#000099"/>
</linearGradient>
<linearGradient id="paint5_linear_442_1091" x1="88.2484" y1="26.173" x2="59.4756" y2="14.9762" gradientUnits="userSpaceOnUse">
<stop stop-color="#5A45FF"/>
<stop offset="0.265384" stop-color="#7D71FF"/>
<stop offset="0.478947" stop-color="#7C81FF"/>
<stop offset="1" stop-color="#000099"/>
</linearGradient>
</defs>
</svg>
