<svg width="56" height="55" viewBox="0 0 56 55" fill="none" xmlns="http://www.w3.org/2000/svg">
<path d="M36.4733 54.0771C35.0251 53.8913 34.5668 52.8008 35.4519 51.639C36.337 50.4773 38.2179 49.687 39.672 49.8708C41.1261 50.0545 41.5766 51.1471 40.6934 52.3088C39.8103 53.4705 37.9215 54.2608 36.4733 54.0771Z" fill="#263238"/>
<path d="M41.1319 51.3565L40.6478 51.5541C40.3973 51.35 40.0907 51.2267 39.7687 51.2004C38.5832 51.0503 37.056 51.6944 36.3368 52.6388C36.1302 52.8872 36.0035 53.1923 35.9733 53.514L35.4893 53.7116L36.4139 54.3596C36.6408 54.5028 36.8978 54.5914 37.1647 54.6184C38.3501 54.7686 39.8793 54.1245 40.5985 53.1801C40.7661 52.9705 40.8831 52.7251 40.9403 52.4629L41.1319 51.3565Z" fill="url(#paint0_linear_348_986)"/>
<path opacity="0.4" d="M41.1319 51.3565L40.6478 51.5541C40.3973 51.35 40.0907 51.2267 39.7687 51.2004C38.5832 51.0503 37.056 51.6944 36.3368 52.6388C36.1302 52.8872 36.0035 53.1923 35.9733 53.514L35.4893 53.7116L36.4139 54.3596C36.6408 54.5028 36.8978 54.5914 37.1647 54.6184C38.3501 54.7686 39.8793 54.1245 40.5985 53.1801C40.7661 52.9705 40.8831 52.7251 40.9403 52.4629L41.1319 51.3565Z" fill="black"/>
<path d="M38.5707 53.1622C41.0109 52.1474 42.5143 50.183 41.9285 48.7745C41.3428 47.366 38.8898 47.0468 36.4496 48.0615C34.0094 49.0763 32.5061 51.0407 33.0918 52.4492C33.6775 53.8577 36.1305 54.1769 38.5707 53.1622Z" fill="url(#paint1_linear_348_986)"/>
<path d="M38.3382 52.6049C40.8691 51.5525 42.4283 49.515 41.8208 48.0541C41.2133 46.5932 38.6691 46.2621 36.1382 47.3146C33.6073 48.367 32.0482 50.4045 32.6557 51.8654C33.2632 53.3263 35.8073 53.6574 38.3382 52.6049Z" fill="url(#paint2_linear_348_986)"/>
<path opacity="0.2" d="M38.3382 52.6049C40.8691 51.5525 42.4283 49.515 41.8208 48.0541C41.2133 46.5932 38.6691 46.2621 36.1382 47.3146C33.6073 48.367 32.0482 50.4045 32.6557 51.8654C33.2632 53.3263 35.8073 53.6574 38.3382 52.6049Z" fill="black"/>
<path d="M38.0746 51.9721C40.6699 50.8929 42.2688 48.8034 41.6458 47.3052C41.0228 45.8071 38.4138 45.4675 35.8184 46.5468C33.2231 47.626 31.6242 49.7155 32.2472 51.2137C32.8702 52.7118 35.4792 53.0514 38.0746 51.9721Z" fill="url(#paint3_linear_348_986)"/>
<path d="M37.814 51.3396C40.4728 50.2339 42.1106 48.0929 41.4721 46.5574C40.8336 45.022 38.1606 44.6736 35.5017 45.7792C32.8429 46.8849 31.2051 49.026 31.8436 50.5614C32.4822 52.0969 35.1552 52.4453 37.814 51.3396Z" fill="url(#paint4_linear_348_986)"/>
<path opacity="0.2" d="M37.814 51.3396C40.4728 50.2339 42.1106 48.0929 41.4721 46.5574C40.8336 45.022 38.1606 44.6736 35.5017 45.7792C32.8429 46.8849 31.2051 49.026 31.8436 50.5614C32.4822 52.0969 35.1552 52.4453 37.814 51.3396Z" fill="black"/>
<path d="M37.5498 50.709C40.2731 49.5765 41.951 47.3843 41.2974 45.8126C40.6438 44.2409 37.9063 43.8848 35.1829 45.0173C32.4596 46.1498 30.7818 48.342 31.4354 49.9137C32.089 51.4854 34.8265 51.8415 37.5498 50.709Z" fill="url(#paint5_linear_348_986)"/>
<path d="M37.2863 50.077C40.0731 48.9181 41.7898 46.6743 41.1207 45.0653C40.4516 43.4563 37.6501 43.0914 34.8633 44.2503C32.0765 45.4092 30.3598 47.653 31.0289 49.262C31.698 50.871 34.4996 51.2359 37.2863 50.077Z" fill="#37474F"/>
<path d="M21.1357 11.2314C19.0492 12.098 17.1538 13.3671 15.5579 14.9662C13.9619 16.5654 12.6967 18.4633 11.8344 20.5516C10.972 22.6399 10.5296 24.8776 10.5322 27.1368C10.5349 29.3961 10.9826 31.6328 11.8499 33.719C17.0934 46.326 28.3668 44.0935 30.4809 49.175C30.8167 49.9851 31.688 50.5719 33.0157 50.7556C35.6691 51.1013 39.1404 49.6571 40.7644 47.5332C41.5784 46.4703 41.776 45.437 41.4401 44.6289C39.3261 39.5454 48.8589 33.1263 43.6134 20.5252C41.8648 16.3123 38.5144 12.9664 34.2991 11.2236C30.0839 9.4807 25.3489 9.48353 21.1357 11.2314Z" fill="url(#paint6_linear_348_986)"/>
<g style="mix-blend-mode:screen">
<path d="M21.1357 11.2314C19.0492 12.098 17.1538 13.3671 15.5579 14.9662C13.9619 16.5654 12.6967 18.4633 11.8344 20.5516C10.972 22.6399 10.5296 24.8776 10.5322 27.1368C10.5349 29.3961 10.9826 31.6328 11.8499 33.719C17.0934 46.326 28.3668 44.0935 30.4809 49.175C30.8167 49.9851 31.688 50.5719 33.0157 50.7556C35.6691 51.1013 39.1404 49.6571 40.7644 47.5332C41.5784 46.4703 41.776 45.437 41.4401 44.6289C39.3261 39.5454 48.8589 33.1263 43.6134 20.5252C41.8648 16.3123 38.5144 12.9664 34.2991 11.2236C30.0839 9.4807 25.3489 9.48353 21.1357 11.2314Z" fill="#8D8D8D"/>
</g>
<path d="M31.8844 14.2817C31.721 14.4505 31.5802 14.6398 31.4655 14.8448C31.0388 15.6015 31.1474 16.5854 31.5939 17.3303C32.4573 18.7725 34.3343 19.1084 35.6876 19.954C37.1727 20.8727 38.4831 22.0473 39.5581 23.4234C39.8781 23.8343 40.3622 24.5318 40.7731 24.8498C41.0352 25.0567 41.365 25.1586 41.6981 25.1356C42.0312 25.1126 42.3438 24.9663 42.575 24.7254C43.0551 24.1327 43.0531 23.2357 42.8891 22.5936C41.9013 18.7864 40.0559 16.4037 37.0943 14.3924C35.4861 13.2959 33.4116 12.717 31.8844 14.2817Z" fill="white"/>
<path opacity="0.6" d="M35.1584 32.7729C39.9491 27.9822 39.9491 20.215 35.1584 15.4244C30.3678 10.6338 22.6006 10.6338 17.81 15.4244C13.0193 20.215 13.0193 27.9822 17.81 32.7729C22.6006 37.5635 30.3678 37.5635 35.1584 32.7729Z" fill="white"/>
<path d="M41.389 27.4875C41.4125 27.7539 41.4923 28.0123 41.6231 28.2455C41.7539 28.4788 41.9327 28.6817 42.1477 28.8408C42.385 29.0069 42.6783 29.0726 42.9639 29.0238C43.2494 28.9749 43.5042 28.8155 43.6729 28.58C43.8421 28.3362 43.9475 28.0538 43.9796 27.7588C44.0117 27.4637 43.9694 27.1653 43.8567 26.8908C43.6057 26.3119 42.9696 25.8476 42.2978 26.0511C41.6715 26.2428 41.3495 26.9422 41.389 27.4875Z" fill="white"/>
<path opacity="0.15" d="M32.1269 46.6124C30.9415 44.7473 29.9378 43.8958 26.9308 43.6488C23.9237 43.4019 18.8303 43.2537 14.8789 38.8301C20.5729 45.7806 28.7287 44.9252 30.4871 49.169C30.8229 49.979 31.6942 50.5658 33.0219 50.7496C33.5944 50.8173 34.173 50.814 34.7447 50.7397C33.9959 49.5543 32.8599 47.7722 32.1269 46.6124Z" fill="url(#paint7_linear_348_986)"/>
<path opacity="0.15" d="M38.4792 43.9672C37.9952 41.8097 38.096 40.4998 40.046 38.1981C41.996 35.8964 45.4812 32.184 45.1275 26.2549C46.0423 35.195 39.6825 40.3733 41.4487 44.629C41.7846 45.4371 41.587 46.4704 40.7731 47.5333C40.4179 47.9873 40.0077 48.3954 39.5521 48.7484C39.2399 47.3733 38.7815 45.3166 38.4792 43.9672Z" fill="url(#paint8_linear_348_986)"/>
<path d="M25.243 23.5998C25.754 22.2287 25.0568 20.7029 23.6857 20.1919C22.3145 19.6809 20.7888 20.3782 20.2778 21.7493C19.7668 23.1204 20.464 24.6462 21.8352 25.1572C23.2063 25.6682 24.732 24.9709 25.243 23.5998Z" fill="url(#paint9_linear_348_986)"/>
<path opacity="0.2" d="M23.1535 24.3879C21.8041 24.7297 20.5633 23.8782 20.1129 22.6098C20.0995 22.9996 20.1725 23.3875 20.3265 23.7459C20.4805 24.1042 20.7117 24.4241 21.0038 24.6826C21.2958 24.9412 21.6413 25.132 22.0156 25.2415C22.39 25.351 22.7839 25.3764 23.1692 25.3159C23.5545 25.2555 23.9217 25.1106 24.2445 24.8917C24.5673 24.6728 24.8378 24.3853 25.0366 24.0498C25.2354 23.7142 25.3576 23.3389 25.3944 22.9506C25.4312 22.5623 25.3819 22.1707 25.2497 21.8037C25.4374 22.509 24.5899 24.0224 23.1535 24.3879Z" fill="black"/>
<path d="M24.4411 26.2508C24.8 26.6327 25.0377 27.1124 25.124 27.6293C25.2103 28.1462 25.1414 28.6771 24.9259 29.1548C24.7105 29.6326 24.3582 30.0357 23.9136 30.3132C23.469 30.5907 22.9521 30.7301 22.4283 30.7138C21.9045 30.6975 21.3973 30.5262 20.9708 30.2216C20.5444 29.9169 20.2178 29.4927 20.0325 29.0025C19.8472 28.5123 19.8114 27.9781 19.9297 27.4676C20.048 26.957 20.3151 26.493 20.6971 26.1343C21.2094 25.6539 21.8913 25.3964 22.5932 25.4183C23.2951 25.4401 23.9597 25.7396 24.4411 26.2508Z" fill="url(#paint10_linear_348_986)"/>
<path opacity="0.45" d="M24.4411 26.2508C24.8 26.6327 25.0377 27.1124 25.124 27.6293C25.2103 28.1462 25.1414 28.6771 24.9259 29.1548C24.7105 29.6326 24.3582 30.0357 23.9136 30.3132C23.469 30.5907 22.9521 30.7301 22.4283 30.7138C21.9045 30.6975 21.3973 30.5262 20.9708 30.2216C20.5444 29.9169 20.2178 29.4927 20.0325 29.0025C19.8472 28.5123 19.8114 27.9781 19.9297 27.4676C20.048 26.957 20.3151 26.493 20.6971 26.1343C21.2094 25.6539 21.8913 25.3964 22.5932 25.4183C23.2951 25.4401 23.9597 25.7396 24.4411 26.2508Z" fill="white"/>
<path opacity="0.2" d="M22.9045 29.7776C21.5551 30.1213 20.3144 29.2698 19.8639 27.9994C19.8503 28.3893 19.923 28.7773 20.0768 29.1358C20.2306 29.4943 20.4618 29.8144 20.7537 30.0731C21.0456 30.3319 21.3911 30.5229 21.7655 30.6326C22.1398 30.7423 22.5338 30.7678 22.9192 30.7075C23.3046 30.6472 23.6719 30.5024 23.9949 30.2836C24.3178 30.0648 24.5884 29.7773 24.7873 29.4417C24.9862 29.1061 25.1084 28.7307 25.1453 28.3424C25.1823 27.9541 25.1329 27.5624 25.0008 27.1953C25.1885 27.8987 24.3389 29.4121 22.9045 29.7776Z" fill="url(#paint11_linear_348_986)"/>
<path d="M28.4701 28.9006C28.8277 29.2829 29.064 29.7626 29.1493 30.2791C29.2345 30.7956 29.1648 31.3258 28.949 31.8027C28.7332 32.2796 28.381 32.6819 27.9367 32.9588C27.4925 33.2358 26.9762 33.3749 26.4529 33.3586C25.9297 33.3424 25.423 33.1715 24.9968 32.8675C24.5706 32.5636 24.244 32.1402 24.0582 31.6508C23.8724 31.1614 23.8358 30.628 23.9529 30.1177C24.07 29.6075 24.3356 29.1435 24.7163 28.7841C24.97 28.5445 25.2686 28.3574 25.5948 28.2335C25.9211 28.1097 26.2686 28.0515 26.6174 28.0623C26.9662 28.0731 27.3095 28.1528 27.6274 28.2966C27.9453 28.4405 28.2317 28.6458 28.4701 28.9006Z" fill="url(#paint12_linear_348_986)"/>
<path opacity="0.15" d="M28.4701 28.9006C28.8277 29.2829 29.064 29.7626 29.1493 30.2791C29.2345 30.7956 29.1648 31.3258 28.949 31.8027C28.7332 32.2796 28.381 32.6819 27.9367 32.9588C27.4925 33.2358 26.9762 33.3749 26.4529 33.3586C25.9297 33.3424 25.423 33.1715 24.9968 32.8675C24.5706 32.5636 24.244 32.1402 24.0582 31.6508C23.8724 31.1614 23.8358 30.628 23.9529 30.1177C24.07 29.6075 24.3356 29.1435 24.7163 28.7841C24.97 28.5445 25.2686 28.3574 25.5948 28.2335C25.9211 28.1097 26.2686 28.0515 26.6174 28.0623C26.9662 28.0731 27.3095 28.1528 27.6274 28.2966C27.9453 28.4405 28.2317 28.6458 28.4701 28.9006Z" fill="white"/>
<path opacity="0.4" d="M26.9329 32.427C25.5815 32.7708 24.3427 31.9172 23.8922 30.6488C23.8786 31.0387 23.9513 31.4267 24.1051 31.7852C24.2589 32.1437 24.4901 32.4638 24.782 32.7225C25.0739 32.9813 25.4194 33.1723 25.7938 33.282C26.1682 33.3917 26.5621 33.4172 26.9475 33.3569C27.3329 33.2966 27.7002 33.1518 28.0232 32.933C28.3461 32.7142 28.6167 32.4267 28.8156 32.0911C29.0145 31.7555 29.1368 31.3802 29.1737 30.9918C29.2106 30.6035 29.1612 30.2118 29.0291 29.8447C29.2168 30.5481 28.3732 32.0615 26.9329 32.427Z" fill="url(#paint13_linear_348_986)"/>
<path d="M32.9372 26.7549C33.2961 27.1367 33.5338 27.6164 33.6201 28.1334C33.7064 28.6503 33.6375 29.1812 33.422 29.6589C33.2066 30.1367 32.8543 30.5398 32.4097 30.8172C31.9651 31.0947 31.4482 31.2341 30.9244 31.2178C30.4006 31.2015 29.8934 31.0302 29.4669 30.7256C29.0405 30.421 28.7139 29.9968 28.5286 29.5066C28.3433 29.0163 28.3075 28.4822 28.4258 27.9716C28.5441 27.4611 28.8112 26.9971 29.1932 26.6383C29.4466 26.4 29.7445 26.214 30.0698 26.0908C30.3952 25.9677 30.7416 25.9099 31.0893 25.9207C31.437 25.9315 31.7792 26.0108 32.0963 26.1539C32.4133 26.2971 32.6991 26.5013 32.9372 26.7549Z" fill="url(#paint14_linear_348_986)"/>
<path opacity="0.2" d="M31.4006 30.2816C30.0512 30.6254 28.8104 29.7719 28.36 28.4936C28.3466 28.8834 28.4195 29.2713 28.5735 29.6297C28.7275 29.988 28.9588 30.3079 29.2508 30.5664C29.5428 30.825 29.8884 31.0158 30.2627 31.1253C30.6371 31.2348 31.031 31.2602 31.4163 31.1997C31.8016 31.1392 32.1688 30.9944 32.4916 30.7755C32.8144 30.5566 33.0849 30.2691 33.2837 29.9336C33.4824 29.598 33.6046 29.2227 33.6415 28.8344C33.6783 28.4461 33.6289 28.0545 33.4968 27.6875C33.6865 28.4027 32.8369 29.9161 31.4006 30.2816Z" fill="black"/>
<path d="M33.0436 22.0505C33.4026 22.4323 33.6402 22.912 33.7266 23.4289C33.8129 23.9458 33.7439 24.4768 33.5285 24.9545C33.313 25.4322 32.9607 25.8353 32.5161 26.1128C32.0716 26.3903 31.5547 26.5297 31.0309 26.5134C30.507 26.4971 29.9998 26.3258 29.5734 26.0212C29.1469 25.7166 28.8204 25.2923 28.635 24.8021C28.4497 24.3119 28.414 23.7778 28.5322 23.2672C28.6505 22.7567 28.9176 22.2927 29.2996 21.9339C29.8117 21.4531 30.4937 21.1952 31.1957 21.2171C31.8978 21.239 32.5625 21.5387 33.0436 22.0505Z" fill="url(#paint15_linear_348_986)"/>
<path opacity="0.45" d="M33.0436 22.0505C33.4026 22.4323 33.6402 22.912 33.7266 23.4289C33.8129 23.9458 33.7439 24.4768 33.5285 24.9545C33.313 25.4322 32.9607 25.8353 32.5161 26.1128C32.0716 26.3903 31.5547 26.5297 31.0309 26.5134C30.507 26.4971 29.9998 26.3258 29.5734 26.0212C29.1469 25.7166 28.8204 25.2923 28.635 24.8021C28.4497 24.3119 28.414 23.7778 28.5322 23.2672C28.6505 22.7567 28.9176 22.2927 29.2996 21.9339C29.8117 21.4531 30.4937 21.1952 31.1957 21.2171C31.8978 21.239 32.5625 21.5387 33.0436 22.0505Z" fill="white"/>
<path opacity="0.2" d="M31.5071 25.5775C30.1577 25.9213 28.9169 25.0678 28.4665 23.7895C28.4528 24.1793 28.5255 24.5674 28.6793 24.9259C28.8332 25.2843 29.0643 25.6044 29.3562 25.8632C29.6482 26.1219 29.9937 26.313 30.368 26.4226C30.7424 26.5323 31.1363 26.5579 31.5217 26.4975C31.9071 26.4372 32.2744 26.2925 32.5974 26.0736C32.9203 25.8548 33.1909 25.5673 33.3898 25.2318C33.5887 24.8962 33.711 24.5208 33.7479 24.1324C33.7848 23.7441 33.7354 23.3524 33.6033 22.9854C33.791 23.6986 32.9415 25.212 31.5071 25.5775Z" fill="url(#paint16_linear_348_986)"/>
<path d="M32.0718 24.3505C32.3562 24.6537 32.5443 25.0343 32.6124 25.4443C32.6805 25.8544 32.6256 26.2754 32.4545 26.6542C32.2834 27.033 32.0038 27.3526 31.6512 27.5725C31.2985 27.7925 30.8885 27.903 30.4731 27.89C30.0576 27.877 29.6553 27.7412 29.3171 27.4996C28.9788 27.2581 28.7198 26.9217 28.5726 26.533C28.4255 26.1442 28.3969 25.7206 28.4905 25.3156C28.5841 24.9106 28.7956 24.5425 29.0983 24.2577C29.505 23.8758 30.0467 23.6711 30.6043 23.6885C31.1619 23.7059 31.6897 23.9441 32.0718 24.3505Z" fill="url(#paint17_linear_348_986)"/>
<path opacity="0.3" d="M32.0718 24.3505C32.3562 24.6537 32.5443 25.0343 32.6124 25.4443C32.6805 25.8544 32.6256 26.2754 32.4545 26.6542C32.2834 27.033 32.0038 27.3526 31.6512 27.5725C31.2985 27.7925 30.8885 27.903 30.4731 27.89C30.0576 27.877 29.6553 27.7412 29.3171 27.4996C28.9788 27.2581 28.7198 26.9217 28.5726 26.533C28.4255 26.1442 28.3969 25.7206 28.4905 25.3156C28.5841 24.9106 28.7956 24.5425 29.0983 24.2577C29.505 23.8758 30.0467 23.6711 30.6043 23.6885C31.1619 23.7059 31.6897 23.9441 32.0718 24.3505Z" fill="white"/>
<path opacity="0.5" d="M30.8529 27.15C29.7801 27.4227 28.7962 26.745 28.4366 25.7295C28.4268 26.0387 28.4854 26.3462 28.6081 26.6303C28.7308 26.9143 28.9146 27.1677 29.1464 27.3726C29.3782 27.5774 29.6524 27.7286 29.9493 27.8154C30.2463 27.9022 30.5587 27.9225 30.8644 27.8747C31.1701 27.827 31.4614 27.7124 31.7178 27.5392C31.9741 27.366 32.1891 27.1384 32.3474 26.8726C32.5057 26.6068 32.6035 26.3094 32.6337 26.0015C32.664 25.6936 32.626 25.3828 32.5224 25.0913C32.6666 25.6583 31.9929 26.8596 30.8529 27.15Z" fill="url(#paint18_linear_348_986)"/>
<path d="M30.607 21.6538C30.6119 19.897 29.1917 18.4689 27.435 18.464C25.6782 18.4591 24.2501 19.8792 24.2452 21.636C24.2403 23.3928 25.6605 24.8209 27.4172 24.8258C29.174 24.8307 30.6021 23.4105 30.607 21.6538Z" fill="url(#paint19_linear_348_986)"/>
<path opacity="0.15" d="M30.607 21.6538C30.6119 19.897 29.1917 18.4689 27.435 18.464C25.6782 18.4591 24.2501 19.8792 24.2452 21.636C24.2403 23.3928 25.6605 24.8209 27.4172 24.8258C29.174 24.8307 30.6021 23.4105 30.607 21.6538Z" fill="white"/>
<path opacity="0.4" d="M27.9004 23.7026C26.2803 24.1155 24.7907 23.0921 24.2493 21.5569C24.2361 22.0233 24.3258 22.4869 24.5119 22.9148C24.698 23.3426 24.976 23.7243 25.3262 24.0326C25.6764 24.341 26.0902 24.5684 26.5381 24.6989C26.9861 24.8293 27.4573 24.8596 27.9183 24.7875C28.3793 24.7154 28.8187 24.5427 29.2054 24.2816C29.5922 24.0206 29.9167 23.6776 30.156 23.2771C30.3953 22.8765 30.5435 22.4282 30.59 21.964C30.6366 21.4997 30.5804 21.0309 30.4254 20.5908C30.6427 21.4463 29.6233 23.264 27.9004 23.7026Z" fill="url(#paint20_linear_348_986)"/>
<path d="M26.801 29.5722C28.5578 29.5722 29.9819 28.1481 29.9819 26.3914C29.9819 24.6346 28.5578 23.2104 26.801 23.2104C25.0443 23.2104 23.6201 24.6346 23.6201 26.3914C23.6201 28.1481 25.0443 29.5722 26.801 29.5722Z" fill="url(#paint21_linear_348_986)"/>
<path opacity="0.2" d="M27.2746 28.4462C25.6526 28.8591 24.1649 27.8357 23.6215 26.3006C23.6075 26.7677 23.6966 27.2322 23.8825 27.6609C24.0683 28.0897 24.3464 28.4723 24.6969 28.7814C25.0473 29.0905 25.4616 29.3186 25.9102 29.4495C26.3588 29.5804 26.8308 29.6108 27.2925 29.5386C27.7542 29.4664 28.1943 29.2933 28.5816 29.0318C28.9688 28.7702 29.2936 28.4265 29.533 28.0251C29.7724 27.6237 29.9203 27.1746 29.9664 26.7095C30.0125 26.2445 29.9555 25.775 29.7996 25.3345C30.0169 26.19 28.9975 28.0076 27.2746 28.4462Z" fill="black"/>
<path d="M25.5792 25.5686C25.6153 24.4071 24.703 23.4362 23.5415 23.4001C22.3799 23.364 21.4091 24.2764 21.373 25.4379C21.3369 26.5994 22.2492 27.5703 23.4107 27.6064C24.5723 27.6425 25.5431 26.7301 25.5792 25.5686Z" fill="url(#paint22_linear_348_986)"/>
<path opacity="0.3" d="M25.5792 25.5686C25.6153 24.4071 24.703 23.4362 23.5415 23.4001C22.3799 23.364 21.4091 24.2764 21.373 25.4379C21.3369 26.5994 22.2492 27.5703 23.4107 27.6064C24.5723 27.6425 25.5431 26.7301 25.5792 25.5686Z" fill="white"/>
<path opacity="0.5" d="M23.7902 26.8634C22.7173 27.136 21.7334 26.4682 21.3758 25.4448C21.3672 25.7533 21.4265 26.0598 21.5496 26.3428C21.6728 26.6257 21.8567 26.8781 22.0883 27.0819C22.32 27.2858 22.5936 27.4362 22.8899 27.5224C23.1862 27.6086 23.4978 27.6285 23.8027 27.5807C24.1075 27.5329 24.3981 27.4186 24.6538 27.2459C24.9095 27.0732 25.1241 26.8463 25.2822 26.5813C25.4404 26.3163 25.5383 26.0198 25.5689 25.7128C25.5996 25.4057 25.5623 25.0957 25.4596 24.8047C25.6078 25.3717 24.9301 26.573 23.7902 26.8634Z" fill="url(#paint23_linear_348_986)"/>
<path d="M47.9979 43.2639C47.8398 43.2639 47.6798 43.2639 47.5178 43.2541C47.4947 43.2533 47.472 43.248 47.4509 43.2384C47.4299 43.2288 47.4109 43.2152 47.3952 43.1984C47.3794 43.1815 47.3671 43.1617 47.359 43.14C47.3508 43.1184 47.3471 43.0954 47.3478 43.0723C47.3486 43.0492 47.3539 43.0265 47.3635 43.0054C47.3731 42.9844 47.3867 42.9655 47.4035 42.9497C47.4204 42.9339 47.4402 42.9216 47.4619 42.9135C47.4835 42.9054 47.5065 42.9016 47.5296 42.9024C48.1093 42.9248 48.6898 42.9037 49.2663 42.8392C49.2892 42.8363 49.3125 42.838 49.3348 42.8441C49.3571 42.8503 49.378 42.8608 49.3963 42.875C49.4145 42.8892 49.4298 42.9069 49.4412 42.927C49.4526 42.9471 49.46 42.9693 49.4628 42.9923C49.4657 43.0152 49.464 43.0385 49.4579 43.0608C49.4517 43.0831 49.4412 43.104 49.427 43.1223C49.4128 43.1405 49.3951 43.1558 49.375 43.1672C49.3549 43.1787 49.3327 43.186 49.3097 43.1889C48.8743 43.2403 48.4363 43.2653 47.9979 43.2639ZM45.7594 43.1079H45.7357C45.1805 43.0348 44.5897 42.9379 43.9812 42.8194C43.9386 42.8071 43.9022 42.7792 43.879 42.7414C43.8559 42.7036 43.8477 42.6584 43.8561 42.6149C43.8645 42.5713 43.8889 42.5325 43.9245 42.506C43.9601 42.4795 44.0043 42.4673 44.0484 42.4717C44.6411 42.5902 45.2338 42.687 45.7811 42.7562C45.8251 42.7627 45.8651 42.7855 45.8932 42.8201C45.9212 42.8547 45.9352 42.8985 45.9325 42.943C45.9298 42.9874 45.9105 43.0292 45.8784 43.0601C45.8464 43.091 45.8039 43.1087 45.7594 43.1098V43.1079ZM50.9891 42.7522C50.9551 42.7523 50.9218 42.7425 50.8934 42.7238C50.8649 42.7052 50.8426 42.6787 50.8291 42.6475C50.8195 42.6264 50.8142 42.6036 50.8135 42.5804C50.8128 42.5572 50.8167 42.5341 50.825 42.5124C50.8333 42.4908 50.8457 42.471 50.8617 42.4541C50.8776 42.4373 50.8968 42.4238 50.918 42.4144C51.0834 42.3419 51.2427 42.256 51.3941 42.1575C51.5361 42.0703 51.6686 41.9683 51.7892 41.8533C51.9419 41.711 52.0748 41.5488 52.1844 41.3712C52.1945 41.3471 52.2097 41.3255 52.2291 41.308C52.2484 41.2905 52.2714 41.2774 52.2964 41.2698C52.3213 41.2621 52.3477 41.2601 52.3735 41.2637C52.3994 41.2674 52.4241 41.2767 52.4459 41.2911C52.4678 41.3054 52.4862 41.3243 52.4999 41.3466C52.5136 41.3688 52.5222 41.3938 52.5251 41.4197C52.5281 41.4456 52.5253 41.4719 52.5169 41.4967C52.5086 41.5214 52.4949 41.544 52.4768 41.5628C52.3503 41.7664 52.1975 41.9524 52.0224 42.116C51.8876 42.2467 51.7392 42.3626 51.5798 42.4618C51.4142 42.5693 51.2405 42.6638 51.0602 42.7443C51.0382 42.7497 51.0155 42.7511 50.993 42.7483L50.9891 42.7522ZM42.2959 42.4341C42.2815 42.4361 42.2669 42.4361 42.2525 42.4341C41.6973 42.2958 41.1204 42.1397 40.5395 41.9698C40.4949 41.9561 40.4574 41.9255 40.4349 41.8846C40.4124 41.8437 40.4067 41.7956 40.419 41.7505C40.4254 41.7281 40.4361 41.7072 40.4506 41.689C40.4651 41.6708 40.4831 41.6557 40.5035 41.6445C40.5239 41.6332 40.5463 41.6262 40.5695 41.6237C40.5926 41.6212 40.616 41.6234 40.6383 41.63C41.2152 41.798 41.7862 41.954 42.3374 42.0923C42.3601 42.0977 42.3814 42.1074 42.4003 42.1211C42.4191 42.1347 42.435 42.152 42.4472 42.1718C42.4593 42.1916 42.4674 42.2137 42.4709 42.2367C42.4745 42.2597 42.4734 42.2831 42.4678 42.3057C42.457 42.3432 42.4341 42.3762 42.4027 42.3994C42.3712 42.4226 42.333 42.4348 42.294 42.4341H42.2959ZM38.9017 41.4463C38.8833 41.4492 38.8647 41.4492 38.8463 41.4463C38.2991 41.2665 37.736 41.0709 37.1709 40.8654C37.1272 40.8493 37.0915 40.8167 37.0715 40.7746C37.0516 40.7325 37.049 40.6842 37.0643 40.6402C37.072 40.6181 37.084 40.5978 37.0997 40.5805C37.1153 40.5631 37.1343 40.5491 37.1555 40.5392C37.1766 40.5292 37.1995 40.5236 37.2229 40.5226C37.2462 40.5217 37.2696 40.5254 37.2915 40.5335C37.8526 40.7311 38.4137 40.9286 38.957 41.1104C39.0014 41.1253 39.0381 41.1571 39.0592 41.1989C39.0802 41.2407 39.084 41.2891 39.0696 41.3337C39.0564 41.3676 39.0329 41.3965 39.0024 41.4163C38.972 41.4362 38.936 41.4459 38.8997 41.4443L38.9017 41.4463ZM35.5765 40.245C35.5547 40.2452 35.5331 40.2405 35.5133 40.2312C34.9739 40.0218 34.4207 39.7966 33.8715 39.5654C33.8501 39.5564 33.8307 39.5434 33.8143 39.5269C33.798 39.5104 33.785 39.4909 33.7762 39.4695C33.7674 39.448 33.7629 39.425 33.763 39.4018C33.7631 39.3786 33.7677 39.3556 33.7767 39.3342C33.7856 39.3128 33.7987 39.2934 33.8152 39.277C33.8316 39.2607 33.8511 39.2477 33.8726 39.2389C33.8941 39.2301 33.9171 39.2256 33.9403 39.2257C33.9635 39.2258 33.9864 39.2304 34.0078 39.2394C34.5551 39.4706 35.1063 39.6918 35.6417 39.9032C35.6854 39.9204 35.7204 39.9542 35.7393 39.9971C35.7582 40.04 35.7593 40.0887 35.7425 40.1324C35.7287 40.1655 35.7054 40.1937 35.6754 40.2134C35.6455 40.2331 35.6104 40.2435 35.5746 40.2431L35.5765 40.245ZM52.704 40.004C52.6585 40.0041 52.6147 39.9867 52.5816 39.9555C52.5486 39.9242 52.5287 39.8815 52.5262 39.8361C52.4827 39.267 52.3458 38.709 52.1212 38.1844C52.1125 38.1628 52.1082 38.1398 52.1085 38.1166C52.1088 38.0934 52.1137 38.0705 52.1229 38.0492C52.132 38.0279 52.1453 38.0086 52.162 37.9925C52.1787 37.9764 52.1984 37.9637 52.22 37.9552C52.2413 37.9462 52.2643 37.9416 52.2875 37.9416C52.3106 37.9416 52.3336 37.9463 52.3549 37.9553C52.3763 37.9643 52.3956 37.9775 52.4118 37.9941C52.428 38.0107 52.4407 38.0304 52.4491 38.052C52.6894 38.6129 52.8349 39.2098 52.8798 39.8183C52.8812 39.8415 52.8779 39.8648 52.8701 39.8868C52.8624 39.9088 52.8503 39.929 52.8347 39.9463C52.8191 39.9635 52.8002 39.9776 52.7791 39.9875C52.758 39.9974 52.7352 40.003 52.7119 40.004H52.704ZM32.3245 38.8759C32.2995 38.8759 32.2747 38.8712 32.2514 38.862C31.7219 38.625 31.1806 38.378 30.6412 38.1251C30.5988 38.1052 30.566 38.0692 30.55 38.0251C30.5341 37.981 30.5363 37.9324 30.5562 37.89C30.5762 37.8475 30.6121 37.8148 30.6562 37.7988C30.7003 37.7829 30.7489 37.7851 30.7914 37.805C31.3288 38.0559 31.8681 38.3029 32.3956 38.538C32.4333 38.5539 32.4642 38.5823 32.4831 38.6185C32.5021 38.6547 32.5078 38.6963 32.4994 38.7363C32.491 38.7762 32.4689 38.812 32.437 38.8375C32.4051 38.863 32.3653 38.8765 32.3245 38.8759ZM29.1239 37.3743C29.0965 37.3744 29.0695 37.3683 29.0448 37.3565C28.7195 37.1959 28.3902 37.0325 28.057 36.8666C27.8594 36.7658 27.6618 36.669 27.4643 36.5564C27.4229 36.5344 27.3919 36.4968 27.3782 36.452C27.3645 36.4072 27.3691 36.3587 27.3912 36.3173C27.4132 36.2759 27.4507 36.245 27.4955 36.2313C27.5404 36.2176 27.5888 36.2222 27.6302 36.2442C27.8278 36.3489 28.0254 36.4418 28.2229 36.5505C28.5509 36.7164 28.8769 36.8797 29.2009 37.0404C29.2218 37.0503 29.2406 37.0643 29.256 37.0816C29.2715 37.0989 29.2833 37.119 29.2909 37.1409C29.2984 37.1628 29.3015 37.186 29.3 37.2091C29.2984 37.2323 29.2923 37.2548 29.2819 37.2755C29.2668 37.3067 29.2428 37.3327 29.2129 37.3503C29.183 37.3679 29.1486 37.3762 29.114 37.3743H29.1239ZM51.485 36.7243C51.4548 36.7239 51.4253 36.7159 51.3991 36.701C51.3728 36.6862 51.3507 36.665 51.3348 36.6394C51.0523 36.179 50.7184 35.695 50.347 35.1991C50.3329 35.1807 50.3226 35.1597 50.3167 35.1373C50.3108 35.1149 50.3093 35.0916 50.3125 35.0686C50.3156 35.0457 50.3232 35.0236 50.3349 35.0036C50.3466 34.9836 50.3621 34.9661 50.3806 34.9521C50.4181 34.9236 50.4653 34.9111 50.512 34.9174C50.5587 34.9237 50.6009 34.9483 50.6295 34.9857C51.0128 35.4895 51.3546 35.9735 51.643 36.4536C51.6672 36.4938 51.6745 36.5418 51.6634 36.5873C51.6523 36.6328 51.6237 36.6721 51.5838 36.6967C51.5515 36.7175 51.5134 36.7272 51.4751 36.7243H51.485ZM25.9864 35.7463C25.9567 35.7468 25.9273 35.7393 25.9015 35.7246C25.3746 35.4388 24.857 35.1563 24.3486 34.877C24.3283 34.8657 24.3105 34.8506 24.2961 34.8324C24.2817 34.8142 24.2711 34.7934 24.2648 34.7711C24.2584 34.7488 24.2566 34.7255 24.2592 34.7025C24.2619 34.6795 24.2691 34.6572 24.2804 34.637C24.2917 34.6167 24.3068 34.5989 24.325 34.5845C24.3432 34.5702 24.364 34.5595 24.3863 34.5532C24.4086 34.5468 24.4319 34.545 24.4549 34.5477C24.4779 34.5503 24.5002 34.5575 24.5204 34.5688C25.021 34.8454 25.5373 35.1273 26.0694 35.4144C26.09 35.4252 26.1082 35.44 26.1231 35.4579C26.1379 35.4758 26.149 35.4965 26.1558 35.5187C26.1626 35.5409 26.165 35.5643 26.1627 35.5874C26.1604 35.6106 26.1535 35.633 26.1425 35.6535C26.1265 35.6831 26.1024 35.7075 26.073 35.724C26.0436 35.7404 26.0102 35.7482 25.9765 35.7463H25.9864ZM22.8984 34.0255C22.8672 34.0253 22.8366 34.0172 22.8095 34.0018C22.3017 33.7034 21.79 33.3972 21.2901 33.091C21.2503 33.0666 21.2218 33.0274 21.2109 32.982C21.2 32.9366 21.2075 32.8888 21.2319 32.849C21.2562 32.8091 21.2954 32.7806 21.3408 32.7697C21.3862 32.7588 21.4341 32.7663 21.4739 32.7907C21.9718 33.0949 22.4815 33.3992 22.9873 33.6955C23.0278 33.7194 23.0573 33.7584 23.0691 33.804C23.081 33.8495 23.0743 33.8979 23.0505 33.9386C23.0342 33.9666 23.0104 33.9895 22.9818 34.0049C22.9532 34.0202 22.9209 34.0274 22.8885 34.0255H22.8984ZM49.3611 33.903C49.336 33.9025 49.3113 33.8968 49.2885 33.8862C49.2657 33.8757 49.2454 33.8605 49.2287 33.8417C48.9857 33.5651 48.7269 33.2787 48.4562 32.9922C48.3199 32.846 48.1796 32.6978 48.0354 32.5496C48.0029 32.5161 47.9851 32.471 47.9858 32.4243C47.9866 32.3777 48.0058 32.3332 48.0393 32.3007C48.0729 32.2682 48.1179 32.2504 48.1646 32.2511C48.2113 32.2519 48.2558 32.2711 48.2883 32.3046C48.4345 32.4528 48.5748 32.601 48.715 32.7492C48.9857 33.0396 49.2485 33.3281 49.4954 33.6086C49.517 33.6346 49.5307 33.6662 49.5352 33.6997C49.5396 33.7331 49.5345 33.7672 49.5205 33.7979C49.5065 33.8286 49.4841 33.8548 49.4559 33.8734C49.4277 33.8919 49.3949 33.9022 49.3611 33.903ZM19.8775 32.1821C19.844 32.1819 19.8111 32.1723 19.7827 32.1545C19.2868 31.8404 18.7948 31.5144 18.2969 31.1903C18.2776 31.1774 18.261 31.1607 18.2481 31.1413C18.2352 31.122 18.2263 31.1002 18.2218 31.0774C18.2173 31.0545 18.2174 31.031 18.2219 31.0082C18.2265 30.9854 18.2356 30.9637 18.2485 30.9444C18.2615 30.925 18.2782 30.9085 18.2975 30.8956C18.3169 30.8827 18.3387 30.8737 18.3615 30.8692C18.3843 30.8647 18.4078 30.8648 18.4307 30.8694C18.4535 30.8739 18.4752 30.883 18.4945 30.896C18.9845 31.22 19.4824 31.542 19.9763 31.8562C20.0079 31.8771 20.032 31.9076 20.045 31.9432C20.0581 31.9788 20.0594 32.0176 20.0488 32.054C20.0382 32.0904 20.0163 32.1225 19.9862 32.1456C19.9561 32.1686 19.9194 32.1814 19.8815 32.1821H19.8775ZM46.8994 31.3622C46.877 31.3624 46.8548 31.3582 46.8341 31.3497C46.8134 31.3412 46.7946 31.3287 46.7788 31.3128C46.3659 30.9177 45.9293 30.5225 45.4788 30.1274C45.4486 30.095 45.4315 30.0526 45.431 30.0083C45.4304 29.964 45.4464 29.9211 45.4758 29.888C45.5052 29.8549 45.546 29.8339 45.59 29.8293C45.634 29.8246 45.6782 29.8365 45.7139 29.8627C46.1664 30.2578 46.607 30.6668 47.0219 31.0619C47.0382 31.0783 47.0512 31.0977 47.0601 31.119C47.0689 31.1404 47.0735 31.1633 47.0735 31.1864C47.0735 31.2095 47.0689 31.2324 47.0601 31.2538C47.0512 31.2751 47.0382 31.2945 47.0219 31.3109C47.0052 31.3279 46.9852 31.3414 46.9631 31.3502C46.941 31.3591 46.9172 31.3631 46.8934 31.3622H46.8994ZM16.9297 30.2282C16.8937 30.2286 16.8584 30.2175 16.829 30.1966C16.341 29.8607 15.855 29.5169 15.3808 29.1751C15.3592 29.1627 15.3405 29.1458 15.3258 29.1257C15.3111 29.1056 15.3009 29.0826 15.2957 29.0582C15.2905 29.0339 15.2904 29.0087 15.2956 28.9843C15.3007 28.9599 15.3109 28.9369 15.3255 28.9167C15.3401 28.8966 15.3588 28.8797 15.3804 28.8672C15.4019 28.8547 15.4259 28.8469 15.4506 28.8442C15.4754 28.8416 15.5004 28.8442 15.5242 28.8518C15.5479 28.8595 15.5697 28.872 15.5882 28.8886C16.0585 29.2285 16.5445 29.5703 17.0285 29.9061C17.0673 29.9329 17.0938 29.9739 17.1023 30.0202C17.1108 30.0665 17.1006 30.1143 17.074 30.1531C17.0573 30.1773 17.0348 30.1968 17.0086 30.21C16.9823 30.2231 16.9532 30.2293 16.9238 30.2282H16.9297ZM14.061 28.1596C14.0216 28.1616 13.9827 28.1505 13.9504 28.128C13.4742 27.7684 13.004 27.4029 12.5476 27.0433C12.527 27.0297 12.5095 27.0119 12.4962 26.9911C12.4829 26.9703 12.474 26.947 12.4702 26.9226C12.4664 26.8982 12.4677 26.8733 12.4741 26.8495C12.4804 26.8256 12.4916 26.8033 12.5071 26.7841C12.5225 26.7648 12.5417 26.7489 12.5636 26.7375C12.5855 26.7261 12.6095 26.7193 12.6342 26.7177C12.6588 26.7161 12.6835 26.7196 12.7067 26.728C12.7299 26.7365 12.7511 26.7496 12.7689 26.7667C13.2213 27.1243 13.6896 27.4879 14.1637 27.8455C14.194 27.8674 14.2165 27.8985 14.2279 27.9342C14.2393 27.9698 14.239 28.0082 14.2271 28.0437C14.2152 28.0791 14.1923 28.1099 14.1617 28.1315C14.1312 28.153 14.0945 28.1643 14.0571 28.1635L14.061 28.1596ZM11.2851 25.9547C11.2432 25.9548 11.2027 25.9401 11.1705 25.9132C10.7102 25.5181 10.2578 25.1387 9.82706 24.7574C9.7917 24.7262 9.77017 24.6823 9.7672 24.6352C9.76424 24.5882 9.78008 24.5419 9.81125 24.5065C9.82665 24.4892 9.84533 24.4751 9.86619 24.465C9.88706 24.455 9.90971 24.4491 9.93285 24.4478C9.95598 24.4465 9.97914 24.4498 10.001 24.4575C10.0228 24.4652 10.043 24.4772 10.0602 24.4927C10.4889 24.872 10.9394 25.2592 11.3977 25.6425C11.426 25.6655 11.4464 25.6968 11.4561 25.7319C11.4659 25.767 11.4645 25.8043 11.4521 25.8385C11.4397 25.8728 11.417 25.9024 11.3871 25.9232C11.3572 25.944 11.3216 25.955 11.2851 25.9547ZM8.63965 23.6155C8.59415 23.6146 8.55056 23.597 8.51716 23.5661C8.07657 23.1472 7.65179 22.7284 7.25468 22.3194C7.2215 22.2861 7.20287 22.2409 7.20287 22.1939C7.20287 22.1469 7.2215 22.1018 7.25468 22.0685C7.28825 22.0358 7.33327 22.0175 7.38013 22.0175C7.427 22.0175 7.47202 22.0358 7.50559 22.0685C7.90073 22.4735 8.32156 22.8904 8.76017 23.3053C8.79288 23.3388 8.81118 23.3839 8.81118 23.4307C8.81118 23.4776 8.79288 23.5226 8.76017 23.5562C8.72904 23.5906 8.68592 23.6118 8.63965 23.6155ZM6.17989 21.0747C6.15484 21.075 6.13001 21.0699 6.10714 21.0597C6.08428 21.0495 6.06393 21.0343 6.04751 21.0154C5.63657 20.5472 5.25723 20.0848 4.91543 19.6324C4.90213 19.5957 4.90127 19.5557 4.91298 19.5185C4.92469 19.4812 4.94832 19.4489 4.98022 19.4264C5.01212 19.404 5.05053 19.3926 5.08952 19.3941C5.12851 19.3957 5.16592 19.41 5.19598 19.4348C5.53185 19.8734 5.90724 20.3298 6.31226 20.7922C6.33475 20.8176 6.34942 20.8489 6.35448 20.8825C6.35955 20.916 6.3548 20.9503 6.3408 20.9812C6.32681 21.0122 6.30417 21.0384 6.27562 21.0567C6.24707 21.075 6.21382 21.0847 6.17989 21.0846V21.0747ZM4.05007 18.2494C4.02 18.2497 3.99036 18.2423 3.96404 18.2277C3.93773 18.2132 3.91563 18.1921 3.89991 18.1664C3.58085 17.6592 3.30397 17.1266 3.07209 16.574C3.05427 16.5308 3.05436 16.4822 3.07233 16.4391C3.0903 16.3959 3.12468 16.3616 3.16791 16.3438C3.21114 16.326 3.25968 16.3261 3.30284 16.3441C3.34601 16.362 3.38027 16.3964 3.39808 16.4397C3.62342 16.9742 3.89168 17.4895 4.20022 17.9807C4.21251 18.0004 4.22078 18.0223 4.22455 18.0452C4.22832 18.0681 4.22752 18.0916 4.22219 18.1142C4.21686 18.1367 4.20712 18.1581 4.19351 18.1769C4.17991 18.1957 4.16272 18.2116 4.14293 18.2237C4.11493 18.2407 4.08279 18.2496 4.05007 18.2494ZM2.80537 14.9796C2.76007 14.9796 2.7165 14.9622 2.68374 14.9309C2.65099 14.8996 2.63157 14.8569 2.62953 14.8117V14.7899C2.62953 14.7168 2.62953 14.6437 2.62953 14.5746C2.61813 14.0251 2.76341 13.4837 3.04838 13.0138C3.07458 12.9739 3.11553 12.9462 3.16221 12.9365C3.2089 12.9269 3.2575 12.9362 3.29732 12.9624C3.33714 12.9886 3.36493 13.0295 3.37456 13.0762C3.3842 13.1229 3.37489 13.1715 3.34869 13.2113C3.09798 13.6239 2.97111 14.0999 2.98318 14.5825C2.98318 14.6457 2.98318 14.7109 2.98318 14.7801V14.8077C2.98424 14.831 2.98067 14.8542 2.97268 14.8761C2.96469 14.8979 2.95243 14.918 2.93663 14.9351C2.92082 14.9522 2.90178 14.966 2.8806 14.9756C2.85942 14.9853 2.83654 14.9907 2.81327 14.9915L2.80537 14.9796ZM16.6354 13.5176C16.617 13.5205 16.5984 13.5205 16.58 13.5176C16.0091 13.32 15.444 13.1521 14.8987 12.992C14.8765 12.9855 14.8558 12.9748 14.8378 12.9603C14.8198 12.9458 14.8048 12.9279 14.7937 12.9076C14.7826 12.8874 14.7756 12.8651 14.7731 12.8421C14.7706 12.8191 14.7727 12.7959 14.7792 12.7737C14.7857 12.7515 14.7965 12.7308 14.8109 12.7128C14.8254 12.6948 14.8433 12.6798 14.8636 12.6687C14.8839 12.6576 14.9061 12.6506 14.9291 12.6481C14.9521 12.6456 14.9753 12.6477 14.9975 12.6542C15.5468 12.8142 16.1177 12.992 16.6907 13.1817C16.7128 13.1889 16.7333 13.2003 16.751 13.2155C16.7686 13.2306 16.7831 13.2491 16.7936 13.2698C16.8041 13.2906 16.8103 13.3132 16.812 13.3364C16.8137 13.3596 16.8107 13.3829 16.8033 13.405C16.7921 13.4397 16.7702 13.4701 16.7408 13.4917C16.7114 13.5134 16.6758 13.5252 16.6393 13.5255L16.6354 13.5176ZM13.2431 12.5297H13.1996C12.6069 12.3815 12.0339 12.2511 11.4827 12.1346C11.4388 12.1255 11.4001 12.1 11.3743 12.0632C11.3486 12.0265 11.3379 11.9814 11.3444 11.937C11.3539 11.8933 11.3796 11.8549 11.4162 11.8292C11.4528 11.8036 11.4977 11.7927 11.542 11.7987C12.0972 11.9074 12.68 12.0397 13.2747 12.1938C13.3175 12.203 13.3554 12.2279 13.3809 12.2635C13.4064 12.2992 13.4177 12.3431 13.4125 12.3866C13.4073 12.4302 13.386 12.4702 13.3529 12.4988C13.3197 12.5275 13.277 12.5427 13.2332 12.5416L13.2431 12.5297ZM4.54992 12.1919C4.51576 12.1916 4.48238 12.1816 4.45369 12.1631C4.42499 12.1445 4.40218 12.1182 4.38791 12.0872C4.36929 12.0442 4.36839 11.9956 4.38541 11.9519C4.40243 11.9082 4.43599 11.8731 4.4788 11.854C5.04022 11.6216 5.63262 11.4725 6.23718 11.4115C6.26049 11.4082 6.28423 11.4096 6.30696 11.4157C6.32969 11.4219 6.35094 11.4326 6.36941 11.4472C6.38789 11.4618 6.4032 11.48 6.41444 11.5007C6.42567 11.5213 6.43258 11.5441 6.43475 11.5675C6.43779 11.5907 6.4362 11.6142 6.43007 11.6367C6.42395 11.6592 6.4134 11.6802 6.39906 11.6986C6.38472 11.717 6.36687 11.7323 6.34654 11.7437C6.32621 11.7552 6.30381 11.7624 6.28065 11.7651C5.71084 11.8219 5.1524 11.9617 4.62303 12.18C4.59836 12.1918 4.57134 12.1979 4.544 12.1978L4.54992 12.1919ZM9.78359 11.854H9.75988C9.14544 11.773 8.55865 11.7236 8.0173 11.7039C7.99251 11.7055 7.96764 11.702 7.94431 11.6934C7.92098 11.6849 7.8997 11.6715 7.88184 11.6542C7.86398 11.637 7.84995 11.6161 7.84063 11.5931C7.83132 11.5701 7.82694 11.5453 7.82777 11.5205C7.8286 11.4957 7.83463 11.4713 7.84547 11.4489C7.8563 11.4265 7.8717 11.4067 7.89068 11.3907C7.90965 11.3746 7.93178 11.3627 7.95563 11.3558C7.97948 11.3488 8.00453 11.3469 8.02916 11.3502C8.58236 11.37 9.17902 11.4213 9.8073 11.5023C9.85386 11.5083 9.89619 11.5324 9.92506 11.5694C9.95393 11.6064 9.967 11.6533 9.9614 11.6999C9.95738 11.7452 9.936 11.7871 9.90175 11.8169C9.8675 11.8467 9.82303 11.8622 9.77766 11.86L9.78359 11.854Z" fill="url(#paint24_linear_348_986)"/>
<path d="M20.2841 54.7428C19.9736 54.7437 19.6654 54.6902 19.3733 54.5848C19.3293 54.5688 19.2934 54.536 19.2736 54.4936C19.2538 54.4511 19.2516 54.4026 19.2676 54.3586C19.2836 54.3145 19.3164 54.2787 19.3588 54.2589C19.4013 54.239 19.4498 54.2369 19.4938 54.2529C19.7472 54.3442 20.0147 54.3904 20.2841 54.3892C20.5658 54.3869 20.8458 54.345 21.1159 54.2647L21.1692 54.4326L21.2068 54.6065C20.907 54.6943 20.5965 54.7401 20.2841 54.7428ZM22.7399 53.8142C22.7116 53.8144 22.6836 53.8077 22.6585 53.7946C22.6334 53.7815 22.6118 53.7625 22.5957 53.7392C22.5686 53.7009 22.5578 53.6534 22.5656 53.6071C22.5734 53.5609 22.5991 53.5196 22.6372 53.4922C23.0216 53.2181 23.3861 52.917 23.7278 52.5913C23.8048 52.5202 23.8819 52.4451 23.9609 52.368C23.9945 52.3353 24.0396 52.3172 24.0865 52.3177C24.1334 52.3183 24.1781 52.3374 24.2108 52.371C24.2436 52.4045 24.2617 52.4497 24.2611 52.4966C24.2606 52.5434 24.2414 52.5882 24.2079 52.6209L23.9708 52.8501C23.6163 53.1869 23.2387 53.4985 22.8407 53.7826C22.8111 53.8029 22.7758 53.8133 22.7399 53.8123V53.8142ZM18.0693 53.5159C18.0417 53.5164 18.0143 53.5102 17.9895 53.4978C17.9647 53.4854 17.9433 53.4672 17.9271 53.4448C17.5796 52.9505 17.3049 52.4089 17.1111 51.8366C17.0952 51.7923 17.0975 51.7435 17.1175 51.7009C17.1375 51.6583 17.1736 51.6254 17.2178 51.6094C17.2397 51.6016 17.263 51.5982 17.2862 51.5994C17.3094 51.6007 17.3322 51.6066 17.3531 51.6167C17.3741 51.6268 17.3928 51.6409 17.4082 51.6583C17.4237 51.6757 17.4355 51.696 17.443 51.718C17.6262 52.2604 17.8857 52.774 18.2136 53.2433C18.2274 53.2619 18.2374 53.2831 18.2431 53.3056C18.2487 53.3282 18.2498 53.3516 18.2463 53.3746C18.2428 53.3975 18.2348 53.4196 18.2227 53.4394C18.2107 53.4593 18.1948 53.4765 18.176 53.4902C18.1442 53.5101 18.1067 53.5191 18.0693 53.5159ZM25.2728 51.3663C25.2394 51.3657 25.2069 51.3557 25.1789 51.3375C25.1509 51.3193 25.1287 51.2935 25.1146 51.2632C25.1006 51.2329 25.0954 51.1993 25.0996 51.1661C25.1038 51.133 25.1173 51.1017 25.1384 51.0759C25.4901 50.6531 25.8497 50.1849 26.2093 49.6929C26.238 49.662 26.277 49.6424 26.3189 49.6378C26.3609 49.6332 26.4032 49.6438 26.438 49.6678C26.4727 49.6918 26.4977 49.7275 26.5083 49.7684C26.5189 49.8093 26.5145 49.8526 26.4958 49.8905C26.1322 50.3963 25.7667 50.8783 25.4091 51.3011C25.3927 51.3215 25.3719 51.3378 25.3483 51.3491C25.3247 51.3604 25.2989 51.3663 25.2728 51.3663ZM16.8246 50.2402C16.7834 50.24 16.7436 50.2255 16.7119 50.1992C16.6802 50.1729 16.6586 50.1364 16.6508 50.096C16.5461 49.5526 16.4532 48.9599 16.4018 48.3297C16.3996 48.3066 16.402 48.2833 16.4088 48.2611C16.4156 48.2389 16.4267 48.2183 16.4415 48.2004C16.4562 48.1825 16.4744 48.1677 16.4949 48.1568C16.5154 48.146 16.5378 48.1392 16.5609 48.137C16.584 48.1348 16.6073 48.1372 16.6295 48.144C16.6516 48.1508 16.6723 48.1619 16.6901 48.1767C16.708 48.1914 16.7228 48.2096 16.7337 48.2301C16.7446 48.2506 16.7513 48.273 16.7535 48.2961C16.8128 48.9145 16.8958 49.4973 16.9985 50.0288C17.0044 50.0733 16.9933 50.1185 16.9672 50.1552C16.9412 50.1918 16.9023 50.2173 16.8582 50.2264L16.8246 50.2402ZM27.3473 48.5055C27.313 48.5062 27.2793 48.4965 27.2505 48.4778C27.2114 48.452 27.184 48.4118 27.1744 48.3659C27.1648 48.32 27.1737 48.2722 27.1991 48.2329C27.5054 47.7587 27.8155 47.2549 28.1218 46.7353C28.1334 46.7152 28.1489 46.6977 28.1673 46.6837C28.1858 46.6697 28.2068 46.6595 28.2292 46.6536C28.2516 46.6477 28.2749 46.6463 28.2978 46.6495C28.3208 46.6526 28.3428 46.6603 28.3628 46.672C28.4034 46.6959 28.4328 46.7349 28.4446 46.7805C28.4565 46.826 28.4498 46.8744 28.426 46.9151C28.1178 47.4386 27.8037 47.9464 27.4955 48.4245C27.4797 48.4495 27.4578 48.47 27.4319 48.4842C27.406 48.4984 27.3768 48.5057 27.3473 48.5055ZM16.467 46.7274C16.4211 46.7274 16.3769 46.7094 16.3441 46.6773C16.3112 46.6451 16.2922 46.6014 16.2912 46.5555C16.2912 46.2137 16.2754 45.858 16.2754 45.4945C16.2754 45.2594 16.2754 45.0223 16.2754 44.7813C16.2769 44.7346 16.2965 44.6904 16.3301 44.658C16.3637 44.6255 16.4085 44.6074 16.4552 44.6074C16.4784 44.6077 16.5014 44.6125 16.5228 44.6217C16.5442 44.6309 16.5635 44.6443 16.5797 44.661C16.5958 44.6777 16.6085 44.6975 16.617 44.7192C16.6255 44.7408 16.6296 44.764 16.629 44.7872C16.629 45.0263 16.629 45.2614 16.629 45.4945C16.629 45.8541 16.629 46.2077 16.6448 46.5456C16.6456 46.5689 16.6418 46.592 16.6336 46.6138C16.6253 46.6356 16.6129 46.6555 16.5969 46.6724C16.5809 46.6893 16.5617 46.7029 16.5404 46.7123C16.5192 46.7217 16.4962 46.7269 16.473 46.7274H16.467ZM29.1432 45.4629C29.1141 45.4634 29.0854 45.4559 29.0602 45.4412C29.0396 45.4304 29.0214 45.4156 29.0066 45.3976C28.9918 45.3797 28.9808 45.359 28.9741 45.3367C28.9675 45.3144 28.9654 45.291 28.968 45.2679C28.9706 45.2448 28.9777 45.2224 28.9891 45.2021C29.2618 44.6983 29.5384 44.1747 29.8071 43.6413C29.8305 43.6035 29.8673 43.5758 29.9101 43.5637C29.953 43.5517 29.9988 43.5562 30.0385 43.5763C30.0782 43.5964 30.109 43.6307 30.1247 43.6723C30.1403 43.714 30.1398 43.76 30.1232 43.8013C29.8505 44.3367 29.5739 44.8643 29.2993 45.37C29.2842 45.3983 29.2617 45.4218 29.2342 45.4382C29.2067 45.4546 29.1752 45.4631 29.1432 45.4629ZM16.5283 43.1948H16.5184C16.4716 43.1917 16.4278 43.1703 16.3968 43.1351C16.3657 43.1 16.3497 43.0539 16.3524 43.0071C16.386 42.4361 16.4315 41.8414 16.4868 41.2408C16.4918 41.1934 16.5154 41.1499 16.5524 41.1199C16.5895 41.0899 16.6369 41.0758 16.6844 41.0808C16.7079 41.083 16.7308 41.0899 16.7517 41.1011C16.7726 41.1122 16.791 41.1275 16.8059 41.1459C16.8209 41.1643 16.8319 41.1855 16.8385 41.2082C16.8451 41.231 16.8471 41.2548 16.8444 41.2783C16.7891 41.8711 16.7436 42.4638 16.71 43.0348C16.706 43.0796 16.6849 43.1213 16.6511 43.1511C16.6173 43.1808 16.5733 43.1965 16.5283 43.1948ZM30.7534 42.3116C30.7267 42.3114 30.7004 42.3054 30.6764 42.2939C30.6345 42.2734 30.6023 42.2373 30.5868 42.1933C30.5713 42.1493 30.5736 42.101 30.5934 42.0588C30.8404 41.5372 31.0893 40.9978 31.3303 40.4564C31.3398 40.4353 31.3533 40.4162 31.3702 40.4003C31.387 40.3844 31.4068 40.372 31.4285 40.3637C31.4501 40.3554 31.4732 40.3515 31.4964 40.3522C31.5195 40.3529 31.5423 40.3581 31.5635 40.3675C31.5846 40.377 31.6037 40.3905 31.6196 40.4074C31.6355 40.4242 31.648 40.444 31.6562 40.4657C31.6645 40.4873 31.6684 40.5104 31.6677 40.5336C31.6671 40.5567 31.6618 40.5795 31.6524 40.6007C31.4113 41.144 31.1604 41.6853 30.9135 42.2109C30.8981 42.2424 30.8738 42.2688 30.8436 42.2867C30.8134 42.3046 30.7786 42.3133 30.7435 42.3116H30.7534ZM32.1937 39.0833C32.17 39.0835 32.1464 39.0788 32.1246 39.0695C32.0815 39.0512 32.0475 39.0166 32.0297 38.9734C32.012 38.9301 32.012 38.8816 32.0297 38.8383C32.255 38.3029 32.4802 37.7537 32.6975 37.2064C32.7147 37.1628 32.7485 37.1277 32.7914 37.1088C32.8343 37.09 32.8829 37.0888 32.9267 37.1056C32.9701 37.1236 33.0048 37.1579 33.0232 37.2011C33.0417 37.2443 33.0425 37.293 33.0255 37.3368C32.8082 37.886 32.5829 38.4373 32.3557 38.9747C32.3424 39.0087 32.3185 39.0376 32.2876 39.0571C32.2567 39.0767 32.2203 39.0859 32.1838 39.0833H32.1937ZM33.4957 35.7977C33.4754 35.8005 33.4548 35.8005 33.4345 35.7977C33.3905 35.7809 33.3548 35.7474 33.3353 35.7045C33.3157 35.6617 33.3137 35.6128 33.3298 35.5685C33.5273 35.0213 33.7387 34.4641 33.9324 33.9109C33.9508 33.8704 33.9838 33.8383 34.0247 33.8209C34.0657 33.8035 34.1117 33.8021 34.1537 33.817C34.1956 33.8319 34.2305 33.862 34.2513 33.9013C34.2722 33.9406 34.2775 33.9864 34.2662 34.0294C34.0687 34.5826 33.8711 35.1437 33.6617 35.693C33.647 35.7266 33.6221 35.7548 33.5906 35.7736C33.559 35.7923 33.5224 35.8008 33.4858 35.7977H33.4957ZM34.6811 32.4647C34.6531 32.4653 34.6253 32.4591 34.6001 32.4466C34.575 32.4341 34.5532 32.4158 34.5367 32.393C34.5202 32.3703 34.5094 32.344 34.5053 32.3162C34.5012 32.2884 34.504 32.26 34.5132 32.2335C34.697 31.6803 34.8807 31.1153 35.0546 30.5542C35.0615 30.5318 35.0728 30.5111 35.0878 30.4931C35.1028 30.4752 35.1213 30.4604 35.142 30.4495C35.1627 30.4387 35.1854 30.4321 35.2087 30.43C35.232 30.428 35.2555 30.4306 35.2778 30.4376C35.2999 30.4446 35.3204 30.4558 35.3381 30.4707C35.3558 30.4856 35.3704 30.5039 35.3811 30.5244C35.3917 30.545 35.3982 30.5675 35.4001 30.5905C35.4021 30.6136 35.3995 30.6368 35.3924 30.6589C35.2166 31.2239 35.0328 31.791 34.8491 32.3442C34.8385 32.3847 34.8137 32.4201 34.7793 32.444C34.7449 32.4679 34.7031 32.4787 34.6614 32.4746L34.6811 32.4647ZM35.7362 29.0921C35.7198 29.095 35.7031 29.095 35.6868 29.0921C35.6419 29.0788 35.604 29.0483 35.5814 29.0073C35.5589 28.9662 35.5534 28.9179 35.5663 28.8728C35.7322 28.3078 35.8942 27.7368 36.0483 27.1777C36.0543 27.1551 36.0647 27.134 36.0788 27.1155C36.093 27.097 36.1107 27.0815 36.131 27.07C36.1512 27.0584 36.1735 27.0509 36.1966 27.0481C36.2198 27.0452 36.2432 27.0469 36.2657 27.0532C36.3105 27.0661 36.3485 27.0961 36.3714 27.1368C36.3943 27.1774 36.4004 27.2255 36.3882 27.2705C36.2341 27.8336 36.0721 28.4046 35.9061 28.9716C35.8932 29.0105 35.8673 29.0437 35.8327 29.0656C35.7982 29.0876 35.7571 29.097 35.7164 29.0921H35.7362ZM36.6687 25.686H36.6252C36.6028 25.6805 36.5817 25.6705 36.5632 25.6568C36.5447 25.643 36.5291 25.6257 36.5173 25.6058C36.5055 25.586 36.4978 25.564 36.4946 25.5411C36.4915 25.5182 36.4929 25.4949 36.4988 25.4726C36.5581 25.2395 36.6154 25.0083 36.6727 24.7752C36.7576 24.4354 36.8386 24.0956 36.9196 23.7597C36.9249 23.7371 36.9347 23.7158 36.9482 23.697C36.9618 23.6782 36.9789 23.6622 36.9986 23.65C37.0183 23.6378 37.0403 23.6296 37.0632 23.6259C37.0861 23.6222 37.1094 23.623 37.132 23.6283C37.1546 23.6336 37.1759 23.6433 37.1947 23.6569C37.2135 23.6704 37.2295 23.6876 37.2417 23.7073C37.2539 23.727 37.2621 23.7489 37.2658 23.7718C37.2695 23.7947 37.2687 23.8181 37.2634 23.8407C37.1824 24.1785 37.1014 24.5184 37.0164 24.8602C36.9591 25.0933 36.8999 25.3264 36.8406 25.5596C36.8288 25.5999 36.803 25.6347 36.7679 25.6579C36.7328 25.681 36.6907 25.691 36.649 25.686H36.6687ZM37.4807 22.2483H37.4432C37.3974 22.2379 37.3576 22.2098 37.3325 22.1702C37.3073 22.1306 37.2988 22.0827 37.3088 22.0369C37.4333 21.456 37.5538 20.8751 37.6645 20.3101C37.6689 20.2874 37.6777 20.2658 37.6905 20.2465C37.7033 20.2272 37.7197 20.2106 37.7389 20.1977C37.758 20.1847 37.7796 20.1757 37.8022 20.1711C37.8249 20.1665 37.8482 20.1664 37.8709 20.1708C37.8936 20.1752 37.9153 20.184 37.9345 20.1968C37.9538 20.2096 37.9704 20.226 37.9833 20.2452C37.9963 20.2643 38.0053 20.2859 38.0099 20.3085C38.0145 20.3312 38.0146 20.3546 38.0102 20.3773C37.8996 20.9463 37.7791 21.5291 37.6546 22.1119C37.6447 22.1545 37.6195 22.1919 37.5838 22.217C37.5481 22.2422 37.5044 22.2533 37.461 22.2483H37.4807ZM38.1564 18.7789H38.1268C38.082 18.7707 38.0421 18.7456 38.0153 18.7089C37.9885 18.6721 37.9768 18.6265 37.9826 18.5813C38.0833 18.0005 38.1801 17.4137 38.2631 16.8427C38.27 16.7969 38.2945 16.7555 38.3314 16.7275C38.3683 16.6994 38.4147 16.6869 38.4607 16.6925C38.5059 16.7003 38.5465 16.7251 38.5741 16.7619C38.6016 16.7986 38.6141 16.8445 38.6089 16.8901C38.5239 17.4651 38.4291 18.0538 38.3283 18.6386C38.3193 18.6815 38.2947 18.7196 38.2593 18.7454C38.224 18.7713 38.1803 18.7833 38.1367 18.7789H38.1564ZM38.6563 15.2858H38.6346C38.588 15.2799 38.5457 15.2558 38.5168 15.2188C38.4879 15.1818 38.4749 15.1349 38.4804 15.0883C38.5535 14.4956 38.6168 13.9028 38.678 13.3358C38.6845 13.2905 38.7081 13.2495 38.744 13.2212C38.7799 13.1929 38.8253 13.1795 38.8709 13.1838C38.9164 13.1881 38.9585 13.2098 38.9885 13.2444C39.0184 13.279 39.0339 13.3237 39.0317 13.3694C38.9783 13.9424 38.9131 14.5351 38.8341 15.1317C38.8287 15.1749 38.8076 15.2145 38.7748 15.2429C38.7419 15.2714 38.6997 15.2867 38.6563 15.2858ZM38.9803 11.7671H38.9684C38.9453 11.7658 38.9227 11.76 38.9019 11.75C38.881 11.74 38.8623 11.7259 38.8469 11.7087C38.8315 11.6914 38.8196 11.6713 38.812 11.6495C38.8044 11.6276 38.8012 11.6045 38.8025 11.5814C38.838 10.9768 38.8618 10.3959 38.8716 9.82299C38.8716 9.79965 38.8763 9.77655 38.8854 9.75506C38.8945 9.73357 38.9079 9.71413 38.9246 9.6979C38.9414 9.68168 38.9613 9.669 38.9831 9.66062C39.0049 9.65224 39.0281 9.64833 39.0514 9.64913C39.0747 9.64938 39.0977 9.65425 39.119 9.66345C39.1404 9.67265 39.1597 9.686 39.1759 9.70272C39.1921 9.71944 39.2048 9.7392 39.2132 9.76087C39.2217 9.78253 39.2258 9.80566 39.2253 9.82891C39.2154 10.3979 39.1917 10.9946 39.1561 11.6071C39.1517 11.6505 39.1313 11.6908 39.0988 11.7201C39.0662 11.7493 39.024 11.7653 38.9803 11.7651V11.7671ZM26.3654 9.49699C26.3358 9.49621 26.3067 9.48878 26.2804 9.47526C26.2396 9.45271 26.2092 9.41501 26.1959 9.37029C26.1826 9.32557 26.1874 9.27741 26.2093 9.2362C26.4997 8.70276 26.802 8.18512 27.0845 7.69317C27.0962 7.67319 27.1117 7.65571 27.1301 7.64172C27.1486 7.62773 27.1696 7.61751 27.1919 7.61164C27.2143 7.60577 27.2377 7.60436 27.2606 7.6075C27.2835 7.61064 27.3056 7.61827 27.3256 7.62994C27.3455 7.64162 27.363 7.65712 27.377 7.67555C27.391 7.69398 27.4012 7.71499 27.4071 7.73737C27.413 7.75975 27.4144 7.78307 27.4112 7.806C27.4081 7.82892 27.4005 7.851 27.3888 7.87098C27.1003 8.36096 26.8079 8.87662 26.5195 9.40414C26.5044 9.43183 26.4821 9.45491 26.455 9.47092C26.4279 9.48693 26.3969 9.49526 26.3654 9.49502V9.49699ZM39.0415 8.23451C38.9956 8.23452 38.9515 8.21654 38.9186 8.18442C38.8857 8.15229 38.8667 8.10857 38.8657 8.06263C38.846 7.45016 38.8104 6.85942 38.757 6.31214C38.7547 6.28905 38.7569 6.26573 38.7636 6.2435C38.7703 6.22127 38.7813 6.20058 38.796 6.1826C38.8107 6.16462 38.8287 6.14971 38.8492 6.13871C38.8696 6.12772 38.892 6.12086 38.9151 6.11852C38.9382 6.11619 38.9615 6.11842 38.9837 6.1251C39.006 6.13178 39.0267 6.14278 39.0446 6.15745C39.0626 6.17213 39.0775 6.1902 39.0885 6.21064C39.0995 6.23108 39.1064 6.25349 39.1087 6.27658C39.1621 6.83373 39.1996 7.4304 39.2194 8.05472C39.2199 8.10141 39.2023 8.14648 39.1702 8.1804C39.1381 8.21433 39.0941 8.23444 39.0475 8.23649L39.0415 8.23451ZM28.1652 6.45637C28.1317 6.45608 28.0989 6.44651 28.0704 6.42871C28.0507 6.41626 28.0336 6.40001 28.0202 6.3809C28.0068 6.36178 27.9974 6.3402 27.9924 6.31739C27.9874 6.29459 27.9871 6.27103 27.9913 6.24808C27.9955 6.22513 28.0043 6.20325 28.0171 6.18372C28.351 5.66806 28.6868 5.17413 29.0168 4.71577C29.0445 4.6781 29.0857 4.6527 29.1318 4.64495C29.1779 4.63721 29.2253 4.64773 29.2637 4.67428C29.3015 4.70194 29.3269 4.7434 29.3343 4.78964C29.3417 4.83588 29.3305 4.88317 29.3033 4.92124C28.9773 5.37565 28.6434 5.86366 28.3154 6.37537C28.2984 6.3998 28.2756 6.41963 28.249 6.43308C28.2225 6.44653 28.193 6.45317 28.1633 6.45242L28.1652 6.45637ZM38.6859 4.72565C38.645 4.72556 38.6054 4.71137 38.5737 4.68545C38.542 4.65954 38.5202 4.62349 38.5121 4.58339C38.4065 4.01273 38.2586 3.45073 38.0695 2.90206C38.0617 2.88027 38.0582 2.85715 38.0593 2.83402C38.0605 2.81089 38.0661 2.78821 38.076 2.76728C38.086 2.74635 38.0999 2.72759 38.1171 2.71207C38.1343 2.69654 38.1544 2.68457 38.1762 2.67683C38.2205 2.66094 38.2692 2.66324 38.3118 2.68324C38.3544 2.70323 38.3873 2.73929 38.4034 2.78352C38.5978 3.34912 38.7503 3.92825 38.8598 4.51622C38.8657 4.56078 38.8545 4.60594 38.8285 4.6426C38.8025 4.67925 38.7635 4.70469 38.7195 4.71379L38.6859 4.72565ZM30.2397 3.59554C30.1987 3.59606 30.1588 3.58207 30.1271 3.55602C30.0912 3.526 30.0686 3.48303 30.0641 3.43642C30.0597 3.38982 30.0738 3.34334 30.1034 3.30708C30.5084 2.81908 30.9135 2.37454 31.3066 1.9873C31.3409 1.95482 31.3868 1.93729 31.434 1.93859C31.4813 1.93989 31.526 1.9599 31.5585 1.99422C31.591 2.02854 31.6085 2.07436 31.6072 2.1216C31.6059 2.16884 31.5859 2.21364 31.5516 2.24612C31.1683 2.62348 30.7613 3.06012 30.3662 3.53824C30.3495 3.5553 30.3295 3.56882 30.3074 3.57799C30.2853 3.58715 30.2617 3.59178 30.2378 3.59158L30.2397 3.59554ZM37.4412 1.44398C37.4134 1.44391 37.386 1.43725 37.3613 1.42454C37.3366 1.41183 37.3152 1.39344 37.299 1.37088C37.1802 1.20859 37.0481 1.05658 36.9038 0.916466C36.6497 0.66871 36.347 0.476313 36.0148 0.351413C35.993 0.343499 35.9729 0.331371 35.9558 0.315719C35.9387 0.300068 35.9249 0.281201 35.9151 0.260195C35.9052 0.239188 35.8997 0.216454 35.8986 0.193291C35.8976 0.170127 35.9011 0.146987 35.9091 0.125193C35.917 0.103399 35.9291 0.083377 35.9447 0.0662701C35.9604 0.0491632 35.9793 0.0353069 36.0003 0.0254917C36.0213 0.0156765 36.044 0.0100947 36.0672 0.00906537C36.0903 0.0080361 36.1135 0.0115791 36.1353 0.0194925C36.5153 0.161307 36.8613 0.381418 37.1508 0.665551C37.3101 0.819224 37.4549 0.987208 37.5835 1.16738C37.5976 1.18592 37.6078 1.20712 37.6136 1.22969C37.6194 1.25227 37.6205 1.27578 37.617 1.29882C37.6135 1.32185 37.6054 1.34395 37.5932 1.3638C37.581 1.38365 37.5649 1.40084 37.5459 1.41435C37.5148 1.43457 37.4783 1.4449 37.4412 1.44398ZM32.7746 1.14565C32.737 1.14611 32.7002 1.13451 32.6697 1.11253C32.6392 1.09056 32.6165 1.05938 32.605 1.02357C32.5935 0.987755 32.5938 0.9492 32.6058 0.913566C32.6178 0.877932 32.641 0.847095 32.6718 0.825584C33.1656 0.464834 33.7157 0.188438 34.2998 0.00763791C34.3446 -0.00598588 34.393 -0.00125403 34.4343 0.0207918C34.4756 0.0428376 34.5065 0.0803918 34.5201 0.125193C34.5338 0.169994 34.529 0.218373 34.507 0.259686C34.4849 0.300999 34.4474 0.331862 34.4026 0.345486C33.8588 0.516046 33.3468 0.775041 32.8872 1.11206C32.8546 1.1357 32.8148 1.14754 32.7746 1.14565Z" fill="url(#paint25_linear_348_986)"/>
<path d="M10.9514 37.977C10.335 37.977 9.74225 37.9652 9.17324 37.9415C9.12945 37.9353 9.08954 37.913 9.06129 37.879C9.03304 37.8449 9.01848 37.8016 9.02046 37.7574C9.02243 37.7133 9.0408 37.6714 9.07197 37.64C9.10314 37.6087 9.14488 37.59 9.18905 37.5878C9.75015 37.6115 10.3389 37.6253 10.9415 37.6253C10.9885 37.6253 11.0337 37.6437 11.0673 37.6766C11.1009 37.7095 11.1203 37.7542 11.1213 37.8012C11.1218 37.847 11.1043 37.8911 11.0725 37.924C11.0407 37.9569 10.9972 37.976 10.9514 37.977ZM12.7177 37.9454C12.674 37.9408 12.6336 37.9202 12.6042 37.8875C12.5748 37.8549 12.5586 37.8125 12.5586 37.7686C12.5586 37.7247 12.5748 37.6823 12.6042 37.6496C12.6336 37.617 12.674 37.5964 12.7177 37.5917C13.2887 37.572 13.8794 37.5404 14.478 37.5009C14.502 37.4981 14.5263 37.5003 14.5494 37.5073C14.5725 37.5143 14.594 37.5259 14.6125 37.5414C14.631 37.5569 14.6461 37.576 14.657 37.5976C14.6678 37.6192 14.6742 37.6427 14.6756 37.6668C14.6772 37.6899 14.6742 37.7131 14.6669 37.7351C14.6595 37.757 14.6478 37.7773 14.6326 37.7947C14.6174 37.8122 14.5988 37.8264 14.5781 37.8367C14.5573 37.847 14.5347 37.853 14.5116 37.8545C13.909 37.894 13.3143 37.9256 12.7335 37.9454H12.7177ZM7.43066 37.8209H7.41288C6.79251 37.7617 6.19782 37.6826 5.64857 37.5878C5.60246 37.5799 5.56136 37.5541 5.53431 37.5159C5.50726 37.4778 5.49648 37.4304 5.50434 37.3843C5.5122 37.3382 5.53806 37.2971 5.57622 37.27C5.61438 37.243 5.66173 37.2322 5.70784 37.2401C6.24918 37.3329 6.83597 37.41 7.44647 37.4693C7.47005 37.4715 7.49295 37.4784 7.51383 37.4895C7.53471 37.5007 7.55314 37.516 7.56805 37.5344C7.58296 37.5528 7.59404 37.574 7.60064 37.5967C7.60724 37.6195 7.60923 37.6433 7.6065 37.6668C7.60038 37.7093 7.5793 37.7481 7.54705 37.7764C7.51481 37.8046 7.47353 37.8204 7.43066 37.8209ZM16.2562 37.7142C16.2119 37.7124 16.1699 37.694 16.1385 37.6628C16.107 37.6316 16.0884 37.5898 16.0861 37.5455C16.0839 37.5013 16.0983 37.4578 16.1265 37.4236C16.1546 37.3894 16.1945 37.3669 16.2384 37.3606C16.8173 37.3072 17.406 37.244 17.9928 37.1749C18.0161 37.1721 18.0396 37.174 18.0621 37.1803C18.0846 37.1867 18.1056 37.1974 18.124 37.2119C18.1424 37.2264 18.1577 37.2444 18.1691 37.2648C18.1805 37.2852 18.1877 37.3077 18.1904 37.331C18.1934 37.3541 18.1918 37.3776 18.1857 37.4001C18.1796 37.4226 18.1691 37.4436 18.1547 37.462C18.1404 37.4804 18.1225 37.4957 18.1022 37.5072C18.0819 37.5186 18.0595 37.5258 18.0363 37.5285C17.4436 37.5977 16.8509 37.6609 16.274 37.7142H16.2562ZM19.767 37.3013C19.7439 37.303 19.7207 37.3001 19.6988 37.2928C19.6768 37.2856 19.6564 37.274 19.6389 37.2589C19.6214 37.2438 19.607 37.2253 19.5966 37.2046C19.5862 37.1839 19.58 37.1614 19.5783 37.1383C19.5767 37.1152 19.5795 37.092 19.5868 37.0701C19.5941 37.0481 19.6056 37.0277 19.6208 37.0102C19.6359 36.9927 19.6543 36.9783 19.675 36.9679C19.6957 36.9575 19.7182 36.9513 19.7413 36.9496C20.3123 36.8686 20.8991 36.7817 21.4859 36.6869C21.532 36.6793 21.5792 36.6903 21.6172 36.7175C21.6552 36.7448 21.6808 36.786 21.6884 36.8321C21.696 36.8782 21.685 36.9254 21.6577 36.9634C21.6305 37.0014 21.5893 37.027 21.5432 37.0346C20.9505 37.1294 20.3578 37.2183 19.7907 37.2993L19.767 37.3013ZM3.96131 37.2025H3.91389C3.33559 37.0419 2.77289 36.8296 2.23256 36.5683C2.2118 36.5581 2.19327 36.5438 2.17801 36.5264C2.16276 36.509 2.15108 36.4888 2.14365 36.4669C2.13622 36.4449 2.13318 36.4218 2.13471 36.3987C2.13623 36.3756 2.14229 36.353 2.15254 36.3322C2.16279 36.3115 2.17703 36.2929 2.19444 36.2777C2.21185 36.2624 2.23209 36.2508 2.25402 36.2433C2.27594 36.2359 2.29911 36.2329 2.32221 36.2344C2.34531 36.2359 2.36788 36.242 2.38864 36.2522C2.91023 36.5032 3.45304 36.7075 4.0107 36.8627C4.05233 36.8738 4.08847 36.8997 4.11224 36.9356C4.13602 36.9715 4.14579 37.0149 4.1397 37.0575C4.13361 37.1002 4.11208 37.1391 4.0792 37.1669C4.04632 37.1947 4.00437 37.2095 3.96131 37.2085V37.2025ZM23.264 36.7382C23.2191 36.7398 23.1753 36.7241 23.1417 36.6943C23.108 36.6646 23.0869 36.6231 23.0829 36.5783C23.0788 36.5336 23.0921 36.489 23.1199 36.4537C23.1477 36.4184 23.188 36.3951 23.2324 36.3885C23.758 36.2917 24.2973 36.191 24.8347 36.0823L24.9651 36.0566C25.011 36.0472 25.0587 36.0564 25.0978 36.0821C25.1369 36.1079 25.1641 36.1481 25.1736 36.1939C25.183 36.2398 25.1738 36.2875 25.1481 36.3266C25.1223 36.3657 25.0821 36.3929 25.0363 36.4024L24.9059 36.43C24.3645 36.5367 23.8232 36.6395 23.2956 36.7363L23.264 36.7382ZM26.7334 36.0566C26.6878 36.0598 26.6428 36.0452 26.6078 36.0157C26.5729 35.9863 26.5508 35.9445 26.5461 35.899C26.5415 35.8536 26.5548 35.8081 26.5831 35.7722C26.6114 35.7364 26.6525 35.713 26.6978 35.7069C27.2905 35.5864 27.8655 35.46 28.4187 35.3276C28.4645 35.3169 28.5127 35.3249 28.5527 35.3497C28.5927 35.3745 28.6212 35.4141 28.6321 35.46C28.6373 35.4825 28.6381 35.5059 28.6342 35.5288C28.6304 35.5517 28.6221 35.5735 28.6098 35.5932C28.5975 35.6128 28.5815 35.6299 28.5626 35.6433C28.5437 35.6567 28.5223 35.6662 28.4997 35.6714C27.9445 35.8037 27.3617 35.9321 26.769 36.0527L26.7334 36.0566ZM0.87129 35.5508C0.846484 35.5508 0.821942 35.5457 0.799177 35.5359C0.776411 35.526 0.755904 35.5116 0.738917 35.4935L0.717184 35.4679C0.296539 35.0075 0.0438074 34.4185 0 33.7964C0.00108785 33.7519 0.0188327 33.7094 0.0497271 33.6774C0.0806215 33.6453 0.122417 33.626 0.166855 33.6233C0.211292 33.6205 0.255137 33.6346 0.289724 33.6626C0.324311 33.6906 0.347124 33.7306 0.353653 33.7747C0.39089 34.3208 0.613203 34.8379 0.983906 35.2406L1.00169 35.2604C1.03273 35.2952 1.04889 35.3407 1.04667 35.3873C1.04445 35.4339 1.02404 35.4777 0.989833 35.5093C0.956869 35.5375 0.914594 35.5523 0.87129 35.5508ZM30.1514 35.2406C30.1092 35.2395 30.0688 35.2234 30.0374 35.1953C30.0061 35.1671 29.9857 35.1287 29.98 35.0869C29.9743 35.0451 29.9836 35.0027 30.0063 34.9672C30.029 34.9316 30.0636 34.9053 30.104 34.8929C30.3015 34.8416 30.4872 34.7862 30.6749 34.7309C31.0582 34.6302 31.4336 34.5333 31.809 34.4267C31.8541 34.4143 31.9022 34.4204 31.9427 34.4436C31.9833 34.4667 32.013 34.5051 32.0253 34.5501C32.0377 34.5952 32.0316 34.6433 32.0084 34.6839C31.9852 34.7245 31.9469 34.7542 31.9019 34.7665C31.5265 34.8712 31.1491 34.964 30.7698 35.0727L30.1968 35.2347C30.182 35.2388 30.1667 35.2408 30.1514 35.2406ZM33.5555 34.2884C33.5132 34.2877 33.4725 34.2719 33.4408 34.2439C33.4091 34.2159 33.3884 34.1775 33.3824 34.1356C33.3765 34.0937 33.3857 34.051 33.4083 34.0153C33.431 33.9796 33.4657 33.9531 33.5061 33.9406C34.0712 33.7747 34.6382 33.6008 35.1934 33.425C35.2368 33.4153 35.2823 33.4223 35.3209 33.4445C35.3594 33.4667 35.3882 33.5026 35.4016 33.545C35.415 33.5874 35.412 33.6333 35.3932 33.6736C35.3744 33.714 35.3412 33.7458 35.3001 33.7628C34.7429 33.9387 34.1739 34.1125 33.6049 34.2805C33.5902 34.2848 33.5748 34.2868 33.5595 34.2864L33.5555 34.2884ZM36.9261 33.2234C36.8893 33.2232 36.8535 33.2115 36.8237 33.1899C36.794 33.1683 36.7717 33.1378 36.7601 33.1029C36.7514 33.0805 36.7473 33.0566 36.748 33.0326C36.7488 33.0085 36.7544 32.9849 36.7646 32.9631C36.7748 32.9413 36.7892 32.9218 36.8071 32.9058C36.8251 32.8897 36.846 32.8775 36.8688 32.8698C37.426 32.6821 37.9871 32.4885 38.5343 32.2909C38.5562 32.2828 38.5795 32.2791 38.6029 32.28C38.6263 32.281 38.6492 32.2866 38.6703 32.2966C38.6915 32.3065 38.7104 32.3206 38.7261 32.3379C38.7418 32.3552 38.7538 32.3755 38.7615 32.3976C38.7768 32.4416 38.7742 32.4899 38.7543 32.532C38.7343 32.5742 38.6986 32.6068 38.6549 32.6228C38.1036 32.8204 37.5406 33.018 36.9814 33.2057C36.9652 33.2134 36.9479 33.2187 36.93 33.2215L36.9261 33.2234ZM0.572957 32.2652C0.545392 32.2652 0.518251 32.2584 0.493929 32.2455C0.473074 32.2352 0.454489 32.2209 0.439271 32.2033C0.424052 32.1857 0.41251 32.1653 0.405327 32.1432C0.398143 32.1211 0.395464 32.0978 0.397448 32.0746C0.399431 32.0515 0.406038 32.0289 0.416876 32.0084C0.698814 31.4741 1.04807 30.9781 1.4561 30.5325C1.47137 30.5151 1.48994 30.5008 1.51073 30.4906C1.53153 30.4803 1.55415 30.4743 1.57728 30.4728C1.60042 30.4714 1.62362 30.4745 1.64554 30.482C1.66747 30.4895 1.68769 30.5013 1.70504 30.5167C1.74012 30.5482 1.76128 30.5923 1.76387 30.6393C1.76647 30.6864 1.75028 30.7325 1.71887 30.7676C1.33151 31.1908 0.999556 31.6615 0.731014 32.1684C0.716329 32.1963 0.694505 32.2197 0.667775 32.2364C0.641045 32.2531 0.610369 32.2623 0.578884 32.2632L0.572957 32.2652ZM40.2512 32.0262C40.2106 32.0249 40.1716 32.0098 40.1408 31.9834C40.11 31.9569 40.0891 31.9207 40.0817 31.8808C40.0743 31.8408 40.0808 31.7995 40.1002 31.7638C40.1195 31.7281 40.1505 31.7 40.188 31.6844C40.7412 31.471 41.2944 31.2537 41.8278 31.0344C41.8493 31.0255 41.8722 31.021 41.8953 31.0211C41.9185 31.0211 41.9414 31.0257 41.9628 31.0346C41.9841 31.0435 42.0036 31.0565 42.0199 31.0729C42.0362 31.0893 42.0492 31.1088 42.058 31.1302C42.0668 31.1516 42.0714 31.1745 42.0713 31.1977C42.0713 31.2208 42.0667 31.2437 42.0578 31.2651C42.0489 31.2865 42.0359 31.3059 42.0195 31.3222C42.0031 31.3386 41.9836 31.3515 41.9622 31.3603C41.4248 31.5816 40.8716 31.8009 40.3144 32.0143C40.2961 32.0208 40.2767 32.0242 40.2572 32.0242L40.2512 32.0262ZM43.523 30.6827C43.4888 30.6824 43.4555 30.6724 43.4268 30.6539C43.3981 30.6353 43.3753 30.609 43.361 30.578C43.3515 30.5567 43.3463 30.5338 43.3458 30.5105C43.3452 30.4872 43.3493 30.4641 43.3577 30.4424C43.3662 30.4207 43.3789 30.4009 43.395 30.3842C43.4112 30.3674 43.4305 30.3541 43.4519 30.3448C43.9972 30.1038 44.5385 29.8568 45.0562 29.6118C45.0772 29.602 45.0999 29.5964 45.1231 29.5953C45.1463 29.5942 45.1695 29.5977 45.1913 29.6056C45.2131 29.6135 45.2332 29.6256 45.2504 29.6413C45.2675 29.6569 45.2814 29.6758 45.2913 29.6968C45.3011 29.7178 45.3068 29.7406 45.3078 29.7638C45.3089 29.7869 45.3054 29.8101 45.2975 29.8319C45.2896 29.8538 45.2775 29.8738 45.2618 29.891C45.2462 29.9081 45.2273 29.922 45.2063 29.9319C44.6867 30.1789 44.1434 30.4258 43.5941 30.6669C43.5734 30.6754 43.5513 30.6801 43.5289 30.6807L43.523 30.6827ZM2.86281 29.596C2.82673 29.5956 2.79161 29.5843 2.76213 29.5635C2.73265 29.5427 2.7102 29.5134 2.69777 29.4795C2.68533 29.4456 2.6835 29.4088 2.69251 29.3738C2.70152 29.3389 2.72095 29.3075 2.74822 29.2839C3.16707 28.9243 3.64124 28.5568 4.15493 28.1893C4.17342 28.1722 4.19539 28.1592 4.21934 28.1512C4.2433 28.1433 4.26868 28.1406 4.29377 28.1434C4.31885 28.1461 4.34305 28.1542 4.36472 28.1672C4.38639 28.1801 4.40501 28.1976 4.41934 28.2183C4.43367 28.2391 4.44336 28.2627 4.44775 28.2876C4.45214 28.3124 4.45113 28.3379 4.44479 28.3624C4.43844 28.3868 4.42692 28.4096 4.411 28.4291C4.39507 28.4487 4.37512 28.4646 4.3525 28.4758C3.84672 28.8374 3.38242 29.1989 2.9695 29.5526C2.93951 29.5781 2.90211 29.5934 2.86281 29.596ZM46.7237 29.1634C46.6914 29.1636 46.6597 29.1548 46.6322 29.1381C46.6046 29.1213 46.5822 29.0972 46.5676 29.0685C46.546 29.0268 46.5418 28.9783 46.5559 28.9335C46.5699 28.8887 46.6011 28.8513 46.6427 28.8295C47.1801 28.5548 47.7016 28.2743 48.1956 27.9957C48.2364 27.9729 48.2847 27.9673 48.3297 27.9801C48.3747 27.9929 48.4128 28.023 48.4356 28.0639C48.4584 28.1047 48.464 28.153 48.4513 28.198C48.4385 28.243 48.4083 28.2811 48.3675 28.3039C47.8716 28.5845 47.346 28.867 46.8047 29.1456C46.7786 29.1574 46.7503 29.1635 46.7217 29.1634H46.7237ZM5.7276 27.5354C5.68913 27.5357 5.65162 27.5233 5.62083 27.5003C5.59004 27.4772 5.56766 27.4447 5.55712 27.4077C5.54658 27.3707 5.54847 27.3313 5.56249 27.2954C5.57651 27.2596 5.60189 27.2294 5.63474 27.2094C6.11484 26.9091 6.62259 26.6028 7.16196 26.3045C7.18217 26.2929 7.20446 26.2855 7.22756 26.2826C7.25066 26.2797 7.2741 26.2815 7.29652 26.2877C7.31894 26.294 7.3399 26.3046 7.35818 26.319C7.37646 26.3334 7.39169 26.3513 7.403 26.3717C7.42582 26.4126 7.43157 26.4609 7.41899 26.506C7.40641 26.5511 7.37652 26.5895 7.33583 26.6127C6.80633 26.9091 6.29858 27.2054 5.82243 27.5097C5.7937 27.5266 5.76094 27.5355 5.7276 27.5354ZM49.7999 27.4326C49.7612 27.4334 49.7234 27.4214 49.6923 27.3985C49.6611 27.3756 49.6384 27.343 49.6276 27.3059C49.6168 27.2688 49.6186 27.2292 49.6326 27.1932C49.6465 27.1571 49.672 27.1267 49.705 27.1066C50.2227 26.7806 50.7146 26.4527 51.1651 26.1287C51.1839 26.115 51.2054 26.1052 51.2281 26.0999C51.2507 26.0946 51.2743 26.0939 51.2972 26.0977C51.3202 26.1016 51.3422 26.11 51.3619 26.1224C51.3816 26.1348 51.3986 26.1511 51.412 26.1701C51.4256 26.1889 51.4354 26.2101 51.4406 26.2326C51.4459 26.2552 51.4467 26.2785 51.4428 26.3014C51.4389 26.3242 51.4305 26.346 51.4181 26.3655C51.4057 26.3851 51.3896 26.4019 51.3705 26.4151C50.9142 26.7431 50.4183 27.077 49.8927 27.403C49.8644 27.4186 49.8322 27.4262 49.7999 27.4247V27.4326ZM8.81366 25.7908C8.77355 25.7917 8.73434 25.7789 8.70252 25.7545C8.6707 25.73 8.64819 25.6955 8.63873 25.6565C8.62928 25.6175 8.63343 25.5764 8.65052 25.5401C8.6676 25.5038 8.69658 25.4745 8.73266 25.4569C9.24239 25.1941 9.77781 24.9314 10.3132 24.6666C10.3558 24.6468 10.4044 24.6443 10.4487 24.6598C10.493 24.6753 10.5294 24.7076 10.5503 24.7496C10.5603 24.7706 10.566 24.7934 10.5672 24.8166C10.5683 24.8398 10.5648 24.863 10.5569 24.8849C10.549 24.9068 10.5368 24.9268 10.5211 24.944C10.5054 24.9611 10.4865 24.975 10.4654 24.9847C9.92204 25.2435 9.39057 25.5043 8.88479 25.7651C8.86295 25.7782 8.8388 25.7869 8.81366 25.7908ZM52.6745 25.3542C52.6491 25.3542 52.6241 25.3485 52.6012 25.3376C52.5783 25.3266 52.5581 25.3107 52.5421 25.291C52.5269 25.2735 52.5152 25.2532 52.5079 25.2312C52.5005 25.2092 52.4976 25.1859 52.4992 25.1628C52.5009 25.1396 52.5071 25.1171 52.5175 25.0963C52.5279 25.0756 52.5423 25.0571 52.5599 25.042C52.7377 24.8919 52.9057 24.7397 53.0637 24.5915C53.3364 24.3347 53.5873 24.0779 53.8086 23.8269C53.8232 23.807 53.8419 23.7903 53.8633 23.778C53.8848 23.7656 53.9086 23.7579 53.9332 23.7553C53.9578 23.7526 53.9827 23.7552 54.0062 23.7627C54.0298 23.7703 54.0515 23.7827 54.0701 23.7991C54.0886 23.8156 54.1034 23.8357 54.1137 23.8582C54.124 23.8807 54.1295 23.9051 54.1298 23.9299C54.1301 23.9546 54.1252 23.9792 54.1155 24.0019C54.1058 24.0247 54.0914 24.0452 54.0733 24.0621C53.8441 24.3189 53.5873 24.5836 53.3067 24.8523C53.1447 25.0045 52.9709 25.1606 52.7911 25.3147C52.7554 25.3467 52.7086 25.3637 52.6607 25.3621L52.6745 25.3542ZM54.9486 22.6751C54.9212 22.6751 54.8942 22.6691 54.8695 22.6573C54.8278 22.6361 54.7961 22.5994 54.7813 22.555C54.7666 22.5106 54.7698 22.4622 54.7905 22.4202C54.871 22.2569 54.9409 22.0887 54.9999 21.9164C55.1102 21.6102 55.1683 21.2876 55.1718 20.9622C55.1718 20.9108 55.1718 20.8594 55.1718 20.8081C55.1725 20.7634 55.1899 20.7206 55.2206 20.6883C55.2514 20.6559 55.2932 20.6362 55.3377 20.6332C55.3823 20.6303 55.4263 20.6441 55.4611 20.6721C55.4959 20.7001 55.5189 20.7402 55.5255 20.7843C55.5255 20.8436 55.5255 20.9029 55.5255 20.9622C55.5194 21.3269 55.4526 21.6882 55.3279 22.031C55.2647 22.2178 55.1888 22.3999 55.1007 22.5763C55.0857 22.6072 55.062 22.633 55.0325 22.6505C55.003 22.6681 54.969 22.6766 54.9347 22.6751H54.9486ZM54.6621 19.4349C54.6371 19.4348 54.6124 19.4294 54.5897 19.4192C54.5669 19.409 54.5465 19.3942 54.5297 19.3757C54.1439 18.9591 53.6818 18.6204 53.1684 18.3779C53.1265 18.357 53.0947 18.3202 53.0798 18.2758C53.065 18.2313 53.0685 18.1828 53.0894 18.1408C53.1104 18.0989 53.1471 18.067 53.1916 18.0522C53.2361 18.0374 53.2846 18.0409 53.3265 18.0618C53.8809 18.325 54.3798 18.6919 54.7964 19.1425C54.8267 19.178 54.8419 19.2241 54.8386 19.2706C54.8352 19.3172 54.8137 19.3606 54.7787 19.3915C54.7465 19.4198 54.705 19.4353 54.6621 19.4349ZM51.5977 17.7694C51.5813 17.7713 51.5648 17.7713 51.5484 17.7694C50.9875 17.6102 50.4183 17.4823 49.8433 17.3861C49.7992 17.3757 49.7607 17.3488 49.7357 17.3109C49.7107 17.2731 49.7012 17.2271 49.709 17.1824C49.7168 17.1377 49.7414 17.0977 49.7778 17.0706C49.8142 17.0434 49.8595 17.0312 49.9046 17.0364C50.4921 17.1369 51.0738 17.2688 51.6471 17.4316C51.6876 17.444 51.7223 17.4705 51.7449 17.5062C51.7676 17.542 51.7768 17.5846 51.7709 17.6265C51.7649 17.6684 51.7442 17.7068 51.7125 17.7348C51.6807 17.7628 51.6401 17.7786 51.5977 17.7793V17.7694ZM48.1304 17.1411H48.1126C47.5574 17.0858 46.9667 17.0443 46.3601 17.0186C46.3369 17.0179 46.314 17.0125 46.2928 17.0028C46.2716 16.9932 46.2526 16.9794 46.2368 16.9623C46.221 16.9452 46.2087 16.9251 46.2007 16.9033C46.1927 16.8814 46.1892 16.8581 46.1902 16.8349C46.1933 16.7884 46.214 16.7449 46.2482 16.7133C46.2824 16.6817 46.3274 16.6644 46.374 16.665C46.9884 16.6926 47.5851 16.7341 48.1521 16.7895C48.1987 16.7918 48.2425 16.8126 48.2738 16.8472C48.3051 16.8819 48.3214 16.9275 48.3191 16.9742C48.3167 17.0208 48.2959 17.0646 48.2613 17.0959C48.2266 17.1272 48.181 17.1435 48.1343 17.1411H48.1304ZM42.8335 17.0127C42.7898 17.0081 42.7494 16.9875 42.72 16.9548C42.6906 16.9222 42.6744 16.8798 42.6744 16.8359C42.6744 16.792 42.6906 16.7496 42.72 16.7169C42.7494 16.6843 42.7898 16.6637 42.8335 16.6591C43.4262 16.6373 44.0189 16.6274 44.58 16.6274H44.6077C44.6514 16.6321 44.6918 16.6527 44.7211 16.6853C44.7505 16.718 44.7668 16.7604 44.7668 16.8043C44.7668 16.8482 44.7505 16.8906 44.7211 16.9232C44.6918 16.9559 44.6514 16.9765 44.6077 16.9811H44.5741C44.015 16.9811 43.4321 16.9811 42.8414 17.0127H42.8335Z" fill="url(#paint26_linear_348_986)"/>
<path d="M2.11598 27.9128C2.50864 27.83 2.91703 27.8655 3.28951 28.0148C3.66199 28.1641 3.98183 28.4205 4.2086 28.7516C4.43536 29.0827 4.55886 29.4736 4.56349 29.8748C4.56811 30.2761 4.45364 30.6697 4.23457 31.0059C4.01549 31.3421 3.70164 31.6058 3.3327 31.7637C2.96376 31.9215 2.55629 31.9664 2.16183 31.8927C1.76737 31.819 1.40363 31.63 1.11659 31.3496C0.829552 31.0691 0.632114 30.7099 0.549242 30.3172C0.438637 29.7907 0.541498 29.2417 0.835241 28.7909C1.12899 28.3401 1.58961 28.0243 2.11598 27.9128Z" fill="url(#paint27_linear_348_986)"/>
<path opacity="0.2" d="M2.11598 27.9128C2.50864 27.83 2.91703 27.8655 3.28951 28.0148C3.66199 28.1641 3.98183 28.4205 4.2086 28.7516C4.43536 29.0827 4.55886 29.4736 4.56349 29.8748C4.56811 30.2761 4.45364 30.6697 4.23457 31.0059C4.01549 31.3421 3.70164 31.6058 3.3327 31.7637C2.96376 31.9215 2.55629 31.9664 2.16183 31.8927C1.76737 31.819 1.40363 31.63 1.11659 31.3496C0.829552 31.0691 0.632114 30.7099 0.549242 30.3172C0.438637 29.7907 0.541498 29.2417 0.835241 28.7909C1.12899 28.3401 1.58961 28.0243 2.11598 27.9128Z" fill="white"/>
<path opacity="0.15" d="M3.81129 30.321C3.49912 31.3424 2.44804 31.8146 1.44043 31.6013C1.69042 31.7631 1.97297 31.8679 2.26803 31.9083C2.56308 31.9487 2.86341 31.9237 3.1477 31.8349C3.43198 31.7462 3.69325 31.596 3.91296 31.3949C4.13266 31.1939 4.30542 30.947 4.41897 30.6716C4.53252 30.3963 4.58407 30.0994 4.56996 29.8019C4.55586 29.5044 4.47644 29.2137 4.33736 28.9504C4.19827 28.6871 4.00293 28.4576 3.76519 28.2782C3.52744 28.0989 3.25313 27.974 2.96173 27.9126C3.49122 28.0786 4.14321 29.2363 3.81129 30.321Z" fill="white"/>
<path d="M40.931 9.31753C41.3598 8.28221 40.8682 7.09528 39.8329 6.66644C38.7975 6.2376 37.6106 6.72924 37.1818 7.76455C36.7529 8.79987 37.2446 9.98681 38.2799 10.4156C39.3152 10.8445 40.5021 10.3528 40.931 9.31753Z" fill="url(#paint28_linear_348_986)"/>
<path opacity="0.5" d="M40.931 9.31753C41.3598 8.28221 40.8682 7.09528 39.8329 6.66644C38.7975 6.2376 37.6106 6.72924 37.1818 7.76455C36.7529 8.79987 37.2446 9.98681 38.2799 10.4156C39.3152 10.8445 40.5021 10.3528 40.931 9.31753Z" fill="white"/>
<path opacity="0.35" d="M38.3788 9.70249C37.4443 9.18683 37.1934 8.06067 37.6182 7.11035C37.408 7.32155 37.2469 7.57644 37.1464 7.85692C37.0458 8.1374 37.0083 8.43658 37.0364 8.7332C37.0645 9.02983 37.1576 9.31662 37.3091 9.5732C37.4606 9.82978 37.6667 10.0499 37.9129 10.2178C38.159 10.3857 38.4391 10.4974 38.7332 10.5448C39.0274 10.5923 39.3284 10.5744 39.6148 10.4924C39.9013 10.4103 40.1662 10.2663 40.3906 10.0703C40.6151 9.87441 40.7937 9.63145 40.9137 9.35871C40.6391 9.85264 39.3707 10.2517 38.3788 9.70249Z" fill="white"/>
<path d="M51.6453 37.0188C51.3493 37.2898 50.9796 37.4669 50.5829 37.5278C50.1862 37.5887 49.7804 37.5306 49.4168 37.3608C49.0532 37.191 48.748 36.9172 48.54 36.5741C48.332 36.2309 48.2304 35.8337 48.2481 35.4328C48.2657 35.0319 48.4019 34.6452 48.6394 34.3217C48.8768 33.9982 49.2048 33.7523 49.582 33.6152C49.9592 33.4781 50.3685 33.456 50.7583 33.5515C51.1481 33.6471 51.5007 33.8561 51.7717 34.1521C51.9517 34.3486 52.0911 34.5787 52.1821 34.8291C52.2732 35.0795 52.314 35.3454 52.3022 35.6116C52.2905 35.8778 52.2264 36.1391 52.1137 36.3806C52.001 36.622 51.8418 36.8389 51.6453 37.0188Z" fill="url(#paint29_linear_348_986)"/>
<path opacity="0.5" d="M51.6453 37.0188C51.3493 37.2898 50.9796 37.4669 50.5829 37.5278C50.1862 37.5887 49.7804 37.5306 49.4168 37.3608C49.0532 37.191 48.748 36.9172 48.54 36.5741C48.332 36.2309 48.2304 35.8337 48.2481 35.4328C48.2657 35.0319 48.4019 34.6452 48.6394 34.3217C48.8768 33.9982 49.2048 33.7523 49.582 33.6152C49.9592 33.4781 50.3685 33.456 50.7583 33.5515C51.1481 33.6471 51.5007 33.8561 51.7717 34.1521C51.9517 34.3486 52.0911 34.5787 52.1821 34.8291C52.2732 35.0795 52.314 35.3454 52.3022 35.6116C52.2905 35.8778 52.2264 36.1391 52.1137 36.3806C52.001 36.622 51.8418 36.8389 51.6453 37.0188Z" fill="white"/>
<path opacity="0.35" d="M48.9598 35.8039C48.7089 34.7666 49.3747 33.8282 50.3586 33.4923C50.0614 33.4806 49.7653 33.5344 49.4912 33.6499C49.2171 33.7654 48.9717 33.9398 48.7725 34.1606C48.5732 34.3815 48.425 34.6434 48.3382 34.928C48.2515 35.2125 48.2283 35.5126 48.2704 35.807C48.3125 36.1015 48.4189 36.3831 48.5819 36.6318C48.7449 36.8806 48.9606 37.0905 49.2138 37.2467C49.4669 37.4029 49.7513 37.5015 50.0468 37.5355C50.3423 37.5696 50.6417 37.5382 50.9237 37.4437C50.3764 37.5721 49.2246 36.9063 48.9598 35.8039Z" fill="white"/>
<defs>
<linearGradient id="paint0_linear_348_986" x1="39.2072" y1="53.9348" x2="37.675" y2="50.2448" gradientUnits="userSpaceOnUse">
<stop stop-color="#5A45FF"/>
<stop offset="0.265384" stop-color="#7D71FF"/>
<stop offset="0.478947" stop-color="#7C81FF"/>
<stop offset="1" stop-color="#000099"/>
</linearGradient>
<linearGradient id="paint1_linear_348_986" x1="39.5426" y1="51.5388" x2="35.0819" y2="46.9067" gradientUnits="userSpaceOnUse">
<stop stop-color="#5A45FF"/>
<stop offset="0.265384" stop-color="#7D71FF"/>
<stop offset="0.478947" stop-color="#7C81FF"/>
<stop offset="1" stop-color="#000099"/>
</linearGradient>
<linearGradient id="paint2_linear_348_986" x1="39.3462" y1="50.9212" x2="34.7195" y2="46.1169" gradientUnits="userSpaceOnUse">
<stop stop-color="#5A45FF"/>
<stop offset="0.265384" stop-color="#7D71FF"/>
<stop offset="0.478947" stop-color="#7C81FF"/>
<stop offset="1" stop-color="#000099"/>
</linearGradient>
<linearGradient id="paint3_linear_348_986" x1="39.1083" y1="50.2455" x2="34.3634" y2="45.3186" gradientUnits="userSpaceOnUse">
<stop stop-color="#5A45FF"/>
<stop offset="0.265384" stop-color="#7D71FF"/>
<stop offset="0.478947" stop-color="#7C81FF"/>
<stop offset="1" stop-color="#000099"/>
</linearGradient>
<linearGradient id="paint4_linear_348_986" x1="38.8728" y1="49.5703" x2="34.0094" y2="44.5218" gradientUnits="userSpaceOnUse">
<stop stop-color="#5A45FF"/>
<stop offset="0.265384" stop-color="#7D71FF"/>
<stop offset="0.478947" stop-color="#7C81FF"/>
<stop offset="1" stop-color="#000099"/>
</linearGradient>
<linearGradient id="paint5_linear_348_986" x1="38.6346" y1="48.8975" x2="33.657" y2="43.7283" gradientUnits="userSpaceOnUse">
<stop stop-color="#5A45FF"/>
<stop offset="0.265384" stop-color="#7D71FF"/>
<stop offset="0.478947" stop-color="#7C81FF"/>
<stop offset="1" stop-color="#000099"/>
</linearGradient>
<linearGradient id="paint6_linear_348_986" x1="33.3821" y1="42.4744" x2="8.46698" y2="11.2552" gradientUnits="userSpaceOnUse">
<stop stop-color="#5A45FF"/>
<stop offset="0.265384" stop-color="#7D71FF"/>
<stop offset="0.478947" stop-color="#7C81FF"/>
<stop offset="1" stop-color="#000099"/>
</linearGradient>
<linearGradient id="paint7_linear_348_986" x1="27.9685" y1="48.3591" x2="22.7387" y2="35.5339" gradientUnits="userSpaceOnUse">
<stop stop-color="#5A45FF"/>
<stop offset="0.265384" stop-color="#7D71FF"/>
<stop offset="0.478947" stop-color="#7C81FF"/>
<stop offset="1" stop-color="#000099"/>
</linearGradient>
<linearGradient id="paint8_linear_348_986" x1="42.8363" y1="44.1646" x2="32.1836" y2="39.279" gradientUnits="userSpaceOnUse">
<stop stop-color="#5A45FF"/>
<stop offset="0.265384" stop-color="#7D71FF"/>
<stop offset="0.478947" stop-color="#7C81FF"/>
<stop offset="1" stop-color="#000099"/>
</linearGradient>
<linearGradient id="paint9_linear_348_986" x1="24.5252" y1="22.4337" x2="19.1958" y2="23.7283" gradientUnits="userSpaceOnUse">
<stop stop-color="#5A45FF"/>
<stop offset="0.265384" stop-color="#7D71FF"/>
<stop offset="0.478947" stop-color="#7C81FF"/>
<stop offset="1" stop-color="#000099"/>
</linearGradient>
<linearGradient id="paint10_linear_348_986" x1="23.3528" y1="29.6354" x2="20.2792" y2="25.0938" gradientUnits="userSpaceOnUse">
<stop stop-color="#5A45FF"/>
<stop offset="0.265384" stop-color="#7D71FF"/>
<stop offset="0.478947" stop-color="#7C81FF"/>
<stop offset="1" stop-color="#000099"/>
</linearGradient>
<linearGradient id="paint11_linear_348_986" x1="23.3511" y1="30.0171" x2="21.6861" y2="26.342" gradientUnits="userSpaceOnUse">
<stop stop-color="#5A45FF"/>
<stop offset="0.265384" stop-color="#7D71FF"/>
<stop offset="0.478947" stop-color="#7C81FF"/>
<stop offset="1" stop-color="#000099"/>
</linearGradient>
<linearGradient id="paint12_linear_348_986" x1="27.3772" y1="32.2801" x2="24.3029" y2="27.7383" gradientUnits="userSpaceOnUse">
<stop stop-color="#5A45FF"/>
<stop offset="0.265384" stop-color="#7D71FF"/>
<stop offset="0.478947" stop-color="#7C81FF"/>
<stop offset="1" stop-color="#000099"/>
</linearGradient>
<linearGradient id="paint13_linear_348_986" x1="27.3794" y1="32.6666" x2="25.7144" y2="28.9914" gradientUnits="userSpaceOnUse">
<stop stop-color="#5A45FF"/>
<stop offset="0.265384" stop-color="#7D71FF"/>
<stop offset="0.478947" stop-color="#7C81FF"/>
<stop offset="1" stop-color="#000099"/>
</linearGradient>
<linearGradient id="paint14_linear_348_986" x1="31.8489" y1="30.1391" x2="28.774" y2="25.5971" gradientUnits="userSpaceOnUse">
<stop stop-color="#5A45FF"/>
<stop offset="0.265384" stop-color="#7D71FF"/>
<stop offset="0.478947" stop-color="#7C81FF"/>
<stop offset="1" stop-color="#000099"/>
</linearGradient>
<linearGradient id="paint15_linear_348_986" x1="31.9553" y1="25.4349" x2="28.8811" y2="20.8931" gradientUnits="userSpaceOnUse">
<stop stop-color="#5A45FF"/>
<stop offset="0.265384" stop-color="#7D71FF"/>
<stop offset="0.478947" stop-color="#7C81FF"/>
<stop offset="1" stop-color="#000099"/>
</linearGradient>
<linearGradient id="paint16_linear_348_986" x1="31.9537" y1="25.8072" x2="30.2887" y2="22.1321" gradientUnits="userSpaceOnUse">
<stop stop-color="#5A45FF"/>
<stop offset="0.265384" stop-color="#7D71FF"/>
<stop offset="0.478947" stop-color="#7C81FF"/>
<stop offset="1" stop-color="#000099"/>
</linearGradient>
<linearGradient id="paint17_linear_348_986" x1="31.2068" y1="27.0344" x2="28.7682" y2="23.431" gradientUnits="userSpaceOnUse">
<stop stop-color="#5A45FF"/>
<stop offset="0.265384" stop-color="#7D71FF"/>
<stop offset="0.478947" stop-color="#7C81FF"/>
<stop offset="1" stop-color="#000099"/>
</linearGradient>
<linearGradient id="paint18_linear_348_986" x1="31.2084" y1="27.3276" x2="29.8914" y2="24.4122" gradientUnits="userSpaceOnUse">
<stop stop-color="#5A45FF"/>
<stop offset="0.265384" stop-color="#7D71FF"/>
<stop offset="0.478947" stop-color="#7C81FF"/>
<stop offset="1" stop-color="#000099"/>
</linearGradient>
<linearGradient id="paint19_linear_348_986" x1="29.3134" y1="20.6393" x2="23.8502" y2="24.3149" gradientUnits="userSpaceOnUse">
<stop stop-color="#5A45FF"/>
<stop offset="0.265384" stop-color="#7D71FF"/>
<stop offset="0.478947" stop-color="#7C81FF"/>
<stop offset="1" stop-color="#000099"/>
</linearGradient>
<linearGradient id="paint20_linear_348_986" x1="28.4372" y1="23.9627" x2="26.4541" y2="19.564" gradientUnits="userSpaceOnUse">
<stop stop-color="#5A45FF"/>
<stop offset="0.265384" stop-color="#7D71FF"/>
<stop offset="0.478947" stop-color="#7C81FF"/>
<stop offset="1" stop-color="#000099"/>
</linearGradient>
<linearGradient id="paint21_linear_348_986" x1="27.8119" y1="28.2758" x2="24.121" y2="22.8229" gradientUnits="userSpaceOnUse">
<stop stop-color="#5A45FF"/>
<stop offset="0.265384" stop-color="#7D71FF"/>
<stop offset="0.478947" stop-color="#7C81FF"/>
<stop offset="1" stop-color="#000099"/>
</linearGradient>
<linearGradient id="paint22_linear_348_986" x1="24.7428" y1="24.8736" x2="21.0617" y2="27.2019" gradientUnits="userSpaceOnUse">
<stop stop-color="#5A45FF"/>
<stop offset="0.265384" stop-color="#7D71FF"/>
<stop offset="0.478947" stop-color="#7C81FF"/>
<stop offset="1" stop-color="#000099"/>
</linearGradient>
<linearGradient id="paint23_linear_348_986" x1="24.1452" y1="27.0352" x2="22.8331" y2="24.1258" gradientUnits="userSpaceOnUse">
<stop stop-color="#5A45FF"/>
<stop offset="0.265384" stop-color="#7D71FF"/>
<stop offset="0.478947" stop-color="#7C81FF"/>
<stop offset="1" stop-color="#000099"/>
</linearGradient>
<linearGradient id="paint24_linear_348_986" x1="35.7395" y1="36.7601" x2="21.2664" y2="3.09336" gradientUnits="userSpaceOnUse">
<stop stop-color="#5A45FF"/>
<stop offset="0.265384" stop-color="#7D71FF"/>
<stop offset="0.478947" stop-color="#7C81FF"/>
<stop offset="1" stop-color="#000099"/>
</linearGradient>
<linearGradient id="paint25_linear_348_986" x1="31.3971" y1="43.5871" x2="0.769785" y2="24.6176" gradientUnits="userSpaceOnUse">
<stop stop-color="#5A45FF"/>
<stop offset="0.265384" stop-color="#7D71FF"/>
<stop offset="0.478947" stop-color="#7C81FF"/>
<stop offset="1" stop-color="#000099"/>
</linearGradient>
<linearGradient id="paint26_linear_348_986" x1="36.5858" y1="33.6263" x2="30.0818" y2="8.63575" gradientUnits="userSpaceOnUse">
<stop stop-color="#5A45FF"/>
<stop offset="0.265384" stop-color="#7D71FF"/>
<stop offset="0.478947" stop-color="#7C81FF"/>
<stop offset="1" stop-color="#000099"/>
</linearGradient>
<linearGradient id="paint27_linear_348_986" x1="3.17952" y1="31.1003" x2="0.825057" y2="27.6221" gradientUnits="userSpaceOnUse">
<stop stop-color="#5A45FF"/>
<stop offset="0.265384" stop-color="#7D71FF"/>
<stop offset="0.478947" stop-color="#7C81FF"/>
<stop offset="1" stop-color="#000099"/>
</linearGradient>
<linearGradient id="paint28_linear_348_986" x1="40.4137" y1="8.4053" x2="36.2992" y2="9.24938" gradientUnits="userSpaceOnUse">
<stop stop-color="#5A45FF"/>
<stop offset="0.265384" stop-color="#7D71FF"/>
<stop offset="0.478947" stop-color="#7C81FF"/>
<stop offset="1" stop-color="#000099"/>
</linearGradient>
<linearGradient id="paint29_linear_348_986" x1="50.92" y1="36.7243" x2="48.5656" y2="33.246" gradientUnits="userSpaceOnUse">
<stop stop-color="#5A45FF"/>
<stop offset="0.265384" stop-color="#7D71FF"/>
<stop offset="0.478947" stop-color="#7C81FF"/>
<stop offset="1" stop-color="#000099"/>
</linearGradient>
</defs>
</svg>
