<svg width="16" height="17" viewBox="0 0 16 17" fill="none" xmlns="http://www.w3.org/2000/svg">
<path d="M14.93 16.5C13.2447 16.5 11.5167 16.078 9.746 15.234C7.97533 14.39 6.33033 13.205 4.811 11.679C3.29167 10.153 2.11 8.508 1.266 6.744C0.422 4.98 0 3.25533 0 1.57C0 1.26467 0.1 1.01033 0.3 0.807C0.5 0.603667 0.75 0.501333 1.05 0.5H3.523C3.795 0.5 4.03233 0.585667 4.235 0.757C4.43767 0.928333 4.57467 1.148 4.646 1.416L5.142 3.8C5.18867 4.08 5.18033 4.32433 5.117 4.533C5.05367 4.74167 4.94267 4.91267 4.784 5.046L2.59 7.092C3.00067 7.83667 3.45433 8.52867 3.951 9.168C4.44767 9.80733 4.97767 10.413 5.541 10.985C6.121 11.565 6.74567 12.105 7.415 12.605C8.08433 13.1043 8.819 13.5757 9.619 14.019L11.758 11.842C11.9207 11.6667 12.1037 11.551 12.307 11.495C12.5097 11.4397 12.7343 11.4287 12.981 11.462L15.084 11.892C15.356 11.9587 15.5767 12.0957 15.746 12.303C15.9153 12.5103 16 12.7477 16 13.015V15.45C16 15.75 15.898 16 15.694 16.2C15.49 16.4 15.2347 16.5 14.93 16.5ZM2.12 6.154L4.04 4.389C4.10333 4.33767 4.14467 4.267 4.164 4.177C4.184 4.087 4.18067 4.00367 4.154 3.927L3.711 1.807C3.685 1.705 3.64 1.62833 3.576 1.577C3.512 1.52567 3.429 1.5 3.327 1.5H1.275C1.19833 1.5 1.13433 1.52567 1.083 1.577C1.03167 1.62833 1.006 1.69233 1.006 1.769C1.02533 2.45233 1.13233 3.16567 1.327 3.909C1.52167 4.65233 1.78533 5.40067 2.12 6.154ZM10.571 14.488C11.247 14.8227 11.967 15.0703 12.731 15.231C13.4963 15.391 14.163 15.4767 14.731 15.488C14.8077 15.488 14.8717 15.4623 14.923 15.411C14.9743 15.3597 15 15.296 15 15.22V13.212C15 13.11 14.9743 13.0267 14.923 12.962C14.8717 12.898 14.795 12.8533 14.693 12.828L12.843 12.449C12.7657 12.423 12.698 12.4197 12.64 12.439C12.5827 12.459 12.522 12.5007 12.458 12.564L10.571 14.488Z" fill="white"/>
</svg>
