<svg width="147" height="102" viewBox="0 0 147 102" fill="none" xmlns="http://www.w3.org/2000/svg">
<ellipse cx="84" cy="58" rx="63" ry="43" fill="#F4EBFF"/>
<path d="M70.5436 84.4197C66.4919 81.8387 65.8841 79.1524 66.0867 77.3494C66.5405 73.5854 70.7624 70.5142 74.49 69.246C80.6121 67.1796 82.0059 64.0314 82.0181 63.999L82.7676 64.311C82.7109 64.4528 81.2604 67.8157 74.7493 70.0158C71.2526 71.1949 67.3022 74.0189 66.8889 77.4386C66.6175 79.6873 68.0275 81.863 70.9609 83.7268L70.5436 84.4197Z" fill="black"/>
<path d="M70.9599 88.6733C66.6772 88.2235 63.9545 86.2423 63.4966 83.2359C62.9294 79.5488 66.0168 75.3553 70.8384 73.2687C79.347 69.5816 83.1677 66.008 83.2082 65.9756L83.7674 66.5631C83.6094 66.7089 79.8372 70.2663 71.1625 74.0182C66.6732 75.959 63.7843 79.7879 64.2746 83.1184C64.6797 85.7317 67.1351 87.4659 71.0207 87.871L70.9599 88.6733Z" fill="black"/>
<path d="M135.546 53.1359L134.959 52.5808C135.307 52.208 143.391 43.3834 131.556 32.1318C129.53 30.2072 127.662 28.3799 126.017 26.7673C117.431 18.36 112.703 13.7289 104.004 12.7605L104.093 11.9502C113.072 12.9469 118.157 17.9305 126.584 26.1839C128.229 27.8046 130.089 29.6197 132.111 31.5402C144.549 43.3631 135.64 53.0386 135.546 53.1359Z" fill="url(#paint0_linear_556_496)"/>
<path d="M132.567 54.0318L131.526 52.8163L132.044 53.4362L131.522 52.8163C131.591 52.7596 138.195 47.0669 136.696 38.6839C135.76 33.4451 127.02 22.3312 117.15 15.8525C113.001 13.1257 106.976 10.1315 101.859 11.3389L101.486 9.76279C107.159 8.42167 113.641 11.5982 118.042 14.4952C127.519 20.7186 137.17 32.112 138.3 38.4003C139.957 47.7152 132.871 53.7968 132.567 54.0318Z" fill="black"/>
<path d="M139.98 52.7145L130.499 42.6379C130.343 42.4711 130.155 42.3371 129.946 42.2439C129.737 42.1507 129.512 42.1 129.283 42.095C128.846 42.095 124.462 42.095 124.462 42.095C124.229 42.0808 123.995 42.1144 123.776 42.1938C123.556 42.2733 123.356 42.3968 123.186 42.5569L117.716 47.7066C117.384 48.0191 117.189 48.4504 117.175 48.9062C117.16 49.3619 117.327 49.8048 117.639 50.1376L127.116 60.2142C127.272 60.3814 127.46 60.5156 127.669 60.6088C127.877 60.7021 128.103 60.7525 128.331 60.7572C128.773 60.7572 132.756 60.7572 133.193 60.7572C133.644 60.7656 134.08 60.5985 134.409 60.2912L139.883 55.1415C140.215 54.8314 140.412 54.4025 140.43 53.948C140.449 53.4935 140.287 53.0503 139.98 52.7145Z" fill="black"/>
<path opacity="0.2" d="M139.98 52.7145L130.499 42.6379C130.343 42.4711 130.155 42.3371 129.946 42.2439C129.737 42.1507 129.512 42.1 129.283 42.095C128.846 42.095 124.462 42.095 124.462 42.095C124.229 42.0808 123.995 42.1144 123.776 42.1938C123.556 42.2733 123.356 42.3968 123.186 42.5569L117.716 47.7066C117.384 48.0191 117.189 48.4504 117.175 48.9062C117.16 49.3619 117.327 49.8048 117.639 50.1376L127.116 60.2142C127.272 60.3814 127.46 60.5156 127.669 60.6088C127.877 60.7021 128.103 60.7525 128.331 60.7572C128.773 60.7572 132.756 60.7572 133.193 60.7572C133.644 60.7656 134.08 60.5985 134.409 60.2912L139.883 55.1415C140.215 54.8314 140.412 54.4025 140.43 53.948C140.449 53.4935 140.287 53.0503 139.98 52.7145Z" fill="white"/>
<path opacity="0.2" d="M128.069 42.577L122.593 47.7249C121.9 48.3762 121.866 49.466 122.517 50.1589L131.994 60.2404C132.646 60.9334 133.736 60.967 134.428 60.3157L139.905 55.1678C140.598 54.5164 140.631 53.4266 139.98 52.7337L130.503 42.6522C129.851 41.9593 128.762 41.9256 128.069 42.577Z" fill="black"/>
<path d="M127.59 57.1633C127.133 56.7515 126.59 56.4467 126 56.2708C125.411 56.0949 124.79 56.0523 124.182 56.1463L116.662 64.1079C116.168 64.6346 116.662 65.684 118.011 66.8023C119.596 68.1029 120.868 67.9732 121.253 67.5802L128.829 59.5295C128.791 59.0722 128.662 58.6272 128.449 58.2208C128.236 57.8143 127.944 57.4548 127.59 57.1633Z" fill="url(#paint1_linear_556_496)"/>
<path opacity="0.2" d="M116.663 64.1086C117.878 62.8404 122.441 66.3046 121.237 67.5809C120.869 67.9861 119.596 68.1036 117.996 66.803C116.659 65.6847 116.169 64.6353 116.663 64.1086Z" fill="black"/>
<path d="M105.112 87.814V92.4613H94.7031V87.814C94.7042 86.8217 95.0991 85.8705 95.8011 85.1693C96.5031 84.4681 97.4547 84.0742 98.4469 84.0742H101.368C102.36 84.0742 103.312 84.4681 104.014 85.1693C104.716 85.8705 105.111 86.8217 105.112 87.814Z" fill="black"/>
<path opacity="0.2" d="M105.112 87.814V92.4613H94.7031V87.814C94.7042 86.8217 95.0991 85.8705 95.8011 85.1693C96.5031 84.4681 97.4547 84.0742 98.4469 84.0742H101.368C102.36 84.0742 103.312 84.4681 104.014 85.1693C104.716 85.8705 105.111 86.8217 105.112 87.814Z" fill="white"/>
<path opacity="0.2" d="M105.112 87.814V92.4613H96.7285V87.814C96.7285 86.8221 97.1225 85.8709 97.8239 85.1696C98.5252 84.4682 99.4764 84.0742 100.468 84.0742H101.368C102.36 84.0742 103.312 84.4681 104.014 85.1693C104.716 85.8705 105.11 86.8217 105.112 87.814Z" fill="black"/>
<path d="M120.47 67.4672L120.215 67.7386L101.893 87.2152C101.697 87.4243 101.461 87.5927 101.199 87.7106C100.937 87.8286 100.655 87.8938 100.368 87.9027C100.081 87.9115 99.7955 87.8638 99.527 87.7622C99.2586 87.6605 99.0128 87.5071 98.8037 87.3105C98.5946 87.1138 98.4263 86.878 98.3083 86.6163C98.1904 86.3547 98.1251 86.0723 98.1163 85.7855C98.1074 85.4986 98.1552 85.2128 98.2568 84.9443C98.3584 84.6759 98.5119 84.4301 98.7085 84.221L116.621 65.178L117.026 64.7728C118.169 64.3433 120.904 66.4502 120.47 67.4672Z" fill="url(#paint2_linear_556_496)"/>
<path d="M109.165 87.814V92.4613H98.7598V87.814C98.7598 86.8221 99.1538 85.8709 99.8551 85.1696C100.556 84.4682 101.508 84.0742 102.499 84.0742H105.425C106.417 84.0742 107.368 84.4682 108.069 85.1696C108.771 85.8709 109.165 86.8221 109.165 87.814Z" fill="black"/>
<path opacity="0.2" d="M109.165 87.814V92.4613H98.7598V87.814C98.7598 86.8221 99.1538 85.8709 99.8551 85.1696C100.556 84.4682 101.508 84.0742 102.499 84.0742H105.425C106.417 84.0742 107.368 84.4682 108.069 85.1696C108.771 85.8709 109.165 86.8221 109.165 87.814Z" fill="white"/>
<path opacity="0.2" d="M109.164 87.814V92.4613H100.785V87.814C100.785 86.8221 101.179 85.8709 101.88 85.1696C102.582 84.4682 103.533 84.0742 104.525 84.0742H105.424C106.416 84.0742 107.367 84.4682 108.069 85.1696C108.77 85.8709 109.164 86.8221 109.164 87.814Z" fill="black"/>
<path d="M91.5391 89.8884V100.322H112.43V89.8884C112.43 89.566 112.302 89.2568 112.074 89.0289C111.846 88.8009 111.537 88.6729 111.214 88.6729H92.7384C92.4188 88.6771 92.1138 88.8071 91.8893 89.0345C91.6649 89.262 91.539 89.5688 91.5391 89.8884Z" fill="black"/>
<path opacity="0.2" d="M91.5391 89.8884V100.322H112.43V89.8884C112.43 89.566 112.302 89.2568 112.074 89.0289C111.846 88.8009 111.537 88.6729 111.214 88.6729H92.7384C92.4188 88.6771 92.1138 88.8071 91.8893 89.0345C91.6649 89.262 91.539 89.5688 91.5391 89.8884Z" fill="white"/>
<path opacity="0.2" d="M91.5391 89.8884V100.322H105.137V89.8884C105.137 89.566 105.009 89.2568 104.781 89.0289C104.553 88.8009 104.243 88.6729 103.921 88.6729H92.7384C92.4188 88.6771 92.1138 88.8071 91.8893 89.0345C91.6649 89.262 91.539 89.5688 91.5391 89.8884Z" fill="white"/>
<path d="M86.7082 83.8919V93.1865H65.8945V83.8919C65.894 82.9088 66.0872 81.9352 66.463 81.0268C66.8389 80.1184 67.39 79.2929 68.085 78.5976C68.7799 77.9023 69.6051 77.3507 70.5133 76.9743C71.4215 76.598 72.395 76.4043 73.378 76.4043H79.2247C80.2078 76.4043 81.1812 76.598 82.0894 76.9743C82.9976 77.3507 83.8228 77.9023 84.5178 78.5976C85.2127 79.2929 85.7639 80.1184 86.1397 81.0268C86.5155 81.9352 86.7087 82.9088 86.7082 83.8919Z" fill="url(#paint3_linear_556_496)"/>
<path opacity="0.2" d="M86.7112 83.8919V93.1865H69.9492V83.8919C69.9482 82.909 70.1408 81.9355 70.5162 81.0271C70.8916 80.1187 71.4424 79.2932 72.137 78.5978C72.8317 77.9025 73.6566 77.3508 74.5646 76.9744C75.4725 76.598 76.4458 76.4043 77.4287 76.4043H79.2276C80.2107 76.4043 81.1842 76.598 82.0924 76.9743C83.0006 77.3507 83.8258 77.9023 84.5207 78.5976C85.2157 79.2929 85.7668 80.1184 86.1427 81.0268C86.5185 81.9352 86.7117 82.9088 86.7112 83.8919Z" fill="black"/>
<path d="M107.791 56.7697L105.461 59.2494L102.374 62.5313L94.1085 71.3235C93.999 71.4391 93.8671 71.5311 93.7208 71.5938C93.5744 71.6565 93.4168 71.6886 93.2576 71.6881H89.7164C89.4154 71.6924 89.1247 71.579 88.9061 71.3721L80.2962 63.2687C80.0721 63.0559 79.9413 62.7631 79.9321 62.4542C79.923 62.1453 80.0364 61.8453 80.2476 61.6196L93.9302 47.0699C94.0374 46.9556 94.1666 46.864 94.31 46.8006C94.4534 46.7373 94.6081 46.7035 94.7649 46.7012H98.3223C98.623 46.6982 98.9133 46.8114 99.1326 47.0173L105.457 52.9652L107.738 55.1126C107.851 55.2178 107.941 55.3442 108.005 55.4845C108.068 55.6248 108.104 55.7763 108.109 55.9302C108.113 56.0842 108.088 56.2376 108.033 56.3816C107.979 56.5257 107.897 56.6576 107.791 56.7697Z" fill="black"/>
<path opacity="0.3" d="M107.791 56.7697L105.461 59.2494L102.374 62.5313L94.1085 71.3235C93.999 71.4391 93.8671 71.5311 93.7208 71.5938C93.5744 71.6565 93.4168 71.6886 93.2576 71.6881H89.7164C89.4154 71.6924 89.1247 71.579 88.9061 71.3721L80.2962 63.2687C80.0721 63.0559 79.9413 62.7631 79.9321 62.4542C79.923 62.1453 80.0364 61.8453 80.2476 61.6196L93.9302 47.0699C94.0374 46.9556 94.1666 46.864 94.31 46.8006C94.4534 46.7373 94.6081 46.7035 94.7649 46.7012H98.3223C98.623 46.6982 98.9133 46.8114 99.1326 47.0173L105.457 52.9652L107.738 55.1126C107.851 55.2178 107.941 55.3442 108.005 55.4845C108.068 55.6248 108.104 55.7763 108.109 55.9302C108.113 56.0842 108.088 56.2376 108.033 56.3816C107.979 56.5257 107.897 56.6576 107.791 56.7697Z" fill="white"/>
<path opacity="0.2" d="M105.462 52.9737V59.2498L102.375 62.5317H80.6817C80.5776 62.5324 80.4754 62.5034 80.3872 62.4481C80.299 62.3928 80.2285 62.3135 80.1838 62.2194C80.1391 62.1254 80.1222 62.0206 80.135 61.9173C80.1479 61.814 80.1899 61.7165 80.2562 61.6362L93.9389 47.0865C94.0461 46.9722 94.1752 46.8806 94.3187 46.8172C94.4621 46.7539 94.6168 46.7201 94.7735 46.7178H98.3309C98.6317 46.7148 98.922 46.828 99.1413 47.0339L105.462 52.9737Z" fill="white"/>
<path d="M122.558 41.5968C121.815 40.6426 120.865 39.8706 119.778 39.3397C118.692 38.8089 117.499 38.5332 116.29 38.5337C115.479 38.5337 112.445 38.5337 111.679 38.5337C110.579 38.521 109.489 38.7375 108.477 39.1692C107.466 39.601 106.555 40.2388 105.804 41.0417L85.0469 63.1155H111.59L122.08 51.9571C123.383 50.5717 124.148 48.7656 124.236 46.8654C124.323 44.9652 123.728 43.0963 122.558 41.5968Z" fill="black"/>
<path opacity="0.6" d="M122.558 41.5968C121.815 40.6426 120.865 39.8706 119.778 39.3397C118.692 38.8089 117.499 38.5332 116.29 38.5337C115.479 38.5337 112.445 38.5337 111.679 38.5337C110.579 38.521 109.489 38.7375 108.477 39.1692C107.466 39.601 106.555 40.2388 105.804 41.0417L85.0469 63.1155H111.59L122.08 51.9571C123.383 50.5717 124.148 48.7656 124.236 46.8654C124.323 44.9652 123.728 43.0963 122.558 41.5968Z" fill="white"/>
<path opacity="0.2" d="M122.559 41.5957C121.852 40.6894 120.957 39.9468 119.936 39.4189C118.915 38.891 117.792 38.5904 116.644 38.5377C115.495 38.4849 114.349 38.6814 113.284 39.1134C112.219 39.5455 111.26 40.2029 110.473 41.0407L89.7402 63.1144H111.619L122.109 51.956C123.409 50.5672 124.168 48.7592 124.251 46.8591C124.333 44.9589 123.733 43.0919 122.559 41.5957Z" fill="black"/>
<path d="M118.782 55.9355L106.951 44.8095C106.654 44.533 106.263 44.3783 105.857 44.376C105.428 44.376 101.364 44.376 100.963 44.376C100.748 44.3782 100.537 44.4239 100.34 44.5102C100.144 44.5966 99.9669 44.7218 99.8203 44.8784L81.0041 64.8857C80.7162 65.1976 80.5621 65.61 80.575 66.0343C80.5878 66.4586 80.7667 66.8609 81.073 67.1547L92.9081 78.2848C93.2033 78.5647 93.5951 78.72 94.002 78.7183H98.8641C99.0826 78.7191 99.299 78.6749 99.4998 78.5885C99.7005 78.5021 99.8814 78.3752 100.031 78.2159L118.843 58.2045C119.132 57.8936 119.288 57.4818 119.276 57.0576C119.265 56.6333 119.088 56.2304 118.782 55.9355Z" fill="url(#paint4_linear_556_496)"/>
<g opacity="0.2">
<path d="M118.851 58.2047L100.038 78.2162C99.7447 78.5213 99.3433 78.6993 98.92 78.7122C98.4967 78.7251 98.0852 78.5717 97.7735 78.285L85.9384 67.155C85.6315 66.8617 85.452 66.4597 85.4383 66.0354C85.4247 65.6111 85.5781 65.1984 85.8655 64.886L104.682 44.8786C104.975 44.5723 105.378 44.3935 105.802 44.3806C106.226 44.3678 106.639 44.5218 106.951 44.8098L118.782 55.9358C119.088 56.2296 119.267 56.6319 119.28 57.0562C119.293 57.4805 119.138 57.8928 118.851 58.2047Z" fill="black"/>
</g>
<path d="M97.4686 78.1023H97.5172L88.8708 87.2956C87.84 88.3976 86.5158 89.182 85.0541 89.5565L84.7867 89.6173C84.3616 89.7129 83.9293 89.7725 83.4942 89.7955H83.089H78.3931C76.8387 89.7947 75.3186 89.3392 74.02 88.485C72.7213 87.6308 71.701 86.4154 71.0846 84.9885C70.4683 83.5615 70.2829 81.9855 70.5513 80.4544C70.8197 78.9234 71.5301 77.5044 72.5951 76.3722L81.1685 67.2559H85.8361L97.4686 78.1023Z" fill="black"/>
<path opacity="0.6" d="M97.4686 78.1023H97.5172L88.8708 87.2956C87.84 88.3976 86.5158 89.182 85.0541 89.5565L84.7867 89.6173C84.3616 89.7129 83.9293 89.7725 83.4942 89.7955H83.089H78.3931C76.8387 89.7947 75.3186 89.3392 74.02 88.485C72.7213 87.6308 71.701 86.4154 71.0846 84.9885C70.4683 83.5615 70.2829 81.9855 70.5513 80.4544C70.8197 78.9234 71.5301 77.5044 72.5951 76.3722L81.1685 67.2559H85.8361L97.4686 78.1023Z" fill="white"/>
<path opacity="0.2" d="M97.5194 78.0867L88.8731 87.28C87.8423 88.3819 86.5181 89.1664 85.0564 89.5409L84.7889 89.6016C84.3639 89.6973 83.9315 89.7569 83.4964 89.7799H83.0913H82.913C81.3693 89.7549 79.8662 89.2819 78.5864 88.4184C77.3066 87.5549 76.3054 86.338 75.7044 84.9159C75.1035 83.4938 74.9287 81.9277 75.2014 80.4081C75.4742 78.8885 76.1826 77.481 77.2406 76.3566L85.814 67.2402L97.4465 78.0948L97.5194 78.0867Z" fill="black"/>
<path d="M82.6941 5.62974C83.4366 4.67707 84.3869 3.90661 85.4725 3.37716C86.558 2.84771 87.7503 2.57326 88.9581 2.57475C89.7482 2.57475 92.8032 2.57475 93.5689 2.57475C94.6686 2.56204 95.759 2.77847 96.7704 3.21027C97.7819 3.64207 98.6924 4.27977 99.4439 5.08276L132.668 40.4056C133.972 41.7917 134.737 43.5989 134.824 45.5C134.911 47.4011 134.314 49.2706 133.142 50.7699C132.398 51.7258 131.444 52.4985 130.355 53.0287C129.266 53.559 128.069 53.8327 126.858 53.8289H122.154C121.072 53.8269 120.002 53.6033 119.009 53.172C118.017 52.7406 117.124 52.1107 116.384 51.3209L83.1601 15.9981C81.8546 14.6116 81.0896 12.8028 81.0041 10.9003C80.9186 8.99784 81.5183 7.12778 82.6941 5.62974Z" fill="black"/>
<path opacity="0.6" d="M82.6941 5.62974C83.4366 4.67707 84.3869 3.90661 85.4725 3.37716C86.558 2.84771 87.7503 2.57326 88.9581 2.57475C89.7482 2.57475 92.8032 2.57475 93.5689 2.57475C94.6686 2.56204 95.759 2.77847 96.7704 3.21027C97.7819 3.64207 98.6924 4.27977 99.4439 5.08276L132.668 40.4056C133.972 41.7917 134.737 43.5989 134.824 45.5C134.911 47.4011 134.314 49.2706 133.142 50.7699C132.398 51.7258 131.444 52.4985 130.355 53.0287C129.266 53.559 128.069 53.8327 126.858 53.8289H122.154C121.072 53.8269 120.002 53.6033 119.009 53.172C118.017 52.7406 117.124 52.1107 116.384 51.3209L83.1601 15.9981C81.8546 14.6116 81.0896 12.8028 81.0041 10.9003C80.9186 8.99784 81.5183 7.12778 82.6941 5.62974Z" fill="white"/>
<path opacity="0.2" d="M133.129 50.7608C134.301 49.2614 134.898 47.392 134.811 45.4909C134.724 43.5897 133.959 41.7826 132.655 40.3965L99.4309 5.07365C98.6435 4.23654 97.6844 3.57963 96.6192 3.14797C95.5541 2.71631 94.4083 2.52012 93.2602 2.57285C92.1122 2.62557 90.9891 2.92597 89.968 3.45344C88.947 3.98091 88.0521 4.72297 87.3447 5.62873C86.1742 7.12823 85.579 8.9971 85.6667 10.8973C85.7544 12.7975 86.5192 14.6036 87.8228 15.989L121.047 51.3118C121.834 52.1491 122.792 52.8062 123.857 53.2382C124.921 53.6702 126.067 53.8667 127.215 53.8144C128.362 53.762 129.485 53.462 130.506 52.9349C131.527 52.4079 132.422 51.6662 133.129 50.7608Z" fill="black"/>
<path d="M94.466 83.8919V93.1865H73.6523V83.8919C73.6518 82.9088 73.845 81.9352 74.2208 81.0268C74.5967 80.1184 75.1478 79.2929 75.8428 78.5976C76.5377 77.9023 77.3629 77.3507 78.2711 76.9743C79.1793 76.598 80.1528 76.4043 81.1359 76.4043H86.9825C87.9656 76.4043 88.939 76.598 89.8472 76.9743C90.7554 77.3507 91.5806 77.9023 92.2756 78.5976C92.9705 79.2929 93.5217 80.1184 93.8975 81.0268C94.2734 81.9352 94.4665 82.9088 94.466 83.8919Z" fill="url(#paint5_linear_556_496)"/>
<path opacity="0.2" d="M94.469 83.8919V93.1865H77.707V83.8919C77.706 82.909 77.8986 81.9355 78.2741 81.0271C78.6495 80.1187 79.2002 79.2932 79.8949 78.5978C80.5895 77.9025 81.4144 77.3508 82.3224 76.9744C83.2303 76.598 84.2036 76.4043 85.1865 76.4043H86.9855C87.9686 76.4043 88.942 76.598 89.8502 76.9743C90.7584 77.3507 91.5836 77.9023 92.2785 78.5976C92.9735 79.2929 93.5247 80.1184 93.9005 81.0268C94.2763 81.9352 94.4695 82.9088 94.469 83.8919Z" fill="black"/>
<path d="M103.199 92.3776V100.38H56.75V92.3776C56.75 92.0552 56.8781 91.7461 57.106 91.5181C57.334 91.2902 57.6431 91.1621 57.9655 91.1621H102C102.319 91.1664 102.624 91.2963 102.849 91.5238C103.073 91.7513 103.199 92.058 103.199 92.3776Z" fill="url(#paint6_linear_556_496)"/>
<path opacity="0.2" d="M103.2 92.3776V100.38H77.0215V92.3776C77.0215 92.0552 77.1496 91.7461 77.3775 91.5181C77.6055 91.2902 77.9146 91.1621 78.237 91.1621H102.017C102.333 91.1706 102.634 91.3023 102.855 91.5294C103.076 91.7564 103.2 92.0608 103.2 92.3776Z" fill="black"/>
<path opacity="0.2" d="M103.199 92.3776V100.38H56.75V92.3776C56.75 92.0552 56.8781 91.7461 57.106 91.5181C57.334 91.2902 57.6431 91.1621 57.9655 91.1621H102C102.319 91.1664 102.624 91.2963 102.849 91.5238C103.073 91.7513 103.199 92.058 103.199 92.3776Z" fill="black"/>
<path d="M115.534 100.805V102H53.4414V100.805C53.4409 100.559 53.4888 100.316 53.5824 100.089C53.6761 99.8615 53.8136 99.6551 53.9871 99.4812C54.1606 99.3073 54.3666 99.1694 54.5935 99.0753C54.8204 98.9811 55.0636 98.9327 55.3093 98.9327H113.646C113.893 98.9305 114.138 98.9774 114.367 99.0705C114.596 99.1636 114.804 99.3011 114.98 99.4752C115.155 99.6492 115.295 99.8563 115.39 100.084C115.485 100.313 115.534 100.557 115.534 100.805Z" fill="black"/>
<path opacity="0.2" d="M115.534 100.805V102H53.4414V100.805C53.4409 100.559 53.4888 100.316 53.5824 100.089C53.6761 99.8615 53.8136 99.6551 53.9871 99.4812C54.1606 99.3073 54.3666 99.1694 54.5935 99.0753C54.8204 98.9811 55.0636 98.9327 55.3093 98.9327H113.646C113.893 98.9305 114.138 98.9774 114.367 99.0705C114.596 99.1636 114.804 99.3011 114.98 99.4752C115.155 99.6492 115.295 99.8563 115.39 100.084C115.485 100.313 115.534 100.557 115.534 100.805Z" fill="white"/>
<path opacity="0.2" d="M115.533 100.805V102H73.7109V100.805C73.7104 100.559 73.7583 100.316 73.852 100.088C73.9456 99.8614 74.0831 99.655 74.2566 99.4811C74.4301 99.3072 74.6362 99.1693 74.863 99.0752C75.0899 98.9811 75.3331 98.9326 75.5788 98.9326H113.665C114.161 98.9337 114.636 99.1314 114.986 99.4823C115.336 99.8332 115.533 100.309 115.533 100.805Z" fill="black"/>
<path d="M87.5585 79.1035H86.3835C83.6973 79.1035 81.5215 81.6764 81.5215 84.8529C81.5215 88.0294 83.6973 90.6023 86.3835 90.6023H87.5585C90.2448 90.6023 92.4206 88.0254 92.4206 84.8529C92.4206 81.6804 90.2448 79.1035 87.5585 79.1035Z" fill="black"/>
<path opacity="0.2" d="M87.5585 79.1035H86.3835C83.6973 79.1035 81.5215 81.6764 81.5215 84.8529C81.5215 88.0294 83.6973 90.6023 86.3835 90.6023H87.5585C90.2448 90.6023 92.4206 88.0254 92.4206 84.8529C92.4206 81.6804 90.2448 79.1035 87.5585 79.1035Z" fill="white"/>
<path opacity="0.2" d="M87.5613 90.6023C90.2465 90.6023 92.4233 88.0282 92.4233 84.8529C92.4233 81.6776 90.2465 79.1035 87.5613 79.1035C84.876 79.1035 82.6992 81.6776 82.6992 84.8529C82.6992 88.0282 84.876 90.6023 87.5613 90.6023Z" fill="black"/>
<path d="M89.0293 81.4375H88.3283C86.7319 81.4375 85.4395 82.965 85.4395 84.8531C85.4395 86.7412 86.7319 88.2687 88.3283 88.2687H89.0293C90.6216 88.2687 91.9181 86.7412 91.9181 84.8531C91.9181 82.965 90.6216 81.4375 89.0293 81.4375Z" fill="black"/>
<path opacity="0.6" d="M89.0293 81.4375H88.3283C86.7319 81.4375 85.4395 82.965 85.4395 84.8531C85.4395 86.7412 86.7319 88.2687 88.3283 88.2687H89.0293C90.6216 88.2687 91.9181 86.7412 91.9181 84.8531C91.9181 82.965 90.6216 81.4375 89.0293 81.4375Z" fill="white"/>
<path opacity="0.2" d="M89.0315 88.2687C90.6269 88.2687 91.9203 86.7395 91.9203 84.8531C91.9203 82.9667 90.6269 81.4375 89.0315 81.4375C87.436 81.4375 86.1426 82.9667 86.1426 84.8531C86.1426 86.7395 87.436 88.2687 89.0315 88.2687Z" fill="black"/>
<path d="M129.285 39.7578H128.11C125.424 39.7578 123.248 42.3307 123.248 45.5072C123.248 48.6837 125.424 51.2566 128.11 51.2566H129.285C131.967 51.2566 134.147 48.6837 134.147 45.5072C134.147 42.3307 131.967 39.7578 129.285 39.7578Z" fill="black"/>
<path opacity="0.2" d="M129.285 39.7578H128.11C125.424 39.7578 123.248 42.3307 123.248 45.5072C123.248 48.6837 125.424 51.2566 128.11 51.2566H129.285C131.967 51.2566 134.147 48.6837 134.147 45.5072C134.147 42.3307 131.967 39.7578 129.285 39.7578Z" fill="white"/>
<path opacity="0.2" d="M129.286 51.2566C131.971 51.2566 134.148 48.6825 134.148 45.5072C134.148 42.3319 131.971 39.7578 129.286 39.7578C126.601 39.7578 124.424 42.3319 124.424 45.5072C124.424 48.6825 126.601 51.2566 129.286 51.2566Z" fill="black"/>
<path d="M130.752 42.0908H130.055C128.459 42.0908 127.166 43.6183 127.166 45.5064C127.166 47.3945 128.459 48.922 130.055 48.922H130.752C132.348 48.922 133.641 47.3945 133.641 45.5064C133.641 43.6183 132.348 42.0908 130.752 42.0908Z" fill="black"/>
<path opacity="0.6" d="M130.752 42.0908H130.055C128.459 42.0908 127.166 43.6183 127.166 45.5064C127.166 47.3945 128.459 48.922 130.055 48.922H130.752C132.348 48.922 133.641 47.3945 133.641 45.5064C133.641 43.6183 132.348 42.0908 130.752 42.0908Z" fill="white"/>
<path opacity="0.2" d="M130.752 48.922C132.348 48.922 133.641 47.3928 133.641 45.5064C133.641 43.62 132.348 42.0908 130.752 42.0908C129.157 42.0908 127.863 43.62 127.863 45.5064C127.863 47.3928 129.157 48.922 130.752 48.922Z" fill="black"/>
<path d="M82.0097 0.649172C80.9412 0.666767 79.8814 0.844313 78.8655 1.1759L70.9688 4.29976V19.4086L78.8655 22.5325C79.9922 22.9019 81.1727 23.0799 82.3581 23.0592C82.3581 23.0592 95.3803 23.0795 96.5391 23.0592C101.924 22.9701 106.976 18.7806 106.976 11.8562C106.976 4.79408 101.709 0.576241 96.215 0.649172C96.2231 0.649172 84.3151 0.616758 82.0097 0.649172Z" fill="url(#paint7_linear_556_496)"/>
<path opacity="0.2" d="M93.0546 1.17641L83.5371 4.30028V19.4091L93.0546 22.533C99.513 24.652 106.984 20.2762 106.984 11.8567C106.984 3.43726 99.513 -0.938588 93.0546 1.17641Z" fill="black"/>
<path d="M100.553 6.10352H99.3777C96.6914 6.10352 94.5156 8.67635 94.5156 11.8529C94.5156 15.0294 96.6914 17.6023 99.3777 17.6023H100.553C103.239 17.6023 105.415 15.0294 105.415 11.8529C105.415 8.67635 103.239 6.10352 100.553 6.10352Z" fill="black"/>
<path opacity="0.2" d="M100.553 6.10352H99.3777C96.6914 6.10352 94.5156 8.67635 94.5156 11.8529C94.5156 15.0294 96.6914 17.6023 99.3777 17.6023H100.553C103.239 17.6023 105.415 15.0294 105.415 11.8529C105.415 8.67635 103.239 6.10352 100.553 6.10352Z" fill="white"/>
<path opacity="0.2" d="M100.553 17.6023C103.239 17.6023 105.416 15.0282 105.416 11.8529C105.416 8.6776 103.239 6.10352 100.553 6.10352C97.8682 6.10352 95.6914 8.6776 95.6914 11.8529C95.6914 15.0282 97.8682 17.6023 100.553 17.6023Z" fill="black"/>
<path d="M102.023 8.4375H101.322C99.7261 8.4375 98.4336 9.96499 98.4336 11.8531C98.4336 13.7412 99.7261 15.2687 101.322 15.2687H102.023C103.62 15.2687 104.912 13.7412 104.912 11.8531C104.912 9.96499 103.62 8.4375 102.023 8.4375Z" fill="black"/>
<path opacity="0.6" d="M102.023 8.4375H101.322C99.7261 8.4375 98.4336 9.96499 98.4336 11.8531C98.4336 13.7412 99.7261 15.2687 101.322 15.2687H102.023C103.62 15.2687 104.912 13.7412 104.912 11.8531C104.912 9.96499 103.62 8.4375 102.023 8.4375Z" fill="white"/>
<path opacity="0.2" d="M102.026 15.2687C103.621 15.2687 104.914 13.7395 104.914 11.8531C104.914 9.96671 103.621 8.4375 102.026 8.4375C100.43 8.4375 99.1367 9.96671 99.1367 11.8531C99.1367 13.7395 100.43 15.2687 102.026 15.2687Z" fill="black"/>
<path d="M75.8345 1.54102H77.9414C82.7549 1.54102 86.6607 6.15997 86.6607 11.8526C86.6607 17.5453 82.7549 22.1602 77.9414 22.1602H75.8345C71.017 22.1602 67.1152 17.5453 67.1152 11.8526C67.1152 6.15997 71.017 1.54102 75.8345 1.54102Z" fill="black"/>
<path opacity="0.2" d="M75.8345 1.54102H77.9414C82.7549 1.54102 86.6607 6.15997 86.6607 11.8526C86.6607 17.5453 82.7549 22.1602 77.9414 22.1602H75.8345C71.017 22.1602 67.1152 17.5453 67.1152 11.8526C67.1152 6.15997 71.017 1.54102 75.8345 1.54102Z" fill="white"/>
<path opacity="0.2" d="M75.8345 22.1642C80.65 22.1642 84.5538 17.5476 84.5538 11.8526C84.5538 6.15768 80.65 1.54102 75.8345 1.54102C71.019 1.54102 67.1152 6.15768 67.1152 11.8526C67.1152 17.5476 71.019 22.1642 75.8345 22.1642Z" fill="white"/>
<path d="M73.0664 3.58301H62.0052C58.1075 3.58301 54.9512 7.28627 54.9512 11.8526C54.9512 16.4188 58.1075 20.1221 62.0052 20.1221H73.0664C76.9601 20.1221 80.1204 16.4188 80.1204 11.8526C80.1204 7.28627 76.9601 3.58301 73.0664 3.58301Z" fill="black"/>
<path opacity="0.6" d="M73.0664 3.58301H62.0052C58.1075 3.58301 54.9512 7.28627 54.9512 11.8526C54.9512 16.4188 58.1075 20.1221 62.0052 20.1221H73.0664C76.9601 20.1221 80.1204 16.4188 80.1204 11.8526C80.1204 7.28627 76.9601 3.58301 73.0664 3.58301Z" fill="white"/>
<path d="M59.6138 1.54102H61.7207C66.5382 1.54102 70.44 6.15997 70.44 11.8526C70.44 17.5453 66.5382 22.1602 61.7207 22.1602H59.6138C54.8004 22.1602 50.8945 17.5453 50.8945 11.8526C50.8945 6.15997 54.8004 1.54102 59.6138 1.54102Z" fill="black"/>
<path opacity="0.2" d="M59.6138 1.54102H61.7207C66.5382 1.54102 70.44 6.15997 70.44 11.8526C70.44 17.5453 66.5382 22.1602 61.7207 22.1602H59.6138C54.8004 22.1602 50.8945 17.5453 50.8945 11.8526C50.8945 6.15997 54.8004 1.54102 59.6138 1.54102Z" fill="white"/>
<path opacity="0.2" d="M59.6138 22.1642C64.4293 22.1642 68.3331 17.5476 68.3331 11.8526C68.3331 6.15768 64.4293 1.54102 59.6138 1.54102C54.7983 1.54102 50.8945 6.15768 50.8945 11.8526C50.8945 17.5476 54.7983 22.1642 59.6138 22.1642Z" fill="white"/>
<path d="M40.6449 4.09841L43.161 2.39264L50.1988 2.5223L58.4724 1.68359C58.4724 1.68359 61.7989 3.26376 64.0638 5.41117C64.0638 5.41117 66.6083 9.96124 65.336 17.7405L62.2243 22.5175L57.4149 22.7404L51.8033 22.1974L48.1162 16.1198L40.3086 9.6047L40.6449 4.09841Z" fill="black"/>
<path opacity="0.2" d="M65.336 17.7446L62.2243 22.5175L57.4149 22.7404L51.8033 22.1974L48.1203 16.1198L40.3086 9.6047L40.6651 4.09841L43.1772 2.39669L50.215 2.5223L58.4886 1.68359C58.4886 1.68359 61.8151 3.26376 64.08 5.41117C64.0638 5.41117 66.6083 9.96125 65.336 17.7446Z" fill="white"/>
<path opacity="0.2" d="M65.3358 17.7446L62.2241 22.5175L59.8943 18.6035L60.1091 13.6645L52.9943 14.3006L49.5908 15.9011L51.0737 19.8636L54.1206 19.3693L62.2241 22.5175L51.8031 22.1974L48.116 16.1198L40.8594 10.176L47.1314 8.63634L53.9221 12.7448H60.4048L57.1635 8.62823L58.5086 1.68359C58.5086 1.68359 61.8351 3.26376 64.1 5.41117C64.0635 5.41117 66.608 9.96125 65.3358 17.7446Z" fill="black"/>
<path d="M32.2874 7.60197C32.0524 7.14007 31.9997 4.55913 32.255 4.23904C32.5102 3.91896 37.8423 1.63379 42.4248 2.42388L44.0657 7.05904L41.108 9.28343L36.4161 9.83041L32.2874 7.60197Z" fill="black"/>
<path opacity="0.4" d="M32.2874 7.60197C32.0524 7.14007 31.9997 4.55913 32.255 4.23904C32.5102 3.91896 37.8423 1.63379 42.4248 2.42388L44.0657 7.05904L41.108 9.28343L36.4161 9.83041L32.2874 7.60197Z" fill="white"/>
<path opacity="0.2" d="M44.0657 7.05985L41.108 9.28424L36.4161 9.83122L32.2874 7.60278C32.0524 7.14088 31.9997 4.55994 32.255 4.23985C32.255 4.23985 35.7232 3.94408 36.3918 4.23985C37.0603 4.53563 40.2895 8.25105 40.2895 8.25105L44.0657 7.05985Z" fill="black"/>
<path d="M35.0414 4.6377L29.916 7.40502L30.4427 20.4637C30.4427 20.4637 33.5099 20.33 34.5755 19.5277C35.6411 18.7255 38.4651 8.27208 38.4651 8.27208L35.0414 4.6377Z" fill="black"/>
<path opacity="0.6" d="M38.4728 8.27208C38.4728 8.27208 35.6366 18.7296 34.5831 19.5318C33.5297 20.334 30.6368 20.4556 30.4545 20.4637L29.9277 7.40097L35.041 4.6377L38.4728 8.27208Z" fill="white"/>
<path opacity="0.2" d="M38.4734 8.27139C38.4734 8.27139 35.6372 18.7289 34.5838 19.5311C33.5303 20.3334 30.6374 20.4549 30.4551 20.463C32.8496 19.7053 33.3804 18.4047 33.3804 18.4047L35.0497 4.62891L38.4734 8.27139Z" fill="black"/>
<path d="M48.9419 26.7918L48.8203 25.2359L53.2731 19.9241L58.2203 19.1543L61.6764 23.0237L55.5988 28.611L51.9199 29.8265L48.9419 26.7918Z" fill="black"/>
<path opacity="0.4" d="M61.6764 23.0276L55.5988 28.6109L51.9199 29.8264L48.9419 26.7916L48.8203 25.2317L53.2772 19.9199L58.2284 19.1582L61.6764 23.0276Z" fill="white"/>
<path opacity="0.2" d="M61.6764 23.0276L55.5988 28.6109L51.9199 29.8264L48.9419 26.7916L48.8203 25.2317L53.5 24.6159L58.2243 19.1582L61.6764 23.0276Z" fill="black"/>
<path d="M41.4713 32.6944C41.3984 30.0567 48.0999 26.244 48.0999 26.244L53.2739 25.8389L54.7974 29.5989L45.7175 33.2454L41.4713 32.6944Z" fill="black"/>
<path opacity="0.6" d="M54.7975 29.6007L45.7135 33.2472L41.4714 32.6962C41.3944 30.0585 48.1 26.2499 48.1 26.2499L53.274 25.8447L54.7975 29.6007Z" fill="white"/>
<path opacity="0.2" d="M54.7968 29.5989L45.7128 33.2454L41.4707 32.6944L45.6156 32.6579C45.6156 32.6579 46.8311 28.359 53.2733 25.8389L54.7968 29.5989Z" fill="black"/>
<path d="M38.5542 7.63574C38.5542 7.63574 35.0414 8.88367 34.5633 12.0926C33.3802 10.395 31.0383 8.47444 26.4355 8.14626C26.4355 8.14626 27.9833 16.1849 35.7545 14.8478C35.7372 14.7113 35.7115 14.576 35.6775 14.4426C36.8525 13.7903 38.8946 11.963 38.5542 7.63574Z" fill="url(#paint8_linear_556_496)"/>
<path opacity="0.2" d="M38.5542 7.63574C38.5542 7.63574 35.0414 8.88367 34.5633 12.0926C33.3802 10.395 31.0383 8.47444 26.4355 8.14626C26.4355 8.14626 27.9833 16.1849 35.7545 14.8478C35.7372 14.7113 35.7115 14.576 35.6775 14.4426C36.8525 13.7903 38.8946 11.963 38.5542 7.63574Z" fill="black"/>
<path d="M46.9615 30.8851C43.4243 34.6816 41.7266 33.4094 41.7266 33.4094C41.7266 33.4094 40.2802 35.731 35.9286 35.1111C33.2788 34.7343 30.1185 32.3559 27.8819 29.3333C25.2807 25.8286 23.9234 21.4487 26.0465 18.3491C29.5877 13.1792 34.94 14.4838 34.94 14.4838C34.94 14.4838 38.3394 10.8656 43.2379 11.7165C43.4609 11.7537 43.6805 11.8092 43.8943 11.8826C49.5627 13.8193 50.3811 27.2224 46.9615 30.8851Z" fill="url(#paint9_linear_556_496)"/>
<path opacity="0.2" d="M43.4365 27.2629C39.8953 31.0553 38.2017 29.7831 38.2017 29.7831C38.2017 29.7831 36.7552 32.1047 32.3996 31.4889C30.9653 31.2863 29.3851 30.4962 27.8819 29.3333C25.2807 25.8286 23.9234 21.4487 26.0465 18.3491C29.5877 13.1792 34.94 14.4838 34.94 14.4838C34.94 14.4838 38.3394 10.8656 43.2379 11.7165C43.4609 11.7537 43.6805 11.8092 43.8943 11.8826C46.1714 16.6879 45.9323 24.5847 43.4365 27.2629Z" fill="white"/>
<path d="M45.459 2.5224L46.7434 1.11645C46.7434 1.11645 51.6824 -0.228712 53.8055 0.0549076C55.0761 0.222929 56.3021 0.635718 57.4156 1.27042L56.6903 7.75316C56.6903 7.75316 50.2076 9.05782 49.065 8.46222C47.9224 7.86661 45.459 2.5224 45.459 2.5224Z" fill="black"/>
<path opacity="0.4" d="M57.4156 1.27006L56.6903 7.7528C56.6903 7.7528 50.2076 9.0534 49.0691 8.4578C47.9305 7.8622 45.459 2.50583 45.459 2.50583L46.7434 1.09988C46.7434 1.09988 51.6824 -0.24123 53.8055 0.0383378C55.0773 0.211375 56.3033 0.629687 57.4156 1.27006Z" fill="white"/>
<path opacity="0.2" d="M56.6903 7.76778C56.6903 7.76778 50.2076 9.06837 49.0691 8.47277C47.9305 7.87717 45.459 2.5208 45.459 2.5208C45.459 2.5208 49.8429 1.85227 50.9774 2.40331C52.1119 2.95434 53.5219 7.22079 53.5219 7.22079L56.6903 7.76778Z" fill="black"/>
<path d="M39.9023 18.1612L44.0635 2.51758H50.1978L51.8184 7.01498C51.8184 7.01498 46.5958 17.1605 44.7077 18.1612C42.8196 19.162 39.9023 18.1612 39.9023 18.1612Z" fill="black"/>
<path opacity="0.6" d="M51.8081 7.03202C51.8081 7.03202 46.5976 17.1613 44.7095 18.1621C42.8214 19.1629 39.9082 18.1621 39.9082 18.1621L44.0693 2.52246H50.1996L51.8081 7.03202Z" fill="white"/>
<path opacity="0.2" d="M51.8081 7.03202C51.8081 7.03202 46.5976 17.1613 44.7095 18.1621C42.8214 19.1629 39.9082 18.1621 39.9082 18.1621C43.498 18.2796 44.1139 16.8939 44.1139 16.8939L50.1915 2.52246L51.8081 7.03202Z" fill="black"/>
<path d="M28.6676 39.1416C28.6676 39.1416 32.8564 42.7677 31.7823 47.4705C34.3326 45.7575 38.6049 44.373 45.1441 46.4004C45.1441 46.4004 38.6678 56.6766 28.6577 50.6458C28.757 50.4703 28.8658 50.3004 28.9838 50.1369C27.7028 48.5685 25.8623 44.9415 28.6676 39.1416Z" fill="#FF4F4F"/>
<path opacity="0.2" d="M28.6676 39.1416C28.6676 39.1416 32.8564 42.7677 31.7823 47.4705C34.3326 45.7575 38.6049 44.373 45.1441 46.4004C45.1441 46.4004 38.6678 56.6766 28.6577 50.6458C28.757 50.4703 28.8658 50.3004 28.9838 50.1369C27.7028 48.5685 25.8623 44.9415 28.6676 39.1416Z" fill="black"/>
<path d="M25.4841 81.0176C17.7773 81.1022 17.4102 77.9743 17.4102 77.9743C17.4102 77.9743 13.4374 78.7958 9.64692 73.4831C7.34387 70.2485 6.66345 64.418 7.60828 58.9073C8.71207 52.5262 12.0241 46.579 17.5359 45.6894C26.7177 44.2022 30.7926 51.292 30.7926 51.292C30.7926 51.292 38.163 51.2456 42.2656 57.378C42.4493 57.6584 42.611 57.9526 42.7494 58.258C46.4951 66.3409 32.9165 80.942 25.4841 81.0176Z" fill="#FF4F4F"/>
<path opacity="0.2" d="M25.7743 73.5146C18.0702 73.5938 17.7004 70.4712 17.7004 70.4712C17.7004 70.4712 13.7223 71.2901 9.93175 65.9774C8.67883 64.2344 7.91238 61.7198 7.62391 58.9152C8.7277 52.534 12.0397 46.5868 17.5515 45.6972C26.7333 44.21 30.8082 51.2998 30.8082 51.2998C30.8082 51.2998 38.1786 51.2534 42.2812 57.3858C42.4649 57.6662 42.6267 57.9604 42.765 58.2658C39.9334 65.631 31.2054 73.461 25.7743 73.5146Z" fill="white"/>
<path d="M54.0228 73.9101C57.3222 74.0552 60.3078 75.3226 60.7631 76.8695L60.0943 77.1369C60.0943 77.1369 58.1845 73.8187 53.6468 74.6501L54.0228 73.9101Z" fill="#FF4F4F"/>
<path d="M39.4348 89.9675C36.8173 89.0101 34.3117 87.7709 31.9622 86.2717C30.3123 85.2599 28.8636 83.952 27.6889 82.4137L27.5184 82.1652C25.2575 78.6484 27.5536 70.4917 27.5536 70.4917L55.2569 74.0709L55.2324 74.1192C55.2334 74.2411 55.2272 74.3729 55.2137 74.5145C54.7189 86.5482 45.1291 92.0513 39.4348 89.9675Z" fill="#FF4F4F"/>
<path opacity="0.7" d="M38.3024 88.5353C29.6715 84.2779 27.5497 70.4897 27.5497 70.4897L55.253 74.069C55.0742 83.4095 46.936 92.7873 38.3024 88.5353Z" fill="white"/>
<path opacity="0.2" d="M39.4353 89.9686C36.8178 89.0112 34.3122 87.772 31.9627 86.2728C30.3424 85.222 28.8999 83.9197 27.6894 82.4149L27.5189 82.1663C25.258 78.6495 27.5541 70.4928 27.5541 70.4928C27.5541 70.4928 29.7228 91.1591 43.0069 90.0428C52.2998 89.2664 55.0002 78.4951 55.2357 74.5265C54.7194 86.5493 45.1296 92.0524 39.4353 89.9686Z" fill="black"/>
<path opacity="0.2" d="M43.788 72.9449C44.0197 72.966 44.249 73.008 44.4731 73.0704C45.1416 73.2684 45.8625 73.2569 46.4488 73.683C46.6182 73.787 46.742 73.9511 46.7955 74.1425C46.8077 74.3253 46.7582 74.5068 46.655 74.6581C46.4777 75.0354 46.2094 75.3627 45.8742 75.6106C45.6434 75.7516 45.3897 75.851 45.1245 75.9043C44.4682 76.0372 43.7889 76.0021 43.1497 75.8024C42.5106 75.6026 41.9322 75.2446 41.4684 74.7617C41.2189 74.5328 41.0413 74.2364 40.9574 73.9084C40.9176 73.7443 40.9299 73.5719 40.9926 73.4151C41.0553 73.2584 41.1654 73.1251 41.3074 73.0338C41.4821 72.9584 41.6722 72.9255 41.8621 72.9378C42.5036 72.8986 43.1469 72.901 43.788 72.9449Z" fill="black"/>
<path d="M44.4453 73.7871C44.4242 73.861 44.389 73.9302 44.3418 73.9909C44.1669 74.1656 43.9374 74.2751 43.6916 74.3014C43.5017 74.344 43.3032 74.3258 43.1243 74.2493C42.5881 73.9768 42.8606 73.4406 43.2416 73.1687C43.6226 72.8968 44.7376 73.1058 44.4453 73.7871Z" fill="#263238"/>
<defs>
<linearGradient id="paint0_linear_556_496" x1="126.881" y1="44.7429" x2="101.751" y2="13.4456" gradientUnits="userSpaceOnUse">
<stop stop-color="#5A45FF"/>
<stop offset="0.265384" stop-color="#7D71FF"/>
<stop offset="0.478947" stop-color="#7C81FF"/>
<stop offset="1" stop-color="#000099"/>
</linearGradient>
<linearGradient id="paint1_linear_556_496" x1="124.615" y1="65.4557" x2="117.929" y2="55.0717" gradientUnits="userSpaceOnUse">
<stop stop-color="#5A45FF"/>
<stop offset="0.265384" stop-color="#7D71FF"/>
<stop offset="0.478947" stop-color="#7C81FF"/>
<stop offset="1" stop-color="#000099"/>
</linearGradient>
<linearGradient id="paint2_linear_556_496" x1="112.875" y1="83.1784" x2="99.2559" y2="63.7399" gradientUnits="userSpaceOnUse">
<stop stop-color="#5A45FF"/>
<stop offset="0.265384" stop-color="#7D71FF"/>
<stop offset="0.478947" stop-color="#7C81FF"/>
<stop offset="1" stop-color="#000099"/>
</linearGradient>
<linearGradient id="paint3_linear_556_496" x1="79.6087" y1="89.7666" x2="70.7885" y2="73.6055" gradientUnits="userSpaceOnUse">
<stop stop-color="#5A45FF"/>
<stop offset="0.265384" stop-color="#7D71FF"/>
<stop offset="0.478947" stop-color="#7C81FF"/>
<stop offset="1" stop-color="#000099"/>
</linearGradient>
<linearGradient id="paint4_linear_556_496" x1="106.075" y1="71.7199" x2="87.13" y2="40.1768" gradientUnits="userSpaceOnUse">
<stop stop-color="#5A45FF"/>
<stop offset="0.265384" stop-color="#7D71FF"/>
<stop offset="0.478947" stop-color="#7C81FF"/>
<stop offset="1" stop-color="#000099"/>
</linearGradient>
<linearGradient id="paint5_linear_556_496" x1="87.3665" y1="89.7666" x2="78.5463" y2="73.6055" gradientUnits="userSpaceOnUse">
<stop stop-color="#5A45FF"/>
<stop offset="0.265384" stop-color="#7D71FF"/>
<stop offset="0.478947" stop-color="#7C81FF"/>
<stop offset="1" stop-color="#000099"/>
</linearGradient>
<linearGradient id="paint6_linear_556_496" x1="87.3552" y1="98.5013" x2="85.8351" y2="87.1851" gradientUnits="userSpaceOnUse">
<stop stop-color="#5A45FF"/>
<stop offset="0.265384" stop-color="#7D71FF"/>
<stop offset="0.478947" stop-color="#7C81FF"/>
<stop offset="1" stop-color="#000099"/>
</linearGradient>
<linearGradient id="paint7_linear_556_496" x1="94.6942" y1="18.4966" x2="84.6556" y2="-5.30799" gradientUnits="userSpaceOnUse">
<stop stop-color="#5A45FF"/>
<stop offset="0.265384" stop-color="#7D71FF"/>
<stop offset="0.478947" stop-color="#7C81FF"/>
<stop offset="1" stop-color="#000099"/>
</linearGradient>
<linearGradient id="paint8_linear_556_496" x1="34.4454" y1="13.4976" x2="31.2162" y2="5.61995" gradientUnits="userSpaceOnUse">
<stop stop-color="#5A45FF"/>
<stop offset="0.265384" stop-color="#7D71FF"/>
<stop offset="0.478947" stop-color="#7C81FF"/>
<stop offset="1" stop-color="#000099"/>
</linearGradient>
<linearGradient id="paint9_linear_556_496" x1="40.8086" y1="30.401" x2="27.1784" y2="9.95469" gradientUnits="userSpaceOnUse">
<stop stop-color="#5A45FF"/>
<stop offset="0.265384" stop-color="#7D71FF"/>
<stop offset="0.478947" stop-color="#7C81FF"/>
<stop offset="1" stop-color="#000099"/>
</linearGradient>
</defs>
</svg>
