<svg width="362" height="209" viewBox="0 0 362 209" fill="none" xmlns="http://www.w3.org/2000/svg">
<ellipse cx="181" cy="114" rx="63" ry="43" fill="#F4EBFF"/>
<path d="M167.544 140.42C163.492 137.839 162.884 135.152 163.087 133.349C163.54 129.585 167.762 126.514 171.49 125.246C177.612 123.18 179.006 120.031 179.018 119.999L179.768 120.311C179.711 120.453 178.26 123.816 171.749 126.016C168.253 127.195 164.302 130.019 163.889 133.439C163.617 135.687 165.027 137.863 167.961 139.727L167.544 140.42Z" fill="black"/>
<path d="M167.96 144.673C163.677 144.224 160.954 142.242 160.497 139.236C159.929 135.549 163.017 131.355 167.838 129.269C176.347 125.582 180.168 122.008 180.208 121.976L180.767 122.563C180.609 122.709 176.837 126.266 168.162 130.018C163.673 131.959 160.784 135.788 161.275 139.118C161.68 141.732 164.135 143.466 168.021 143.871L167.96 144.673Z" fill="black"/>
<path d="M232.546 109.136L231.959 108.581C232.307 108.208 240.391 99.3834 228.556 88.1318C226.53 86.2072 224.662 84.3799 223.017 82.7673C214.431 74.36 209.703 69.7289 201.004 68.7605L201.093 67.9502C210.072 68.9469 215.157 73.9305 223.584 82.1839C225.229 83.8046 227.089 85.6197 229.111 87.5402C241.549 99.3631 232.64 109.039 232.546 109.136Z" fill="url(#paint0_linear_558_498)"/>
<path d="M229.567 110.032L228.526 108.816L229.044 109.436L228.522 108.816C228.591 108.76 235.195 103.067 233.696 94.6839C232.76 89.4451 224.02 78.3312 214.15 71.8525C210.001 69.1257 203.976 66.1315 198.859 67.3389L198.486 65.7628C204.159 64.4217 210.641 67.5982 215.042 70.4952C224.519 76.7186 234.17 88.112 235.3 94.4003C236.957 103.715 229.871 109.797 229.567 110.032Z" fill="black"/>
<path d="M236.98 108.715L227.499 98.6379C227.343 98.4711 227.155 98.3371 226.946 98.2439C226.737 98.1507 226.512 98.1 226.283 98.095C225.846 98.095 221.462 98.095 221.462 98.095C221.229 98.0808 220.995 98.1144 220.776 98.1938C220.556 98.2733 220.356 98.3968 220.186 98.5569L214.716 103.707C214.384 104.019 214.189 104.45 214.175 104.906C214.16 105.362 214.327 105.805 214.639 106.138L224.116 116.214C224.272 116.381 224.46 116.516 224.669 116.609C224.877 116.702 225.103 116.753 225.331 116.757C225.773 116.757 229.756 116.757 230.193 116.757C230.644 116.766 231.08 116.598 231.409 116.291L236.883 111.141C237.215 110.831 237.412 110.402 237.43 109.948C237.449 109.494 237.287 109.05 236.98 108.715Z" fill="black"/>
<path opacity="0.2" d="M236.98 108.715L227.499 98.6379C227.343 98.4711 227.155 98.3371 226.946 98.2439C226.737 98.1507 226.512 98.1 226.283 98.095C225.846 98.095 221.462 98.095 221.462 98.095C221.229 98.0808 220.995 98.1144 220.776 98.1938C220.556 98.2733 220.356 98.3968 220.186 98.5569L214.716 103.707C214.384 104.019 214.189 104.45 214.175 104.906C214.16 105.362 214.327 105.805 214.639 106.138L224.116 116.214C224.272 116.381 224.46 116.516 224.669 116.609C224.877 116.702 225.103 116.753 225.331 116.757C225.773 116.757 229.756 116.757 230.193 116.757C230.644 116.766 231.08 116.598 231.409 116.291L236.883 111.141C237.215 110.831 237.412 110.402 237.43 109.948C237.449 109.494 237.287 109.05 236.98 108.715Z" fill="white"/>
<path opacity="0.2" d="M225.069 98.577L219.593 103.725C218.9 104.376 218.866 105.466 219.517 106.159L228.994 116.24C229.646 116.933 230.736 116.967 231.428 116.316L236.905 111.168C237.598 110.516 237.631 109.427 236.98 108.734L227.503 98.6522C226.851 97.9593 225.762 97.9256 225.069 98.577Z" fill="black"/>
<path d="M224.59 113.163C224.133 112.752 223.59 112.447 223 112.271C222.411 112.095 221.79 112.052 221.182 112.146L213.662 120.108C213.168 120.635 213.662 121.684 215.011 122.802C216.596 124.103 217.868 123.973 218.253 123.58L225.829 115.529C225.791 115.072 225.662 114.627 225.449 114.221C225.236 113.814 224.944 113.455 224.59 113.163Z" fill="url(#paint1_linear_558_498)"/>
<path opacity="0.2" d="M213.663 120.109C214.878 118.84 219.441 122.305 218.237 123.581C217.869 123.986 216.596 124.104 214.996 122.803C213.659 121.685 213.169 120.635 213.663 120.109Z" fill="black"/>
<path d="M202.112 143.814V148.461H191.703V143.814C191.704 142.822 192.099 141.871 192.801 141.169C193.503 140.468 194.455 140.074 195.447 140.074H198.368C199.36 140.074 200.312 140.468 201.014 141.169C201.716 141.871 202.111 142.822 202.112 143.814Z" fill="black"/>
<path opacity="0.2" d="M202.112 143.814V148.461H191.703V143.814C191.704 142.822 192.099 141.871 192.801 141.169C193.503 140.468 194.455 140.074 195.447 140.074H198.368C199.36 140.074 200.312 140.468 201.014 141.169C201.716 141.871 202.111 142.822 202.112 143.814Z" fill="white"/>
<path opacity="0.2" d="M202.112 143.814V148.461H193.729V143.814C193.729 142.822 194.123 141.871 194.824 141.17C195.525 140.468 196.476 140.074 197.468 140.074H198.368C199.36 140.074 200.312 140.468 201.014 141.169C201.716 141.871 202.11 142.822 202.112 143.814Z" fill="black"/>
<path d="M217.47 123.467L217.215 123.739L198.893 143.215C198.697 143.424 198.461 143.593 198.199 143.711C197.937 143.829 197.655 143.894 197.368 143.903C197.081 143.912 196.795 143.864 196.527 143.762C196.259 143.661 196.013 143.507 195.804 143.31C195.595 143.114 195.426 142.878 195.308 142.616C195.19 142.355 195.125 142.072 195.116 141.785C195.107 141.499 195.155 141.213 195.257 140.944C195.358 140.676 195.512 140.43 195.709 140.221L213.621 121.178L214.026 120.773C215.169 120.343 217.904 122.45 217.47 123.467Z" fill="url(#paint2_linear_558_498)"/>
<path d="M206.165 143.814V148.461H195.76V143.814C195.76 142.822 196.154 141.871 196.855 141.17C197.556 140.468 198.508 140.074 199.499 140.074H202.425C203.417 140.074 204.368 140.468 205.069 141.17C205.771 141.871 206.165 142.822 206.165 143.814Z" fill="black"/>
<path opacity="0.2" d="M206.165 143.814V148.461H195.76V143.814C195.76 142.822 196.154 141.871 196.855 141.17C197.556 140.468 198.508 140.074 199.499 140.074H202.425C203.417 140.074 204.368 140.468 205.069 141.17C205.771 141.871 206.165 142.822 206.165 143.814Z" fill="white"/>
<path opacity="0.2" d="M206.164 143.814V148.461H197.785V143.814C197.785 142.822 198.179 141.871 198.88 141.17C199.582 140.468 200.533 140.074 201.525 140.074H202.424C203.416 140.074 204.367 140.468 205.069 141.17C205.77 141.871 206.164 142.822 206.164 143.814Z" fill="black"/>
<path d="M188.539 145.888V156.322H209.43V145.888C209.43 145.566 209.302 145.257 209.074 145.029C208.846 144.801 208.537 144.673 208.214 144.673H189.738C189.419 144.677 189.114 144.807 188.889 145.035C188.665 145.262 188.539 145.569 188.539 145.888Z" fill="black"/>
<path opacity="0.2" d="M188.539 145.888V156.322H209.43V145.888C209.43 145.566 209.302 145.257 209.074 145.029C208.846 144.801 208.537 144.673 208.214 144.673H189.738C189.419 144.677 189.114 144.807 188.889 145.035C188.665 145.262 188.539 145.569 188.539 145.888Z" fill="white"/>
<path opacity="0.2" d="M188.539 145.888V156.322H202.137V145.888C202.137 145.566 202.009 145.257 201.781 145.029C201.553 144.801 201.243 144.673 200.921 144.673H189.738C189.419 144.677 189.114 144.807 188.889 145.035C188.665 145.262 188.539 145.569 188.539 145.888Z" fill="white"/>
<path d="M183.708 139.892V149.187H162.895V139.892C162.894 138.909 163.087 137.935 163.463 137.027C163.839 136.118 164.39 135.293 165.085 134.598C165.78 133.902 166.605 133.351 167.513 132.974C168.422 132.598 169.395 132.404 170.378 132.404H176.225C177.208 132.404 178.181 132.598 179.089 132.974C179.998 133.351 180.823 133.902 181.518 134.598C182.213 135.293 182.764 136.118 183.14 137.027C183.516 137.935 183.709 138.909 183.708 139.892Z" fill="url(#paint3_linear_558_498)"/>
<path opacity="0.2" d="M183.711 139.892V149.187H166.949V139.892C166.948 138.909 167.141 137.935 167.516 137.027C167.892 136.119 168.442 135.293 169.137 134.598C169.832 133.902 170.657 133.351 171.565 132.974C172.473 132.598 173.446 132.404 174.429 132.404H176.228C177.211 132.404 178.184 132.598 179.092 132.974C180.001 133.351 180.826 133.902 181.521 134.598C182.216 135.293 182.767 136.118 183.143 137.027C183.519 137.935 183.712 138.909 183.711 139.892Z" fill="black"/>
<path d="M204.791 112.77L202.461 115.249L199.374 118.531L191.108 127.323C190.999 127.439 190.867 127.531 190.721 127.594C190.574 127.657 190.417 127.689 190.258 127.688H186.716C186.415 127.692 186.125 127.579 185.906 127.372L177.296 119.269C177.072 119.056 176.941 118.763 176.932 118.454C176.923 118.145 177.036 117.845 177.248 117.62L190.93 103.07C191.037 102.956 191.167 102.864 191.31 102.801C191.453 102.737 191.608 102.703 191.765 102.701H195.322C195.623 102.698 195.913 102.811 196.133 103.017L202.457 108.965L204.738 111.113C204.851 111.218 204.941 111.344 205.005 111.485C205.068 111.625 205.104 111.776 205.109 111.93C205.113 112.084 205.088 112.238 205.033 112.382C204.979 112.526 204.897 112.658 204.791 112.77Z" fill="black"/>
<path opacity="0.3" d="M204.791 112.77L202.461 115.249L199.374 118.531L191.108 127.323C190.999 127.439 190.867 127.531 190.721 127.594C190.574 127.657 190.417 127.689 190.258 127.688H186.716C186.415 127.692 186.125 127.579 185.906 127.372L177.296 119.269C177.072 119.056 176.941 118.763 176.932 118.454C176.923 118.145 177.036 117.845 177.248 117.62L190.93 103.07C191.037 102.956 191.167 102.864 191.31 102.801C191.453 102.737 191.608 102.703 191.765 102.701H195.322C195.623 102.698 195.913 102.811 196.133 103.017L202.457 108.965L204.738 111.113C204.851 111.218 204.941 111.344 205.005 111.485C205.068 111.625 205.104 111.776 205.109 111.93C205.113 112.084 205.088 112.238 205.033 112.382C204.979 112.526 204.897 112.658 204.791 112.77Z" fill="white"/>
<path opacity="0.2" d="M202.462 108.974V115.25L199.375 118.532H177.682C177.578 118.532 177.475 118.503 177.387 118.448C177.299 118.393 177.228 118.313 177.184 118.219C177.139 118.125 177.122 118.021 177.135 117.917C177.148 117.814 177.19 117.716 177.256 117.636L190.939 103.087C191.046 102.972 191.175 102.881 191.319 102.817C191.462 102.754 191.617 102.72 191.774 102.718H195.331C195.632 102.715 195.922 102.828 196.141 103.034L202.462 108.974Z" fill="white"/>
<path d="M219.558 97.5968C218.815 96.6426 217.865 95.8706 216.778 95.3397C215.692 94.8089 214.499 94.5332 213.29 94.5337C212.479 94.5337 209.445 94.5337 208.679 94.5337C207.579 94.521 206.489 94.7375 205.477 95.1692C204.466 95.601 203.555 96.2388 202.804 97.0417L182.047 119.115H208.59L219.08 107.957C220.383 106.572 221.148 104.766 221.236 102.865C221.323 100.965 220.728 99.0963 219.558 97.5968Z" fill="black"/>
<path opacity="0.6" d="M219.558 97.5968C218.815 96.6426 217.865 95.8706 216.778 95.3397C215.692 94.8089 214.499 94.5332 213.29 94.5337C212.479 94.5337 209.445 94.5337 208.679 94.5337C207.579 94.521 206.489 94.7375 205.477 95.1692C204.466 95.601 203.555 96.2388 202.804 97.0417L182.047 119.115H208.59L219.08 107.957C220.383 106.572 221.148 104.766 221.236 102.865C221.323 100.965 220.728 99.0963 219.558 97.5968Z" fill="white"/>
<path opacity="0.2" d="M219.559 97.5957C218.852 96.6894 217.957 95.9468 216.936 95.4189C215.915 94.891 214.792 94.5904 213.644 94.5377C212.495 94.4849 211.349 94.6814 210.284 95.1134C209.219 95.5455 208.26 96.2029 207.473 97.0407L186.74 119.114H208.619L219.109 107.956C220.409 106.567 221.169 104.759 221.251 102.859C221.333 100.959 220.733 99.0919 219.559 97.5957Z" fill="black"/>
<path d="M215.782 111.936L203.951 100.81C203.654 100.533 203.263 100.378 202.857 100.376C202.428 100.376 198.364 100.376 197.963 100.376C197.748 100.378 197.537 100.424 197.34 100.51C197.144 100.597 196.967 100.722 196.82 100.878L178.004 120.886C177.716 121.198 177.562 121.61 177.575 122.034C177.588 122.459 177.767 122.861 178.073 123.155L189.908 134.285C190.203 134.565 190.595 134.72 191.002 134.718H195.864C196.083 134.719 196.299 134.675 196.5 134.589C196.701 134.502 196.881 134.375 197.031 134.216L215.843 114.204C216.132 113.894 216.288 113.482 216.276 113.058C216.265 112.633 216.088 112.23 215.782 111.936Z" fill="url(#paint4_linear_558_498)"/>
<g opacity="0.2">
<path d="M215.851 114.205L197.038 134.216C196.745 134.521 196.343 134.699 195.92 134.712C195.497 134.725 195.085 134.572 194.773 134.285L182.938 123.155C182.632 122.862 182.452 122.46 182.438 122.035C182.425 121.611 182.578 121.198 182.865 120.886L201.682 100.879C201.975 100.572 202.378 100.394 202.802 100.381C203.226 100.368 203.639 100.522 203.951 100.81L215.782 111.936C216.088 112.23 216.267 112.632 216.28 113.056C216.293 113.48 216.138 113.893 215.851 114.205Z" fill="black"/>
</g>
<path d="M194.469 134.102H194.517L185.871 143.296C184.84 144.398 183.516 145.182 182.054 145.556L181.787 145.617C181.362 145.713 180.929 145.773 180.494 145.796H180.089H175.393C173.839 145.795 172.319 145.339 171.02 144.485C169.721 143.631 168.701 142.415 168.085 140.988C167.468 139.562 167.283 137.985 167.551 136.454C167.82 134.923 168.53 133.504 169.595 132.372L178.169 123.256H182.836L194.469 134.102Z" fill="black"/>
<path opacity="0.6" d="M194.469 134.102H194.517L185.871 143.296C184.84 144.398 183.516 145.182 182.054 145.556L181.787 145.617C181.362 145.713 180.929 145.773 180.494 145.796H180.089H175.393C173.839 145.795 172.319 145.339 171.02 144.485C169.721 143.631 168.701 142.415 168.085 140.988C167.468 139.562 167.283 137.985 167.551 136.454C167.82 134.923 168.53 133.504 169.595 132.372L178.169 123.256H182.836L194.469 134.102Z" fill="white"/>
<path opacity="0.2" d="M194.519 134.087L185.873 143.28C184.842 144.382 183.518 145.166 182.056 145.541L181.789 145.602C181.364 145.697 180.932 145.757 180.496 145.78H180.091H179.913C178.369 145.755 176.866 145.282 175.586 144.418C174.307 143.555 173.305 142.338 172.704 140.916C172.103 139.494 171.929 137.928 172.201 136.408C172.474 134.889 173.183 133.481 174.241 132.357L182.814 123.24L194.446 134.095L194.519 134.087Z" fill="black"/>
<path d="M179.694 61.6297C180.437 60.6771 181.387 59.9066 182.472 59.3772C183.558 58.8477 184.75 58.5733 185.958 58.5747C186.748 58.5747 189.803 58.5747 190.569 58.5747C191.669 58.562 192.759 58.7785 193.77 59.2103C194.782 59.6421 195.692 60.2798 196.444 61.0828L229.668 96.4056C230.972 97.7917 231.737 99.5989 231.824 101.5C231.911 103.401 231.314 105.271 230.142 106.77C229.398 107.726 228.444 108.498 227.355 109.029C226.266 109.559 225.069 109.833 223.858 109.829H219.154C218.072 109.827 217.002 109.603 216.009 109.172C215.017 108.741 214.124 108.111 213.384 107.321L180.16 71.9981C178.855 70.6116 178.09 68.8028 178.004 66.9003C177.919 64.9978 178.518 63.1278 179.694 61.6297Z" fill="black"/>
<path opacity="0.6" d="M179.694 61.6297C180.437 60.6771 181.387 59.9066 182.472 59.3772C183.558 58.8477 184.75 58.5733 185.958 58.5747C186.748 58.5747 189.803 58.5747 190.569 58.5747C191.669 58.562 192.759 58.7785 193.77 59.2103C194.782 59.6421 195.692 60.2798 196.444 61.0828L229.668 96.4056C230.972 97.7917 231.737 99.5989 231.824 101.5C231.911 103.401 231.314 105.271 230.142 106.77C229.398 107.726 228.444 108.498 227.355 109.029C226.266 109.559 225.069 109.833 223.858 109.829H219.154C218.072 109.827 217.002 109.603 216.009 109.172C215.017 108.741 214.124 108.111 213.384 107.321L180.16 71.9981C178.855 70.6116 178.09 68.8028 178.004 66.9003C177.919 64.9978 178.518 63.1278 179.694 61.6297Z" fill="white"/>
<path opacity="0.2" d="M230.129 106.761C231.301 105.261 231.898 103.392 231.811 101.491C231.724 99.5897 230.959 97.7826 229.655 96.3965L196.431 61.0736C195.644 60.2365 194.684 59.5796 193.619 59.148C192.554 58.7163 191.408 58.5201 190.26 58.5728C189.112 58.6256 187.989 58.926 186.968 59.4534C185.947 59.9809 185.052 60.723 184.345 61.6287C183.174 63.1282 182.579 64.9971 182.667 66.8973C182.754 68.7975 183.519 70.6036 184.823 71.989L218.047 107.312C218.834 108.149 219.792 108.806 220.857 109.238C221.921 109.67 223.067 109.867 224.215 109.814C225.362 109.762 226.485 109.462 227.506 108.935C228.527 108.408 229.422 107.666 230.129 106.761Z" fill="black"/>
<path d="M191.466 139.892V149.187H170.652V139.892C170.652 138.909 170.845 137.935 171.221 137.027C171.597 136.118 172.148 135.293 172.843 134.598C173.538 133.902 174.363 133.351 175.271 132.974C176.179 132.598 177.153 132.404 178.136 132.404H183.982C184.966 132.404 185.939 132.598 186.847 132.974C187.755 133.351 188.581 133.902 189.276 134.598C189.971 135.293 190.522 136.118 190.898 137.027C191.273 137.935 191.467 138.909 191.466 139.892Z" fill="url(#paint5_linear_558_498)"/>
<path opacity="0.2" d="M191.469 139.892V149.187H174.707V139.892C174.706 138.909 174.899 137.935 175.274 137.027C175.649 136.119 176.2 135.293 176.895 134.598C177.589 133.902 178.414 133.351 179.322 132.974C180.23 132.598 181.204 132.404 182.187 132.404H183.985C184.969 132.404 185.942 132.598 186.85 132.974C187.758 133.351 188.584 133.902 189.279 134.598C189.974 135.293 190.525 136.118 190.901 137.027C191.276 137.935 191.47 138.909 191.469 139.892Z" fill="black"/>
<path d="M200.199 148.378V156.38H153.75V148.378C153.75 148.055 153.878 147.746 154.106 147.518C154.334 147.29 154.643 147.162 154.966 147.162H199C199.319 147.166 199.624 147.296 199.849 147.524C200.073 147.751 200.199 148.058 200.199 148.378Z" fill="url(#paint6_linear_558_498)"/>
<path opacity="0.2" d="M200.2 148.378V156.38H174.021V148.378C174.021 148.055 174.15 147.746 174.378 147.518C174.605 147.29 174.915 147.162 175.237 147.162H199.017C199.333 147.171 199.634 147.302 199.855 147.529C200.076 147.756 200.2 148.061 200.2 148.378Z" fill="black"/>
<path opacity="0.2" d="M200.199 148.378V156.38H153.75V148.378C153.75 148.055 153.878 147.746 154.106 147.518C154.334 147.29 154.643 147.162 154.966 147.162H199C199.319 147.166 199.624 147.296 199.849 147.524C200.073 147.751 200.199 148.058 200.199 148.378Z" fill="black"/>
<path d="M212.534 156.805V158H150.441V156.805C150.441 156.559 150.489 156.316 150.582 156.089C150.676 155.861 150.814 155.655 150.987 155.481C151.161 155.307 151.367 155.169 151.594 155.075C151.82 154.981 152.064 154.933 152.309 154.933H210.646C210.893 154.931 211.138 154.977 211.367 155.07C211.596 155.164 211.804 155.301 211.98 155.475C212.155 155.649 212.295 155.856 212.39 156.084C212.485 156.313 212.534 156.557 212.534 156.805Z" fill="black"/>
<path opacity="0.2" d="M212.534 156.805V158H150.441V156.805C150.441 156.559 150.489 156.316 150.582 156.089C150.676 155.861 150.814 155.655 150.987 155.481C151.161 155.307 151.367 155.169 151.594 155.075C151.82 154.981 152.064 154.933 152.309 154.933H210.646C210.893 154.931 211.138 154.977 211.367 155.07C211.596 155.164 211.804 155.301 211.98 155.475C212.155 155.649 212.295 155.856 212.39 156.084C212.485 156.313 212.534 156.557 212.534 156.805Z" fill="white"/>
<path opacity="0.2" d="M212.533 156.805V158H170.711V156.805C170.71 156.559 170.758 156.316 170.852 156.088C170.946 155.861 171.083 155.655 171.257 155.481C171.43 155.307 171.636 155.169 171.863 155.075C172.09 154.981 172.333 154.933 172.579 154.933H210.665C211.161 154.934 211.636 155.131 211.986 155.482C212.336 155.833 212.533 156.309 212.533 156.805Z" fill="black"/>
<path d="M184.559 135.104H183.384C180.697 135.104 178.521 137.676 178.521 140.853C178.521 144.029 180.697 146.602 183.384 146.602H184.559C187.245 146.602 189.421 144.025 189.421 140.853C189.421 137.68 187.245 135.104 184.559 135.104Z" fill="black"/>
<path opacity="0.2" d="M184.559 135.104H183.384C180.697 135.104 178.521 137.676 178.521 140.853C178.521 144.029 180.697 146.602 183.384 146.602H184.559C187.245 146.602 189.421 144.025 189.421 140.853C189.421 137.68 187.245 135.104 184.559 135.104Z" fill="white"/>
<path opacity="0.2" d="M184.561 146.602C187.247 146.602 189.423 144.028 189.423 140.853C189.423 137.678 187.247 135.104 184.561 135.104C181.876 135.104 179.699 137.678 179.699 140.853C179.699 144.028 181.876 146.602 184.561 146.602Z" fill="black"/>
<path d="M186.029 137.438H185.328C183.732 137.438 182.439 138.965 182.439 140.853C182.439 142.741 183.732 144.269 185.328 144.269H186.029C187.622 144.269 188.918 142.741 188.918 140.853C188.918 138.965 187.622 137.438 186.029 137.438Z" fill="black"/>
<path opacity="0.6" d="M186.029 137.438H185.328C183.732 137.438 182.439 138.965 182.439 140.853C182.439 142.741 183.732 144.269 185.328 144.269H186.029C187.622 144.269 188.918 142.741 188.918 140.853C188.918 138.965 187.622 137.438 186.029 137.438Z" fill="white"/>
<path opacity="0.2" d="M186.031 144.269C187.627 144.269 188.92 142.739 188.92 140.853C188.92 138.967 187.627 137.438 186.031 137.438C184.436 137.438 183.143 138.967 183.143 140.853C183.143 142.739 184.436 144.269 186.031 144.269Z" fill="black"/>
<path d="M226.285 95.7578H225.11C222.424 95.7578 220.248 98.3307 220.248 101.507C220.248 104.684 222.424 107.257 225.11 107.257H226.285C228.967 107.257 231.147 104.684 231.147 101.507C231.147 98.3307 228.967 95.7578 226.285 95.7578Z" fill="black"/>
<path opacity="0.2" d="M226.285 95.7578H225.11C222.424 95.7578 220.248 98.3307 220.248 101.507C220.248 104.684 222.424 107.257 225.11 107.257H226.285C228.967 107.257 231.147 104.684 231.147 101.507C231.147 98.3307 228.967 95.7578 226.285 95.7578Z" fill="white"/>
<path opacity="0.2" d="M226.286 107.257C228.971 107.257 231.148 104.682 231.148 101.507C231.148 98.3319 228.971 95.7578 226.286 95.7578C223.601 95.7578 221.424 98.3319 221.424 101.507C221.424 104.682 223.601 107.257 226.286 107.257Z" fill="black"/>
<path d="M227.752 98.0908H227.055C225.459 98.0908 224.166 99.6183 224.166 101.506C224.166 103.395 225.459 104.922 227.055 104.922H227.752C229.348 104.922 230.641 103.395 230.641 101.506C230.641 99.6183 229.348 98.0908 227.752 98.0908Z" fill="black"/>
<path opacity="0.6" d="M227.752 98.0908H227.055C225.459 98.0908 224.166 99.6183 224.166 101.506C224.166 103.395 225.459 104.922 227.055 104.922H227.752C229.348 104.922 230.641 103.395 230.641 101.506C230.641 99.6183 229.348 98.0908 227.752 98.0908Z" fill="white"/>
<path opacity="0.2" d="M227.752 104.922C229.348 104.922 230.641 103.393 230.641 101.506C230.641 99.62 229.348 98.0908 227.752 98.0908C226.157 98.0908 224.863 99.62 224.863 101.506C224.863 103.393 226.157 104.922 227.752 104.922Z" fill="black"/>
<path d="M179.01 56.6492C177.941 56.6668 176.881 56.8443 175.866 57.1759L167.969 60.2998V75.4086L175.866 78.5325C176.992 78.9019 178.173 79.0799 179.358 79.0592C179.358 79.0592 192.38 79.0795 193.539 79.0592C198.924 78.9701 203.976 74.7806 203.976 67.8562C203.976 60.7941 198.709 56.5762 193.215 56.6492C193.223 56.6492 181.315 56.6168 179.01 56.6492Z" fill="url(#paint7_linear_558_498)"/>
<path opacity="0.2" d="M190.055 57.1764L180.537 60.3003V75.4091L190.055 78.533C196.513 80.652 203.984 76.2762 203.984 67.8567C203.984 59.4373 196.513 55.0614 190.055 57.1764Z" fill="black"/>
<path d="M197.553 62.1035H196.378C193.691 62.1035 191.516 64.6763 191.516 67.8529C191.516 71.0294 193.691 73.6023 196.378 73.6023H197.553C200.239 73.6023 202.415 71.0294 202.415 67.8529C202.415 64.6763 200.239 62.1035 197.553 62.1035Z" fill="black"/>
<path opacity="0.2" d="M197.553 62.1035H196.378C193.691 62.1035 191.516 64.6763 191.516 67.8529C191.516 71.0294 193.691 73.6023 196.378 73.6023H197.553C200.239 73.6023 202.415 71.0294 202.415 67.8529C202.415 64.6763 200.239 62.1035 197.553 62.1035Z" fill="white"/>
<path opacity="0.2" d="M197.553 73.6023C200.239 73.6023 202.416 71.0282 202.416 67.8529C202.416 64.6776 200.239 62.1035 197.553 62.1035C194.868 62.1035 192.691 64.6776 192.691 67.8529C192.691 71.0282 194.868 73.6023 197.553 73.6023Z" fill="black"/>
<path d="M199.023 64.4375H198.322C196.726 64.4375 195.434 65.965 195.434 67.8531C195.434 69.7412 196.726 71.2687 198.322 71.2687H199.023C200.62 71.2687 201.912 69.7412 201.912 67.8531C201.912 65.965 200.62 64.4375 199.023 64.4375Z" fill="black"/>
<path opacity="0.6" d="M199.023 64.4375H198.322C196.726 64.4375 195.434 65.965 195.434 67.8531C195.434 69.7412 196.726 71.2687 198.322 71.2687H199.023C200.62 71.2687 201.912 69.7412 201.912 67.8531C201.912 65.965 200.62 64.4375 199.023 64.4375Z" fill="white"/>
<path opacity="0.2" d="M199.026 71.2687C200.621 71.2687 201.914 69.7395 201.914 67.8531C201.914 65.9667 200.621 64.4375 199.026 64.4375C197.43 64.4375 196.137 65.9667 196.137 67.8531C196.137 69.7395 197.43 71.2687 199.026 71.2687Z" fill="black"/>
<path d="M172.835 57.541H174.941C179.755 57.541 183.661 62.16 183.661 67.8526C183.661 73.5453 179.755 78.1602 174.941 78.1602H172.835C168.017 78.1602 164.115 73.5453 164.115 67.8526C164.115 62.16 168.017 57.541 172.835 57.541Z" fill="black"/>
<path opacity="0.2" d="M172.835 57.541H174.941C179.755 57.541 183.661 62.16 183.661 67.8526C183.661 73.5453 179.755 78.1602 174.941 78.1602H172.835C168.017 78.1602 164.115 73.5453 164.115 67.8526C164.115 62.16 168.017 57.541 172.835 57.541Z" fill="white"/>
<path opacity="0.2" d="M172.835 78.1642C177.65 78.1642 181.554 73.5476 181.554 67.8526C181.554 62.1577 177.65 57.541 172.835 57.541C168.019 57.541 164.115 62.1577 164.115 67.8526C164.115 73.5476 168.019 78.1642 172.835 78.1642Z" fill="white"/>
<path d="M170.066 59.583H159.005C155.107 59.583 151.951 63.2863 151.951 67.8526C151.951 72.4188 155.107 76.1221 159.005 76.1221H170.066C173.96 76.1221 177.12 72.4188 177.12 67.8526C177.12 63.2863 173.96 59.583 170.066 59.583Z" fill="black"/>
<path opacity="0.6" d="M170.066 59.583H159.005C155.107 59.583 151.951 63.2863 151.951 67.8526C151.951 72.4188 155.107 76.1221 159.005 76.1221H170.066C173.96 76.1221 177.12 72.4188 177.12 67.8526C177.12 63.2863 173.96 59.583 170.066 59.583Z" fill="white"/>
<path d="M156.614 57.541H158.721C163.538 57.541 167.44 62.16 167.44 67.8526C167.44 73.5453 163.538 78.1602 158.721 78.1602H156.614C151.8 78.1602 147.895 73.5453 147.895 67.8526C147.895 62.16 151.8 57.541 156.614 57.541Z" fill="black"/>
<path opacity="0.2" d="M156.614 57.541H158.721C163.538 57.541 167.44 62.16 167.44 67.8526C167.44 73.5453 163.538 78.1602 158.721 78.1602H156.614C151.8 78.1602 147.895 73.5453 147.895 67.8526C147.895 62.16 151.8 57.541 156.614 57.541Z" fill="white"/>
<path opacity="0.2" d="M156.614 78.1642C161.429 78.1642 165.333 73.5476 165.333 67.8526C165.333 62.1577 161.429 57.541 156.614 57.541C151.798 57.541 147.895 62.1577 147.895 67.8526C147.895 73.5476 151.798 78.1642 156.614 78.1642Z" fill="white"/>
<path d="M137.645 60.0984L140.161 58.3926L147.199 58.5223L155.472 57.6836C155.472 57.6836 158.799 59.2638 161.064 61.4112C161.064 61.4112 163.608 65.9612 162.336 73.7405L159.224 78.5175L154.415 78.7404L148.803 78.1974L145.116 72.1198L137.309 65.6047L137.645 60.0984Z" fill="black"/>
<path opacity="0.2" d="M162.336 73.7446L159.224 78.5175L154.415 78.7404L148.803 78.1974L145.12 72.1198L137.309 65.6047L137.665 60.0984L140.177 58.3967L147.215 58.5223L155.489 57.6836C155.489 57.6836 158.815 59.2638 161.08 61.4112C161.064 61.4112 163.608 65.9612 162.336 73.7446Z" fill="white"/>
<path opacity="0.2" d="M162.336 73.7446L159.224 78.5175L156.894 74.6036L157.109 69.6645L149.994 70.3006L146.591 71.9011L148.074 75.8636L151.121 75.3693L159.224 78.5175L148.803 78.1974L145.116 72.1198L137.859 66.176L144.131 64.6363L150.922 68.7448H157.405L154.163 64.6282L155.509 57.6836C155.509 57.6836 158.835 59.2638 161.1 61.4112C161.064 61.4112 163.608 65.9612 162.336 73.7446Z" fill="black"/>
<path d="M129.287 63.602C129.052 63.1401 129 60.5591 129.255 60.239C129.51 59.919 134.842 57.6338 139.425 58.4239L141.066 63.059L138.108 65.2834L133.416 65.8304L129.287 63.602Z" fill="black"/>
<path opacity="0.4" d="M129.287 63.602C129.052 63.1401 129 60.5591 129.255 60.239C129.51 59.919 134.842 57.6338 139.425 58.4239L141.066 63.059L138.108 65.2834L133.416 65.8304L129.287 63.602Z" fill="white"/>
<path opacity="0.2" d="M141.066 63.0598L138.108 65.2842L133.416 65.8312L129.287 63.6028C129.052 63.1409 129 60.5599 129.255 60.2399C129.255 60.2399 132.723 59.9441 133.392 60.2399C134.06 60.5356 137.29 64.251 137.29 64.251L141.066 63.0598Z" fill="black"/>
<path d="M132.041 60.6377L126.916 63.405L127.443 76.4637C127.443 76.4637 130.51 76.33 131.575 75.5277C132.641 74.7255 135.465 64.2721 135.465 64.2721L132.041 60.6377Z" fill="black"/>
<path opacity="0.6" d="M135.473 64.2721C135.473 64.2721 132.637 74.7296 131.583 75.5318C130.53 76.334 127.637 76.4556 127.454 76.4637L126.928 63.401L132.041 60.6377L135.473 64.2721Z" fill="white"/>
<path opacity="0.2" d="M135.473 64.2714C135.473 64.2714 132.637 74.7289 131.584 75.5311C130.53 76.3334 127.637 76.4549 127.455 76.463C129.85 75.7053 130.38 74.4047 130.38 74.4047L132.05 60.6289L135.473 64.2714Z" fill="black"/>
<path d="M145.942 82.7918L145.82 81.2359L150.273 75.9241L155.22 75.1543L158.676 79.0237L152.599 84.611L148.92 85.8265L145.942 82.7918Z" fill="black"/>
<path opacity="0.4" d="M158.676 79.0276L152.599 84.6109L148.92 85.8264L145.942 82.7916L145.82 81.2317L150.277 75.9199L155.228 75.1582L158.676 79.0276Z" fill="white"/>
<path opacity="0.2" d="M158.676 79.0276L152.599 84.6109L148.92 85.8264L145.942 82.7916L145.82 81.2317L150.5 80.6159L155.224 75.1582L158.676 79.0276Z" fill="black"/>
<path d="M138.471 88.6944C138.398 86.0567 145.1 82.244 145.1 82.244L150.274 81.8389L151.797 85.5989L142.717 89.2454L138.471 88.6944Z" fill="black"/>
<path opacity="0.6" d="M151.797 85.6007L142.714 89.2472L138.471 88.6962C138.394 86.0585 145.1 82.2499 145.1 82.2499L150.274 81.8447L151.797 85.6007Z" fill="white"/>
<path opacity="0.2" d="M151.797 85.5989L142.713 89.2454L138.471 88.6944L142.616 88.6579C142.616 88.6579 143.831 84.359 150.273 81.8389L151.797 85.5989Z" fill="black"/>
<path d="M135.554 63.6357C135.554 63.6357 132.041 64.8837 131.563 68.0926C130.38 66.395 128.038 64.4744 123.436 64.1463C123.436 64.1463 124.983 72.1849 132.754 70.8478C132.737 70.7113 132.712 70.576 132.678 70.4426C133.853 69.7903 135.895 67.963 135.554 63.6357Z" fill="url(#paint8_linear_558_498)"/>
<path opacity="0.2" d="M135.554 63.6357C135.554 63.6357 132.041 64.8837 131.563 68.0926C130.38 66.395 128.038 64.4744 123.436 64.1463C123.436 64.1463 124.983 72.1849 132.754 70.8478C132.737 70.7113 132.712 70.576 132.678 70.4426C133.853 69.7903 135.895 67.963 135.554 63.6357Z" fill="black"/>
<path d="M143.961 86.8851C140.424 90.6816 138.727 89.4094 138.727 89.4094C138.727 89.4094 137.28 91.731 132.929 91.1111C130.279 90.7343 127.118 88.3559 124.882 85.3333C122.281 81.8286 120.923 77.4487 123.047 74.3491C126.588 69.1792 131.94 70.4838 131.94 70.4838C131.94 70.4838 135.339 66.8656 140.238 67.7165C140.461 67.7537 140.68 67.8092 140.894 67.8826C146.563 69.8193 147.381 83.2224 143.961 86.8851Z" fill="url(#paint9_linear_558_498)"/>
<path opacity="0.2" d="M140.436 83.2629C136.895 87.0553 135.202 85.7831 135.202 85.7831C135.202 85.7831 133.755 88.1047 129.4 87.4889C127.965 87.2863 126.385 86.4962 124.882 85.3333C122.281 81.8286 120.923 77.4487 123.047 74.3491C126.588 69.1792 131.94 70.4838 131.94 70.4838C131.94 70.4838 135.339 66.8656 140.238 67.7165C140.461 67.7537 140.68 67.8092 140.894 67.8826C143.171 72.6879 142.932 80.5847 140.436 83.2629Z" fill="white"/>
<path d="M142.459 58.5224L143.743 57.1165C143.743 57.1165 148.682 55.7713 150.806 56.0549C152.076 56.2229 153.302 56.6357 154.416 57.2704L153.69 63.7532C153.69 63.7532 147.208 65.0578 146.065 64.4622C144.922 63.8666 142.459 58.5224 142.459 58.5224Z" fill="black"/>
<path opacity="0.4" d="M154.416 57.2701L153.69 63.7528C153.69 63.7528 147.208 65.0534 146.069 64.4578C144.931 63.8622 142.459 58.5058 142.459 58.5058L143.743 57.0999C143.743 57.0999 148.682 55.7588 150.806 56.0383C152.077 56.2114 153.303 56.6297 154.416 57.2701Z" fill="white"/>
<path opacity="0.2" d="M153.69 63.7678C153.69 63.7678 147.208 65.0684 146.069 64.4728C144.931 63.8772 142.459 58.5208 142.459 58.5208C142.459 58.5208 146.843 57.8523 147.977 58.4033C149.112 58.9543 150.522 63.2208 150.522 63.2208L153.69 63.7678Z" fill="black"/>
<path d="M136.902 74.1612L141.063 58.5176H147.198L148.818 63.015C148.818 63.015 143.596 73.1605 141.708 74.1612C139.82 75.162 136.902 74.1612 136.902 74.1612Z" fill="black"/>
<path opacity="0.6" d="M148.808 63.032C148.808 63.032 143.598 73.1613 141.709 74.1621C139.821 75.1629 136.908 74.1621 136.908 74.1621L141.069 58.5225H147.2L148.808 63.032Z" fill="white"/>
<path opacity="0.2" d="M148.808 63.032C148.808 63.032 143.598 73.1613 141.709 74.1621C139.821 75.1629 136.908 74.1621 136.908 74.1621C140.498 74.2796 141.114 72.8939 141.114 72.8939L147.191 58.5225L148.808 63.032Z" fill="black"/>
<path d="M125.67 95.1416C125.67 95.1416 129.858 98.7677 128.784 103.471C131.335 101.758 135.607 100.373 142.146 102.4C142.146 102.4 135.67 112.677 125.66 106.646C125.759 106.47 125.868 106.3 125.986 106.137C124.705 104.568 122.864 100.941 125.67 95.1416Z" fill="#FF4F4F"/>
<path opacity="0.2" d="M125.67 95.1416C125.67 95.1416 129.858 98.7677 128.784 103.471C131.335 101.758 135.607 100.373 142.146 102.4C142.146 102.4 135.67 112.677 125.66 106.646C125.759 106.47 125.868 106.3 125.986 106.137C124.705 104.568 122.864 100.941 125.67 95.1416Z" fill="black"/>
<path d="M122.486 137.018C114.779 137.102 114.412 133.974 114.412 133.974C114.412 133.974 110.439 134.796 106.649 129.483C104.346 126.249 103.665 120.418 104.61 114.907C105.714 108.526 109.026 102.579 114.538 101.689C123.72 100.202 127.795 107.292 127.795 107.292C127.795 107.292 135.165 107.246 139.268 113.378C139.451 113.658 139.613 113.953 139.751 114.258C143.497 122.341 129.918 136.942 122.486 137.018Z" fill="#FF4F4F"/>
<path opacity="0.2" d="M122.776 129.515C115.072 129.594 114.702 126.471 114.702 126.471C114.702 126.471 110.724 127.29 106.934 121.977C105.681 120.234 104.914 117.72 104.626 114.915C105.73 108.534 109.042 102.587 114.553 101.697C123.735 100.21 127.81 107.3 127.81 107.3C127.81 107.3 135.181 107.253 139.283 113.386C139.467 113.666 139.629 113.96 139.767 114.266C136.935 121.631 128.207 129.461 122.776 129.515Z" fill="white"/>
<path d="M151.025 129.91C154.324 130.055 157.31 131.323 157.765 132.87L157.096 133.137C157.096 133.137 155.186 129.819 150.649 130.65L151.025 129.91Z" fill="#FF4F4F"/>
<path d="M136.437 145.967C133.819 145.01 131.314 143.771 128.964 142.272C127.314 141.26 125.866 139.952 124.691 138.414L124.52 138.165C122.259 134.648 124.556 126.492 124.556 126.492L152.259 130.071L152.234 130.119C152.235 130.241 152.229 130.373 152.216 130.514C151.721 142.548 142.131 148.051 136.437 145.967Z" fill="#FF4F4F"/>
<path opacity="0.7" d="M135.304 144.535C126.673 140.278 124.552 126.49 124.552 126.49L152.255 130.069C152.076 139.41 143.938 148.787 135.304 144.535Z" fill="white"/>
<path opacity="0.2" d="M136.437 145.969C133.82 145.011 131.314 143.772 128.965 142.273C127.344 141.222 125.902 139.92 124.691 138.415L124.521 138.166C122.26 134.65 124.556 126.493 124.556 126.493C124.556 126.493 126.725 147.159 140.009 146.043C149.302 145.266 152.002 134.495 152.238 130.527C151.721 142.549 142.132 148.052 136.437 145.969Z" fill="black"/>
<path opacity="0.2" d="M140.79 128.945C141.022 128.966 141.251 129.008 141.475 129.07C142.144 129.268 142.864 129.257 143.451 129.683C143.62 129.787 143.744 129.951 143.797 130.143C143.81 130.325 143.76 130.507 143.657 130.658C143.48 131.035 143.211 131.363 142.876 131.611C142.645 131.752 142.392 131.851 142.126 131.904C141.47 132.037 140.791 132.002 140.152 131.802C139.513 131.603 138.934 131.245 138.47 130.762C138.221 130.533 138.043 130.236 137.959 129.908C137.92 129.744 137.932 129.572 137.995 129.415C138.057 129.258 138.167 129.125 138.309 129.034C138.484 128.958 138.674 128.925 138.864 128.938C139.506 128.899 140.149 128.901 140.79 128.945Z" fill="black"/>
<path d="M141.447 129.787C141.426 129.861 141.391 129.93 141.344 129.991C141.169 130.166 140.939 130.275 140.694 130.301C140.504 130.344 140.305 130.326 140.126 130.249C139.59 129.977 139.863 129.441 140.244 129.169C140.625 128.897 141.74 129.106 141.447 129.787Z" fill="#263238"/>
<defs>
<linearGradient id="paint0_linear_558_498" x1="223.881" y1="100.743" x2="198.751" y2="69.4456" gradientUnits="userSpaceOnUse">
<stop stop-color="#5A45FF"/>
<stop offset="0.265384" stop-color="#7D71FF"/>
<stop offset="0.478947" stop-color="#7C81FF"/>
<stop offset="1" stop-color="#000099"/>
</linearGradient>
<linearGradient id="paint1_linear_558_498" x1="221.615" y1="121.456" x2="214.929" y2="111.072" gradientUnits="userSpaceOnUse">
<stop stop-color="#5A45FF"/>
<stop offset="0.265384" stop-color="#7D71FF"/>
<stop offset="0.478947" stop-color="#7C81FF"/>
<stop offset="1" stop-color="#000099"/>
</linearGradient>
<linearGradient id="paint2_linear_558_498" x1="209.875" y1="139.178" x2="196.256" y2="119.74" gradientUnits="userSpaceOnUse">
<stop stop-color="#5A45FF"/>
<stop offset="0.265384" stop-color="#7D71FF"/>
<stop offset="0.478947" stop-color="#7C81FF"/>
<stop offset="1" stop-color="#000099"/>
</linearGradient>
<linearGradient id="paint3_linear_558_498" x1="176.609" y1="145.767" x2="167.788" y2="129.605" gradientUnits="userSpaceOnUse">
<stop stop-color="#5A45FF"/>
<stop offset="0.265384" stop-color="#7D71FF"/>
<stop offset="0.478947" stop-color="#7C81FF"/>
<stop offset="1" stop-color="#000099"/>
</linearGradient>
<linearGradient id="paint4_linear_558_498" x1="203.075" y1="127.72" x2="184.13" y2="96.1768" gradientUnits="userSpaceOnUse">
<stop stop-color="#5A45FF"/>
<stop offset="0.265384" stop-color="#7D71FF"/>
<stop offset="0.478947" stop-color="#7C81FF"/>
<stop offset="1" stop-color="#000099"/>
</linearGradient>
<linearGradient id="paint5_linear_558_498" x1="184.366" y1="145.767" x2="175.546" y2="129.605" gradientUnits="userSpaceOnUse">
<stop stop-color="#5A45FF"/>
<stop offset="0.265384" stop-color="#7D71FF"/>
<stop offset="0.478947" stop-color="#7C81FF"/>
<stop offset="1" stop-color="#000099"/>
</linearGradient>
<linearGradient id="paint6_linear_558_498" x1="184.355" y1="154.501" x2="182.835" y2="143.185" gradientUnits="userSpaceOnUse">
<stop stop-color="#5A45FF"/>
<stop offset="0.265384" stop-color="#7D71FF"/>
<stop offset="0.478947" stop-color="#7C81FF"/>
<stop offset="1" stop-color="#000099"/>
</linearGradient>
<linearGradient id="paint7_linear_558_498" x1="191.694" y1="74.4966" x2="181.656" y2="50.692" gradientUnits="userSpaceOnUse">
<stop stop-color="#5A45FF"/>
<stop offset="0.265384" stop-color="#7D71FF"/>
<stop offset="0.478947" stop-color="#7C81FF"/>
<stop offset="1" stop-color="#000099"/>
</linearGradient>
<linearGradient id="paint8_linear_558_498" x1="131.445" y1="69.4976" x2="128.216" y2="61.6199" gradientUnits="userSpaceOnUse">
<stop stop-color="#5A45FF"/>
<stop offset="0.265384" stop-color="#7D71FF"/>
<stop offset="0.478947" stop-color="#7C81FF"/>
<stop offset="1" stop-color="#000099"/>
</linearGradient>
<linearGradient id="paint9_linear_558_498" x1="137.809" y1="86.401" x2="124.178" y2="65.9547" gradientUnits="userSpaceOnUse">
<stop stop-color="#5A45FF"/>
<stop offset="0.265384" stop-color="#7D71FF"/>
<stop offset="0.478947" stop-color="#7C81FF"/>
<stop offset="1" stop-color="#000099"/>
</linearGradient>
</defs>
</svg>
