<svg width="126" height="118" viewBox="0 0 126 118" fill="none" xmlns="http://www.w3.org/2000/svg">
<ellipse cx="63" cy="59" rx="63" ry="43" fill="#F4EBFF"/>
<path d="M7.47461 66.1263L22.538 51.2841L48.1846 46.7393L45.6495 60.1618L10.9777 70.8186L8.73758 69.8507L7.47461 66.1263Z" fill="#9A91FF"/>
<path d="M25.147 55.0909L8.79297 69.9515L20.8234 75.8146L39.0858 66.4945V62.0972L42.8194 52.0303L25.147 55.0909ZM63.8473 81.2629L55.9469 84.6923L48.4889 100.502C48.4889 100.502 55.0527 115.04 55.3477 115.04C55.6427 115.04 59.3762 115.335 59.3762 115.335L72.6512 100.493L76.0069 75.1417L63.8473 81.2629Z" fill="url(#paint0_linear_549_2645)"/>
<path d="M56.0869 92.9616C56.0869 92.9616 60.4842 92.0674 63.6186 90.574C66.753 89.0805 70.6248 86.8496 70.6248 86.8496L69.2052 99.2304L55.3309 115.022C55.3309 115.022 54.787 114.349 52.4823 109.334C50.6478 105.333 50.0117 103.904 50.0117 103.904L56.0869 92.9616Z" fill="#9A91FF"/>
<path d="M33.1132 74.3587C33.1132 74.3587 27.8217 73.9161 22.0231 81.2451C16.7315 87.9379 14.2517 98.8344 13.2929 101.637C12.3342 104.439 10.0387 105.011 10.8039 106.292C11.569 107.574 14.8786 107.5 18.9625 106.993C23.0464 106.486 26.5495 105.205 26.5495 105.205C26.5495 105.205 26.3743 105.647 25.7843 106.606C25.5723 106.947 24.8348 107.436 24.8901 107.943C25.0192 109.15 35.3626 109.178 43.6226 100.678C52.5464 91.5055 48.2136 83.983 48.2136 83.983L33.1132 74.3587Z" fill="#F7D74D"/>
<path d="M34.7084 78.627C34.7084 78.627 29.002 78.9312 24.282 86.2601C19.562 93.589 17.3679 102.079 17.8196 102.651C18.2621 103.223 27.0568 100.042 29.1679 100.678C30.6153 101.121 29.8685 102.586 30.2557 102.974C30.5784 103.296 34.3949 103.84 40.5715 97.1474C46.7573 90.4546 45.2915 81.0515 45.2915 81.0515L34.7084 78.627Z" fill="#FBF0B4"/>
<path d="M37.511 68.624C37.511 68.624 34.644 71.1776 33.6207 72.6434C32.5974 74.1092 32.5974 74.2382 32.662 74.6807C32.7265 75.1232 33.7867 79.9815 38.2024 84.2406C43.6231 89.4676 48.4629 90.1682 49.1635 90.1682C49.8642 90.1682 54.5196 84.9412 54.5196 84.9412L37.511 68.624Z" fill="#858585"/>
<path d="M50.1855 84.1117C50.1855 84.1117 54.8318 87.1631 62.6216 84.545C73.2693 80.9681 81.0776 72.9662 90.748 62.8625C100.077 53.109 107.904 41.0048 107.904 41.0048L102.419 22.6318L50.1855 84.1117Z" fill="black"/>
<path d="M66.6777 74.0538L67.9591 70.0713L71.1673 70.523C71.1673 70.523 73.6102 71.6754 75.4079 72.5143C77.2055 73.3532 79.5195 73.9893 79.5195 73.9893L74.9562 77.8427C74.9562 77.8427 72.4671 76.9024 70.651 76.1096C68.6045 75.2153 66.6777 74.0538 66.6777 74.0538Z" fill="#3F545F"/>
<path d="M81.7318 14.8789C81.7318 14.8789 72.8634 20.023 60.1507 32.0534C48.6918 42.8947 40.2013 52.7034 38.1456 61.0464C36.4309 68.0342 37.3435 72.2748 41.2431 76.8566C45.3638 81.7056 50.1945 84.1117 50.1945 84.1117C50.1945 84.1117 53.8267 84.167 68.9823 72.5053C87.8899 57.9489 103.036 33.5745 103.036 33.5745L81.7318 14.8789Z" fill="#373737"/>
<path d="M100.041 38.5711C100.041 38.5711 92.3244 35.28 86.8208 27.6008C81.3541 19.9769 81.7874 14.8236 81.7874 14.8236C81.7874 14.8236 86.3599 11.2375 96.6388 7.13518C103.553 4.37878 112.965 2.96831 116.063 5.26378C119.16 7.55925 113.942 19.0735 113.942 19.0735L104.438 37.4741L100.041 38.5711Z" fill="url(#paint1_linear_549_2645)"/>
<path d="M66.8433 74.119C66.8433 74.119 60.1781 70.7173 55.9375 65.8774C47.9172 56.7416 46.2578 46.7116 46.2578 46.7116L50.2864 41.9824C50.2864 41.9824 51.2913 52.6393 59.8923 61.8488C65.4973 67.8502 71.3512 70.5974 71.3512 70.5974C71.3512 70.5974 70.1805 71.5838 68.9267 72.5426C68.1247 73.1602 66.8433 74.119 66.8433 74.119Z" fill="white"/>
<path d="M107.905 41.0052C107.905 41.0052 111.906 36.1838 115.694 25.3149C120.986 10.1593 116.377 5.56836 116.377 5.56836C116.377 5.56836 114.819 12.7774 109.407 22.7982C105.065 30.8277 99.8105 38.4701 99.8105 38.4701C99.8105 38.4701 102.705 39.7699 104.272 40.2216C106.245 40.7932 107.905 41.0052 107.905 41.0052Z" fill="url(#paint2_linear_549_2645)"/>
<path d="M40.6992 64.2181C41.8976 65.3612 43.7137 64.1628 44.903 61.3603C46.1014 58.5578 46.083 56.9906 45.1611 56.3268C44.018 55.4972 42.1005 57.3132 41.2615 58.9265C40.3397 60.715 39.7958 63.3515 40.6992 64.2181ZM82.3126 18.5576C82.3126 18.5576 75.2972 23.6003 67.8116 30.459C60.9436 36.7554 56.3895 41.6782 55.7626 42.8214C55.0989 44.0475 55.0897 45.7806 55.6059 46.6656C56.1222 47.5506 57.2653 48.0115 58.307 47.2372C59.3487 46.4536 66.7698 38.2489 73.4719 32.3857C79.6023 27.0204 84.3316 23.6187 84.3316 23.6187C84.3316 23.6187 86.249 20.2262 85.9356 19.4518C85.6222 18.6682 82.3126 18.5576 82.3126 18.5576Z" fill="#636363"/>
<path d="M82.3125 18.5571C82.3125 18.5571 87.4934 14.5838 93.1353 11.7905C98.3808 9.19086 103.599 7.02445 104.539 8.90508C105.433 10.6935 99.5884 13.1273 94.4444 16.4091C89.3003 19.691 84.3498 23.609 84.3498 23.609C84.3498 23.609 83.5939 22.2262 83.1053 20.9448C82.796 20.1646 82.5313 19.3674 82.3125 18.5571Z" fill="url(#paint3_linear_549_2645)"/>
<path d="M86.5899 36.1838C81.4551 31.4546 74.3106 32.7268 70.789 36.9305C67.1752 41.2633 67.4426 47.8824 71.7109 51.8649C75.592 55.4786 82.8102 56.2991 87.1615 51.2288C91.0334 46.73 90.7937 40.0464 86.5899 36.1838Z" fill="white"/>
<path d="M73.4455 38.5988C70.3941 41.5949 70.56 47.5318 74.1922 50.2421C77.3634 52.6113 81.8622 52.4915 84.6831 49.606C87.5041 46.7205 87.5041 41.4751 84.8583 38.7647C81.8161 35.658 76.9394 35.1694 73.4455 38.5988Z" fill="black"/>
<path d="M50.0933 70.8828C50.0933 70.8828 55.7997 65.0934 56.4266 65.7203C57.0535 66.3472 56.9705 69.8595 54.2418 73.7683C51.5038 77.677 45.484 84.6372 40.7179 89.3295C36.0163 93.9481 29.388 99.2305 28.7612 99.1383C28.2726 99.0645 26.2905 98.0781 25.4977 97.1194C24.7233 96.1698 27.0372 91.6803 27.9683 90.1961C28.9087 88.7119 50.0933 70.8828 50.0933 70.8828Z" fill="url(#paint4_linear_549_2645)"/>
<path d="M23.5723 93.8934C23.4985 95.2209 25.5267 97.1568 25.5267 97.1568L56.4279 65.7301C56.4279 65.7301 54.9806 64.0984 50.7215 66.7441C46.4256 69.4176 42.6643 72.6257 37.1146 78.0002C29.3801 85.5043 23.646 92.5659 23.5723 93.8934Z" fill="#9A91FF"/>
<path d="M21.5705 34.063C20.5472 35.0863 20.5011 36.7272 21.6442 37.6675C22.6583 38.5064 24.3085 37.9625 24.9261 37.2066C25.5438 36.4506 25.47 34.8097 24.6495 33.9985C23.8291 33.178 22.1974 33.4453 21.5705 34.063Z" fill="white"/>
<path opacity="0.5" d="M41.8152 32.8646C41.0408 33.722 41.2897 34.9942 42.0088 35.4643C42.7278 35.9345 43.8064 35.8884 44.3319 35.2431C44.802 34.6623 44.8573 33.5007 44.1383 32.7817C43.5114 32.164 42.313 32.3115 41.8152 32.8646Z" fill="white"/>
<path d="M55.2107 10.9611C55.2107 10.9611 56.3354 7.75301 56.9991 7.71613C57.6721 7.67926 58.6401 10.9243 58.6401 10.9243C58.6401 10.9243 61.968 10.9611 62.1893 11.4497C62.4751 12.0766 60.0598 14.1785 60.0598 14.1785C60.0598 14.1785 60.8434 17.3129 60.4746 17.6908C60.0598 18.1057 57.1927 16.4555 57.1927 16.4555C57.1927 16.4555 54.2427 18.5113 53.6066 17.9489C53.0535 17.4604 54.2059 14.1416 54.2059 14.1416C54.2059 14.1416 51.4402 12.1227 51.5877 11.5604C51.7998 10.7675 55.2107 10.9611 55.2107 10.9611ZM93.4316 87.8824C94.5471 88.5 95.9484 88.1497 96.4646 86.9605C96.9348 85.9004 96.0682 84.6374 95.2846 84.2963C94.501 83.9552 93.1274 84.4069 92.6296 85.3011C92.141 86.1861 92.7587 87.5136 93.4316 87.8824ZM109.269 60.6963C108.633 59.7099 107.26 59.3872 106.366 60.18C105.499 60.9544 105.711 62.1713 106.2 62.7889C106.688 63.4066 107.997 63.6371 108.79 63.13C109.583 62.623 109.657 61.2863 109.269 60.6963Z" fill="white"/>
<defs>
<linearGradient id="paint0_linear_549_2645" x1="53.0803" y1="102.435" x2="17.216" y2="46.1782" gradientUnits="userSpaceOnUse">
<stop stop-color="#5A45FF"/>
<stop offset="0.265384" stop-color="#7D71FF"/>
<stop offset="0.478947" stop-color="#7C81FF"/>
<stop offset="1" stop-color="#000099"/>
</linearGradient>
<linearGradient id="paint1_linear_549_2645" x1="105.016" y1="31.5494" x2="85.2014" y2="1.58855" gradientUnits="userSpaceOnUse">
<stop stop-color="#5A45FF"/>
<stop offset="0.265384" stop-color="#7D71FF"/>
<stop offset="0.478947" stop-color="#7C81FF"/>
<stop offset="1" stop-color="#000099"/>
</linearGradient>
<linearGradient id="paint2_linear_549_2645" x1="111.952" y1="33.7838" x2="90.5551" y2="17.3464" gradientUnits="userSpaceOnUse">
<stop stop-color="#5A45FF"/>
<stop offset="0.265384" stop-color="#7D71FF"/>
<stop offset="0.478947" stop-color="#7C81FF"/>
<stop offset="1" stop-color="#000099"/>
</linearGradient>
<linearGradient id="paint3_linear_549_2645" x1="97.0177" y1="20.4679" x2="89.627" y2="4.65847" gradientUnits="userSpaceOnUse">
<stop stop-color="#5A45FF"/>
<stop offset="0.265384" stop-color="#7D71FF"/>
<stop offset="0.478947" stop-color="#7C81FF"/>
<stop offset="1" stop-color="#000099"/>
</linearGradient>
<linearGradient id="paint4_linear_549_2645" x1="46.0349" y1="92.3195" x2="26.1897" y2="64.8063" gradientUnits="userSpaceOnUse">
<stop stop-color="#5A45FF"/>
<stop offset="0.265384" stop-color="#7D71FF"/>
<stop offset="0.478947" stop-color="#7C81FF"/>
<stop offset="1" stop-color="#000099"/>
</linearGradient>
</defs>
</svg>
