<svg width="363" height="210" viewBox="0 0 363 210" fill="none" xmlns="http://www.w3.org/2000/svg">
<ellipse cx="182" cy="115" rx="63" ry="43" fill="#F4EBFF"/>
<path d="M126.475 122.126L141.538 107.284L167.185 102.739L164.649 116.162L129.978 126.819L127.738 125.851L126.475 122.126Z" fill="#9A91FF"/>
<path d="M144.147 111.091L127.793 125.952L139.823 131.815L158.086 122.494V118.097L161.819 108.03L144.147 111.091ZM182.847 137.263L174.947 140.692L167.489 156.502C167.489 156.502 174.053 171.04 174.348 171.04C174.643 171.04 178.376 171.335 178.376 171.335L191.651 156.493L195.007 131.142L182.847 137.263Z" fill="url(#paint0_linear_558_500)"/>
<path d="M175.087 148.962C175.087 148.962 179.484 148.067 182.619 146.574C185.753 145.081 189.625 142.85 189.625 142.85L188.205 155.23L174.331 171.022C174.331 171.022 173.787 170.349 171.482 165.334C169.648 161.333 169.012 159.904 169.012 159.904L175.087 148.962Z" fill="#9A91FF"/>
<path d="M152.113 130.359C152.113 130.359 146.822 129.916 141.023 137.245C135.732 143.938 133.252 154.834 132.293 157.637C131.334 160.439 129.039 161.011 129.804 162.292C130.569 163.574 133.879 163.5 137.962 162.993C142.046 162.486 145.549 161.205 145.549 161.205C145.549 161.205 145.374 161.647 144.784 162.606C144.572 162.947 143.835 163.436 143.89 163.943C144.019 165.15 154.363 165.178 162.623 156.678C171.546 147.506 167.214 139.983 167.214 139.983L152.113 130.359Z" fill="#F7D74D"/>
<path d="M153.708 134.627C153.708 134.627 148.002 134.931 143.282 142.26C138.562 149.589 136.368 158.079 136.82 158.651C137.262 159.223 146.057 156.042 148.168 156.678C149.615 157.121 148.869 158.586 149.256 158.974C149.578 159.296 153.395 159.84 159.572 153.147C165.757 146.455 164.292 137.051 164.292 137.051L153.708 134.627Z" fill="#FBF0B4"/>
<path d="M156.511 124.624C156.511 124.624 153.644 127.178 152.621 128.643C151.597 130.109 151.597 130.238 151.662 130.681C151.727 131.123 152.787 135.982 157.202 140.241C162.623 145.468 167.463 146.168 168.164 146.168C168.864 146.168 173.52 140.941 173.52 140.941L156.511 124.624Z" fill="#858585"/>
<path d="M169.186 140.112C169.186 140.112 173.832 143.163 181.622 140.545C192.269 136.968 200.078 128.966 209.748 118.862C219.077 109.109 226.904 97.0048 226.904 97.0048L221.419 78.6318L169.186 140.112Z" fill="black"/>
<path d="M185.678 130.054L186.959 126.071L190.167 126.523C190.167 126.523 192.61 127.675 194.408 128.514C196.206 129.353 198.519 129.989 198.519 129.989L193.956 133.843C193.956 133.843 191.467 132.902 189.651 132.11C187.604 131.215 185.678 130.054 185.678 130.054Z" fill="#3F545F"/>
<path d="M200.732 70.8789C200.732 70.8789 191.863 76.023 179.151 88.0534C167.692 98.8947 159.201 108.703 157.146 117.046C155.431 124.034 156.344 128.275 160.243 132.857C164.364 137.706 169.194 140.112 169.194 140.112C169.194 140.112 172.827 140.167 187.982 128.505C206.89 113.949 222.036 89.5745 222.036 89.5745L200.732 70.8789Z" fill="#373737"/>
<path d="M219.041 94.5711C219.041 94.5711 211.324 91.28 205.821 83.6008C200.354 75.9769 200.787 70.8236 200.787 70.8236C200.787 70.8236 205.36 67.2375 215.639 63.1352C222.553 60.3788 231.965 58.9683 235.063 61.2638C238.16 63.5592 232.942 75.0735 232.942 75.0735L223.438 93.4741L219.041 94.5711Z" fill="url(#paint1_linear_558_500)"/>
<path d="M185.843 130.119C185.843 130.119 179.178 126.717 174.938 121.877C166.917 112.742 165.258 102.712 165.258 102.712L169.286 97.9824C169.286 97.9824 170.291 108.639 178.892 117.849C184.497 123.85 190.351 126.597 190.351 126.597C190.351 126.597 189.18 127.584 187.927 128.543C187.125 129.16 185.843 130.119 185.843 130.119Z" fill="white"/>
<path d="M226.905 97.0052C226.905 97.0052 230.906 92.1838 234.694 81.3149C239.986 66.1593 235.377 61.5684 235.377 61.5684C235.377 61.5684 233.819 68.7774 228.407 78.7982C224.065 86.8277 218.811 94.4701 218.811 94.4701C218.811 94.4701 221.705 95.7699 223.272 96.2216C225.245 96.7932 226.905 97.0052 226.905 97.0052Z" fill="url(#paint2_linear_558_500)"/>
<path d="M159.699 120.218C160.898 121.361 162.714 120.163 163.903 117.36C165.101 114.558 165.083 112.991 164.161 112.327C163.018 111.497 161.1 113.313 160.262 114.927C159.34 116.715 158.796 119.352 159.699 120.218ZM201.313 74.5576C201.313 74.5576 194.297 79.6003 186.812 86.459C179.944 92.7554 175.39 97.6782 174.763 98.8214C174.099 100.047 174.09 101.781 174.606 102.666C175.122 103.551 176.265 104.012 177.307 103.237C178.349 102.454 185.77 94.2489 192.472 88.3857C198.602 83.0204 203.332 79.6187 203.332 79.6187C203.332 79.6187 205.249 76.2262 204.936 75.4518C204.622 74.6682 201.313 74.5576 201.313 74.5576Z" fill="#636363"/>
<path d="M201.312 74.5571C201.312 74.5571 206.493 70.5838 212.135 67.7905C217.381 65.1909 222.599 63.0245 223.539 64.9051C224.433 66.6935 218.588 69.1273 213.444 72.4091C208.3 75.691 203.35 79.609 203.35 79.609C203.35 79.609 202.594 78.2262 202.105 76.9448C201.796 76.1646 201.531 75.3674 201.312 74.5571Z" fill="url(#paint3_linear_558_500)"/>
<path d="M205.59 92.1838C200.455 87.4546 193.311 88.7268 189.789 92.9305C186.175 97.2633 186.443 103.882 190.711 107.865C194.592 111.479 201.81 112.299 206.161 107.229C210.033 102.73 209.794 96.0464 205.59 92.1838Z" fill="white"/>
<path d="M192.445 94.5988C189.394 97.5949 189.56 103.532 193.192 106.242C196.363 108.611 200.862 108.491 203.683 105.606C206.504 102.721 206.504 97.4751 203.858 94.7647C200.816 91.658 195.939 91.1694 192.445 94.5988Z" fill="black"/>
<path d="M169.093 126.883C169.093 126.883 174.8 121.093 175.427 121.72C176.053 122.347 175.971 125.86 173.242 129.768C170.504 133.677 164.484 140.637 159.718 145.33C155.016 149.948 148.388 155.23 147.761 155.138C147.273 155.065 145.291 154.078 144.498 153.119C143.723 152.17 146.037 147.68 146.968 146.196C147.909 144.712 169.093 126.883 169.093 126.883Z" fill="url(#paint4_linear_558_500)"/>
<path d="M142.572 149.893C142.499 151.221 144.527 153.157 144.527 153.157L175.428 121.73C175.428 121.73 173.981 120.098 169.721 122.744C165.426 125.418 161.664 128.626 156.115 134C148.38 141.504 142.646 148.566 142.572 149.893Z" fill="#9A91FF"/>
<path d="M140.57 90.063C139.547 91.0863 139.501 92.7272 140.644 93.6675C141.658 94.5064 143.308 93.9625 143.926 93.2066C144.544 92.4506 144.47 90.8097 143.65 89.9985C142.829 89.178 141.197 89.4453 140.57 90.063Z" fill="white"/>
<path opacity="0.5" d="M160.815 88.8646C160.041 89.722 160.29 90.9942 161.009 91.4643C161.728 91.9345 162.806 91.8884 163.332 91.2431C163.802 90.6623 163.857 89.5007 163.138 88.7817C162.511 88.164 161.313 88.3115 160.815 88.8646Z" fill="white"/>
<path d="M174.211 66.9611C174.211 66.9611 175.335 63.753 175.999 63.7161C176.672 63.6793 177.64 66.9243 177.64 66.9243C177.64 66.9243 180.968 66.9611 181.189 67.4497C181.475 68.0766 179.06 70.1785 179.06 70.1785C179.06 70.1785 179.843 73.3129 179.475 73.6908C179.06 74.1057 176.193 72.4555 176.193 72.4555C176.193 72.4555 173.243 74.5113 172.607 73.9489C172.054 73.4604 173.206 70.1416 173.206 70.1416C173.206 70.1416 170.44 68.1227 170.588 67.5604C170.8 66.7675 174.211 66.9611 174.211 66.9611ZM212.432 143.882C213.547 144.5 214.948 144.15 215.465 142.961C215.935 141.9 215.068 140.637 214.285 140.296C213.501 139.955 212.127 140.407 211.63 141.301C211.141 142.186 211.759 143.514 212.432 143.882ZM228.269 116.696C227.633 115.71 226.26 115.387 225.366 116.18C224.499 116.954 224.711 118.171 225.2 118.789C225.688 119.407 226.997 119.637 227.79 119.13C228.583 118.623 228.657 117.286 228.269 116.696Z" fill="white"/>
<defs>
<linearGradient id="paint0_linear_558_500" x1="172.08" y1="158.435" x2="136.216" y2="102.178" gradientUnits="userSpaceOnUse">
<stop stop-color="#5A45FF"/>
<stop offset="0.265384" stop-color="#7D71FF"/>
<stop offset="0.478947" stop-color="#7C81FF"/>
<stop offset="1" stop-color="#000099"/>
</linearGradient>
<linearGradient id="paint1_linear_558_500" x1="224.016" y1="87.5494" x2="204.201" y2="57.5886" gradientUnits="userSpaceOnUse">
<stop stop-color="#5A45FF"/>
<stop offset="0.265384" stop-color="#7D71FF"/>
<stop offset="0.478947" stop-color="#7C81FF"/>
<stop offset="1" stop-color="#000099"/>
</linearGradient>
<linearGradient id="paint2_linear_558_500" x1="230.952" y1="89.7838" x2="209.555" y2="73.3464" gradientUnits="userSpaceOnUse">
<stop stop-color="#5A45FF"/>
<stop offset="0.265384" stop-color="#7D71FF"/>
<stop offset="0.478947" stop-color="#7C81FF"/>
<stop offset="1" stop-color="#000099"/>
</linearGradient>
<linearGradient id="paint3_linear_558_500" x1="216.018" y1="76.4679" x2="208.627" y2="60.6585" gradientUnits="userSpaceOnUse">
<stop stop-color="#5A45FF"/>
<stop offset="0.265384" stop-color="#7D71FF"/>
<stop offset="0.478947" stop-color="#7C81FF"/>
<stop offset="1" stop-color="#000099"/>
</linearGradient>
<linearGradient id="paint4_linear_558_500" x1="165.035" y1="148.32" x2="145.19" y2="120.806" gradientUnits="userSpaceOnUse">
<stop stop-color="#5A45FF"/>
<stop offset="0.265384" stop-color="#7D71FF"/>
<stop offset="0.478947" stop-color="#7C81FF"/>
<stop offset="1" stop-color="#000099"/>
</linearGradient>
</defs>
</svg>
